{"accessors":[{"bufferView":0,"byteOffset":0,"componentType":5126,"count":36088,"max":[0.15,0.10499999999999998,8.673617379884036e-19],"min":[-0.15,-0.10500000000000005,-0.11],"type":"VEC3"},{"bufferView":0,"byteOffset":433056,"componentType":5126,"count":1234,"max":[0.012216997801429444,0.01721517666779728,0.0095],"min":[0.00671699780142945,0.011715176667797287,-0.0075],"type":"VEC3"},{"bufferView":0,"byteOffset":447864,"componentType":5126,"count":1272,"max":[0.012799999999999998,0.018000000000000003,0.012749902325005154],"min":[-0.008700000000000003,-0.014,-0.012749902325005156],"type":"VEC3"},{"bufferView":0,"byteOffset":463128,"componentType":5126,"count":1403,"max":[0.03710000000000001,0.02698505747101126,0.015349874180896652],"min":[0.0019999999999967389,-0.009000000000000001,-0.009499999999999997],"type":"VEC3"},{"bufferView":0,"byteOffset":479964,"componentType":5126,"count":730,"max":[0.002999999999999716,0.025709425761539709,0.015278296697805403],"min":[0.0019999999999967389,0.010946904740224781,0.00008150990700239192],"type":"VEC3"},{"bufferView":0,"byteOffset":488724,"componentType":5126,"count":3148,"max":[0.004700000000000003,0.01215,0.013500000000000002],"min":[-0.007200000000000003,-0.012149999999999993,0.012000000000000002],"type":"VEC3"},{"bufferView":0,"byteOffset":526500,"componentType":5126,"count":661,"max":[0.05960000000000001,0.0035,0.012722141118746146],"min":[-0.010799999999999997,-0.014,-0.0035],"type":"VEC3"},{"bufferView":0,"byteOffset":534432,"componentType":5126,"count":685,"max":[0.0784,0.011,0.011],"min":[0.0,-0.011,-0.011],"type":"VEC3"},{"bufferView":0,"byteOffset":542652,"componentType":5126,"count":2230,"max":[0.0592,0.0105,0.0105],"min":[0.03339999999999999,-0.0105,-0.0105],"type":"VEC3"},{"bufferView":0,"byteOffset":569412,"componentType":5126,"count":3606,"max":[0.054900000000000007,0.008113961030678923,0.008113961030678928],"min":[0.05360000000000001,-0.008113961030678923,-0.008113961030678926],"type":"VEC3"},{"bufferView":0,"byteOffset":612684,"componentType":5126,"count":1384,"max":[0.05210000000000001,0.009009999999999999,0.009509999999999998],"min":[-0.0045000000000000009,-0.009010000000000006,-0.009509999999999998],"type":"VEC3"},{"bufferView":0,"byteOffset":629292,"componentType":5126,"count":560,"max":[0.0062999999999999978,0.012750000000000001,0.0125],"min":[-0.007700000000000003,-0.012750000000000001,0.0115],"type":"VEC3"},{"bufferView":0,"byteOffset":636012,"componentType":5126,"count":7803,"max":[0.002,0.01669999999999999,0.002],"min":[-0.002,0.0,-0.002000000000000007],"type":"VEC3"},{"bufferView":0,"byteOffset":729648,"componentType":5126,"count":2711,"max":[0.00125,0.015,0.0012499999999999929],"min":[-0.0012500000000000072,0.0,-0.0012500000000000072],"type":"VEC3"},{"bufferView":0,"byteOffset":762180,"componentType":5126,"count":6738,"max":[0.00175,0.016,0.0017500000000000144],"min":[-0.00175,0.0,-0.00175],"type":"VEC3"},{"bufferView":0,"byteOffset":843036,"componentType":5126,"count":197,"max":[0.00175,0.016,0.0017500000000000144],"min":[-0.00175,0.015,-0.00175],"type":"VEC3"},{"bufferView":0,"byteOffset":845400,"componentType":5126,"count":2447,"max":[0.001,0.015,0.001],"min":[-0.0010000000000000035,0.0,-0.0009999999999999858],"type":"VEC3"},{"bufferView":0,"byteOffset":874764,"componentType":5126,"count":4709,"max":[0.00175,0.011,0.0017500000000000073],"min":[-0.00175,0.0,-0.00175],"type":"VEC3"},{"bufferView":0,"byteOffset":931272,"componentType":5126,"count":197,"max":[0.00175,0.011,0.0017500000000000073],"min":[-0.00175,0.009999756167523145,-0.00175],"type":"VEC3"},{"bufferView":0,"byteOffset":933636,"componentType":5126,"count":1696,"max":[0.0010000000000000144,0.01,0.001],"min":[-0.001,0.0,-0.0009999999999999929],"type":"VEC3"},{"bufferView":0,"byteOffset":953988,"componentType":5126,"count":3052,"max":[0.15000000000000006,0.10500000000000003,0.0],"min":[-0.15,-0.10499999999999997,-0.005],"type":"VEC3"},{"bufferView":0,"byteOffset":990612,"componentType":5126,"count":5968,"max":[0.0035,0.0175,0.0035],"min":[-0.0035,0.0,-0.0035],"type":"VEC3"},{"bufferView":0,"byteOffset":1062228,"componentType":5126,"count":2099,"max":[0.002,0.015000191847808807,0.002],"min":[-0.002,0.0,-0.002000000000000007],"type":"VEC3"},{"bufferView":0,"byteOffset":1087416,"componentType":5126,"count":1106,"max":[0.022500000000000049,0.0030000000000000289,0.0075000000000000079],"min":[-0.02249999999999995,0.0,-0.007499999999999993],"type":"VEC3"},{"bufferView":0,"byteOffset":1100688,"componentType":5126,"count":8276,"max":[0.00625,0.008000000000000028,0.0035999999999999944],"min":[-0.00625,-0.017910826709088825,-0.0036000000000000087],"type":"VEC3"},{"bufferView":0,"byteOffset":1200000,"componentType":5126,"count":40,"max":[0.00625,0.010000000000000014,0.0035000000000000146],"min":[-0.00625,-0.00009999999999999431,-0.0035000000000000146],"type":"VEC3"},{"bufferView":0,"byteOffset":1200480,"componentType":5126,"count":336,"max":[0.005,0.014000000000000015,0.001],"min":[-0.005000000000000014,0.01,-0.001],"type":"VEC3"},{"bufferView":0,"byteOffset":1204512,"componentType":5126,"count":724,"max":[0.004219999999999999,0.0020000000000000145,0.004872836271960445],"min":[-0.004220000000000013,-1.4210854715202005e-17,-0.004872836271960445],"type":"VEC3"},{"bufferView":0,"byteOffset":1213200,"componentType":5126,"count":1006,"max":[0.002695293747232803,0.0013187499999999945,0.002945065585958858],"min":[-0.0029085755813953544,-0.00728125,-0.0029450655859588439],"type":"VEC3"},{"bufferView":0,"byteOffset":1225272,"componentType":5126,"count":40,"max":[0.001519999999999996,0.0063187499999999949,0.0002602495300170915],"min":[-0.0015200000000000032,0.0013187499999999945,-0.0002397504699829085],"type":"VEC3"},{"bufferView":1,"byteOffset":0,"componentType":5126,"count":36088,"type":"VEC3"},{"bufferView":1,"byteOffset":433056,"componentType":5126,"count":1234,"type":"VEC3"},{"bufferView":1,"byteOffset":447864,"componentType":5126,"count":1272,"type":"VEC3"},{"bufferView":1,"byteOffset":463128,"componentType":5126,"count":1403,"type":"VEC3"},{"bufferView":1,"byteOffset":479964,"componentType":5126,"count":730,"type":"VEC3"},{"bufferView":1,"byteOffset":488724,"componentType":5126,"count":3148,"type":"VEC3"},{"bufferView":1,"byteOffset":526500,"componentType":5126,"count":661,"type":"VEC3"},{"bufferView":1,"byteOffset":534432,"componentType":5126,"count":685,"type":"VEC3"},{"bufferView":1,"byteOffset":542652,"componentType":5126,"count":2230,"type":"VEC3"},{"bufferView":1,"byteOffset":569412,"componentType":5126,"count":3606,"type":"VEC3"},{"bufferView":1,"byteOffset":612684,"componentType":5126,"count":1384,"type":"VEC3"},{"bufferView":1,"byteOffset":629292,"componentType":5126,"count":560,"type":"VEC3"},{"bufferView":1,"byteOffset":636012,"componentType":5126,"count":7803,"type":"VEC3"},{"bufferView":1,"byteOffset":729648,"componentType":5126,"count":2711,"type":"VEC3"},{"bufferView":1,"byteOffset":762180,"componentType":5126,"count":6738,"type":"VEC3"},{"bufferView":1,"byteOffset":843036,"componentType":5126,"count":197,"type":"VEC3"},{"bufferView":1,"byteOffset":845400,"componentType":5126,"count":2447,"type":"VEC3"},{"bufferView":1,"byteOffset":874764,"componentType":5126,"count":4709,"type":"VEC3"},{"bufferView":1,"byteOffset":931272,"componentType":5126,"count":197,"type":"VEC3"},{"bufferView":1,"byteOffset":933636,"componentType":5126,"count":1696,"type":"VEC3"},{"bufferView":1,"byteOffset":953988,"componentType":5126,"count":3052,"type":"VEC3"},{"bufferView":1,"byteOffset":990612,"componentType":5126,"count":5968,"type":"VEC3"},{"bufferView":1,"byteOffset":1062228,"componentType":5126,"count":2099,"type":"VEC3"},{"bufferView":1,"byteOffset":1087416,"componentType":5126,"count":1106,"type":"VEC3"},{"bufferView":1,"byteOffset":1100688,"componentType":5126,"count":8276,"type":"VEC3"},{"bufferView":1,"byteOffset":1200000,"componentType":5126,"count":40,"type":"VEC3"},{"bufferView":1,"byteOffset":1200480,"componentType":5126,"count":336,"type":"VEC3"},{"bufferView":1,"byteOffset":1204512,"componentType":5126,"count":724,"type":"VEC3"},{"bufferView":1,"byteOffset":1213200,"componentType":5126,"count":1006,"type":"VEC3"},{"bufferView":1,"byteOffset":1225272,"componentType":5126,"count":40,"type":"VEC3"},{"bufferView":2,"byteOffset":0,"componentType":5123,"count":109926,"type":"SCALAR"},{"bufferView":2,"byteOffset":219852,"componentType":5123,"count":4452,"type":"SCALAR"},{"bufferView":2,"byteOffset":228756,"componentType":5123,"count":3432,"type":"SCALAR"},{"bufferView":2,"byteOffset":235620,"componentType":5123,"count":6042,"type":"SCALAR"},{"bufferView":2,"byteOffset":247704,"componentType":5123,"count":4068,"type":"SCALAR"},{"bufferView":2,"byteOffset":255840,"componentType":5123,"count":12084,"type":"SCALAR"},{"bufferView":2,"byteOffset":280008,"componentType":5123,"count":2127,"type":"SCALAR"},{"bufferView":2,"byteOffset":284264,"componentType":5123,"count":1947,"type":"SCALAR"},{"bufferView":2,"byteOffset":288160,"componentType":5123,"count":6318,"type":"SCALAR"},{"bufferView":2,"byteOffset":300796,"componentType":5123,"count":13281,"type":"SCALAR"},{"bufferView":2,"byteOffset":327360,"componentType":5123,"count":3864,"type":"SCALAR"},{"bufferView":2,"byteOffset":335088,"componentType":5123,"count":1722,"type":"SCALAR"},{"bufferView":2,"byteOffset":338532,"componentType":5123,"count":23871,"type":"SCALAR"},{"bufferView":2,"byteOffset":386276,"componentType":5123,"count":7725,"type":"SCALAR"},{"bufferView":2,"byteOffset":401728,"componentType":5123,"count":20688,"type":"SCALAR"},{"bufferView":2,"byteOffset":443104,"componentType":5123,"count":579,"type":"SCALAR"},{"bufferView":2,"byteOffset":444264,"componentType":5123,"count":6933,"type":"SCALAR"},{"bufferView":2,"byteOffset":458132,"componentType":5123,"count":14601,"type":"SCALAR"},{"bufferView":2,"byteOffset":487336,"componentType":5123,"count":579,"type":"SCALAR"},{"bufferView":2,"byteOffset":488496,"componentType":5123,"count":4812,"type":"SCALAR"},{"bufferView":2,"byteOffset":498120,"componentType":5123,"count":9888,"type":"SCALAR"},{"bufferView":2,"byteOffset":517896,"componentType":5123,"count":18369,"type":"SCALAR"},{"bufferView":2,"byteOffset":554636,"componentType":5123,"count":6027,"type":"SCALAR"},{"bufferView":2,"byteOffset":566692,"componentType":5123,"count":3072,"type":"SCALAR"},{"bufferView":2,"byteOffset":572836,"componentType":5123,"count":26010,"type":"SCALAR"},{"bufferView":2,"byteOffset":624856,"componentType":5123,"count":108,"type":"SCALAR"},{"bufferView":2,"byteOffset":625072,"componentType":5123,"count":846,"type":"SCALAR"},{"bufferView":2,"byteOffset":626764,"componentType":5123,"count":2082,"type":"SCALAR"},{"bufferView":2,"byteOffset":630928,"componentType":5123,"count":3834,"type":"SCALAR"},{"bufferView":2,"byteOffset":638596,"componentType":5123,"count":60,"type":"SCALAR"}],"asset":{"generator":"Open CASCADE Technology 7.6 [dev.opencascade.org]","version":"2.0","extras":{"Author":"","Originating system":"SolidWorks 2025","Organization":"","Comments":"STEP AP214"}},"bufferViews":[{"buffer":0,"byteLength":1225752,"byteOffset":0,"byteStride":12,"target":34962},{"buffer":0,"byteLength":1225752,"byteOffset":1225752,"byteStride":12,"target":34962},{"buffer":0,"byteLength":638716,"byteOffset":2451504,"target":34963}],"buffers":[{"byteLength":3090220,"uri":"body.bin"}],"materials":[{"name":"mat_0","pbrMetallicRoughness":{"baseColorFactor":[1.0,0.8631572127342224,0.016807375475764276,1.0],"roughnessFactor":0.2121320366859436},"doubleSided":true},{"name":"mat_1","pbrMetallicRoughness":{"baseColorFactor":[0.6514056324958801,0.4019777774810791,0.015208514407277108,1.0],"roughnessFactor":0.2121320366859436},"doubleSided":true},{"name":"mat_2","pbrMetallicRoughness":{"baseColorFactor":[0.2158605009317398,0.2158605009317398,0.2158605009317398,1.0],"roughnessFactor":0.2121320366859436},"doubleSided":true},{"name":"mat_3","pbrMetallicRoughness":{"baseColorFactor":[1.0,1.0,1.0,1.0],"roughnessFactor":0.2121320366859436},"doubleSided":true},{"name":"mat_4","pbrMetallicRoughness":{"baseColorFactor":[0.0030352699104696514,0.2015562504529953,0.46207699179649355,1.0],"roughnessFactor":0.2121320366859436},"doubleSided":true},{"name":"mat_5","pbrMetallicRoughness":{"baseColorFactor":[0.5647115111351013,0.533276379108429,0.5028864741325378,1.0],"roughnessFactor":0.2121320366859436},"doubleSided":true},{"name":"mat_6","pbrMetallicRoughness":{"baseColorFactor":[0.5906188488006592,0.637596845626831,0.8549926280975342,1.0],"roughnessFactor":0.2121320366859436},"doubleSided":true},{"name":"mat_7","pbrMetallicRoughness":{"baseColorFactor":[1.0,0.8631572127342224,0.672443151473999,1.0],"roughnessFactor":0.2121320366859436},"doubleSided":true},{"name":"mat_8","pbrMetallicRoughness":{"baseColorFactor":[0.366252601146698,0.4019777774810791,0.4125426113605499,1.0],"roughnessFactor":0.2121320366859436},"doubleSided":true},{"name":"mat_9","pbrMetallicRoughness":{"baseColorFactor":[0.03310476616024971,0.03310476616024971,0.03310476616024971,1.0],"roughnessFactor":0.2121320366859436},"doubleSided":true},{"name":"mat_10","pbrMetallicRoughness":{"baseColorFactor":[0.05126945674419403,0.05126945674419403,0.05126945674419403,1.0],"roughnessFactor":0.2121320366859436},"doubleSided":true},{"name":"mat_11","pbrMetallicRoughness":{"baseColorFactor":[0.09305896610021591,0.672443151473999,0.1384316086769104,1.0],"roughnessFactor":0.2121320366859436},"doubleSided":true},{"name":"mat_12","pbrMetallicRoughness":{"baseColorFactor":[0.5972017645835877,0.6444796919822693,0.8631572127342224,1.0],"roughnessFactor":0.2121320366859436},"doubleSided":true},{"name":"mat_13","pbrMetallicRoughness":{"baseColorFactor":[1.0,0.8631572127342224,0.016807375475764276,1.0],"roughnessFactor":0.2121320366859436},"doubleSided":true},{"name":"mat_14","pbrMetallicRoughness":{"baseColorFactor":[0.0043914420530200008,0.6239603757858276,0.0,1.0],"roughnessFactor":0.2121320366859436},"doubleSided":true},{"name":"mat_15","pbrMetallicRoughness":{"baseColorFactor":[1.0,0.8879231214523315,0.8069522380828857,1.0],"roughnessFactor":0.2121320366859436},"doubleSided":true},{"name":"mat_16","pbrMetallicRoughness":{"baseColorFactor":[0.0,0.0,1.0,1.0],"roughnessFactor":0.2121320366859436},"doubleSided":true},{"name":"mat_17","pbrMetallicRoughness":{"baseColorFactor":[0.34191441535949709,0.1384316086769104,0.03310476616024971,1.0],"roughnessFactor":0.2121320366859436},"doubleSided":true},{"name":"mat_18","pbrMetallicRoughness":{"baseColorFactor":[0.002124688820913434,1.0,0.00802319310605526,1.0],"roughnessFactor":0.2121320366859436},"doubleSided":true}],"meshes":[{"name":"Main_Body","primitives":[{"attributes":{"NORMAL":30,"POSITION":0},"indices":60,"material":0,"mode":4}]},{"name":"Namiki_with_encoder","primitives":[{"attributes":{"NORMAL":31,"POSITION":1},"indices":61,"material":1,"mode":4},{"attributes":{"NORMAL":32,"POSITION":2},"indices":62,"material":2,"mode":4},{"attributes":{"NORMAL":33,"POSITION":3},"indices":63,"material":3,"mode":4},{"attributes":{"NORMAL":34,"POSITION":4},"indices":64,"material":4,"mode":4},{"attributes":{"NORMAL":35,"POSITION":5},"indices":65,"material":5,"mode":4},{"attributes":{"NORMAL":36,"POSITION":6},"indices":66,"material":6,"mode":4},{"attributes":{"NORMAL":37,"POSITION":7},"indices":67,"material":7,"mode":4},{"attributes":{"NORMAL":38,"POSITION":8},"indices":68,"material":8,"mode":4},{"attributes":{"NORMAL":39,"POSITION":9},"indices":69,"material":9,"mode":4},{"attributes":{"NORMAL":40,"POSITION":10},"indices":70,"material":10,"mode":4},{"attributes":{"NORMAL":41,"POSITION":11},"indices":71,"material":11,"mode":4}]},{"name":"Namiki_with_encoder","primitives":[{"attributes":{"NORMAL":31,"POSITION":1},"indices":61,"material":1,"mode":4},{"attributes":{"NORMAL":32,"POSITION":2},"indices":62,"material":2,"mode":4},{"attributes":{"NORMAL":33,"POSITION":3},"indices":63,"material":3,"mode":4},{"attributes":{"NORMAL":34,"POSITION":4},"indices":64,"material":4,"mode":4},{"attributes":{"NORMAL":35,"POSITION":5},"indices":65,"material":5,"mode":4},{"attributes":{"NORMAL":36,"POSITION":6},"indices":66,"material":6,"mode":4},{"attributes":{"NORMAL":37,"POSITION":7},"indices":67,"material":7,"mode":4},{"attributes":{"NORMAL":38,"POSITION":8},"indices":68,"material":8,"mode":4},{"attributes":{"NORMAL":39,"POSITION":9},"indices":69,"material":9,"mode":4},{"attributes":{"NORMAL":40,"POSITION":10},"indices":70,"material":10,"mode":4},{"attributes":{"NORMAL":41,"POSITION":11},"indices":71,"material":11,"mode":4}]},{"name":"Namiki_with_encoder","primitives":[{"attributes":{"NORMAL":31,"POSITION":1},"indices":61,"material":1,"mode":4},{"attributes":{"NORMAL":32,"POSITION":2},"indices":62,"material":2,"mode":4},{"attributes":{"NORMAL":33,"POSITION":3},"indices":63,"material":3,"mode":4},{"attributes":{"NORMAL":34,"POSITION":4},"indices":64,"material":4,"mode":4},{"attributes":{"NORMAL":35,"POSITION":5},"indices":65,"material":5,"mode":4},{"attributes":{"NORMAL":36,"POSITION":6},"indices":66,"material":6,"mode":4},{"attributes":{"NORMAL":37,"POSITION":7},"indices":67,"material":7,"mode":4},{"attributes":{"NORMAL":38,"POSITION":8},"indices":68,"material":8,"mode":4},{"attributes":{"NORMAL":39,"POSITION":9},"indices":69,"material":9,"mode":4},{"attributes":{"NORMAL":40,"POSITION":10},"indices":70,"material":10,"mode":4},{"attributes":{"NORMAL":41,"POSITION":11},"indices":71,"material":11,"mode":4}]},{"name":"Namiki_with_encoder","primitives":[{"attributes":{"NORMAL":31,"POSITION":1},"indices":61,"material":1,"mode":4},{"attributes":{"NORMAL":32,"POSITION":2},"indices":62,"material":2,"mode":4},{"attributes":{"NORMAL":33,"POSITION":3},"indices":63,"material":3,"mode":4},{"attributes":{"NORMAL":34,"POSITION":4},"indices":64,"material":4,"mode":4},{"attributes":{"NORMAL":35,"POSITION":5},"indices":65,"material":5,"mode":4},{"attributes":{"NORMAL":36,"POSITION":6},"indices":66,"material":6,"mode":4},{"attributes":{"NORMAL":37,"POSITION":7},"indices":67,"material":7,"mode":4},{"attributes":{"NORMAL":38,"POSITION":8},"indices":68,"material":8,"mode":4},{"attributes":{"NORMAL":39,"POSITION":9},"indices":69,"material":9,"mode":4},{"attributes":{"NORMAL":40,"POSITION":10},"indices":70,"material":10,"mode":4},{"attributes":{"NORMAL":41,"POSITION":11},"indices":71,"material":11,"mode":4}]},{"name":"M2.5_10","primitives":[{"attributes":{"NORMAL":42,"POSITION":12},"indices":72,"material":6,"mode":4},{"attributes":{"NORMAL":43,"POSITION":13},"indices":73,"material":3,"mode":4}]},{"name":"M2.5_10","primitives":[{"attributes":{"NORMAL":42,"POSITION":12},"indices":72,"material":6,"mode":4},{"attributes":{"NORMAL":43,"POSITION":13},"indices":73,"material":3,"mode":4}]},{"name":"M2_15","primitives":[{"attributes":{"NORMAL":44,"POSITION":14},"indices":74,"material":6,"mode":4},{"attributes":{"NORMAL":45,"POSITION":15},"indices":75,"material":12,"mode":4},{"attributes":{"NORMAL":46,"POSITION":16},"indices":76,"material":5,"mode":4}]},{"name":"M2_15","primitives":[{"attributes":{"NORMAL":44,"POSITION":14},"indices":74,"material":6,"mode":4},{"attributes":{"NORMAL":45,"POSITION":15},"indices":75,"material":12,"mode":4},{"attributes":{"NORMAL":46,"POSITION":16},"indices":76,"material":5,"mode":4}]},{"name":"M2_15","primitives":[{"attributes":{"NORMAL":44,"POSITION":14},"indices":74,"material":6,"mode":4},{"attributes":{"NORMAL":45,"POSITION":15},"indices":75,"material":12,"mode":4},{"attributes":{"NORMAL":46,"POSITION":16},"indices":76,"material":5,"mode":4}]},{"name":"M2_15","primitives":[{"attributes":{"NORMAL":44,"POSITION":14},"indices":74,"material":6,"mode":4},{"attributes":{"NORMAL":45,"POSITION":15},"indices":75,"material":12,"mode":4},{"attributes":{"NORMAL":46,"POSITION":16},"indices":76,"material":5,"mode":4}]},{"name":"M2_15","primitives":[{"attributes":{"NORMAL":44,"POSITION":14},"indices":74,"material":6,"mode":4},{"attributes":{"NORMAL":45,"POSITION":15},"indices":75,"material":12,"mode":4},{"attributes":{"NORMAL":46,"POSITION":16},"indices":76,"material":5,"mode":4}]},{"name":"M2_15","primitives":[{"attributes":{"NORMAL":44,"POSITION":14},"indices":74,"material":6,"mode":4},{"attributes":{"NORMAL":45,"POSITION":15},"indices":75,"material":12,"mode":4},{"attributes":{"NORMAL":46,"POSITION":16},"indices":76,"material":5,"mode":4}]},{"name":"M2_15","primitives":[{"attributes":{"NORMAL":44,"POSITION":14},"indices":74,"material":6,"mode":4},{"attributes":{"NORMAL":45,"POSITION":15},"indices":75,"material":12,"mode":4},{"attributes":{"NORMAL":46,"POSITION":16},"indices":76,"material":5,"mode":4}]},{"name":"M2_15","primitives":[{"attributes":{"NORMAL":44,"POSITION":14},"indices":74,"material":6,"mode":4},{"attributes":{"NORMAL":45,"POSITION":15},"indices":75,"material":12,"mode":4},{"attributes":{"NORMAL":46,"POSITION":16},"indices":76,"material":5,"mode":4}]},{"name":"M2_15","primitives":[{"attributes":{"NORMAL":44,"POSITION":14},"indices":74,"material":6,"mode":4},{"attributes":{"NORMAL":45,"POSITION":15},"indices":75,"material":12,"mode":4},{"attributes":{"NORMAL":46,"POSITION":16},"indices":76,"material":5,"mode":4}]},{"name":"M2_15","primitives":[{"attributes":{"NORMAL":44,"POSITION":14},"indices":74,"material":6,"mode":4},{"attributes":{"NORMAL":45,"POSITION":15},"indices":75,"material":12,"mode":4},{"attributes":{"NORMAL":46,"POSITION":16},"indices":76,"material":5,"mode":4}]},{"name":"M2_15","primitives":[{"attributes":{"NORMAL":44,"POSITION":14},"indices":74,"material":6,"mode":4},{"attributes":{"NORMAL":45,"POSITION":15},"indices":75,"material":12,"mode":4},{"attributes":{"NORMAL":46,"POSITION":16},"indices":76,"material":5,"mode":4}]},{"name":"M2_15","primitives":[{"attributes":{"NORMAL":44,"POSITION":14},"indices":74,"material":6,"mode":4},{"attributes":{"NORMAL":45,"POSITION":15},"indices":75,"material":12,"mode":4},{"attributes":{"NORMAL":46,"POSITION":16},"indices":76,"material":5,"mode":4}]},{"name":"M2_15","primitives":[{"attributes":{"NORMAL":44,"POSITION":14},"indices":74,"material":6,"mode":4},{"attributes":{"NORMAL":45,"POSITION":15},"indices":75,"material":12,"mode":4},{"attributes":{"NORMAL":46,"POSITION":16},"indices":76,"material":5,"mode":4}]},{"name":"M2_15","primitives":[{"attributes":{"NORMAL":44,"POSITION":14},"indices":74,"material":6,"mode":4},{"attributes":{"NORMAL":45,"POSITION":15},"indices":75,"material":12,"mode":4},{"attributes":{"NORMAL":46,"POSITION":16},"indices":76,"material":5,"mode":4}]},{"name":"M2_15","primitives":[{"attributes":{"NORMAL":44,"POSITION":14},"indices":74,"material":6,"mode":4},{"attributes":{"NORMAL":45,"POSITION":15},"indices":75,"material":12,"mode":4},{"attributes":{"NORMAL":46,"POSITION":16},"indices":76,"material":5,"mode":4}]},{"name":"M2_15","primitives":[{"attributes":{"NORMAL":44,"POSITION":14},"indices":74,"material":6,"mode":4},{"attributes":{"NORMAL":45,"POSITION":15},"indices":75,"material":12,"mode":4},{"attributes":{"NORMAL":46,"POSITION":16},"indices":76,"material":5,"mode":4}]},{"name":"M2_10","primitives":[{"attributes":{"NORMAL":47,"POSITION":17},"indices":77,"material":6,"mode":4},{"attributes":{"NORMAL":48,"POSITION":18},"indices":78,"material":12,"mode":4},{"attributes":{"NORMAL":49,"POSITION":19},"indices":79,"material":5,"mode":4}]},{"name":"M2_10","primitives":[{"attributes":{"NORMAL":47,"POSITION":17},"indices":77,"material":6,"mode":4},{"attributes":{"NORMAL":48,"POSITION":18},"indices":78,"material":12,"mode":4},{"attributes":{"NORMAL":49,"POSITION":19},"indices":79,"material":5,"mode":4}]},{"name":"M2_10","primitives":[{"attributes":{"NORMAL":47,"POSITION":17},"indices":77,"material":6,"mode":4},{"attributes":{"NORMAL":48,"POSITION":18},"indices":78,"material":12,"mode":4},{"attributes":{"NORMAL":49,"POSITION":19},"indices":79,"material":5,"mode":4}]},{"name":"M2_10","primitives":[{"attributes":{"NORMAL":47,"POSITION":17},"indices":77,"material":6,"mode":4},{"attributes":{"NORMAL":48,"POSITION":18},"indices":78,"material":12,"mode":4},{"attributes":{"NORMAL":49,"POSITION":19},"indices":79,"material":5,"mode":4}]},{"name":"Top_Plate","primitives":[{"attributes":{"NORMAL":50,"POSITION":20},"indices":80,"material":13,"mode":4}]},{"name":"M4_15","primitives":[{"attributes":{"NORMAL":51,"POSITION":21},"indices":81,"material":6,"mode":4},{"attributes":{"NORMAL":52,"POSITION":22},"indices":82,"material":3,"mode":4}]},{"name":"M4_15","primitives":[{"attributes":{"NORMAL":51,"POSITION":21},"indices":81,"material":6,"mode":4},{"attributes":{"NORMAL":52,"POSITION":22},"indices":82,"material":3,"mode":4}]},{"name":"M4_15","primitives":[{"attributes":{"NORMAL":51,"POSITION":21},"indices":81,"material":6,"mode":4},{"attributes":{"NORMAL":52,"POSITION":22},"indices":82,"material":3,"mode":4}]},{"name":"M4_15","primitives":[{"attributes":{"NORMAL":51,"POSITION":21},"indices":81,"material":6,"mode":4},{"attributes":{"NORMAL":52,"POSITION":22},"indices":82,"material":3,"mode":4}]},{"name":"M4_15","primitives":[{"attributes":{"NORMAL":51,"POSITION":21},"indices":81,"material":6,"mode":4},{"attributes":{"NORMAL":52,"POSITION":22},"indices":82,"material":3,"mode":4}]},{"name":"M4_15","primitives":[{"attributes":{"NORMAL":51,"POSITION":21},"indices":81,"material":6,"mode":4},{"attributes":{"NORMAL":52,"POSITION":22},"indices":82,"material":3,"mode":4}]},{"name":"Back_Screw_Cover","primitives":[{"attributes":{"NORMAL":53,"POSITION":23},"indices":83,"material":14,"mode":4}]},{"name":"M4_15","primitives":[{"attributes":{"NORMAL":51,"POSITION":21},"indices":81,"material":6,"mode":4},{"attributes":{"NORMAL":52,"POSITION":22},"indices":82,"material":3,"mode":4}]},{"name":"M4_15","primitives":[{"attributes":{"NORMAL":51,"POSITION":21},"indices":81,"material":6,"mode":4},{"attributes":{"NORMAL":52,"POSITION":22},"indices":82,"material":3,"mode":4}]},{"name":"M4_15","primitives":[{"attributes":{"NORMAL":51,"POSITION":21},"indices":81,"material":6,"mode":4},{"attributes":{"NORMAL":52,"POSITION":22},"indices":82,"material":3,"mode":4}]},{"name":"M4_15","primitives":[{"attributes":{"NORMAL":51,"POSITION":21},"indices":81,"material":6,"mode":4},{"attributes":{"NORMAL":52,"POSITION":22},"indices":82,"material":3,"mode":4}]},{"name":"M4_15","primitives":[{"attributes":{"NORMAL":51,"POSITION":21},"indices":81,"material":6,"mode":4},{"attributes":{"NORMAL":52,"POSITION":22},"indices":82,"material":3,"mode":4}]},{"name":"M4_15","primitives":[{"attributes":{"NORMAL":51,"POSITION":21},"indices":81,"material":6,"mode":4},{"attributes":{"NORMAL":52,"POSITION":22},"indices":82,"material":3,"mode":4}]},{"name":"M4_15","primitives":[{"attributes":{"NORMAL":51,"POSITION":21},"indices":81,"material":6,"mode":4},{"attributes":{"NORMAL":52,"POSITION":22},"indices":82,"material":3,"mode":4}]},{"name":"M4_15","primitives":[{"attributes":{"NORMAL":51,"POSITION":21},"indices":81,"material":6,"mode":4},{"attributes":{"NORMAL":52,"POSITION":22},"indices":82,"material":3,"mode":4}]},{"name":"M4_15","primitives":[{"attributes":{"NORMAL":51,"POSITION":21},"indices":81,"material":6,"mode":4},{"attributes":{"NORMAL":52,"POSITION":22},"indices":82,"material":3,"mode":4}]},{"name":"M4_15","primitives":[{"attributes":{"NORMAL":51,"POSITION":21},"indices":81,"material":6,"mode":4},{"attributes":{"NORMAL":52,"POSITION":22},"indices":82,"material":3,"mode":4}]},{"name":"M4_15","primitives":[{"attributes":{"NORMAL":51,"POSITION":21},"indices":81,"material":6,"mode":4},{"attributes":{"NORMAL":52,"POSITION":22},"indices":82,"material":3,"mode":4}]},{"name":"M4_15","primitives":[{"attributes":{"NORMAL":51,"POSITION":21},"indices":81,"material":6,"mode":4},{"attributes":{"NORMAL":52,"POSITION":22},"indices":82,"material":3,"mode":4}]},{"name":"M4_15","primitives":[{"attributes":{"NORMAL":51,"POSITION":21},"indices":81,"material":6,"mode":4},{"attributes":{"NORMAL":52,"POSITION":22},"indices":82,"material":3,"mode":4}]},{"name":"M4_15","primitives":[{"attributes":{"NORMAL":51,"POSITION":21},"indices":81,"material":6,"mode":4},{"attributes":{"NORMAL":52,"POSITION":22},"indices":82,"material":3,"mode":4}]},{"name":"M4_15","primitives":[{"attributes":{"NORMAL":51,"POSITION":21},"indices":81,"material":6,"mode":4},{"attributes":{"NORMAL":52,"POSITION":22},"indices":82,"material":3,"mode":4}]},{"name":"M4_15","primitives":[{"attributes":{"NORMAL":51,"POSITION":21},"indices":81,"material":6,"mode":4},{"attributes":{"NORMAL":52,"POSITION":22},"indices":82,"material":3,"mode":4}]},{"name":"M4_15","primitives":[{"attributes":{"NORMAL":51,"POSITION":21},"indices":81,"material":6,"mode":4},{"attributes":{"NORMAL":52,"POSITION":22},"indices":82,"material":3,"mode":4}]},{"name":"M4_15","primitives":[{"attributes":{"NORMAL":51,"POSITION":21},"indices":81,"material":6,"mode":4},{"attributes":{"NORMAL":52,"POSITION":22},"indices":82,"material":3,"mode":4}]},{"name":"M4_15","primitives":[{"attributes":{"NORMAL":51,"POSITION":21},"indices":81,"material":6,"mode":4},{"attributes":{"NORMAL":52,"POSITION":22},"indices":82,"material":3,"mode":4}]},{"name":"M4_15","primitives":[{"attributes":{"NORMAL":51,"POSITION":21},"indices":81,"material":6,"mode":4},{"attributes":{"NORMAL":52,"POSITION":22},"indices":82,"material":3,"mode":4}]},{"name":"M4_15","primitives":[{"attributes":{"NORMAL":51,"POSITION":21},"indices":81,"material":6,"mode":4},{"attributes":{"NORMAL":52,"POSITION":22},"indices":82,"material":3,"mode":4}]},{"name":"M4_15","primitives":[{"attributes":{"NORMAL":51,"POSITION":21},"indices":81,"material":6,"mode":4},{"attributes":{"NORMAL":52,"POSITION":22},"indices":82,"material":3,"mode":4}]},{"name":"M4_15","primitives":[{"attributes":{"NORMAL":51,"POSITION":21},"indices":81,"material":6,"mode":4},{"attributes":{"NORMAL":52,"POSITION":22},"indices":82,"material":3,"mode":4}]},{"name":"M4_15","primitives":[{"attributes":{"NORMAL":51,"POSITION":21},"indices":81,"material":6,"mode":4},{"attributes":{"NORMAL":52,"POSITION":22},"indices":82,"material":3,"mode":4}]},{"name":"M2.5_10","primitives":[{"attributes":{"NORMAL":42,"POSITION":12},"indices":72,"material":6,"mode":4},{"attributes":{"NORMAL":43,"POSITION":13},"indices":73,"material":3,"mode":4}]},{"name":"M2.5_10","primitives":[{"attributes":{"NORMAL":42,"POSITION":12},"indices":72,"material":6,"mode":4},{"attributes":{"NORMAL":43,"POSITION":13},"indices":73,"material":3,"mode":4}]},{"name":"M2.5_10","primitives":[{"attributes":{"NORMAL":42,"POSITION":12},"indices":72,"material":6,"mode":4},{"attributes":{"NORMAL":43,"POSITION":13},"indices":73,"material":3,"mode":4}]},{"name":"M2.5_10","primitives":[{"attributes":{"NORMAL":42,"POSITION":12},"indices":72,"material":6,"mode":4},{"attributes":{"NORMAL":43,"POSITION":13},"indices":73,"material":3,"mode":4}]},{"name":"M2.5_10","primitives":[{"attributes":{"NORMAL":42,"POSITION":12},"indices":72,"material":6,"mode":4},{"attributes":{"NORMAL":43,"POSITION":13},"indices":73,"material":3,"mode":4}]},{"name":"M2.5_10","primitives":[{"attributes":{"NORMAL":42,"POSITION":12},"indices":72,"material":6,"mode":4},{"attributes":{"NORMAL":43,"POSITION":13},"indices":73,"material":3,"mode":4}]},{"name":"Toggle_Switch","primitives":[{"attributes":{"NORMAL":54,"POSITION":24},"indices":84,"material":15,"mode":4},{"attributes":{"NORMAL":55,"POSITION":25},"indices":85,"material":16,"mode":4},{"attributes":{"NORMAL":56,"POSITION":26},"indices":86,"material":17,"mode":4}]},{"name":"Toggle_Switch","primitives":[{"attributes":{"NORMAL":54,"POSITION":24},"indices":84,"material":15,"mode":4},{"attributes":{"NORMAL":55,"POSITION":25},"indices":85,"material":16,"mode":4},{"attributes":{"NORMAL":56,"POSITION":26},"indices":86,"material":17,"mode":4}]},{"name":"Toggle_Switch","primitives":[{"attributes":{"NORMAL":54,"POSITION":24},"indices":84,"material":15,"mode":4},{"attributes":{"NORMAL":55,"POSITION":25},"indices":85,"material":16,"mode":4},{"attributes":{"NORMAL":56,"POSITION":26},"indices":86,"material":17,"mode":4}]},{"name":"M6_nut","primitives":[{"attributes":{"NORMAL":57,"POSITION":27},"indices":87,"material":5,"mode":4}]},{"name":"M6_nut","primitives":[{"attributes":{"NORMAL":57,"POSITION":27},"indices":87,"material":5,"mode":4}]},{"name":"M6_nut","primitives":[{"attributes":{"NORMAL":57,"POSITION":27},"indices":87,"material":5,"mode":4}]},{"name":"Green_led","primitives":[{"attributes":{"NORMAL":58,"POSITION":28},"indices":88,"material":18,"mode":4},{"attributes":{"NORMAL":59,"POSITION":29},"indices":89,"material":6,"mode":4}]}],"nodes":[{"children":[1,2,3,4,5,6,7,8,9,10,11,12,13,14,15,16,17,18,19,20,21,22,23,24,25,26,27,28,29,30,31,32,33,34,35,36,37,38,39,40,41,42,43,44,45,46,47,48,49,50,51,52,53,54,55,56,57,58,59,60,61,62,63,64,65,66,67,68,69,70,71,72],"name":"body"},{"mesh":0,"name":"NAUO1"},{"rotation":[4.897032427575238e-19,-7.369314905891753e-19,0.7071067811865475,0.7071067811865475],"translation":[0.07000000000000013,0.044799999999999947,-0.01999999999999947],"mesh":1,"name":"NAUO2"},{"rotation":[0.0,0.0,0.7071067811865475,0.7071067811865475],"translation":[-0.06999999999999987,0.04479999999999996,-0.020000000000000473],"mesh":2,"name":"NAUO3"},{"rotation":[0.0,0.0,-0.7071067811865475,0.7071067811865475],"translation":[-0.06999999999999988,-0.044800000000000037,-0.020000000000000473],"mesh":3,"name":"NAUO4"},{"rotation":[-2.347472220942246e-15,2.347472220942246e-15,-0.7071067811865475,0.7071067811865475],"translation":[0.07,-0.044800000000000009,-0.019999999999999963],"mesh":4,"name":"NAUO5"},{"rotation":[-0.36923174430356128,-0.3692317443035612,-0.6030488529120586,0.6030488529120586],"translation":[0.1349999999999999,-0.019049999999999874,-0.04645999999999495],"mesh":5,"name":"NAUO6"},{"rotation":[0.7023738082663141,0.7023738082663141,-0.08167639476296086,0.08167639476296078],"translation":[0.1349999999999999,0.01905000000000001,-0.03172799999999498],"mesh":6,"name":"NAUO7"},{"rotation":[0.0,0.7349147759040678,0.0,0.6781594739866675],"translation":[0.06999999999999997,0.08999999999999997,-0.0275],"mesh":7,"name":"NAUO8"},{"rotation":[0.0,0.40823174677261706,0.0,0.9128783275590335],"translation":[0.06250000000000002,0.08999999999999997,-0.01999999999999992],"mesh":8,"name":"NAUO9"},{"translation":[0.07750000000000002,0.08999999999999997,-0.020000000000000019],"mesh":9,"name":"NAUO10"},{"rotation":[0.0,0.941974657767095,0.0,0.33568399444204119],"translation":[-0.07750000000000006,0.08999999999999997,-0.01999999999999993],"mesh":10,"name":"NAUO11"},{"translation":[0.07,0.08999999999999997,-0.012499999999999998],"mesh":11,"name":"NAUO12"},{"rotation":[0.0,-0.22926607867466049,0.0,0.973363788708592],"translation":[-0.06250000000000004,0.08999999999999997,-0.02000000000000002],"mesh":12,"name":"NAUO13"},{"rotation":[0.0,0.1383288832583508,0.0,0.9903863488843621],"translation":[-0.07000000000000004,0.08999999999999997,-0.012499999999999998],"mesh":13,"name":"NAUO14"},{"rotation":[0.0,-0.07860001694927636,0.0,0.9969062329705705],"translation":[-0.0700000000000001,0.08999999999999997,-0.0275],"mesh":14,"name":"NAUO15"},{"rotation":[-0.3571707458028736,-5.182128867895847e-17,0.934039109642963,3.2618300021715838e-17],"translation":[-0.07000000000000004,-0.09,-0.012500000000000015],"mesh":15,"name":"NAUO16"},{"rotation":[-0.2954100078379477,-5.384083330030065e-17,0.9553705706526571,2.916443255377812e-17],"translation":[-0.07750000000000003,-0.09,-0.019999999999999936],"mesh":16,"name":"NAUO17"},{"rotation":[-0.6688705014123387,-3.664427667650603e-17,0.7433789426264417,4.9057073328015599e-17],"translation":[-0.07000000000000008,-0.09,-0.027500000000000008],"mesh":17,"name":"NAUO18"},{"rotation":[0.9254695666896561,1.1683046308426382e-17,-0.3788219649535391,-6.010745282916106e-17],"translation":[-0.06250000000000004,-0.09000000000000003,-0.020000000000000036],"mesh":18,"name":"NAUO19"},{"rotation":[0.15046440206690998,-6.116894158500067e-17,0.9886154276110845,2.7856851985644915e-18],"translation":[0.06999999999999998,-0.09,-0.027500000000000015],"mesh":19,"name":"NAUO20"},{"rotation":[0.9311348268564871,-3.303423396920797e-17,0.36467510775338099,-5.155714152978635e-17],"translation":[0.0625,-0.09,-0.01999999999999994],"mesh":20,"name":"NAUO21"},{"rotation":[0.5397810306846235,-5.70078412884089e-17,0.8418054638175294,-2.2349619421597108e-17],"translation":[0.07000000000000004,-0.09,-0.012500000000000015],"mesh":21,"name":"NAUO22"},{"rotation":[0.14934020600165455,-6.116573459790338e-17,0.988785873114793,2.8552351485732498e-18],"translation":[0.07750000000000003,-0.09,-0.02000000000000003],"mesh":22,"name":"NAUO23"},{"rotation":[0.5912370349732066,0.5912370349732066,-0.3878643686600915,0.38786436866009146],"translation":[0.13999999999999994,0.010499432326805614,-0.07850137430433962],"mesh":23,"name":"NAUO24"},{"rotation":[0.3125917562299382,0.31259175622993826,-0.6342605095204044,0.6342605095204044],"translation":[0.13999999999999994,-0.010500567635704868,-0.07850011948924037],"mesh":24,"name":"NAUO25"},{"rotation":[0.609493384075233,0.609493384075233,-0.3584938141286688,0.3584938141286687],"translation":[0.13999999999999994,0.010498685413056094,-0.09100137428202437],"mesh":25,"name":"NAUO26"},{"rotation":[0.7054114606641988,0.7054114606641988,-0.04893537742371682,0.048935377423716747],"translation":[0.13999999999999994,-0.010501314549454437,-0.09100011946692514],"mesh":26,"name":"NAUO27"},{"translation":[4.718447854656915e-16,0.0,-0.11],"mesh":27,"name":"NAUO28"},{"rotation":[-0.7010121242994348,0.09263909317989715,-0.09263909317989715,0.7010121242994348],"translation":[0.14100000000000049,7.105427357601002e-18,-0.09999999999999999],"mesh":28,"name":"NAUO29"},{"rotation":[-0.6933530601807328,0.13878592845823083,-0.13878592845823083,0.6933530601807328],"translation":[0.14100000000000127,-0.07,-0.10000000000000002],"mesh":29,"name":"NAUO30"},{"rotation":[-0.6871931686910966,0.16662997600758984,-0.16662997600758984,0.6871931686910966],"translation":[0.14099999999999969,0.07000000000000006,-0.09999999999999999],"mesh":30,"name":"NAUO31"},{"rotation":[-0.7071067811865475,0.0,0.0,0.7071067811865475],"translation":[-0.14100000000000027,-0.06999999999999999,-0.09999999999999999],"mesh":31,"name":"NAUO32"},{"rotation":[-0.7071067811865475,0.0,0.0,0.7071067811865475],"translation":[-0.14099999999999952,0.0,-0.09999999999999999],"mesh":32,"name":"NAUO33"},{"rotation":[-0.7071067811865475,0.0,0.0,0.7071067811865475],"translation":[-0.1409999999999988,0.07000000000000006,-0.09999999999999999],"mesh":33,"name":"NAUO34"},{"rotation":[0.0,0.0,0.7071067811865438,0.7071067811865511],"translation":[-0.14999999999999998,1.573394192710964e-15,-0.017156854249492385],"mesh":34,"name":"NAUO35"},{"rotation":[-0.18955700322200609,0.1895570032220061,0.6812254711396897,0.6812254711396899],"translation":[-0.13799999999999996,-0.0149999999999999,-0.017156854249492385],"mesh":35,"name":"NAUO36"},{"rotation":[-0.0049827446049739419,0.004982744604973942,0.7070892251026043,0.7070892251026045],"translation":[-0.13799999999999996,0.015000000000000097,-0.017156854249492385],"mesh":36,"name":"NAUO37"},{"translation":[-0.020000000000000019,0.08999999999999997,-0.03749999999999995],"mesh":37,"name":"NAUO38"},{"rotation":[0.0,0.5600524214689517,0.0,0.8284571716188857],"translation":[0.019999999999999995,0.08999999999999997,-0.03749999999999995],"mesh":38,"name":"NAUO39"},{"rotation":[0.0,0.6102425273169795,0.0,0.7922146538999297],"translation":[-0.020000000000000019,0.08999999999999997,-0.013499999999999946],"mesh":39,"name":"NAUO40"},{"rotation":[0.0,0.1926974278775189,0.0,0.9812582235524899],"translation":[0.019999999999999995,0.08999999999999997,-0.013499999999999948],"mesh":40,"name":"NAUO41"},{"rotation":[-2.468850131082252e-15,0.7071067811865437,0.7071067811865512,2.468850131082278e-15],"translation":[0.01999999999999948,-0.07698999999999994,-0.015000000000000668],"mesh":41,"name":"NAUO42"},{"rotation":[-2.468850131082252e-15,0.7071067811865437,0.7071067811865512,2.468850131082278e-15],"translation":[0.020000000000000238,0.07700000000000008,-0.014999999999999054],"mesh":42,"name":"NAUO43"},{"rotation":[0.0005469911736963052,0.7071065696206307,0.7071065696206308,0.0005469911736962804],"translation":[-0.019999999999999665,-0.02566000000000005,-0.015000000000000014],"mesh":43,"name":"NAUO44"},{"rotation":[0.036984680187383506,0.7061388910345025,0.7061388910345026,0.03698468018738347],"translation":[0.019999999999999825,0.025669999999999975,-0.015000000000000017],"mesh":44,"name":"NAUO45"},{"rotation":[-2.468850131082252e-15,0.7071067811865437,0.7071067811865512,2.468850131082278e-15],"translation":[-0.0199999999999997,0.025670000000000145,-0.01499999999999987],"mesh":45,"name":"NAUO46"},{"rotation":[-2.468850131082252e-15,0.7071067811865437,0.7071067811865512,2.468850131082278e-15],"translation":[-0.0199999999999995,-0.07698999999999988,-0.015000000000000945],"mesh":46,"name":"NAUO47"},{"rotation":[-2.468850131082252e-15,0.7071067811865437,0.7071067811865512,2.468850131082278e-15],"translation":[0.01999999999999973,-0.02565999999999992,-0.01500000000000013],"mesh":47,"name":"NAUO48"},{"rotation":[-2.468850131082252e-15,0.7071067811865437,0.7071067811865512,2.468850131082278e-15],"translation":[-0.0199999999999998,0.07700000000000014,-0.014999999999999334],"mesh":48,"name":"NAUO49"},{"rotation":[0.0,0.0,1.0,3.4914813388431335e-15],"translation":[-0.020000000000000633,-0.0899999999999999,-0.03749999999999993],"mesh":49,"name":"NAUO50"},{"rotation":[0.0,0.0,1.0,3.4914813388431335e-15],"translation":[0.019999999999999363,-0.09000000000000018,-0.03749999999999995],"mesh":50,"name":"NAUO51"},{"rotation":[0.0,0.0,1.0,3.4914813388431335e-15],"translation":[-0.02000000000000064,-0.08999999999999992,-0.013499999999999936],"mesh":51,"name":"NAUO52"},{"rotation":[0.0,0.0,1.0,3.4914813388431335e-15],"translation":[0.01999999999999937,-0.09000000000000018,-0.013499999999999952],"mesh":52,"name":"NAUO53"},{"rotation":[0.5000000000000053,-0.49999999999999658,0.5000000000000036,-0.4999999999999948],"translation":[-0.01999999999999957,0.06999999999999823,-0.10000000000000117],"mesh":53,"name":"NAUO54"},{"rotation":[0.5000000000000053,-0.49999999999999658,0.5000000000000036,-0.4999999999999948],"translation":[-0.019999999999999575,-0.07000000000000176,-0.09999999999999872],"mesh":54,"name":"NAUO55"},{"rotation":[-0.1644834260248503,0.6877101152107098,-0.6877101152107095,0.1644834260248503],"translation":[0.020000000000000463,-6.971380009728127e-19,-0.10000000000000004],"mesh":55,"name":"NAUO56"},{"rotation":[0.5000000000000053,-0.49999999999999658,0.5000000000000036,-0.4999999999999948],"translation":[0.020000000000000439,-0.07000000000000177,-0.09999999999999884],"mesh":56,"name":"NAUO57"},{"rotation":[-0.49048264976016339,0.5093395432167514,-0.5093395432167512,0.4904826497601634],"translation":[0.02000000000000046,0.07000000000000008,-0.1],"mesh":57,"name":"NAUO58"},{"rotation":[0.5000000000000053,-0.49999999999999658,0.5000000000000036,-0.4999999999999948],"translation":[-0.019999999999999575,-1.7910399447343785e-15,-0.09999999999999995],"mesh":58,"name":"NAUO59"},{"rotation":[0.6349161510132696,-4.6934980391571128e-32,0.7725810515295436,2.8166053878218286e-34],"translation":[0.020499999999999974,-0.09000000000000003,-0.06300000000000003],"mesh":59,"name":"NAUO60"},{"rotation":[0.7871547559650182,-1.3744008046593439e-33,-0.6167555351690429,-4.691569821972627e-32],"translation":[-0.02049999999999997,-0.09,-0.07988999999999998],"mesh":60,"name":"NAUO61"},{"rotation":[-2.1398006115927546e-18,0.7871547559650185,2.7309916687986234e-18,0.6167555351690427],"translation":[-0.020499999999999967,0.08999999999999997,-0.06300000000000003],"mesh":61,"name":"NAUO62"},{"rotation":[1.5145766851842996e-19,0.9532983093958701,9.57839263814546e-19,0.30203035162542188],"translation":[0.020499999999999967,0.08999999999999997,-0.07988999999999998],"mesh":62,"name":"NAUO63"},{"rotation":[-0.5566024657861065,0.5566024657861066,0.4361120212523682,0.4361120212523683],"translation":[-0.135,-0.02049988045720313,-0.030112569417020869],"mesh":63,"name":"NAUO64"},{"rotation":[-0.5566024657861064,0.5566024657861066,0.4361120212523681,0.43611202125236828],"translation":[-0.135,0.02050112869946128,-0.0470001195097703],"mesh":64,"name":"NAUO65"},{"rotation":[-0.5000000000000018,0.5,0.5000000000000036,-0.49999999999999486],"translation":[-0.08699999999999822,0.08900000000000179,-0.1098999999999994],"mesh":65,"name":"NAUO66"},{"rotation":[-0.5000000000000018,0.5,0.5000000000000036,-0.49999999999999486],"translation":[-0.0549999999999982,0.08900000000000157,-0.10989999999999929],"mesh":66,"name":"NAUO67"},{"rotation":[-0.5000000000000018,0.5,0.5000000000000036,-0.49999999999999486],"translation":[-0.07099999999999822,0.08900000000000168,-0.10989999999999936],"mesh":67,"name":"NAUO68"},{"rotation":[-0.5000000000000052,0.5000000000000018,-0.499999999999993,0.5],"translation":[-0.05500000000000069,0.0890000000000005,-0.11499999999999894],"mesh":68,"name":"NAUO69"},{"rotation":[-0.5000000000000052,0.5000000000000018,-0.499999999999993,0.5],"translation":[-0.08700000000000068,0.08900000000000055,-0.1149999999999985],"mesh":69,"name":"NAUO70"},{"rotation":[-0.5000000000000052,0.5000000000000018,-0.499999999999993,0.5],"translation":[-0.07100000000000068,0.08900000000000054,-0.11499999999999873],"mesh":70,"name":"NAUO71"},{"rotation":[0.006442762471830609,0.7070774291488391,0.7070774291488391,0.0064427624718305059],"translation":[-0.038958582459370869,0.08899924515895437,-0.11031875000000001],"mesh":71,"name":"NAUO72"}],"scene":0,"scenes":[{"nodes":[0]}]}