{"accessors":[{"bufferView":0,"byteOffset":0,"componentType":5126,"count":1006,"max":[0.0026952937472328054,0.0013187499999999992,0.0029450655859588486],"min":[-0.0029085755813953535,-0.007281250000000001,-0.0029450655859588486],"type":"VEC3"},{"bufferView":0,"byteOffset":12072,"componentType":5126,"count":40,"max":[0.0015200000000000006,0.006318749999999999,0.00026024953001709027],"min":[-0.00152,0.0013187499999999986,-0.00023975046998290974],"type":"VEC3"},{"bufferView":1,"byteOffset":0,"componentType":5126,"count":1006,"type":"VEC3"},{"bufferView":1,"byteOffset":12072,"componentType":5126,"count":40,"type":"VEC3"},{"bufferView":2,"byteOffset":0,"componentType":5123,"count":3834,"type":"SCALAR"},{"bufferView":2,"byteOffset":7668,"componentType":5123,"count":60,"type":"SCALAR"}],"asset":{"generator":"Open CASCADE Technology 7.6 [dev.opencascade.org]","version":"2.0","extras":{"Author":"","Originating system":"SolidWorks 2025","Organization":"","Comments":"STEP AP214"}},"bufferViews":[{"buffer":0,"byteLength":12552,"byteOffset":0,"byteStride":12,"target":34962},{"buffer":0,"byteLength":12552,"byteOffset":12552,"byteStride":12,"target":34962},{"buffer":0,"byteLength":7788,"byteOffset":25104,"target":34963}],"buffers":[{"byteLength":32892,"uri":"camera_led.bin"}],"materials":[{"name":"mat_0","pbrMetallicRoughness":{"baseColorFactor":[0.8227857351303101,0.7991027235984802,1.0,1.0],"roughnessFactor":0.2121320366859436},"doubleSided":true},{"name":"mat_1","pbrMetallicRoughness":{"baseColorFactor":[0.5906188488006592,0.637596845626831,0.8549926280975342,1.0],"roughnessFactor":0.2121320366859436},"doubleSided":true}],"meshes":[{"name":"camera_led","primitives":[{"attributes":{"NORMAL":2,"POSITION":0},"indices":4,"material":0,"mode":4},{"attributes":{"NORMAL":3,"POSITION":1},"indices":5,"material":1,"mode":4}]}],"nodes":[{"mesh":0,"name":"camera_led"}],"scene":0,"scenes":[{"nodes":[0]}]}