{"accessors":[{"bufferView":0,"byteOffset":0,"componentType":5126,"count":498,"max":[0.003750000000000001,0.004800000000000003,0.0015000000000000003],"min":[0.00075,0.0,-0.0015000000000000003],"type":"VEC3"},{"bufferView":0,"byteOffset":5976,"componentType":5126,"count":642,"max":[0.0045000000000000009,0.005,0.0022500000000000004],"min":[-0.0045000000000000009,-0.0005,-0.0022500000000000009],"type":"VEC3"},{"bufferView":0,"byteOffset":13680,"componentType":5126,"count":24,"max":[0.015,0.0016,0.007499999999999998],"min":[-0.014999999999999998,0.0,-0.007500000000000005],"type":"VEC3"},{"bufferView":1,"byteOffset":0,"componentType":5126,"count":498,"type":"VEC3"},{"bufferView":1,"byteOffset":5976,"componentType":5126,"count":642,"type":"VEC3"},{"bufferView":1,"byteOffset":13680,"componentType":5126,"count":24,"type":"VEC3"},{"bufferView":2,"byteOffset":0,"componentType":5123,"count":2418,"type":"SCALAR"},{"bufferView":2,"byteOffset":4836,"componentType":5123,"count":2778,"type":"SCALAR"},{"bufferView":2,"byteOffset":10392,"componentType":5123,"count":36,"type":"SCALAR"}],"asset":{"generator":"Open CASCADE Technology 7.6 [dev.opencascade.org]","version":"2.0","extras":{"Author":"","Originating system":"SolidWorks 2025","Organization":"","Comments":"STEP AP214"}},"bufferViews":[{"buffer":0,"byteLength":13968,"byteOffset":0,"byteStride":12,"target":34962},{"buffer":0,"byteLength":13968,"byteOffset":13968,"byteStride":12,"target":34962},{"buffer":0,"byteLength":10464,"byteOffset":27936,"target":34963}],"buffers":[{"byteLength":38400,"uri":"ir_cliff_sensor.bin"}],"materials":[{"name":"mat_0","pbrMetallicRoughness":{"baseColorFactor":[1.0,1.0,1.0,1.0],"roughnessFactor":0.2121320366859436},"doubleSided":true},{"name":"mat_1","pbrMetallicRoughness":{"baseColorFactor":[0.05126945674419403,0.05126945674419403,0.05126945674419403,1.0],"roughnessFactor":0.2121320366859436},"doubleSided":true},{"name":"mat_2","pbrMetallicRoughness":{"baseColorFactor":[0.0666259378194809,0.3967552185058594,0.08865558356046677,1.0],"roughnessFactor":0.2121320366859436},"doubleSided":true}],"meshes":[{"name":"IR_Transceiver_Block","primitives":[{"attributes":{"NORMAL":3,"POSITION":0},"indices":6,"material":0,"mode":4},{"attributes":{"NORMAL":4,"POSITION":1},"indices":7,"material":1,"mode":4}]},{"name":"15x30_Blank_PCB","primitives":[{"attributes":{"NORMAL":5,"POSITION":2},"indices":8,"material":2,"mode":4}]}],"nodes":[{"children":[1,2],"name":"ir_cliff_sensor"},{"rotation":[0.0,-0.7071067811865487,0.0,0.7071067811865462],"translation":[0.0,0.0005,-0.00025],"mesh":0,"name":"NAUO1"},{"translation":[-0.010250000000000003,-0.0016,-0.00024999999999999545],"mesh":1,"name":"NAUO2"}],"scene":0,"scenes":[{"nodes":[0]}]}