{"accessors":[{"bufferView":0,"byteOffset":0,"componentType":5126,"count":361,"max":[-0.0048007436064257768,0.004,-0.002103792247772642],"min":[-0.008172788370481693,-0.004000000000000001,-0.005881416799501197],"type":"VEC3"},{"bufferView":0,"byteOffset":4332,"componentType":5126,"count":233,"max":[0.031219521750006628,0.004,-0.002103792247772642],"min":[-0.00822488282378177,-0.004000000000000001,-0.012601841699081292],"type":"VEC3"},{"bufferView":0,"byteOffset":7128,"componentType":5126,"count":1508,"max":[0.01015,0.0033000000000000014,0.0091],"min":[-0.009650000000000003,-0.0032,-0.0050999999999999999],"type":"VEC3"},{"bufferView":0,"byteOffset":25224,"componentType":5126,"count":288,"max":[0.008549999999999999,0.00175,0.0091],"min":[-0.008050000000000002,-0.0017500000000000007,0.0050999999999999999],"type":"VEC3"},{"bufferView":0,"byteOffset":28680,"componentType":5126,"count":84,"max":[-0.0009454611344085805,0.0011192478197343632,-0.0050999999999999999],"min":[-0.0039454611344085809,-0.0008807521802656379,-0.0060999999999999999],"type":"VEC3"},{"bufferView":1,"byteOffset":0,"componentType":5126,"count":361,"type":"VEC3"},{"bufferView":1,"byteOffset":4332,"componentType":5126,"count":233,"type":"VEC3"},{"bufferView":1,"byteOffset":7128,"componentType":5126,"count":1508,"type":"VEC3"},{"bufferView":1,"byteOffset":25224,"componentType":5126,"count":288,"type":"VEC3"},{"bufferView":1,"byteOffset":28680,"componentType":5126,"count":84,"type":"VEC3"},{"bufferView":2,"byteOffset":0,"componentType":5123,"count":1023,"type":"SCALAR"},{"bufferView":2,"byteOffset":2048,"componentType":5123,"count":639,"type":"SCALAR"},{"bufferView":2,"byteOffset":3328,"componentType":5123,"count":3996,"type":"SCALAR"},{"bufferView":2,"byteOffset":11320,"componentType":5123,"count":810,"type":"SCALAR"},{"bufferView":2,"byteOffset":12940,"componentType":5123,"count":222,"type":"SCALAR"}],"asset":{"generator":"Open CASCADE Technology 7.6 [dev.opencascade.org]","version":"2.0","extras":{"Author":"","Originating system":"SolidWorks 2025","Organization":"","Comments":"STEP AP214"}},"bufferViews":[{"buffer":0,"byteLength":29688,"byteOffset":0,"byteStride":12,"target":34962},{"buffer":0,"byteLength":29688,"byteOffset":29688,"byteStride":12,"target":34962},{"buffer":0,"byteLength":13384,"byteOffset":59376,"target":34963}],"buffers":[{"byteLength":72760,"uri":"micro_switch.bin"}],"materials":[{"name":"mat_0","pbrMetallicRoughness":{"baseColorFactor":[0.5647115111351013,0.533276379108429,0.5028864741325378,1.0],"roughnessFactor":0.2121320366859436},"doubleSided":true},{"name":"mat_1","pbrMetallicRoughness":{"baseColorFactor":[1.0,1.0,1.0,1.0],"roughnessFactor":0.2121320366859436},"doubleSided":true},{"name":"mat_2","pbrMetallicRoughness":{"baseColorFactor":[0.05126945674419403,0.05126945674419403,0.05126945674419403,1.0],"roughnessFactor":0.2121320366859436},"doubleSided":true},{"name":"mat_3","pbrMetallicRoughness":{"baseColorFactor":[1.0,0.0,0.0,1.0],"roughnessFactor":0.2121320366859436},"doubleSided":true}],"meshes":[{"name":"SOLID","primitives":[{"attributes":{"NORMAL":5,"POSITION":0},"indices":10,"material":0,"mode":4},{"attributes":{"NORMAL":6,"POSITION":1},"indices":11,"material":1,"mode":4}]},{"name":"SOLID","primitives":[{"attributes":{"NORMAL":7,"POSITION":2},"indices":12,"material":2,"mode":4},{"attributes":{"NORMAL":8,"POSITION":3},"indices":13,"material":0,"mode":4},{"attributes":{"NORMAL":9,"POSITION":4},"indices":14,"material":3,"mode":4}]}],"nodes":[{"children":[1,2],"name":"micro_switch"},{"mesh":0,"name":"SOLID"},{"mesh":1,"name":"SOLID"}],"scene":0,"scenes":[{"nodes":[0]}]}