{"accessors":[{"bufferView":0,"byteOffset":0,"componentType":5126,"count":24,"max":[0.00393152373492075,0.003958620672138077,0.0005516987777013031],"min":[-0.003868476265079257,-0.0038413793278619307,0.0005016987777013022],"type":"VEC3"},{"bufferView":0,"byteOffset":288,"componentType":5126,"count":22,"max":[0.010400000000000002,-0.009499999999999998,0.0038516987777013],"min":[-0.010400000000000003,-0.009600000000000001,0.0014516987777012996],"type":"VEC3"},{"bufferView":0,"byteOffset":552,"componentType":5126,"count":46,"max":[0.010400000000000002,-0.009499999999999998,0.0038516987777013],"min":[-0.010400000000000003,-0.009720000000000003,0.0014516987777012996],"type":"VEC3"},{"bufferView":0,"byteOffset":1104,"componentType":5126,"count":632,"max":[0.012500000000000017,0.014500000000000013,0.0038516987777013],"min":[-0.0125,-0.009500000000000002,0.0005516987777012995],"type":"VEC3"},{"bufferView":0,"byteOffset":8688,"componentType":5126,"count":20,"max":[0.010400000000000002,-0.004000000000000001,0.0038516987777013017],"min":[-0.010400000000000003,-0.009500000000000002,0.0014516987777012996],"type":"VEC3"},{"bufferView":0,"byteOffset":8928,"componentType":5126,"count":12,"max":[0.010400000000000002,-0.004000000000000001,0.0038516987777013017],"min":[-0.010400000000000002,-0.009500000000000002,0.0014516987777013014],"type":"VEC3"},{"bufferView":0,"byteOffset":9072,"componentType":5126,"count":4,"max":[0.0094,-0.009000000000000001,0.0030516987777012996],"min":[-0.0094,-0.009000000000000001,0.0019516987777012997],"type":"VEC3"},{"bufferView":0,"byteOffset":9120,"componentType":5126,"count":20,"max":[-0.00748,0.009900000000000006,0.0005516987777013059],"min":[-0.008700000000000002,0.009100000000000006,0.0003516987777013057],"type":"VEC3"},{"bufferView":0,"byteOffset":9360,"componentType":5126,"count":16,"max":[0.004031523734920774,0.004058620672138102,0.0005516987777013036],"min":[-0.003968476265079227,-0.003941379327861898,0.00035169877770130364],"type":"VEC3"},{"bufferView":0,"byteOffset":9552,"componentType":5126,"count":160,"max":[0.004031523734920774,0.004058620672138102,0.00035169877770130364],"min":[-0.003968476265079227,-0.003941379327861898,0.0003516987777013036],"type":"VEC3"},{"bufferView":0,"byteOffset":11472,"componentType":5126,"count":280,"max":[0.00403152373492075,0.004058620672138078,0.00035169877770130364],"min":[-0.0039684762650792578,-0.00394137932786193,-0.0035983012222986965],"type":"VEC3"},{"bufferView":0,"byteOffset":14832,"componentType":5126,"count":400,"max":[0.003031523734920774,0.0030586206721381016,-0.0033983012222986959],"min":[-0.002968476265079226,-0.0029413793278618989,-0.004398301222298695],"type":"VEC3"},{"bufferView":0,"byteOffset":19632,"componentType":5126,"count":54,"max":[0.0006565237349207733,0.000683620672138101,-0.004023301222298696],"min":[-0.0005934762650792256,-0.0005663793278618985,-0.004123301222298696],"type":"VEC3"},{"bufferView":0,"byteOffset":20280,"componentType":5126,"count":42,"max":[0.002831523734920775,0.007810316522516929,0.0004711071581377632],"min":[-0.002768476265079228,0.004058620672138078,-0.00019614424476395965],"type":"VEC3"},{"bufferView":0,"byteOffset":20784,"componentType":5126,"count":124,"max":[0.0038315237349207745,0.012810316522516932,-0.00009660244459739221],"min":[-0.0037684762650792276,0.00781031652251693,-0.00039660244459739213],"type":"VEC3"},{"bufferView":0,"byteOffset":22272,"componentType":5126,"count":16,"max":[0.003531523734920774,0.01216031652251693,0.0009033975554026077],"min":[-0.0034684762650792268,0.008460316522516932,-0.00009660244459739276],"type":"VEC3"},{"bufferView":1,"byteOffset":0,"componentType":5126,"count":24,"type":"VEC3"},{"bufferView":1,"byteOffset":288,"componentType":5126,"count":22,"type":"VEC3"},{"bufferView":1,"byteOffset":552,"componentType":5126,"count":46,"type":"VEC3"},{"bufferView":1,"byteOffset":1104,"componentType":5126,"count":632,"type":"VEC3"},{"bufferView":1,"byteOffset":8688,"componentType":5126,"count":20,"type":"VEC3"},{"bufferView":1,"byteOffset":8928,"componentType":5126,"count":12,"type":"VEC3"},{"bufferView":1,"byteOffset":9072,"componentType":5126,"count":4,"type":"VEC3"},{"bufferView":1,"byteOffset":9120,"componentType":5126,"count":20,"type":"VEC3"},{"bufferView":1,"byteOffset":9360,"componentType":5126,"count":16,"type":"VEC3"},{"bufferView":1,"byteOffset":9552,"componentType":5126,"count":160,"type":"VEC3"},{"bufferView":1,"byteOffset":11472,"componentType":5126,"count":280,"type":"VEC3"},{"bufferView":1,"byteOffset":14832,"componentType":5126,"count":400,"type":"VEC3"},{"bufferView":1,"byteOffset":19632,"componentType":5126,"count":54,"type":"VEC3"},{"bufferView":1,"byteOffset":20280,"componentType":5126,"count":42,"type":"VEC3"},{"bufferView":1,"byteOffset":20784,"componentType":5126,"count":124,"type":"VEC3"},{"bufferView":1,"byteOffset":22272,"componentType":5126,"count":16,"type":"VEC3"},{"bufferView":2,"byteOffset":0,"componentType":5123,"count":36,"type":"SCALAR"},{"bufferView":2,"byteOffset":72,"componentType":5123,"count":48,"type":"SCALAR"},{"bufferView":2,"byteOffset":168,"componentType":5123,"count":84,"type":"SCALAR"},{"bufferView":2,"byteOffset":336,"componentType":5123,"count":1872,"type":"SCALAR"},{"bufferView":2,"byteOffset":4080,"componentType":5123,"count":30,"type":"SCALAR"},{"bufferView":2,"byteOffset":4140,"componentType":5123,"count":18,"type":"SCALAR"},{"bufferView":2,"byteOffset":4176,"componentType":5123,"count":6,"type":"SCALAR"},{"bufferView":2,"byteOffset":4188,"componentType":5123,"count":30,"type":"SCALAR"},{"bufferView":2,"byteOffset":4248,"componentType":5123,"count":24,"type":"SCALAR"},{"bufferView":2,"byteOffset":4296,"componentType":5123,"count":894,"type":"SCALAR"},{"bufferView":2,"byteOffset":6084,"componentType":5123,"count":792,"type":"SCALAR"},{"bufferView":2,"byteOffset":7668,"componentType":5123,"count":1176,"type":"SCALAR"},{"bufferView":2,"byteOffset":10020,"componentType":5123,"count":168,"type":"SCALAR"},{"bufferView":2,"byteOffset":10356,"componentType":5123,"count":108,"type":"SCALAR"},{"bufferView":2,"byteOffset":10572,"componentType":5123,"count":318,"type":"SCALAR"},{"bufferView":2,"byteOffset":11208,"componentType":5123,"count":24,"type":"SCALAR"}],"asset":{"generator":"Open CASCADE Technology 7.6 [dev.opencascade.org]","version":"2.0","extras":{"Author":"","Originating system":"SolidWorks 2025","Organization":"","Comments":"STEP AP214"}},"bufferViews":[{"buffer":0,"byteLength":22464,"byteOffset":0,"byteStride":12,"target":34962},{"buffer":0,"byteLength":22464,"byteOffset":22464,"byteStride":12,"target":34962},{"buffer":0,"byteLength":11256,"byteOffset":44928,"target":34963}],"buffers":[{"byteLength":56184,"uri":"rpi_camera.bin"}],"materials":[{"name":"mat_0","pbrMetallicRoughness":{"baseColorFactor":[0.15592646598815919,0.21223075687885285,0.15592646598815919,1.0],"roughnessFactor":0.2121320366859436},"doubleSided":true},{"name":"mat_1","pbrMetallicRoughness":{"baseColorFactor":[0.6795424818992615,0.6307571530342102,0.5271151065826416,1.0],"roughnessFactor":0.2121320366859436},"doubleSided":true},{"name":"mat_2","pbrMetallicRoughness":{"baseColorFactor":[0.07227185368537903,0.07227185368537903,0.07227185368537903,1.0],"roughnessFactor":0.2121320366859436},"doubleSided":true},{"name":"mat_3","pbrMetallicRoughness":{"baseColorFactor":[0.0,0.34670406579971316,0.005605391692370176,1.0],"roughnessFactor":0.2121320366859436},"doubleSided":true},{"name":"mat_4","pbrMetallicRoughness":{"baseColorFactor":[0.23074005544185639,0.24228112399578095,0.2622506618499756,1.0],"roughnessFactor":0.2121320366859436},"doubleSided":true},{"name":"mat_5","pbrMetallicRoughness":{"baseColorFactor":[1.0,0.0,0.0,1.0],"roughnessFactor":0.2121320366859436},"doubleSided":true},{"name":"mat_6","pbrMetallicRoughness":{"baseColorFactor":[0.5271151065826416,0.5271151065826416,0.5271151065826416,1.0],"roughnessFactor":0.2121320366859436},"doubleSided":true},{"name":"mat_7","pbrMetallicRoughness":{"baseColorFactor":[0.01032982300966978,0.01032982300966978,0.01032982300966978,1.0],"roughnessFactor":0.2121320366859436},"doubleSided":true},{"name":"mat_8","pbrMetallicRoughness":{"baseColorFactor":[0.9301108717918396,1.0,1.0,1.0],"roughnessFactor":0.2121320366859436},"doubleSided":true},{"name":"mat_9","pbrMetallicRoughness":{"baseColorFactor":[0.6795424818992615,0.38642942905426028,0.0,1.0],"roughnessFactor":0.2121320366859436},"doubleSided":true},{"name":"mat_10","pbrMetallicRoughness":{"baseColorFactor":[1.0,0.4019777774810791,0.028426039963960649,1.0],"roughnessFactor":0.2121320366859436},"doubleSided":true}],"meshes":[{"name":"SHELL","primitives":[{"attributes":{"NORMAL":16,"POSITION":0},"indices":32,"material":0,"mode":4}]},{"name":"SHELL","primitives":[{"attributes":{"NORMAL":17,"POSITION":1},"indices":33,"material":1,"mode":4},{"attributes":{"NORMAL":18,"POSITION":2},"indices":34,"material":2,"mode":4}]},{"name":"SHELL","primitives":[{"attributes":{"NORMAL":19,"POSITION":3},"indices":35,"material":3,"mode":4},{"attributes":{"NORMAL":20,"POSITION":4},"indices":36,"material":2,"mode":4},{"attributes":{"NORMAL":21,"POSITION":5},"indices":37,"material":1,"mode":4},{"attributes":{"NORMAL":22,"POSITION":6},"indices":38,"material":4,"mode":4},{"attributes":{"NORMAL":23,"POSITION":7},"indices":39,"material":5,"mode":4}]},{"name":"SHELL","primitives":[{"attributes":{"NORMAL":24,"POSITION":8},"indices":40,"material":6,"mode":4},{"attributes":{"NORMAL":25,"POSITION":9},"indices":41,"material":7,"mode":4}]},{"name":"SHELL","primitives":[{"attributes":{"NORMAL":26,"POSITION":10},"indices":42,"material":7,"mode":4}]},{"name":"SHELL","primitives":[{"attributes":{"NORMAL":27,"POSITION":11},"indices":43,"material":2,"mode":4},{"attributes":{"NORMAL":28,"POSITION":12},"indices":44,"material":8,"mode":4}]},{"name":"SHELL","primitives":[{"attributes":{"NORMAL":29,"POSITION":13},"indices":45,"material":9,"mode":4}]},{"name":"SHELL","primitives":[{"attributes":{"NORMAL":30,"POSITION":14},"indices":46,"material":10,"mode":4}]},{"name":"SHELL","primitives":[{"attributes":{"NORMAL":31,"POSITION":15},"indices":47,"material":10,"mode":4}]}],"nodes":[{"children":[1,2,3,4,5,6,7,8,9],"name":"rpi_camera"},{"mesh":0,"name":"SHELL"},{"mesh":1,"name":"SHELL"},{"mesh":2,"name":"SHELL"},{"mesh":3,"name":"SHELL"},{"mesh":4,"name":"SHELL"},{"mesh":5,"name":"SHELL"},{"mesh":6,"name":"SHELL"},{"mesh":7,"name":"SHELL"},{"mesh":8,"name":"SHELL"}],"scene":0,"scenes":[{"nodes":[0]}]}