{"accessors":[{"bufferView":0,"byteOffset":0,"componentType":5126,"count":1780,"max":[0.006080000000000007,0.0031000000000000005,0.00940600000000001],"min":[-0.006080000000000002,-0.00009999999999999983,0.007406000000000005],"type":"VEC3"},{"bufferView":0,"byteOffset":21360,"componentType":5126,"count":296,"max":[0.020500000000000006,0.016,0.008000000000000002],"min":[-0.0205,0.0155,-0.008000000000000002],"type":"VEC3"},{"bufferView":0,"byteOffset":24912,"componentType":5126,"count":152,"max":[0.020500000000000006,0.016,0.008000000000000002],"min":[-0.0205,0.003,-0.008000000000000002],"type":"VEC3"},{"bufferView":0,"byteOffset":26736,"componentType":5126,"count":152,"max":[0.021500000000000003,0.003,0.009445],"min":[-0.0215,0.0,-0.009445],"type":"VEC3"},{"bufferView":0,"byteOffset":28560,"componentType":5126,"count":879,"max":[0.0225,0.003,0.010445000000000002],"min":[-0.0225,-1.3552527156068805e-20,-0.010445000000000002],"type":"VEC3"},{"bufferView":0,"byteOffset":39108,"componentType":5126,"count":967,"max":[0.019500000000000005,0.0155,0.007000000000000003],"min":[-0.020110167221810469,-0.0001,-0.007000000000000003],"type":"VEC3"},{"bufferView":0,"byteOffset":50712,"componentType":5126,"count":432,"max":[0.005000000000000005,0.006,-0.0062949999999999989],"min":[-0.004999999999999996,0.003,-0.010294999999999999],"type":"VEC3"},{"bufferView":1,"byteOffset":0,"componentType":5126,"count":1780,"type":"VEC3"},{"bufferView":1,"byteOffset":21360,"componentType":5126,"count":296,"type":"VEC3"},{"bufferView":1,"byteOffset":24912,"componentType":5126,"count":152,"type":"VEC3"},{"bufferView":1,"byteOffset":26736,"componentType":5126,"count":152,"type":"VEC3"},{"bufferView":1,"byteOffset":28560,"componentType":5126,"count":879,"type":"VEC3"},{"bufferView":1,"byteOffset":39108,"componentType":5126,"count":967,"type":"VEC3"},{"bufferView":1,"byteOffset":50712,"componentType":5126,"count":432,"type":"VEC3"},{"bufferView":2,"byteOffset":0,"componentType":5123,"count":5160,"type":"SCALAR"},{"bufferView":2,"byteOffset":10320,"componentType":5123,"count":864,"type":"SCALAR"},{"bufferView":2,"byteOffset":12048,"componentType":5123,"count":432,"type":"SCALAR"},{"bufferView":2,"byteOffset":12912,"componentType":5123,"count":432,"type":"SCALAR"},{"bufferView":2,"byteOffset":13776,"componentType":5123,"count":2721,"type":"SCALAR"},{"bufferView":2,"byteOffset":19220,"componentType":5123,"count":2391,"type":"SCALAR"},{"bufferView":2,"byteOffset":24004,"componentType":5123,"count":1710,"type":"SCALAR"}],"asset":{"generator":"Open CASCADE Technology 7.6 [dev.opencascade.org]","version":"2.0","extras":{"Author":"","Originating system":"SolidWorks 2025","Organization":"","Comments":"STEP AP214"}},"bufferViews":[{"buffer":0,"byteLength":55896,"byteOffset":0,"byteStride":12,"target":34962},{"buffer":0,"byteLength":55896,"byteOffset":55896,"byteStride":12,"target":34962},{"buffer":0,"byteLength":27424,"byteOffset":111792,"target":34963}],"buffers":[{"byteLength":139216,"uri":"ultrasonic_hysrf05.bin"}],"materials":[{"name":"mat_0","pbrMetallicRoughness":{"baseColorFactor":[1.0,0.9130986332893372,0.7681511640548706,1.0],"roughnessFactor":0.2121320366859436},"doubleSided":true},{"name":"mat_1","pbrMetallicRoughness":{"baseColorFactor":[1.0,0.8879231214523315,0.8069522380828857,1.0],"roughnessFactor":0.2121320366859436},"doubleSided":true},{"name":"mat_2","pbrMetallicRoughness":{"baseColorFactor":[0.5647115111351013,0.533276379108429,0.5028864741325378,1.0],"roughnessFactor":0.2121320366859436},"doubleSided":true},{"name":"mat_3","pbrMetallicRoughness":{"baseColorFactor":[0.9911020994186401,0.7304607629776001,0.5394794940948486,1.0],"roughnessFactor":0.2121320366859436},"doubleSided":true},{"name":"mat_4","pbrMetallicRoughness":{"baseColorFactor":[0.0,0.03071344457566738,0.38642942905426028,1.0],"roughnessFactor":0.2121320366859436},"doubleSided":true},{"name":"mat_5","pbrMetallicRoughness":{"baseColorFactor":[1.0,1.0,1.0,1.0],"roughnessFactor":0.2121320366859436},"doubleSided":true},{"name":"mat_6","pbrMetallicRoughness":{"baseColorFactor":[0.7230551242828369,0.8069522380828857,1.0,1.0],"roughnessFactor":0.2121320366859436},"doubleSided":true}],"meshes":[{"name":"ultrasonic_hysrf05","primitives":[{"attributes":{"NORMAL":7,"POSITION":0},"indices":14,"material":0,"mode":4},{"attributes":{"NORMAL":8,"POSITION":1},"indices":15,"material":1,"mode":4},{"attributes":{"NORMAL":9,"POSITION":2},"indices":16,"material":2,"mode":4},{"attributes":{"NORMAL":10,"POSITION":3},"indices":17,"material":3,"mode":4},{"attributes":{"NORMAL":11,"POSITION":4},"indices":18,"material":4,"mode":4},{"attributes":{"NORMAL":12,"POSITION":5},"indices":19,"material":5,"mode":4},{"attributes":{"NORMAL":13,"POSITION":6},"indices":20,"material":6,"mode":4}]}],"nodes":[{"mesh":0,"name":"ultrasonic_hysrf05"}],"scene":0,"scenes":[{"nodes":[0]}]}