{"accessors":[{"bufferView":0,"byteOffset":0,"componentType":5126,"count":2200,"max":[0.006080000000000007,0.0036000000000000005,0.00940600000000001],"min":[-0.006080000000000002,-0.00009999999999999983,-0.009406000000000012],"type":"VEC3"},{"bufferView":0,"byteOffset":26400,"componentType":5126,"count":680,"max":[0.005580000000000008,0.0036000000000000005,0.00890600000000001],"min":[-0.005580000000000002,-0.00009999999999999983,-0.008906000000000011],"type":"VEC3"},{"bufferView":0,"byteOffset":34560,"componentType":5126,"count":296,"max":[0.019429999999999969,0.0165,0.008000000000000002],"min":[-0.019429999999999969,0.016,-0.007999999999999999],"type":"VEC3"},{"bufferView":0,"byteOffset":38112,"componentType":5126,"count":152,"max":[0.019429999999999969,0.0165,0.008000000000000002],"min":[-0.019429999999999969,0.0035,-0.007999999999999999],"type":"VEC3"},{"bufferView":0,"byteOffset":39936,"componentType":5126,"count":152,"max":[0.020399999999999968,0.0035,0.008715999999999998],"min":[-0.020399999999999968,0.0,-0.008716000000000002],"type":"VEC3"},{"bufferView":0,"byteOffset":41760,"componentType":5126,"count":693,"max":[0.02159,0.0035,0.009906000000000002],"min":[-0.02159,0.0,-0.009906000000000002],"type":"VEC3"},{"bufferView":0,"byteOffset":50076,"componentType":5126,"count":508,"max":[0.02159,0.0035,0.009906000000000002],"min":[-0.02159,0.0035,-0.009906000000000002],"type":"VEC3"},{"bufferView":0,"byteOffset":56172,"componentType":5126,"count":72,"max":[0.01842999999999997,0.016,0.007000000000000002],"min":[-0.01842999999999997,0.016,-0.007],"type":"VEC3"},{"bufferView":0,"byteOffset":57036,"componentType":5126,"count":680,"max":[0.006080000000000007,0.0036000000000000005,0.00940600000000001],"min":[-0.006080000000000002,0.0036000000000000005,-0.009406000000000012],"type":"VEC3"},{"bufferView":0,"byteOffset":65196,"componentType":5126,"count":889,"max":[-0.0180555122738938,2.117582368135751e-22,0.004262606417338055],"min":[-0.020110167221810469,-0.000001,-0.004301933797200518],"type":"VEC3"},{"bufferView":1,"byteOffset":0,"componentType":5126,"count":2200,"type":"VEC3"},{"bufferView":1,"byteOffset":26400,"componentType":5126,"count":680,"type":"VEC3"},{"bufferView":1,"byteOffset":34560,"componentType":5126,"count":296,"type":"VEC3"},{"bufferView":1,"byteOffset":38112,"componentType":5126,"count":152,"type":"VEC3"},{"bufferView":1,"byteOffset":39936,"componentType":5126,"count":152,"type":"VEC3"},{"bufferView":1,"byteOffset":41760,"componentType":5126,"count":693,"type":"VEC3"},{"bufferView":1,"byteOffset":50076,"componentType":5126,"count":508,"type":"VEC3"},{"bufferView":1,"byteOffset":56172,"componentType":5126,"count":72,"type":"VEC3"},{"bufferView":1,"byteOffset":57036,"componentType":5126,"count":680,"type":"VEC3"},{"bufferView":1,"byteOffset":65196,"componentType":5126,"count":889,"type":"VEC3"},{"bufferView":2,"byteOffset":0,"componentType":5123,"count":6360,"type":"SCALAR"},{"bufferView":2,"byteOffset":12720,"componentType":5123,"count":1920,"type":"SCALAR"},{"bufferView":2,"byteOffset":16560,"componentType":5123,"count":864,"type":"SCALAR"},{"bufferView":2,"byteOffset":18288,"componentType":5123,"count":432,"type":"SCALAR"},{"bufferView":2,"byteOffset":19152,"componentType":5123,"count":432,"type":"SCALAR"},{"bufferView":2,"byteOffset":20016,"componentType":5123,"count":2139,"type":"SCALAR"},{"bufferView":2,"byteOffset":24296,"componentType":5123,"count":1602,"type":"SCALAR"},{"bufferView":2,"byteOffset":27500,"componentType":5123,"count":204,"type":"SCALAR"},{"bufferView":2,"byteOffset":27908,"componentType":5123,"count":2040,"type":"SCALAR"},{"bufferView":2,"byteOffset":31988,"componentType":5123,"count":2151,"type":"SCALAR"}],"asset":{"generator":"Open CASCADE Technology 7.6 [dev.opencascade.org]","version":"2.0","extras":{"Author":"","Originating system":"SolidWorks 2025","Organization":"","Comments":"STEP AP214"}},"bufferViews":[{"buffer":0,"byteLength":75864,"byteOffset":0,"byteStride":12,"target":34962},{"buffer":0,"byteLength":75864,"byteOffset":75864,"byteStride":12,"target":34962},{"buffer":0,"byteLength":36292,"byteOffset":151728,"target":34963}],"buffers":[{"byteLength":188020,"uri":"ultrasonic_srf05.bin"}],"materials":[{"name":"mat_0","pbrMetallicRoughness":{"baseColorFactor":[1.0,1.0,0.0,1.0],"roughnessFactor":0.2121320366859436},"doubleSided":true},{"name":"mat_1","pbrMetallicRoughness":{"baseColorFactor":[0.5972017645835877,0.6444796919822693,0.8631572127342224,1.0],"roughnessFactor":0.2121320366859436},"doubleSided":true},{"name":"mat_2","pbrMetallicRoughness":{"baseColorFactor":[1.0,0.8879231214523315,0.8069522380828857,1.0],"roughnessFactor":0.2121320366859436},"doubleSided":true},{"name":"mat_3","pbrMetallicRoughness":{"baseColorFactor":[0.5647115111351013,0.533276379108429,0.5028864741325378,1.0],"roughnessFactor":0.2121320366859436},"doubleSided":true},{"name":"mat_4","pbrMetallicRoughness":{"baseColorFactor":[0.9911020994186401,0.7304607629776001,0.5394794940948486,1.0],"roughnessFactor":0.2121320366859436},"doubleSided":true},{"name":"mat_5","pbrMetallicRoughness":{"baseColorFactor":[0.0,0.14702726900577546,0.0,1.0],"roughnessFactor":0.2121320366859436},"doubleSided":true},{"name":"mat_6","pbrMetallicRoughness":{"baseColorFactor":[0.0,0.2158605009317398,0.0,1.0],"roughnessFactor":0.2121320366859436},"doubleSided":true},{"name":"mat_7","pbrMetallicRoughness":{"baseColorFactor":[1.0,1.0,1.0,1.0],"roughnessFactor":0.2121320366859436},"doubleSided":true},{"name":"mat_8","pbrMetallicRoughness":{"baseColorFactor":[1.0,1.0,0.12743768095970155,1.0],"roughnessFactor":0.2121320366859436},"doubleSided":true},{"name":"mat_9","pbrMetallicRoughness":{"baseColorFactor":[0.0,1.0,0.0,1.0],"roughnessFactor":0.2121320366859436},"doubleSided":true}],"meshes":[{"name":"ultrasonic_srf05","primitives":[{"attributes":{"NORMAL":10,"POSITION":0},"indices":20,"material":0,"mode":4},{"attributes":{"NORMAL":11,"POSITION":1},"indices":21,"material":1,"mode":4},{"attributes":{"NORMAL":12,"POSITION":2},"indices":22,"material":2,"mode":4},{"attributes":{"NORMAL":13,"POSITION":3},"indices":23,"material":3,"mode":4},{"attributes":{"NORMAL":14,"POSITION":4},"indices":24,"material":4,"mode":4},{"attributes":{"NORMAL":15,"POSITION":5},"indices":25,"material":5,"mode":4},{"attributes":{"NORMAL":16,"POSITION":6},"indices":26,"material":6,"mode":4},{"attributes":{"NORMAL":17,"POSITION":7},"indices":27,"material":7,"mode":4},{"attributes":{"NORMAL":18,"POSITION":8},"indices":28,"material":8,"mode":4},{"attributes":{"NORMAL":19,"POSITION":9},"indices":29,"material":9,"mode":4}]}],"nodes":[{"mesh":0,"name":"ultrasonic_srf05"}],"scene":0,"scenes":[{"nodes":[0]}]}