{"accessors":[{"bufferView":0,"byteOffset":0,"componentType":5126,"count":8257,"max":[0.05320832350947746,0.05320832350947963,0.0],"min":[-0.05320832350947758,-0.05320831654579367,-0.009900000000000003],"type":"VEC3"},{"bufferView":0,"byteOffset":99084,"componentType":5126,"count":7166,"max":[0.05,0.0225,0.05],"min":[-0.05,-0.0025,-0.05],"type":"VEC3"},{"bufferView":1,"byteOffset":0,"componentType":5126,"count":8257,"type":"VEC3"},{"bufferView":1,"byteOffset":99084,"componentType":5126,"count":7166,"type":"VEC3"},{"bufferView":2,"byteOffset":0,"componentType":5123,"count":27816,"type":"SCALAR"},{"bufferView":2,"byteOffset":55632,"componentType":5123,"count":24960,"type":"SCALAR"}],"asset":{"generator":"Open CASCADE Technology 7.6 [dev.opencascade.org]","version":"2.0","extras":{"Author":"","Originating system":"SolidWorks 2025","Organization":"","Comments":"STEP AP214"}},"bufferViews":[{"buffer":0,"byteLength":185076,"byteOffset":0,"byteStride":12,"target":34962},{"buffer":0,"byteLength":185076,"byteOffset":185076,"byteStride":12,"target":34962},{"buffer":0,"byteLength":105552,"byteOffset":370152,"target":34963}],"buffers":[{"byteLength":475704,"uri":"wheel.bin"}],"materials":[{"name":"mat_0","pbrMetallicRoughness":{"baseColorFactor":[0.0006070539820939302,0.04666508734226227,0.6444796919822693,1.0],"roughnessFactor":0.2121320366859436},"doubleSided":true},{"name":"mat_1","pbrMetallicRoughness":{"baseColorFactor":[0.0,1.0,1.0,1.0],"roughnessFactor":0.2121320366859436},"doubleSided":true}],"meshes":[{"name":"Tire","primitives":[{"attributes":{"NORMAL":2,"POSITION":0},"indices":4,"material":0,"mode":4}]},{"name":"Wheel_V2_Flat","primitives":[{"attributes":{"NORMAL":3,"POSITION":1},"indices":5,"material":1,"mode":4}]}],"nodes":[{"children":[1,2],"name":"wheel"},{"rotation":[0.007930882757250197,0.707062303548061,0.7070623035480615,-0.00793088275724988],"translation":[1.1047241522983308e-18,0.004899999999999999,2.320286574958428e-18],"mesh":0,"name":"NAUO1"},{"translation":[0.0,-0.005,0.0],"mesh":1,"name":"NAUO2"}],"scene":0,"scenes":[{"nodes":[0]}]}