ISO-10303-21;
HEADER;
FILE_DESCRIPTION (( 'STEP AP214' ),
    '1' );
FILE_NAME ('camera_led.STEP',
    '2025-05-18T16:25:59',
    ( '' ),
    ( '' ),
    'SwSTEP 2.0',
    'SolidWorks 2025',
    '' );
FILE_SCHEMA (( 'AUTOMOTIVE_DESIGN' ));
ENDSEC;

DATA;
#1 = CIRCLE ( 'NONE', #768, 2.500000000000000888 ) ;
#2 = ORIENTED_EDGE ( 'NONE', *, *, #439, .F. ) ;
#3 =( GEOMETRIC_REPRESENTATION_CONTEXT ( 3 ) GLOBAL_UNCERTAINTY_ASSIGNED_CONTEXT ( ( #617 ) ) GLOBAL_UNIT_ASSIGNED_CONTEXT ( ( #748, #19, #341 ) ) REPRESENTATION_CONTEXT ( 'NONE', 'WORKASPACE' ) );
#4 = CARTESIAN_POINT ( 'NONE',  ( 0.3414244186046470619, 1.530808498934191571E-16, -6.960699471770338320 ) ) ;
#5 = PLANE ( 'NONE',  #345 ) ;
#6 = FILL_AREA_STYLE_COLOUR ( '', #683 ) ;
#7 = FACE_OUTER_BOUND ( 'NONE', #542, .T. ) ;
#8 = CARTESIAN_POINT ( 'NONE',  ( -1.520000000000000018, 0.2397504699829097474, 1.318749999999998979 ) ) ;
#9 = ADVANCED_FACE ( 'NONE', ( #102 ), #963, .F. ) ;
#10 = CARTESIAN_POINT ( 'NONE',  ( 0.04142441860464723263, 0.000000000000000000, -7.281250000000000888 ) ) ;
#11 = DIRECTION ( 'NONE',  ( -0.000000000000000000, -0.000000000000000000, -1.000000000000000000 ) ) ;
#12 = CARTESIAN_POINT ( 'NONE',  ( 1.520000000000000462, -0.2602495300170902803, 6.318749999999998757 ) ) ;
#13 = ADVANCED_FACE ( 'NONE', ( #667 ), #957, .F. ) ;
#14 =( LENGTH_UNIT ( ) NAMED_UNIT ( * ) SI_UNIT ( .MILLI., .METRE. ) );
#15 = EDGE_CURVE ( 'NONE', #183, #346, #742, .T. ) ;
#16 = CARTESIAN_POINT ( 'NONE',  ( -1.020000000000000018, -0.2602495300170902803, 1.318749999999998757 ) ) ;
#17 = COLOUR_RGB ( '',0.9176470588235293713, 0.9058823529411764719, 1.000000000000000000 ) ;
#18 = VECTOR ( 'NONE', #527, 1000.000000000000000 ) ;
#19 =( NAMED_UNIT ( * ) PLANE_ANGLE_UNIT ( ) SI_UNIT ( $, .RADIAN. ) );
#20 = DIRECTION ( 'NONE',  ( -1.473443359409806292E-16, -0.000000000000000000, -1.000000000000000000 ) ) ;
#21 = DIRECTION ( 'NONE',  ( 0.000000000000000000, 0.000000000000000000, 1.000000000000000000 ) ) ;
#22 = LINE ( 'NONE', #829, #173 ) ;
#23 = ORIENTED_EDGE ( 'NONE', *, *, #421, .T. ) ;
#24 =( LENGTH_UNIT ( ) NAMED_UNIT ( * ) SI_UNIT ( .MILLI., .METRE. ) );
#25 = PRESENTATION_STYLE_ASSIGNMENT (( #987 ) ) ;
#26 = ORIENTED_EDGE ( 'NONE', *, *, #468, .F. ) ;
#27 = SURFACE_STYLE_FILL_AREA ( #696 ) ;
#28 = EDGE_CURVE ( 'NONE', #639, #558, #271, .T. ) ;
#29 = CARTESIAN_POINT ( 'NONE',  ( 1.020000000000000462, 0.2397504699829097474, 6.318749999999998757 ) ) ;
#30 = FACE_OUTER_BOUND ( 'NONE', #846, .T. ) ;
#31 = EDGE_LOOP ( 'NONE', ( #521, #463, #868, #701 ) ) ;
#32 = STYLED_ITEM ( 'NONE', ( #900 ), #1009 ) ;
#33 = PRESENTATION_LAYER_ASSIGNMENT (  '', '', ( #488 ) ) ;
#34 = DIRECTION ( 'NONE',  ( 1.000000000000000000, 0.000000000000000000, -1.473443359409806292E-16 ) ) ;
#35 = VECTOR ( 'NONE', #117, 1000.000000000000000 ) ;
#36 = COLOUR_RGB ( '',0.9176470588235293713, 0.9058823529411764719, 1.000000000000000000 ) ;
#37 = CARTESIAN_POINT ( 'NONE',  ( -1.020000000000000018, 0.2397504699829097474, 6.318749999999998757 ) ) ;
#38 = LINE ( 'NONE', #448, #125 ) ;
#39 = DIRECTION ( 'NONE',  ( -1.000000000000000000, 0.000000000000000000, 1.473443359409806292E-16 ) ) ;
#40 = ORIENTED_EDGE ( 'NONE', *, *, #455, .T. ) ;
#41 = SURFACE_STYLE_USAGE ( .BOTH. , #126 ) ;
#42 = DIRECTION ( 'NONE',  ( 1.000000000000000000, -0.000000000000000000, -0.000000000000000000 ) ) ;
#43 = VERTEX_POINT ( 'NONE', #187 ) ;
#44 = EDGE_CURVE ( 'NONE', #693, #385, #513, .T. ) ;
#45 = CARTESIAN_POINT ( 'NONE',  ( -1.020000000000000018, 0.2397504699829097474, 6.318749999999998757 ) ) ;
#46 = EDGE_CURVE ( 'NONE', #802, #1031, #138, .T. ) ;
#47 =( NAMED_UNIT ( * ) SI_UNIT ( $, .STERADIAN. ) SOLID_ANGLE_UNIT ( ) );
#48 = EDGE_LOOP ( 'NONE', ( #516, #695, #320, #716 ) ) ;
#49 = FACE_OUTER_BOUND ( 'NONE', #873, .T. ) ;
#50 = PRESENTATION_LAYER_ASSIGNMENT (  '', '', ( #974 ) ) ;
#51 = VECTOR ( 'NONE', #977, 1000.000000000000000 ) ;
#52 = CARTESIAN_POINT ( 'NONE',  ( 0.000000000000000000, 0.000000000000000000, 0.000000000000000000 ) ) ;
#53 = VECTOR ( 'NONE', #199, 1000.000000000000000 ) ;
#54 = STYLED_ITEM ( 'NONE', ( #174 ), #608 ) ;
#55 = EDGE_CURVE ( 'NONE', #936, #477, #356, .T. ) ;
#56 = PRESENTATION_LAYER_ASSIGNMENT (  '', '', ( #364 ) ) ;
#57 = SURFACE_STYLE_FILL_AREA ( #65 ) ;
#58 = ORIENTED_EDGE ( 'NONE', *, *, #694, .T. ) ;
#59 = DIRECTION ( 'NONE',  ( 0.000000000000000000, -0.000000000000000000, -1.000000000000000000 ) ) ;
#60 =( LENGTH_UNIT ( ) NAMED_UNIT ( * ) SI_UNIT ( .MILLI., .METRE. ) );
#61 = VERTEX_POINT ( 'NONE', #758 ) ;
#62 = UNCERTAINTY_MEASURE_WITH_UNIT (LENGTH_MEASURE( 1.000000000000000082E-05 ), #14, 'distance_accuracy_value', 'NONE');
#63 = CARTESIAN_POINT ( 'NONE',  ( 0.04142441860464755876, 0.000000000000000000, -4.781250000000000888 ) ) ;
#64 = EDGE_CURVE ( 'NONE', #721, #274, #166, .T. ) ;
#65 = FILL_AREA_STYLE ('',( #216 ) ) ;
#66 = ORIENTED_EDGE ( 'NONE', *, *, #406, .F. ) ;
#67 = CIRCLE ( 'NONE', #511, 2.949999999999999734 ) ;
#68 = MECHANICAL_DESIGN_GEOMETRIC_PRESENTATION_REPRESENTATION (  '', ( #1020 ), #257 ) ;
#69 = AXIS2_PLACEMENT_3D ( 'NONE', #10, #337, #574 ) ;
#70 = SURFACE_STYLE_USAGE ( .BOTH. , #1014 ) ;
#71 = PRESENTATION_LAYER_ASSIGNMENT (  '', '', ( #407 ) ) ;
#72 = DIRECTION ( 'NONE',  ( -1.000000000000000000, 0.000000000000000000, 1.636531581110194916E-16 ) ) ;
#73 = ORIENTED_EDGE ( 'NONE', *, *, #369, .T. ) ;
#74 = EDGE_CURVE ( 'NONE', #1031, #759, #67, .T. ) ;
#75 = EDGE_LOOP ( 'NONE', ( #916, #669, #420, #202 ) ) ;
#76 = UNCERTAINTY_MEASURE_WITH_UNIT (LENGTH_MEASURE( 1.000000000000000082E-05 ), #24, 'distance_accuracy_value', 'NONE');
#77 = DIRECTION ( 'NONE',  ( 0.000000000000000000, -1.000000000000000000, 0.000000000000000000 ) ) ;
#78 = EDGE_LOOP ( 'NONE', ( #145, #154, #793 ) ) ;
#79 = ORIENTED_EDGE ( 'NONE', *, *, #454, .T. ) ;
#80 = CARTESIAN_POINT ( 'NONE',  ( 0.04142441860464723263, 0.000000000000000000, -7.281250000000000888 ) ) ;
#81 = DIRECTION ( 'NONE',  ( -1.473443359409806292E-16, -0.000000000000000000, -1.000000000000000000 ) ) ;
#82 = ORIENTED_EDGE ( 'NONE', *, *, #152, .T. ) ;
#83 = SURFACE_SIDE_STYLE ('',( #978 ) ) ;
#84 = PLANE ( 'NONE',  #307 ) ;
#85 = PRODUCT_DEFINITION_SHAPE ( 'NONE', 'NONE',  #305 ) ;
#86 = LINE ( 'NONE', #241, #561 ) ;
#87 = CIRCLE ( 'NONE', #188, 2.650000000000000799 ) ;
#88 = DIRECTION ( 'NONE',  ( -1.000000000000000000, 0.000000000000000000, 1.470104640658310754E-16 ) ) ;
#89 = VECTOR ( 'NONE', #684, 1000.000000000000000 ) ;
#90 = DIRECTION ( 'NONE',  ( -1.000000000000000000, 0.000000000000000000, 0.000000000000000000 ) ) ;
#91 = VECTOR ( 'NONE', #832, 1000.000000000000000 ) ;
#92 = PLANE ( 'NONE',  #473 ) ;
#93 = CIRCLE ( 'NONE', #954, 2.500000000000000888 ) ;
#94 = CYLINDRICAL_SURFACE ( 'NONE', #1023, 2.500000000000000444 ) ;
#95 = DIRECTION ( 'NONE',  ( -1.473443359409806292E-16, -0.000000000000000000, -1.000000000000000000 ) ) ;
#96 = DIRECTION ( 'NONE',  ( -1.473443359409806292E-16, -0.000000000000000000, -1.000000000000000000 ) ) ;
#97 = DIRECTION ( 'NONE',  ( -1.473443359409806292E-16, -0.000000000000000000, -1.000000000000000000 ) ) ;
#98 = CARTESIAN_POINT ( 'NONE',  ( 2.691424418604649205, 3.245314017740486948E-16, 1.018749999999998490 ) ) ;
#99 = FACE_OUTER_BOUND ( 'NONE', #436, .T. ) ;
#100 = SURFACE_SIDE_STYLE ('',( #745 ) ) ;
#101 = DIRECTION ( 'NONE',  ( -1.000000000000000000, 0.000000000000000000, 0.000000000000000000 ) ) ;
#102 = FACE_OUTER_BOUND ( 'NONE', #310, .T. ) ;
#103 = FILL_AREA_STYLE ('',( #410 ) ) ;
#104 = CARTESIAN_POINT ( 'NONE',  ( -2.608575581395352394, 0.000000000000000000, 0.6187499999999999112 ) ) ;
#105 = FILL_AREA_STYLE_COLOUR ( '', #663 ) ;
#106 = DIRECTION ( 'NONE',  ( -1.000000000000000000, 0.000000000000000000, 1.470104640658311247E-16 ) ) ;
#107 = PRESENTATION_LAYER_ASSIGNMENT (  '', '', ( #895 ) ) ;
#108 = COLOUR_RGB ( '',0.9176470588235293713, 0.9058823529411764719, 1.000000000000000000 ) ;
#109 = LINE ( 'NONE', #812, #734 ) ;
#110 = PRESENTATION_LAYER_ASSIGNMENT (  '', '', ( #993 ) ) ;
#111 = CARTESIAN_POINT ( 'NONE',  ( 2.541424418604649738, 3.061616997868385113E-16, 0.3187499999999992006 ) ) ;
#112 = CARTESIAN_POINT ( 'NONE',  ( 0.04142441860464755876, 0.000000000000000000, -4.781250000000000888 ) ) ;
#113 = DIRECTION ( 'NONE',  ( -1.000000000000000000, 0.000000000000000000, 2.940209281316622002E-16 ) ) ;
#114 = ORIENTED_EDGE ( 'NONE', *, *, #144, .T. ) ;
#115 =( LENGTH_UNIT ( ) NAMED_UNIT ( * ) SI_UNIT ( .MILLI., .METRE. ) );
#116 = EDGE_CURVE ( 'NONE', #726, #721, #376, .T. ) ;
#117 = DIRECTION ( 'NONE',  ( 0.000000000000000000, -1.000000000000000000, 0.000000000000000000 ) ) ;
#118 = DIRECTION ( 'NONE',  ( -1.473443359409806292E-16, -0.000000000000000000, -1.000000000000000000 ) ) ;
#119 = ORIENTED_EDGE ( 'NONE', *, *, #982, .T. ) ;
#120 = PLANE ( 'NONE',  #864 ) ;
#121 = CARTESIAN_POINT ( 'NONE',  ( -2.158575581395352661, 0.000000000000000000, 0.6187499999999998002 ) ) ;
#122 = SURFACE_SIDE_STYLE ('',( #210 ) ) ;
#123 = EDGE_LOOP ( 'NONE', ( #402, #131, #772, #40 ) ) ;
#124 = AXIS2_PLACEMENT_3D ( 'NONE', #168, #101, #397 ) ;
#125 = VECTOR ( 'NONE', #42, 1000.000000000000000 ) ;
#126 = SURFACE_SIDE_STYLE ('',( #854 ) ) ;
#127 = AXIS2_PLACEMENT_3D ( 'NONE', #52, #860, #518 ) ;
#128 = AXIS2_PLACEMENT_3D ( 'NONE', #197, #304, #59 ) ;
#129 = FACE_OUTER_BOUND ( 'NONE', #909, .T. ) ;
#130 = SURFACE_SIDE_STYLE ('',( #536 ) ) ;
#131 = ORIENTED_EDGE ( 'NONE', *, *, #319, .F. ) ;
#132 = CARTESIAN_POINT ( 'NONE',  ( 0.04142441860464723263, 0.000000000000000000, -7.281250000000000888 ) ) ;
#133 = ORIENTED_EDGE ( 'NONE', *, *, #152, .F. ) ;
#134 = CARTESIAN_POINT ( 'NONE',  ( -2.908575581395351772, 0.000000000000000000, 0.3187499999999991451 ) ) ;
#135 = CARTESIAN_POINT ( 'NONE',  ( -2.158575581395353105, 0.000000000000000000, -7.281250000000000888 ) ) ;
#136 = ORIENTED_EDGE ( 'NONE', *, *, #507, .F. ) ;
#137 = CARTESIAN_POINT ( 'NONE',  ( -1.520000000000000018, -0.2602495300170902803, 1.318749999999998979 ) ) ;
#138 = CIRCLE ( 'NONE', #809, 2.949999999999999734 ) ;
#139 = PRESENTATION_LAYER_ASSIGNMENT (  '', '', ( #596 ) ) ;
#140 = COLOUR_RGB ( '',0.9176470588235293713, 0.9058823529411764719, 1.000000000000000000 ) ;
#141 = DIRECTION ( 'NONE',  ( -1.000000000000000000, 0.000000000000000000, 0.000000000000000000 ) ) ;
#142 =( NAMED_UNIT ( * ) PLANE_ANGLE_UNIT ( ) SI_UNIT ( $, .RADIAN. ) );
#143 = ORIENTED_EDGE ( 'NONE', *, *, #144, .F. ) ;
#144 = EDGE_CURVE ( 'NONE', #228, #726, #150, .T. ) ;
#145 = ORIENTED_EDGE ( 'NONE', *, *, #204, .F. ) ;
#146 = DIRECTION ( 'NONE',  ( -1.473443359409806292E-16, -0.000000000000000000, -1.000000000000000000 ) ) ;
#147 = ORIENTED_EDGE ( 'NONE', *, *, #481, .F. ) ;
#148 = VERTEX_POINT ( 'NONE', #8 ) ;
#149 = VECTOR ( 'NONE', #720, 1000.000000000000000 ) ;
#150 = CIRCLE ( 'NONE', #167, 2.200000000000000178 ) ;
#151 = FILL_AREA_STYLE ('',( #552 ) ) ;
#152 = EDGE_CURVE ( 'NONE', #952, #939, #333, .T. ) ;
#153 = LINE ( 'NONE', #135, #149 ) ;
#154 = ORIENTED_EDGE ( 'NONE', *, *, #642, .T. ) ;
#155 = ORIENTED_EDGE ( 'NONE', *, *, #15, .T. ) ;
#156 = UNCERTAINTY_MEASURE_WITH_UNIT (LENGTH_MEASURE( 1.000000000000000082E-05 ), #483, 'distance_accuracy_value', 'NONE');
#157 = SPHERICAL_SURFACE ( 'NONE', #361, 2.200000000000000178 ) ;
#158 = ORIENTED_EDGE ( 'NONE', *, *, #265, .T. ) ;
#159 = CARTESIAN_POINT ( 'NONE',  ( 0.04142441860464834980, 0.000000000000000000, 0.3187499999999995892 ) ) ;
#160 = VERTEX_POINT ( 'NONE', #261 ) ;
#161 = CARTESIAN_POINT ( 'NONE',  ( 0.04142441860464728121, 0.000000000000000000, -6.960699471770338320 ) ) ;
#162 = LINE ( 'NONE', #332, #577 ) ;
#163 = DIRECTION ( 'NONE',  ( -1.473443359409806292E-16, -0.000000000000000000, -1.000000000000000000 ) ) ;
#164 = FACE_BOUND ( 'NONE', #858, .T. ) ;
#165 = DIRECTION ( 'NONE',  ( 1.473443359409806292E-16, 0.000000000000000000, 1.000000000000000000 ) ) ;
#166 = CIRCLE ( 'NONE', #530, 0.2999999999999997669 ) ;
#167 = AXIS2_PLACEMENT_3D ( 'NONE', #575, #894, #90 ) ;
#168 = CARTESIAN_POINT ( 'NONE',  ( 1.520000000000000462, 0.2397504699829097474, 6.318749999999998757 ) ) ;
#169 = CIRCLE ( 'NONE', #796, 0.2999999999999997669 ) ;
#170 = DIRECTION ( 'NONE',  ( -1.473443359409806292E-16, -0.000000000000000000, -1.000000000000000000 ) ) ;
#171 = MECHANICAL_DESIGN_GEOMETRIC_PRESENTATION_REPRESENTATION (  '', ( #364 ), #236 ) ;
#172 = SURFACE_STYLE_USAGE ( .BOTH. , #335 ) ;
#173 = VECTOR ( 'NONE', #501, 1000.000000000000000 ) ;
#174 = PRESENTATION_STYLE_ASSIGNMENT (( #589 ) ) ;
#175 = EDGE_CURVE ( 'NONE', #588, #43, #1, .T. ) ;
#176 = FILL_AREA_STYLE ('',( #401 ) ) ;
#177 = PLANE ( 'NONE',  #324 ) ;
#178 = DIRECTION ( 'NONE',  ( -1.000000000000000000, 0.000000000000000000, 0.000000000000000000 ) ) ;
#179 = DIRECTION ( 'NONE',  ( -1.473443359409806292E-16, -0.000000000000000000, -1.000000000000000000 ) ) ;
#180 = LINE ( 'NONE', #503, #780 ) ;
#181 = PLANE ( 'NONE',  #306 ) ;
#182 = LINE ( 'NONE', #744, #702 ) ;
#183 = VERTEX_POINT ( 'NONE', #494 ) ;
#184 = FACE_BOUND ( 'NONE', #398, .T. ) ;
#185 = LINE ( 'NONE', #918, #35 ) ;
#186 = DIRECTION ( 'NONE',  ( -1.000000000000000000, 0.000000000000000000, 0.000000000000000000 ) ) ;
#187 = CARTESIAN_POINT ( 'NONE',  ( -2.458575581395352483, 0.000000000000000000, 0.3187499999999999778 ) ) ;
#188 = AXIS2_PLACEMENT_3D ( 'NONE', #581, #96, #585 ) ;
#189 =( GEOMETRIC_REPRESENTATION_CONTEXT ( 3 ) GLOBAL_UNCERTAINTY_ASSIGNED_CONTEXT ( ( #1028 ) ) GLOBAL_UNIT_ASSIGNED_CONTEXT ( ( #205, #677, #47 ) ) REPRESENTATION_CONTEXT ( 'NONE', 'WORKASPACE' ) );
#190 = SURFACE_STYLE_USAGE ( .BOTH. , #130 ) ;
#191 = ORIENTED_EDGE ( 'NONE', *, *, #880, .T. ) ;
#192 = VECTOR ( 'NONE', #412, 1000.000000000000000 ) ;
#193 = PRESENTATION_LAYER_ASSIGNMENT (  '', '', ( #514 ) ) ;
#194 =( LENGTH_UNIT ( ) NAMED_UNIT ( * ) SI_UNIT ( .MILLI., .METRE. ) );
#195 = FILL_AREA_STYLE ('',( #756 ) ) ;
#196 = ORIENTED_EDGE ( 'NONE', *, *, #564, .T. ) ;
#197 = CARTESIAN_POINT ( 'NONE',  ( 1.520000000000000462, 0.2397504699829097474, 6.318749999999998757 ) ) ;
#198 = CARTESIAN_POINT ( 'NONE',  ( 0.04142441860464755876, 0.000000000000000000, -4.781250000000000888 ) ) ;
#199 = DIRECTION ( 'NONE',  ( 0.000000000000000000, 1.000000000000000000, 0.000000000000000000 ) ) ;
#200 = DIRECTION ( 'NONE',  ( -1.473443359409806292E-16, -0.000000000000000000, -1.000000000000000000 ) ) ;
#201 = CARTESIAN_POINT ( 'NONE',  ( -2.908575581395353105, 0.000000000000000000, -7.281250000000000000 ) ) ;
#202 = ORIENTED_EDGE ( 'NONE', *, *, #297, .F. ) ;
#203 = ADVANCED_FACE ( 'NONE', ( #967 ), #177, .F. ) ;
#204 = EDGE_CURVE ( 'NONE', #629, #558, #471, .T. ) ;
#205 =( LENGTH_UNIT ( ) NAMED_UNIT ( * ) SI_UNIT ( .MILLI., .METRE. ) );
#206 = VERTEX_POINT ( 'NONE', #586 ) ;
#207 =( NAMED_UNIT ( * ) SI_UNIT ( $, .STERADIAN. ) SOLID_ANGLE_UNIT ( ) );
#208 = STYLED_ITEM ( 'NONE', ( #657 ), #416 ) ;
#209 = MECHANICAL_DESIGN_GEOMETRIC_PRESENTATION_REPRESENTATION (  '', ( #993 ), #834 ) ;
#210 = SURFACE_STYLE_FILL_AREA ( #923 ) ;
#211 =( LENGTH_UNIT ( ) NAMED_UNIT ( * ) SI_UNIT ( .MILLI., .METRE. ) );
#212 = ORIENTED_EDGE ( 'NONE', *, *, #982, .F. ) ;
#213 = DIRECTION ( 'NONE',  ( 0.000000000000000000, 1.000000000000000000, -0.000000000000000000 ) ) ;
#214 = ORIENTED_EDGE ( 'NONE', *, *, #564, .F. ) ;
#215 = DIRECTION ( 'NONE',  ( -0.000000000000000000, 0.000000000000000000, -1.000000000000000000 ) ) ;
#216 = FILL_AREA_STYLE_COLOUR ( '', #17 ) ;
#217 = ORIENTED_EDGE ( 'NONE', *, *, #869, .F. ) ;
#218 = AXIS2_PLACEMENT_3D ( 'NONE', #810, #737, #349 ) ;
#219 = ADVANCED_FACE ( 'NONE', ( #908 ), #181, .F. ) ;
#220 = AXIS2_PLACEMENT_3D ( 'NONE', #555, #146, #72 ) ;
#221 = AXIS2_PLACEMENT_3D ( 'NONE', #296, #396, #215 ) ;
#222 = PRESENTATION_LAYER_ASSIGNMENT (  '', '', ( #879 ) ) ;
#223 = MECHANICAL_DESIGN_GEOMETRIC_PRESENTATION_REPRESENTATION (  '', ( #446 ), #492 ) ;
#224 = CARTESIAN_POINT ( 'NONE',  ( -1.020000000000000018, -0.2602495300170902803, 1.318749999999998757 ) ) ;
#225 = ORIENTED_EDGE ( 'NONE', *, *, #975, .T. ) ;
#226 = DIRECTION ( 'NONE',  ( -0.000000000000000000, -0.000000000000000000, -1.000000000000000000 ) ) ;
#227 = CARTESIAN_POINT ( 'NONE',  ( 4.083330423284517366E-33, 0.000000000000000000, 1.018749999999998934 ) ) ;
#228 = VERTEX_POINT ( 'NONE', #827 ) ;
#229 = UNCERTAINTY_MEASURE_WITH_UNIT (LENGTH_MEASURE( 1.000000000000000082E-05 ), #370, 'distance_accuracy_value', 'NONE');
#230 =( LENGTH_UNIT ( ) NAMED_UNIT ( * ) SI_UNIT ( .MILLI., .METRE. ) );
#231 = ORIENTED_EDGE ( 'NONE', *, *, #523, .T. ) ;
#232 = AXIS2_PLACEMENT_3D ( 'NONE', #850, #533, #1000 ) ;
#233 = ADVANCED_BREP_SHAPE_REPRESENTATION ( 'camera_led', ( #416, #127 ), #548 ) ;
#234 = AXIS2_PLACEMENT_3D ( 'NONE', #490, #245, #816 ) ;
#235 = DIRECTION ( 'NONE',  ( -1.473443359409806292E-16, -0.000000000000000000, -1.000000000000000000 ) ) ;
#236 =( GEOMETRIC_REPRESENTATION_CONTEXT ( 3 ) GLOBAL_UNCERTAINTY_ASSIGNED_CONTEXT ( ( #62 ) ) GLOBAL_UNIT_ASSIGNED_CONTEXT ( ( #14, #606, #452 ) ) REPRESENTATION_CONTEXT ( 'NONE', 'WORKASPACE' ) );
#237 = PLANE ( 'NONE',  #848 ) ;
#238 = EDGE_LOOP ( 'NONE', ( #790, #387, #303, #225 ) ) ;
#239 = LINE ( 'NONE', #330, #276 ) ;
#240 = ORIENTED_EDGE ( 'NONE', *, *, #762, .F. ) ;
#241 = CARTESIAN_POINT ( 'NONE',  ( -1.520000000000000018, 0.2397504699829097474, 6.318749999999998757 ) ) ;
#242 = SURFACE_STYLE_FILL_AREA ( #176 ) ;
#243 = DIRECTION ( 'NONE',  ( -1.473443359409806292E-16, -0.000000000000000000, -1.000000000000000000 ) ) ;
#244 =( NAMED_UNIT ( * ) PLANE_ANGLE_UNIT ( ) SI_UNIT ( $, .RADIAN. ) );
#245 = DIRECTION ( 'NONE',  ( -1.473443359409806292E-16, -0.000000000000000000, -1.000000000000000000 ) ) ;
#246 = SURFACE_STYLE_USAGE ( .BOTH. , #956 ) ;
#247 = CARTESIAN_POINT ( 'NONE',  ( 0.04142441860464834980, 0.000000000000000000, 0.3187499999999987010 ) ) ;
#248 = LINE ( 'NONE', #885, #631 ) ;
#249 = ADVANCED_FACE ( 'NONE', ( #540 ), #543, .F. ) ;
#250 = SURFACE_SIDE_STYLE ('',( #670 ) ) ;
#251 = COLOUR_RGB ( '',0.9176470588235293713, 0.9058823529411764719, 1.000000000000000000 ) ;
#252 =( GEOMETRIC_REPRESENTATION_CONTEXT ( 3 ) GLOBAL_UNCERTAINTY_ASSIGNED_CONTEXT ( ( #317 ) ) GLOBAL_UNIT_ASSIGNED_CONTEXT ( ( #774, #699, #777 ) ) REPRESENTATION_CONTEXT ( 'NONE', 'WORKASPACE' ) );
#253 =( NAMED_UNIT ( * ) SI_UNIT ( $, .STERADIAN. ) SOLID_ANGLE_UNIT ( ) );
#254 = PRESENTATION_LAYER_ASSIGNMENT (  '', '', ( #54 ) ) ;
#255 = DIRECTION ( 'NONE',  ( 0.000000000000000000, 0.000000000000000000, 1.000000000000000000 ) ) ;
#256 = DIRECTION ( 'NONE',  ( -0.000000000000000000, -0.000000000000000000, -1.000000000000000000 ) ) ;
#257 =( GEOMETRIC_REPRESENTATION_CONTEXT ( 3 ) GLOBAL_UNCERTAINTY_ASSIGNED_CONTEXT ( ( #712 ) ) GLOBAL_UNIT_ASSIGNED_CONTEXT ( ( #60, #142, #792 ) ) REPRESENTATION_CONTEXT ( 'NONE', 'WORKASPACE' ) );
#258 = SURFACE_STYLE_USAGE ( .BOTH. , #250 ) ;
#259 = ADVANCED_FACE ( 'NONE', ( #129 ), #272, .F. ) ;
#260 = FILL_AREA_STYLE ('',( #962 ) ) ;
#261 = CARTESIAN_POINT ( 'NONE',  ( -2.908575581395353105, 0.000000000000000000, 1.318749999999999201 ) ) ;
#262 = CYLINDRICAL_SURFACE ( 'NONE', #633, 2.650000000000000355 ) ;
#263 = ORIENTED_EDGE ( 'NONE', *, *, #1038, .F. ) ;
#264 = CARTESIAN_POINT ( 'NONE',  ( 0.000000000000000000, 0.000000000000000000, 6.318749999999998757 ) ) ;
#265 = EDGE_CURVE ( 'NONE', #726, #228, #441, .T. ) ;
#266 =( NAMED_UNIT ( * ) PLANE_ANGLE_UNIT ( ) SI_UNIT ( $, .RADIAN. ) );
#267 = EDGE_CURVE ( 'NONE', #936, #726, #842, .T. ) ;
#268 = DIRECTION ( 'NONE',  ( 0.000000000000000000, -1.000000000000000000, 0.000000000000000000 ) ) ;
#269 =( NAMED_UNIT ( * ) PLANE_ANGLE_UNIT ( ) SI_UNIT ( $, .RADIAN. ) );
#270 = ORIENTED_EDGE ( 'NONE', *, *, #891, .T. ) ;
#271 = CIRCLE ( 'NONE', #374, 2.500000000000000444 ) ;
#272 = CYLINDRICAL_SURFACE ( 'NONE', #913, 2.200000000000000622 ) ;
#273 = VECTOR ( 'NONE', #280, 1000.000000000000000 ) ;
#274 = VERTEX_POINT ( 'NONE', #763 ) ;
#275 = CIRCLE ( 'NONE', #898, 2.200000000000001066 ) ;
#276 = VECTOR ( 'NONE', #567, 1000.000000000000000 ) ;
#277 = DIRECTION ( 'NONE',  ( -1.000000000000000000, 0.000000000000000000, 0.000000000000000000 ) ) ;
#278 = CARTESIAN_POINT ( 'NONE',  ( 1.520000000000000462, 0.2397504699829097474, 6.318749999999998757 ) ) ;
#279 = SHAPE_DEFINITION_REPRESENTATION ( #85, #233 ) ;
#280 = DIRECTION ( 'NONE',  ( -1.473443359409806292E-16, -0.000000000000000000, -1.000000000000000000 ) ) ;
#281 = VERTEX_POINT ( 'NONE', #29 ) ;
#282 = DIRECTION ( 'NONE',  ( -1.473443359409806292E-16, -0.000000000000000000, -1.000000000000000000 ) ) ;
#283 = VERTEX_POINT ( 'NONE', #360 ) ;
#284 = PLANE ( 'NONE',  #128 ) ;
#285 = EDGE_CURVE ( 'NONE', #385, #949, #605, .T. ) ;
#286 = EDGE_LOOP ( 'NONE', ( #863, #878, #395, #231 ) ) ;
#287 = VECTOR ( 'NONE', #393, 1000.000000000000000 ) ;
#288 = PRESENTATION_STYLE_ASSIGNMENT (( #41 ) ) ;
#289 = PRESENTATION_LAYER_ASSIGNMENT (  '', '', ( #208 ) ) ;
#290 = MECHANICAL_DESIGN_GEOMETRIC_PRESENTATION_REPRESENTATION (  '', ( #391 ), #664 ) ;
#291 = DIRECTION ( 'NONE',  ( -1.000000000000000000, 0.000000000000000000, 0.000000000000000000 ) ) ;
#292 = DIRECTION ( 'NONE',  ( 1.000000000000000000, -0.000000000000000000, -0.000000000000000000 ) ) ;
#293 = ORIENTED_EDGE ( 'NONE', *, *, #175, .T. ) ;
#294 =( NAMED_UNIT ( * ) SI_UNIT ( $, .STERADIAN. ) SOLID_ANGLE_UNIT ( ) );
#295 = LINE ( 'NONE', #836, #53 ) ;
#296 = CARTESIAN_POINT ( 'NONE',  ( -1.520000000000000018, 0.2397504699829097474, 6.318749999999998757 ) ) ;
#297 = EDGE_CURVE ( 'NONE', #43, #639, #996, .T. ) ;
#298 =( NAMED_UNIT ( * ) SI_UNIT ( $, .STERADIAN. ) SOLID_ANGLE_UNIT ( ) );
#299 = EDGE_LOOP ( 'NONE', ( #1035, #886 ) ) ;
#300 = APPLICATION_PROTOCOL_DEFINITION ( 'draft international standard', 'automotive_design', 1998, #411 ) ;
#301 = CYLINDRICAL_SURFACE ( 'NONE', #69, 2.950000000000000178 ) ;
#302 = FILL_AREA_STYLE ('',( #706 ) ) ;
#303 = ORIENTED_EDGE ( 'NONE', *, *, #907, .F. ) ;
#304 = DIRECTION ( 'NONE',  ( 0.000000000000000000, -1.000000000000000000, 0.000000000000000000 ) ) ;
#305 = PRODUCT_DEFINITION ( 'UNKNOWN', '', #534, #724 ) ;
#306 = AXIS2_PLACEMENT_3D ( 'NONE', #500, #823, #504 ) ;
#307 = AXIS2_PLACEMENT_3D ( 'NONE', #496, #733, #486 ) ;
#308 = UNCERTAINTY_MEASURE_WITH_UNIT (LENGTH_MEASURE( 1.000000000000000082E-05 ), #730, 'distance_accuracy_value', 'NONE');
#309 = DIRECTION ( 'NONE',  ( -1.473443359409806292E-16, -0.000000000000000000, -1.000000000000000000 ) ) ;
#310 = EDGE_LOOP ( 'NONE', ( #955, #568, #853, #1012 ) ) ;
#311 = EDGE_CURVE ( 'NONE', #843, #482, #38, .T. ) ;
#312 = ADVANCED_FACE ( 'NONE', ( #313 ), #465, .F. ) ;
#313 = FACE_OUTER_BOUND ( 'NONE', #123, .T. ) ;
#314 = LINE ( 'NONE', #476, #358 ) ;
#315 = VERTEX_POINT ( 'NONE', #622 ) ;
#316 = ORIENTED_EDGE ( 'NONE', *, *, #421, .F. ) ;
#317 = UNCERTAINTY_MEASURE_WITH_UNIT (LENGTH_MEASURE( 1.000000000000000082E-05 ), #774, 'distance_accuracy_value', 'NONE');
#318 = LINE ( 'NONE', #870, #560 ) ;
#319 = EDGE_CURVE ( 'NONE', #206, #693, #318, .T. ) ;
#320 = ORIENTED_EDGE ( 'NONE', *, *, #907, .T. ) ;
#321 = AXIS2_PLACEMENT_3D ( 'NONE', #591, #418, #21 ) ;
#322 = ORIENTED_EDGE ( 'NONE', *, *, #44, .F. ) ;
#323 = VECTOR ( 'NONE', #736, 1000.000000000000000 ) ;
#324 = AXIS2_PLACEMENT_3D ( 'NONE', #12, #819, #255 ) ;
#325 =( GEOMETRIC_REPRESENTATION_CONTEXT ( 3 ) GLOBAL_UNCERTAINTY_ASSIGNED_CONTEXT ( ( #1008 ) ) GLOBAL_UNIT_ASSIGNED_CONTEXT ( ( #981, #266, #498 ) ) REPRESENTATION_CONTEXT ( 'NONE', 'WORKASPACE' ) );
#326 = CYLINDRICAL_SURFACE ( 'NONE', #363, 2.500000000000000444 ) ;
#327 = COLOUR_RGB ( '',0.9176470588235293713, 0.9058823529411764719, 1.000000000000000000 ) ;
#328 = PRESENTATION_STYLE_ASSIGNMENT (( #246 ) ) ;
#329 = DIRECTION ( 'NONE',  ( 1.000000000000000000, -0.000000000000000000, -0.000000000000000000 ) ) ;
#330 = CARTESIAN_POINT ( 'NONE',  ( -1.520000000000000018, 0.2397504699829097474, 1.318749999999998757 ) ) ;
#331 = LINE ( 'NONE', #961, #489 ) ;
#332 = CARTESIAN_POINT ( 'NONE',  ( 1.520000000000000462, 0.2397504699829097474, 1.318749999999998757 ) ) ;
#333 = LINE ( 'NONE', #414, #51 ) ;
#334 = EDGE_CURVE ( 'NONE', #804, #775, #715, .T. ) ;
#335 = SURFACE_SIDE_STYLE ('',( #738 ) ) ;
#336 = FILL_AREA_STYLE_COLOUR ( '', #443 ) ;
#337 = DIRECTION ( 'NONE',  ( -1.473443359409806292E-16, -0.000000000000000000, -1.000000000000000000 ) ) ;
#338 = DIRECTION ( 'NONE',  ( -0.000000000000000000, 0.000000000000000000, 1.000000000000000000 ) ) ;
#339 = DIRECTION ( 'NONE',  ( -1.000000000000000000, 0.000000000000000000, 1.517883041479705715E-16 ) ) ;
#340 = FILL_AREA_STYLE_COLOUR ( '', #36 ) ;
#341 =( NAMED_UNIT ( * ) SI_UNIT ( $, .STERADIAN. ) SOLID_ANGLE_UNIT ( ) );
#342 = CARTESIAN_POINT ( 'NONE',  ( 1.020000000000000462, 0.2397504699829097474, 1.318749999999998535 ) ) ;
#343 =( GEOMETRIC_REPRESENTATION_CONTEXT ( 3 ) GLOBAL_UNCERTAINTY_ASSIGNED_CONTEXT ( ( #76 ) ) GLOBAL_UNIT_ASSIGNED_CONTEXT ( ( #24, #986, #841 ) ) REPRESENTATION_CONTEXT ( 'NONE', 'WORKASPACE' ) );
#344 = DIRECTION ( 'NONE',  ( -1.000000000000000000, 0.000000000000000000, 1.478457507934778146E-16 ) ) ;
#345 = AXIS2_PLACEMENT_3D ( 'NONE', #447, #603, #451 ) ;
#346 = VERTEX_POINT ( 'NONE', #634 ) ;
#347 = ADVANCED_FACE ( 'NONE', ( #386 ), #157, .F. ) ;
#348 =( NAMED_UNIT ( * ) SI_UNIT ( $, .STERADIAN. ) SOLID_ANGLE_UNIT ( ) );
#349 = DIRECTION ( 'NONE',  ( 0.000000000000000000, 0.000000000000000000, 1.000000000000000000 ) ) ;
#350 = CARTESIAN_POINT ( 'NONE',  ( -2.608575581395352394, 0.000000000000000000, 1.018749999999999156 ) ) ;
#351 = ORIENTED_EDGE ( 'NONE', *, *, #958, .F. ) ;
#352 =( LENGTH_UNIT ( ) NAMED_UNIT ( * ) SI_UNIT ( .MILLI., .METRE. ) );
#353 = DIRECTION ( 'NONE',  ( -1.000000000000000000, 0.000000000000000000, 0.000000000000000000 ) ) ;
#354 = CYLINDRICAL_SURFACE ( 'NONE', #767, 2.950000000000000178 ) ;
#355 = FACE_OUTER_BOUND ( 'NONE', #614, .T. ) ;
#356 = CIRCLE ( 'NONE', #626, 2.200000000000001066 ) ;
#357 = CARTESIAN_POINT ( 'NONE',  ( 0.04142441860464723263, 0.000000000000000000, -7.281250000000000888 ) ) ;
#358 = VECTOR ( 'NONE', #77, 1000.000000000000000 ) ;
#359 = VECTOR ( 'NONE', #866, 1000.000000000000000 ) ;
#360 = CARTESIAN_POINT ( 'NONE',  ( -1.520000000000000018, 0.2397504699829097474, 6.318749999999998757 ) ) ;
#361 = AXIS2_PLACEMENT_3D ( 'NONE', #63, #1029, #141 ) ;
#362 = ORIENTED_EDGE ( 'NONE', *, *, #975, .F. ) ;
#363 = AXIS2_PLACEMENT_3D ( 'NONE', #80, #728, #1037 ) ;
#364 = STYLED_ITEM ( 'NONE', ( #820 ), #817 ) ;
#365 = SURFACE_SIDE_STYLE ('',( #27 ) ) ;
#366 = SURFACE_STYLE_FILL_AREA ( #195 ) ;
#367 = SURFACE_STYLE_FILL_AREA ( #520 ) ;
#368 = ORIENTED_EDGE ( 'NONE', *, *, #1027, .F. ) ;
#369 = EDGE_CURVE ( 'NONE', #315, #802, #719, .T. ) ;
#370 =( LENGTH_UNIT ( ) NAMED_UNIT ( * ) SI_UNIT ( .MILLI., .METRE. ) );
#371 = ORIENTED_EDGE ( 'NONE', *, *, #904, .F. ) ;
#372 = DIRECTION ( 'NONE',  ( 0.000000000000000000, -1.000000000000000000, 0.000000000000000000 ) ) ;
#373 =( NAMED_UNIT ( * ) PLANE_ANGLE_UNIT ( ) SI_UNIT ( $, .RADIAN. ) );
#374 = AXIS2_PLACEMENT_3D ( 'NONE', #112, #268, #910 ) ;
#375 = ORIENTED_EDGE ( 'NONE', *, *, #369, .F. ) ;
#376 = CIRCLE ( 'NONE', #1006, 2.200000000000000178 ) ;
#377 = SURFACE_STYLE_USAGE ( .BOTH. , #365 ) ;
#378 = CIRCLE ( 'NONE', #234, 2.650000000000000799 ) ;
#379 = PRODUCT_CONTEXT ( 'NONE', #411, 'mechanical' ) ;
#380 = FILL_AREA_STYLE_COLOUR ( '', #941 ) ;
#381 = ORIENTED_EDGE ( 'NONE', *, *, #64, .T. ) ;
#382 = PRESENTATION_STYLE_ASSIGNMENT (( #70 ) ) ;
#383 = EDGE_CURVE ( 'NONE', #283, #206, #947, .T. ) ;
#384 = LINE ( 'NONE', #710, #926 ) ;
#385 = VERTEX_POINT ( 'NONE', #224 ) ;
#386 = FACE_OUTER_BOUND ( 'NONE', #644, .T. ) ;
#387 = ORIENTED_EDGE ( 'NONE', *, *, #722, .F. ) ;
#388 = ADVANCED_FACE ( 'NONE', ( #883 ), #301, .T. ) ;
#389 = AXIS2_PLACEMENT_3D ( 'NONE', #413, #741, #88 ) ;
#390 = CIRCLE ( 'NONE', #732, 2.200000000000000622 ) ;
#391 = STYLED_ITEM ( 'NONE', ( #288 ), #632 ) ;
#392 =( NAMED_UNIT ( * ) SI_UNIT ( $, .STERADIAN. ) SOLID_ANGLE_UNIT ( ) );
#393 = DIRECTION ( 'NONE',  ( -1.000000000000000000, 0.000000000000000000, 0.000000000000000000 ) ) ;
#394 = ORIENTED_EDGE ( 'NONE', *, *, #334, .F. ) ;
#395 = ORIENTED_EDGE ( 'NONE', *, *, #891, .F. ) ;
#396 = DIRECTION ( 'NONE',  ( 1.000000000000000000, 0.000000000000000000, -0.000000000000000000 ) ) ;
#397 = DIRECTION ( 'NONE',  ( 0.000000000000000000, 0.000000000000000000, 1.000000000000000000 ) ) ;
#398 = EDGE_LOOP ( 'NONE', ( #920, #472 ) ) ;
#399 = UNCERTAINTY_MEASURE_WITH_UNIT (LENGTH_MEASURE( 1.000000000000000082E-05 ), #230, 'distance_accuracy_value', 'NONE');
#400 = LINE ( 'NONE', #653, #192 ) ;
#401 = FILL_AREA_STYLE_COLOUR ( '', #487 ) ;
#402 = ORIENTED_EDGE ( 'NONE', *, *, #787, .T. ) ;
#403 = PRODUCT ( 'camera_led', 'camera_led', '', ( #379 ) ) ;
#404 = FACE_OUTER_BOUND ( 'NONE', #636, .T. ) ;
#405 = DIRECTION ( 'NONE',  ( -1.000000000000000000, 0.000000000000000000, 0.000000000000000000 ) ) ;
#406 = EDGE_CURVE ( 'NONE', #477, #936, #275, .T. ) ;
#407 = STYLED_ITEM ( 'NONE', ( #668 ), #709 ) ;
#408 = CYLINDRICAL_SURFACE ( 'NONE', #751, 2.650000000000000355 ) ;
#409 = CARTESIAN_POINT ( 'NONE',  ( 0.04142441860464839837, 0.000000000000000000, 0.6187499999999994671 ) ) ;
#410 = FILL_AREA_STYLE_COLOUR ( '', #815 ) ;
#411 = APPLICATION_CONTEXT ( 'automotive_design' ) ;
#412 = DIRECTION ( 'NONE',  ( 1.473443359409806292E-16, 0.000000000000000000, 1.000000000000000000 ) ) ;
#413 = CARTESIAN_POINT ( 'NONE',  ( 0.04142441860464849551, 0.000000000000000000, 1.318749999999998757 ) ) ;
#414 = CARTESIAN_POINT ( 'NONE',  ( 1.520000000000000462, 0.2397504699829097474, 1.318749999999998757 ) ) ;
#415 = PLANE ( 'NONE',  #700 ) ;
#416 = BREP_WITH_VOIDS ( 'NONE', #713, ( #491 ) );
#417 = SURFACE_STYLE_USAGE ( .BOTH. , #100 ) ;
#418 = DIRECTION ( 'NONE',  ( -1.000000000000000000, 0.000000000000000000, 0.000000000000000000 ) ) ;
#419 = EDGE_CURVE ( 'NONE', #61, #562, #378, .T. ) ;
#420 = ORIENTED_EDGE ( 'NONE', *, *, #454, .F. ) ;
#421 = EDGE_CURVE ( 'NONE', #274, #721, #169, .T. ) ;
#422 = FILL_AREA_STYLE_COLOUR ( '', #753 ) ;
#423 = FACE_OUTER_BOUND ( 'NONE', #75, .T. ) ;
#424 = MECHANICAL_DESIGN_GEOMETRIC_PRESENTATION_REPRESENTATION (  '', ( #895 ), #559 ) ;
#425 = DIRECTION ( 'NONE',  ( -1.000000000000000000, -1.224646799147353207E-16, 0.000000000000000000 ) ) ;
#426 = DIRECTION ( 'NONE',  ( -1.473443359409806292E-16, -0.000000000000000000, -1.000000000000000000 ) ) ;
#427 = ORIENTED_EDGE ( 'NONE', *, *, #383, .T. ) ;
#428 = PRESENTATION_STYLE_ASSIGNMENT (( #912 ) ) ;
#429 = DIRECTION ( 'NONE',  ( -0.000000000000000000, 1.000000000000000000, -0.000000000000000000 ) ) ;
#430 = DIRECTION ( 'NONE',  ( -1.473443359409806292E-16, -0.000000000000000000, -1.000000000000000000 ) ) ;
#431 = SURFACE_SIDE_STYLE ('',( #367 ) ) ;
#432 = EDGE_LOOP ( 'NONE', ( #316, #445 ) ) ;
#433 = DIRECTION ( 'NONE',  ( -0.000000000000000000, -0.000000000000000000, -1.000000000000000000 ) ) ;
#434 = CARTESIAN_POINT ( 'NONE',  ( 2.241424418604648139, 2.694222958124177500E-16, -7.281250000000000888 ) ) ;
#435 = DIRECTION ( 'NONE',  ( -1.473443359409806292E-16, 0.000000000000000000, -1.000000000000000000 ) ) ;
#436 = EDGE_LOOP ( 'NONE', ( #263, #293, #674, #984 ) ) ;
#437 = DIRECTION ( 'NONE',  ( 0.000000000000000000, -0.000000000000000000, -1.000000000000000000 ) ) ;
#438 = DIRECTION ( 'NONE',  ( -1.000000000000000000, 0.000000000000000000, 1.470104640658310754E-16 ) ) ;
#439 = EDGE_CURVE ( 'NONE', #759, #528, #400, .T. ) ;
#440 = MECHANICAL_DESIGN_GEOMETRIC_PRESENTATION_REPRESENTATION (  '', ( #771 ), #718 ) ;
#441 = CIRCLE ( 'NONE', #877, 2.200000000000000178 ) ;
#442 = FILL_AREA_STYLE_COLOUR ( '', #646 ) ;
#443 = COLOUR_RGB ( '',0.9176470588235293713, 0.9058823529411764719, 1.000000000000000000 ) ;
#444 = SPHERICAL_SURFACE ( 'NONE', #833, 2.500000000000000000 ) ;
#445 = ORIENTED_EDGE ( 'NONE', *, *, #64, .F. ) ;
#446 = STYLED_ITEM ( 'NONE', ( #689 ), #662 ) ;
#447 = CARTESIAN_POINT ( 'NONE',  ( -5.826137407028850649E-32, 0.000000000000000000, 0.3187499999999987566 ) ) ;
#448 = CARTESIAN_POINT ( 'NONE',  ( 1.520000000000000462, -0.2602495300170902803, 6.318749999999998757 ) ) ;
#449 = EDGE_LOOP ( 'NONE', ( #460, #640, #839, #765 ) ) ;
#450 = ADVANCED_FACE ( 'NONE', ( #423 ), #326, .T. ) ;
#451 = DIRECTION ( 'NONE',  ( 1.000000000000000000, 0.000000000000000000, -1.473443359409806292E-16 ) ) ;
#452 =( NAMED_UNIT ( * ) SI_UNIT ( $, .STERADIAN. ) SOLID_ANGLE_UNIT ( ) );
#453 = ORIENTED_EDGE ( 'NONE', *, *, #74, .F. ) ;
#454 = EDGE_CURVE ( 'NONE', #639, #629, #943, .T. ) ;
#455 = EDGE_CURVE ( 'NONE', #283, #148, #86, .T. ) ;
#456 =( NAMED_UNIT ( * ) PLANE_ANGLE_UNIT ( ) SI_UNIT ( $, .RADIAN. ) );
#457 = UNCERTAINTY_MEASURE_WITH_UNIT (LENGTH_MEASURE( 1.000000000000000082E-05 ), #887, 'distance_accuracy_value', 'NONE');
#458 = DIRECTION ( 'NONE',  ( -1.473443359409806292E-16, -0.000000000000000000, -1.000000000000000000 ) ) ;
#459 = LINE ( 'NONE', #948, #287 ) ;
#460 = ORIENTED_EDGE ( 'NONE', *, *, #507, .T. ) ;
#461 = AXIS2_PLACEMENT_3D ( 'NONE', #937, #235, #942 ) ;
#462 = MECHANICAL_DESIGN_GEOMETRIC_PRESENTATION_REPRESENTATION (  '', ( #407 ), #648 ) ;
#463 = ORIENTED_EDGE ( 'NONE', *, *, #750, .F. ) ;
#464 = UNCERTAINTY_MEASURE_WITH_UNIT (LENGTH_MEASURE( 1.000000000000000082E-05 ), #194, 'distance_accuracy_value', 'NONE');
#465 = PLANE ( 'NONE',  #221 ) ;
#466 = ORIENTED_EDGE ( 'NONE', *, *, #921, .F. ) ;
#467 = CARTESIAN_POINT ( 'NONE',  ( 1.520000000000000462, 0.2397504699829097474, 6.318749999999998757 ) ) ;
#468 = EDGE_CURVE ( 'NONE', #482, #479, #331, .T. ) ;
#469 = ORIENTED_EDGE ( 'NONE', *, *, #419, .F. ) ;
#470 = COLOUR_RGB ( '',0.9176470588235293713, 0.9058823529411764719, 1.000000000000000000 ) ;
#471 = CIRCLE ( 'NONE', #611, 2.500000000000000000 ) ;
#472 = ORIENTED_EDGE ( 'NONE', *, *, #175, .F. ) ;
#473 = AXIS2_PLACEMENT_3D ( 'NONE', #692, #435, #39 ) ;
#474 = UNCERTAINTY_MEASURE_WITH_UNIT (LENGTH_MEASURE( 1.000000000000000082E-05 ), #352, 'distance_accuracy_value', 'NONE');
#475 = PRESENTATION_STYLE_ASSIGNMENT (( #545 ) ) ;
#476 = CARTESIAN_POINT ( 'NONE',  ( 1.020000000000000462, 0.2397504699829097474, 6.318749999999998757 ) ) ;
#477 = VERTEX_POINT ( 'NONE', #121 ) ;
#478 = ORIENTED_EDGE ( 'NONE', *, *, #499, .T. ) ;
#479 = VERTEX_POINT ( 'NONE', #278 ) ;
#480 = DIRECTION ( 'NONE',  ( -1.000000000000000000, 0.000000000000000000, 1.517883041479705715E-16 ) ) ;
#481 = EDGE_CURVE ( 'NONE', #939, #950, #185, .T. ) ;
#482 = VERTEX_POINT ( 'NONE', #604 ) ;
#483 =( LENGTH_UNIT ( ) NAMED_UNIT ( * ) SI_UNIT ( .MILLI., .METRE. ) );
#484 = DIRECTION ( 'NONE',  ( -1.000000000000000000, -1.224646799147353207E-16, 0.000000000000000000 ) ) ;
#485 = CARTESIAN_POINT ( 'NONE',  ( 2.695293747232805348, 1.288207120988986931, 0.3187499999999983680 ) ) ;
#486 = DIRECTION ( 'NONE',  ( -0.000000000000000000, 0.000000000000000000, -1.000000000000000000 ) ) ;
#487 = COLOUR_RGB ( '',0.9176470588235293713, 0.9058823529411764719, 1.000000000000000000 ) ;
#488 = STYLED_ITEM ( 'NONE', ( #382 ), #388 ) ;
#489 = VECTOR ( 'NONE', #429, 1000.000000000000000 ) ;
#490 = CARTESIAN_POINT ( 'NONE',  ( 0.04142441860464839837, 0.000000000000000000, 0.6187499999999994671 ) ) ;
#491 = ORIENTED_CLOSED_SHELL ( 'NONE', *, #990, .F. );
#492 =( GEOMETRIC_REPRESENTATION_CONTEXT ( 3 ) GLOBAL_UNCERTAINTY_ASSIGNED_CONTEXT ( ( #786 ) ) GLOBAL_UNIT_ASSIGNED_CONTEXT ( ( #115, #621, #207 ) ) REPRESENTATION_CONTEXT ( 'NONE', 'WORKASPACE' ) );
#493 = SURFACE_STYLE_FILL_AREA ( #260 ) ;
#494 = CARTESIAN_POINT ( 'NONE',  ( -1.020000000000000018, -0.2602495300170902803, 6.318749999999998757 ) ) ;
#495 = CARTESIAN_POINT ( 'NONE',  ( 1.520000000000000462, -0.2602495300170902803, 1.318749999999998757 ) ) ;
#496 = CARTESIAN_POINT ( 'NONE',  ( 1.020000000000000462, 0.2397504699829097474, 6.318749999999998757 ) ) ;
#497 = EDGE_CURVE ( 'NONE', #315, #160, #717, .T. ) ;
#498 =( NAMED_UNIT ( * ) SI_UNIT ( $, .STERADIAN. ) SOLID_ANGLE_UNIT ( ) );
#499 = EDGE_CURVE ( 'NONE', #228, #274, #390, .T. ) ;
#500 = CARTESIAN_POINT ( 'NONE',  ( 0.000000000000000000, 0.000000000000000000, 6.318749999999998757 ) ) ;
#501 = DIRECTION ( 'NONE',  ( -0.000000000000000000, -0.000000000000000000, -1.000000000000000000 ) ) ;
#502 = DIRECTION ( 'NONE',  ( -1.473443359409806292E-16, -0.000000000000000000, -1.000000000000000000 ) ) ;
#503 = CARTESIAN_POINT ( 'NONE',  ( -2.608575581395352838, 0.000000000000000000, -7.281250000000000888 ) ) ;
#504 = DIRECTION ( 'NONE',  ( -1.000000000000000000, 0.000000000000000000, 0.000000000000000000 ) ) ;
#505 = DIRECTION ( 'NONE',  ( -0.000000000000000000, -0.000000000000000000, -1.000000000000000000 ) ) ;
#506 = EDGE_LOOP ( 'NONE', ( #214, #351, #119, #191 ) ) ;
#507 = EDGE_CURVE ( 'NONE', #950, #707, #769, .T. ) ;
#508 = LINE ( 'NONE', #903, #91 ) ;
#509 = PLANE ( 'NONE',  #953 ) ;
#510 = AXIS2_PLACEMENT_3D ( 'NONE', #227, #638, #876 ) ;
#511 = AXIS2_PLACEMENT_3D ( 'NONE', #247, #97, #106 ) ;
#512 = MECHANICAL_DESIGN_GEOMETRIC_PRESENTATION_REPRESENTATION (  '', ( #752 ), #343 ) ;
#513 = LINE ( 'NONE', #16, #861 ) ;
#514 = STYLED_ITEM ( 'NONE', ( #592 ), #831 ) ;
#515 =( NAMED_UNIT ( * ) SI_UNIT ( $, .STERADIAN. ) SOLID_ANGLE_UNIT ( ) );
#516 = ORIENTED_EDGE ( 'NONE', *, *, #468, .T. ) ;
#517 = CARTESIAN_POINT ( 'NONE',  ( 2.012481463816561251E-14, 0.000000000000000000, -6.960699471770337432 ) ) ;
#518 = DIRECTION ( 'NONE',  ( 1.000000000000000000, 0.000000000000000000, 0.000000000000000000 ) ) ;
#519 = CARTESIAN_POINT ( 'NONE',  ( 0.04142441860464759346, 0.000000000000000000, -4.781250000000000888 ) ) ;
#520 = FILL_AREA_STYLE ('',( #764 ) ) ;
#521 = ORIENTED_EDGE ( 'NONE', *, *, #44, .T. ) ;
#522 = CARTESIAN_POINT ( 'NONE',  ( -5.174826807012193794E-32, 0.000000000000000000, 0.6187499999999988010 ) ) ;
#523 = EDGE_CURVE ( 'NONE', #346, #949, #600, .T. ) ;
#524 = DIRECTION ( 'NONE',  ( 0.000000000000000000, -1.000000000000000000, 0.000000000000000000 ) ) ;
#525 = LINE ( 'NONE', #671, #783 ) ;
#526 = CARTESIAN_POINT ( 'NONE',  ( -1.020000000000000018, 0.2397504699829097474, 1.318749999999998757 ) ) ;
#527 = DIRECTION ( 'NONE',  ( -1.473443359409806292E-16, -0.000000000000000000, -1.000000000000000000 ) ) ;
#528 = VERTEX_POINT ( 'NONE', #845 ) ;
#529 = CARTESIAN_POINT ( 'NONE',  ( 2.541424418604647517, 3.061616997868383141E-16, -4.781250000000000888 ) ) ;
#530 = AXIS2_PLACEMENT_3D ( 'NONE', #655, #163, #651 ) ;
#531 = CIRCLE ( 'NONE', #389, 2.950000000000000622 ) ;
#532 = PRESENTATION_LAYER_ASSIGNMENT (  '', '', ( #698 ) ) ;
#533 = DIRECTION ( 'NONE',  ( -1.473443359409806292E-16, -0.000000000000000000, -1.000000000000000000 ) ) ;
#534 = PRODUCT_DEFINITION_FORMATION_WITH_SPECIFIED_SOURCE ( 'ANY', '', #403, .NOT_KNOWN. ) ;
#535 = MECHANICAL_DESIGN_GEOMETRIC_PRESENTATION_REPRESENTATION (  '', ( #879 ), #325 ) ;
#536 = SURFACE_STYLE_FILL_AREA ( #838 ) ;
#537 = EDGE_LOOP ( 'NONE', ( #856, #729 ) ) ;
#538 = FACE_BOUND ( 'NONE', #299, .T. ) ;
#539 = ADVANCED_FACE ( 'NONE', ( #922 ), #509, .T. ) ;
#540 = FACE_OUTER_BOUND ( 'NONE', #1004, .T. ) ;
#541 = DIRECTION ( 'NONE',  ( 0.000000000000000000, 1.000000000000000000, -0.000000000000000000 ) ) ;
#542 = EDGE_LOOP ( 'NONE', ( #779, #553, #73, #747 ) ) ;
#543 = CYLINDRICAL_SURFACE ( 'NONE', #232, 2.200000000000000622 ) ;
#544 = ORIENTED_EDGE ( 'NONE', *, *, #497, .F. ) ;
#545 = SURFACE_STYLE_USAGE ( .BOTH. , #1017 ) ;
#546 = AXIS2_PLACEMENT_3D ( 'NONE', #635, #213, #867 ) ;
#547 = ORIENTED_EDGE ( 'NONE', *, *, #267, .T. ) ;
#548 =( GEOMETRIC_REPRESENTATION_CONTEXT ( 3 ) GLOBAL_UNCERTAINTY_ASSIGNED_CONTEXT ( ( #474 ) ) GLOBAL_UNIT_ASSIGNED_CONTEXT ( ( #352, #590, #757 ) ) REPRESENTATION_CONTEXT ( 'NONE', 'WORKASPACE' ) );
#549 = MECHANICAL_DESIGN_GEOMETRIC_PRESENTATION_REPRESENTATION (  '', ( #698 ), #189 ) ;
#550 = PRESENTATION_LAYER_ASSIGNMENT (  '', '', ( #752 ) ) ;
#551 = DIRECTION ( 'NONE',  ( -1.473443359409806292E-16, -0.000000000000000000, -1.000000000000000000 ) ) ;
#552 = FILL_AREA_STYLE_COLOUR ( '', #108 ) ;
#553 = ORIENTED_EDGE ( 'NONE', *, *, #762, .T. ) ;
#554 = ADVANCED_FACE ( 'NONE', ( #584 ), #84, .F. ) ;
#555 = CARTESIAN_POINT ( 'NONE',  ( 0.04142441860464839837, 0.000000000000000000, 0.6187499999999994671 ) ) ;
#556 = ORIENTED_EDGE ( 'NONE', *, *, #497, .T. ) ;
#557 =( NAMED_UNIT ( * ) PLANE_ANGLE_UNIT ( ) SI_UNIT ( $, .RADIAN. ) );
#558 = VERTEX_POINT ( 'NONE', #899 ) ;
#559 =( GEOMETRIC_REPRESENTATION_CONTEXT ( 3 ) GLOBAL_UNCERTAINTY_ASSIGNED_CONTEXT ( ( #874 ) ) GLOBAL_UNIT_ASSIGNED_CONTEXT ( ( #1001, #373, #515 ) ) REPRESENTATION_CONTEXT ( 'NONE', 'WORKASPACE' ) );
#560 = VECTOR ( 'NONE', #226, 1000.000000000000000 ) ;
#561 = VECTOR ( 'NONE', #569, 1000.000000000000000 ) ;
#562 = VERTEX_POINT ( 'NONE', #104 ) ;
#563 =( NAMED_UNIT ( * ) SI_UNIT ( $, .STERADIAN. ) SOLID_ANGLE_UNIT ( ) );
#564 = EDGE_CURVE ( 'NONE', #804, #61, #508, .T. ) ;
#565 = LINE ( 'NONE', #650, #811 ) ;
#566 = ORIENTED_EDGE ( 'NONE', *, *, #116, .T. ) ;
#567 = DIRECTION ( 'NONE',  ( 0.000000000000000000, -1.000000000000000000, 0.000000000000000000 ) ) ;
#568 = ORIENTED_EDGE ( 'NONE', *, *, #523, .F. ) ;
#569 = DIRECTION ( 'NONE',  ( -0.000000000000000000, -0.000000000000000000, -1.000000000000000000 ) ) ;
#570 = DIRECTION ( 'NONE',  ( -1.000000000000000000, 0.000000000000000000, -0.000000000000000000 ) ) ;
#571 = CARTESIAN_POINT ( 'NONE',  ( 0.04142441860464755876, 0.000000000000000000, -4.781250000000000888 ) ) ;
#572 = FILL_AREA_STYLE ('',( #340 ) ) ;
#573 =( NAMED_UNIT ( * ) SI_UNIT ( $, .STERADIAN. ) SOLID_ANGLE_UNIT ( ) );
#574 = DIRECTION ( 'NONE',  ( -1.000000000000000000, 0.000000000000000000, 2.940209281316622002E-16 ) ) ;
#575 = CARTESIAN_POINT ( 'NONE',  ( 0.04142441860464759346, 0.000000000000000000, -4.781250000000000888 ) ) ;
#576 = APPLICATION_CONTEXT ( 'automotive_design' ) ;
#577 = VECTOR ( 'NONE', #654, 1000.000000000000000 ) ;
#578 = PRESENTATION_LAYER_ASSIGNMENT (  '', '', ( #391 ) ) ;
#579 = PRESENTATION_STYLE_ASSIGNMENT (( #258 ) ) ;
#580 = COLOUR_RGB ( '',0.9176470588235293713, 0.9058823529411764719, 1.000000000000000000 ) ;
#581 = CARTESIAN_POINT ( 'NONE',  ( 0.04142441860464845388, 0.000000000000000000, 1.018749999999998934 ) ) ;
#582 = CARTESIAN_POINT ( 'NONE',  ( 0.04142441860464755876, 0.000000000000000000, -4.781250000000000888 ) ) ;
#583 = CARTESIAN_POINT ( 'NONE',  ( 2.241424418604647695, 2.694222958124177006E-16, -4.781250000000000888 ) ) ;
#584 = FACE_OUTER_BOUND ( 'NONE', #238, .T. ) ;
#585 = DIRECTION ( 'NONE',  ( -1.000000000000000000, 0.000000000000000000, 1.636531581110194916E-16 ) ) ;
#586 = CARTESIAN_POINT ( 'NONE',  ( -1.520000000000000018, -0.2602495300170902803, 6.318749999999998757 ) ) ;
#587 = CARTESIAN_POINT ( 'NONE',  ( 0.04142441860464723263, 0.000000000000000000, -7.281250000000000888 ) ) ;
#588 = VERTEX_POINT ( 'NONE', #111 ) ;
#589 = SURFACE_STYLE_USAGE ( .BOTH. , #973 ) ;
#590 =( NAMED_UNIT ( * ) PLANE_ANGLE_UNIT ( ) SI_UNIT ( $, .RADIAN. ) );
#591 = CARTESIAN_POINT ( 'NONE',  ( -1.020000000000000018, 0.2397504699829097474, 6.318749999999998757 ) ) ;
#592 = PRESENTATION_STYLE_ASSIGNMENT (( #686 ) ) ;
#593 = ORIENTED_EDGE ( 'NONE', *, *, #55, .F. ) ;
#594 = FACE_OUTER_BOUND ( 'NONE', #998, .T. ) ;
#595 = CARTESIAN_POINT ( 'NONE',  ( 0.04142441860464849551, 0.000000000000000000, 1.318749999999998757 ) ) ;
#596 = STYLED_ITEM ( 'NONE', ( #475 ), #347 ) ;
#597 = AXIS2_PLACEMENT_3D ( 'NONE', #649, #807, #405 ) ;
#598 = EDGE_LOOP ( 'NONE', ( #989, #469 ) ) ;
#599 = ADVANCED_FACE ( 'NONE', ( #404 ), #415, .F. ) ;
#600 = LINE ( 'NONE', #37, #630 ) ;
#601 = CARTESIAN_POINT ( 'NONE',  ( -2.458575581395352927, 0.000000000000000000, -7.281250000000000888 ) ) ;
#602 = ORIENTED_EDGE ( 'NONE', *, *, #499, .F. ) ;
#603 = DIRECTION ( 'NONE',  ( 1.473443359409806292E-16, 0.000000000000000000, 1.000000000000000000 ) ) ;
#604 = CARTESIAN_POINT ( 'NONE',  ( 1.520000000000000462, -0.2602495300170902803, 6.318749999999998757 ) ) ;
#605 = LINE ( 'NONE', #526, #89 ) ;
#606 =( NAMED_UNIT ( * ) PLANE_ANGLE_UNIT ( ) SI_UNIT ( $, .RADIAN. ) );
#607 = ORIENTED_EDGE ( 'NONE', *, *, #419, .T. ) ;
#608 = ADVANCED_FACE ( 'NONE', ( #99 ), #94, .T. ) ;
#609 = ADVANCED_FACE ( 'NONE', ( #184, #594 ), #5, .F. ) ;
#610 = VECTOR ( 'NONE', #938, 1000.000000000000000 ) ;
#611 = AXIS2_PLACEMENT_3D ( 'NONE', #582, #901, #425 ) ;
#612 = SURFACE_STYLE_FILL_AREA ( #770 ) ;
#613 = MECHANICAL_DESIGN_GEOMETRIC_PRESENTATION_REPRESENTATION (  '', ( #54 ), #3 ) ;
#614 = EDGE_LOOP ( 'NONE', ( #82, #362, #217, #58 ) ) ;
#615 = COLOUR_RGB ( '',0.9176470588235293713, 0.9058823529411764719, 1.000000000000000000 ) ;
#616 = DIRECTION ( 'NONE',  ( -1.473443359409806292E-16, -0.000000000000000000, -1.000000000000000000 ) ) ;
#617 = UNCERTAINTY_MEASURE_WITH_UNIT (LENGTH_MEASURE( 1.000000000000000082E-05 ), #748, 'distance_accuracy_value', 'NONE');
#618 = FILL_AREA_STYLE_COLOUR ( '', #681 ) ;
#619 = SURFACE_STYLE_USAGE ( .BOTH. , #944 ) ;
#620 = ORIENTED_EDGE ( 'NONE', *, *, #972, .F. ) ;
#621 =( NAMED_UNIT ( * ) PLANE_ANGLE_UNIT ( ) SI_UNIT ( $, .RADIAN. ) );
#622 = CARTESIAN_POINT ( 'NONE',  ( 2.695293747232804904, -1.288207120988990262, 1.318749999999998312 ) ) ;
#623 = ORIENTED_EDGE ( 'NONE', *, *, #267, .F. ) ;
#624 = UNCERTAINTY_MEASURE_WITH_UNIT (LENGTH_MEASURE( 1.000000000000000082E-05 ), #211, 'distance_accuracy_value', 'NONE');
#625 = CARTESIAN_POINT ( 'NONE',  ( -1.520000000000000018, 0.2397504699829097474, 6.318749999999998757 ) ) ;
#626 = AXIS2_PLACEMENT_3D ( 'NONE', #409, #243, #344 ) ;
#627 = PRESENTATION_LAYER_ASSIGNMENT (  '', '', ( #32 ) ) ;
#628 = SURFACE_STYLE_FILL_AREA ( #302 ) ;
#629 = VERTEX_POINT ( 'NONE', #529 ) ;
#630 = VECTOR ( 'NONE', #433, 1000.000000000000000 ) ;
#631 = VECTOR ( 'NONE', #505, 1000.000000000000000 ) ;
#632 = ADVANCED_FACE ( 'NONE', ( #538, #1013 ), #760, .T. ) ;
#633 = AXIS2_PLACEMENT_3D ( 'NONE', #587, #426, #660 ) ;
#634 = CARTESIAN_POINT ( 'NONE',  ( -1.020000000000000018, 0.2397504699829097474, 6.318749999999998757 ) ) ;
#635 = CARTESIAN_POINT ( 'NONE',  ( 0.04142441860464755876, 0.000000000000000000, -4.781250000000000888 ) ) ;
#636 = EDGE_LOOP ( 'NONE', ( #155, #270, #427, #784 ) ) ;
#637 = UNCERTAINTY_MEASURE_WITH_UNIT (LENGTH_MEASURE( 1.000000000000000082E-05 ), #788, 'distance_accuracy_value', 'NONE');
#638 = DIRECTION ( 'NONE',  ( 1.473443359409806292E-16, 0.000000000000000000, 1.000000000000000000 ) ) ;
#639 = VERTEX_POINT ( 'NONE', #776 ) ;
#640 = ORIENTED_EDGE ( 'NONE', *, *, #743, .F. ) ;
#641 = ADVANCED_FACE ( 'NONE', ( #844 ), #120, .F. ) ;
#642 = EDGE_CURVE ( 'NONE', #629, #639, #946, .T. ) ;
#643 =( LENGTH_UNIT ( ) NAMED_UNIT ( * ) SI_UNIT ( .MILLI., .METRE. ) );
#644 = EDGE_LOOP ( 'NONE', ( #945, #143, #478, #23 ) ) ;
#645 =( GEOMETRIC_REPRESENTATION_CONTEXT ( 3 ) GLOBAL_UNCERTAINTY_ASSIGNED_CONTEXT ( ( #156 ) ) GLOBAL_UNIT_ASSIGNED_CONTEXT ( ( #483, #803, #253 ) ) REPRESENTATION_CONTEXT ( 'NONE', 'WORKASPACE' ) );
#646 = COLOUR_RGB ( '',0.9176470588235293713, 0.9058823529411764719, 1.000000000000000000 ) ;
#647 = MECHANICAL_DESIGN_GEOMETRIC_PRESENTATION_REPRESENTATION (  '', ( #208 ), #814 ) ;
#648 =( GEOMETRIC_REPRESENTATION_CONTEXT ( 3 ) GLOBAL_UNCERTAINTY_ASSIGNED_CONTEXT ( ( #308 ) ) GLOBAL_UNIT_ASSIGNED_CONTEXT ( ( #730, #897, #959 ) ) REPRESENTATION_CONTEXT ( 'NONE', 'WORKASPACE' ) );
#649 = CARTESIAN_POINT ( 'NONE',  ( 0.04142441860464759346, 0.000000000000000000, -4.781250000000000888 ) ) ;
#650 = CARTESIAN_POINT ( 'NONE',  ( 1.020000000000000462, 0.2397504699829097474, 6.318749999999998757 ) ) ;
#651 = DIRECTION ( 'NONE',  ( -1.000000000000000000, 0.000000000000000000, 0.000000000000000000 ) ) ;
#652 = DIRECTION ( 'NONE',  ( -1.473443359409806292E-16, -0.000000000000000000, -1.000000000000000000 ) ) ;
#653 = CARTESIAN_POINT ( 'NONE',  ( 2.695293747232804904, 1.288207120988987153, -7.281250000000000888 ) ) ;
#654 = DIRECTION ( 'NONE',  ( -0.000000000000000000, 1.000000000000000000, -0.000000000000000000 ) ) ;
#655 = CARTESIAN_POINT ( 'NONE',  ( 0.04142441860464728121, 0.000000000000000000, -6.960699471770338320 ) ) ;
#656 = SURFACE_STYLE_USAGE ( .BOTH. , #83 ) ;
#657 = PRESENTATION_STYLE_ASSIGNMENT (( #417 ) ) ;
#658 = FACE_OUTER_BOUND ( 'NONE', #882, .T. ) ;
#659 = DIRECTION ( 'NONE',  ( -1.000000000000000000, 0.000000000000000000, 1.470104640658311247E-16 ) ) ;
#660 = DIRECTION ( 'NONE',  ( -1.000000000000000000, 0.000000000000000000, 0.000000000000000000 ) ) ;
#661 = FILL_AREA_STYLE ('',( #336 ) ) ;
#662 = ADVANCED_FACE ( 'NONE', ( #49 ), #680, .F. ) ;
#663 = COLOUR_RGB ( '',0.7921568627450980005, 0.8196078431372548767, 0.9333333333333333481 ) ;
#664 =( GEOMETRIC_REPRESENTATION_CONTEXT ( 3 ) GLOBAL_UNCERTAINTY_ASSIGNED_CONTEXT ( ( #229 ) ) GLOBAL_UNIT_ASSIGNED_CONTEXT ( ( #370, #703, #294 ) ) REPRESENTATION_CONTEXT ( 'NONE', 'WORKASPACE' ) );
#665 = FILL_AREA_STYLE ('',( #105 ) ) ;
#666 = PLANE ( 'NONE',  #124 ) ;
#667 = FACE_OUTER_BOUND ( 'NONE', #31, .T. ) ;
#668 = PRESENTATION_STYLE_ASSIGNMENT (( #656 ) ) ;
#669 = ORIENTED_EDGE ( 'NONE', *, *, #1038, .T. ) ;
#670 = SURFACE_STYLE_FILL_AREA ( #965 ) ;
#671 = CARTESIAN_POINT ( 'NONE',  ( 2.541424418604647961, 3.061616997868383634E-16, -7.281250000000000888 ) ) ;
#672 = CARTESIAN_POINT ( 'NONE',  ( -1.020000000000000018, 0.2397504699829097474, 6.318749999999998757 ) ) ;
#673 = FACE_OUTER_BOUND ( 'NONE', #506, .T. ) ;
#674 = ORIENTED_EDGE ( 'NONE', *, *, #297, .T. ) ;
#675 = SURFACE_STYLE_FILL_AREA ( #661 ) ;
#676 = DIRECTION ( 'NONE',  ( 0.000000000000000000, 0.000000000000000000, -1.000000000000000000 ) ) ;
#677 =( NAMED_UNIT ( * ) PLANE_ANGLE_UNIT ( ) SI_UNIT ( $, .RADIAN. ) );
#678 = FACE_OUTER_BOUND ( 'NONE', #78, .T. ) ;
#679 = EDGE_LOOP ( 'NONE', ( #79, #1036, #933 ) ) ;
#680 = SPHERICAL_SURFACE ( 'NONE', #798, 2.200000000000000178 ) ;
#681 = COLOUR_RGB ( '',0.9176470588235293713, 0.9058823529411764719, 1.000000000000000000 ) ;
#682 =( NAMED_UNIT ( * ) SI_UNIT ( $, .STERADIAN. ) SOLID_ANGLE_UNIT ( ) );
#683 = COLOUR_RGB ( '',0.9176470588235293713, 0.9058823529411764719, 1.000000000000000000 ) ;
#684 = DIRECTION ( 'NONE',  ( -0.000000000000000000, 1.000000000000000000, -0.000000000000000000 ) ) ;
#685 = VECTOR ( 'NONE', #794, 1000.000000000000000 ) ;
#686 = SURFACE_STYLE_USAGE ( .BOTH. , #431 ) ;
#687 = EDGE_LOOP ( 'NONE', ( #1032, #884, #26, #951 ) ) ;
#688 = ADVANCED_FACE ( 'NONE', ( #355 ), #284, .F. ) ;
#689 = PRESENTATION_STYLE_ASSIGNMENT (( #377 ) ) ;
#690 = PRESENTATION_STYLE_ASSIGNMENT (( #761 ) ) ;
#691 = SURFACE_STYLE_USAGE ( .BOTH. , #122 ) ;
#692 = CARTESIAN_POINT ( 'NONE',  ( 1.938700494868145733E-16, 0.000000000000000000, 1.318749999999998757 ) ) ;
#693 = VERTEX_POINT ( 'NONE', #137 ) ;
#694 = EDGE_CURVE ( 'NONE', #479, #952, #940, .T. ) ;
#695 = ORIENTED_EDGE ( 'NONE', *, *, #869, .T. ) ;
#696 = FILL_AREA_STYLE ('',( #766 ) ) ;
#697 = PRESENTATION_LAYER_ASSIGNMENT (  '', '', ( #771 ) ) ;
#698 = STYLED_ITEM ( 'NONE', ( #935 ), #249 ) ;
#699 =( NAMED_UNIT ( * ) PLANE_ANGLE_UNIT ( ) SI_UNIT ( $, .RADIAN. ) );
#700 = AXIS2_PLACEMENT_3D ( 'NONE', #264, #960, #178 ) ;
#701 = ORIENTED_EDGE ( 'NONE', *, *, #319, .T. ) ;
#702 = VECTOR ( 'NONE', #256, 1000.000000000000000 ) ;
#703 =( NAMED_UNIT ( * ) PLANE_ANGLE_UNIT ( ) SI_UNIT ( $, .RADIAN. ) );
#704 = UNCERTAINTY_MEASURE_WITH_UNIT (LENGTH_MEASURE( 1.000000000000000082E-05 ), #643, 'distance_accuracy_value', 'NONE');
#705 = SURFACE_STYLE_FILL_AREA ( #782 ) ;
#706 = FILL_AREA_STYLE_COLOUR ( '', #470 ) ;
#707 = VERTEX_POINT ( 'NONE', #495 ) ;
#708 =( NAMED_UNIT ( * ) PLANE_ANGLE_UNIT ( ) SI_UNIT ( $, .RADIAN. ) );
#709 = ADVANCED_FACE ( 'NONE', ( #673 ), #262, .F. ) ;
#710 = CARTESIAN_POINT ( 'NONE',  ( -1.020000000000000018, -0.2602495300170902803, 6.318749999999998757 ) ) ;
#711 = ORIENTED_EDGE ( 'NONE', *, *, #999, .F. ) ;
#712 = UNCERTAINTY_MEASURE_WITH_UNIT (LENGTH_MEASURE( 1.000000000000000082E-05 ), #60, 'distance_accuracy_value', 'NONE');
#713 = CLOSED_SHELL ( 'NONE', ( #388, #450, #831, #817, #859, #608, #609, #849, #9, #641, #312, #13, #599, #930, #688, #554, #203, #219, #934 ) ) ;
#714 = SURFACE_STYLE_USAGE ( .BOTH. , #872 ) ;
#715 = CIRCLE ( 'NONE', #461, 2.650000000000000799 ) ;
#716 = ORIENTED_EDGE ( 'NONE', *, *, #311, .T. ) ;
#717 = CIRCLE ( 'NONE', #992, 2.950000000000000622 ) ;
#718 =( GEOMETRIC_REPRESENTATION_CONTEXT ( 3 ) GLOBAL_UNCERTAINTY_ASSIGNED_CONTEXT ( ( #399 ) ) GLOBAL_UNIT_ASSIGNED_CONTEXT ( ( #230, #557, #298 ) ) REPRESENTATION_CONTEXT ( 'NONE', 'WORKASPACE' ) );
#719 = LINE ( 'NONE', #1022, #927 ) ;
#720 = DIRECTION ( 'NONE',  ( -1.473443359409806292E-16, -0.000000000000000000, -1.000000000000000000 ) ) ;
#721 = VERTEX_POINT ( 'NONE', #4 ) ;
#722 = EDGE_CURVE ( 'NONE', #843, #950, #22, .T. ) ;
#723 = ORIENTED_EDGE ( 'NONE', *, *, #904, .T. ) ;
#724 = PRODUCT_DEFINITION_CONTEXT ( 'detailed design', #576, 'design' ) ;
#725 = CARTESIAN_POINT ( 'NONE',  ( -1.020000000000000018, 0.2397504699829097474, 1.318749999999998757 ) ) ;
#726 = VERTEX_POINT ( 'NONE', #583 ) ;
#727 = ORIENTED_EDGE ( 'NONE', *, *, #787, .F. ) ;
#728 = DIRECTION ( 'NONE',  ( -1.473443359409806292E-16, -0.000000000000000000, -1.000000000000000000 ) ) ;
#729 = ORIENTED_EDGE ( 'NONE', *, *, #334, .T. ) ;
#730 =( LENGTH_UNIT ( ) NAMED_UNIT ( * ) SI_UNIT ( .MILLI., .METRE. ) );
#731 = MECHANICAL_DESIGN_GEOMETRIC_PRESENTATION_REPRESENTATION (  '', ( #896 ), #252 ) ;
#732 = AXIS2_PLACEMENT_3D ( 'NONE', #198, #524, #676 ) ;
#733 = DIRECTION ( 'NONE',  ( 1.000000000000000000, 0.000000000000000000, -0.000000000000000000 ) ) ;
#734 = VECTOR ( 'NONE', #890, 1000.000000000000000 ) ;
#735 = DIRECTION ( 'NONE',  ( -1.000000000000000000, 0.000000000000000000, 0.000000000000000000 ) ) ;
#736 = DIRECTION ( 'NONE',  ( -1.000000000000000000, 0.000000000000000000, 0.000000000000000000 ) ) ;
#737 = DIRECTION ( 'NONE',  ( 0.000000000000000000, 1.000000000000000000, -0.000000000000000000 ) ) ;
#738 = SURFACE_STYLE_FILL_AREA ( #103 ) ;
#739 = FILL_AREA_STYLE ('',( #422 ) ) ;
#740 =( NAMED_UNIT ( * ) PLANE_ANGLE_UNIT ( ) SI_UNIT ( $, .RADIAN. ) );
#741 = DIRECTION ( 'NONE',  ( -1.473443359409806292E-16, -0.000000000000000000, -1.000000000000000000 ) ) ;
#742 = LINE ( 'NONE', #672, #966 ) ;
#743 = EDGE_CURVE ( 'NONE', #482, #707, #182, .T. ) ;
#744 = CARTESIAN_POINT ( 'NONE',  ( 1.520000000000000462, -0.2602495300170902803, 6.318749999999998757 ) ) ;
#745 = SURFACE_STYLE_FILL_AREA ( #665 ) ;
#746 = CARTESIAN_POINT ( 'NONE',  ( 0.04142441860464834980, 0.000000000000000000, 0.3187499999999995892 ) ) ;
#747 = ORIENTED_EDGE ( 'NONE', *, *, #1027, .T. ) ;
#748 =( LENGTH_UNIT ( ) NAMED_UNIT ( * ) SI_UNIT ( .MILLI., .METRE. ) );
#749 = PRESENTATION_LAYER_ASSIGNMENT (  '', '', ( #1020 ) ) ;
#750 = EDGE_CURVE ( 'NONE', #183, #385, #248, .T. ) ;
#751 = AXIS2_PLACEMENT_3D ( 'NONE', #357, #551, #186 ) ;
#752 = STYLED_ITEM ( 'NONE', ( #690 ), #539 ) ;
#753 = COLOUR_RGB ( '',0.9176470588235293713, 0.9058823529411764719, 1.000000000000000000 ) ;
#754 = EDGE_LOOP ( 'NONE', ( #556, #1002, #1025, #375 ) ) ;
#755 = SURFACE_STYLE_FILL_AREA ( #739 ) ;
#756 = FILL_AREA_STYLE_COLOUR ( '', #971 ) ;
#757 =( NAMED_UNIT ( * ) SI_UNIT ( $, .STERADIAN. ) SOLID_ANGLE_UNIT ( ) );
#758 = CARTESIAN_POINT ( 'NONE',  ( 2.691424418604649205, 3.245314017740486948E-16, 0.6187499999999990230 ) ) ;
#759 = VERTEX_POINT ( 'NONE', #485 ) ;
#760 = PLANE ( 'NONE',  #929 ) ;
#761 = SURFACE_STYLE_USAGE ( .BOTH. , #835 ) ;
#762 = EDGE_CURVE ( 'NONE', #528, #315, #109, .T. ) ;
#763 = CARTESIAN_POINT ( 'NONE',  ( -0.2585755813953524718, 0.000000000000000000, -6.960699471770338320 ) ) ;
#764 = FILL_AREA_STYLE_COLOUR ( '', #615 ) ;
#765 = ORIENTED_EDGE ( 'NONE', *, *, #722, .T. ) ;
#766 = FILL_AREA_STYLE_COLOUR ( '', #327 ) ;
#767 = AXIS2_PLACEMENT_3D ( 'NONE', #132, #118, #113 ) ;
#768 = AXIS2_PLACEMENT_3D ( 'NONE', #746, #170, #339 ) ;
#769 = LINE ( 'NONE', #915, #862 ) ;
#770 = FILL_AREA_STYLE ('',( #442 ) ) ;
#771 = STYLED_ITEM ( 'NONE', ( #801 ), #871 ) ;
#772 = ORIENTED_EDGE ( 'NONE', *, *, #383, .F. ) ;
#773 = FILL_AREA_STYLE_COLOUR ( '', #140 ) ;
#774 =( LENGTH_UNIT ( ) NAMED_UNIT ( * ) SI_UNIT ( .MILLI., .METRE. ) );
#775 = VERTEX_POINT ( 'NONE', #350 ) ;
#776 = CARTESIAN_POINT ( 'NONE',  ( -2.458575581395352483, 0.000000000000000000, -4.781250000000000888 ) ) ;
#777 =( NAMED_UNIT ( * ) SI_UNIT ( $, .STERADIAN. ) SOLID_ANGLE_UNIT ( ) );
#778 = FILL_AREA_STYLE_COLOUR ( '', #580 ) ;
#779 = ORIENTED_EDGE ( 'NONE', *, *, #439, .T. ) ;
#780 = VECTOR ( 'NONE', #81, 1000.000000000000000 ) ;
#781 = PRESENTATION_LAYER_ASSIGNMENT (  '', '', ( #896 ) ) ;
#782 = FILL_AREA_STYLE ('',( #380 ) ) ;
#783 = VECTOR ( 'NONE', #20, 1000.000000000000000 ) ;
#784 = ORIENTED_EDGE ( 'NONE', *, *, #865, .T. ) ;
#785 = MECHANICAL_DESIGN_GEOMETRIC_PRESENTATION_REPRESENTATION (  '', ( #514 ), #1026 ) ;
#786 = UNCERTAINTY_MEASURE_WITH_UNIT (LENGTH_MEASURE( 1.000000000000000082E-05 ), #115, 'distance_accuracy_value', 'NONE');
#787 = EDGE_CURVE ( 'NONE', #148, #693, #239, .T. ) ;
#788 =( LENGTH_UNIT ( ) NAMED_UNIT ( * ) SI_UNIT ( .MILLI., .METRE. ) );
#789 = SPHERICAL_SURFACE ( 'NONE', #546, 2.500000000000000000 ) ;
#790 = ORIENTED_EDGE ( 'NONE', *, *, #481, .T. ) ;
#791 =( NAMED_UNIT ( * ) PLANE_ANGLE_UNIT ( ) SI_UNIT ( $, .RADIAN. ) );
#792 =( NAMED_UNIT ( * ) SI_UNIT ( $, .STERADIAN. ) SOLID_ANGLE_UNIT ( ) );
#793 = ORIENTED_EDGE ( 'NONE', *, *, #28, .T. ) ;
#794 = DIRECTION ( 'NONE',  ( -0.000000000000000000, -0.000000000000000000, -1.000000000000000000 ) ) ;
#795 = ORIENTED_EDGE ( 'NONE', *, *, #46, .T. ) ;
#796 = AXIS2_PLACEMENT_3D ( 'NONE', #161, #95, #735 ) ;
#797 = EDGE_CURVE ( 'NONE', #43, #588, #93, .T. ) ;
#798 = AXIS2_PLACEMENT_3D ( 'NONE', #917, #991, #277 ) ;
#799 = ORIENTED_EDGE ( 'NONE', *, *, #265, .F. ) ;
#800 = SURFACE_STYLE_FILL_AREA ( #151 ) ;
#801 = PRESENTATION_STYLE_ASSIGNMENT (( #619 ) ) ;
#802 = VERTEX_POINT ( 'NONE', #805 ) ;
#803 =( NAMED_UNIT ( * ) PLANE_ANGLE_UNIT ( ) SI_UNIT ( $, .RADIAN. ) );
#804 = VERTEX_POINT ( 'NONE', #98 ) ;
#805 = CARTESIAN_POINT ( 'NONE',  ( 2.695293747232805348, -1.288207120988986931, 0.3187499999999983680 ) ) ;
#806 = ORIENTED_EDGE ( 'NONE', *, *, #972, .T. ) ;
#807 = DIRECTION ( 'NONE',  ( -1.473443359409806292E-16, -0.000000000000000000, -1.000000000000000000 ) ) ;
#808 = CARTESIAN_POINT ( 'NONE',  ( -1.020000000000000018, 0.2397504699829097474, 1.318749999999998979 ) ) ;
#809 = AXIS2_PLACEMENT_3D ( 'NONE', #837, #430, #659 ) ;
#810 = CARTESIAN_POINT ( 'NONE',  ( -1.020000000000000018, -0.2602495300170902803, 6.318749999999998757 ) ) ;
#811 = VECTOR ( 'NONE', #11, 1000.000000000000000 ) ;
#812 = CARTESIAN_POINT ( 'NONE',  ( 2.695293747232804904, 2.192680338826884956, 1.318749999999998757 ) ) ;
#813 =( GEOMETRIC_REPRESENTATION_CONTEXT ( 3 ) GLOBAL_UNCERTAINTY_ASSIGNED_CONTEXT ( ( #1016 ) ) GLOBAL_UNIT_ASSIGNED_CONTEXT ( ( #1033, #791, #563 ) ) REPRESENTATION_CONTEXT ( 'NONE', 'WORKASPACE' ) );
#814 =( GEOMETRIC_REPRESENTATION_CONTEXT ( 3 ) GLOBAL_UNCERTAINTY_ASSIGNED_CONTEXT ( ( #457 ) ) GLOBAL_UNIT_ASSIGNED_CONTEXT ( ( #887, #740, #348 ) ) REPRESENTATION_CONTEXT ( 'NONE', 'WORKASPACE' ) );
#815 = COLOUR_RGB ( '',0.9176470588235293713, 0.9058823529411764719, 1.000000000000000000 ) ;
#816 = DIRECTION ( 'NONE',  ( -1.000000000000000000, 0.000000000000000000, 1.636531581110194916E-16 ) ) ;
#817 = ADVANCED_FACE ( 'NONE', ( #164, #824, #902 ), #92, .F. ) ;
#818 = CARTESIAN_POINT ( 'NONE',  ( 1.020000000000000462, -0.2602495300170902803, 1.318749999999998535 ) ) ;
#819 = DIRECTION ( 'NONE',  ( 0.000000000000000000, 1.000000000000000000, -0.000000000000000000 ) ) ;
#820 = PRESENTATION_STYLE_ASSIGNMENT (( #172 ) ) ;
#821 = DIRECTION ( 'NONE',  ( 1.000000000000000000, 0.000000000000000000, -1.473443359409806292E-16 ) ) ;
#822 = SURFACE_STYLE_USAGE ( .BOTH. , #1034 ) ;
#823 = DIRECTION ( 'NONE',  ( -0.000000000000000000, 0.000000000000000000, -1.000000000000000000 ) ) ;
#824 = FACE_OUTER_BOUND ( 'NONE', #1019, .T. ) ;
#825 = DIRECTION ( 'NONE',  ( -1.000000000000000000, 0.000000000000000000, 0.000000000000000000 ) ) ;
#826 = LINE ( 'NONE', #725, #323 ) ;
#827 = CARTESIAN_POINT ( 'NONE',  ( -2.158575581395352661, 0.000000000000000000, -4.781250000000000888 ) ) ;
#828 = EDGE_CURVE ( 'NONE', #160, #1031, #924, .T. ) ;
#829 = CARTESIAN_POINT ( 'NONE',  ( 1.020000000000000462, -0.2602495300170902803, 6.318749999999998757 ) ) ;
#830 = ORIENTED_EDGE ( 'NONE', *, *, #74, .T. ) ;
#831 = ADVANCED_FACE ( 'NONE', ( #852 ), #444, .T. ) ;
#832 = DIRECTION ( 'NONE',  ( -1.473443359409806292E-16, -0.000000000000000000, -1.000000000000000000 ) ) ;
#833 = AXIS2_PLACEMENT_3D ( 'NONE', #911, #541, #855 ) ;
#834 =( GEOMETRIC_REPRESENTATION_CONTEXT ( 3 ) GLOBAL_UNCERTAINTY_ASSIGNED_CONTEXT ( ( #464 ) ) GLOBAL_UNIT_ASSIGNED_CONTEXT ( ( #194, #244, #573 ) ) REPRESENTATION_CONTEXT ( 'NONE', 'WORKASPACE' ) );
#835 = SURFACE_SIDE_STYLE ('',( #366 ) ) ;
#836 = CARTESIAN_POINT ( 'NONE',  ( 2.695293747232804904, 2.192680338826884956, 0.3187499999999987010 ) ) ;
#837 = CARTESIAN_POINT ( 'NONE',  ( 0.04142441860464834980, 0.000000000000000000, 0.3187499999999987010 ) ) ;
#838 = FILL_AREA_STYLE ('',( #778 ) ) ;
#839 = ORIENTED_EDGE ( 'NONE', *, *, #311, .F. ) ;
#840 = DIRECTION ( 'NONE',  ( -1.000000000000000000, 0.000000000000000000, 0.000000000000000000 ) ) ;
#841 =( NAMED_UNIT ( * ) SI_UNIT ( $, .STERADIAN. ) SOLID_ANGLE_UNIT ( ) );
#842 = LINE ( 'NONE', #434, #273 ) ;
#843 = VERTEX_POINT ( 'NONE', #932 ) ;
#844 = FACE_OUTER_BOUND ( 'NONE', #286, .T. ) ;
#845 = CARTESIAN_POINT ( 'NONE',  ( 2.695293747232804016, 1.288207120988989818, 1.318749999999998757 ) ) ;
#846 = EDGE_LOOP ( 'NONE', ( #925, #806, #2, #453 ) ) ;
#847 = CARTESIAN_POINT ( 'NONE',  ( 0.04142441860464759346, 0.000000000000000000, -4.781250000000000888 ) ) ;
#848 = AXIS2_PLACEMENT_3D ( 'NONE', #906, #570, #338 ) ;
#849 = ADVANCED_FACE ( 'NONE', ( #30 ), #354, .T. ) ;
#850 = CARTESIAN_POINT ( 'NONE',  ( 0.04142441860464723263, 0.000000000000000000, -7.281250000000000888 ) ) ;
#851 = CIRCLE ( 'NONE', #220, 2.650000000000000799 ) ;
#852 = FACE_OUTER_BOUND ( 'NONE', #679, .T. ) ;
#853 = ORIENTED_EDGE ( 'NONE', *, *, #15, .F. ) ;
#854 = SURFACE_STYLE_FILL_AREA ( #1005 ) ;
#855 = DIRECTION ( 'NONE',  ( -1.000000000000000000, 0.000000000000000000, 0.000000000000000000 ) ) ;
#856 = ORIENTED_EDGE ( 'NONE', *, *, #958, .T. ) ;
#857 = LINE ( 'NONE', #1011, #610 ) ;
#858 = EDGE_LOOP ( 'NONE', ( #1015, #322, #727, #711 ) ) ;
#859 = ADVANCED_FACE ( 'NONE', ( #678 ), #789, .T. ) ;
#860 = DIRECTION ( 'NONE',  ( 0.000000000000000000, 0.000000000000000000, 1.000000000000000000 ) ) ;
#861 = VECTOR ( 'NONE', #329, 1000.000000000000000 ) ;
#862 = VECTOR ( 'NONE', #994, 1000.000000000000000 ) ;
#863 = ORIENTED_EDGE ( 'NONE', *, *, #999, .T. ) ;
#864 = AXIS2_PLACEMENT_3D ( 'NONE', #45, #372, #437 ) ;
#865 = EDGE_CURVE ( 'NONE', #206, #183, #384, .T. ) ;
#866 = DIRECTION ( 'NONE',  ( 0.000000000000000000, -1.000000000000000000, 0.000000000000000000 ) ) ;
#867 = DIRECTION ( 'NONE',  ( -1.000000000000000000, 0.000000000000000000, 0.000000000000000000 ) ) ;
#868 = ORIENTED_EDGE ( 'NONE', *, *, #865, .F. ) ;
#869 = EDGE_CURVE ( 'NONE', #479, #281, #459, .T. ) ;
#870 = CARTESIAN_POINT ( 'NONE',  ( -1.520000000000000018, -0.2602495300170902803, 6.318749999999998757 ) ) ;
#871 = ADVANCED_FACE ( 'NONE', ( #1024 ), #1030, .F. ) ;
#872 = SURFACE_SIDE_STYLE ('',( #628 ) ) ;
#873 = EDGE_LOOP ( 'NONE', ( #799, #566, #381, #602 ) ) ;
#874 = UNCERTAINTY_MEASURE_WITH_UNIT (LENGTH_MEASURE( 1.000000000000000082E-05 ), #1001, 'distance_accuracy_value', 'NONE');
#875 = MECHANICAL_DESIGN_GEOMETRIC_PRESENTATION_REPRESENTATION (  '', ( #974 ), #645 ) ;
#876 = DIRECTION ( 'NONE',  ( 1.000000000000000000, 0.000000000000000000, -1.473443359409806292E-16 ) ) ;
#877 = AXIS2_PLACEMENT_3D ( 'NONE', #519, #200, #291 ) ;
#878 = ORIENTED_EDGE ( 'NONE', *, *, #455, .F. ) ;
#879 = STYLED_ITEM ( 'NONE', ( #579 ), #450 ) ;
#880 = EDGE_CURVE ( 'NONE', #562, #61, #851, .T. ) ;
#881 = PRESENTATION_LAYER_ASSIGNMENT (  '', '', ( #446 ) ) ;
#882 = EDGE_LOOP ( 'NONE', ( #394, #196, #607, #212 ) ) ;
#883 = FACE_OUTER_BOUND ( 'NONE', #754, .T. ) ;
#884 = ORIENTED_EDGE ( 'NONE', *, *, #694, .F. ) ;
#885 = CARTESIAN_POINT ( 'NONE',  ( -1.020000000000000018, -0.2602495300170902803, 6.318749999999998757 ) ) ;
#886 = ORIENTED_EDGE ( 'NONE', *, *, #55, .T. ) ;
#887 =( LENGTH_UNIT ( ) NAMED_UNIT ( * ) SI_UNIT ( .MILLI., .METRE. ) );
#888 = FACE_OUTER_BOUND ( 'NONE', #687, .T. ) ;
#889 = DIRECTION ( 'NONE',  ( -1.224646799147353207E-16, 1.000000000000000000, 1.804447693826142319E-32 ) ) ;
#890 = DIRECTION ( 'NONE',  ( 0.000000000000000000, -1.000000000000000000, 0.000000000000000000 ) ) ;
#891 = EDGE_CURVE ( 'NONE', #346, #283, #857, .T. ) ;
#892 = CARTESIAN_POINT ( 'NONE',  ( 0.04142441860464839837, 0.000000000000000000, 0.6187499999999994671 ) ) ;
#893 = CARTESIAN_POINT ( 'NONE',  ( 2.241424418604649471, 2.694222958124178486E-16, 0.6187499999999991340 ) ) ;
#894 = DIRECTION ( 'NONE',  ( -1.473443359409806292E-16, -0.000000000000000000, -1.000000000000000000 ) ) ;
#895 = STYLED_ITEM ( 'NONE', ( #997 ), #849 ) ;
#896 = STYLED_ITEM ( 'NONE', ( #25 ), #259 ) ;
#897 =( NAMED_UNIT ( * ) PLANE_ANGLE_UNIT ( ) SI_UNIT ( $, .RADIAN. ) );
#898 = AXIS2_PLACEMENT_3D ( 'NONE', #892, #179, #905 ) ;
#899 = CARTESIAN_POINT ( 'NONE',  ( 0.04142441860464703141, 0.000000000000000000, -7.281250000000000888 ) ) ;
#900 = PRESENTATION_STYLE_ASSIGNMENT (( #822 ) ) ;
#901 = DIRECTION ( 'NONE',  ( -1.224646799147353207E-16, 1.000000000000000000, 1.804447693826142319E-32 ) ) ;
#902 = FACE_BOUND ( 'NONE', #979, .T. ) ;
#903 = CARTESIAN_POINT ( 'NONE',  ( 2.691424418604647872, 3.245314017740486455E-16, -7.281250000000000888 ) ) ;
#904 = EDGE_CURVE ( 'NONE', #477, #228, #153, .T. ) ;
#905 = DIRECTION ( 'NONE',  ( -1.000000000000000000, 0.000000000000000000, 1.478457507934778146E-16 ) ) ;
#906 = CARTESIAN_POINT ( 'NONE',  ( 2.695293747232804904, 2.192680338826884956, -7.282250000000002110 ) ) ;
#907 = EDGE_CURVE ( 'NONE', #281, #843, #314, .T. ) ;
#908 = FACE_OUTER_BOUND ( 'NONE', #48, .T. ) ;
#909 = EDGE_LOOP ( 'NONE', ( #593, #547, #158, #371 ) ) ;
#910 = DIRECTION ( 'NONE',  ( 0.000000000000000000, 0.000000000000000000, -1.000000000000000000 ) ) ;
#911 = CARTESIAN_POINT ( 'NONE',  ( 0.04142441860464755876, 0.000000000000000000, -4.781250000000000888 ) ) ;
#912 = SURFACE_STYLE_USAGE ( .BOTH. , #980 ) ;
#913 = AXIS2_PLACEMENT_3D ( 'NONE', #1010, #458, #353 ) ;
#914 = AXIS2_PLACEMENT_3D ( 'NONE', #847, #616, #840 ) ;
#915 = CARTESIAN_POINT ( 'NONE',  ( 1.520000000000000462, -0.2602495300170902803, 1.318749999999998757 ) ) ;
#916 = ORIENTED_EDGE ( 'NONE', *, *, #797, .T. ) ;
#917 = CARTESIAN_POINT ( 'NONE',  ( 0.04142441860464755876, 0.000000000000000000, -4.781250000000000888 ) ) ;
#918 = CARTESIAN_POINT ( 'NONE',  ( 1.020000000000000462, 0.2397504699829097474, 1.318749999999998757 ) ) ;
#919 = DIRECTION ( 'NONE',  ( -1.473443359409806292E-16, -0.000000000000000000, -1.000000000000000000 ) ) ;
#920 = ORIENTED_EDGE ( 'NONE', *, *, #797, .F. ) ;
#921 = EDGE_CURVE ( 'NONE', #707, #952, #162, .T. ) ;
#922 = FACE_OUTER_BOUND ( 'NONE', #432, .T. ) ;
#923 = FILL_AREA_STYLE ('',( #618 ) ) ;
#924 = LINE ( 'NONE', #201, #18 ) ;
#925 = ORIENTED_EDGE ( 'NONE', *, *, #828, .F. ) ;
#926 = VECTOR ( 'NONE', #292, 1000.000000000000000 ) ;
#927 = VECTOR ( 'NONE', #309, 1000.000000000000000 ) ;
#928 =( GEOMETRIC_REPRESENTATION_CONTEXT ( 3 ) GLOBAL_UNCERTAINTY_ASSIGNED_CONTEXT ( ( #637 ) ) GLOBAL_UNIT_ASSIGNED_CONTEXT ( ( #788, #708, #392 ) ) REPRESENTATION_CONTEXT ( 'NONE', 'WORKASPACE' ) );
#929 = AXIS2_PLACEMENT_3D ( 'NONE', #522, #1003, #34 ) ;
#930 = ADVANCED_FACE ( 'NONE', ( #888 ), #666, .F. ) ;
#931 = SURFACE_SIDE_STYLE ('',( #612 ) ) ;
#932 = CARTESIAN_POINT ( 'NONE',  ( 1.020000000000000462, -0.2602495300170902803, 6.318749999999998757 ) ) ;
#933 = ORIENTED_EDGE ( 'NONE', *, *, #28, .F. ) ;
#934 = ADVANCED_FACE ( 'NONE', ( #7 ), #237, .F. ) ;
#935 = PRESENTATION_STYLE_ASSIGNMENT (( #691 ) ) ;
#936 = VERTEX_POINT ( 'NONE', #893 ) ;
#937 = CARTESIAN_POINT ( 'NONE',  ( 0.04142441860464845388, 0.000000000000000000, 1.018749999999998934 ) ) ;
#938 = DIRECTION ( 'NONE',  ( -1.000000000000000000, 0.000000000000000000, 0.000000000000000000 ) ) ;
#939 = VERTEX_POINT ( 'NONE', #342 ) ;
#940 = LINE ( 'NONE', #467, #685 ) ;
#941 = COLOUR_RGB ( '',0.9176470588235293713, 0.9058823529411764719, 1.000000000000000000 ) ;
#942 = DIRECTION ( 'NONE',  ( -1.000000000000000000, 0.000000000000000000, 1.636531581110194916E-16 ) ) ;
#943 = CIRCLE ( 'NONE', #597, 2.500000000000000000 ) ;
#944 = SURFACE_SIDE_STYLE ('',( #57 ) ) ;
#945 = ORIENTED_EDGE ( 'NONE', *, *, #116, .F. ) ;
#946 = CIRCLE ( 'NONE', #914, 2.500000000000000000 ) ;
#947 = LINE ( 'NONE', #625, #359 ) ;
#948 = CARTESIAN_POINT ( 'NONE',  ( 1.520000000000000462, 0.2397504699829097474, 6.318749999999998757 ) ) ;
#949 = VERTEX_POINT ( 'NONE', #808 ) ;
#950 = VERTEX_POINT ( 'NONE', #818 ) ;
#951 = ORIENTED_EDGE ( 'NONE', *, *, #743, .T. ) ;
#952 = VERTEX_POINT ( 'NONE', #976 ) ;
#953 = AXIS2_PLACEMENT_3D ( 'NONE', #517, #165, #821 ) ;
#954 = AXIS2_PLACEMENT_3D ( 'NONE', #159, #652, #480 ) ;
#955 = ORIENTED_EDGE ( 'NONE', *, *, #285, .T. ) ;
#956 = SURFACE_SIDE_STYLE ('',( #493 ) ) ;
#957 = PLANE ( 'NONE',  #218 ) ;
#958 = EDGE_CURVE ( 'NONE', #775, #804, #87, .T. ) ;
#959 =( NAMED_UNIT ( * ) SI_UNIT ( $, .STERADIAN. ) SOLID_ANGLE_UNIT ( ) );
#960 = DIRECTION ( 'NONE',  ( -0.000000000000000000, 0.000000000000000000, -1.000000000000000000 ) ) ;
#961 = CARTESIAN_POINT ( 'NONE',  ( 1.520000000000000462, 0.2397504699829097474, 6.318749999999998757 ) ) ;
#962 = FILL_AREA_STYLE_COLOUR ( '', #251 ) ;
#963 = PLANE ( 'NONE',  #321 ) ;
#964 = PRODUCT_RELATED_PRODUCT_CATEGORY ( 'part', '', ( #403 ) ) ;
#965 = FILL_AREA_STYLE ('',( #6 ) ) ;
#966 = VECTOR ( 'NONE', #983, 1000.000000000000000 ) ;
#967 = FACE_OUTER_BOUND ( 'NONE', #449, .T. ) ;
#968 = MECHANICAL_DESIGN_GEOMETRIC_PRESENTATION_REPRESENTATION (  '', ( #32 ), #970 ) ;
#969 = MECHANICAL_DESIGN_GEOMETRIC_PRESENTATION_REPRESENTATION (  '', ( #596 ), #813 ) ;
#970 =( GEOMETRIC_REPRESENTATION_CONTEXT ( 3 ) GLOBAL_UNCERTAINTY_ASSIGNED_CONTEXT ( ( #704 ) ) GLOBAL_UNIT_ASSIGNED_CONTEXT ( ( #643, #456, #682 ) ) REPRESENTATION_CONTEXT ( 'NONE', 'WORKASPACE' ) );
#971 = COLOUR_RGB ( '',0.9176470588235293713, 0.9058823529411764719, 1.000000000000000000 ) ;
#972 = EDGE_CURVE ( 'NONE', #160, #528, #531, .T. ) ;
#973 = SURFACE_SIDE_STYLE ('',( #675 ) ) ;
#974 = STYLED_ITEM ( 'NONE', ( #328 ), #934 ) ;
#975 = EDGE_CURVE ( 'NONE', #281, #939, #565, .T. ) ;
#976 = CARTESIAN_POINT ( 'NONE',  ( 1.520000000000000462, 0.2397504699829097474, 1.318749999999998535 ) ) ;
#977 = DIRECTION ( 'NONE',  ( -1.000000000000000000, 0.000000000000000000, 0.000000000000000000 ) ) ;
#978 = SURFACE_STYLE_FILL_AREA ( #572 ) ;
#979 = EDGE_LOOP ( 'NONE', ( #466, #136, #147, #133 ) ) ;
#980 = SURFACE_SIDE_STYLE ('',( #755 ) ) ;
#981 =( LENGTH_UNIT ( ) NAMED_UNIT ( * ) SI_UNIT ( .MILLI., .METRE. ) );
#982 = EDGE_CURVE ( 'NONE', #775, #562, #180, .T. ) ;
#983 = DIRECTION ( 'NONE',  ( -0.000000000000000000, 1.000000000000000000, -0.000000000000000000 ) ) ;
#984 = ORIENTED_EDGE ( 'NONE', *, *, #642, .F. ) ;
#985 = CARTESIAN_POINT ( 'NONE',  ( 0.04142441860464723263, 0.000000000000000000, -7.281250000000000888 ) ) ;
#986 =( NAMED_UNIT ( * ) PLANE_ANGLE_UNIT ( ) SI_UNIT ( $, .RADIAN. ) );
#987 = SURFACE_STYLE_USAGE ( .BOTH. , #931 ) ;
#988 =( NAMED_UNIT ( * ) SI_UNIT ( $, .STERADIAN. ) SOLID_ANGLE_UNIT ( ) );
#989 = ORIENTED_EDGE ( 'NONE', *, *, #880, .F. ) ;
#990 = CLOSED_SHELL ( 'NONE', ( #1009, #662, #259, #249, #347, #539, #871, #709, #632 ) ) ;
#991 = DIRECTION ( 'NONE',  ( 0.000000000000000000, 1.000000000000000000, -0.000000000000000000 ) ) ;
#992 = AXIS2_PLACEMENT_3D ( 'NONE', #595, #282, #438 ) ;
#993 = STYLED_ITEM ( 'NONE', ( #428 ), #609 ) ;
#994 = DIRECTION ( 'NONE',  ( 1.000000000000000000, -0.000000000000000000, -0.000000000000000000 ) ) ;
#995 = APPLICATION_PROTOCOL_DEFINITION ( 'draft international standard', 'automotive_design', 1998, #576 ) ;
#996 = LINE ( 'NONE', #601, #1021 ) ;
#997 = PRESENTATION_STYLE_ASSIGNMENT (( #190 ) ) ;
#998 = EDGE_LOOP ( 'NONE', ( #795, #830, #368 ) ) ;
#999 = EDGE_CURVE ( 'NONE', #949, #148, #826, .T. ) ;
#1000 = DIRECTION ( 'NONE',  ( -1.000000000000000000, 0.000000000000000000, 0.000000000000000000 ) ) ;
#1001 =( LENGTH_UNIT ( ) NAMED_UNIT ( * ) SI_UNIT ( .MILLI., .METRE. ) );
#1002 = ORIENTED_EDGE ( 'NONE', *, *, #828, .T. ) ;
#1003 = DIRECTION ( 'NONE',  ( 1.473443359409806292E-16, 0.000000000000000000, 1.000000000000000000 ) ) ;
#1004 = EDGE_LOOP ( 'NONE', ( #623, #66, #723, #114 ) ) ;
#1005 = FILL_AREA_STYLE ('',( #773 ) ) ;
#1006 = AXIS2_PLACEMENT_3D ( 'NONE', #571, #889, #484 ) ;
#1007 = MECHANICAL_DESIGN_GEOMETRIC_PRESENTATION_REPRESENTATION (  '', ( #488 ), #928 ) ;
#1008 = UNCERTAINTY_MEASURE_WITH_UNIT (LENGTH_MEASURE( 1.000000000000000082E-05 ), #981, 'distance_accuracy_value', 'NONE');
#1009 = ADVANCED_FACE ( 'NONE', ( #658 ), #408, .F. ) ;
#1010 = CARTESIAN_POINT ( 'NONE',  ( 0.04142441860464723263, 0.000000000000000000, -7.281250000000000888 ) ) ;
#1011 = CARTESIAN_POINT ( 'NONE',  ( -1.020000000000000018, 0.2397504699829097474, 6.318749999999998757 ) ) ;
#1012 = ORIENTED_EDGE ( 'NONE', *, *, #750, .T. ) ;
#1013 = FACE_OUTER_BOUND ( 'NONE', #598, .T. ) ;
#1014 = SURFACE_SIDE_STYLE ('',( #705 ) ) ;
#1015 = ORIENTED_EDGE ( 'NONE', *, *, #285, .F. ) ;
#1016 = UNCERTAINTY_MEASURE_WITH_UNIT (LENGTH_MEASURE( 1.000000000000000082E-05 ), #1033, 'distance_accuracy_value', 'NONE');
#1017 = SURFACE_SIDE_STYLE ('',( #800 ) ) ;
#1018 = PRESENTATION_STYLE_ASSIGNMENT (( #714 ) ) ;
#1019 = EDGE_LOOP ( 'NONE', ( #544, #240, #620 ) ) ;
#1020 = STYLED_ITEM ( 'NONE', ( #1018 ), #859 ) ;
#1021 = VECTOR ( 'NONE', #919, 1000.000000000000000 ) ;
#1022 = CARTESIAN_POINT ( 'NONE',  ( 2.695293747232804904, -1.288207120988987153, -7.281250000000000888 ) ) ;
#1023 = AXIS2_PLACEMENT_3D ( 'NONE', #985, #502, #825 ) ;
#1024 = FACE_OUTER_BOUND ( 'NONE', #537, .T. ) ;
#1025 = ORIENTED_EDGE ( 'NONE', *, *, #46, .F. ) ;
#1026 =( GEOMETRIC_REPRESENTATION_CONTEXT ( 3 ) GLOBAL_UNCERTAINTY_ASSIGNED_CONTEXT ( ( #624 ) ) GLOBAL_UNIT_ASSIGNED_CONTEXT ( ( #211, #269, #988 ) ) REPRESENTATION_CONTEXT ( 'NONE', 'WORKASPACE' ) );
#1027 = EDGE_CURVE ( 'NONE', #802, #759, #295, .T. ) ;
#1028 = UNCERTAINTY_MEASURE_WITH_UNIT (LENGTH_MEASURE( 1.000000000000000082E-05 ), #205, 'distance_accuracy_value', 'NONE');
#1029 = DIRECTION ( 'NONE',  ( 0.000000000000000000, 1.000000000000000000, -0.000000000000000000 ) ) ;
#1030 = PLANE ( 'NONE',  #510 ) ;
#1031 = VERTEX_POINT ( 'NONE', #134 ) ;
#1032 = ORIENTED_EDGE ( 'NONE', *, *, #921, .T. ) ;
#1033 =( LENGTH_UNIT ( ) NAMED_UNIT ( * ) SI_UNIT ( .MILLI., .METRE. ) );
#1034 = SURFACE_SIDE_STYLE ('',( #242 ) ) ;
#1035 = ORIENTED_EDGE ( 'NONE', *, *, #406, .T. ) ;
#1036 = ORIENTED_EDGE ( 'NONE', *, *, #204, .T. ) ;
#1037 = DIRECTION ( 'NONE',  ( -1.000000000000000000, 0.000000000000000000, 0.000000000000000000 ) ) ;
#1038 = EDGE_CURVE ( 'NONE', #588, #629, #525, .T. ) ;
ENDSEC;
END-ISO-10303-21;
