ISO-10303-21;
HEADER;
FILE_DESCRIPTION (( 'STEP AP214' ),
    '1' );
FILE_NAME ('ir_cliff_sensor.STEP',
    '2025-05-18T18:44:55',
    ( '' ),
    ( '' ),
    'SwSTEP 2.0',
    'SolidWorks 2025',
    '' );
FILE_SCHEMA (( 'AUTOMOTIVE_DESIGN' ));
ENDSEC;

DATA;
#1 = EDGE_LOOP ( 'NONE', ( #1035, #929, #140, #419 ) ) ;
#2 = DIRECTION ( 'NONE',  ( -1.000000000000000000, 0.000000000000000000, 0.000000000000000000 ) ) ;
#3 = DIRECTION ( 'NONE',  ( -0.000000000000000000, -0.000000000000000000, -1.000000000000000000 ) ) ;
#4 = EDGE_LOOP ( 'NONE', ( #1158, #445, #130, #565 ) ) ;
#5 = CARTESIAN_POINT ( 'NONE',  ( 0.000000000000000000, -1.749999999999999778, 5.000000000000000000 ) ) ;
#6 = EDGE_CURVE ( 'NONE', #727, #118, #570, .T. ) ;
#7 = CARTESIAN_POINT ( 'NONE',  ( 0.000000000000000000, -1.749999999999999778, 5.000000000000000000 ) ) ;
#8 = EDGE_LOOP ( 'NONE', ( #177, #921 ) ) ;
#9 = PRESENTATION_STYLE_ASSIGNMENT (( #381 ) ) ;
#10 = CARTESIAN_POINT ( 'NONE',  ( -5.510941938624287339E-16, 1.749999999999999778, 5.000000000000000000 ) ) ;
#11 = ORIENTED_EDGE ( 'NONE', *, *, #30, .T. ) ;
#12 = DIRECTION ( 'NONE',  ( -0.000000000000000000, -0.000000000000000000, -1.000000000000000000 ) ) ;
#13 = CLOSED_SHELL ( 'NONE', ( #265, #459, #878, #930, #1073, #70, #593, #123, #1064, #365, #652, #607, #242, #644, #333, #163, #826, #62, #891, #1036, #106, #785, #481, #72, #665, #405 ) ) ;
#14 = DIRECTION ( 'NONE',  ( 0.000000000000000000, -1.000000000000000000, 0.000000000000000000 ) ) ;
#15 = EDGE_CURVE ( 'NONE', #1006, #964, #630, .T. ) ;
#16 = EDGE_LOOP ( 'NONE', ( #90, #207, #258, #363 ) ) ;
#17 = MECHANICAL_DESIGN_GEOMETRIC_PRESENTATION_REPRESENTATION (  '', ( #75 ), #490 ) ;
#18 = DIRECTION ( 'NONE',  ( 4.625929269271485914E-16, -1.000000000000000000, 0.000000000000000000 ) ) ;
#19 = VECTOR ( 'NONE', #934, 1000.000000000000000 ) ;
#20 = PLANE ( 'NONE',  #267 ) ;
#21 = VERTEX_POINT ( 'NONE', #627 ) ;
#22 = AXIS2_PLACEMENT_3D ( 'NONE', #629, #897, #557 ) ;
#23 = FACE_OUTER_BOUND ( 'NONE', #885, .T. ) ;
#24 = STYLED_ITEM ( 'NONE', ( #872 ), #560 ) ;
#25 = DIRECTION ( 'NONE',  ( 1.224646799147353207E-16, 1.000000000000000000, -0.000000000000000000 ) ) ;
#26 = VERTEX_POINT ( 'NONE', #143 ) ;
#27 = CARTESIAN_POINT ( 'NONE',  ( 15.00000000000000000, 7.500000000000004441, 1.600000000000000089 ) ) ;
#28 = DIRECTION ( 'NONE',  ( 1.000000000000000000, 0.000000000000000000, 0.000000000000000000 ) ) ;
#29 = ORIENTED_EDGE ( 'NONE', *, *, #563, .F. ) ;
#30 = EDGE_CURVE ( 'NONE', #795, #619, #155, .T. ) ;
#31 = DIRECTION ( 'NONE',  ( -0.000000000000000000, -0.000000000000000000, -1.000000000000000000 ) ) ;
#32 = DIRECTION ( 'NONE',  ( 0.000000000000000000, -0.000000000000000000, -1.000000000000000000 ) ) ;
#33 =( NAMED_UNIT ( * ) SI_UNIT ( $, .STERADIAN. ) SOLID_ANGLE_UNIT ( ) );
#34 = ORIENTED_EDGE ( 'NONE', *, *, #295, .T. ) ;
#35 = PLANE ( 'NONE',  #288 ) ;
#36 = ORIENTED_EDGE ( 'NONE', *, *, #279, .T. ) ;
#37 = PRESENTATION_STYLE_ASSIGNMENT (( #666 ) ) ;
#38 = EDGE_CURVE ( 'NONE', #611, #101, #492, .T. ) ;
#39 = FACE_OUTER_BOUND ( 'NONE', #478, .T. ) ;
#40 = SURFACE_SIDE_STYLE ('',( #329 ) ) ;
#41 = SURFACE_STYLE_FILL_AREA ( #484 ) ;
#42 = LINE ( 'NONE', #941, #378 ) ;
#43 = PRODUCT_DEFINITION_SHAPE ( 'NONE', 'NONE',  #1160 ) ;
#44 = PRESENTATION_LAYER_ASSIGNMENT (  '', '', ( #324 ) ) ;
#45 = VERTEX_POINT ( 'NONE', #1134 ) ;
#46 = CIRCLE ( 'NONE', #670, 1.229400266793312158 ) ;
#47 = MECHANICAL_DESIGN_GEOMETRIC_PRESENTATION_REPRESENTATION (  '', ( #448 ), #237 ) ;
#48 = PRODUCT_DEFINITION_CONTEXT ( 'detailed design', #705, 'design' ) ;
#49 = MECHANICAL_DESIGN_GEOMETRIC_PRESENTATION_REPRESENTATION (  '', ( #24 ), #285 ) ;
#50 = PRESENTATION_STYLE_ASSIGNMENT (( #219 ) ) ;
#51 = FILL_AREA_STYLE_COLOUR ( '', #513 ) ;
#52 = FACE_OUTER_BOUND ( 'NONE', #4, .T. ) ;
#53 = CARTESIAN_POINT ( 'NONE',  ( -2.000000000000000000, 0.000000000000000000, 0.000000000000000000 ) ) ;
#54 = CARTESIAN_POINT ( 'NONE',  ( 0.000000000000000000, 0.000000000000000000, 0.000000000000000000 ) ) ;
#55 = ORIENTED_EDGE ( 'NONE', *, *, #809, .F. ) ;
#56 = CARTESIAN_POINT ( 'NONE',  ( -15.00000000000000000, 7.500000000000001776, 0.000000000000000000 ) ) ;
#57 = EDGE_CURVE ( 'NONE', #436, #87, #230, .T. ) ;
#58 = DIRECTION ( 'NONE',  ( -1.000000000000000000, 0.000000000000000000, 0.000000000000000000 ) ) ;
#59 = UNCERTAINTY_MEASURE_WITH_UNIT (LENGTH_MEASURE( 1.000000000000000082E-05 ), #578, 'distance_accuracy_value', 'NONE');
#60 = VERTEX_POINT ( 'NONE', #848 ) ;
#61 = LINE ( 'NONE', #411, #215 ) ;
#62 = ADVANCED_FACE ( 'NONE', ( #52 ), #240, .T. ) ;
#63 = LINE ( 'NONE', #413, #938 ) ;
#64 = VECTOR ( 'NONE', #366, 1000.000000000000000 ) ;
#65 = VECTOR ( 'NONE', #845, 1000.000000000000000 ) ;
#66 = PRESENTATION_LAYER_ASSIGNMENT (  '', '', ( #700 ) ) ;
#67 = AXIS2_PLACEMENT_3D ( 'NONE', #864, #517, #606 ) ;
#68 = DIRECTION ( 'NONE',  ( 1.224646799147353207E-16, -1.000000000000000000, 0.000000000000000000 ) ) ;
#69 = DIRECTION ( 'NONE',  ( 1.000000000000000000, 0.000000000000000000, -0.000000000000000000 ) ) ;
#70 = ADVANCED_FACE ( 'NONE', ( #589 ), #331, .T. ) ;
#71 = SURFACE_STYLE_FILL_AREA ( #526 ) ;
#72 = ADVANCED_FACE ( 'NONE', ( #1124 ), #1044, .T. ) ;
#73 = CARTESIAN_POINT ( 'NONE',  ( -5.510910596163086597E-16, 2.249999999999998668, 5.000000000000000000 ) ) ;
#74 = VECTOR ( 'NONE', #335, 1000.000000000000000 ) ;
#75 = STYLED_ITEM ( 'NONE', ( #789 ), #259 ) ;
#76 = VECTOR ( 'NONE', #850, 1000.000000000000000 ) ;
#77 = DIRECTION ( 'NONE',  ( 1.000000000000000000, 0.000000000000000000, 0.000000000000000000 ) ) ;
#78 = CARTESIAN_POINT ( 'NONE',  ( 2.250000000000000444, 0.000000000000000000, 4.800000000000003375 ) ) ;
#79 = VECTOR ( 'NONE', #543, 1000.000000000000000 ) ;
#80 = ORIENTED_EDGE ( 'NONE', *, *, #99, .T. ) ;
#81 = DIRECTION ( 'NONE',  ( 0.000000000000000000, 0.000000000000000000, 1.000000000000000000 ) ) ;
#82 = FILL_AREA_STYLE ('',( #1151 ) ) ;
#83 = FILL_AREA_STYLE ('',( #161 ) ) ;
#84 = EDGE_CURVE ( 'NONE', #118, #291, #753, .T. ) ;
#85 = ORIENTED_EDGE ( 'NONE', *, *, #982, .F. ) ;
#86 = CARTESIAN_POINT ( 'NONE',  ( 4.000000000000000000, -1.749999999999999778, 5.000000000000000000 ) ) ;
#87 = VERTEX_POINT ( 'NONE', #323 ) ;
#88 = PRODUCT ( 'ir_cliff_sensor', 'ir_cliff_sensor', '', ( #783 ) ) ;
#89 =( NAMED_UNIT ( * ) SI_UNIT ( $, .STERADIAN. ) SOLID_ANGLE_UNIT ( ) );
#90 = ORIENTED_EDGE ( 'NONE', *, *, #1097, .F. ) ;
#91 =( GEOMETRIC_REPRESENTATION_CONTEXT ( 3 ) GLOBAL_UNCERTAINTY_ASSIGNED_CONTEXT ( ( #234 ) ) GLOBAL_UNIT_ASSIGNED_CONTEXT ( ( #983, #282, #195 ) ) REPRESENTATION_CONTEXT ( 'NONE', 'WORKASPACE' ) );
#92 = CARTESIAN_POINT ( 'NONE',  ( -6.123233995736762338E-17, -1.749999999999999778, 5.000000000000000000 ) ) ;
#93 = AXIS2_PLACEMENT_3D ( 'NONE', #367, #849, #856 ) ;
#94 = VECTOR ( 'NONE', #675, 1000.000000000000000 ) ;
#95 = DIRECTION ( 'NONE',  ( -0.000000000000000000, 0.000000000000000000, -1.000000000000000000 ) ) ;
#96 = FILL_AREA_STYLE_COLOUR ( '', #1011 ) ;
#97 = ORIENTED_EDGE ( 'NONE', *, *, #351, .F. ) ;
#98 =( NAMED_UNIT ( * ) PLANE_ANGLE_UNIT ( ) SI_UNIT ( $, .RADIAN. ) );
#99 = EDGE_CURVE ( 'NONE', #915, #574, #1117, .T. ) ;
#100 = FACE_OUTER_BOUND ( 'NONE', #515, .T. ) ;
#101 = VERTEX_POINT ( 'NONE', #423 ) ;
#102 = CARTESIAN_POINT ( 'NONE',  ( 15.00000000000000000, -7.499999999999995559, 1.600000000000000089 ) ) ;
#103 = CARTESIAN_POINT ( 'NONE',  ( -4.500000000000000000, -2.249999999999999556, -0.5000000000000000000 ) ) ;
#104 = EDGE_LOOP ( 'NONE', ( #29, #402, #453, #292 ) ) ;
#105 = CARTESIAN_POINT ( 'NONE',  ( 15.00000000000000000, 7.500000000000004441, 1.600000000000000089 ) ) ;
#106 = ADVANCED_FACE ( 'NONE', ( #768 ), #650, .T. ) ;
#107 = CARTESIAN_POINT ( 'NONE',  ( -1.768163783466512262, 0.000000000000000000, 4.800000000000003375 ) ) ;
#108 = ORIENTED_EDGE ( 'NONE', *, *, #1003, .T. ) ;
#109 = CARTESIAN_POINT ( 'NONE',  ( 4.000000000000000000, 1.749999999999999778, 0.000000000000000000 ) ) ;
#110 = ORIENTED_EDGE ( 'NONE', *, *, #679, .T. ) ;
#111 =( NAMED_UNIT ( * ) SI_UNIT ( $, .STERADIAN. ) SOLID_ANGLE_UNIT ( ) );
#112 = VECTOR ( 'NONE', #800, 1000.000000000000000 ) ;
#113 = DIRECTION ( 'NONE',  ( 1.000000000000000000, 1.224646799147353207E-16, -0.000000000000000000 ) ) ;
#114 = ORIENTED_EDGE ( 'NONE', *, *, #236, .F. ) ;
#115 = COLOUR_RGB ( '',0.2862745098039215508, 0.6627450980392156632, 0.3294117647058823484 ) ;
#116 = DIRECTION ( 'NONE',  ( 1.000000000000000000, 8.673617379884037937E-17, -0.000000000000000000 ) ) ;
#117 = CARTESIAN_POINT ( 'NONE',  ( 15.00000000000000000, -7.499999999999995559, 1.600000000000000089 ) ) ;
#118 = VERTEX_POINT ( 'NONE', #56 ) ;
#119 = PRESENTATION_LAYER_ASSIGNMENT (  '', '', ( #1131 ) ) ;
#120 = SURFACE_STYLE_FILL_AREA ( #227 ) ;
#121 = DIRECTION ( 'NONE',  ( 0.000000000000000000, 1.000000000000000000, 0.000000000000000000 ) ) ;
#122 = PLANE ( 'NONE',  #992 ) ;
#123 = ADVANCED_FACE ( 'NONE', ( #39 ), #476, .T. ) ;
#124 =( NAMED_UNIT ( * ) PLANE_ANGLE_UNIT ( ) SI_UNIT ( $, .RADIAN. ) );
#125 = DIRECTION ( 'NONE',  ( -0.000000000000000000, -0.000000000000000000, -1.000000000000000000 ) ) ;
#126 = DIRECTION ( 'NONE',  ( 1.000000000000000000, 0.000000000000000000, 0.000000000000000000 ) ) ;
#127 = VERTEX_POINT ( 'NONE', #587 ) ;
#128 =( LENGTH_UNIT ( ) NAMED_UNIT ( * ) SI_UNIT ( .MILLI., .METRE. ) );
#129 = LINE ( 'NONE', #948, #466 ) ;
#130 = ORIENTED_EDGE ( 'NONE', *, *, #533, .T. ) ;
#131 = DIRECTION ( 'NONE',  ( 0.000000000000000000, -1.000000000000000000, 0.000000000000000000 ) ) ;
#132 = PRODUCT_RELATED_PRODUCT_CATEGORY ( 'part', '', ( #182 ) ) ;
#133 = FACE_OUTER_BOUND ( 'NONE', #724, .T. ) ;
#134 =( GEOMETRIC_REPRESENTATION_CONTEXT ( 3 ) GLOBAL_UNCERTAINTY_ASSIGNED_CONTEXT ( ( #756 ) ) GLOBAL_UNIT_ASSIGNED_CONTEXT ( ( #746, #1132, #229 ) ) REPRESENTATION_CONTEXT ( 'NONE', 'WORKASPACE' ) );
#135 = MECHANICAL_DESIGN_GEOMETRIC_PRESENTATION_REPRESENTATION (  '', ( #249 ), #796 ) ;
#136 = SHAPE_REPRESENTATION ( 'IR_Transceiver_Block', ( #309 ), #985 ) ;
#137 =( REPRESENTATION_RELATIONSHIP ('NONE','NONE', #926, #136 ) REPRESENTATION_RELATIONSHIP_WITH_TRANSFORMATION ( #257 )SHAPE_REPRESENTATION_RELATIONSHIP( ) );
#138 = TOROIDAL_SURFACE ( 'NONE', #1128, 0.2318362165334878489, 1.000000000000000000 ) ;
#139 = CARTESIAN_POINT ( 'NONE',  ( 2.018163783466512484, 2.839174805041685941E-17, 3.800000000000002931 ) ) ;
#140 = ORIENTED_EDGE ( 'NONE', *, *, #197, .F. ) ;
#141 = COLOUR_RGB ( '',0.2862745098039215508, 0.6627450980392156632, 0.3294117647058823484 ) ;
#142 =( GEOMETRIC_REPRESENTATION_CONTEXT ( 3 ) GLOBAL_UNCERTAINTY_ASSIGNED_CONTEXT ( ( #1034 ) ) GLOBAL_UNIT_ASSIGNED_CONTEXT ( ( #128, #855, #1125 ) ) REPRESENTATION_CONTEXT ( 'NONE', 'WORKASPACE' ) );
#143 = CARTESIAN_POINT ( 'NONE',  ( -3.500000000000000444, -1.836970198721030181E-16, 0.000000000000000000 ) ) ;
#144 =( NAMED_UNIT ( * ) PLANE_ANGLE_UNIT ( ) SI_UNIT ( $, .RADIAN. ) );
#145 = CARTESIAN_POINT ( 'NONE',  ( 15.00000000000000000, -7.499999999999995559, 0.000000000000000000 ) ) ;
#146 = CARTESIAN_POINT ( 'NONE',  ( 2.250000000000000444, 0.000000000000000000, 0.000000000000000000 ) ) ;
#147 = PRODUCT_DEFINITION ( 'UNKNOWN', '', #901, #48 ) ;
#148 = LINE ( 'NONE', #1015, #432 ) ;
#149 = CARTESIAN_POINT ( 'NONE',  ( 4.500000000000000000, -2.250000000000000000, -0.5000000000000000000 ) ) ;
#150 = MANIFOLD_SOLID_BREP ( 'Boss-Extrude1', #1007 ) ;
#151 = UNCERTAINTY_MEASURE_WITH_UNIT (LENGTH_MEASURE( 1.000000000000000082E-05 ), #1116, 'distance_accuracy_value', 'NONE');
#152 = ORIENTED_EDGE ( 'NONE', *, *, #434, .T. ) ;
#153 = LINE ( 'NONE', #514, #303 ) ;
#154 = FACE_BOUND ( 'NONE', #965, .T. ) ;
#155 = LINE ( 'NONE', #500, #698 ) ;
#156 = CARTESIAN_POINT ( 'NONE',  ( 0.7500000000000000000, -1.836970198721030181E-16, 0.000000000000000000 ) ) ;
#157 = EDGE_CURVE ( 'NONE', #538, #994, #931, .T. ) ;
#158 = PRESENTATION_LAYER_ASSIGNMENT (  '', '', ( #820 ) ) ;
#159 = AXIS2_PLACEMENT_3D ( 'NONE', #451, #805, #2 ) ;
#160 = STYLED_ITEM ( 'NONE', ( #1031 ), #1053 ) ;
#161 = FILL_AREA_STYLE_COLOUR ( '', #403 ) ;
#162 = SURFACE_STYLE_FILL_AREA ( #293 ) ;
#163 = ADVANCED_FACE ( 'NONE', ( #133 ), #316, .T. ) ;
#164 = VERTEX_POINT ( 'NONE', #758 ) ;
#165 = PLANE ( 'NONE',  #398 ) ;
#166 = CARTESIAN_POINT ( 'NONE',  ( 0.000000000000000000, 0.2500000000000000000, 0.5000000000000000000 ) ) ;
#167 = ORIENTED_EDGE ( 'NONE', *, *, #6, .T. ) ;
#168 = ORIENTED_EDGE ( 'NONE', *, *, #185, .T. ) ;
#169 = AXIS2_PLACEMENT_3D ( 'NONE', #866, #940, #69 ) ;
#170 = CARTESIAN_POINT ( 'NONE',  ( 4.500000000000000000, 2.250000000000000000, 5.000000000000000000 ) ) ;
#171 = COLOUR_RGB ( '',0.7921568627450980005, 0.8196078431372548767, 0.9333333333333333481 ) ;
#172 = ADVANCED_FACE ( 'NONE', ( #328 ), #674, .F. ) ;
#173 = VECTOR ( 'NONE', #290, 1000.000000000000000 ) ;
#174 =( NAMED_UNIT ( * ) SI_UNIT ( $, .STERADIAN. ) SOLID_ANGLE_UNIT ( ) );
#175 = VERTEX_POINT ( 'NONE', #612 ) ;
#176 = CARTESIAN_POINT ( 'NONE',  ( -2.000000000000000000, 0.000000000000000000, 3.869756473744128566 ) ) ;
#177 = ORIENTED_EDGE ( 'NONE', *, *, #844, .F. ) ;
#178 = CARTESIAN_POINT ( 'NONE',  ( -14.99999999999999289, -7.499999999999998224, 0.000000000000000000 ) ) ;
#179 =( NAMED_UNIT ( * ) SI_UNIT ( $, .STERADIAN. ) SOLID_ANGLE_UNIT ( ) );
#180 = EDGE_LOOP ( 'NONE', ( #625, #361, #615, #997 ) ) ;
#181 = LINE ( 'NONE', #103, #987 ) ;
#182 = PRODUCT ( 'IR_Transceiver_Block', 'IR_Transceiver_Block', '', ( #680 ) ) ;
#183 = CARTESIAN_POINT ( 'NONE',  ( 2.481836216533487960, 0.000000000000000000, 4.800000000000003375 ) ) ;
#184 = VERTEX_POINT ( 'NONE', #255 ) ;
#185 = EDGE_CURVE ( 'NONE', #825, #294, #871, .T. ) ;
#186 = FILL_AREA_STYLE_COLOUR ( '', #401 ) ;
#187 = DIRECTION ( 'NONE',  ( 0.000000000000000000, -1.000000000000000000, 0.000000000000000000 ) ) ;
#188 = ORIENTED_EDGE ( 'NONE', *, *, #1058, .F. ) ;
#189 = DIRECTION ( 'NONE',  ( -0.000000000000000000, -0.000000000000000000, 1.000000000000000000 ) ) ;
#190 = ITEM_DEFINED_TRANSFORMATION ( 'NONE', 'NONE', #67,  #309 ) ;
#191 = MECHANICAL_DESIGN_GEOMETRIC_PRESENTATION_REPRESENTATION (  '', ( #882 ), #91 ) ;
#192 = CARTESIAN_POINT ( 'NONE',  ( 4.500000000000000000, 2.250000000000000000, -0.5000000000000000000 ) ) ;
#193 = CIRCLE ( 'NONE', #22, 0.2318362165334877656 ) ;
#194 = ORIENTED_EDGE ( 'NONE', *, *, #488, .F. ) ;
#195 =( NAMED_UNIT ( * ) SI_UNIT ( $, .STERADIAN. ) SOLID_ANGLE_UNIT ( ) );
#196 = ORIENTED_EDGE ( 'NONE', *, *, #554, .T. ) ;
#197 = EDGE_CURVE ( 'NONE', #568, #1100, #153, .T. ) ;
#198 = FACE_BOUND ( 'NONE', #8, .T. ) ;
#199 = CARTESIAN_POINT ( 'NONE',  ( -2.231836216533487960, 2.839174805041685941E-17, 3.800000000000002931 ) ) ;
#200 = VERTEX_POINT ( 'NONE', #678 ) ;
#201 = SURFACE_SIDE_STYLE ('',( #1008 ) ) ;
#202 = ORIENTED_EDGE ( 'NONE', *, *, #1155, .F. ) ;
#203 = FACE_OUTER_BOUND ( 'NONE', #883, .T. ) ;
#204 = DIRECTION ( 'NONE',  ( -1.000000000000000000, 0.000000000000000000, 0.000000000000000000 ) ) ;
#205 = EDGE_LOOP ( 'NONE', ( #788, #1069, #202, #859 ) ) ;
#206 =( LENGTH_UNIT ( ) NAMED_UNIT ( * ) SI_UNIT ( .MILLI., .METRE. ) );
#207 = ORIENTED_EDGE ( 'NONE', *, *, #683, .F. ) ;
#208 = LINE ( 'NONE', #735, #1067 ) ;
#209 = AXIS2_PLACEMENT_3D ( 'NONE', #1140, #317, #581 ) ;
#210 = AXIS2_PLACEMENT_3D ( 'NONE', #146, #838, #919 ) ;
#211 = DIRECTION ( 'NONE',  ( 0.000000000000000000, -0.000000000000000000, -1.000000000000000000 ) ) ;
#212 = EDGE_LOOP ( 'NONE', ( #529, #1001 ) ) ;
#213 = AXIS2_PLACEMENT_3D ( 'NONE', #139, #301, #1122 ) ;
#214 = PLANE ( 'NONE',  #1012 ) ;
#215 = VECTOR ( 'NONE', #68, 1000.000000000000000 ) ;
#216 = ORIENTED_EDGE ( 'NONE', *, *, #358, .T. ) ;
#217 =( GEOMETRIC_REPRESENTATION_CONTEXT ( 3 ) GLOBAL_UNCERTAINTY_ASSIGNED_CONTEXT ( ( #326 ) ) GLOBAL_UNIT_ASSIGNED_CONTEXT ( ( #613, #693, #179 ) ) REPRESENTATION_CONTEXT ( 'NONE', 'WORKASPACE' ) );
#218 = DIRECTION ( 'NONE',  ( 1.000000000000000000, 0.000000000000000000, 0.000000000000000000 ) ) ;
#219 = SURFACE_STYLE_USAGE ( .BOTH. , #228 ) ;
#220 = ORIENTED_EDGE ( 'NONE', *, *, #84, .F. ) ;
#221 = SURFACE_SIDE_STYLE ('',( #1017 ) ) ;
#222 = FACE_OUTER_BOUND ( 'NONE', #974, .T. ) ;
#223 = ORIENTED_EDGE ( 'NONE', *, *, #1104, .T. ) ;
#224 = CARTESIAN_POINT ( 'NONE',  ( 15.00000000000000000, -7.499999999999995559, 0.000000000000000000 ) ) ;
#225 =( NAMED_UNIT ( * ) SI_UNIT ( $, .STERADIAN. ) SOLID_ANGLE_UNIT ( ) );
#226 = ADVANCED_FACE ( 'NONE', ( #961 ), #165, .F. ) ;
#227 = FILL_AREA_STYLE ('',( #408 ) ) ;
#228 = SURFACE_SIDE_STYLE ('',( #1014 ) ) ;
#229 =( NAMED_UNIT ( * ) SI_UNIT ( $, .STERADIAN. ) SOLID_ANGLE_UNIT ( ) );
#230 = CIRCLE ( 'NONE', #880, 1.500000000000000222 ) ;
#231 = FILL_AREA_STYLE_COLOUR ( '', #470 ) ;
#232 =( GEOMETRIC_REPRESENTATION_CONTEXT ( 3 ) GLOBAL_UNCERTAINTY_ASSIGNED_CONTEXT ( ( #942 ) ) GLOBAL_UNIT_ASSIGNED_CONTEXT ( ( #464, #98, #89 ) ) REPRESENTATION_CONTEXT ( 'NONE', 'WORKASPACE' ) );
#233 = AXIS2_PLACEMENT_3D ( 'NONE', #1002, #31, #218 ) ;
#234 = UNCERTAINTY_MEASURE_WITH_UNIT (LENGTH_MEASURE( 1.000000000000000082E-05 ), #983, 'distance_accuracy_value', 'NONE');
#235 = LINE ( 'NONE', #224, #76 ) ;
#236 = EDGE_CURVE ( 'NONE', #538, #732, #875, .T. ) ;
#237 =( GEOMETRIC_REPRESENTATION_CONTEXT ( 3 ) GLOBAL_UNCERTAINTY_ASSIGNED_CONTEXT ( ( #591 ) ) GLOBAL_UNIT_ASSIGNED_CONTEXT ( ( #426, #600, #995 ) ) REPRESENTATION_CONTEXT ( 'NONE', 'WORKASPACE' ) );
#238 = PRESENTATION_LAYER_ASSIGNMENT (  '', '', ( #24 ) ) ;
#239 = PRESENTATION_STYLE_ASSIGNMENT (( #659 ) ) ;
#240 = PLANE ( 'NONE',  #668 ) ;
#241 = FILL_AREA_STYLE_COLOUR ( '', #617 ) ;
#242 = ADVANCED_FACE ( 'NONE', ( #609 ), #427, .T. ) ;
#243 = SURFACE_STYLE_FILL_AREA ( #1108 ) ;
#244 = DIRECTION ( 'NONE',  ( -1.000000000000000000, 4.818676322157797621E-17, 0.000000000000000000 ) ) ;
#245 = SURFACE_STYLE_USAGE ( .BOTH. , #425 ) ;
#246 = APPLICATION_PROTOCOL_DEFINITION ( 'draft international standard', 'automotive_design', 1998, #837 ) ;
#247 = EDGE_CURVE ( 'NONE', #164, #175, #431, .T. ) ;
#248 = DIRECTION ( 'NONE',  ( 0.000000000000000000, 0.000000000000000000, -1.000000000000000000 ) ) ;
#249 = STYLED_ITEM ( 'NONE', ( #50 ), #172 ) ;
#250 = VECTOR ( 'NONE', #3, 1000.000000000000000 ) ;
#251 = CONICAL_SURFACE ( 'NONE', #687, 1.500000000000000222, 0.06981317007977333455 ) ;
#252 = VERTEX_POINT ( 'NONE', #1020 ) ;
#253 = ORIENTED_EDGE ( 'NONE', *, *, #295, .F. ) ;
#254 = ORIENTED_EDGE ( 'NONE', *, *, #247, .F. ) ;
#255 = CARTESIAN_POINT ( 'NONE',  ( 4.500000000000000000, 2.250000000000000000, -0.5000000000000000000 ) ) ;
#256 = UNCERTAINTY_MEASURE_WITH_UNIT (LENGTH_MEASURE( 1.000000000000000082E-05 ), #1143, 'distance_accuracy_value', 'NONE');
#257 = ITEM_DEFINED_TRANSFORMATION ( 'NONE', 'NONE', #564,  #309 ) ;
#258 = ORIENTED_EDGE ( 'NONE', *, *, #446, .T. ) ;
#259 = ADVANCED_FACE ( 'NONE', ( #781 ), #592, .F. ) ;
#260 = APPLICATION_CONTEXT ( 'automotive_design' ) ;
#261 = DIRECTION ( 'NONE',  ( -0.000000000000000000, -1.000000000000000000, -0.000000000000000000 ) ) ;
#262 = ORIENTED_EDGE ( 'NONE', *, *, #571, .T. ) ;
#263 = DIRECTION ( 'NONE',  ( -0.000000000000000000, -0.000000000000000000, 1.000000000000000000 ) ) ;
#264 = VECTOR ( 'NONE', #12, 1000.000000000000000 ) ;
#265 = ADVANCED_FACE ( 'NONE', ( #532 ), #970, .T. ) ;
#266 = STYLED_ITEM ( 'NONE', ( #817 ), #696 ) ;
#267 = AXIS2_PLACEMENT_3D ( 'NONE', #812, #456, #387 ) ;
#268 = PRODUCT_CONTEXT ( 'NONE', #1055, 'mechanical' ) ;
#269 = AXIS2_PLACEMENT_3D ( 'NONE', #640, #14, #211 ) ;
#270 = ORIENTED_EDGE ( 'NONE', *, *, #960, .F. ) ;
#271 = SURFACE_STYLE_FILL_AREA ( #372 ) ;
#272 = ORIENTED_EDGE ( 'NONE', *, *, #1003, .F. ) ;
#273 = FILL_AREA_STYLE ('',( #1072 ) ) ;
#274 = CONTEXT_DEPENDENT_SHAPE_REPRESENTATION ( #1068, #315 ) ;
#275 = LINE ( 'NONE', #192, #79 ) ;
#276 = DIRECTION ( 'NONE',  ( -1.000000000000000000, 0.000000000000000000, 0.000000000000000000 ) ) ;
#277 = CARTESIAN_POINT ( 'NONE',  ( -14.99999999999999289, -7.499999999999998224, 1.600000000000000089 ) ) ;
#278 = DIRECTION ( 'NONE',  ( -0.000000000000000000, -0.000000000000000000, -1.000000000000000000 ) ) ;
#279 = EDGE_CURVE ( 'NONE', #294, #610, #1090, .T. ) ;
#280 = DIRECTION ( 'NONE',  ( 1.000000000000000000, 0.000000000000000000, 0.000000000000000000 ) ) ;
#281 = LINE ( 'NONE', #102, #762 ) ;
#282 =( NAMED_UNIT ( * ) PLANE_ANGLE_UNIT ( ) SI_UNIT ( $, .RADIAN. ) );
#283 = ORIENTED_EDGE ( 'NONE', *, *, #899, .F. ) ;
#284 = CARTESIAN_POINT ( 'NONE',  ( 0.5000000000000000000, -1.749999999999999778, 5.000000000000000000 ) ) ;
#285 =( GEOMETRIC_REPRESENTATION_CONTEXT ( 3 ) GLOBAL_UNCERTAINTY_ASSIGNED_CONTEXT ( ( #417 ) ) GLOBAL_UNIT_ASSIGNED_CONTEXT ( ( #790, #954, #174 ) ) REPRESENTATION_CONTEXT ( 'NONE', 'WORKASPACE' ) );
#286 = AXIS2_PLACEMENT_3D ( 'NONE', #1102, #125, #307 ) ;
#287 = FACE_OUTER_BOUND ( 'NONE', #1106, .T. ) ;
#288 = AXIS2_PLACEMENT_3D ( 'NONE', #537, #721, #1094 ) ;
#289 = AXIS2_PLACEMENT_3D ( 'NONE', #1092, #360, #814 ) ;
#290 = DIRECTION ( 'NONE',  ( 1.224646799147353207E-16, -1.000000000000000000, 0.000000000000000000 ) ) ;
#291 = VERTEX_POINT ( 'NONE', #178 ) ;
#292 = ORIENTED_EDGE ( 'NONE', *, *, #446, .F. ) ;
#293 = FILL_AREA_STYLE ('',( #382 ) ) ;
#294 = VERTEX_POINT ( 'NONE', #357 ) ;
#295 = EDGE_CURVE ( 'NONE', #611, #184, #889, .T. ) ;
#296 = CARTESIAN_POINT ( 'NONE',  ( 2.250000000000000444, 0.000000000000000000, 3.869756473744128566 ) ) ;
#297 = EDGE_LOOP ( 'NONE', ( #771, #1096, #636, #715 ) ) ;
#298 = FACE_OUTER_BOUND ( 'NONE', #815, .T. ) ;
#299 = DIRECTION ( 'NONE',  ( 0.000000000000000000, 0.000000000000000000, -1.000000000000000000 ) ) ;
#300 = ORIENTED_EDGE ( 'NONE', *, *, #801, .F. ) ;
#301 = DIRECTION ( 'NONE',  ( 1.224646799147353207E-16, 1.000000000000000000, -0.000000000000000000 ) ) ;
#302 = FILL_AREA_STYLE ('',( #561 ) ) ;
#303 = VECTOR ( 'NONE', #967, 1000.000000000000000 ) ;
#304 = CARTESIAN_POINT ( 'NONE',  ( 15.00000000000000000, 7.500000000000004441, 1.600000000000000089 ) ) ;
#305 = CIRCLE ( 'NONE', #414, 0.2318362165334877656 ) ;
#306 = MECHANICAL_DESIGN_GEOMETRIC_PRESENTATION_REPRESENTATION (  '', ( #266 ), #867 ) ;
#307 = DIRECTION ( 'NONE',  ( -1.000000000000000000, 0.000000000000000000, 0.000000000000000000 ) ) ;
#308 = ORIENTED_EDGE ( 'NONE', *, *, #1115, .F. ) ;
#309 = AXIS2_PLACEMENT_3D ( 'NONE', #839, #752, #761 ) ;
#310 = LINE ( 'NONE', #575, #1048 ) ;
#311 = SURFACE_SIDE_STYLE ('',( #1114 ) ) ;
#312 = SURFACE_SIDE_STYLE ('',( #41 ) ) ;
#313 = DIRECTION ( 'NONE',  ( 1.000000000000000000, 0.000000000000000000, 0.000000000000000000 ) ) ;
#314 = DIRECTION ( 'NONE',  ( 1.000000000000000000, 0.000000000000000000, 0.000000000000000000 ) ) ;
#315 = PRODUCT_DEFINITION_SHAPE ( 'NONE', 'NONE',  #1161 ) ;
#316 = PLANE ( 'NONE',  #429 ) ;
#317 = DIRECTION ( 'NONE',  ( 0.000000000000000000, -1.000000000000000000, 0.000000000000000000 ) ) ;
#318 = EDGE_CURVE ( 'NONE', #980, #291, #1077, .T. ) ;
#319 = DIRECTION ( 'NONE',  ( -0.000000000000000000, -0.000000000000000000, -1.000000000000000000 ) ) ;
#320 = SURFACE_SIDE_STYLE ('',( #120 ) ) ;
#321 = ORIENTED_EDGE ( 'NONE', *, *, #910, .F. ) ;
#322 = LINE ( 'NONE', #491, #94 ) ;
#323 = CARTESIAN_POINT ( 'NONE',  ( 3.750000000000000888, 0.000000000000000000, 0.000000000000000000 ) ) ;
#324 = STYLED_ITEM ( 'NONE', ( #605 ), #226 ) ;
#325 = PLANE ( 'NONE',  #584 ) ;
#326 = UNCERTAINTY_MEASURE_WITH_UNIT (LENGTH_MEASURE( 1.000000000000000082E-05 ), #613, 'distance_accuracy_value', 'NONE');
#327 = STYLED_ITEM ( 'NONE', ( #749 ), #930 ) ;
#328 = FACE_OUTER_BOUND ( 'NONE', #180, .T. ) ;
#329 = SURFACE_STYLE_FILL_AREA ( #669 ) ;
#330 = DIRECTION ( 'NONE',  ( 0.000000000000000000, 0.000000000000000000, 1.000000000000000000 ) ) ;
#331 = PLANE ( 'NONE',  #209 ) ;
#332 = CARTESIAN_POINT ( 'NONE',  ( 4.500000000000000000, -2.250000000000000000, -0.5000000000000000000 ) ) ;
#333 = ADVANCED_FACE ( 'NONE', ( #203 ), #454, .T. ) ;
#334 = APPLICATION_PROTOCOL_DEFINITION ( 'draft international standard', 'automotive_design', 1998, #260 ) ;
#335 = DIRECTION ( 'NONE',  ( -0.000000000000000000, -0.000000000000000000, 1.000000000000000000 ) ) ;
#336 = FILL_AREA_STYLE ('',( #231 ) ) ;
#337 = ORIENTED_EDGE ( 'NONE', *, *, #441, .T. ) ;
#338 = SHAPE_REPRESENTATION_RELATIONSHIP ( 'NONE' , 'NONE' ,  #1004, #560 ) ;
#339 = ORIENTED_EDGE ( 'NONE', *, *, #415, .F. ) ;
#340 = VECTOR ( 'NONE', #660, 1000.000000000000000 ) ;
#341 = AXIS2_PLACEMENT_3D ( 'NONE', #774, #861, #1145 ) ;
#342 = CIRCLE ( 'NONE', #399, 1.000000000000000000 ) ;
#343 =( NAMED_UNIT ( * ) PLANE_ANGLE_UNIT ( ) SI_UNIT ( $, .RADIAN. ) );
#344 = SHAPE_DEFINITION_REPRESENTATION ( #662, #926 ) ;
#345 = EDGE_CURVE ( 'NONE', #294, #1063, #821, .T. ) ;
#346 = ORIENTED_EDGE ( 'NONE', *, *, #441, .F. ) ;
#347 = DIRECTION ( 'NONE',  ( -1.000000000000000000, 0.000000000000000000, -0.000000000000000000 ) ) ;
#348 = CONTEXT_DEPENDENT_SHAPE_REPRESENTATION ( #137, #43 ) ;
#349 = DIRECTION ( 'NONE',  ( -1.000000000000000000, 0.000000000000000000, -0.000000000000000000 ) ) ;
#350 = VERTEX_POINT ( 'NONE', #369 ) ;
#351 = EDGE_CURVE ( 'NONE', #200, #26, #686, .T. ) ;
#352 = CARTESIAN_POINT ( 'NONE',  ( 0.000000000000000000, -1.749999999999999778, 5.000000000000000000 ) ) ;
#353 = ORIENTED_EDGE ( 'NONE', *, *, #84, .T. ) ;
#354 = SURFACE_SIDE_STYLE ('',( #271 ) ) ;
#355 = VECTOR ( 'NONE', #244, 1000.000000000000000 ) ;
#356 =( GEOMETRIC_REPRESENTATION_CONTEXT ( 3 ) GLOBAL_UNCERTAINTY_ASSIGNED_CONTEXT ( ( #782 ) ) GLOBAL_UNIT_ASSIGNED_CONTEXT ( ( #489, #503, #225 ) ) REPRESENTATION_CONTEXT ( 'NONE', 'WORKASPACE' ) );
#357 = CARTESIAN_POINT ( 'NONE',  ( 0.4999999999999995559, -1.749999999999999778, 0.000000000000000000 ) ) ;
#358 = EDGE_CURVE ( 'NONE', #101, #175, #1082, .T. ) ;
#359 = VECTOR ( 'NONE', #1023, 1000.000000000000000 ) ;
#360 = DIRECTION ( 'NONE',  ( 0.000000000000000000, -1.000000000000000000, 0.000000000000000000 ) ) ;
#361 = ORIENTED_EDGE ( 'NONE', *, *, #772, .T. ) ;
#362 = DIRECTION ( 'NONE',  ( -1.224646799147353207E-16, 1.000000000000000000, 0.000000000000000000 ) ) ;
#363 = ORIENTED_EDGE ( 'NONE', *, *, #791, .F. ) ;
#364 = DIRECTION ( 'NONE',  ( 0.000000000000000000, 0.000000000000000000, 1.000000000000000000 ) ) ;
#365 = ADVANCED_FACE ( 'NONE', ( #198, #23 ), #697, .F. ) ;
#366 = DIRECTION ( 'NONE',  ( -0.000000000000000000, -0.000000000000000000, -1.000000000000000000 ) ) ;
#367 = CARTESIAN_POINT ( 'NONE',  ( 2.250000000000000444, 0.000000000000000000, 3.869756473744128566 ) ) ;
#368 = PLANE ( 'NONE',  #822 ) ;
#369 = CARTESIAN_POINT ( 'NONE',  ( -4.500000000000000000, -2.250000000000000000, 5.000000000000000000 ) ) ;
#370 = ORIENTED_EDGE ( 'NONE', *, *, #586, .F. ) ;
#371 = FACE_OUTER_BOUND ( 'NONE', #840, .T. ) ;
#372 = FILL_AREA_STYLE ('',( #96 ) ) ;
#373 = ORIENTED_EDGE ( 'NONE', *, *, #504, .F. ) ;
#374 = DIRECTION ( 'NONE',  ( -1.000000000000000000, 0.000000000000000000, 0.000000000000000000 ) ) ;
#375 =( GEOMETRIC_REPRESENTATION_CONTEXT ( 3 ) GLOBAL_UNCERTAINTY_ASSIGNED_CONTEXT ( ( #256 ) ) GLOBAL_UNIT_ASSIGNED_CONTEXT ( ( #1143, #682, #1046 ) ) REPRESENTATION_CONTEXT ( 'NONE', 'WORKASPACE' ) );
#376 = PRESENTATION_LAYER_ASSIGNMENT (  '', '', ( #882 ) ) ;
#377 = CARTESIAN_POINT ( 'NONE',  ( 4.000000000000000000, 1.749999999999999778, 5.000000000000000000 ) ) ;
#378 = VECTOR ( 'NONE', #1033, 1000.000000000000000 ) ;
#379 = ORIENTED_EDGE ( 'NONE', *, *, #1086, .F. ) ;
#380 = CIRCLE ( 'NONE', #289, 1.000000000000000000 ) ;
#381 = SURFACE_STYLE_USAGE ( .BOTH. , #201 ) ;
#382 = FILL_AREA_STYLE_COLOUR ( '', #141 ) ;
#383 = ORIENTED_EDGE ( 'NONE', *, *, #488, .T. ) ;
#384 = LINE ( 'NONE', #744, #863 ) ;
#385 = FACE_BOUND ( 'NONE', #1, .T. ) ;
#386 = ORIENTED_EDGE ( 'NONE', *, *, #395, .T. ) ;
#387 = DIRECTION ( 'NONE',  ( -4.625929269271485914E-16, 1.000000000000000000, 0.000000000000000000 ) ) ;
#388 = DIRECTION ( 'NONE',  ( 0.000000000000000000, 0.000000000000000000, -1.000000000000000000 ) ) ;
#389 = ORIENTED_EDGE ( 'NONE', *, *, #977, .F. ) ;
#390 = FILL_AREA_STYLE ('',( #737 ) ) ;
#391 = ORIENTED_EDGE ( 'NONE', *, *, #504, .T. ) ;
#392 = CARTESIAN_POINT ( 'NONE',  ( -4.000000000000000000, 1.749999999999999778, 5.000000000000000000 ) ) ;
#393 = DIRECTION ( 'NONE',  ( 0.000000000000000000, 0.000000000000000000, 1.000000000000000000 ) ) ;
#394 =( NAMED_UNIT ( * ) SI_UNIT ( $, .STERADIAN. ) SOLID_ANGLE_UNIT ( ) );
#395 = EDGE_CURVE ( 'NONE', #252, #1103, #430, .T. ) ;
#396 =( LENGTH_UNIT ( ) NAMED_UNIT ( * ) SI_UNIT ( .MILLI., .METRE. ) );
#397 = PRODUCT ( '15x30_Blank_PCB', '15x30_Blank_PCB', '', ( #268 ) ) ;
#398 = AXIS2_PLACEMENT_3D ( 'NONE', #516, #1152, #1060 ) ;
#399 = AXIS2_PLACEMENT_3D ( 'NONE', #497, #131, #487 ) ;
#400 = DIRECTION ( 'NONE',  ( -0.06975647374412545509, -8.542704229054961664E-18, -0.9975640502598241977 ) ) ;
#401 = COLOUR_RGB ( '',1.000000000000000000, 1.000000000000000000, 1.000000000000000000 ) ;
#402 = ORIENTED_EDGE ( 'NONE', *, *, #1097, .T. ) ;
#403 = COLOUR_RGB ( '',0.7921568627450980005, 0.8196078431372548767, 0.9333333333333333481 ) ;
#404 = DIRECTION ( 'NONE',  ( -1.000000000000000000, 0.000000000000000000, 0.000000000000000000 ) ) ;
#405 = ADVANCED_FACE ( 'NONE', ( #830 ), #1110, .T. ) ;
#406 = DIRECTION ( 'NONE',  ( 0.000000000000000000, -1.000000000000000000, 0.000000000000000000 ) ) ;
#407 = CARTESIAN_POINT ( 'NONE',  ( 0.000000000000000000, -1.749999999999999778, 5.000000000000000000 ) ) ;
#408 = FILL_AREA_STYLE_COLOUR ( '', #738 ) ;
#409 = SURFACE_STYLE_USAGE ( .BOTH. , #770 ) ;
#410 = DIRECTION ( 'NONE',  ( -1.000000000000000000, 0.000000000000000000, 0.000000000000000000 ) ) ;
#411 = CARTESIAN_POINT ( 'NONE',  ( -5.510910596163086597E-16, 2.249999999999998668, 0.000000000000000000 ) ) ;
#412 = AXIS2_PLACEMENT_3D ( 'NONE', #5, #794, #626 ) ;
#413 = CARTESIAN_POINT ( 'NONE',  ( 15.00000000000000000, 7.500000000000004441, 1.600000000000000089 ) ) ;
#414 = AXIS2_PLACEMENT_3D ( 'NONE', #907, #393, #28 ) ;
#415 = EDGE_CURVE ( 'NONE', #60, #825, #1026, .T. ) ;
#416 = VECTOR ( 'NONE', #912, 1000.000000000000000 ) ;
#417 = UNCERTAINTY_MEASURE_WITH_UNIT (LENGTH_MEASURE( 1.000000000000000082E-05 ), #790, 'distance_accuracy_value', 'NONE');
#418 = LINE ( 'NONE', #798, #719 ) ;
#419 = ORIENTED_EDGE ( 'NONE', *, *, #533, .F. ) ;
#420 =( LENGTH_UNIT ( ) NAMED_UNIT ( * ) SI_UNIT ( .MILLI., .METRE. ) );
#421 = APPLICATION_PROTOCOL_DEFINITION ( 'draft international standard', 'automotive_design', 1998, #705 ) ;
#422 = DIRECTION ( 'NONE',  ( -1.000000000000000000, 0.000000000000000000, 0.000000000000000000 ) ) ;
#423 = CARTESIAN_POINT ( 'NONE',  ( -4.500000000000000000, 2.250000000000000000, 5.000000000000000000 ) ) ;
#424 = CARTESIAN_POINT ( 'NONE',  ( -3.500000000000000444, -1.836970198721030181E-16, 0.000000000000000000 ) ) ;
#425 = SURFACE_SIDE_STYLE ('',( #71 ) ) ;
#426 =( LENGTH_UNIT ( ) NAMED_UNIT ( * ) SI_UNIT ( .MILLI., .METRE. ) );
#427 = PLANE ( 'NONE',  #341 ) ;
#428 = LINE ( 'NONE', #963, #802 ) ;
#429 = AXIS2_PLACEMENT_3D ( 'NONE', #1024, #831, #32 ) ;
#430 = CIRCLE ( 'NONE', #213, 1.000000000000000000 ) ;
#431 = LINE ( 'NONE', #170, #896 ) ;
#432 = VECTOR ( 'NONE', #410, 1000.000000000000000 ) ;
#433 = DIRECTION ( 'NONE',  ( 0.000000000000000000, 0.000000000000000000, 1.000000000000000000 ) ) ;
#434 = EDGE_CURVE ( 'NONE', #291, #480, #235, .T. ) ;
#435 = DIRECTION ( 'NONE',  ( 0.000000000000000000, 0.000000000000000000, 1.000000000000000000 ) ) ;
#436 = VERTEX_POINT ( 'NONE', #925 ) ;
#437 = LINE ( 'NONE', #1062, #493 ) ;
#438 = SURFACE_STYLE_FILL_AREA ( #82 ) ;
#439 = SURFACE_STYLE_USAGE ( .BOTH. , #879 ) ;
#440 = EDGE_LOOP ( 'NONE', ( #722, #370, #811, #951 ) ) ;
#441 = EDGE_CURVE ( 'NONE', #164, #350, #310, .T. ) ;
#442 = CARTESIAN_POINT ( 'NONE',  ( -2.000000000000000000, 0.000000000000000000, 0.000000000000000000 ) ) ;
#443 = EDGE_LOOP ( 'NONE', ( #321, #793, #110, #1081 ) ) ;
#444 = DIRECTION ( 'NONE',  ( 1.000000000000000000, -4.818676322157797621E-17, -0.000000000000000000 ) ) ;
#445 = ORIENTED_EDGE ( 'NONE', *, *, #345, .T. ) ;
#446 = EDGE_CURVE ( 'NONE', #471, #1006, #342, .T. ) ;
#447 = CARTESIAN_POINT ( 'NONE',  ( -0.000000000000000000, -1.749999999999999778, -0.000000000000000000 ) ) ;
#448 = STYLED_ITEM ( 'NONE', ( #955 ), #729 ) ;
#449 = VECTOR ( 'NONE', #803, 1000.000000000000000 ) ;
#450 = FACE_OUTER_BOUND ( 'NONE', #924, .T. ) ;
#451 = CARTESIAN_POINT ( 'NONE',  ( 2.250000000000000444, 0.000000000000000000, 0.000000000000000000 ) ) ;
#452 = DIRECTION ( 'NONE',  ( -0.000000000000000000, -0.000000000000000000, 1.000000000000000000 ) ) ;
#453 = ORIENTED_EDGE ( 'NONE', *, *, #15, .F. ) ;
#454 = PLANE ( 'NONE',  #412 ) ;
#455 = VERTEX_POINT ( 'NONE', #841 ) ;
#456 = DIRECTION ( 'NONE',  ( 1.000000000000000000, 4.625929269271485914E-16, -0.000000000000000000 ) ) ;
#457 = FACE_OUTER_BOUND ( 'NONE', #1018, .T. ) ;
#458 = EDGE_LOOP ( 'NONE', ( #667, #550, #1041, #463 ) ) ;
#459 = ADVANCED_FACE ( 'NONE', ( #585 ), #525, .T. ) ;
#460 = ORIENTED_EDGE ( 'NONE', *, *, #38, .T. ) ;
#461 = CARTESIAN_POINT ( 'NONE',  ( -15.00000000000000000, 7.500000000000001776, 1.600000000000000089 ) ) ;
#462 = FACE_OUTER_BOUND ( 'NONE', #989, .T. ) ;
#463 = ORIENTED_EDGE ( 'NONE', *, *, #469, .F. ) ;
#464 =( LENGTH_UNIT ( ) NAMED_UNIT ( * ) SI_UNIT ( .MILLI., .METRE. ) );
#465 = AXIS2_PLACEMENT_3D ( 'NONE', #708, #1156, #909 ) ;
#466 = VECTOR ( 'NONE', #422, 1000.000000000000000 ) ;
#467 = MECHANICAL_DESIGN_GEOMETRIC_PRESENTATION_REPRESENTATION (  '', ( #700 ), #633 ) ;
#468 = DIRECTION ( 'NONE',  ( -1.224646799147353207E-16, 1.000000000000000000, 0.000000000000000000 ) ) ;
#469 = EDGE_CURVE ( 'NONE', #455, #87, #384, .T. ) ;
#470 = COLOUR_RGB ( '',0.2862745098039215508, 0.6627450980392156632, 0.3294117647058823484 ) ;
#471 = VERTEX_POINT ( 'NONE', #1120 ) ;
#472 = CARTESIAN_POINT ( 'NONE',  ( -4.000000000000000000, -1.749999999999999778, 5.000000000000000000 ) ) ;
#473 = CARTESIAN_POINT ( 'NONE',  ( -4.500000000000000000, -2.249999999999999556, -0.5000000000000000000 ) ) ;
#474 = EDGE_LOOP ( 'NONE', ( #391, #1076, #1137, #819 ) ) ;
#475 = CARTESIAN_POINT ( 'NONE',  ( 0.4999999999999995559, 1.749999999999999778, 5.000000000000000000 ) ) ;
#476 = PLANE ( 'NONE',  #685 ) ;
#477 = CARTESIAN_POINT ( 'NONE',  ( -5.510910596163086597E-16, 2.249999999999998668, 5.000000000000000000 ) ) ;
#478 = EDGE_LOOP ( 'NONE', ( #216, #188, #253, #460 ) ) ;
#479 =( NAMED_UNIT ( * ) PLANE_ANGLE_UNIT ( ) SI_UNIT ( $, .RADIAN. ) );
#480 = VERTEX_POINT ( 'NONE', #145 ) ;
#481 = ADVANCED_FACE ( 'NONE', ( #482 ), #562, .T. ) ;
#482 = FACE_OUTER_BOUND ( 'NONE', #443, .T. ) ;
#483 = CARTESIAN_POINT ( 'NONE',  ( -4.500000000000000000, 2.250000000000000000, 5.000000000000000000 ) ) ;
#484 = FILL_AREA_STYLE ('',( #956 ) ) ;
#485 =( LENGTH_UNIT ( ) NAMED_UNIT ( * ) SI_UNIT ( .MILLI., .METRE. ) );
#486 = EDGE_LOOP ( 'NONE', ( #544, #707, #262, #1119 ) ) ;
#487 = DIRECTION ( 'NONE',  ( 0.000000000000000000, 0.000000000000000000, -1.000000000000000000 ) ) ;
#488 = EDGE_CURVE ( 'NONE', #498, #619, #208, .T. ) ;
#489 =( LENGTH_UNIT ( ) NAMED_UNIT ( * ) SI_UNIT ( .MILLI., .METRE. ) );
#490 =( GEOMETRIC_REPRESENTATION_CONTEXT ( 3 ) GLOBAL_UNCERTAINTY_ASSIGNED_CONTEXT ( ( #962 ) ) GLOBAL_UNIT_ASSIGNED_CONTEXT ( ( #420, #622, #111 ) ) REPRESENTATION_CONTEXT ( 'NONE', 'WORKASPACE' ) );
#491 = CARTESIAN_POINT ( 'NONE',  ( 4.000000000000000000, -0.000000000000000000, -0.000000000000000000 ) ) ;
#492 = LINE ( 'NONE', #854, #74 ) ;
#493 = VECTOR ( 'NONE', #973, 1000.000000000000000 ) ;
#494 = CARTESIAN_POINT ( 'NONE',  ( 2.250000000000000444, 0.000000000000000000, 0.000000000000000000 ) ) ;
#495 = VECTOR ( 'NONE', #18, 1000.000000000000000 ) ;
#496 = AXIS2_PLACEMENT_3D ( 'NONE', #296, #706, #204 ) ;
#497 = CARTESIAN_POINT ( 'NONE',  ( -1.768163783466512262, 0.000000000000000000, 3.800000000000002931 ) ) ;
#498 = VERTEX_POINT ( 'NONE', #1111 ) ;
#499 = LINE ( 'NONE', #304, #340 ) ;
#500 = CARTESIAN_POINT ( 'NONE',  ( -4.000000000000000000, -1.749999999999999778, 5.000000000000000000 ) ) ;
#501 = UNCERTAINTY_MEASURE_WITH_UNIT (LENGTH_MEASURE( 1.000000000000000082E-05 ), #597, 'distance_accuracy_value', 'NONE');
#502 =( NAMED_UNIT ( * ) PLANE_ANGLE_UNIT ( ) SI_UNIT ( $, .RADIAN. ) );
#503 =( NAMED_UNIT ( * ) PLANE_ANGLE_UNIT ( ) SI_UNIT ( $, .RADIAN. ) );
#504 = EDGE_CURVE ( 'NONE', #480, #895, #917, .T. ) ;
#505 = FACE_OUTER_BOUND ( 'NONE', #486, .T. ) ;
#506 = SURFACE_SIDE_STYLE ('',( #438 ) ) ;
#507 = DIRECTION ( 'NONE',  ( 1.000000000000000000, -0.000000000000000000, 0.000000000000000000 ) ) ;
#508 = PRESENTATION_LAYER_ASSIGNMENT (  '', '', ( #860 ) ) ;
#509 = DIRECTION ( 'NONE',  ( -0.000000000000000000, -0.000000000000000000, 1.000000000000000000 ) ) ;
#510 = FACE_OUTER_BOUND ( 'NONE', #807, .T. ) ;
#511 = AXIS2_PLACEMENT_3D ( 'NONE', #569, #649, #126 ) ;
#512 = VECTOR ( 'NONE', #725, 1000.000000000000000 ) ;
#513 = COLOUR_RGB ( '',0.2509803921568627416, 0.2509803921568627416, 0.2509803921568627416 ) ;
#514 = CARTESIAN_POINT ( 'NONE',  ( 4.000000000000000000, 0.000000000000000000, 5.000000000000000000 ) ) ;
#515 = EDGE_LOOP ( 'NONE', ( #1142, #836, #608, #300 ) ) ;
#516 = CARTESIAN_POINT ( 'NONE',  ( 15.00000000000000000, 7.500000000000004441, 1.600000000000000089 ) ) ;
#517 = DIRECTION ( 'NONE',  ( 0.000000000000000000, 0.000000000000000000, 1.000000000000000000 ) ) ;
#518 = ORIENTED_EDGE ( 'NONE', *, *, #318, .F. ) ;
#519 = EDGE_CURVE ( 'NONE', #813, #795, #418, .T. ) ;
#520 = DIRECTION ( 'NONE',  ( -0.000000000000000000, 1.000000000000000000, -0.000000000000000000 ) ) ;
#521 = UNCERTAINTY_MEASURE_WITH_UNIT (LENGTH_MEASURE( 1.000000000000000082E-05 ), #396, 'distance_accuracy_value', 'NONE');
#522 = ORIENTED_EDGE ( 'NONE', *, *, #960, .T. ) ;
#523 = MECHANICAL_DESIGN_GEOMETRIC_PRESENTATION_REPRESENTATION (  '', ( #324 ), #375 ) ;
#524 = ORIENTED_EDGE ( 'NONE', *, *, #1086, .T. ) ;
#525 = TOROIDAL_SURFACE ( 'NONE', #511, 0.2318362165334878489, 1.000000000000000000 ) ;
#526 = FILL_AREA_STYLE ('',( #1042 ) ) ;
#527 = STYLED_ITEM ( 'NONE', ( #9 ), #785 ) ;
#528 = AXIS2_PLACEMENT_3D ( 'NONE', #78, #435, #784 ) ;
#529 = ORIENTED_EDGE ( 'NONE', *, *, #15, .T. ) ;
#530 = MANIFOLD_SOLID_BREP ( 'Fillet1', #13 ) ;
#531 = CARTESIAN_POINT ( 'NONE',  ( -4.500000000000000000, -2.249999999999999556, -0.5000000000000000000 ) ) ;
#532 = FACE_OUTER_BOUND ( 'NONE', #1016, .T. ) ;
#533 = EDGE_CURVE ( 'NONE', #1063, #568, #988, .T. ) ;
#534 = DIRECTION ( 'NONE',  ( 0.000000000000000000, 1.000000000000000000, 0.000000000000000000 ) ) ;
#535 = ORIENTED_EDGE ( 'NONE', *, *, #157, .F. ) ;
#536 = LINE ( 'NONE', #1083, #847 ) ;
#537 = CARTESIAN_POINT ( 'NONE',  ( 2.250000000000000444, 0.000000000000000000, 4.800000000000003375 ) ) ;
#538 = VERTEX_POINT ( 'NONE', #10 ) ;
#539 = PRESENTATION_LAYER_ASSIGNMENT (  '', '', ( #75 ) ) ;
#540 = DIRECTION ( 'NONE',  ( -1.000000000000000000, 0.000000000000000000, 0.000000000000000000 ) ) ;
#541 = MECHANICAL_DESIGN_GEOMETRIC_PRESENTATION_REPRESENTATION (  '', ( #327 ), #634 ) ;
#542 = FACE_OUTER_BOUND ( 'NONE', #1045, .T. ) ;
#543 = DIRECTION ( 'NONE',  ( -0.000000000000000000, -0.000000000000000000, 1.000000000000000000 ) ) ;
#544 = ORIENTED_EDGE ( 'NONE', *, *, #683, .T. ) ;
#545 = DIRECTION ( 'NONE',  ( -0.000000000000000000, 1.000000000000000000, -0.000000000000000000 ) ) ;
#546 = DIRECTION ( 'NONE',  ( -1.000000000000000000, 0.000000000000000000, 0.000000000000000000 ) ) ;
#547 = EDGE_LOOP ( 'NONE', ( #624, #743, #638, #1059 ) ) ;
#548 = EDGE_CURVE ( 'NONE', #915, #164, #620, .T. ) ;
#549 = DIRECTION ( 'NONE',  ( -1.000000000000000000, 1.224646799147353207E-16, 0.000000000000000000 ) ) ;
#550 = ORIENTED_EDGE ( 'NONE', *, *, #935, .T. ) ;
#551 =( NAMED_UNIT ( * ) SI_UNIT ( $, .STERADIAN. ) SOLID_ANGLE_UNIT ( ) );
#552 = EDGE_LOOP ( 'NONE', ( #337, #1061, #658, #978 ) ) ;
#553 = CARTESIAN_POINT ( 'NONE',  ( -2.000000000000000000, 0.000000000000000000, 0.000000000000000000 ) ) ;
#554 = EDGE_CURVE ( 'NONE', #574, #611, #181, .T. ) ;
#555 = CARTESIAN_POINT ( 'NONE',  ( 0.5000000000000000000, -1.749999999999999778, 5.000000000000000000 ) ) ;
#556 = ORIENTED_EDGE ( 'NONE', *, *, #1022, .F. ) ;
#557 = DIRECTION ( 'NONE',  ( 1.000000000000000000, 0.000000000000000000, 0.000000000000000000 ) ) ;
#558 = ORIENTED_EDGE ( 'NONE', *, *, #754, .F. ) ;
#559 = DIRECTION ( 'NONE',  ( 0.000000000000000000, -1.000000000000000000, 0.000000000000000000 ) ) ;
#560 = ADVANCED_BREP_SHAPE_REPRESENTATION ( '', ( #150, #309 ), #134 ) ;
#561 = FILL_AREA_STYLE_COLOUR ( '', #914 ) ;
#562 = CONICAL_SURFACE ( 'NONE', #233, 1.500000000000000222, 0.06981317007977333455 ) ;
#563 = EDGE_CURVE ( 'NONE', #45, #471, #46, .T. ) ;
#564 = AXIS2_PLACEMENT_3D ( 'NONE', #166, #433, #1056 ) ;
#565 = ORIENTED_EDGE ( 'NONE', *, *, #586, .T. ) ;
#566 = LINE ( 'NONE', #1079, #900 ) ;
#567 = DIRECTION ( 'NONE',  ( -8.673617379884039170E-17, 1.000000000000000000, 0.000000000000000000 ) ) ;
#568 = VERTEX_POINT ( 'NONE', #806 ) ;
#569 = CARTESIAN_POINT ( 'NONE',  ( -2.000000000000000000, 0.000000000000000000, 3.800000000000002931 ) ) ;
#570 = LINE ( 'NONE', #927, #64 ) ;
#571 = EDGE_CURVE ( 'NONE', #26, #200, #797, .T. ) ;
#572 = PRESENTATION_STYLE_ASSIGNMENT (( #932 ) ) ;
#573 = PLANE ( 'NONE',  #918 ) ;
#574 = VERTEX_POINT ( 'NONE', #531 ) ;
#575 = CARTESIAN_POINT ( 'NONE',  ( 0.5000000000000000000, -2.249999999999999556, 5.000000000000000000 ) ) ;
#576 = DIRECTION ( 'NONE',  ( -0.000000000000000000, -0.000000000000000000, -1.000000000000000000 ) ) ;
#577 = DIRECTION ( 'NONE',  ( -0.06975647374412545509, -8.542704229054961664E-18, -0.9975640502598241977 ) ) ;
#578 =( LENGTH_UNIT ( ) NAMED_UNIT ( * ) SI_UNIT ( .MILLI., .METRE. ) );
#579 = PRESENTATION_LAYER_ASSIGNMENT (  '', '', ( #776 ) ) ;
#580 =( NAMED_UNIT ( * ) SI_UNIT ( $, .STERADIAN. ) SOLID_ANGLE_UNIT ( ) );
#581 = DIRECTION ( 'NONE',  ( 0.000000000000000000, -0.000000000000000000, -1.000000000000000000 ) ) ;
#582 = AXIS2_PLACEMENT_3D ( 'NONE', #943, #728, #314 ) ;
#583 = DIRECTION ( 'NONE',  ( -1.000000000000000000, 0.000000000000000000, 0.000000000000000000 ) ) ;
#584 = AXIS2_PLACEMENT_3D ( 'NONE', #1135, #583, #742 ) ;
#585 = FACE_OUTER_BOUND ( 'NONE', #104, .T. ) ;
#586 = EDGE_CURVE ( 'NONE', #568, #610, #1088, .T. ) ;
#587 = CARTESIAN_POINT ( 'NONE',  ( 15.00000000000000000, -7.499999999999995559, 1.600000000000000089 ) ) ;
#588 =( LENGTH_UNIT ( ) NAMED_UNIT ( * ) SI_UNIT ( .MILLI., .METRE. ) );
#589 = FACE_OUTER_BOUND ( 'NONE', #552, .T. ) ;
#590 = FILL_AREA_STYLE ('',( #241 ) ) ;
#591 = UNCERTAINTY_MEASURE_WITH_UNIT (LENGTH_MEASURE( 1.000000000000000082E-05 ), #426, 'distance_accuracy_value', 'NONE');
#592 = PLANE ( 'NONE',  #1146 ) ;
#593 = ADVANCED_FACE ( 'NONE', ( #457 ), #695, .T. ) ;
#594 =( NAMED_UNIT ( * ) PLANE_ANGLE_UNIT ( ) SI_UNIT ( $, .RADIAN. ) );
#595 =( NAMED_UNIT ( * ) SI_UNIT ( $, .STERADIAN. ) SOLID_ANGLE_UNIT ( ) );
#596 = CARTESIAN_POINT ( 'NONE',  ( -15.00000000000000000, 7.500000000000001776, 0.000000000000000000 ) ) ;
#597 =( LENGTH_UNIT ( ) NAMED_UNIT ( * ) SI_UNIT ( .MILLI., .METRE. ) );
#598 = ORIENTED_EDGE ( 'NONE', *, *, #554, .F. ) ;
#599 = SHAPE_DEFINITION_REPRESENTATION ( #842, #136 ) ;
#600 =( NAMED_UNIT ( * ) PLANE_ANGLE_UNIT ( ) SI_UNIT ( $, .RADIAN. ) );
#601 = MECHANICAL_DESIGN_GEOMETRIC_PRESENTATION_REPRESENTATION (  '', ( #860 ), #969 ) ;
#602 = EDGE_CURVE ( 'NONE', #60, #1063, #716, .T. ) ;
#603 = PRESENTATION_LAYER_ASSIGNMENT (  '', '', ( #448 ) ) ;
#604 =( GEOMETRIC_REPRESENTATION_CONTEXT ( 3 ) GLOBAL_UNCERTAINTY_ASSIGNED_CONTEXT ( ( #151 ) ) GLOBAL_UNIT_ASSIGNED_CONTEXT ( ( #1116, #594, #33 ) ) REPRESENTATION_CONTEXT ( 'NONE', 'WORKASPACE' ) );
#605 = PRESENTATION_STYLE_ASSIGNMENT (( #245 ) ) ;
#606 = DIRECTION ( 'NONE',  ( 1.000000000000000000, 0.000000000000000000, 0.000000000000000000 ) ) ;
#607 = ADVANCED_FACE ( 'NONE', ( #542 ), #368, .F. ) ;
#608 = ORIENTED_EDGE ( 'NONE', *, *, #1104, .F. ) ;
#609 = FACE_OUTER_BOUND ( 'NONE', #646, .T. ) ;
#610 = VERTEX_POINT ( 'NONE', #996 ) ;
#611 = VERTEX_POINT ( 'NONE', #1080 ) ;
#612 = CARTESIAN_POINT ( 'NONE',  ( 4.500000000000000000, 2.250000000000000000, 5.000000000000000000 ) ) ;
#613 =( LENGTH_UNIT ( ) NAMED_UNIT ( * ) SI_UNIT ( .MILLI., .METRE. ) );
#614 = CIRCLE ( 'NONE', #286, 1.229400266793312158 ) ;
#615 = ORIENTED_EDGE ( 'NONE', *, *, #765, .T. ) ;
#616 = MECHANICAL_DESIGN_GEOMETRIC_PRESENTATION_REPRESENTATION (  '', ( #1131 ), #142 ) ;
#617 = COLOUR_RGB ( '',1.000000000000000000, 1.000000000000000000, 1.000000000000000000 ) ;
#618 = EDGE_CURVE ( 'NONE', #574, #350, #437, .T. ) ;
#619 = VERTEX_POINT ( 'NONE', #792 ) ;
#620 = LINE ( 'NONE', #979, #1157 ) ;
#621 = ORIENTED_EDGE ( 'NONE', *, *, #571, .F. ) ;
#622 =( NAMED_UNIT ( * ) PLANE_ANGLE_UNIT ( ) SI_UNIT ( $, .RADIAN. ) );
#623 = CARTESIAN_POINT ( 'NONE',  ( -0.000000000000000000, 1.749999999999999778, -0.000000000000000000 ) ) ;
#624 = ORIENTED_EDGE ( 'NONE', *, *, #935, .F. ) ;
#625 = ORIENTED_EDGE ( 'NONE', *, *, #754, .T. ) ;
#626 = DIRECTION ( 'NONE',  ( 0.000000000000000000, -0.000000000000000000, 1.000000000000000000 ) ) ;
#627 = CARTESIAN_POINT ( 'NONE',  ( 0.000000000000000000, -1.749999999999999778, 0.000000000000000000 ) ) ;
#628 = EDGE_CURVE ( 'NONE', #1057, #1103, #305, .T. ) ;
#629 = CARTESIAN_POINT ( 'NONE',  ( -2.000000000000000000, 0.000000000000000000, 4.800000000000003375 ) ) ;
#630 = CIRCLE ( 'NONE', #757, 0.2318362165334877656 ) ;
#631 = EDGE_LOOP ( 'NONE', ( #152, #833, #874, #692 ) ) ;
#632 = PRESENTATION_LAYER_ASSIGNMENT (  '', '', ( #249 ) ) ;
#633 =( GEOMETRIC_REPRESENTATION_CONTEXT ( 3 ) GLOBAL_UNCERTAINTY_ASSIGNED_CONTEXT ( ( #59 ) ) GLOBAL_UNIT_ASSIGNED_CONTEXT ( ( #578, #502, #394 ) ) REPRESENTATION_CONTEXT ( 'NONE', 'WORKASPACE' ) );
#634 =( GEOMETRIC_REPRESENTATION_CONTEXT ( 3 ) GLOBAL_UNCERTAINTY_ASSIGNED_CONTEXT ( ( #501 ) ) GLOBAL_UNIT_ASSIGNED_CONTEXT ( ( #597, #144, #661 ) ) REPRESENTATION_CONTEXT ( 'NONE', 'WORKASPACE' ) );
#635 = LINE ( 'NONE', #7, #449 ) ;
#636 = ORIENTED_EDGE ( 'NONE', *, *, #1051, .F. ) ;
#637 = CARTESIAN_POINT ( 'NONE',  ( 4.500000000000000000, -2.250000000000000000, -0.5000000000000000000 ) ) ;
#638 = ORIENTED_EDGE ( 'NONE', *, *, #469, .T. ) ;
#639 = EDGE_CURVE ( 'NONE', #1100, #60, #129, .T. ) ;
#640 = CARTESIAN_POINT ( 'NONE',  ( 0.000000000000000000, 1.749999999999999778, 5.000000000000000000 ) ) ;
#641 = FILL_AREA_STYLE ('',( #186 ) ) ;
#642 = CARTESIAN_POINT ( 'NONE',  ( -0.4999999999999997780, 0.000000000000000000, 0.000000000000000000 ) ) ;
#643 = ORIENTED_EDGE ( 'NONE', *, *, #358, .F. ) ;
#644 = ADVANCED_FACE ( 'NONE', ( #154, #835 ), #828, .F. ) ;
#645 = CARTESIAN_POINT ( 'NONE',  ( -0.000000000000000000, 1.749999999999999778, 0.000000000000000000 ) ) ;
#646 = EDGE_LOOP ( 'NONE', ( #80, #196, #34, #522 ) ) ;
#647 = CARTESIAN_POINT ( 'NONE',  ( 4.000000000000000000, 1.749999999999999778, 5.000000000000000000 ) ) ;
#648 = FILL_AREA_STYLE_COLOUR ( '', #115 ) ;
#649 = DIRECTION ( 'NONE',  ( 0.000000000000000000, 0.000000000000000000, 1.000000000000000000 ) ) ;
#650 = CONICAL_SURFACE ( 'NONE', #210, 1.500000000000000444, 0.06981317007977333455 ) ;
#651 = AXIS2_PLACEMENT_3D ( 'NONE', #913, #299, #1139 ) ;
#652 = ADVANCED_FACE ( 'NONE', ( #222 ), #923, .F. ) ;
#653 = CIRCLE ( 'NONE', #159, 1.500000000000000222 ) ;
#654 = CARTESIAN_POINT ( 'NONE',  ( 0.000000000000000000, 0.000000000000000000, 0.000000000000000000 ) ) ;
#655 = ORIENTED_EDGE ( 'NONE', *, *, #709, .F. ) ;
#656 = DIRECTION ( 'NONE',  ( -1.000000000000000000, 0.000000000000000000, 0.000000000000000000 ) ) ;
#657 = SURFACE_SIDE_STYLE ('',( #243 ) ) ;
#658 = ORIENTED_EDGE ( 'NONE', *, *, #99, .F. ) ;
#659 = SURFACE_STYLE_USAGE ( .BOTH. , #311 ) ;
#660 = DIRECTION ( 'NONE',  ( -1.000000000000000000, -8.673617379884035472E-17, 0.000000000000000000 ) ) ;
#661 =( NAMED_UNIT ( * ) SI_UNIT ( $, .STERADIAN. ) SOLID_ANGLE_UNIT ( ) );
#662 = PRODUCT_DEFINITION_SHAPE ( 'NONE', 'NONE',  #870 ) ;
#663 = CARTESIAN_POINT ( 'NONE',  ( 15.00000000000000000, 7.500000000000004441, 0.000000000000000000 ) ) ;
#664 = LINE ( 'NONE', #156, #1030 ) ;
#665 = ADVANCED_FACE ( 'NONE', ( #1133 ), #138, .T. ) ;
#666 = SURFACE_STYLE_USAGE ( .BOTH. , #320 ) ;
#667 = ORIENTED_EDGE ( 'NONE', *, *, #852, .T. ) ;
#668 = AXIS2_PLACEMENT_3D ( 'NONE', #407, #748, #1121 ) ;
#669 = FILL_AREA_STYLE ('',( #51 ) ) ;
#670 = AXIS2_PLACEMENT_3D ( 'NONE', #176, #884, #892 ) ;
#671 = DIRECTION ( 'NONE',  ( -0.000000000000000000, -0.000000000000000000, -1.000000000000000000 ) ) ;
#672 = CIRCLE ( 'NONE', #93, 1.229400266793312158 ) ;
#673 = PRODUCT_DEFINITION ( 'UNKNOWN', '', #1052, #851 ) ;
#674 = PLANE ( 'NONE',  #1027 ) ;
#675 = DIRECTION ( 'NONE',  ( 0.000000000000000000, 1.000000000000000000, 0.000000000000000000 ) ) ;
#676 = LINE ( 'NONE', #642, #777 ) ;
#677 = UNCERTAINTY_MEASURE_WITH_UNIT (LENGTH_MEASURE( 1.000000000000000082E-05 ), #485, 'distance_accuracy_value', 'NONE');
#678 = CARTESIAN_POINT ( 'NONE',  ( -0.4999999999999997780, 0.000000000000000000, 0.000000000000000000 ) ) ;
#679 = EDGE_CURVE ( 'NONE', #471, #200, #676, .T. ) ;
#680 = PRODUCT_CONTEXT ( 'NONE', #975, 'mechanical' ) ;
#681 = DIRECTION ( 'NONE',  ( -0.000000000000000000, -0.000000000000000000, -1.000000000000000000 ) ) ;
#682 =( NAMED_UNIT ( * ) PLANE_ANGLE_UNIT ( ) SI_UNIT ( $, .RADIAN. ) );
#683 = EDGE_CURVE ( 'NONE', #471, #45, #614, .T. ) ;
#684 = VECTOR ( 'NONE', #981, 1000.000000000000000 ) ;
#685 = AXIS2_PLACEMENT_3D ( 'NONE', #730, #121, #1028 ) ;
#686 = CIRCLE ( 'NONE', #953, 1.500000000000000444 ) ;
#687 = AXIS2_PLACEMENT_3D ( 'NONE', #53, #671, #313 ) ;
#688 = CIRCLE ( 'NONE', #886, 1.000000000000000000 ) ;
#689 = DIRECTION ( 'NONE',  ( 1.224646799147353207E-16, -1.000000000000000000, 0.000000000000000000 ) ) ;
#690 = UNCERTAINTY_MEASURE_WITH_UNIT (LENGTH_MEASURE( 1.000000000000000082E-05 ), #936, 'distance_accuracy_value', 'NONE');
#691 = SHAPE_DEFINITION_REPRESENTATION ( #1009, #1004 ) ;
#692 = ORIENTED_EDGE ( 'NONE', *, *, #318, .T. ) ;
#693 =( NAMED_UNIT ( * ) PLANE_ANGLE_UNIT ( ) SI_UNIT ( $, .RADIAN. ) );
#694 = ORIENTED_EDGE ( 'NONE', *, *, #185, .F. ) ;
#695 = PLANE ( 'NONE',  #898 ) ;
#696 = ADVANCED_FACE ( 'NONE', ( #1000 ), #573, .F. ) ;
#697 = PLANE ( 'NONE',  #846 ) ;
#698 = VECTOR ( 'NONE', #576, 1000.000000000000000 ) ;
#699 = VERTEX_POINT ( 'NONE', #928 ) ;
#700 = STYLED_ITEM ( 'NONE', ( #37 ), #405 ) ;
#701 = PRESENTATION_STYLE_ASSIGNMENT (( #787 ) ) ;
#702 = ORIENTED_EDGE ( 'NONE', *, *, #747, .F. ) ;
#703 = MECHANICAL_DESIGN_GEOMETRIC_PRESENTATION_REPRESENTATION (  '', ( #527 ), #1050 ) ;
#704 = SURFACE_STYLE_USAGE ( .BOTH. , #1159 ) ;
#705 = APPLICATION_CONTEXT ( 'automotive_design' ) ;
#706 = DIRECTION ( 'NONE',  ( -0.000000000000000000, -0.000000000000000000, -1.000000000000000000 ) ) ;
#707 = ORIENTED_EDGE ( 'NONE', *, *, #910, .T. ) ;
#708 = CARTESIAN_POINT ( 'NONE',  ( 2.250000000000000444, 0.000000000000000000, 3.800000000000002931 ) ) ;
#709 = EDGE_CURVE ( 'NONE', #994, #21, #61, .T. ) ;
#710 = CARTESIAN_POINT ( 'NONE',  ( -2.000000000000000000, 0.000000000000000000, 4.800000000000003375 ) ) ;
#711 = CARTESIAN_POINT ( 'NONE',  ( -5.510941938624287339E-16, -1.749999999999999778, 5.000000000000000000 ) ) ;
#712 = CARTESIAN_POINT ( 'NONE',  ( 0.4999999999999994449, 2.249999999999998668, 5.000000000000000000 ) ) ;
#713 = DIRECTION ( 'NONE',  ( -0.000000000000000000, 0.000000000000000000, -1.000000000000000000 ) ) ;
#714 = EDGE_CURVE ( 'NONE', #127, #480, #767, .T. ) ;
#715 = ORIENTED_EDGE ( 'NONE', *, *, #519, .F. ) ;
#716 = LINE ( 'NONE', #712, #173 ) ;
#717 = VERTEX_POINT ( 'NONE', #109 ) ;
#718 = CARTESIAN_POINT ( 'NONE',  ( -5.510910596163086597E-16, 2.249999999999998668, 5.000000000000000000 ) ) ;
#719 = VECTOR ( 'NONE', #187, 1000.000000000000000 ) ;
#720 = ORIENTED_EDGE ( 'NONE', *, *, #747, .T. ) ;
#721 = DIRECTION ( 'NONE',  ( 0.000000000000000000, 0.000000000000000000, 1.000000000000000000 ) ) ;
#722 = ORIENTED_EDGE ( 'NONE', *, *, #1149, .F. ) ;
#723 = DIRECTION ( 'NONE',  ( 0.000000000000000000, -0.000000000000000000, 1.000000000000000000 ) ) ;
#724 = EDGE_LOOP ( 'NONE', ( #535, #908, #108, #702 ) ) ;
#725 = DIRECTION ( 'NONE',  ( 1.000000000000000000, 0.000000000000000000, 0.000000000000000000 ) ) ;
#726 = DIRECTION ( 'NONE',  ( 1.000000000000000000, 0.000000000000000000, 0.000000000000000000 ) ) ;
#727 = VERTEX_POINT ( 'NONE', #1043 ) ;
#728 = DIRECTION ( 'NONE',  ( 0.000000000000000000, 0.000000000000000000, 1.000000000000000000 ) ) ;
#729 = ADVANCED_FACE ( 'NONE', ( #462 ), #20, .F. ) ;
#730 = CARTESIAN_POINT ( 'NONE',  ( -5.510910596163086597E-16, 2.249999999999998668, 5.000000000000000000 ) ) ;
#731 = SHAPE_REPRESENTATION_RELATIONSHIP ( 'NONE' , 'NONE' ,  #136, #1053 ) ;
#732 = VERTEX_POINT ( 'NONE', #711 ) ;
#733 = CARTESIAN_POINT ( 'NONE',  ( -4.000000000000000000, 0.000000000000000000, 5.000000000000000000 ) ) ;
#734 = DIRECTION ( 'NONE',  ( -1.000000000000000000, -8.673617379884039170E-17, 0.000000000000000000 ) ) ;
#735 = CARTESIAN_POINT ( 'NONE',  ( -4.000000000000000000, -0.000000000000000000, 0.000000000000000000 ) ) ;
#736 = COLOUR_RGB ( '',0.2862745098039215508, 0.6627450980392156632, 0.3294117647058823484 ) ;
#737 = FILL_AREA_STYLE_COLOUR ( '', #171 ) ;
#738 = COLOUR_RGB ( '',1.000000000000000000, 1.000000000000000000, 1.000000000000000000 ) ;
#739 = PRESENTATION_LAYER_ASSIGNMENT (  '', '', ( #527 ) ) ;
#740 = LINE ( 'NONE', #483, #843 ) ;
#741 = PRODUCT_DEFINITION_FORMATION_WITH_SPECIFIED_SOURCE ( 'ANY', '', #88, .NOT_KNOWN. ) ;
#742 = DIRECTION ( 'NONE',  ( 0.000000000000000000, 0.000000000000000000, 1.000000000000000000 ) ) ;
#743 = ORIENTED_EDGE ( 'NONE', *, *, #982, .T. ) ;
#744 = CARTESIAN_POINT ( 'NONE',  ( 3.750000000000000888, 0.000000000000000000, 0.000000000000000000 ) ) ;
#745 = CARTESIAN_POINT ( 'NONE',  ( -4.898587196589411843E-16, 1.749999999999999778, 5.000000000000000000 ) ) ;
#746 =( LENGTH_UNIT ( ) NAMED_UNIT ( * ) SI_UNIT ( .MILLI., .METRE. ) );
#747 = EDGE_CURVE ( 'NONE', #994, #498, #566, .T. ) ;
#748 = DIRECTION ( 'NONE',  ( 0.000000000000000000, 1.000000000000000000, 0.000000000000000000 ) ) ;
#749 = PRESENTATION_STYLE_ASSIGNMENT (( #409 ) ) ;
#750 = DIRECTION ( 'NONE',  ( -1.000000000000000000, 0.000000000000000000, -0.000000000000000000 ) ) ;
#751 =( NAMED_UNIT ( * ) PLANE_ANGLE_UNIT ( ) SI_UNIT ( $, .RADIAN. ) );
#752 = DIRECTION ( 'NONE',  ( 0.000000000000000000, 0.000000000000000000, 1.000000000000000000 ) ) ;
#753 = LINE ( 'NONE', #596, #816 ) ;
#754 = EDGE_CURVE ( 'NONE', #727, #980, #999, .T. ) ;
#755 = LINE ( 'NONE', #424, #990 ) ;
#756 = UNCERTAINTY_MEASURE_WITH_UNIT (LENGTH_MEASURE( 1.000000000000000082E-05 ), #746, 'distance_accuracy_value', 'NONE');
#757 = AXIS2_PLACEMENT_3D ( 'NONE', #710, #1078, #280 ) ;
#758 = CARTESIAN_POINT ( 'NONE',  ( 4.500000000000000000, -2.250000000000000000, 5.000000000000000000 ) ) ;
#759 = VECTOR ( 'NONE', #444, 1000.000000000000000 ) ;
#760 = AXIS2_PLACEMENT_3D ( 'NONE', #442, #263, #546 ) ;
#761 = DIRECTION ( 'NONE',  ( 1.000000000000000000, 0.000000000000000000, 0.000000000000000000 ) ) ;
#762 = VECTOR ( 'NONE', #116, 1000.000000000000000 ) ;
#763 = FACE_OUTER_BOUND ( 'NONE', #440, .T. ) ;
#764 = CIRCLE ( 'NONE', #496, 1.229400266793312158 ) ;
#765 = EDGE_CURVE ( 'NONE', #127, #699, #1087, .T. ) ;
#766 = APPLICATION_PROTOCOL_DEFINITION ( 'draft international standard', 'automotive_design', 1998, #975 ) ;
#767 = LINE ( 'NONE', #1095, #1112 ) ;
#768 = FACE_OUTER_BOUND ( 'NONE', #547, .T. ) ;
#769 = APPLICATION_CONTEXT ( 'automotive_design' ) ;
#770 = SURFACE_SIDE_STYLE ('',( #868 ) ) ;
#771 = ORIENTED_EDGE ( 'NONE', *, *, #1126, .F. ) ;
#772 = EDGE_CURVE ( 'NONE', #980, #127, #281, .T. ) ;
#773 = SURFACE_SIDE_STYLE ('',( #162 ) ) ;
#774 = CARTESIAN_POINT ( 'NONE',  ( 0.000000000000000000, 0.000000000000000000, -0.5000000000000000000 ) ) ;
#775 = DIRECTION ( 'NONE',  ( 1.000000000000000000, 0.000000000000000000, 0.000000000000000000 ) ) ;
#776 = STYLED_ITEM ( 'NONE', ( #905 ), #265 ) ;
#777 = VECTOR ( 'NONE', #865, 1000.000000000000227 ) ;
#778 = ORIENTED_EDGE ( 'NONE', *, *, #247, .T. ) ;
#779 = EDGE_LOOP ( 'NONE', ( #383, #1093, #655, #720 ) ) ;
#780 = AXIS2_PLACEMENT_3D ( 'NONE', #873, #248, #349 ) ;
#781 = FACE_OUTER_BOUND ( 'NONE', #474, .T. ) ;
#782 = UNCERTAINTY_MEASURE_WITH_UNIT (LENGTH_MEASURE( 1.000000000000000082E-05 ), #489, 'distance_accuracy_value', 'NONE');
#783 = PRODUCT_CONTEXT ( 'NONE', #260, 'mechanical' ) ;
#784 = DIRECTION ( 'NONE',  ( 1.000000000000000000, 0.000000000000000000, 0.000000000000000000 ) ) ;
#785 = ADVANCED_FACE ( 'NONE', ( #371 ), #35, .T. ) ;
#786 = ORIENTED_EDGE ( 'NONE', *, *, #157, .T. ) ;
#787 = SURFACE_STYLE_USAGE ( .BOTH. , #354 ) ;
#788 = ORIENTED_EDGE ( 'NONE', *, *, #899, .T. ) ;
#789 = PRESENTATION_STYLE_ASSIGNMENT (( #1037 ) ) ;
#790 =( LENGTH_UNIT ( ) NAMED_UNIT ( * ) SI_UNIT ( .MILLI., .METRE. ) );
#791 = EDGE_CURVE ( 'NONE', #964, #1006, #193, .T. ) ;
#792 = CARTESIAN_POINT ( 'NONE',  ( -4.000000000000000000, -1.749999999999999778, 0.000000000000000000 ) ) ;
#793 = ORIENTED_EDGE ( 'NONE', *, *, #563, .T. ) ;
#794 = DIRECTION ( 'NONE',  ( 0.000000000000000000, 1.000000000000000000, 0.000000000000000000 ) ) ;
#795 = VERTEX_POINT ( 'NONE', #472 ) ;
#796 =( GEOMETRIC_REPRESENTATION_CONTEXT ( 3 ) GLOBAL_UNCERTAINTY_ASSIGNED_CONTEXT ( ( #690 ) ) GLOBAL_UNIT_ASSIGNED_CONTEXT ( ( #936, #343, #1138 ) ) REPRESENTATION_CONTEXT ( 'NONE', 'WORKASPACE' ) );
#797 = CIRCLE ( 'NONE', #760, 1.500000000000000444 ) ;
#798 = CARTESIAN_POINT ( 'NONE',  ( -4.000000000000000000, 0.000000000000000000, 5.000000000000000000 ) ) ;
#799 = PRESENTATION_LAYER_ASSIGNMENT (  '', '', ( #327 ) ) ;
#800 = DIRECTION ( 'NONE',  ( 1.000000000000000000, 0.000000000000000000, 0.000000000000000000 ) ) ;
#801 = EDGE_CURVE ( 'NONE', #1100, #717, #922, .T. ) ;
#802 = VECTOR ( 'NONE', #261, 1000.000000000000000 ) ;
#803 = DIRECTION ( 'NONE',  ( 1.000000000000000000, 0.000000000000000000, 0.000000000000000000 ) ) ;
#804 = ORIENTED_EDGE ( 'NONE', *, *, #38, .F. ) ;
#805 = DIRECTION ( 'NONE',  ( -0.000000000000000000, -0.000000000000000000, 1.000000000000000000 ) ) ;
#806 = CARTESIAN_POINT ( 'NONE',  ( 4.000000000000000000, -1.749999999999999778, 5.000000000000000000 ) ) ;
#807 = EDGE_LOOP ( 'NONE', ( #220, #283, #373, #829 ) ) ;
#808 = CARTESIAN_POINT ( 'NONE',  ( 4.500000000000000000, 2.250000000000000000, -0.5000000000000000000 ) ) ;
#809 = EDGE_CURVE ( 'NONE', #619, #21, #834, .T. ) ;
#810 = CARTESIAN_POINT ( 'NONE',  ( 0.000000000000000000, 0.000000000000000000, 5.000000000000000000 ) ) ;
#811 = ORIENTED_EDGE ( 'NONE', *, *, #197, .T. ) ;
#812 = CARTESIAN_POINT ( 'NONE',  ( -15.00000000000000000, 7.500000000000001776, 1.600000000000000089 ) ) ;
#813 = VERTEX_POINT ( 'NONE', #392 ) ;
#814 = DIRECTION ( 'NONE',  ( 0.000000000000000000, 0.000000000000000000, -1.000000000000000000 ) ) ;
#815 = EDGE_LOOP ( 'NONE', ( #194, #272, #888, #11 ) ) ;
#816 = VECTOR ( 'NONE', #945, 1000.000000000000000 ) ;
#817 = PRESENTATION_STYLE_ASSIGNMENT (( #1010 ) ) ;
#818 = COLOUR_RGB ( '',1.000000000000000000, 1.000000000000000000, 1.000000000000000000 ) ;
#819 = ORIENTED_EDGE ( 'NONE', *, *, #714, .T. ) ;
#820 = STYLED_ITEM ( 'NONE', ( #239 ), #150 ) ;
#821 = LINE ( 'NONE', #284, #937 ) ;
#822 = AXIS2_PLACEMENT_3D ( 'NONE', #637, #276, #81 ) ;
#823 = CONICAL_SURFACE ( 'NONE', #972, 1.500000000000000444, 0.06981317007977333455 ) ;
#824 = LINE ( 'NONE', #92, #939 ) ;
#825 = VERTEX_POINT ( 'NONE', #1101 ) ;
#826 = ADVANCED_FACE ( 'NONE', ( #298 ), #214, .T. ) ;
#827 = CARTESIAN_POINT ( 'NONE',  ( -0.000000000000000000, -1.749999999999999778, -0.000000000000000000 ) ) ;
#828 = PLANE ( 'NONE',  #651 ) ;
#829 = ORIENTED_EDGE ( 'NONE', *, *, #434, .F. ) ;
#830 = FACE_OUTER_BOUND ( 'NONE', #904, .T. ) ;
#831 = DIRECTION ( 'NONE',  ( 0.000000000000000000, -1.000000000000000000, 0.000000000000000000 ) ) ;
#832 = CARTESIAN_POINT ( 'NONE',  ( -14.99999999999999289, -7.499999999999998224, 1.600000000000000089 ) ) ;
#833 = ORIENTED_EDGE ( 'NONE', *, *, #714, .F. ) ;
#834 = LINE ( 'NONE', #827, #512 ) ;
#835 = FACE_OUTER_BOUND ( 'NONE', #779, .T. ) ;
#836 = ORIENTED_EDGE ( 'NONE', *, *, #415, .T. ) ;
#837 = APPLICATION_CONTEXT ( 'automotive_design' ) ;
#838 = DIRECTION ( 'NONE',  ( -0.000000000000000000, -0.000000000000000000, -1.000000000000000000 ) ) ;
#839 = CARTESIAN_POINT ( 'NONE',  ( 0.000000000000000000, 0.000000000000000000, 0.000000000000000000 ) ) ;
#840 = EDGE_LOOP ( 'NONE', ( #1109, #911 ) ) ;
#841 = CARTESIAN_POINT ( 'NONE',  ( 3.479400266793312380, 0.000000000000000000, 3.869756473744128566 ) ) ;
#842 = PRODUCT_DEFINITION_SHAPE ( 'NONE', 'NONE',  #673 ) ;
#843 = VECTOR ( 'NONE', #406, 1000.000000000000000 ) ;
#844 = EDGE_CURVE ( 'NONE', #87, #436, #653, .T. ) ;
#845 = DIRECTION ( 'NONE',  ( 0.000000000000000000, 0.000000000000000000, -1.000000000000000000 ) ) ;
#846 = AXIS2_PLACEMENT_3D ( 'NONE', #54, #1019, #750 ) ;
#847 = VECTOR ( 'NONE', #278, 1000.000000000000000 ) ;
#848 = CARTESIAN_POINT ( 'NONE',  ( 0.5000000000000000000, 1.749999999999999778, 5.000000000000000000 ) ) ;
#849 = DIRECTION ( 'NONE',  ( -0.000000000000000000, -0.000000000000000000, -1.000000000000000000 ) ) ;
#850 = DIRECTION ( 'NONE',  ( 1.000000000000000000, 8.673617379884037937E-17, -0.000000000000000000 ) ) ;
#851 = PRODUCT_DEFINITION_CONTEXT ( 'detailed design', #837, 'design' ) ;
#852 = EDGE_CURVE ( 'NONE', #455, #252, #672, .T. ) ;
#853 =( NAMED_UNIT ( * ) PLANE_ANGLE_UNIT ( ) SI_UNIT ( $, .RADIAN. ) );
#854 = CARTESIAN_POINT ( 'NONE',  ( -4.500000000000000000, 2.250000000000000444, -0.5000000000000000000 ) ) ;
#855 =( NAMED_UNIT ( * ) PLANE_ANGLE_UNIT ( ) SI_UNIT ( $, .RADIAN. ) );
#856 = DIRECTION ( 'NONE',  ( -1.000000000000000000, 0.000000000000000000, 0.000000000000000000 ) ) ;
#857 = EDGE_CURVE ( 'NONE', #699, #895, #63, .T. ) ;
#858 = UNCERTAINTY_MEASURE_WITH_UNIT (LENGTH_MEASURE( 1.000000000000000082E-05 ), #588, 'distance_accuracy_value', 'NONE');
#859 = ORIENTED_EDGE ( 'NONE', *, *, #857, .T. ) ;
#860 = STYLED_ITEM ( 'NONE', ( #1105 ), #106 ) ;
#861 = DIRECTION ( 'NONE',  ( 0.000000000000000000, 0.000000000000000000, -1.000000000000000000 ) ) ;
#862 = MECHANICAL_DESIGN_GEOMETRIC_PRESENTATION_REPRESENTATION (  '', ( #820 ), #356 ) ;
#863 = VECTOR ( 'NONE', #1098, 1000.000000000000227 ) ;
#864 = CARTESIAN_POINT ( 'NONE',  ( -10.25000000000000178, 0.2499999999999954481, -1.600000000000000089 ) ) ;
#865 = DIRECTION ( 'NONE',  ( 0.06975647374412545509, 0.000000000000000000, -0.9975640502598241977 ) ) ;
#866 = CARTESIAN_POINT ( 'NONE',  ( -2.000000000000000000, 0.000000000000000000, 4.800000000000003375 ) ) ;
#867 =( GEOMETRIC_REPRESENTATION_CONTEXT ( 3 ) GLOBAL_UNCERTAINTY_ASSIGNED_CONTEXT ( ( #677 ) ) GLOBAL_UNIT_ASSIGNED_CONTEXT ( ( #485, #479, #595 ) ) REPRESENTATION_CONTEXT ( 'NONE', 'WORKASPACE' ) );
#868 = SURFACE_STYLE_FILL_AREA ( #590 ) ;
#869 = CIRCLE ( 'NONE', #528, 0.2318362165334877656 ) ;
#870 = PRODUCT_DEFINITION ( 'UNKNOWN', '', #741, #1123 ) ;
#871 = LINE ( 'NONE', #947, #1085 ) ;
#872 = PRESENTATION_STYLE_ASSIGNMENT (( #439 ) ) ;
#873 = CARTESIAN_POINT ( 'NONE',  ( 0.000000000000000000, 0.000000000000000000, 0.000000000000000000 ) ) ;
#874 = ORIENTED_EDGE ( 'NONE', *, *, #772, .F. ) ;
#875 = LINE ( 'NONE', #73, #986 ) ;
#876 = SURFACE_STYLE_FILL_AREA ( #83 ) ;
#877 = CARTESIAN_POINT ( 'NONE',  ( 0.000000000000000000, 0.000000000000000000, 1.600000000000000089 ) ) ;
#878 = ADVANCED_FACE ( 'NONE', ( #505 ), #251, .T. ) ;
#879 = SURFACE_SIDE_STYLE ('',( #876 ) ) ;
#880 = AXIS2_PLACEMENT_3D ( 'NONE', #1040, #509, #58 ) ;
#881 = CARTESIAN_POINT ( 'NONE',  ( -2.231836216533487960, 8.947492910517502308E-17, 4.800000000000003375 ) ) ;
#882 = STYLED_ITEM ( 'NONE', ( #701 ), #530 ) ;
#883 = EDGE_LOOP ( 'NONE', ( #379, #55, #1150, #906 ) ) ;
#884 = DIRECTION ( 'NONE',  ( -0.000000000000000000, -0.000000000000000000, -1.000000000000000000 ) ) ;
#885 = EDGE_LOOP ( 'NONE', ( #168, #36, #944, #223 ) ) ;
#886 = AXIS2_PLACEMENT_3D ( 'NONE', #199, #25, #549 ) ;
#887 = PRODUCT_RELATED_PRODUCT_CATEGORY ( 'part', '', ( #397 ) ) ;
#888 = ORIENTED_EDGE ( 'NONE', *, *, #519, .T. ) ;
#889 = LINE ( 'NONE', #808, #759 ) ;
#890 = ORIENTED_EDGE ( 'NONE', *, *, #548, .F. ) ;
#891 = ADVANCED_FACE ( 'NONE', ( #763 ), #325, .T. ) ;
#892 = DIRECTION ( 'NONE',  ( -1.000000000000000000, 0.000000000000000000, 0.000000000000000000 ) ) ;
#893 = SURFACE_STYLE_FILL_AREA ( #273 ) ;
#894 = DIRECTION ( 'NONE',  ( -1.000000000000000000, 0.000000000000000000, 0.000000000000000000 ) ) ;
#895 = VERTEX_POINT ( 'NONE', #946 ) ;
#896 = VECTOR ( 'NONE', #520, 1000.000000000000000 ) ;
#897 = DIRECTION ( 'NONE',  ( 0.000000000000000000, 0.000000000000000000, 1.000000000000000000 ) ) ;
#898 = AXIS2_PLACEMENT_3D ( 'NONE', #903, #1075, #362 ) ;
#899 = EDGE_CURVE ( 'NONE', #895, #118, #42, .T. ) ;
#900 = VECTOR ( 'NONE', #656, 1000.000000000000000 ) ;
#901 = PRODUCT_DEFINITION_FORMATION_WITH_SPECIFIED_SOURCE ( 'ANY', '', #397, .NOT_KNOWN. ) ;
#902 = ORIENTED_EDGE ( 'NONE', *, *, #602, .T. ) ;
#903 = CARTESIAN_POINT ( 'NONE',  ( 0.4999999999999994449, 2.249999999999998668, 5.000000000000000000 ) ) ;
#904 = EDGE_LOOP ( 'NONE', ( #959, #1084, #971, #389 ) ) ;
#905 = PRESENTATION_STYLE_ASSIGNMENT (( #704 ) ) ;
#906 = ORIENTED_EDGE ( 'NONE', *, *, #1051, .T. ) ;
#907 = CARTESIAN_POINT ( 'NONE',  ( 2.250000000000000444, 0.000000000000000000, 4.800000000000003375 ) ) ;
#908 = ORIENTED_EDGE ( 'NONE', *, *, #1126, .T. ) ;
#909 = DIRECTION ( 'NONE',  ( 1.000000000000000000, 0.000000000000000000, 0.000000000000000000 ) ) ;
#910 = EDGE_CURVE ( 'NONE', #45, #26, #755, .T. ) ;
#911 = ORIENTED_EDGE ( 'NONE', *, *, #977, .T. ) ;
#912 = DIRECTION ( 'NONE',  ( -0.000000000000000000, -0.000000000000000000, -1.000000000000000000 ) ) ;
#913 = CARTESIAN_POINT ( 'NONE',  ( 0.000000000000000000, 0.000000000000000000, 0.000000000000000000 ) ) ;
#914 = COLOUR_RGB ( '',0.2862745098039215508, 0.6627450980392156632, 0.3294117647058823484 ) ;
#915 = VERTEX_POINT ( 'NONE', #332 ) ;
#916 = PRESENTATION_LAYER_ASSIGNMENT (  '', '', ( #266 ) ) ;
#917 = LINE ( 'NONE', #663, #359 ) ;
#918 = AXIS2_PLACEMENT_3D ( 'NONE', #117, #567, #734 ) ;
#919 = DIRECTION ( 'NONE',  ( 1.000000000000000000, 0.000000000000000000, 0.000000000000000000 ) ) ;
#920 = FACE_BOUND ( 'NONE', #297, .T. ) ;
#921 = ORIENTED_EDGE ( 'NONE', *, *, #57, .F. ) ;
#922 = LINE ( 'NONE', #647, #416 ) ;
#923 = PLANE ( 'NONE',  #1147 ) ;
#924 = EDGE_LOOP ( 'NONE', ( #643, #1054, #346, #778 ) ) ;
#925 = CARTESIAN_POINT ( 'NONE',  ( 0.7500000000000000000, -1.836970198721030181E-16, 0.000000000000000000 ) ) ;
#926 = SHAPE_REPRESENTATION ( 'ir_cliff_sensor', ( #1113, #564, #67 ), #217 ) ;
#927 = CARTESIAN_POINT ( 'NONE',  ( -15.00000000000000000, 7.500000000000001776, 1.600000000000000089 ) ) ;
#928 = CARTESIAN_POINT ( 'NONE',  ( 15.00000000000000000, 7.500000000000004441, 1.600000000000000089 ) ) ;
#929 = ORIENTED_EDGE ( 'NONE', *, *, #639, .F. ) ;
#930 = ADVANCED_FACE ( 'NONE', ( #1118 ), #823, .T. ) ;
#931 = LINE ( 'NONE', #745, #65 ) ;
#932 = SURFACE_STYLE_USAGE ( .BOTH. , #221 ) ;
#933 = ORIENTED_EDGE ( 'NONE', *, *, #1058, .T. ) ;
#934 = DIRECTION ( 'NONE',  ( 0.000000000000000000, 0.000000000000000000, -1.000000000000000000 ) ) ;
#935 = EDGE_CURVE ( 'NONE', #252, #436, #664, .T. ) ;
#936 =( LENGTH_UNIT ( ) NAMED_UNIT ( * ) SI_UNIT ( .MILLI., .METRE. ) );
#937 = VECTOR ( 'NONE', #984, 1000.000000000000000 ) ;
#938 = VECTOR ( 'NONE', #1141, 1000.000000000000000 ) ;
#939 = VECTOR ( 'NONE', #723, 1000.000000000000000 ) ;
#940 = DIRECTION ( 'NONE',  ( 0.000000000000000000, 0.000000000000000000, 1.000000000000000000 ) ) ;
#941 = CARTESIAN_POINT ( 'NONE',  ( 15.00000000000000000, 7.500000000000004441, 0.000000000000000000 ) ) ;
#942 = UNCERTAINTY_MEASURE_WITH_UNIT (LENGTH_MEASURE( 1.000000000000000082E-05 ), #464, 'distance_accuracy_value', 'NONE');
#943 = CARTESIAN_POINT ( 'NONE',  ( 2.250000000000000444, 0.000000000000000000, 3.800000000000002931 ) ) ;
#944 = ORIENTED_EDGE ( 'NONE', *, *, #1149, .T. ) ;
#945 = DIRECTION ( 'NONE',  ( 4.625929269271485914E-16, -1.000000000000000000, 0.000000000000000000 ) ) ;
#946 = CARTESIAN_POINT ( 'NONE',  ( 15.00000000000000000, 7.500000000000004441, 0.000000000000000000 ) ) ;
#947 = CARTESIAN_POINT ( 'NONE',  ( 0.4999999999999994449, 2.249999999999998668, 0.000000000000000000 ) ) ;
#948 = CARTESIAN_POINT ( 'NONE',  ( 0.000000000000000000, 1.749999999999999778, 5.000000000000000000 ) ) ;
#949 = ADVANCED_FACE ( 'NONE', ( #510 ), #1025, .T. ) ;
#950 = DIRECTION ( 'NONE',  ( 1.000000000000000000, 0.000000000000000000, 0.000000000000000000 ) ) ;
#951 = ORIENTED_EDGE ( 'NONE', *, *, #801, .T. ) ;
#952 = DIRECTION ( 'NONE',  ( 0.000000000000000000, 0.000000000000000000, -1.000000000000000000 ) ) ;
#953 = AXIS2_PLACEMENT_3D ( 'NONE', #553, #189, #540 ) ;
#954 =( NAMED_UNIT ( * ) PLANE_ANGLE_UNIT ( ) SI_UNIT ( $, .RADIAN. ) );
#955 = PRESENTATION_STYLE_ASSIGNMENT (( #1144 ) ) ;
#956 = FILL_AREA_STYLE_COLOUR ( '', #818 ) ;
#957 = VECTOR ( 'NONE', #545, 1000.000000000000000 ) ;
#958 = DIRECTION ( 'NONE',  ( 1.224646799147353207E-16, -1.000000000000000000, 0.000000000000000000 ) ) ;
#959 = ORIENTED_EDGE ( 'NONE', *, *, #395, .F. ) ;
#960 = EDGE_CURVE ( 'NONE', #184, #915, #428, .T. ) ;
#961 = FACE_OUTER_BOUND ( 'NONE', #205, .T. ) ;
#962 = UNCERTAINTY_MEASURE_WITH_UNIT (LENGTH_MEASURE( 1.000000000000000082E-05 ), #420, 'distance_accuracy_value', 'NONE');
#963 = CARTESIAN_POINT ( 'NONE',  ( 4.500000000000000000, -2.250000000000000000, -0.5000000000000000000 ) ) ;
#964 = VERTEX_POINT ( 'NONE', #881 ) ;
#965 = EDGE_LOOP ( 'NONE', ( #97, #621 ) ) ;
#966 = PRODUCT_RELATED_PRODUCT_CATEGORY ( 'part', '', ( #88 ) ) ;
#967 = DIRECTION ( 'NONE',  ( 0.000000000000000000, 1.000000000000000000, 0.000000000000000000 ) ) ;
#968 = DIRECTION ( 'NONE',  ( 0.000000000000000000, 0.000000000000000000, 1.000000000000000000 ) ) ;
#969 =( GEOMETRIC_REPRESENTATION_CONTEXT ( 3 ) GLOBAL_UNCERTAINTY_ASSIGNED_CONTEXT ( ( #521 ) ) GLOBAL_UNIT_ASSIGNED_CONTEXT ( ( #396, #751, #1129 ) ) REPRESENTATION_CONTEXT ( 'NONE', 'WORKASPACE' ) );
#970 = TOROIDAL_SURFACE ( 'NONE', #465, 0.2318362165334878489, 1.000000000000000000 ) ;
#971 = ORIENTED_EDGE ( 'NONE', *, *, #1022, .T. ) ;
#972 = AXIS2_PLACEMENT_3D ( 'NONE', #494, #319, #950 ) ;
#973 = DIRECTION ( 'NONE',  ( -0.000000000000000000, -0.000000000000000000, 1.000000000000000000 ) ) ;
#974 = EDGE_LOOP ( 'NONE', ( #1153, #308, #804, #598 ) ) ;
#975 = APPLICATION_CONTEXT ( 'automotive_design' ) ;
#976 = DIRECTION ( 'NONE',  ( 0.000000000000000000, 0.000000000000000000, 1.000000000000000000 ) ) ;
#977 = EDGE_CURVE ( 'NONE', #1103, #1057, #869, .T. ) ;
#978 = ORIENTED_EDGE ( 'NONE', *, *, #548, .T. ) ;
#979 = CARTESIAN_POINT ( 'NONE',  ( 4.500000000000000000, -2.250000000000000000, -0.5000000000000000000 ) ) ;
#980 = VERTEX_POINT ( 'NONE', #832 ) ;
#981 = DIRECTION ( 'NONE',  ( -1.000000000000000000, 0.000000000000000000, 0.000000000000000000 ) ) ;
#982 = EDGE_CURVE ( 'NONE', #252, #455, #764, .T. ) ;
#983 =( LENGTH_UNIT ( ) NAMED_UNIT ( * ) SI_UNIT ( .MILLI., .METRE. ) );
#984 = DIRECTION ( 'NONE',  ( 0.000000000000000000, -0.000000000000000000, 1.000000000000000000 ) ) ;
#985 =( GEOMETRIC_REPRESENTATION_CONTEXT ( 3 ) GLOBAL_UNCERTAINTY_ASSIGNED_CONTEXT ( ( #858 ) ) GLOBAL_UNIT_ASSIGNED_CONTEXT ( ( #588, #853, #580 ) ) REPRESENTATION_CONTEXT ( 'NONE', 'WORKASPACE' ) );
#986 = VECTOR ( 'NONE', #689, 1000.000000000000000 ) ;
#987 = VECTOR ( 'NONE', #534, 1000.000000000000000 ) ;
#988 = LINE ( 'NONE', #352, #1130 ) ;
#989 = EDGE_LOOP ( 'NONE', ( #353, #518, #558, #167 ) ) ;
#990 = VECTOR ( 'NONE', #400, 1000.000000000000227 ) ;
#991 = DIRECTION ( 'NONE',  ( 1.000000000000000000, 0.000000000000000000, 0.000000000000000000 ) ) ;
#992 = AXIS2_PLACEMENT_3D ( 'NONE', #810, #713, #894 ) ;
#993 = PLANE ( 'NONE',  #1013 ) ;
#994 = VERTEX_POINT ( 'NONE', #645 ) ;
#995 =( NAMED_UNIT ( * ) SI_UNIT ( $, .STERADIAN. ) SOLID_ANGLE_UNIT ( ) );
#996 = CARTESIAN_POINT ( 'NONE',  ( 4.000000000000000000, -1.749999999999999778, 0.000000000000000000 ) ) ;
#997 = ORIENTED_EDGE ( 'NONE', *, *, #1155, .T. ) ;
#998 = ORIENTED_EDGE ( 'NONE', *, *, #709, .T. ) ;
#999 = LINE ( 'NONE', #461, #495 ) ;
#1000 = FACE_OUTER_BOUND ( 'NONE', #631, .T. ) ;
#1001 = ORIENTED_EDGE ( 'NONE', *, *, #791, .T. ) ;
#1002 = CARTESIAN_POINT ( 'NONE',  ( -2.000000000000000000, 0.000000000000000000, 0.000000000000000000 ) ) ;
#1003 = EDGE_CURVE ( 'NONE', #813, #498, #536, .T. ) ;
#1004 = SHAPE_REPRESENTATION ( '15x30_Blank_PCB', ( #309 ), #134 ) ;
#1005 = PLANE ( 'NONE',  #269 ) ;
#1006 = VERTEX_POINT ( 'NONE', #107 ) ;
#1007 = CLOSED_SHELL ( 'NONE', ( #729, #696, #259, #226, #172, #949 ) ) ;
#1008 = SURFACE_STYLE_FILL_AREA ( #641 ) ;
#1009 = PRODUCT_DEFINITION_SHAPE ( 'NONE', 'NONE',  #147 ) ;
#1010 = SURFACE_STYLE_USAGE ( .BOTH. , #657 ) ;
#1011 = COLOUR_RGB ( '',0.2509803921568627416, 0.2509803921568627416, 0.2509803921568627416 ) ;
#1012 = AXIS2_PLACEMENT_3D ( 'NONE', #733, #1107, #95 ) ;
#1013 = AXIS2_PLACEMENT_3D ( 'NONE', #477, #113, #468 ) ;
#1014 = SURFACE_STYLE_FILL_AREA ( #302 ) ;
#1015 = CARTESIAN_POINT ( 'NONE',  ( 0.000000000000000000, 1.749999999999999778, 5.000000000000000000 ) ) ;
#1016 = EDGE_LOOP ( 'NONE', ( #85, #386, #1089, #556 ) ) ;
#1017 = SURFACE_STYLE_FILL_AREA ( #336 ) ;
#1018 = EDGE_LOOP ( 'NONE', ( #1071, #694, #339, #902 ) ) ;
#1019 = DIRECTION ( 'NONE',  ( 0.000000000000000000, 0.000000000000000000, -1.000000000000000000 ) ) ;
#1020 = CARTESIAN_POINT ( 'NONE',  ( 1.020599733206688065, -1.671275650160180777E-16, 3.869756473744128566 ) ) ;
#1021 = SURFACE_STYLE_USAGE ( .BOTH. , #312 ) ;
#1022 = EDGE_CURVE ( 'NONE', #455, #1057, #380, .T. ) ;
#1023 = DIRECTION ( 'NONE',  ( -0.000000000000000000, 1.000000000000000000, -0.000000000000000000 ) ) ;
#1024 = CARTESIAN_POINT ( 'NONE',  ( 0.000000000000000000, 1.749999999999999778, 5.000000000000000000 ) ) ;
#1025 = PLANE ( 'NONE',  #780 ) ;
#1026 = LINE ( 'NONE', #475, #19 ) ;
#1027 = AXIS2_PLACEMENT_3D ( 'NONE', #877, #952, #347 ) ;
#1028 = DIRECTION ( 'NONE',  ( 0.000000000000000000, -0.000000000000000000, 1.000000000000000000 ) ) ;
#1029 = VECTOR ( 'NONE', #991, 1000.000000000000000 ) ;
#1030 = VECTOR ( 'NONE', #577, 1000.000000000000227 ) ;
#1031 = PRESENTATION_STYLE_ASSIGNMENT (( #1038 ) ) ;
#1032 = MECHANICAL_DESIGN_GEOMETRIC_PRESENTATION_REPRESENTATION (  '', ( #160 ), #604 ) ;
#1033 = DIRECTION ( 'NONE',  ( -1.000000000000000000, -8.673617379884035472E-17, 0.000000000000000000 ) ) ;
#1034 = UNCERTAINTY_MEASURE_WITH_UNIT (LENGTH_MEASURE( 1.000000000000000082E-05 ), #128, 'distance_accuracy_value', 'NONE');
#1035 = ORIENTED_EDGE ( 'NONE', *, *, #602, .F. ) ;
#1036 = ADVANCED_FACE ( 'NONE', ( #100 ), #1005, .T. ) ;
#1037 = SURFACE_STYLE_USAGE ( .BOTH. , #506 ) ;
#1038 = SURFACE_STYLE_USAGE ( .BOTH. , #40 ) ;
#1039 = CARTESIAN_POINT ( 'NONE',  ( -2.000000000000000000, 0.000000000000000000, 3.800000000000002931 ) ) ;
#1040 = CARTESIAN_POINT ( 'NONE',  ( 2.250000000000000444, 0.000000000000000000, 0.000000000000000000 ) ) ;
#1041 = ORIENTED_EDGE ( 'NONE', *, *, #57, .T. ) ;
#1042 = FILL_AREA_STYLE_COLOUR ( '', #736 ) ;
#1043 = CARTESIAN_POINT ( 'NONE',  ( -15.00000000000000000, 7.500000000000001776, 1.600000000000000089 ) ) ;
#1044 = PLANE ( 'NONE',  #169 ) ;
#1045 = EDGE_LOOP ( 'NONE', ( #933, #254, #890, #270 ) ) ;
#1046 =( NAMED_UNIT ( * ) SI_UNIT ( $, .STERADIAN. ) SOLID_ANGLE_UNIT ( ) );
#1047 = COLOUR_RGB ( '',0.2862745098039215508, 0.6627450980392156632, 0.3294117647058823484 ) ;
#1048 = VECTOR ( 'NONE', #404, 1000.000000000000000 ) ;
#1049 = CARTESIAN_POINT ( 'NONE',  ( 0.000000000000000000, 0.000000000000000000, 0.000000000000000000 ) ) ;
#1050 =( GEOMETRIC_REPRESENTATION_CONTEXT ( 3 ) GLOBAL_UNCERTAINTY_ASSIGNED_CONTEXT ( ( #1136 ) ) GLOBAL_UNIT_ASSIGNED_CONTEXT ( ( #206, #124, #551 ) ) REPRESENTATION_CONTEXT ( 'NONE', 'WORKASPACE' ) );
#1051 = EDGE_CURVE ( 'NONE', #795, #732, #635, .T. ) ;
#1052 = PRODUCT_DEFINITION_FORMATION_WITH_SPECIFIED_SOURCE ( 'ANY', '', #182, .NOT_KNOWN. ) ;
#1053 = ADVANCED_BREP_SHAPE_REPRESENTATION ( '', ( #530, #309 ), #985 ) ;
#1054 = ORIENTED_EDGE ( 'NONE', *, *, #1115, .T. ) ;
#1055 = APPLICATION_CONTEXT ( 'automotive_design' ) ;
#1056 = DIRECTION ( 'NONE',  ( -3.491481338843133355E-15, -1.000000000000000000, 0.000000000000000000 ) ) ;
#1057 = VERTEX_POINT ( 'NONE', #183 ) ;
#1058 = EDGE_CURVE ( 'NONE', #184, #175, #275, .T. ) ;
#1059 = ORIENTED_EDGE ( 'NONE', *, *, #844, .T. ) ;
#1060 = DIRECTION ( 'NONE',  ( 1.000000000000000000, 8.673617379884035472E-17, 0.000000000000000000 ) ) ;
#1061 = ORIENTED_EDGE ( 'NONE', *, *, #618, .F. ) ;
#1062 = CARTESIAN_POINT ( 'NONE',  ( -4.500000000000000000, -2.249999999999999556, -0.5000000000000000000 ) ) ;
#1063 = VERTEX_POINT ( 'NONE', #555 ) ;
#1064 = ADVANCED_FACE ( 'NONE', ( #920, #385, #450 ), #122, .F. ) ;
#1065 = APPLICATION_PROTOCOL_DEFINITION ( 'draft international standard', 'automotive_design', 1998, #1055 ) ;
#1066 = COLOUR_RGB ( '',1.000000000000000000, 1.000000000000000000, 1.000000000000000000 ) ;
#1067 = VECTOR ( 'NONE', #559, 1000.000000000000000 ) ;
#1068 =( REPRESENTATION_RELATIONSHIP ('NONE','NONE', #926, #1004 ) REPRESENTATION_RELATIONSHIP_WITH_TRANSFORMATION ( #190 )SHAPE_REPRESENTATION_RELATIONSHIP( ) );
#1069 = ORIENTED_EDGE ( 'NONE', *, *, #6, .F. ) ;
#1070 = AXIS2_PLACEMENT_3D ( 'NONE', #1049, #968, #77 ) ;
#1071 = ORIENTED_EDGE ( 'NONE', *, *, #345, .F. ) ;
#1072 = FILL_AREA_STYLE_COLOUR ( '', #1066 ) ;
#1073 = ADVANCED_FACE ( 'NONE', ( #287 ), #993, .F. ) ;
#1074 = CARTESIAN_POINT ( 'NONE',  ( 2.018163783466512484, 8.947492910517502308E-17, 4.800000000000003375 ) ) ;
#1075 = DIRECTION ( 'NONE',  ( 1.000000000000000000, 1.224646799147353207E-16, -0.000000000000000000 ) ) ;
#1076 = ORIENTED_EDGE ( 'NONE', *, *, #857, .F. ) ;
#1077 = LINE ( 'NONE', #277, #264 ) ;
#1078 = DIRECTION ( 'NONE',  ( 0.000000000000000000, 0.000000000000000000, 1.000000000000000000 ) ) ;
#1079 = CARTESIAN_POINT ( 'NONE',  ( 0.000000000000000000, 1.749999999999999778, 0.000000000000000000 ) ) ;
#1080 = CARTESIAN_POINT ( 'NONE',  ( -4.500000000000000000, 2.250000000000000444, -0.5000000000000000000 ) ) ;
#1081 = ORIENTED_EDGE ( 'NONE', *, *, #351, .T. ) ;
#1082 = LINE ( 'NONE', #718, #1029 ) ;
#1083 = CARTESIAN_POINT ( 'NONE',  ( -4.000000000000000000, 1.749999999999999778, 5.000000000000000000 ) ) ;
#1084 = ORIENTED_EDGE ( 'NONE', *, *, #852, .F. ) ;
#1085 = VECTOR ( 'NONE', #958, 1000.000000000000000 ) ;
#1086 = EDGE_CURVE ( 'NONE', #21, #732, #824, .T. ) ;
#1087 = LINE ( 'NONE', #27, #957 ) ;
#1088 = LINE ( 'NONE', #86, #250 ) ;
#1089 = ORIENTED_EDGE ( 'NONE', *, *, #628, .F. ) ;
#1090 = LINE ( 'NONE', #447, #112 ) ;
#1091 = PRESENTATION_LAYER_ASSIGNMENT (  '', '', ( #160 ) ) ;
#1092 = CARTESIAN_POINT ( 'NONE',  ( 2.481836216533487960, 0.000000000000000000, 3.800000000000002931 ) ) ;
#1093 = ORIENTED_EDGE ( 'NONE', *, *, #809, .T. ) ;
#1094 = DIRECTION ( 'NONE',  ( 1.000000000000000000, 0.000000000000000000, -0.000000000000000000 ) ) ;
#1095 = CARTESIAN_POINT ( 'NONE',  ( 15.00000000000000000, -7.499999999999995559, 1.600000000000000089 ) ) ;
#1096 = ORIENTED_EDGE ( 'NONE', *, *, #236, .T. ) ;
#1097 = EDGE_CURVE ( 'NONE', #45, #964, #688, .T. ) ;
#1098 = DIRECTION ( 'NONE',  ( 0.06975647374412545509, 0.000000000000000000, -0.9975640502598241977 ) ) ;
#1099 = LINE ( 'NONE', #623, #684 ) ;
#1100 = VERTEX_POINT ( 'NONE', #377 ) ;
#1101 = CARTESIAN_POINT ( 'NONE',  ( 0.4999999999999995559, 1.749999999999999778, -0.000000000000000000 ) ) ;
#1102 = CARTESIAN_POINT ( 'NONE',  ( -2.000000000000000000, 0.000000000000000000, 3.869756473744128566 ) ) ;
#1103 = VERTEX_POINT ( 'NONE', #1074 ) ;
#1104 = EDGE_CURVE ( 'NONE', #717, #825, #1099, .T. ) ;
#1105 = PRESENTATION_STYLE_ASSIGNMENT (( #1021 ) ) ;
#1106 = EDGE_LOOP ( 'NONE', ( #998, #524, #114, #786 ) ) ;
#1107 = DIRECTION ( 'NONE',  ( 1.000000000000000000, 0.000000000000000000, -0.000000000000000000 ) ) ;
#1108 = FILL_AREA_STYLE ('',( #648 ) ) ;
#1109 = ORIENTED_EDGE ( 'NONE', *, *, #628, .T. ) ;
#1110 = TOROIDAL_SURFACE ( 'NONE', #582, 0.2318362165334878489, 1.000000000000000000 ) ;
#1111 = CARTESIAN_POINT ( 'NONE',  ( -4.000000000000000000, 1.749999999999999778, 0.000000000000000000 ) ) ;
#1112 = VECTOR ( 'NONE', #681, 1000.000000000000000 ) ;
#1113 = AXIS2_PLACEMENT_3D ( 'NONE', #654, #976, #775 ) ;
#1114 = SURFACE_STYLE_FILL_AREA ( #390 ) ;
#1115 = EDGE_CURVE ( 'NONE', #101, #350, #740, .T. ) ;
#1116 =( LENGTH_UNIT ( ) NAMED_UNIT ( * ) SI_UNIT ( .MILLI., .METRE. ) );
#1117 = LINE ( 'NONE', #149, #355 ) ;
#1118 = FACE_OUTER_BOUND ( 'NONE', #458, .T. ) ;
#1119 = ORIENTED_EDGE ( 'NONE', *, *, #679, .F. ) ;
#1120 = CARTESIAN_POINT ( 'NONE',  ( -0.7705997332066879535, 0.000000000000000000, 3.869756473744128566 ) ) ;
#1121 = DIRECTION ( 'NONE',  ( 0.000000000000000000, -0.000000000000000000, 1.000000000000000000 ) ) ;
#1122 = DIRECTION ( 'NONE',  ( -1.000000000000000000, 1.224646799147353207E-16, 0.000000000000000000 ) ) ;
#1123 = PRODUCT_DEFINITION_CONTEXT ( 'detailed design', #769, 'design' ) ;
#1124 = FACE_OUTER_BOUND ( 'NONE', #212, .T. ) ;
#1125 =( NAMED_UNIT ( * ) SI_UNIT ( $, .STERADIAN. ) SOLID_ANGLE_UNIT ( ) );
#1126 = EDGE_CURVE ( 'NONE', #538, #813, #148, .T. ) ;
#1127 = MECHANICAL_DESIGN_GEOMETRIC_PRESENTATION_REPRESENTATION (  '', ( #776 ), #232 ) ;
#1128 = AXIS2_PLACEMENT_3D ( 'NONE', #1039, #330, #726 ) ;
#1129 =( NAMED_UNIT ( * ) SI_UNIT ( $, .STERADIAN. ) SOLID_ANGLE_UNIT ( ) );
#1130 = VECTOR ( 'NONE', #1154, 1000.000000000000000 ) ;
#1131 = STYLED_ITEM ( 'NONE', ( #572 ), #949 ) ;
#1132 =( NAMED_UNIT ( * ) PLANE_ANGLE_UNIT ( ) SI_UNIT ( $, .RADIAN. ) );
#1133 = FACE_OUTER_BOUND ( 'NONE', #16, .T. ) ;
#1134 = CARTESIAN_POINT ( 'NONE',  ( -3.229400266793312380, -1.671275650160180777E-16, 3.869756473744128566 ) ) ;
#1135 = CARTESIAN_POINT ( 'NONE',  ( 4.000000000000000000, 0.000000000000000000, 5.000000000000000000 ) ) ;
#1136 = UNCERTAINTY_MEASURE_WITH_UNIT (LENGTH_MEASURE( 1.000000000000000082E-05 ), #206, 'distance_accuracy_value', 'NONE');
#1137 = ORIENTED_EDGE ( 'NONE', *, *, #765, .F. ) ;
#1138 =( NAMED_UNIT ( * ) SI_UNIT ( $, .STERADIAN. ) SOLID_ANGLE_UNIT ( ) );
#1139 = DIRECTION ( 'NONE',  ( -1.000000000000000000, 0.000000000000000000, -0.000000000000000000 ) ) ;
#1140 = CARTESIAN_POINT ( 'NONE',  ( 0.5000000000000000000, -2.249999999999999556, 5.000000000000000000 ) ) ;
#1141 = DIRECTION ( 'NONE',  ( -0.000000000000000000, -0.000000000000000000, -1.000000000000000000 ) ) ;
#1142 = ORIENTED_EDGE ( 'NONE', *, *, #639, .T. ) ;
#1143 =( LENGTH_UNIT ( ) NAMED_UNIT ( * ) SI_UNIT ( .MILLI., .METRE. ) );
#1144 = SURFACE_STYLE_USAGE ( .BOTH. , #773 ) ;
#1145 = DIRECTION ( 'NONE',  ( -1.000000000000000000, 0.000000000000000000, -0.000000000000000000 ) ) ;
#1146 = AXIS2_PLACEMENT_3D ( 'NONE', #105, #374, #364 ) ;
#1147 = AXIS2_PLACEMENT_3D ( 'NONE', #473, #507, #388 ) ;
#1148 = APPLICATION_PROTOCOL_DEFINITION ( 'draft international standard', 'automotive_design', 1998, #769 ) ;
#1149 = EDGE_CURVE ( 'NONE', #610, #717, #322, .T. ) ;
#1150 = ORIENTED_EDGE ( 'NONE', *, *, #30, .F. ) ;
#1151 = FILL_AREA_STYLE_COLOUR ( '', #1047 ) ;
#1152 = DIRECTION ( 'NONE',  ( 8.673617379884035472E-17, -1.000000000000000000, 0.000000000000000000 ) ) ;
#1153 = ORIENTED_EDGE ( 'NONE', *, *, #618, .T. ) ;
#1154 = DIRECTION ( 'NONE',  ( 1.000000000000000000, 0.000000000000000000, 0.000000000000000000 ) ) ;
#1155 = EDGE_CURVE ( 'NONE', #699, #727, #499, .T. ) ;
#1156 = DIRECTION ( 'NONE',  ( 0.000000000000000000, 0.000000000000000000, 1.000000000000000000 ) ) ;
#1157 = VECTOR ( 'NONE', #452, 1000.000000000000000 ) ;
#1158 = ORIENTED_EDGE ( 'NONE', *, *, #279, .F. ) ;
#1159 = SURFACE_SIDE_STYLE ('',( #893 ) ) ;
#1160 = NEXT_ASSEMBLY_USAGE_OCCURRENCE ( 'NAUO1', ' ', ' ', #870, #673, $ ) ;
#1161 = NEXT_ASSEMBLY_USAGE_OCCURRENCE ( 'NAUO2', ' ', ' ', #870, #147, $ ) ;
ENDSEC;
END-ISO-10303-21;
