G04*
G04 #@! TF.GenerationSoftware,Altium Limited,Altium Designer,21.6.4 (81)*
G04*
G04 Layer_Color=8388736*
%FSLAX25Y25*%
%MOIN*%
G70*
G04*
G04 #@! TF.SameCoordinates,CA042318-3998-41E2-BA40-933A6302EA5A*
G04*
G04*
G04 #@! TF.FilePolarity,Negative*
G04*
G01*
G75*
%ADD12C,0.01181*%
%ADD21R,0.04737X0.10642*%
%ADD22R,0.07296X0.07690*%
%ADD23R,0.07690X0.07296*%
%ADD24R,0.07887X0.05524*%
%ADD25C,0.07296*%
%ADD26R,0.07296X0.07296*%
%ADD27O,0.10642X0.07887*%
%ADD28R,0.10642X0.07887*%
%ADD29O,0.09855X0.07887*%
%ADD30R,0.09855X0.07887*%
%ADD31O,0.07887X0.09855*%
%ADD32R,0.07887X0.10642*%
%ADD33O,0.07887X0.10642*%
%ADD34O,0.07887X0.10249*%
%ADD35R,0.07887X0.10249*%
%ADD36O,0.09461X0.07887*%
%ADD37R,0.09461X0.07887*%
%ADD38R,0.08359X0.08359*%
%ADD39C,0.08359*%
%ADD40C,0.05800*%
D12*
X196851Y-196851D02*
Y196850D01*
X-196850Y196851D02*
X196851D01*
X-196850Y-196852D02*
X196851D01*
X-196850D02*
Y196849D01*
D21*
X162142Y-70718D02*
D03*
Y-39281D02*
D03*
X179858Y-70718D02*
D03*
Y-39281D02*
D03*
X15358Y-12281D02*
D03*
Y-43718D02*
D03*
X-2358Y-12281D02*
D03*
Y-43718D02*
D03*
D22*
X29823Y-4000D02*
D03*
X45177D02*
D03*
D23*
X59000Y-111429D02*
D03*
Y-126784D02*
D03*
X3500Y-131823D02*
D03*
Y-147177D02*
D03*
X31000Y-131823D02*
D03*
Y-147177D02*
D03*
D24*
X48700Y-111700D02*
D03*
Y-123600D02*
D03*
X20700Y-132200D02*
D03*
Y-144100D02*
D03*
X-6800Y-132200D02*
D03*
Y-144100D02*
D03*
D25*
X-1559Y-176500D02*
D03*
X12220D02*
D03*
D26*
X26000D02*
D03*
D27*
X-107750Y-167165D02*
D03*
Y-157165D02*
D03*
Y-147165D02*
D03*
X-42000Y-157165D02*
D03*
Y-167165D02*
D03*
X-74875Y-147165D02*
D03*
Y-157165D02*
D03*
Y-167165D02*
D03*
X-140625Y-147165D02*
D03*
Y-157165D02*
D03*
Y-167165D02*
D03*
X-173500Y-147165D02*
D03*
Y-157165D02*
D03*
Y-167165D02*
D03*
X85429Y-152000D02*
D03*
Y-162000D02*
D03*
Y-172000D02*
D03*
Y-98000D02*
D03*
Y-108000D02*
D03*
Y-118000D02*
D03*
X-177001Y137500D02*
D03*
Y127500D02*
D03*
X-177500Y97250D02*
D03*
Y87250D02*
D03*
Y77250D02*
D03*
Y67250D02*
D03*
Y37500D02*
D03*
Y27500D02*
D03*
Y17500D02*
D03*
Y7500D02*
D03*
X181500Y115000D02*
D03*
Y125000D02*
D03*
Y135000D02*
D03*
X182000Y49500D02*
D03*
Y59500D02*
D03*
Y69500D02*
D03*
Y79500D02*
D03*
X181999Y-12500D02*
D03*
Y-2500D02*
D03*
Y7500D02*
D03*
Y17500D02*
D03*
X-29000Y34500D02*
D03*
Y44500D02*
D03*
Y54500D02*
D03*
Y64500D02*
D03*
X21000Y65000D02*
D03*
Y55000D02*
D03*
X172043Y-98000D02*
D03*
Y-108000D02*
D03*
Y-118000D02*
D03*
Y-152000D02*
D03*
Y-162000D02*
D03*
Y-172000D02*
D03*
X114301Y-152000D02*
D03*
Y-162000D02*
D03*
Y-172000D02*
D03*
X143172Y-152000D02*
D03*
Y-162000D02*
D03*
Y-172000D02*
D03*
Y-98000D02*
D03*
Y-108000D02*
D03*
Y-118000D02*
D03*
X114301Y-98000D02*
D03*
Y-108000D02*
D03*
Y-118000D02*
D03*
D28*
X-107750Y-177165D02*
D03*
X-42000D02*
D03*
X-74875D02*
D03*
X-140625D02*
D03*
X-173500D02*
D03*
X85429Y-182000D02*
D03*
Y-128000D02*
D03*
X-177001Y117500D02*
D03*
X-177500Y57250D02*
D03*
Y-2500D02*
D03*
X181500Y145000D02*
D03*
X182000Y89500D02*
D03*
X181999Y27500D02*
D03*
X-29000Y74500D02*
D03*
X21000Y45000D02*
D03*
X172043Y-128000D02*
D03*
Y-182000D02*
D03*
X114301D02*
D03*
X143172D02*
D03*
Y-128000D02*
D03*
X114301D02*
D03*
D29*
X67362Y167677D02*
D03*
Y157677D02*
D03*
Y147677D02*
D03*
Y137677D02*
D03*
Y127677D02*
D03*
Y117677D02*
D03*
Y107677D02*
D03*
Y97677D02*
D03*
Y87677D02*
D03*
Y77677D02*
D03*
Y67677D02*
D03*
Y57677D02*
D03*
Y47677D02*
D03*
Y37677D02*
D03*
Y27677D02*
D03*
Y17677D02*
D03*
Y7677D02*
D03*
Y-2323D02*
D03*
X137362Y167677D02*
D03*
Y157677D02*
D03*
Y147677D02*
D03*
Y137677D02*
D03*
Y127677D02*
D03*
Y117677D02*
D03*
Y107677D02*
D03*
Y97677D02*
D03*
Y87677D02*
D03*
Y77677D02*
D03*
Y67677D02*
D03*
Y57677D02*
D03*
Y47677D02*
D03*
Y37677D02*
D03*
Y27677D02*
D03*
Y17677D02*
D03*
Y7677D02*
D03*
Y-2323D02*
D03*
Y177677D02*
D03*
Y-12323D02*
D03*
X67362D02*
D03*
X-137362D02*
D03*
X-67362D02*
D03*
Y177677D02*
D03*
Y-2323D02*
D03*
Y7677D02*
D03*
Y17677D02*
D03*
Y27677D02*
D03*
Y37677D02*
D03*
Y47677D02*
D03*
Y57677D02*
D03*
Y67677D02*
D03*
Y77677D02*
D03*
Y87677D02*
D03*
Y97677D02*
D03*
Y107677D02*
D03*
Y117677D02*
D03*
Y127677D02*
D03*
Y137677D02*
D03*
Y147677D02*
D03*
Y157677D02*
D03*
Y167677D02*
D03*
X-137362Y-2323D02*
D03*
Y7677D02*
D03*
Y17677D02*
D03*
Y27677D02*
D03*
Y37677D02*
D03*
Y47677D02*
D03*
Y57677D02*
D03*
Y67677D02*
D03*
Y77677D02*
D03*
Y87677D02*
D03*
Y97677D02*
D03*
Y107677D02*
D03*
Y117677D02*
D03*
Y127677D02*
D03*
Y137677D02*
D03*
Y147677D02*
D03*
Y157677D02*
D03*
Y167677D02*
D03*
D30*
X67362Y177677D02*
D03*
X-137362D02*
D03*
D31*
X-87000Y-107500D02*
D03*
X-77000D02*
D03*
X-67000D02*
D03*
X-57000D02*
D03*
X-47000D02*
D03*
X-37000D02*
D03*
X-87000Y-67500D02*
D03*
X-77000D02*
D03*
X-67000D02*
D03*
X-57000D02*
D03*
X-47000D02*
D03*
X-37000D02*
D03*
X-122000Y-67402D02*
D03*
X-132000D02*
D03*
X-142000D02*
D03*
X-152000D02*
D03*
X-162000D02*
D03*
X-172000D02*
D03*
X-122000Y-107402D02*
D03*
X-132000D02*
D03*
X-142000D02*
D03*
X-152000D02*
D03*
X-162000D02*
D03*
X-172000D02*
D03*
D32*
X77833Y-50000D02*
D03*
X54000D02*
D03*
X125500D02*
D03*
X101667D02*
D03*
D33*
X87833D02*
D03*
X64000D02*
D03*
X135500D02*
D03*
X111667D02*
D03*
D34*
X-164000Y174000D02*
D03*
X-184000D02*
D03*
D35*
X-174000D02*
D03*
D36*
X-21500Y117500D02*
D03*
Y107500D02*
D03*
Y127500D02*
D03*
Y137500D02*
D03*
Y147500D02*
D03*
Y157500D02*
D03*
Y167500D02*
D03*
D37*
Y177500D02*
D03*
D38*
X57000Y-178000D02*
D03*
D39*
Y-168000D02*
D03*
Y-158000D02*
D03*
D40*
X-39000Y190500D02*
D03*
X26500Y-113000D02*
D03*
X-29000Y85000D02*
D03*
X113500Y-15000D02*
D03*
X16698Y-152500D02*
D03*
X-1500Y181169D02*
D03*
X156000Y-20000D02*
D03*
X-22500Y98000D02*
D03*
X23000Y31500D02*
D03*
X44500Y105000D02*
D03*
X-16000Y17500D02*
D03*
X55500Y-88500D02*
D03*
X-5000Y-101500D02*
D03*
X171000Y-55000D02*
D03*
X-120500Y4500D02*
D03*
X88500Y104500D02*
D03*
Y111500D02*
D03*
X-83500Y158000D02*
D03*
X-166500Y48000D02*
D03*
X-19500Y186500D02*
D03*
X-46500Y185500D02*
D03*
X-32000Y94000D02*
D03*
X-52000Y95000D02*
D03*
X-46000Y101500D02*
D03*
X-7000Y20000D02*
D03*
X-35500Y-11000D02*
D03*
X-32500Y-3000D02*
D03*
X-43000Y-15500D02*
D03*
X-98000Y-12000D02*
D03*
X-83500Y-41500D02*
D03*
X-109000Y-11000D02*
D03*
X-97500Y-65500D02*
D03*
X-106500Y-65000D02*
D03*
X-99000Y17500D02*
D03*
X-112000Y171500D02*
D03*
X-107000Y178500D02*
D03*
X-164000Y160000D02*
D03*
X-173500Y-91000D02*
D03*
X53500Y-141000D02*
D03*
X-116500Y130500D02*
D03*
X-39500Y71500D02*
D03*
X-11847Y10000D02*
D03*
X188500Y38500D02*
D03*
X-152000Y124500D02*
D03*
X-26500Y2500D02*
D03*
X-151500Y-8000D02*
D03*
X-160000Y27500D02*
D03*
X-91500Y-39000D02*
D03*
X-32500Y-136500D02*
D03*
X-125000Y131000D02*
D03*
X26500Y21000D02*
D03*
Y13500D02*
D03*
X9000Y174500D02*
D03*
X174000Y167500D02*
D03*
X-19500Y-186000D02*
D03*
Y-162000D02*
D03*
X-166500Y-47500D02*
D03*
X184500Y-172000D02*
D03*
Y-118000D02*
D03*
X87500Y-15000D02*
D03*
X104500D02*
D03*
X96000D02*
D03*
X-213Y147287D02*
D03*
X157000Y-140000D02*
D03*
X42000Y-38500D02*
D03*
X-149000Y-47500D02*
D03*
M02*
