M48
;Layer_Color=9474304
;FILE_FORMAT=2:4
INCH,TZ
;TYPE=PLATED
T1F00S00C0.0280
T2F00S00C0.0394
T3F00S00C0.0433
T4F00S00C0.0504
%
T01
X-17350Y-9100
X-16650Y-4750
X-14900
X-10650Y-6500
X-9750Y-6550
X-8350Y-4150
X-500Y-10150
X2650Y-11300
X1670Y-15250
X-1950Y-16200
Y-18600
X-3250Y-13650
X5350Y-14100
X5550Y-8850
X17100Y-5500
X18450Y-11800
X15700Y-14000
X18450Y-17200
X15600Y-2000
X18850Y3850
X11350Y-1500
X10450
X9600
X8750
X4200Y-3850
X2650Y1350
Y2100
X2300Y3150
X-700Y2000
X-1600Y1750
X-1185Y1000
X-2650Y250
X-3250Y-300
X-3550Y-1100
X-3950Y7150
X-2900Y8500
X-3200Y9400
X-2250Y9800
X4450Y10500
X8850Y10450
Y11150
X-4600Y10150
X-5200Y9500
X-4300Y-1550
X-9800Y-1200
X-10900Y-1100
X-12050Y450
X-9900Y1750
X-9150Y-3900
X-15150Y-800
X-16000Y2750
X-16650Y4800
X-15200Y12450
X-12500Y13100
X-11650Y13050
X-11200Y17150
X-10700Y17850
X-8350Y15800
X-4650Y18550
X-16400Y16000
X-3900Y19050
X-1950Y18650
X-150Y18117
X900Y17450
X-21Y14729
X17400Y16750
T02
X-17350Y-17717
Y-16717
Y-15717
Y-14717
X-14062
Y-15717
Y-16717
Y-17717
X-10775
Y-16717
Y-15717
Y-14717
X-7487
Y-15717
Y-16717
Y-17717
X-4200
Y-16717
Y-15717
X-4700Y-10750
X-5700
X-6700
X-7700
X-8700
X-12200Y-10740
X-13200
X-14200
X-15200
X-16200
X-17200
Y-6740
X-16200
X-15200
X-14200
X-13200
X-12200
X-8700Y-6750
X-7700
X-6700
X-5700
X-4700
X-3700
Y-10750
X8543Y-10800
Y-9800
Y-11800
Y-12800
Y-15200
Y-16200
Y-17200
Y-18200
X11430
Y-17200
Y-16200
Y-15200
Y-12800
Y-11800
Y-10800
Y-9800
X11167Y-5000
X10167
X8783
X7783
X6400
X5400
X12550
X13550
X14317Y-9800
Y-10800
Y-11800
Y-12800
Y-15200
Y-16200
Y-17200
Y-18200
X17204
Y-17200
Y-16200
Y-15200
Y-12800
Y-11800
Y-10800
Y-9800
X18200Y-1250
Y-250
Y750
Y1750
Y2750
X18200Y4950
Y5950
Y6950
Y7950
Y8950
X18150Y11500
X13736Y10768
Y9768
Y8768
Y7768
Y6768
Y5768
Y4768
Y3768
Y2768
Y1768
Y768
Y-232
Y-1232
X6736
Y-232
Y768
Y1768
Y2768
Y3768
Y4768
Y5768
Y6768
Y7768
Y8768
Y9768
Y10768
X-2150Y10750
X-2900Y7450
Y6450
Y5450
Y4450
Y3450
X2100Y4500
Y5500
Y6500
X-6736Y6768
Y5768
Y4768
Y3768
Y2768
Y1768
Y768
Y-232
Y-1232
X-13736
Y-232
Y768
Y1768
Y2768
Y3768
Y4768
Y5768
Y6768
Y7768
Y8768
Y9768
Y10768
X-17750Y9725
Y8725
Y7725
Y6725
Y5725
Y3750
Y2750
Y1750
Y750
Y-250
X-6736Y7768
Y8768
Y9768
Y10768
Y11768
Y12768
Y13768
Y14768
Y15768
Y16768
Y17768
X-13736
Y16768
Y15768
Y14768
Y13768
Y12768
Y11768
X-17700Y11750
Y12750
Y13750
X-2150
Y12750
Y11750
Y14750
Y15750
Y16750
Y17750
X6736Y17768
Y16768
Y15768
Y14768
Y13768
Y12768
Y11768
X13736
Y12768
Y13768
Y14768
Y15768
Y16768
Y17768
X18150Y14500
Y13500
Y12500
T03
X-156Y-17650
X1222
X2600
X-16400Y17400
X-17400
X-18400
T04
X5700Y-17800
Y-16800
Y-15800
M30
