G04*
G04 #@! TF.GenerationSoftware,Altium Limited,Altium Designer,21.6.4 (81)*
G04*
G04 Layer_Color=32896*
%FSLAX25Y25*%
%MOIN*%
G70*
G04*
G04 #@! TF.SameCoordinates,CA042318-3998-41E2-BA40-933A6302EA5A*
G04*
G04*
G04 #@! TF.FilePolarity,Positive*
G04*
G01*
G75*
%ADD10C,0.00787*%
%ADD11C,0.01000*%
%ADD12C,0.01181*%
%ADD14C,0.00276*%
%ADD64C,0.00984*%
%ADD73C,0.00500*%
%ADD74R,0.04528X0.14953*%
G36*
X16138Y-13677D02*
X16214Y-13688D01*
X16284Y-13702D01*
X16349Y-13724D01*
X16411Y-13750D01*
X16466Y-13779D01*
X16517Y-13808D01*
X16564Y-13841D01*
X16604Y-13870D01*
X16640Y-13899D01*
X16673Y-13928D01*
X16699Y-13953D01*
X16717Y-13975D01*
X16731Y-13990D01*
X16739Y-14001D01*
X16742Y-14004D01*
X16775Y-14052D01*
X16804Y-14099D01*
X16826Y-14146D01*
X16848Y-14197D01*
X16881Y-14292D01*
X16902Y-14379D01*
X16910Y-14416D01*
X16913Y-14452D01*
X16921Y-14485D01*
Y-14514D01*
X16924Y-14536D01*
Y-14550D01*
Y-14561D01*
Y-14565D01*
X16921Y-14634D01*
X16913Y-14700D01*
X16902Y-14762D01*
X16888Y-14820D01*
X16873Y-14871D01*
X16851Y-14922D01*
X16833Y-14969D01*
X16811Y-15009D01*
X16790Y-15045D01*
X16771Y-15078D01*
X16749Y-15107D01*
X16735Y-15129D01*
X16720Y-15147D01*
X16709Y-15162D01*
X16702Y-15169D01*
X16699Y-15173D01*
X16655Y-15213D01*
X16611Y-15249D01*
X16564Y-15282D01*
X16517Y-15311D01*
X16473Y-15333D01*
X16425Y-15351D01*
X16342Y-15380D01*
X16302Y-15391D01*
X16265Y-15398D01*
X16233Y-15402D01*
X16207Y-15406D01*
X16185Y-15409D01*
X16152D01*
X16091Y-15406D01*
X16029Y-15395D01*
X15974Y-15384D01*
X15923Y-15369D01*
X15883Y-15351D01*
X15850Y-15340D01*
X15829Y-15329D01*
X15825Y-15326D01*
X15821D01*
X15898Y-15755D01*
X16811D01*
Y-16207D01*
X15534D01*
X15286Y-14893D01*
X15676Y-14838D01*
X15708Y-14871D01*
X15741Y-14900D01*
X15774Y-14925D01*
X15807Y-14947D01*
X15869Y-14980D01*
X15927Y-15002D01*
X15978Y-15013D01*
X16014Y-15020D01*
X16029Y-15024D01*
X16051D01*
X16109Y-15020D01*
X16163Y-15005D01*
X16211Y-14987D01*
X16251Y-14965D01*
X16280Y-14940D01*
X16305Y-14922D01*
X16320Y-14907D01*
X16324Y-14904D01*
X16360Y-14856D01*
X16386Y-14802D01*
X16404Y-14743D01*
X16415Y-14685D01*
X16425Y-14634D01*
X16429Y-14594D01*
Y-14576D01*
Y-14565D01*
Y-14558D01*
Y-14554D01*
X16425Y-14467D01*
X16415Y-14390D01*
X16396Y-14328D01*
X16378Y-14277D01*
X16356Y-14234D01*
X16342Y-14205D01*
X16327Y-14190D01*
X16324Y-14183D01*
X16284Y-14143D01*
X16240Y-14110D01*
X16196Y-14088D01*
X16156Y-14074D01*
X16120Y-14066D01*
X16091Y-14063D01*
X16072Y-14059D01*
X16065D01*
X16018Y-14063D01*
X15970Y-14074D01*
X15931Y-14088D01*
X15898Y-14106D01*
X15869Y-14124D01*
X15847Y-14139D01*
X15832Y-14150D01*
X15829Y-14154D01*
X15796Y-14194D01*
X15767Y-14234D01*
X15745Y-14277D01*
X15730Y-14317D01*
X15719Y-14354D01*
X15712Y-14387D01*
X15708Y-14405D01*
Y-14412D01*
X15228Y-14361D01*
X15239Y-14303D01*
X15250Y-14248D01*
X15286Y-14150D01*
X15326Y-14063D01*
X15348Y-14026D01*
X15374Y-13990D01*
X15395Y-13961D01*
X15414Y-13935D01*
X15435Y-13913D01*
X15450Y-13892D01*
X15465Y-13877D01*
X15475Y-13866D01*
X15483Y-13862D01*
X15486Y-13859D01*
X15530Y-13826D01*
X15574Y-13797D01*
X15621Y-13771D01*
X15668Y-13753D01*
X15767Y-13717D01*
X15854Y-13695D01*
X15898Y-13688D01*
X15934Y-13684D01*
X15970Y-13680D01*
X16000Y-13677D01*
X16025Y-13673D01*
X16058D01*
X16138Y-13677D01*
D02*
G37*
G36*
X14496Y-16254D02*
X14103D01*
X14067Y-16170D01*
X14019Y-16094D01*
X13969Y-16021D01*
X13918Y-15963D01*
X13874Y-15915D01*
X13834Y-15879D01*
X13819Y-15864D01*
X13808Y-15854D01*
X13801Y-15850D01*
X13797Y-15846D01*
X13717Y-15788D01*
X13641Y-15737D01*
X13572Y-15697D01*
X13510Y-15668D01*
X13459Y-15646D01*
X13422Y-15628D01*
X13408Y-15624D01*
X13397Y-15621D01*
X13393Y-15617D01*
X13390D01*
Y-15180D01*
X13521Y-15231D01*
X13637Y-15286D01*
X13692Y-15315D01*
X13743Y-15348D01*
X13790Y-15377D01*
X13834Y-15406D01*
X13874Y-15435D01*
X13910Y-15460D01*
X13939Y-15482D01*
X13965Y-15504D01*
X13987Y-15522D01*
X14001Y-15533D01*
X14009Y-15540D01*
X14012Y-15544D01*
Y-13721D01*
X14496D01*
Y-16254D01*
D02*
G37*
G36*
X16917Y-11613D02*
X16448D01*
Y-9917D01*
X15407Y-11613D01*
X14916D01*
Y-9094D01*
X15385D01*
Y-10754D01*
X16408Y-9094D01*
X16917D01*
Y-11613D01*
D02*
G37*
G36*
X14482Y-9520D02*
X13077D01*
Y-10205D01*
X14340D01*
Y-10631D01*
X13077D01*
Y-11187D01*
X14435D01*
Y-11613D01*
X12568D01*
Y-9094D01*
X14482D01*
Y-9520D01*
D02*
G37*
G36*
X12313Y-11657D02*
X11949D01*
X11327Y-9051D01*
X11683D01*
X12313Y-11657D01*
D02*
G37*
G36*
X10663Y-5990D02*
X10233D01*
X9453Y-3976D01*
X9883D01*
X10049Y-4433D01*
X10858D01*
X11033Y-3976D01*
X11472D01*
X10663Y-5990D01*
D02*
G37*
G36*
X16969Y-4334D02*
X16201D01*
X16224Y-4372D01*
X16251Y-4404D01*
X16262Y-4419D01*
X16271Y-4430D01*
X16277Y-4436D01*
X16280Y-4439D01*
X16291Y-4451D01*
X16303Y-4465D01*
X16338Y-4497D01*
X16376Y-4535D01*
X16413Y-4573D01*
X16451Y-4608D01*
X16483Y-4637D01*
X16495Y-4649D01*
X16504Y-4657D01*
X16510Y-4660D01*
X16512Y-4663D01*
X16576Y-4724D01*
X16629Y-4774D01*
X16672Y-4820D01*
X16707Y-4855D01*
X16734Y-4884D01*
X16751Y-4905D01*
X16763Y-4919D01*
X16766Y-4922D01*
X16803Y-4972D01*
X16835Y-5018D01*
X16862Y-5062D01*
X16882Y-5100D01*
X16899Y-5132D01*
X16911Y-5158D01*
X16917Y-5172D01*
X16920Y-5178D01*
X16937Y-5225D01*
X16949Y-5271D01*
X16958Y-5315D01*
X16963Y-5356D01*
X16966Y-5388D01*
X16969Y-5414D01*
Y-5431D01*
Y-5437D01*
X16966Y-5481D01*
X16961Y-5525D01*
X16955Y-5565D01*
X16943Y-5603D01*
X16914Y-5670D01*
X16885Y-5728D01*
X16867Y-5754D01*
X16853Y-5775D01*
X16838Y-5795D01*
X16824Y-5810D01*
X16812Y-5821D01*
X16806Y-5833D01*
X16801Y-5836D01*
X16798Y-5839D01*
X16766Y-5868D01*
X16728Y-5894D01*
X16693Y-5914D01*
X16652Y-5932D01*
X16576Y-5961D01*
X16501Y-5981D01*
X16466Y-5987D01*
X16434Y-5993D01*
X16405Y-5996D01*
X16379Y-5999D01*
X16358Y-6002D01*
X16329D01*
X16280Y-5999D01*
X16233Y-5996D01*
X16143Y-5981D01*
X16067Y-5958D01*
X16032Y-5946D01*
X16000Y-5932D01*
X15971Y-5920D01*
X15948Y-5906D01*
X15925Y-5894D01*
X15907Y-5885D01*
X15893Y-5874D01*
X15884Y-5868D01*
X15878Y-5865D01*
X15875Y-5862D01*
X15843Y-5833D01*
X15814Y-5804D01*
X15788Y-5769D01*
X15765Y-5731D01*
X15730Y-5655D01*
X15700Y-5583D01*
X15692Y-5545D01*
X15683Y-5513D01*
X15674Y-5484D01*
X15671Y-5458D01*
X15666Y-5434D01*
Y-5420D01*
X15663Y-5408D01*
Y-5405D01*
X16047Y-5367D01*
X16053Y-5426D01*
X16064Y-5475D01*
X16076Y-5519D01*
X16091Y-5551D01*
X16102Y-5577D01*
X16114Y-5594D01*
X16123Y-5606D01*
X16125Y-5609D01*
X16154Y-5632D01*
X16186Y-5650D01*
X16218Y-5664D01*
X16251Y-5673D01*
X16277Y-5679D01*
X16300Y-5682D01*
X16320D01*
X16364Y-5679D01*
X16402Y-5670D01*
X16434Y-5658D01*
X16463Y-5647D01*
X16483Y-5635D01*
X16501Y-5623D01*
X16510Y-5615D01*
X16512Y-5612D01*
X16536Y-5583D01*
X16553Y-5551D01*
X16565Y-5519D01*
X16574Y-5487D01*
X16579Y-5458D01*
X16582Y-5431D01*
Y-5417D01*
Y-5414D01*
Y-5411D01*
X16579Y-5367D01*
X16571Y-5327D01*
X16556Y-5286D01*
X16542Y-5251D01*
X16527Y-5219D01*
X16512Y-5196D01*
X16504Y-5181D01*
X16501Y-5175D01*
X16489Y-5158D01*
X16472Y-5138D01*
X16448Y-5111D01*
X16425Y-5088D01*
X16373Y-5033D01*
X16320Y-4977D01*
X16268Y-4925D01*
X16245Y-4902D01*
X16221Y-4884D01*
X16204Y-4867D01*
X16192Y-4855D01*
X16184Y-4846D01*
X16181Y-4844D01*
X16123Y-4788D01*
X16070Y-4736D01*
X16021Y-4686D01*
X15977Y-4643D01*
X15936Y-4599D01*
X15901Y-4558D01*
X15869Y-4524D01*
X15843Y-4488D01*
X15820Y-4459D01*
X15800Y-4433D01*
X15782Y-4413D01*
X15770Y-4392D01*
X15759Y-4381D01*
X15753Y-4369D01*
X15747Y-4363D01*
Y-4360D01*
X15709Y-4294D01*
X15680Y-4224D01*
X15657Y-4160D01*
X15639Y-4101D01*
X15628Y-4049D01*
X15625Y-4029D01*
X15622Y-4011D01*
X15619Y-3997D01*
X15616Y-3985D01*
Y-3979D01*
Y-3976D01*
X16969D01*
Y-4334D01*
D02*
G37*
G36*
X14563Y-3979D02*
X14636Y-3982D01*
X14697Y-3988D01*
X14746Y-3997D01*
X14787Y-4005D01*
X14819Y-4011D01*
X14828Y-4014D01*
X14836D01*
X14839Y-4017D01*
X14842D01*
X14906Y-4040D01*
X14964Y-4067D01*
X15011Y-4093D01*
X15052Y-4119D01*
X15084Y-4142D01*
X15107Y-4160D01*
X15121Y-4171D01*
X15127Y-4177D01*
X15177Y-4233D01*
X15220Y-4291D01*
X15258Y-4352D01*
X15287Y-4407D01*
X15311Y-4459D01*
X15322Y-4480D01*
X15328Y-4497D01*
X15334Y-4515D01*
X15340Y-4526D01*
X15343Y-4532D01*
Y-4535D01*
X15363Y-4605D01*
X15380Y-4678D01*
X15392Y-4747D01*
X15398Y-4814D01*
X15401Y-4846D01*
X15404Y-4876D01*
Y-4899D01*
X15407Y-4922D01*
Y-4940D01*
Y-4951D01*
Y-4960D01*
Y-4963D01*
X15404Y-5065D01*
X15395Y-5155D01*
X15392Y-5199D01*
X15386Y-5236D01*
X15380Y-5274D01*
X15375Y-5306D01*
X15366Y-5335D01*
X15360Y-5362D01*
X15354Y-5385D01*
X15351Y-5402D01*
X15346Y-5417D01*
X15343Y-5429D01*
X15340Y-5434D01*
Y-5437D01*
X15314Y-5507D01*
X15281Y-5571D01*
X15249Y-5626D01*
X15217Y-5673D01*
X15191Y-5711D01*
X15168Y-5740D01*
X15154Y-5757D01*
X15150Y-5763D01*
X15148D01*
X15098Y-5810D01*
X15049Y-5847D01*
X14996Y-5880D01*
X14950Y-5906D01*
X14909Y-5926D01*
X14874Y-5941D01*
X14863Y-5943D01*
X14854Y-5946D01*
X14848Y-5949D01*
X14845D01*
X14790Y-5964D01*
X14729Y-5973D01*
X14665Y-5981D01*
X14604Y-5984D01*
X14548Y-5987D01*
X14525Y-5990D01*
X13722D01*
Y-3976D01*
X14484D01*
X14563Y-3979D01*
D02*
G37*
G36*
X12531D02*
X12604Y-3982D01*
X12665Y-3988D01*
X12715Y-3997D01*
X12756Y-4005D01*
X12788Y-4011D01*
X12796Y-4014D01*
X12805D01*
X12808Y-4017D01*
X12811D01*
X12875Y-4040D01*
X12933Y-4067D01*
X12980Y-4093D01*
X13020Y-4119D01*
X13052Y-4142D01*
X13076Y-4160D01*
X13090Y-4171D01*
X13096Y-4177D01*
X13146Y-4233D01*
X13189Y-4291D01*
X13227Y-4352D01*
X13256Y-4407D01*
X13279Y-4459D01*
X13291Y-4480D01*
X13297Y-4497D01*
X13303Y-4515D01*
X13308Y-4526D01*
X13311Y-4532D01*
Y-4535D01*
X13332Y-4605D01*
X13349Y-4678D01*
X13361Y-4747D01*
X13367Y-4814D01*
X13370Y-4846D01*
X13373Y-4876D01*
Y-4899D01*
X13375Y-4922D01*
Y-4940D01*
Y-4951D01*
Y-4960D01*
Y-4963D01*
X13373Y-5065D01*
X13364Y-5155D01*
X13361Y-5199D01*
X13355Y-5236D01*
X13349Y-5274D01*
X13343Y-5306D01*
X13335Y-5335D01*
X13329Y-5362D01*
X13323Y-5385D01*
X13320Y-5402D01*
X13314Y-5417D01*
X13311Y-5429D01*
X13308Y-5434D01*
Y-5437D01*
X13282Y-5507D01*
X13250Y-5571D01*
X13218Y-5626D01*
X13186Y-5673D01*
X13160Y-5711D01*
X13137Y-5740D01*
X13122Y-5757D01*
X13119Y-5763D01*
X13116D01*
X13067Y-5810D01*
X13017Y-5847D01*
X12965Y-5880D01*
X12919Y-5906D01*
X12878Y-5926D01*
X12843Y-5941D01*
X12831Y-5943D01*
X12822Y-5946D01*
X12817Y-5949D01*
X12814D01*
X12758Y-5964D01*
X12697Y-5973D01*
X12633Y-5981D01*
X12572Y-5984D01*
X12517Y-5987D01*
X12494Y-5990D01*
X11691D01*
Y-3976D01*
X12453D01*
X12531Y-3979D01*
D02*
G37*
G36*
X10663Y-1167D02*
X10233D01*
X9453Y847D01*
X9883D01*
X10049Y390D01*
X10858D01*
X11033Y847D01*
X11472D01*
X10663Y-1167D01*
D02*
G37*
G36*
X16364Y881D02*
X16416Y876D01*
X16463Y867D01*
X16510Y855D01*
X16550Y841D01*
X16591Y826D01*
X16629Y809D01*
X16661Y791D01*
X16690Y774D01*
X16719Y756D01*
X16739Y742D01*
X16760Y727D01*
X16774Y716D01*
X16786Y707D01*
X16792Y701D01*
X16795Y698D01*
X16830Y663D01*
X16859Y625D01*
X16885Y587D01*
X16908Y550D01*
X16926Y509D01*
X16943Y471D01*
X16966Y401D01*
X16972Y369D01*
X16978Y337D01*
X16984Y311D01*
X16987Y288D01*
X16990Y270D01*
Y256D01*
Y247D01*
Y244D01*
X16984Y177D01*
X16972Y119D01*
X16958Y64D01*
X16937Y20D01*
X16917Y-18D01*
X16902Y-44D01*
X16891Y-62D01*
X16885Y-67D01*
X16844Y-111D01*
X16798Y-149D01*
X16751Y-178D01*
X16707Y-201D01*
X16670Y-219D01*
X16637Y-227D01*
X16626Y-233D01*
X16617D01*
X16611Y-236D01*
X16608D01*
X16661Y-268D01*
X16704Y-300D01*
X16742Y-335D01*
X16777Y-370D01*
X16806Y-405D01*
X16830Y-440D01*
X16847Y-475D01*
X16864Y-507D01*
X16876Y-539D01*
X16885Y-568D01*
X16891Y-594D01*
X16894Y-617D01*
X16896Y-635D01*
X16899Y-649D01*
Y-658D01*
Y-661D01*
X16896Y-696D01*
X16894Y-728D01*
X16876Y-792D01*
X16856Y-850D01*
X16830Y-900D01*
X16803Y-940D01*
X16780Y-969D01*
X16771Y-981D01*
X16763Y-990D01*
X16760Y-993D01*
X16757Y-996D01*
X16725Y-1028D01*
X16687Y-1057D01*
X16652Y-1080D01*
X16614Y-1100D01*
X16574Y-1121D01*
X16536Y-1135D01*
X16463Y-1156D01*
X16431Y-1164D01*
X16399Y-1170D01*
X16373Y-1173D01*
X16346Y-1176D01*
X16326Y-1179D01*
X16300D01*
X16239Y-1176D01*
X16184Y-1170D01*
X16131Y-1158D01*
X16088Y-1147D01*
X16053Y-1135D01*
X16024Y-1124D01*
X16006Y-1118D01*
X16003Y-1115D01*
X16000D01*
X15954Y-1089D01*
X15910Y-1060D01*
X15875Y-1030D01*
X15846Y-1004D01*
X15823Y-978D01*
X15805Y-958D01*
X15794Y-946D01*
X15791Y-940D01*
X15765Y-897D01*
X15741Y-850D01*
X15724Y-801D01*
X15706Y-754D01*
X15695Y-710D01*
X15686Y-678D01*
X15683Y-664D01*
Y-655D01*
X15680Y-649D01*
Y-646D01*
X16035Y-588D01*
X16044Y-635D01*
X16056Y-675D01*
X16067Y-710D01*
X16082Y-737D01*
X16096Y-760D01*
X16108Y-777D01*
X16117Y-786D01*
X16120Y-789D01*
X16146Y-812D01*
X16175Y-830D01*
X16204Y-841D01*
X16230Y-850D01*
X16253Y-856D01*
X16271Y-859D01*
X16288D01*
X16323Y-856D01*
X16358Y-850D01*
X16384Y-838D01*
X16408Y-830D01*
X16428Y-818D01*
X16440Y-806D01*
X16448Y-801D01*
X16451Y-798D01*
X16472Y-774D01*
X16486Y-745D01*
X16498Y-719D01*
X16504Y-693D01*
X16510Y-670D01*
X16512Y-652D01*
Y-641D01*
Y-635D01*
X16510Y-591D01*
X16501Y-553D01*
X16486Y-521D01*
X16472Y-495D01*
X16454Y-472D01*
X16443Y-457D01*
X16431Y-446D01*
X16428Y-443D01*
X16393Y-419D01*
X16355Y-402D01*
X16315Y-390D01*
X16277Y-382D01*
X16242Y-379D01*
X16213Y-376D01*
X16186D01*
X16146Y-64D01*
X16184Y-73D01*
X16216Y-82D01*
X16248Y-88D01*
X16274Y-91D01*
X16294Y-94D01*
X16323D01*
X16364Y-91D01*
X16399Y-79D01*
X16431Y-67D01*
X16460Y-50D01*
X16480Y-35D01*
X16498Y-21D01*
X16510Y-9D01*
X16512Y-6D01*
X16539Y29D01*
X16559Y67D01*
X16574Y104D01*
X16585Y142D01*
X16591Y177D01*
X16594Y203D01*
Y221D01*
Y224D01*
Y227D01*
X16591Y282D01*
X16582Y331D01*
X16568Y375D01*
X16553Y410D01*
X16536Y436D01*
X16524Y457D01*
X16512Y471D01*
X16510Y474D01*
X16477Y503D01*
X16443Y526D01*
X16411Y541D01*
X16379Y553D01*
X16350Y558D01*
X16329Y561D01*
X16315Y564D01*
X16309D01*
X16268Y561D01*
X16233Y553D01*
X16201Y541D01*
X16172Y526D01*
X16152Y515D01*
X16134Y503D01*
X16123Y494D01*
X16120Y491D01*
X16093Y459D01*
X16070Y424D01*
X16056Y387D01*
X16041Y352D01*
X16032Y320D01*
X16026Y294D01*
X16024Y276D01*
Y273D01*
Y270D01*
X15651Y317D01*
X15657Y363D01*
X15668Y407D01*
X15695Y489D01*
X15727Y558D01*
X15747Y587D01*
X15765Y617D01*
X15782Y643D01*
X15800Y663D01*
X15814Y684D01*
X15829Y698D01*
X15840Y710D01*
X15849Y718D01*
X15855Y724D01*
X15858Y727D01*
X15893Y753D01*
X15930Y779D01*
X15965Y800D01*
X16006Y817D01*
X16082Y847D01*
X16152Y864D01*
X16186Y870D01*
X16216Y876D01*
X16242Y879D01*
X16265Y881D01*
X16285Y884D01*
X16312D01*
X16364Y881D01*
D02*
G37*
G36*
X14563Y843D02*
X14636Y841D01*
X14697Y835D01*
X14746Y826D01*
X14787Y817D01*
X14819Y812D01*
X14828Y809D01*
X14836D01*
X14839Y806D01*
X14842D01*
X14906Y782D01*
X14964Y756D01*
X15011Y730D01*
X15052Y704D01*
X15084Y681D01*
X15107Y663D01*
X15121Y652D01*
X15127Y646D01*
X15177Y590D01*
X15220Y532D01*
X15258Y471D01*
X15287Y416D01*
X15311Y363D01*
X15322Y343D01*
X15328Y326D01*
X15334Y308D01*
X15340Y296D01*
X15343Y291D01*
Y288D01*
X15363Y218D01*
X15380Y145D01*
X15392Y75D01*
X15398Y8D01*
X15401Y-24D01*
X15404Y-53D01*
Y-76D01*
X15407Y-99D01*
Y-117D01*
Y-128D01*
Y-137D01*
Y-140D01*
X15404Y-242D01*
X15395Y-332D01*
X15392Y-376D01*
X15386Y-414D01*
X15380Y-451D01*
X15375Y-483D01*
X15366Y-513D01*
X15360Y-539D01*
X15354Y-562D01*
X15351Y-579D01*
X15346Y-594D01*
X15343Y-606D01*
X15340Y-611D01*
Y-614D01*
X15314Y-684D01*
X15281Y-748D01*
X15249Y-804D01*
X15217Y-850D01*
X15191Y-888D01*
X15168Y-917D01*
X15154Y-934D01*
X15150Y-940D01*
X15148D01*
X15098Y-987D01*
X15049Y-1025D01*
X14996Y-1057D01*
X14950Y-1083D01*
X14909Y-1103D01*
X14874Y-1118D01*
X14863Y-1121D01*
X14854Y-1124D01*
X14848Y-1127D01*
X14845D01*
X14790Y-1141D01*
X14729Y-1150D01*
X14665Y-1158D01*
X14604Y-1161D01*
X14548Y-1164D01*
X14525Y-1167D01*
X13722D01*
Y847D01*
X14484D01*
X14563Y843D01*
D02*
G37*
G36*
X12531D02*
X12604Y841D01*
X12665Y835D01*
X12715Y826D01*
X12756Y817D01*
X12788Y812D01*
X12796Y809D01*
X12805D01*
X12808Y806D01*
X12811D01*
X12875Y782D01*
X12933Y756D01*
X12980Y730D01*
X13020Y704D01*
X13052Y681D01*
X13076Y663D01*
X13090Y652D01*
X13096Y646D01*
X13146Y590D01*
X13189Y532D01*
X13227Y471D01*
X13256Y416D01*
X13279Y363D01*
X13291Y343D01*
X13297Y326D01*
X13303Y308D01*
X13308Y296D01*
X13311Y291D01*
Y288D01*
X13332Y218D01*
X13349Y145D01*
X13361Y75D01*
X13367Y8D01*
X13370Y-24D01*
X13373Y-53D01*
Y-76D01*
X13375Y-99D01*
Y-117D01*
Y-128D01*
Y-137D01*
Y-140D01*
X13373Y-242D01*
X13364Y-332D01*
X13361Y-376D01*
X13355Y-414D01*
X13349Y-451D01*
X13343Y-483D01*
X13335Y-513D01*
X13329Y-539D01*
X13323Y-562D01*
X13320Y-579D01*
X13314Y-594D01*
X13311Y-606D01*
X13308Y-611D01*
Y-614D01*
X13282Y-684D01*
X13250Y-748D01*
X13218Y-804D01*
X13186Y-850D01*
X13160Y-888D01*
X13137Y-917D01*
X13122Y-934D01*
X13119Y-940D01*
X13116D01*
X13067Y-987D01*
X13017Y-1025D01*
X12965Y-1057D01*
X12919Y-1083D01*
X12878Y-1103D01*
X12843Y-1118D01*
X12831Y-1121D01*
X12822Y-1124D01*
X12817Y-1127D01*
X12814D01*
X12758Y-1141D01*
X12697Y-1150D01*
X12633Y-1158D01*
X12572Y-1161D01*
X12517Y-1164D01*
X12494Y-1167D01*
X11691D01*
Y847D01*
X12453D01*
X12531Y843D01*
D02*
G37*
G36*
X14595Y-21569D02*
X14202D01*
X14165Y-21485D01*
X14118Y-21409D01*
X14067Y-21336D01*
X14016Y-21278D01*
X13972Y-21230D01*
X13932Y-21194D01*
X13918Y-21179D01*
X13907Y-21169D01*
X13900Y-21165D01*
X13896Y-21161D01*
X13816Y-21103D01*
X13739Y-21052D01*
X13670Y-21012D01*
X13608Y-20983D01*
X13557Y-20961D01*
X13521Y-20943D01*
X13506Y-20939D01*
X13496Y-20935D01*
X13492Y-20932D01*
X13488D01*
Y-20495D01*
X13619Y-20546D01*
X13736Y-20601D01*
X13790Y-20630D01*
X13841Y-20662D01*
X13889Y-20692D01*
X13932Y-20721D01*
X13972Y-20750D01*
X14009Y-20775D01*
X14038Y-20797D01*
X14063Y-20819D01*
X14085Y-20837D01*
X14100Y-20848D01*
X14107Y-20855D01*
X14111Y-20859D01*
Y-19035D01*
X14595D01*
Y-21569D01*
D02*
G37*
G36*
X16735Y-19541D02*
X17048D01*
Y-19964D01*
X16735D01*
Y-21565D01*
X16327D01*
X15235Y-19960D01*
Y-19541D01*
X16269D01*
Y-19035D01*
X16735D01*
Y-19541D01*
D02*
G37*
G36*
X16291Y-23913D02*
X16357Y-23920D01*
X16415Y-23931D01*
X16473Y-23946D01*
X16524Y-23964D01*
X16575Y-23982D01*
X16622Y-24004D01*
X16662Y-24026D01*
X16699Y-24048D01*
X16735Y-24069D01*
X16761Y-24088D01*
X16786Y-24106D01*
X16804Y-24121D01*
X16819Y-24131D01*
X16826Y-24139D01*
X16830Y-24142D01*
X16873Y-24186D01*
X16910Y-24233D01*
X16943Y-24281D01*
X16972Y-24328D01*
X16994Y-24379D01*
X17016Y-24426D01*
X17045Y-24514D01*
X17052Y-24554D01*
X17059Y-24594D01*
X17066Y-24626D01*
X17070Y-24656D01*
X17074Y-24677D01*
Y-24696D01*
Y-24706D01*
Y-24710D01*
X17066Y-24794D01*
X17052Y-24867D01*
X17034Y-24936D01*
X17008Y-24991D01*
X16983Y-25038D01*
X16964Y-25071D01*
X16950Y-25092D01*
X16943Y-25100D01*
X16892Y-25154D01*
X16834Y-25202D01*
X16775Y-25238D01*
X16721Y-25267D01*
X16673Y-25289D01*
X16633Y-25300D01*
X16619Y-25307D01*
X16608D01*
X16601Y-25311D01*
X16597D01*
X16662Y-25351D01*
X16717Y-25391D01*
X16764Y-25434D01*
X16808Y-25478D01*
X16844Y-25522D01*
X16873Y-25566D01*
X16895Y-25609D01*
X16917Y-25649D01*
X16932Y-25689D01*
X16943Y-25726D01*
X16950Y-25758D01*
X16954Y-25788D01*
X16957Y-25809D01*
X16961Y-25828D01*
Y-25839D01*
Y-25842D01*
X16957Y-25886D01*
X16954Y-25926D01*
X16932Y-26006D01*
X16906Y-26079D01*
X16873Y-26141D01*
X16841Y-26192D01*
X16812Y-26228D01*
X16801Y-26243D01*
X16790Y-26254D01*
X16786Y-26257D01*
X16782Y-26261D01*
X16743Y-26301D01*
X16695Y-26337D01*
X16651Y-26366D01*
X16604Y-26392D01*
X16553Y-26417D01*
X16506Y-26436D01*
X16415Y-26461D01*
X16375Y-26472D01*
X16335Y-26479D01*
X16302Y-26483D01*
X16269Y-26487D01*
X16244Y-26490D01*
X16211D01*
X16135Y-26487D01*
X16066Y-26479D01*
X16000Y-26465D01*
X15945Y-26450D01*
X15902Y-26436D01*
X15865Y-26421D01*
X15843Y-26414D01*
X15840Y-26410D01*
X15836D01*
X15778Y-26377D01*
X15723Y-26341D01*
X15680Y-26305D01*
X15643Y-26272D01*
X15614Y-26239D01*
X15592Y-26213D01*
X15578Y-26199D01*
X15574Y-26192D01*
X15541Y-26137D01*
X15512Y-26079D01*
X15490Y-26017D01*
X15469Y-25959D01*
X15454Y-25904D01*
X15443Y-25864D01*
X15439Y-25846D01*
Y-25835D01*
X15436Y-25828D01*
Y-25824D01*
X15880Y-25751D01*
X15891Y-25809D01*
X15905Y-25860D01*
X15920Y-25904D01*
X15938Y-25937D01*
X15956Y-25966D01*
X15971Y-25988D01*
X15982Y-25999D01*
X15985Y-26002D01*
X16018Y-26032D01*
X16055Y-26053D01*
X16091Y-26068D01*
X16124Y-26079D01*
X16153Y-26086D01*
X16175Y-26090D01*
X16196D01*
X16240Y-26086D01*
X16284Y-26079D01*
X16317Y-26064D01*
X16346Y-26053D01*
X16371Y-26039D01*
X16386Y-26024D01*
X16397Y-26017D01*
X16400Y-26013D01*
X16426Y-25984D01*
X16444Y-25948D01*
X16459Y-25915D01*
X16466Y-25882D01*
X16473Y-25853D01*
X16477Y-25831D01*
Y-25817D01*
Y-25809D01*
X16473Y-25755D01*
X16462Y-25708D01*
X16444Y-25668D01*
X16426Y-25635D01*
X16404Y-25606D01*
X16389Y-25587D01*
X16375Y-25573D01*
X16371Y-25569D01*
X16328Y-25540D01*
X16280Y-25518D01*
X16229Y-25504D01*
X16182Y-25493D01*
X16138Y-25489D01*
X16102Y-25486D01*
X16069D01*
X16018Y-25096D01*
X16066Y-25107D01*
X16105Y-25118D01*
X16146Y-25125D01*
X16178Y-25129D01*
X16204Y-25132D01*
X16240D01*
X16291Y-25129D01*
X16335Y-25114D01*
X16375Y-25100D01*
X16411Y-25078D01*
X16437Y-25060D01*
X16459Y-25041D01*
X16473Y-25027D01*
X16477Y-25023D01*
X16510Y-24980D01*
X16535Y-24932D01*
X16553Y-24885D01*
X16568Y-24838D01*
X16575Y-24794D01*
X16579Y-24761D01*
Y-24739D01*
Y-24736D01*
Y-24732D01*
X16575Y-24663D01*
X16564Y-24601D01*
X16546Y-24546D01*
X16528Y-24503D01*
X16506Y-24470D01*
X16491Y-24444D01*
X16477Y-24426D01*
X16473Y-24423D01*
X16433Y-24386D01*
X16389Y-24357D01*
X16349Y-24339D01*
X16309Y-24324D01*
X16273Y-24317D01*
X16248Y-24313D01*
X16229Y-24310D01*
X16222D01*
X16171Y-24313D01*
X16127Y-24324D01*
X16087Y-24339D01*
X16051Y-24357D01*
X16025Y-24372D01*
X16004Y-24386D01*
X15989Y-24397D01*
X15985Y-24401D01*
X15953Y-24441D01*
X15924Y-24485D01*
X15905Y-24532D01*
X15887Y-24576D01*
X15876Y-24615D01*
X15869Y-24648D01*
X15865Y-24670D01*
Y-24674D01*
Y-24677D01*
X15399Y-24619D01*
X15407Y-24561D01*
X15421Y-24506D01*
X15454Y-24404D01*
X15494Y-24317D01*
X15519Y-24281D01*
X15541Y-24244D01*
X15563Y-24212D01*
X15585Y-24186D01*
X15603Y-24160D01*
X15621Y-24142D01*
X15636Y-24128D01*
X15647Y-24117D01*
X15654Y-24110D01*
X15658Y-24106D01*
X15701Y-24073D01*
X15749Y-24040D01*
X15792Y-24015D01*
X15843Y-23993D01*
X15938Y-23957D01*
X16025Y-23935D01*
X16069Y-23928D01*
X16105Y-23920D01*
X16138Y-23917D01*
X16167Y-23913D01*
X16193Y-23909D01*
X16226D01*
X16291Y-23913D01*
D02*
G37*
G36*
X14693Y-26490D02*
X14300D01*
X14264Y-26406D01*
X14216Y-26330D01*
X14165Y-26257D01*
X14114Y-26199D01*
X14071Y-26152D01*
X14031Y-26115D01*
X14016Y-26101D01*
X14005Y-26090D01*
X13998Y-26086D01*
X13994Y-26083D01*
X13914Y-26024D01*
X13838Y-25973D01*
X13769Y-25933D01*
X13707Y-25904D01*
X13656Y-25882D01*
X13619Y-25864D01*
X13605Y-25860D01*
X13594Y-25857D01*
X13590Y-25853D01*
X13587D01*
Y-25416D01*
X13718Y-25467D01*
X13834Y-25522D01*
X13889Y-25551D01*
X13940Y-25584D01*
X13987Y-25613D01*
X14031Y-25642D01*
X14071Y-25671D01*
X14107Y-25697D01*
X14136Y-25719D01*
X14162Y-25740D01*
X14184Y-25758D01*
X14198Y-25769D01*
X14205Y-25777D01*
X14209Y-25780D01*
Y-23957D01*
X14693D01*
Y-26490D01*
D02*
G37*
G36*
X14890Y-31805D02*
X14497D01*
X14460Y-31721D01*
X14413Y-31645D01*
X14362Y-31572D01*
X14311Y-31514D01*
X14268Y-31467D01*
X14228Y-31430D01*
X14213Y-31416D01*
X14202Y-31405D01*
X14195Y-31401D01*
X14191Y-31397D01*
X14111Y-31339D01*
X14035Y-31288D01*
X13965Y-31248D01*
X13904Y-31219D01*
X13853Y-31197D01*
X13816Y-31179D01*
X13802Y-31175D01*
X13791Y-31172D01*
X13787Y-31168D01*
X13783D01*
Y-30731D01*
X13915Y-30782D01*
X14031Y-30837D01*
X14086Y-30866D01*
X14137Y-30899D01*
X14184Y-30928D01*
X14228Y-30957D01*
X14268Y-30986D01*
X14304Y-31012D01*
X14333Y-31033D01*
X14359Y-31055D01*
X14380Y-31073D01*
X14395Y-31084D01*
X14402Y-31092D01*
X14406Y-31095D01*
Y-29272D01*
X14890D01*
Y-31805D01*
D02*
G37*
G36*
X17245Y-29719D02*
X16284D01*
X16313Y-29767D01*
X16346Y-29807D01*
X16361Y-29825D01*
X16372Y-29840D01*
X16379Y-29847D01*
X16382Y-29850D01*
X16397Y-29865D01*
X16411Y-29883D01*
X16455Y-29923D01*
X16502Y-29970D01*
X16550Y-30018D01*
X16597Y-30062D01*
X16637Y-30098D01*
X16652Y-30112D01*
X16663Y-30123D01*
X16670Y-30127D01*
X16674Y-30131D01*
X16754Y-30207D01*
X16819Y-30269D01*
X16874Y-30327D01*
X16917Y-30371D01*
X16950Y-30407D01*
X16972Y-30433D01*
X16987Y-30451D01*
X16990Y-30455D01*
X17038Y-30516D01*
X17078Y-30575D01*
X17110Y-30629D01*
X17136Y-30677D01*
X17158Y-30717D01*
X17172Y-30749D01*
X17180Y-30768D01*
X17183Y-30775D01*
X17205Y-30833D01*
X17220Y-30891D01*
X17231Y-30946D01*
X17238Y-30997D01*
X17242Y-31037D01*
X17245Y-31070D01*
Y-31092D01*
Y-31099D01*
X17242Y-31154D01*
X17234Y-31208D01*
X17227Y-31259D01*
X17212Y-31306D01*
X17176Y-31390D01*
X17140Y-31463D01*
X17118Y-31496D01*
X17099Y-31521D01*
X17081Y-31547D01*
X17063Y-31565D01*
X17049Y-31579D01*
X17041Y-31594D01*
X17034Y-31598D01*
X17030Y-31601D01*
X16990Y-31638D01*
X16943Y-31670D01*
X16899Y-31696D01*
X16848Y-31718D01*
X16754Y-31754D01*
X16659Y-31780D01*
X16615Y-31787D01*
X16575Y-31794D01*
X16539Y-31798D01*
X16506Y-31801D01*
X16481Y-31805D01*
X16444D01*
X16382Y-31801D01*
X16324Y-31798D01*
X16211Y-31780D01*
X16117Y-31751D01*
X16073Y-31736D01*
X16033Y-31718D01*
X15997Y-31703D01*
X15968Y-31685D01*
X15938Y-31670D01*
X15916Y-31659D01*
X15898Y-31645D01*
X15887Y-31638D01*
X15880Y-31634D01*
X15877Y-31630D01*
X15836Y-31594D01*
X15800Y-31558D01*
X15767Y-31514D01*
X15738Y-31467D01*
X15695Y-31372D01*
X15658Y-31281D01*
X15647Y-31234D01*
X15636Y-31194D01*
X15625Y-31157D01*
X15622Y-31124D01*
X15614Y-31095D01*
Y-31077D01*
X15611Y-31062D01*
Y-31059D01*
X16091Y-31012D01*
X16098Y-31084D01*
X16113Y-31146D01*
X16128Y-31201D01*
X16146Y-31241D01*
X16160Y-31274D01*
X16175Y-31295D01*
X16186Y-31310D01*
X16190Y-31314D01*
X16226Y-31343D01*
X16266Y-31365D01*
X16306Y-31383D01*
X16346Y-31394D01*
X16379Y-31401D01*
X16408Y-31405D01*
X16433D01*
X16488Y-31401D01*
X16535Y-31390D01*
X16575Y-31376D01*
X16612Y-31361D01*
X16637Y-31346D01*
X16659Y-31332D01*
X16670Y-31321D01*
X16674Y-31317D01*
X16703Y-31281D01*
X16725Y-31241D01*
X16739Y-31201D01*
X16750Y-31161D01*
X16757Y-31124D01*
X16761Y-31092D01*
Y-31073D01*
Y-31070D01*
Y-31066D01*
X16757Y-31012D01*
X16746Y-30961D01*
X16728Y-30910D01*
X16710Y-30866D01*
X16692Y-30826D01*
X16674Y-30797D01*
X16663Y-30779D01*
X16659Y-30771D01*
X16645Y-30749D01*
X16623Y-30724D01*
X16593Y-30691D01*
X16564Y-30662D01*
X16499Y-30593D01*
X16433Y-30524D01*
X16368Y-30458D01*
X16339Y-30429D01*
X16310Y-30407D01*
X16288Y-30386D01*
X16273Y-30371D01*
X16262Y-30360D01*
X16259Y-30356D01*
X16186Y-30287D01*
X16120Y-30222D01*
X16059Y-30160D01*
X16004Y-30105D01*
X15953Y-30051D01*
X15909Y-30000D01*
X15869Y-29956D01*
X15836Y-29912D01*
X15807Y-29876D01*
X15782Y-29843D01*
X15760Y-29818D01*
X15745Y-29792D01*
X15731Y-29778D01*
X15724Y-29763D01*
X15716Y-29756D01*
Y-29752D01*
X15669Y-29668D01*
X15633Y-29581D01*
X15604Y-29501D01*
X15582Y-29428D01*
X15567Y-29363D01*
X15563Y-29337D01*
X15560Y-29315D01*
X15556Y-29297D01*
X15552Y-29283D01*
Y-29275D01*
Y-29272D01*
X17245D01*
Y-29719D01*
D02*
G37*
G36*
X16848Y-36825D02*
X16455D01*
X16419Y-36741D01*
X16372Y-36665D01*
X16320Y-36592D01*
X16270Y-36534D01*
X16226Y-36486D01*
X16186Y-36450D01*
X16171Y-36435D01*
X16160Y-36424D01*
X16153Y-36421D01*
X16150Y-36417D01*
X16069Y-36359D01*
X15993Y-36308D01*
X15924Y-36268D01*
X15862Y-36239D01*
X15811Y-36217D01*
X15775Y-36199D01*
X15760Y-36195D01*
X15749Y-36191D01*
X15745Y-36188D01*
X15742D01*
Y-35751D01*
X15873Y-35802D01*
X15989Y-35857D01*
X16044Y-35886D01*
X16095Y-35918D01*
X16142Y-35947D01*
X16186Y-35977D01*
X16226Y-36006D01*
X16262Y-36031D01*
X16291Y-36053D01*
X16317Y-36075D01*
X16339Y-36093D01*
X16353Y-36104D01*
X16361Y-36111D01*
X16364Y-36115D01*
Y-34291D01*
X16848D01*
Y-36825D01*
D02*
G37*
G36*
X14890D02*
X14497D01*
X14460Y-36741D01*
X14413Y-36665D01*
X14362Y-36592D01*
X14311Y-36534D01*
X14268Y-36486D01*
X14228Y-36450D01*
X14213Y-36435D01*
X14202Y-36424D01*
X14195Y-36421D01*
X14191Y-36417D01*
X14111Y-36359D01*
X14035Y-36308D01*
X13965Y-36268D01*
X13904Y-36239D01*
X13853Y-36217D01*
X13816Y-36199D01*
X13802Y-36195D01*
X13791Y-36191D01*
X13787Y-36188D01*
X13783D01*
Y-35751D01*
X13915Y-35802D01*
X14031Y-35857D01*
X14086Y-35886D01*
X14137Y-35918D01*
X14184Y-35947D01*
X14228Y-35977D01*
X14268Y-36006D01*
X14304Y-36031D01*
X14333Y-36053D01*
X14359Y-36075D01*
X14380Y-36093D01*
X14395Y-36104D01*
X14402Y-36111D01*
X14406Y-36115D01*
Y-34291D01*
X14890D01*
Y-36825D01*
D02*
G37*
G36*
X14792Y-41549D02*
X14399D01*
X14362Y-41465D01*
X14315Y-41389D01*
X14264Y-41316D01*
X14213Y-41258D01*
X14169Y-41211D01*
X14129Y-41174D01*
X14115Y-41160D01*
X14104Y-41149D01*
X14096Y-41145D01*
X14093Y-41142D01*
X14013Y-41083D01*
X13936Y-41032D01*
X13867Y-40992D01*
X13805Y-40963D01*
X13754Y-40941D01*
X13718Y-40923D01*
X13703Y-40920D01*
X13692Y-40916D01*
X13689Y-40912D01*
X13685D01*
Y-40475D01*
X13816Y-40526D01*
X13933Y-40581D01*
X13987Y-40610D01*
X14038Y-40643D01*
X14085Y-40672D01*
X14129Y-40701D01*
X14169Y-40730D01*
X14206Y-40756D01*
X14235Y-40778D01*
X14260Y-40799D01*
X14282Y-40817D01*
X14297Y-40828D01*
X14304Y-40836D01*
X14308Y-40839D01*
Y-39016D01*
X14792D01*
Y-41549D01*
D02*
G37*
G36*
X16397Y-38972D02*
X16459Y-38979D01*
X16521Y-38994D01*
X16575Y-39009D01*
X16626Y-39027D01*
X16673Y-39048D01*
X16714Y-39074D01*
X16754Y-39099D01*
X16786Y-39121D01*
X16819Y-39147D01*
X16845Y-39169D01*
X16866Y-39187D01*
X16881Y-39201D01*
X16892Y-39216D01*
X16899Y-39223D01*
X16903Y-39227D01*
X16947Y-39289D01*
X16983Y-39362D01*
X17019Y-39438D01*
X17045Y-39522D01*
X17070Y-39605D01*
X17088Y-39689D01*
X17107Y-39777D01*
X17121Y-39860D01*
X17129Y-39940D01*
X17136Y-40013D01*
X17143Y-40082D01*
X17147Y-40141D01*
X17150Y-40188D01*
Y-40224D01*
Y-40239D01*
Y-40250D01*
Y-40253D01*
Y-40257D01*
X17147Y-40388D01*
X17139Y-40508D01*
X17129Y-40617D01*
X17110Y-40719D01*
X17092Y-40814D01*
X17074Y-40898D01*
X17048Y-40974D01*
X17027Y-41040D01*
X17005Y-41102D01*
X16983Y-41149D01*
X16961Y-41192D01*
X16943Y-41229D01*
X16925Y-41254D01*
X16914Y-41273D01*
X16906Y-41284D01*
X16903Y-41287D01*
X16863Y-41334D01*
X16819Y-41374D01*
X16772Y-41407D01*
X16724Y-41440D01*
X16677Y-41465D01*
X16630Y-41484D01*
X16586Y-41502D01*
X16539Y-41516D01*
X16495Y-41527D01*
X16459Y-41535D01*
X16422Y-41542D01*
X16393Y-41546D01*
X16368Y-41549D01*
X16331D01*
X16266Y-41546D01*
X16204Y-41538D01*
X16142Y-41524D01*
X16087Y-41509D01*
X16037Y-41487D01*
X15989Y-41465D01*
X15949Y-41444D01*
X15909Y-41418D01*
X15876Y-41393D01*
X15844Y-41371D01*
X15818Y-41349D01*
X15800Y-41327D01*
X15782Y-41313D01*
X15771Y-41298D01*
X15764Y-41291D01*
X15760Y-41287D01*
X15716Y-41225D01*
X15680Y-41152D01*
X15647Y-41076D01*
X15618Y-40996D01*
X15596Y-40912D01*
X15574Y-40825D01*
X15560Y-40741D01*
X15545Y-40657D01*
X15538Y-40577D01*
X15530Y-40505D01*
X15523Y-40435D01*
X15520Y-40377D01*
X15516Y-40330D01*
Y-40293D01*
Y-40279D01*
Y-40268D01*
Y-40264D01*
Y-40261D01*
X15520Y-40130D01*
X15527Y-40009D01*
X15538Y-39897D01*
X15552Y-39795D01*
X15567Y-39704D01*
X15585Y-39620D01*
X15607Y-39547D01*
X15629Y-39482D01*
X15647Y-39427D01*
X15669Y-39376D01*
X15687Y-39336D01*
X15705Y-39303D01*
X15716Y-39281D01*
X15727Y-39263D01*
X15734Y-39252D01*
X15738Y-39249D01*
X15782Y-39198D01*
X15829Y-39158D01*
X15876Y-39118D01*
X15927Y-39088D01*
X15975Y-39059D01*
X16026Y-39038D01*
X16073Y-39019D01*
X16120Y-39005D01*
X16164Y-38990D01*
X16204Y-38983D01*
X16240Y-38976D01*
X16269Y-38972D01*
X16295D01*
X16317Y-38968D01*
X16331D01*
X16397Y-38972D01*
D02*
G37*
G36*
X15802Y-43992D02*
X15871Y-44003D01*
X15936Y-44017D01*
X16002Y-44035D01*
X16060Y-44061D01*
X16115Y-44086D01*
X16166Y-44112D01*
X16209Y-44141D01*
X16250Y-44170D01*
X16286Y-44196D01*
X16315Y-44225D01*
X16341Y-44247D01*
X16362Y-44265D01*
X16377Y-44279D01*
X16384Y-44290D01*
X16388Y-44294D01*
X16435Y-44356D01*
X16472Y-44425D01*
X16508Y-44501D01*
X16537Y-44578D01*
X16563Y-44662D01*
X16584Y-44745D01*
X16599Y-44825D01*
X16613Y-44909D01*
X16624Y-44985D01*
X16632Y-45055D01*
X16639Y-45120D01*
X16643Y-45178D01*
X16646Y-45226D01*
Y-45262D01*
Y-45273D01*
Y-45284D01*
Y-45288D01*
Y-45291D01*
X16643Y-45415D01*
X16635Y-45528D01*
X16624Y-45633D01*
X16606Y-45732D01*
X16588Y-45819D01*
X16570Y-45899D01*
X16544Y-45972D01*
X16522Y-46037D01*
X16501Y-46092D01*
X16479Y-46139D01*
X16457Y-46179D01*
X16439Y-46212D01*
X16421Y-46238D01*
X16410Y-46256D01*
X16402Y-46267D01*
X16399Y-46270D01*
X16351Y-46321D01*
X16300Y-46369D01*
X16250Y-46409D01*
X16198Y-46442D01*
X16144Y-46471D01*
X16093Y-46496D01*
X16042Y-46514D01*
X15991Y-46532D01*
X15947Y-46543D01*
X15904Y-46554D01*
X15867Y-46562D01*
X15834Y-46565D01*
X15805D01*
X15787Y-46569D01*
X15769D01*
X15703Y-46565D01*
X15645Y-46558D01*
X15587Y-46547D01*
X15532Y-46532D01*
X15482Y-46514D01*
X15434Y-46492D01*
X15387Y-46474D01*
X15350Y-46452D01*
X15314Y-46427D01*
X15281Y-46409D01*
X15256Y-46387D01*
X15230Y-46369D01*
X15212Y-46354D01*
X15201Y-46343D01*
X15194Y-46336D01*
X15190Y-46332D01*
X15150Y-46285D01*
X15117Y-46238D01*
X15085Y-46187D01*
X15059Y-46136D01*
X15037Y-46085D01*
X15019Y-46030D01*
X14994Y-45932D01*
X14983Y-45888D01*
X14976Y-45845D01*
X14972Y-45808D01*
X14968Y-45775D01*
X14965Y-45746D01*
Y-45728D01*
Y-45713D01*
Y-45710D01*
X14968Y-45644D01*
X14976Y-45579D01*
X14983Y-45517D01*
X14997Y-45462D01*
X15015Y-45408D01*
X15034Y-45360D01*
X15052Y-45313D01*
X15074Y-45273D01*
X15092Y-45237D01*
X15110Y-45204D01*
X15128Y-45178D01*
X15147Y-45153D01*
X15161Y-45138D01*
X15168Y-45124D01*
X15176Y-45116D01*
X15179Y-45113D01*
X15219Y-45073D01*
X15263Y-45036D01*
X15307Y-45007D01*
X15350Y-44982D01*
X15394Y-44960D01*
X15434Y-44938D01*
X15514Y-44913D01*
X15583Y-44894D01*
X15612Y-44891D01*
X15638Y-44887D01*
X15660Y-44884D01*
X15689D01*
X15740Y-44887D01*
X15787Y-44894D01*
X15831Y-44902D01*
X15875Y-44916D01*
X15955Y-44949D01*
X16020Y-44989D01*
X16071Y-45029D01*
X16093Y-45047D01*
X16111Y-45062D01*
X16126Y-45077D01*
X16137Y-45087D01*
X16140Y-45091D01*
X16144Y-45095D01*
X16137Y-45018D01*
X16129Y-44945D01*
X16122Y-44880D01*
X16111Y-44822D01*
X16100Y-44771D01*
X16089Y-44723D01*
X16078Y-44683D01*
X16068Y-44647D01*
X16053Y-44614D01*
X16046Y-44589D01*
X16035Y-44567D01*
X16027Y-44552D01*
X16020Y-44538D01*
X16013Y-44530D01*
X16009Y-44523D01*
X15969Y-44480D01*
X15925Y-44447D01*
X15886Y-44421D01*
X15845Y-44407D01*
X15809Y-44396D01*
X15784Y-44392D01*
X15765Y-44388D01*
X15758D01*
X15718Y-44392D01*
X15678Y-44399D01*
X15649Y-44410D01*
X15620Y-44421D01*
X15598Y-44432D01*
X15583Y-44443D01*
X15573Y-44450D01*
X15569Y-44454D01*
X15543Y-44483D01*
X15525Y-44516D01*
X15511Y-44552D01*
X15500Y-44589D01*
X15489Y-44618D01*
X15485Y-44643D01*
X15482Y-44662D01*
Y-44669D01*
X15015Y-44614D01*
X15026Y-44556D01*
X15041Y-44505D01*
X15056Y-44454D01*
X15074Y-44410D01*
X15092Y-44367D01*
X15110Y-44327D01*
X15132Y-44294D01*
X15150Y-44261D01*
X15172Y-44236D01*
X15187Y-44210D01*
X15205Y-44192D01*
X15219Y-44174D01*
X15230Y-44163D01*
X15241Y-44152D01*
X15245Y-44148D01*
X15248Y-44145D01*
X15285Y-44115D01*
X15321Y-44094D01*
X15401Y-44054D01*
X15478Y-44028D01*
X15554Y-44006D01*
X15623Y-43995D01*
X15653Y-43992D01*
X15678D01*
X15696Y-43988D01*
X15725D01*
X15802Y-43992D01*
D02*
G37*
G36*
X15973Y-49307D02*
X16035Y-49314D01*
X16097Y-49325D01*
X16155Y-49336D01*
X16206Y-49354D01*
X16253Y-49372D01*
X16301Y-49390D01*
X16341Y-49412D01*
X16377Y-49434D01*
X16406Y-49452D01*
X16435Y-49470D01*
X16457Y-49489D01*
X16475Y-49500D01*
X16486Y-49511D01*
X16493Y-49518D01*
X16497Y-49521D01*
X16537Y-49565D01*
X16570Y-49609D01*
X16603Y-49656D01*
X16628Y-49703D01*
X16650Y-49751D01*
X16668Y-49798D01*
X16694Y-49889D01*
X16705Y-49929D01*
X16712Y-49966D01*
X16715Y-50002D01*
X16719Y-50031D01*
X16723Y-50056D01*
Y-50075D01*
Y-50086D01*
Y-50089D01*
X16719Y-50166D01*
X16705Y-50235D01*
X16690Y-50300D01*
X16668Y-50355D01*
X16650Y-50399D01*
X16632Y-50432D01*
X16617Y-50453D01*
X16614Y-50461D01*
X16570Y-50519D01*
X16519Y-50570D01*
X16464Y-50613D01*
X16413Y-50646D01*
X16366Y-50675D01*
X16330Y-50697D01*
X16315Y-50704D01*
X16304Y-50708D01*
X16297Y-50712D01*
X16293D01*
X16352Y-50741D01*
X16402Y-50774D01*
X16446Y-50806D01*
X16483Y-50843D01*
X16512Y-50872D01*
X16530Y-50897D01*
X16544Y-50912D01*
X16548Y-50919D01*
X16581Y-50974D01*
X16603Y-51028D01*
X16621Y-51079D01*
X16632Y-51127D01*
X16639Y-51170D01*
X16643Y-51203D01*
Y-51225D01*
Y-51229D01*
Y-51232D01*
X16639Y-51283D01*
X16635Y-51334D01*
X16610Y-51425D01*
X16581Y-51502D01*
X16544Y-51571D01*
X16504Y-51625D01*
X16490Y-51647D01*
X16475Y-51665D01*
X16461Y-51680D01*
X16450Y-51691D01*
X16446Y-51695D01*
X16443Y-51698D01*
X16402Y-51731D01*
X16363Y-51760D01*
X16315Y-51786D01*
X16272Y-51807D01*
X16177Y-51840D01*
X16086Y-51862D01*
X16046Y-51869D01*
X16006Y-51873D01*
X15973Y-51876D01*
X15940Y-51880D01*
X15918Y-51884D01*
X15882D01*
X15816Y-51880D01*
X15755Y-51876D01*
X15696Y-51866D01*
X15642Y-51855D01*
X15591Y-51840D01*
X15543Y-51826D01*
X15503Y-51807D01*
X15467Y-51793D01*
X15431Y-51775D01*
X15402Y-51756D01*
X15380Y-51742D01*
X15358Y-51727D01*
X15343Y-51716D01*
X15332Y-51705D01*
X15325Y-51702D01*
X15321Y-51698D01*
X15289Y-51662D01*
X15256Y-51625D01*
X15230Y-51585D01*
X15209Y-51549D01*
X15172Y-51469D01*
X15150Y-51396D01*
X15136Y-51331D01*
X15132Y-51301D01*
X15128Y-51280D01*
X15125Y-51258D01*
Y-51243D01*
Y-51236D01*
Y-51232D01*
X15128Y-51170D01*
X15139Y-51116D01*
X15150Y-51061D01*
X15168Y-51017D01*
X15183Y-50977D01*
X15194Y-50952D01*
X15205Y-50934D01*
X15209Y-50927D01*
X15245Y-50879D01*
X15289Y-50836D01*
X15332Y-50799D01*
X15380Y-50766D01*
X15420Y-50744D01*
X15452Y-50726D01*
X15474Y-50715D01*
X15478Y-50712D01*
X15482D01*
X15405Y-50672D01*
X15340Y-50632D01*
X15285Y-50588D01*
X15241Y-50544D01*
X15205Y-50504D01*
X15179Y-50475D01*
X15165Y-50453D01*
X15161Y-50450D01*
Y-50446D01*
X15128Y-50380D01*
X15103Y-50315D01*
X15089Y-50249D01*
X15074Y-50191D01*
X15067Y-50144D01*
X15063Y-50104D01*
Y-50089D01*
Y-50078D01*
Y-50071D01*
Y-50068D01*
X15067Y-49998D01*
X15074Y-49936D01*
X15089Y-49874D01*
X15107Y-49820D01*
X15125Y-49765D01*
X15147Y-49718D01*
X15172Y-49674D01*
X15198Y-49634D01*
X15223Y-49602D01*
X15249Y-49569D01*
X15270Y-49543D01*
X15289Y-49521D01*
X15307Y-49503D01*
X15321Y-49492D01*
X15329Y-49485D01*
X15332Y-49481D01*
X15376Y-49449D01*
X15423Y-49423D01*
X15471Y-49398D01*
X15518Y-49380D01*
X15613Y-49347D01*
X15704Y-49325D01*
X15747Y-49318D01*
X15784Y-49314D01*
X15816Y-49310D01*
X15846Y-49307D01*
X15871Y-49303D01*
X15904D01*
X15973Y-49307D01*
D02*
G37*
G36*
X16122Y-54035D02*
X16191Y-54038D01*
X16260Y-54049D01*
X16322Y-54064D01*
X16380Y-54078D01*
X16435Y-54093D01*
X16486Y-54111D01*
X16533Y-54133D01*
X16573Y-54151D01*
X16610Y-54169D01*
X16642Y-54184D01*
X16668Y-54199D01*
X16690Y-54213D01*
X16704Y-54224D01*
X16712Y-54228D01*
X16715Y-54231D01*
X16762Y-54271D01*
X16806Y-54315D01*
X16886Y-54413D01*
X16952Y-54515D01*
X17003Y-54614D01*
X17025Y-54661D01*
X17043Y-54704D01*
X17057Y-54745D01*
X17072Y-54777D01*
X17083Y-54806D01*
X17090Y-54828D01*
X17094Y-54843D01*
Y-54847D01*
X16599Y-54999D01*
X16569Y-54901D01*
X16537Y-54817D01*
X16504Y-54748D01*
X16468Y-54690D01*
X16439Y-54646D01*
X16413Y-54617D01*
X16395Y-54599D01*
X16387Y-54592D01*
X16329Y-54548D01*
X16271Y-54519D01*
X16213Y-54497D01*
X16162Y-54479D01*
X16115Y-54472D01*
X16074Y-54468D01*
X16060Y-54464D01*
X16042D01*
X15991Y-54468D01*
X15944Y-54472D01*
X15856Y-54497D01*
X15780Y-54526D01*
X15718Y-54566D01*
X15667Y-54603D01*
X15630Y-54632D01*
X15616Y-54646D01*
X15605Y-54657D01*
X15601Y-54661D01*
X15598Y-54664D01*
X15568Y-54704D01*
X15543Y-54752D01*
X15518Y-54803D01*
X15499Y-54857D01*
X15470Y-54970D01*
X15448Y-55083D01*
X15441Y-55138D01*
X15438Y-55185D01*
X15430Y-55232D01*
Y-55272D01*
X15427Y-55301D01*
Y-55327D01*
Y-55345D01*
Y-55349D01*
X15430Y-55432D01*
X15434Y-55509D01*
X15441Y-55578D01*
X15452Y-55644D01*
X15467Y-55702D01*
X15481Y-55756D01*
X15496Y-55804D01*
X15514Y-55848D01*
X15529Y-55884D01*
X15543Y-55917D01*
X15558Y-55942D01*
X15572Y-55964D01*
X15583Y-55982D01*
X15590Y-55993D01*
X15598Y-56000D01*
Y-56004D01*
X15630Y-56040D01*
X15667Y-56073D01*
X15703Y-56099D01*
X15743Y-56121D01*
X15820Y-56157D01*
X15892Y-56182D01*
X15954Y-56197D01*
X15983Y-56201D01*
X16005Y-56204D01*
X16027Y-56208D01*
X16053D01*
X16126Y-56204D01*
X16191Y-56190D01*
X16249Y-56171D01*
X16300Y-56150D01*
X16340Y-56128D01*
X16369Y-56110D01*
X16387Y-56095D01*
X16395Y-56091D01*
X16442Y-56048D01*
X16486Y-55997D01*
X16519Y-55946D01*
X16544Y-55895D01*
X16562Y-55851D01*
X16573Y-55818D01*
X16580Y-55804D01*
Y-55793D01*
X16584Y-55789D01*
Y-55786D01*
X17086Y-55906D01*
X17050Y-56011D01*
X17010Y-56102D01*
X16966Y-56182D01*
X16926Y-56248D01*
X16886Y-56299D01*
X16872Y-56321D01*
X16857Y-56339D01*
X16846Y-56350D01*
X16835Y-56361D01*
X16832Y-56368D01*
X16828D01*
X16773Y-56415D01*
X16712Y-56459D01*
X16653Y-56495D01*
X16591Y-56524D01*
X16526Y-56554D01*
X16464Y-56576D01*
X16402Y-56594D01*
X16344Y-56608D01*
X16289Y-56619D01*
X16238Y-56626D01*
X16195Y-56634D01*
X16155Y-56637D01*
X16122Y-56641D01*
X16078D01*
X15983Y-56637D01*
X15889Y-56626D01*
X15805Y-56608D01*
X15721Y-56586D01*
X15649Y-56561D01*
X15576Y-56532D01*
X15514Y-56499D01*
X15456Y-56466D01*
X15401Y-56433D01*
X15357Y-56401D01*
X15317Y-56372D01*
X15285Y-56346D01*
X15259Y-56324D01*
X15241Y-56306D01*
X15230Y-56295D01*
X15226Y-56292D01*
X15168Y-56222D01*
X15121Y-56150D01*
X15077Y-56073D01*
X15041Y-55993D01*
X15008Y-55909D01*
X14983Y-55829D01*
X14961Y-55749D01*
X14942Y-55673D01*
X14928Y-55596D01*
X14921Y-55531D01*
X14913Y-55469D01*
X14906Y-55418D01*
Y-55374D01*
X14902Y-55342D01*
Y-55320D01*
Y-55316D01*
Y-55312D01*
X14906Y-55203D01*
X14917Y-55101D01*
X14931Y-55003D01*
X14953Y-54916D01*
X14975Y-54832D01*
X15004Y-54752D01*
X15033Y-54683D01*
X15063Y-54621D01*
X15092Y-54563D01*
X15121Y-54512D01*
X15150Y-54472D01*
X15172Y-54435D01*
X15194Y-54410D01*
X15208Y-54388D01*
X15219Y-54377D01*
X15223Y-54373D01*
X15285Y-54311D01*
X15350Y-54260D01*
X15419Y-54213D01*
X15488Y-54177D01*
X15558Y-54144D01*
X15627Y-54115D01*
X15692Y-54093D01*
X15754Y-54075D01*
X15816Y-54060D01*
X15871Y-54049D01*
X15922Y-54042D01*
X15962Y-54038D01*
X15998Y-54035D01*
X16024Y-54031D01*
X16045D01*
X16122Y-54035D01*
D02*
G37*
G36*
X13581D02*
X13650Y-54038D01*
X13719Y-54049D01*
X13781Y-54064D01*
X13839Y-54078D01*
X13894Y-54093D01*
X13945Y-54111D01*
X13992Y-54133D01*
X14032Y-54151D01*
X14069Y-54169D01*
X14102Y-54184D01*
X14127Y-54199D01*
X14149Y-54213D01*
X14164Y-54224D01*
X14171Y-54228D01*
X14174Y-54231D01*
X14222Y-54271D01*
X14265Y-54315D01*
X14345Y-54413D01*
X14411Y-54515D01*
X14462Y-54614D01*
X14484Y-54661D01*
X14502Y-54704D01*
X14517Y-54745D01*
X14531Y-54777D01*
X14542Y-54806D01*
X14549Y-54828D01*
X14553Y-54843D01*
Y-54847D01*
X14058Y-54999D01*
X14029Y-54901D01*
X13996Y-54817D01*
X13963Y-54748D01*
X13927Y-54690D01*
X13898Y-54646D01*
X13872Y-54617D01*
X13854Y-54599D01*
X13847Y-54592D01*
X13789Y-54548D01*
X13730Y-54519D01*
X13672Y-54497D01*
X13621Y-54479D01*
X13574Y-54472D01*
X13534Y-54468D01*
X13519Y-54464D01*
X13501D01*
X13450Y-54468D01*
X13403Y-54472D01*
X13315Y-54497D01*
X13239Y-54526D01*
X13177Y-54566D01*
X13126Y-54603D01*
X13090Y-54632D01*
X13075Y-54646D01*
X13064Y-54657D01*
X13061Y-54661D01*
X13057Y-54664D01*
X13028Y-54704D01*
X13002Y-54752D01*
X12977Y-54803D01*
X12959Y-54857D01*
X12930Y-54970D01*
X12908Y-55083D01*
X12900Y-55138D01*
X12897Y-55185D01*
X12889Y-55232D01*
Y-55272D01*
X12886Y-55301D01*
Y-55327D01*
Y-55345D01*
Y-55349D01*
X12889Y-55432D01*
X12893Y-55509D01*
X12900Y-55578D01*
X12911Y-55644D01*
X12926Y-55702D01*
X12941Y-55756D01*
X12955Y-55804D01*
X12973Y-55848D01*
X12988Y-55884D01*
X13002Y-55917D01*
X13017Y-55942D01*
X13032Y-55964D01*
X13042Y-55982D01*
X13050Y-55993D01*
X13057Y-56000D01*
Y-56004D01*
X13090Y-56040D01*
X13126Y-56073D01*
X13162Y-56099D01*
X13203Y-56121D01*
X13279Y-56157D01*
X13352Y-56182D01*
X13414Y-56197D01*
X13443Y-56201D01*
X13465Y-56204D01*
X13487Y-56208D01*
X13512D01*
X13585Y-56204D01*
X13650Y-56190D01*
X13709Y-56171D01*
X13759Y-56150D01*
X13800Y-56128D01*
X13829Y-56110D01*
X13847Y-56095D01*
X13854Y-56091D01*
X13901Y-56048D01*
X13945Y-55997D01*
X13978Y-55946D01*
X14003Y-55895D01*
X14021Y-55851D01*
X14032Y-55818D01*
X14040Y-55804D01*
Y-55793D01*
X14043Y-55789D01*
Y-55786D01*
X14546Y-55906D01*
X14509Y-56011D01*
X14469Y-56102D01*
X14426Y-56182D01*
X14386Y-56248D01*
X14345Y-56299D01*
X14331Y-56321D01*
X14316Y-56339D01*
X14306Y-56350D01*
X14295Y-56361D01*
X14291Y-56368D01*
X14287D01*
X14233Y-56415D01*
X14171Y-56459D01*
X14112Y-56495D01*
X14051Y-56524D01*
X13985Y-56554D01*
X13923Y-56576D01*
X13861Y-56594D01*
X13803Y-56608D01*
X13748Y-56619D01*
X13698Y-56626D01*
X13654Y-56634D01*
X13614Y-56637D01*
X13581Y-56641D01*
X13537D01*
X13443Y-56637D01*
X13348Y-56626D01*
X13264Y-56608D01*
X13181Y-56586D01*
X13108Y-56561D01*
X13035Y-56532D01*
X12973Y-56499D01*
X12915Y-56466D01*
X12860Y-56433D01*
X12817Y-56401D01*
X12777Y-56372D01*
X12744Y-56346D01*
X12718Y-56324D01*
X12700Y-56306D01*
X12689Y-56295D01*
X12686Y-56292D01*
X12627Y-56222D01*
X12580Y-56150D01*
X12536Y-56073D01*
X12500Y-55993D01*
X12467Y-55909D01*
X12442Y-55829D01*
X12420Y-55749D01*
X12402Y-55673D01*
X12387Y-55596D01*
X12380Y-55531D01*
X12373Y-55469D01*
X12365Y-55418D01*
Y-55374D01*
X12362Y-55342D01*
Y-55320D01*
Y-55316D01*
Y-55312D01*
X12365Y-55203D01*
X12376Y-55101D01*
X12391Y-55003D01*
X12413Y-54916D01*
X12434Y-54832D01*
X12464Y-54752D01*
X12493Y-54683D01*
X12522Y-54621D01*
X12551Y-54563D01*
X12580Y-54512D01*
X12609Y-54472D01*
X12631Y-54435D01*
X12653Y-54410D01*
X12667Y-54388D01*
X12678Y-54377D01*
X12682Y-54373D01*
X12744Y-54311D01*
X12809Y-54260D01*
X12879Y-54213D01*
X12948Y-54177D01*
X13017Y-54144D01*
X13086Y-54115D01*
X13152Y-54093D01*
X13214Y-54075D01*
X13275Y-54060D01*
X13330Y-54049D01*
X13381Y-54042D01*
X13421Y-54038D01*
X13457Y-54035D01*
X13483Y-54031D01*
X13505D01*
X13581Y-54035D01*
D02*
G37*
G36*
X12194Y-56594D02*
X11652D01*
X11037Y-54730D01*
X10396Y-56594D01*
X9847D01*
X10749Y-54075D01*
X11299D01*
X12194Y-56594D01*
D02*
G37*
G36*
X-2534Y-48848D02*
X-2523Y-48979D01*
X-2505Y-49106D01*
X-2498Y-49165D01*
X-2487Y-49223D01*
X-2476Y-49274D01*
X-2465Y-49325D01*
X-2458Y-49365D01*
X-2451Y-49401D01*
X-2443Y-49434D01*
X-2436Y-49456D01*
X-2433Y-49470D01*
Y-49474D01*
X-2385Y-49630D01*
X-2334Y-49780D01*
X-2309Y-49849D01*
X-2280Y-49914D01*
X-2254Y-49976D01*
X-2229Y-50034D01*
X-2203Y-50086D01*
X-2181Y-50133D01*
X-2159Y-50177D01*
X-2145Y-50209D01*
X-2130Y-50238D01*
X-2120Y-50257D01*
X-2112Y-50271D01*
X-2109Y-50275D01*
X-2069Y-50344D01*
X-2028Y-50409D01*
X-1992Y-50468D01*
X-1956Y-50526D01*
X-1919Y-50577D01*
X-1883Y-50624D01*
X-1850Y-50668D01*
X-1821Y-50708D01*
X-1792Y-50744D01*
X-1766Y-50773D01*
X-1745Y-50799D01*
X-1726Y-50821D01*
X-1712Y-50835D01*
X-1701Y-50846D01*
X-1694Y-50854D01*
X-1690Y-50857D01*
Y-51207D01*
X-3342D01*
Y-50759D01*
X-2247D01*
X-2367Y-50595D01*
X-2473Y-50424D01*
X-2523Y-50344D01*
X-2567Y-50260D01*
X-2607Y-50184D01*
X-2644Y-50111D01*
X-2676Y-50042D01*
X-2706Y-49980D01*
X-2731Y-49922D01*
X-2753Y-49874D01*
X-2767Y-49838D01*
X-2778Y-49809D01*
X-2786Y-49791D01*
X-2789Y-49783D01*
X-2826Y-49681D01*
X-2858Y-49583D01*
X-2884Y-49485D01*
X-2909Y-49390D01*
X-2928Y-49296D01*
X-2946Y-49208D01*
X-2960Y-49125D01*
X-2971Y-49048D01*
X-2982Y-48979D01*
X-2989Y-48913D01*
X-2997Y-48859D01*
X-3000Y-48812D01*
Y-48771D01*
X-3004Y-48742D01*
Y-48728D01*
Y-48720D01*
X-2538D01*
X-2534Y-48848D01*
D02*
G37*
G36*
X-2403Y-43677D02*
X-2341Y-43684D01*
X-2283Y-43695D01*
X-2229Y-43710D01*
X-2174Y-43728D01*
X-2127Y-43746D01*
X-2083Y-43768D01*
X-2043Y-43790D01*
X-2007Y-43812D01*
X-1977Y-43833D01*
X-1948Y-43852D01*
X-1927Y-43870D01*
X-1908Y-43884D01*
X-1897Y-43895D01*
X-1890Y-43903D01*
X-1887Y-43906D01*
X-1846Y-43950D01*
X-1810Y-44001D01*
X-1781Y-44052D01*
X-1756Y-44103D01*
X-1730Y-44154D01*
X-1712Y-44205D01*
X-1686Y-44306D01*
X-1675Y-44350D01*
X-1668Y-44394D01*
X-1664Y-44430D01*
X-1661Y-44463D01*
X-1657Y-44492D01*
Y-44510D01*
Y-44525D01*
Y-44529D01*
X-1661Y-44598D01*
X-1668Y-44660D01*
X-1679Y-44721D01*
X-1690Y-44776D01*
X-1708Y-44831D01*
X-1726Y-44878D01*
X-1745Y-44925D01*
X-1766Y-44965D01*
X-1788Y-45002D01*
X-1806Y-45035D01*
X-1825Y-45060D01*
X-1843Y-45085D01*
X-1854Y-45104D01*
X-1865Y-45115D01*
X-1872Y-45122D01*
X-1876Y-45125D01*
X-1916Y-45166D01*
X-1959Y-45202D01*
X-2003Y-45235D01*
X-2047Y-45260D01*
X-2090Y-45282D01*
X-2134Y-45300D01*
X-2214Y-45329D01*
X-2251Y-45340D01*
X-2287Y-45348D01*
X-2316Y-45351D01*
X-2341Y-45355D01*
X-2363Y-45358D01*
X-2393D01*
X-2443Y-45355D01*
X-2491Y-45348D01*
X-2534Y-45340D01*
X-2578Y-45326D01*
X-2655Y-45289D01*
X-2720Y-45253D01*
X-2771Y-45213D01*
X-2793Y-45195D01*
X-2811Y-45177D01*
X-2826Y-45162D01*
X-2837Y-45155D01*
X-2840Y-45147D01*
X-2844Y-45144D01*
X-2837Y-45220D01*
X-2829Y-45293D01*
X-2822Y-45358D01*
X-2811Y-45417D01*
X-2800Y-45468D01*
X-2789Y-45515D01*
X-2778Y-45555D01*
X-2764Y-45591D01*
X-2753Y-45624D01*
X-2746Y-45650D01*
X-2735Y-45671D01*
X-2727Y-45686D01*
X-2720Y-45701D01*
X-2713Y-45708D01*
X-2709Y-45715D01*
X-2669Y-45763D01*
X-2625Y-45795D01*
X-2582Y-45821D01*
X-2542Y-45835D01*
X-2505Y-45846D01*
X-2476Y-45850D01*
X-2458Y-45853D01*
X-2451D01*
X-2411Y-45850D01*
X-2371Y-45843D01*
X-2338Y-45832D01*
X-2312Y-45821D01*
X-2291Y-45806D01*
X-2276Y-45795D01*
X-2265Y-45788D01*
X-2261Y-45784D01*
X-2236Y-45755D01*
X-2218Y-45722D01*
X-2200Y-45686D01*
X-2189Y-45653D01*
X-2181Y-45621D01*
X-2174Y-45595D01*
X-2170Y-45581D01*
Y-45573D01*
X-1705Y-45624D01*
X-1730Y-45733D01*
X-1766Y-45824D01*
X-1806Y-45904D01*
X-1846Y-45974D01*
X-1887Y-46025D01*
X-1901Y-46043D01*
X-1919Y-46061D01*
X-1930Y-46072D01*
X-1941Y-46083D01*
X-1945Y-46090D01*
X-1948D01*
X-1985Y-46119D01*
X-2021Y-46145D01*
X-2101Y-46185D01*
X-2181Y-46214D01*
X-2254Y-46232D01*
X-2320Y-46247D01*
X-2349Y-46250D01*
X-2374D01*
X-2393Y-46254D01*
X-2422D01*
X-2498Y-46250D01*
X-2567Y-46239D01*
X-2636Y-46225D01*
X-2698Y-46207D01*
X-2757Y-46181D01*
X-2815Y-46156D01*
X-2862Y-46126D01*
X-2909Y-46101D01*
X-2949Y-46072D01*
X-2986Y-46043D01*
X-3015Y-46017D01*
X-3040Y-45992D01*
X-3062Y-45974D01*
X-3077Y-45959D01*
X-3084Y-45948D01*
X-3088Y-45944D01*
X-3131Y-45883D01*
X-3171Y-45814D01*
X-3204Y-45737D01*
X-3233Y-45661D01*
X-3259Y-45577D01*
X-3281Y-45493D01*
X-3299Y-45409D01*
X-3310Y-45329D01*
X-3321Y-45253D01*
X-3328Y-45180D01*
X-3335Y-45115D01*
X-3339Y-45056D01*
X-3342Y-45009D01*
Y-44973D01*
Y-44962D01*
Y-44951D01*
Y-44947D01*
Y-44943D01*
X-3339Y-44820D01*
X-3332Y-44707D01*
X-3321Y-44601D01*
X-3303Y-44507D01*
X-3284Y-44416D01*
X-3266Y-44336D01*
X-3244Y-44267D01*
X-3219Y-44201D01*
X-3197Y-44146D01*
X-3175Y-44099D01*
X-3157Y-44059D01*
X-3135Y-44026D01*
X-3121Y-44001D01*
X-3110Y-43983D01*
X-3102Y-43972D01*
X-3099Y-43968D01*
X-3051Y-43917D01*
X-3000Y-43870D01*
X-2949Y-43830D01*
X-2895Y-43797D01*
X-2844Y-43768D01*
X-2789Y-43746D01*
X-2738Y-43724D01*
X-2691Y-43710D01*
X-2644Y-43699D01*
X-2604Y-43688D01*
X-2564Y-43684D01*
X-2531Y-43677D01*
X-2505D01*
X-2487Y-43673D01*
X-2469D01*
X-2403Y-43677D01*
D02*
G37*
G36*
X-2433Y-38677D02*
X-2356Y-38688D01*
X-2287Y-38702D01*
X-2221Y-38724D01*
X-2159Y-38750D01*
X-2105Y-38779D01*
X-2054Y-38808D01*
X-2007Y-38841D01*
X-1967Y-38870D01*
X-1930Y-38899D01*
X-1897Y-38928D01*
X-1872Y-38953D01*
X-1854Y-38975D01*
X-1839Y-38990D01*
X-1832Y-39001D01*
X-1828Y-39004D01*
X-1795Y-39052D01*
X-1766Y-39099D01*
X-1745Y-39146D01*
X-1723Y-39197D01*
X-1690Y-39292D01*
X-1668Y-39379D01*
X-1661Y-39416D01*
X-1657Y-39452D01*
X-1650Y-39485D01*
Y-39514D01*
X-1646Y-39536D01*
Y-39550D01*
Y-39561D01*
Y-39565D01*
X-1650Y-39634D01*
X-1657Y-39700D01*
X-1668Y-39761D01*
X-1683Y-39820D01*
X-1697Y-39871D01*
X-1719Y-39922D01*
X-1737Y-39969D01*
X-1759Y-40009D01*
X-1781Y-40045D01*
X-1799Y-40078D01*
X-1821Y-40107D01*
X-1836Y-40129D01*
X-1850Y-40147D01*
X-1861Y-40162D01*
X-1868Y-40169D01*
X-1872Y-40173D01*
X-1916Y-40213D01*
X-1959Y-40249D01*
X-2007Y-40282D01*
X-2054Y-40311D01*
X-2098Y-40333D01*
X-2145Y-40351D01*
X-2229Y-40380D01*
X-2269Y-40391D01*
X-2305Y-40398D01*
X-2338Y-40402D01*
X-2363Y-40406D01*
X-2385Y-40409D01*
X-2418D01*
X-2480Y-40406D01*
X-2542Y-40395D01*
X-2596Y-40384D01*
X-2647Y-40369D01*
X-2687Y-40351D01*
X-2720Y-40340D01*
X-2742Y-40329D01*
X-2746Y-40326D01*
X-2749D01*
X-2673Y-40755D01*
X-1759D01*
Y-41207D01*
X-3037D01*
X-3284Y-39893D01*
X-2895Y-39838D01*
X-2862Y-39871D01*
X-2829Y-39900D01*
X-2796Y-39925D01*
X-2764Y-39947D01*
X-2702Y-39980D01*
X-2644Y-40002D01*
X-2593Y-40013D01*
X-2556Y-40020D01*
X-2542Y-40024D01*
X-2520D01*
X-2462Y-40020D01*
X-2407Y-40005D01*
X-2360Y-39987D01*
X-2320Y-39965D01*
X-2291Y-39940D01*
X-2265Y-39922D01*
X-2251Y-39907D01*
X-2247Y-39904D01*
X-2211Y-39856D01*
X-2185Y-39802D01*
X-2167Y-39743D01*
X-2156Y-39685D01*
X-2145Y-39634D01*
X-2141Y-39594D01*
Y-39576D01*
Y-39565D01*
Y-39558D01*
Y-39554D01*
X-2145Y-39467D01*
X-2156Y-39390D01*
X-2174Y-39328D01*
X-2192Y-39277D01*
X-2214Y-39234D01*
X-2229Y-39205D01*
X-2243Y-39190D01*
X-2247Y-39183D01*
X-2287Y-39143D01*
X-2331Y-39110D01*
X-2374Y-39088D01*
X-2414Y-39074D01*
X-2451Y-39066D01*
X-2480Y-39063D01*
X-2498Y-39059D01*
X-2505D01*
X-2553Y-39063D01*
X-2600Y-39074D01*
X-2640Y-39088D01*
X-2673Y-39106D01*
X-2702Y-39125D01*
X-2724Y-39139D01*
X-2738Y-39150D01*
X-2742Y-39154D01*
X-2775Y-39194D01*
X-2804Y-39234D01*
X-2826Y-39277D01*
X-2840Y-39317D01*
X-2851Y-39354D01*
X-2858Y-39387D01*
X-2862Y-39405D01*
Y-39412D01*
X-3342Y-39361D01*
X-3332Y-39303D01*
X-3321Y-39248D01*
X-3284Y-39150D01*
X-3244Y-39063D01*
X-3222Y-39026D01*
X-3197Y-38990D01*
X-3175Y-38961D01*
X-3157Y-38935D01*
X-3135Y-38913D01*
X-3121Y-38892D01*
X-3106Y-38877D01*
X-3095Y-38866D01*
X-3088Y-38862D01*
X-3084Y-38859D01*
X-3040Y-38826D01*
X-2997Y-38797D01*
X-2949Y-38771D01*
X-2902Y-38753D01*
X-2804Y-38717D01*
X-2716Y-38695D01*
X-2673Y-38688D01*
X-2636Y-38684D01*
X-2600Y-38680D01*
X-2571Y-38677D01*
X-2545Y-38673D01*
X-2513D01*
X-2433Y-38677D01*
D02*
G37*
G36*
X-1843Y-34226D02*
X-1530D01*
Y-34649D01*
X-1843D01*
Y-36250D01*
X-2251D01*
X-3342Y-34645D01*
Y-34226D01*
X-2309D01*
Y-33720D01*
X-1843D01*
Y-34226D01*
D02*
G37*
G36*
X-2451Y-28677D02*
X-2385Y-28684D01*
X-2327Y-28695D01*
X-2269Y-28710D01*
X-2218Y-28728D01*
X-2167Y-28746D01*
X-2120Y-28768D01*
X-2079Y-28790D01*
X-2043Y-28811D01*
X-2007Y-28833D01*
X-1981Y-28852D01*
X-1956Y-28870D01*
X-1938Y-28884D01*
X-1923Y-28895D01*
X-1916Y-28903D01*
X-1912Y-28906D01*
X-1868Y-28950D01*
X-1832Y-28997D01*
X-1799Y-29044D01*
X-1770Y-29092D01*
X-1748Y-29143D01*
X-1726Y-29190D01*
X-1697Y-29277D01*
X-1690Y-29317D01*
X-1683Y-29357D01*
X-1675Y-29390D01*
X-1672Y-29419D01*
X-1668Y-29441D01*
Y-29459D01*
Y-29470D01*
Y-29474D01*
X-1675Y-29558D01*
X-1690Y-29631D01*
X-1708Y-29700D01*
X-1734Y-29754D01*
X-1759Y-29802D01*
X-1777Y-29834D01*
X-1792Y-29856D01*
X-1799Y-29863D01*
X-1850Y-29918D01*
X-1908Y-29965D01*
X-1967Y-30002D01*
X-2021Y-30031D01*
X-2069Y-30053D01*
X-2109Y-30064D01*
X-2123Y-30071D01*
X-2134D01*
X-2141Y-30075D01*
X-2145D01*
X-2079Y-30115D01*
X-2025Y-30155D01*
X-1977Y-30198D01*
X-1934Y-30242D01*
X-1897Y-30286D01*
X-1868Y-30329D01*
X-1846Y-30373D01*
X-1825Y-30413D01*
X-1810Y-30453D01*
X-1799Y-30490D01*
X-1792Y-30522D01*
X-1788Y-30551D01*
X-1785Y-30573D01*
X-1781Y-30591D01*
Y-30602D01*
Y-30606D01*
X-1785Y-30650D01*
X-1788Y-30690D01*
X-1810Y-30770D01*
X-1836Y-30843D01*
X-1868Y-30904D01*
X-1901Y-30955D01*
X-1930Y-30992D01*
X-1941Y-31006D01*
X-1952Y-31017D01*
X-1956Y-31021D01*
X-1959Y-31025D01*
X-1999Y-31065D01*
X-2047Y-31101D01*
X-2090Y-31130D01*
X-2138Y-31156D01*
X-2189Y-31181D01*
X-2236Y-31199D01*
X-2327Y-31225D01*
X-2367Y-31236D01*
X-2407Y-31243D01*
X-2440Y-31247D01*
X-2473Y-31250D01*
X-2498Y-31254D01*
X-2531D01*
X-2607Y-31250D01*
X-2676Y-31243D01*
X-2742Y-31228D01*
X-2796Y-31214D01*
X-2840Y-31199D01*
X-2877Y-31185D01*
X-2898Y-31177D01*
X-2902Y-31174D01*
X-2906D01*
X-2964Y-31141D01*
X-3019Y-31105D01*
X-3062Y-31068D01*
X-3099Y-31036D01*
X-3128Y-31003D01*
X-3150Y-30977D01*
X-3164Y-30963D01*
X-3168Y-30955D01*
X-3201Y-30901D01*
X-3230Y-30843D01*
X-3252Y-30781D01*
X-3273Y-30722D01*
X-3288Y-30668D01*
X-3299Y-30628D01*
X-3303Y-30610D01*
Y-30599D01*
X-3306Y-30591D01*
Y-30588D01*
X-2862Y-30515D01*
X-2851Y-30573D01*
X-2837Y-30624D01*
X-2822Y-30668D01*
X-2804Y-30701D01*
X-2786Y-30730D01*
X-2771Y-30752D01*
X-2760Y-30762D01*
X-2757Y-30766D01*
X-2724Y-30795D01*
X-2687Y-30817D01*
X-2651Y-30832D01*
X-2618Y-30843D01*
X-2589Y-30850D01*
X-2567Y-30854D01*
X-2545D01*
X-2502Y-30850D01*
X-2458Y-30843D01*
X-2425Y-30828D01*
X-2396Y-30817D01*
X-2371Y-30803D01*
X-2356Y-30788D01*
X-2345Y-30781D01*
X-2341Y-30777D01*
X-2316Y-30748D01*
X-2298Y-30712D01*
X-2283Y-30679D01*
X-2276Y-30646D01*
X-2269Y-30617D01*
X-2265Y-30595D01*
Y-30580D01*
Y-30573D01*
X-2269Y-30519D01*
X-2280Y-30471D01*
X-2298Y-30431D01*
X-2316Y-30398D01*
X-2338Y-30369D01*
X-2352Y-30351D01*
X-2367Y-30337D01*
X-2371Y-30333D01*
X-2414Y-30304D01*
X-2462Y-30282D01*
X-2513Y-30268D01*
X-2560Y-30257D01*
X-2604Y-30253D01*
X-2640Y-30249D01*
X-2673D01*
X-2724Y-29860D01*
X-2676Y-29871D01*
X-2636Y-29882D01*
X-2596Y-29889D01*
X-2564Y-29893D01*
X-2538Y-29896D01*
X-2502D01*
X-2451Y-29893D01*
X-2407Y-29878D01*
X-2367Y-29863D01*
X-2331Y-29842D01*
X-2305Y-29823D01*
X-2283Y-29805D01*
X-2269Y-29791D01*
X-2265Y-29787D01*
X-2232Y-29743D01*
X-2207Y-29696D01*
X-2189Y-29649D01*
X-2174Y-29601D01*
X-2167Y-29558D01*
X-2163Y-29525D01*
Y-29503D01*
Y-29499D01*
Y-29496D01*
X-2167Y-29427D01*
X-2178Y-29365D01*
X-2196Y-29310D01*
X-2214Y-29267D01*
X-2236Y-29234D01*
X-2251Y-29208D01*
X-2265Y-29190D01*
X-2269Y-29186D01*
X-2309Y-29150D01*
X-2352Y-29121D01*
X-2393Y-29103D01*
X-2433Y-29088D01*
X-2469Y-29081D01*
X-2494Y-29077D01*
X-2513Y-29074D01*
X-2520D01*
X-2571Y-29077D01*
X-2615Y-29088D01*
X-2655Y-29103D01*
X-2691Y-29121D01*
X-2716Y-29135D01*
X-2738Y-29150D01*
X-2753Y-29161D01*
X-2757Y-29165D01*
X-2789Y-29205D01*
X-2818Y-29248D01*
X-2837Y-29296D01*
X-2855Y-29339D01*
X-2866Y-29379D01*
X-2873Y-29412D01*
X-2877Y-29434D01*
Y-29438D01*
Y-29441D01*
X-3342Y-29383D01*
X-3335Y-29325D01*
X-3321Y-29270D01*
X-3288Y-29168D01*
X-3248Y-29081D01*
X-3222Y-29044D01*
X-3201Y-29008D01*
X-3179Y-28975D01*
X-3157Y-28950D01*
X-3139Y-28924D01*
X-3121Y-28906D01*
X-3106Y-28892D01*
X-3095Y-28881D01*
X-3088Y-28873D01*
X-3084Y-28870D01*
X-3040Y-28837D01*
X-2993Y-28804D01*
X-2949Y-28779D01*
X-2898Y-28757D01*
X-2804Y-28721D01*
X-2716Y-28699D01*
X-2673Y-28691D01*
X-2636Y-28684D01*
X-2604Y-28680D01*
X-2575Y-28677D01*
X-2549Y-28673D01*
X-2516D01*
X-2451Y-28677D01*
D02*
G37*
G36*
X-1650Y-24168D02*
X-2611D01*
X-2582Y-24216D01*
X-2549Y-24256D01*
X-2534Y-24274D01*
X-2523Y-24288D01*
X-2516Y-24296D01*
X-2513Y-24299D01*
X-2498Y-24314D01*
X-2483Y-24332D01*
X-2440Y-24372D01*
X-2393Y-24419D01*
X-2345Y-24467D01*
X-2298Y-24510D01*
X-2258Y-24547D01*
X-2243Y-24561D01*
X-2232Y-24572D01*
X-2225Y-24576D01*
X-2221Y-24579D01*
X-2141Y-24656D01*
X-2076Y-24718D01*
X-2021Y-24776D01*
X-1977Y-24820D01*
X-1945Y-24856D01*
X-1923Y-24882D01*
X-1908Y-24900D01*
X-1905Y-24904D01*
X-1857Y-24965D01*
X-1817Y-25024D01*
X-1785Y-25078D01*
X-1759Y-25126D01*
X-1737Y-25166D01*
X-1723Y-25198D01*
X-1715Y-25216D01*
X-1712Y-25224D01*
X-1690Y-25282D01*
X-1675Y-25340D01*
X-1664Y-25395D01*
X-1657Y-25446D01*
X-1654Y-25486D01*
X-1650Y-25519D01*
Y-25541D01*
Y-25548D01*
X-1654Y-25602D01*
X-1661Y-25657D01*
X-1668Y-25708D01*
X-1683Y-25755D01*
X-1719Y-25839D01*
X-1756Y-25912D01*
X-1777Y-25945D01*
X-1795Y-25970D01*
X-1814Y-25995D01*
X-1832Y-26014D01*
X-1846Y-26028D01*
X-1854Y-26043D01*
X-1861Y-26046D01*
X-1865Y-26050D01*
X-1905Y-26087D01*
X-1952Y-26119D01*
X-1996Y-26145D01*
X-2047Y-26167D01*
X-2141Y-26203D01*
X-2236Y-26228D01*
X-2280Y-26236D01*
X-2320Y-26243D01*
X-2356Y-26247D01*
X-2389Y-26250D01*
X-2414Y-26254D01*
X-2451D01*
X-2513Y-26250D01*
X-2571Y-26247D01*
X-2684Y-26228D01*
X-2778Y-26199D01*
X-2822Y-26185D01*
X-2862Y-26167D01*
X-2898Y-26152D01*
X-2928Y-26134D01*
X-2957Y-26119D01*
X-2978Y-26108D01*
X-2997Y-26094D01*
X-3008Y-26087D01*
X-3015Y-26083D01*
X-3019Y-26079D01*
X-3059Y-26043D01*
X-3095Y-26006D01*
X-3128Y-25963D01*
X-3157Y-25915D01*
X-3201Y-25821D01*
X-3237Y-25730D01*
X-3248Y-25682D01*
X-3259Y-25642D01*
X-3270Y-25606D01*
X-3273Y-25573D01*
X-3281Y-25544D01*
Y-25526D01*
X-3284Y-25511D01*
Y-25508D01*
X-2804Y-25460D01*
X-2796Y-25533D01*
X-2782Y-25595D01*
X-2767Y-25650D01*
X-2749Y-25690D01*
X-2735Y-25723D01*
X-2720Y-25744D01*
X-2709Y-25759D01*
X-2706Y-25763D01*
X-2669Y-25792D01*
X-2629Y-25813D01*
X-2589Y-25832D01*
X-2549Y-25843D01*
X-2516Y-25850D01*
X-2487Y-25853D01*
X-2462D01*
X-2407Y-25850D01*
X-2360Y-25839D01*
X-2320Y-25824D01*
X-2283Y-25810D01*
X-2258Y-25795D01*
X-2236Y-25781D01*
X-2225Y-25770D01*
X-2221Y-25766D01*
X-2192Y-25730D01*
X-2170Y-25690D01*
X-2156Y-25650D01*
X-2145Y-25610D01*
X-2138Y-25573D01*
X-2134Y-25541D01*
Y-25522D01*
Y-25519D01*
Y-25515D01*
X-2138Y-25460D01*
X-2149Y-25409D01*
X-2167Y-25359D01*
X-2185Y-25315D01*
X-2203Y-25275D01*
X-2221Y-25246D01*
X-2232Y-25227D01*
X-2236Y-25220D01*
X-2251Y-25198D01*
X-2272Y-25173D01*
X-2301Y-25140D01*
X-2331Y-25111D01*
X-2396Y-25042D01*
X-2462Y-24973D01*
X-2527Y-24907D01*
X-2556Y-24878D01*
X-2585Y-24856D01*
X-2607Y-24834D01*
X-2622Y-24820D01*
X-2633Y-24809D01*
X-2636Y-24805D01*
X-2709Y-24736D01*
X-2775Y-24670D01*
X-2837Y-24609D01*
X-2891Y-24554D01*
X-2942Y-24499D01*
X-2986Y-24449D01*
X-3026Y-24405D01*
X-3059Y-24361D01*
X-3088Y-24325D01*
X-3113Y-24292D01*
X-3135Y-24266D01*
X-3150Y-24241D01*
X-3164Y-24226D01*
X-3171Y-24212D01*
X-3179Y-24205D01*
Y-24201D01*
X-3226Y-24117D01*
X-3262Y-24030D01*
X-3292Y-23950D01*
X-3313Y-23877D01*
X-3328Y-23811D01*
X-3332Y-23786D01*
X-3335Y-23764D01*
X-3339Y-23746D01*
X-3342Y-23731D01*
Y-23724D01*
Y-23720D01*
X-1650D01*
Y-24168D01*
D02*
G37*
G36*
X-2236Y-21254D02*
X-2629D01*
X-2665Y-21170D01*
X-2713Y-21094D01*
X-2764Y-21021D01*
X-2815Y-20963D01*
X-2858Y-20915D01*
X-2898Y-20879D01*
X-2913Y-20864D01*
X-2924Y-20854D01*
X-2931Y-20850D01*
X-2935Y-20846D01*
X-3015Y-20788D01*
X-3091Y-20737D01*
X-3161Y-20697D01*
X-3222Y-20668D01*
X-3273Y-20646D01*
X-3310Y-20628D01*
X-3324Y-20624D01*
X-3335Y-20621D01*
X-3339Y-20617D01*
X-3342D01*
Y-20180D01*
X-3212Y-20231D01*
X-3095Y-20286D01*
X-3040Y-20315D01*
X-2989Y-20348D01*
X-2942Y-20377D01*
X-2898Y-20406D01*
X-2858Y-20435D01*
X-2822Y-20460D01*
X-2793Y-20482D01*
X-2767Y-20504D01*
X-2746Y-20522D01*
X-2731Y-20533D01*
X-2724Y-20540D01*
X-2720Y-20544D01*
Y-18721D01*
X-2236D01*
Y-21254D01*
D02*
G37*
G36*
X-2462Y-13677D02*
X-2400Y-13684D01*
X-2338Y-13699D01*
X-2283Y-13713D01*
X-2232Y-13731D01*
X-2185Y-13753D01*
X-2145Y-13779D01*
X-2105Y-13804D01*
X-2072Y-13826D01*
X-2039Y-13851D01*
X-2014Y-13873D01*
X-1992Y-13892D01*
X-1977Y-13906D01*
X-1967Y-13921D01*
X-1959Y-13928D01*
X-1956Y-13932D01*
X-1912Y-13994D01*
X-1876Y-14066D01*
X-1839Y-14143D01*
X-1814Y-14226D01*
X-1788Y-14310D01*
X-1770Y-14394D01*
X-1752Y-14481D01*
X-1737Y-14565D01*
X-1730Y-14645D01*
X-1723Y-14718D01*
X-1715Y-14787D01*
X-1712Y-14845D01*
X-1708Y-14893D01*
Y-14929D01*
Y-14943D01*
Y-14954D01*
Y-14958D01*
Y-14962D01*
X-1712Y-15093D01*
X-1719Y-15213D01*
X-1730Y-15322D01*
X-1748Y-15424D01*
X-1766Y-15519D01*
X-1785Y-15602D01*
X-1810Y-15679D01*
X-1832Y-15744D01*
X-1854Y-15806D01*
X-1876Y-15854D01*
X-1897Y-15897D01*
X-1916Y-15934D01*
X-1934Y-15959D01*
X-1945Y-15977D01*
X-1952Y-15988D01*
X-1956Y-15992D01*
X-1996Y-16039D01*
X-2039Y-16079D01*
X-2087Y-16112D01*
X-2134Y-16145D01*
X-2181Y-16170D01*
X-2229Y-16188D01*
X-2272Y-16207D01*
X-2320Y-16221D01*
X-2363Y-16232D01*
X-2400Y-16239D01*
X-2436Y-16247D01*
X-2465Y-16250D01*
X-2491Y-16254D01*
X-2527D01*
X-2593Y-16250D01*
X-2655Y-16243D01*
X-2716Y-16228D01*
X-2771Y-16214D01*
X-2822Y-16192D01*
X-2869Y-16170D01*
X-2909Y-16148D01*
X-2949Y-16123D01*
X-2982Y-16097D01*
X-3015Y-16076D01*
X-3040Y-16054D01*
X-3059Y-16032D01*
X-3077Y-16017D01*
X-3088Y-16003D01*
X-3095Y-15995D01*
X-3099Y-15992D01*
X-3142Y-15930D01*
X-3179Y-15857D01*
X-3212Y-15781D01*
X-3241Y-15701D01*
X-3262Y-15617D01*
X-3284Y-15530D01*
X-3299Y-15446D01*
X-3313Y-15362D01*
X-3321Y-15282D01*
X-3328Y-15209D01*
X-3335Y-15140D01*
X-3339Y-15082D01*
X-3342Y-15034D01*
Y-14998D01*
Y-14984D01*
Y-14973D01*
Y-14969D01*
Y-14965D01*
X-3339Y-14834D01*
X-3332Y-14714D01*
X-3321Y-14601D01*
X-3306Y-14499D01*
X-3292Y-14408D01*
X-3273Y-14325D01*
X-3252Y-14252D01*
X-3230Y-14186D01*
X-3212Y-14132D01*
X-3190Y-14081D01*
X-3171Y-14041D01*
X-3153Y-14008D01*
X-3142Y-13986D01*
X-3131Y-13968D01*
X-3124Y-13957D01*
X-3121Y-13953D01*
X-3077Y-13903D01*
X-3029Y-13862D01*
X-2982Y-13822D01*
X-2931Y-13793D01*
X-2884Y-13764D01*
X-2833Y-13742D01*
X-2786Y-13724D01*
X-2738Y-13710D01*
X-2695Y-13695D01*
X-2655Y-13688D01*
X-2618Y-13680D01*
X-2589Y-13677D01*
X-2564D01*
X-2542Y-13673D01*
X-2527D01*
X-2462Y-13677D01*
D02*
G37*
G36*
X-2132Y-10734D02*
X-2563D01*
X-3342Y-8721D01*
X-2912D01*
X-2746Y-9177D01*
X-1937D01*
X-1762Y-8721D01*
X-1323D01*
X-2132Y-10734D01*
D02*
G37*
G36*
X1767Y-8723D02*
X1840Y-8726D01*
X1901Y-8732D01*
X1951Y-8741D01*
X1991Y-8750D01*
X2024Y-8755D01*
X2032Y-8758D01*
X2041D01*
X2044Y-8761D01*
X2047D01*
X2111Y-8784D01*
X2169Y-8811D01*
X2216Y-8837D01*
X2256Y-8863D01*
X2288Y-8886D01*
X2312Y-8904D01*
X2326Y-8915D01*
X2332Y-8921D01*
X2381Y-8977D01*
X2425Y-9035D01*
X2463Y-9096D01*
X2492Y-9151D01*
X2515Y-9204D01*
X2527Y-9224D01*
X2533Y-9241D01*
X2539Y-9259D01*
X2544Y-9270D01*
X2547Y-9276D01*
Y-9279D01*
X2568Y-9349D01*
X2585Y-9422D01*
X2597Y-9492D01*
X2603Y-9559D01*
X2606Y-9591D01*
X2608Y-9620D01*
Y-9643D01*
X2611Y-9666D01*
Y-9684D01*
Y-9695D01*
Y-9704D01*
Y-9707D01*
X2608Y-9809D01*
X2600Y-9899D01*
X2597Y-9943D01*
X2591Y-9980D01*
X2585Y-10018D01*
X2579Y-10050D01*
X2571Y-10079D01*
X2565Y-10106D01*
X2559Y-10129D01*
X2556Y-10146D01*
X2550Y-10161D01*
X2547Y-10173D01*
X2544Y-10178D01*
Y-10181D01*
X2518Y-10251D01*
X2486Y-10315D01*
X2454Y-10370D01*
X2422Y-10417D01*
X2396Y-10455D01*
X2373Y-10484D01*
X2358Y-10501D01*
X2355Y-10507D01*
X2352D01*
X2303Y-10554D01*
X2253Y-10592D01*
X2201Y-10624D01*
X2155Y-10650D01*
X2114Y-10670D01*
X2079Y-10685D01*
X2067Y-10688D01*
X2058Y-10691D01*
X2053Y-10694D01*
X2050D01*
X1994Y-10708D01*
X1933Y-10717D01*
X1869Y-10725D01*
X1808Y-10728D01*
X1753Y-10731D01*
X1730Y-10734D01*
X926D01*
Y-8721D01*
X1689D01*
X1767Y-8723D01*
D02*
G37*
G36*
X-264D02*
X-191Y-8726D01*
X-130Y-8732D01*
X-80Y-8741D01*
X-40Y-8750D01*
X-8Y-8755D01*
X1Y-8758D01*
X10D01*
X13Y-8761D01*
X16D01*
X80Y-8784D01*
X138Y-8811D01*
X184Y-8837D01*
X225Y-8863D01*
X257Y-8886D01*
X280Y-8904D01*
X295Y-8915D01*
X301Y-8921D01*
X350Y-8977D01*
X394Y-9035D01*
X432Y-9096D01*
X461Y-9151D01*
X484Y-9204D01*
X496Y-9224D01*
X502Y-9241D01*
X507Y-9259D01*
X513Y-9270D01*
X516Y-9276D01*
Y-9279D01*
X537Y-9349D01*
X554Y-9422D01*
X566Y-9492D01*
X571Y-9559D01*
X574Y-9591D01*
X577Y-9620D01*
Y-9643D01*
X580Y-9666D01*
Y-9684D01*
Y-9695D01*
Y-9704D01*
Y-9707D01*
X577Y-9809D01*
X569Y-9899D01*
X566Y-9943D01*
X560Y-9980D01*
X554Y-10018D01*
X548Y-10050D01*
X539Y-10079D01*
X534Y-10106D01*
X528Y-10129D01*
X525Y-10146D01*
X519Y-10161D01*
X516Y-10173D01*
X513Y-10178D01*
Y-10181D01*
X487Y-10251D01*
X455Y-10315D01*
X423Y-10370D01*
X391Y-10417D01*
X365Y-10455D01*
X341Y-10484D01*
X327Y-10501D01*
X324Y-10507D01*
X321D01*
X272Y-10554D01*
X222Y-10592D01*
X170Y-10624D01*
X123Y-10650D01*
X83Y-10670D01*
X48Y-10685D01*
X36Y-10688D01*
X27Y-10691D01*
X21Y-10694D01*
X18D01*
X-37Y-10708D01*
X-98Y-10717D01*
X-162Y-10725D01*
X-223Y-10728D01*
X-278Y-10731D01*
X-302Y-10734D01*
X-1105D01*
Y-8721D01*
X-342D01*
X-264Y-8723D01*
D02*
G37*
G36*
X3574Y-8686D02*
X3624Y-8691D01*
X3673Y-8703D01*
X3717Y-8715D01*
X3758Y-8729D01*
X3796Y-8747D01*
X3828Y-8767D01*
X3860Y-8787D01*
X3886Y-8805D01*
X3912Y-8825D01*
X3932Y-8843D01*
X3950Y-8857D01*
X3962Y-8869D01*
X3970Y-8880D01*
X3976Y-8886D01*
X3979Y-8889D01*
X4014Y-8939D01*
X4043Y-8997D01*
X4072Y-9058D01*
X4092Y-9125D01*
X4113Y-9192D01*
X4127Y-9259D01*
X4142Y-9329D01*
X4154Y-9396D01*
X4160Y-9460D01*
X4165Y-9518D01*
X4171Y-9573D01*
X4174Y-9620D01*
X4177Y-9657D01*
Y-9687D01*
Y-9698D01*
Y-9707D01*
Y-9710D01*
Y-9713D01*
X4174Y-9817D01*
X4168Y-9914D01*
X4160Y-10001D01*
X4145Y-10082D01*
X4130Y-10158D01*
X4116Y-10225D01*
X4095Y-10286D01*
X4078Y-10338D01*
X4061Y-10388D01*
X4043Y-10426D01*
X4026Y-10461D01*
X4011Y-10490D01*
X3997Y-10510D01*
X3988Y-10525D01*
X3982Y-10533D01*
X3979Y-10536D01*
X3947Y-10574D01*
X3912Y-10606D01*
X3874Y-10632D01*
X3836Y-10659D01*
X3799Y-10679D01*
X3761Y-10694D01*
X3726Y-10708D01*
X3688Y-10720D01*
X3653Y-10728D01*
X3624Y-10734D01*
X3595Y-10740D01*
X3572Y-10743D01*
X3551Y-10746D01*
X3522D01*
X3470Y-10743D01*
X3420Y-10737D01*
X3371Y-10725D01*
X3327Y-10714D01*
X3286Y-10696D01*
X3249Y-10679D01*
X3217Y-10661D01*
X3185Y-10641D01*
X3158Y-10621D01*
X3132Y-10603D01*
X3112Y-10586D01*
X3097Y-10568D01*
X3083Y-10557D01*
X3074Y-10545D01*
X3068Y-10539D01*
X3065Y-10536D01*
X3030Y-10487D01*
X3001Y-10429D01*
X2975Y-10368D01*
X2952Y-10304D01*
X2934Y-10237D01*
X2917Y-10167D01*
X2905Y-10100D01*
X2894Y-10033D01*
X2888Y-9969D01*
X2882Y-9911D01*
X2876Y-9855D01*
X2873Y-9809D01*
X2870Y-9771D01*
Y-9742D01*
Y-9730D01*
Y-9721D01*
Y-9719D01*
Y-9716D01*
X2873Y-9611D01*
X2879Y-9515D01*
X2888Y-9425D01*
X2899Y-9343D01*
X2911Y-9270D01*
X2926Y-9204D01*
X2943Y-9145D01*
X2960Y-9093D01*
X2975Y-9049D01*
X2992Y-9009D01*
X3007Y-8977D01*
X3022Y-8950D01*
X3030Y-8933D01*
X3039Y-8918D01*
X3045Y-8910D01*
X3048Y-8907D01*
X3083Y-8866D01*
X3121Y-8834D01*
X3158Y-8802D01*
X3199Y-8779D01*
X3237Y-8755D01*
X3278Y-8738D01*
X3316Y-8723D01*
X3353Y-8712D01*
X3388Y-8700D01*
X3420Y-8694D01*
X3449Y-8688D01*
X3473Y-8686D01*
X3493D01*
X3511Y-8683D01*
X3522D01*
X3574Y-8686D01*
D02*
G37*
G36*
X-2132Y-5734D02*
X-2563D01*
X-3342Y-3720D01*
X-2912D01*
X-2746Y-4177D01*
X-1937D01*
X-1762Y-3720D01*
X-1323D01*
X-2132Y-5734D01*
D02*
G37*
G36*
X3857Y-5746D02*
X3542D01*
X3513Y-5679D01*
X3476Y-5618D01*
X3435Y-5560D01*
X3394Y-5513D01*
X3359Y-5475D01*
X3327Y-5446D01*
X3316Y-5435D01*
X3307Y-5426D01*
X3301Y-5423D01*
X3298Y-5420D01*
X3234Y-5373D01*
X3173Y-5333D01*
X3118Y-5301D01*
X3068Y-5277D01*
X3028Y-5260D01*
X2998Y-5245D01*
X2987Y-5242D01*
X2978Y-5240D01*
X2975Y-5237D01*
X2972D01*
Y-4887D01*
X3077Y-4928D01*
X3170Y-4972D01*
X3214Y-4995D01*
X3254Y-5021D01*
X3292Y-5045D01*
X3327Y-5068D01*
X3359Y-5091D01*
X3388Y-5111D01*
X3412Y-5129D01*
X3432Y-5146D01*
X3449Y-5161D01*
X3461Y-5170D01*
X3467Y-5175D01*
X3470Y-5178D01*
Y-3720D01*
X3857D01*
Y-5746D01*
D02*
G37*
G36*
X1767Y-3723D02*
X1840Y-3726D01*
X1901Y-3732D01*
X1951Y-3741D01*
X1991Y-3750D01*
X2024Y-3755D01*
X2032Y-3758D01*
X2041D01*
X2044Y-3761D01*
X2047D01*
X2111Y-3785D01*
X2169Y-3811D01*
X2216Y-3837D01*
X2256Y-3863D01*
X2288Y-3886D01*
X2312Y-3904D01*
X2326Y-3915D01*
X2332Y-3921D01*
X2381Y-3977D01*
X2425Y-4035D01*
X2463Y-4096D01*
X2492Y-4151D01*
X2515Y-4203D01*
X2527Y-4224D01*
X2533Y-4241D01*
X2539Y-4259D01*
X2544Y-4270D01*
X2547Y-4276D01*
Y-4279D01*
X2568Y-4349D01*
X2585Y-4422D01*
X2597Y-4492D01*
X2603Y-4559D01*
X2606Y-4591D01*
X2608Y-4620D01*
Y-4643D01*
X2611Y-4666D01*
Y-4684D01*
Y-4695D01*
Y-4704D01*
Y-4707D01*
X2608Y-4809D01*
X2600Y-4899D01*
X2597Y-4943D01*
X2591Y-4981D01*
X2585Y-5018D01*
X2579Y-5050D01*
X2571Y-5079D01*
X2565Y-5106D01*
X2559Y-5129D01*
X2556Y-5146D01*
X2550Y-5161D01*
X2547Y-5173D01*
X2544Y-5178D01*
Y-5181D01*
X2518Y-5251D01*
X2486Y-5315D01*
X2454Y-5370D01*
X2422Y-5417D01*
X2396Y-5455D01*
X2373Y-5484D01*
X2358Y-5501D01*
X2355Y-5507D01*
X2352D01*
X2303Y-5554D01*
X2253Y-5592D01*
X2201Y-5624D01*
X2155Y-5650D01*
X2114Y-5670D01*
X2079Y-5685D01*
X2067Y-5688D01*
X2058Y-5691D01*
X2053Y-5694D01*
X2050D01*
X1994Y-5708D01*
X1933Y-5717D01*
X1869Y-5725D01*
X1808Y-5728D01*
X1753Y-5731D01*
X1730Y-5734D01*
X926D01*
Y-3720D01*
X1689D01*
X1767Y-3723D01*
D02*
G37*
G36*
X-264D02*
X-191Y-3726D01*
X-130Y-3732D01*
X-80Y-3741D01*
X-40Y-3750D01*
X-8Y-3755D01*
X1Y-3758D01*
X10D01*
X13Y-3761D01*
X16D01*
X80Y-3785D01*
X138Y-3811D01*
X184Y-3837D01*
X225Y-3863D01*
X257Y-3886D01*
X280Y-3904D01*
X295Y-3915D01*
X301Y-3921D01*
X350Y-3977D01*
X394Y-4035D01*
X432Y-4096D01*
X461Y-4151D01*
X484Y-4203D01*
X496Y-4224D01*
X502Y-4241D01*
X507Y-4259D01*
X513Y-4270D01*
X516Y-4276D01*
Y-4279D01*
X537Y-4349D01*
X554Y-4422D01*
X566Y-4492D01*
X571Y-4559D01*
X574Y-4591D01*
X577Y-4620D01*
Y-4643D01*
X580Y-4666D01*
Y-4684D01*
Y-4695D01*
Y-4704D01*
Y-4707D01*
X577Y-4809D01*
X569Y-4899D01*
X566Y-4943D01*
X560Y-4981D01*
X554Y-5018D01*
X548Y-5050D01*
X539Y-5079D01*
X534Y-5106D01*
X528Y-5129D01*
X525Y-5146D01*
X519Y-5161D01*
X516Y-5173D01*
X513Y-5178D01*
Y-5181D01*
X487Y-5251D01*
X455Y-5315D01*
X423Y-5370D01*
X391Y-5417D01*
X365Y-5455D01*
X341Y-5484D01*
X327Y-5501D01*
X324Y-5507D01*
X321D01*
X272Y-5554D01*
X222Y-5592D01*
X170Y-5624D01*
X123Y-5650D01*
X83Y-5670D01*
X48Y-5685D01*
X36Y-5688D01*
X27Y-5691D01*
X21Y-5694D01*
X18D01*
X-37Y-5708D01*
X-98Y-5717D01*
X-162Y-5725D01*
X-223Y-5728D01*
X-278Y-5731D01*
X-302Y-5734D01*
X-1105D01*
Y-3720D01*
X-342D01*
X-264Y-3723D01*
D02*
G37*
G36*
X-1948Y1323D02*
X-1839Y1309D01*
X-1734Y1290D01*
X-1643Y1269D01*
X-1603Y1258D01*
X-1566Y1247D01*
X-1533Y1236D01*
X-1504Y1229D01*
X-1483Y1221D01*
X-1468Y1214D01*
X-1457Y1210D01*
X-1453D01*
X-1344Y1167D01*
X-1253Y1119D01*
X-1173Y1072D01*
X-1104Y1032D01*
X-1053Y996D01*
X-1035Y981D01*
X-1017Y967D01*
X-1006Y956D01*
X-995Y948D01*
X-987Y941D01*
Y-71D01*
X-2083D01*
Y355D01*
X-1501D01*
Y679D01*
X-1544Y712D01*
X-1592Y741D01*
X-1639Y766D01*
X-1683Y788D01*
X-1719Y806D01*
X-1752Y821D01*
X-1770Y828D01*
X-1774Y832D01*
X-1777D01*
X-1836Y854D01*
X-1894Y868D01*
X-1948Y879D01*
X-1996Y886D01*
X-2039Y890D01*
X-2069Y894D01*
X-2098D01*
X-2156Y890D01*
X-2214Y883D01*
X-2265Y872D01*
X-2316Y857D01*
X-2407Y821D01*
X-2443Y803D01*
X-2480Y781D01*
X-2513Y759D01*
X-2542Y741D01*
X-2564Y719D01*
X-2585Y704D01*
X-2600Y690D01*
X-2611Y679D01*
X-2618Y672D01*
X-2622Y668D01*
X-2655Y624D01*
X-2687Y573D01*
X-2713Y522D01*
X-2735Y468D01*
X-2771Y355D01*
X-2793Y246D01*
X-2800Y195D01*
X-2807Y144D01*
X-2811Y104D01*
X-2815Y64D01*
X-2818Y35D01*
Y9D01*
Y-5D01*
Y-9D01*
X-2815Y-85D01*
X-2811Y-155D01*
X-2800Y-224D01*
X-2789Y-286D01*
X-2775Y-340D01*
X-2757Y-391D01*
X-2738Y-439D01*
X-2720Y-482D01*
X-2706Y-519D01*
X-2687Y-551D01*
X-2669Y-577D01*
X-2655Y-599D01*
X-2644Y-617D01*
X-2633Y-628D01*
X-2629Y-635D01*
X-2625Y-639D01*
X-2585Y-675D01*
X-2545Y-712D01*
X-2502Y-737D01*
X-2458Y-763D01*
X-2414Y-784D01*
X-2371Y-803D01*
X-2287Y-828D01*
X-2247Y-835D01*
X-2211Y-843D01*
X-2178Y-846D01*
X-2149Y-850D01*
X-2127Y-853D01*
X-2094D01*
X-2014Y-850D01*
X-1945Y-835D01*
X-1883Y-821D01*
X-1828Y-799D01*
X-1788Y-781D01*
X-1756Y-763D01*
X-1737Y-748D01*
X-1730Y-744D01*
X-1679Y-701D01*
X-1635Y-653D01*
X-1599Y-606D01*
X-1574Y-559D01*
X-1552Y-515D01*
X-1537Y-482D01*
X-1530Y-460D01*
X-1526Y-457D01*
Y-453D01*
X-1020Y-548D01*
X-1035Y-610D01*
X-1057Y-672D01*
X-1078Y-726D01*
X-1108Y-777D01*
X-1133Y-828D01*
X-1162Y-872D01*
X-1191Y-912D01*
X-1220Y-948D01*
X-1249Y-981D01*
X-1275Y-1010D01*
X-1297Y-1036D01*
X-1319Y-1054D01*
X-1337Y-1068D01*
X-1351Y-1083D01*
X-1359Y-1087D01*
X-1362Y-1090D01*
X-1413Y-1127D01*
X-1468Y-1156D01*
X-1526Y-1181D01*
X-1588Y-1203D01*
X-1708Y-1239D01*
X-1825Y-1261D01*
X-1879Y-1272D01*
X-1930Y-1276D01*
X-1977Y-1279D01*
X-2018Y-1283D01*
X-2050Y-1287D01*
X-2094D01*
X-2225Y-1283D01*
X-2341Y-1268D01*
X-2393Y-1258D01*
X-2443Y-1247D01*
X-2491Y-1236D01*
X-2531Y-1225D01*
X-2567Y-1210D01*
X-2604Y-1199D01*
X-2629Y-1188D01*
X-2655Y-1181D01*
X-2673Y-1170D01*
X-2687Y-1167D01*
X-2695Y-1159D01*
X-2698D01*
X-2811Y-1094D01*
X-2858Y-1054D01*
X-2906Y-1017D01*
X-2949Y-977D01*
X-2989Y-937D01*
X-3026Y-897D01*
X-3059Y-861D01*
X-3084Y-824D01*
X-3110Y-792D01*
X-3131Y-763D01*
X-3150Y-737D01*
X-3161Y-715D01*
X-3171Y-701D01*
X-3175Y-690D01*
X-3179Y-686D01*
X-3208Y-628D01*
X-3233Y-570D01*
X-3273Y-450D01*
X-3303Y-329D01*
X-3321Y-224D01*
X-3328Y-173D01*
X-3335Y-129D01*
X-3339Y-89D01*
Y-53D01*
X-3342Y-27D01*
Y-5D01*
Y9D01*
Y13D01*
X-3335Y148D01*
X-3321Y271D01*
X-3295Y384D01*
X-3284Y439D01*
X-3270Y486D01*
X-3255Y530D01*
X-3244Y570D01*
X-3230Y603D01*
X-3219Y632D01*
X-3212Y653D01*
X-3204Y672D01*
X-3197Y683D01*
Y686D01*
X-3135Y795D01*
X-3066Y890D01*
X-2993Y974D01*
X-2920Y1039D01*
X-2888Y1068D01*
X-2855Y1094D01*
X-2829Y1116D01*
X-2804Y1130D01*
X-2786Y1145D01*
X-2767Y1156D01*
X-2760Y1159D01*
X-2757Y1163D01*
X-2698Y1192D01*
X-2644Y1218D01*
X-2523Y1258D01*
X-2407Y1287D01*
X-2301Y1305D01*
X-2251Y1312D01*
X-2207Y1320D01*
X-2167Y1323D01*
X-2130D01*
X-2105Y1327D01*
X-2065D01*
X-1948Y1323D01*
D02*
G37*
G36*
X1488Y-1239D02*
X1018D01*
Y457D01*
X-23Y-1239D01*
X-514D01*
Y1280D01*
X-45D01*
Y-380D01*
X978Y1280D01*
X1488D01*
Y-1239D01*
D02*
G37*
G36*
X3078Y1276D02*
X3169Y1272D01*
X3246Y1265D01*
X3308Y1254D01*
X3359Y1243D01*
X3399Y1236D01*
X3410Y1232D01*
X3421D01*
X3424Y1229D01*
X3428D01*
X3508Y1199D01*
X3581Y1167D01*
X3639Y1134D01*
X3690Y1101D01*
X3730Y1072D01*
X3759Y1050D01*
X3777Y1036D01*
X3785Y1028D01*
X3847Y959D01*
X3901Y886D01*
X3948Y810D01*
X3985Y741D01*
X4014Y675D01*
X4028Y650D01*
X4036Y628D01*
X4043Y606D01*
X4050Y592D01*
X4054Y584D01*
Y581D01*
X4079Y493D01*
X4101Y402D01*
X4116Y315D01*
X4123Y231D01*
X4127Y191D01*
X4130Y155D01*
Y126D01*
X4134Y97D01*
Y75D01*
Y60D01*
Y49D01*
Y46D01*
X4130Y-82D01*
X4120Y-195D01*
X4116Y-249D01*
X4109Y-297D01*
X4101Y-344D01*
X4094Y-384D01*
X4083Y-420D01*
X4076Y-453D01*
X4069Y-482D01*
X4065Y-504D01*
X4058Y-522D01*
X4054Y-537D01*
X4050Y-544D01*
Y-548D01*
X4018Y-635D01*
X3977Y-715D01*
X3937Y-784D01*
X3897Y-843D01*
X3865Y-890D01*
X3836Y-926D01*
X3817Y-948D01*
X3814Y-955D01*
X3810D01*
X3748Y-1014D01*
X3686Y-1061D01*
X3621Y-1101D01*
X3563Y-1134D01*
X3512Y-1159D01*
X3468Y-1178D01*
X3453Y-1181D01*
X3442Y-1185D01*
X3435Y-1188D01*
X3432D01*
X3362Y-1207D01*
X3286Y-1218D01*
X3206Y-1228D01*
X3129Y-1232D01*
X3060Y-1236D01*
X3031Y-1239D01*
X2026D01*
Y1280D01*
X2980D01*
X3078Y1276D01*
D02*
G37*
G36*
X3118Y-55813D02*
X3861D01*
Y-56239D01*
X1863D01*
Y-55813D01*
X2609D01*
Y-53720D01*
X3118D01*
Y-55813D01*
D02*
G37*
G36*
X632Y-53677D02*
X727Y-53684D01*
X811Y-53699D01*
X880Y-53713D01*
X909Y-53717D01*
X938Y-53724D01*
X960Y-53731D01*
X978Y-53739D01*
X993Y-53742D01*
X1004Y-53746D01*
X1007Y-53750D01*
X1011D01*
X1076Y-53779D01*
X1135Y-53815D01*
X1186Y-53848D01*
X1229Y-53881D01*
X1262Y-53910D01*
X1288Y-53932D01*
X1302Y-53946D01*
X1306Y-53953D01*
X1346Y-54004D01*
X1379Y-54059D01*
X1404Y-54110D01*
X1426Y-54161D01*
X1440Y-54205D01*
X1451Y-54241D01*
X1455Y-54252D01*
Y-54263D01*
X1459Y-54267D01*
Y-54270D01*
X1466Y-54310D01*
X1473Y-54354D01*
X1481Y-54401D01*
X1484Y-54448D01*
X1491Y-54558D01*
X1499Y-54663D01*
Y-54711D01*
Y-54758D01*
X1502Y-54802D01*
Y-54838D01*
Y-54867D01*
Y-54893D01*
Y-54907D01*
Y-54911D01*
Y-56239D01*
X993D01*
Y-54842D01*
Y-54787D01*
Y-54736D01*
X989Y-54689D01*
Y-54645D01*
X985Y-54609D01*
Y-54572D01*
X982Y-54540D01*
Y-54510D01*
X974Y-54467D01*
X971Y-54434D01*
X967Y-54416D01*
Y-54408D01*
X956Y-54361D01*
X938Y-54321D01*
X916Y-54285D01*
X894Y-54252D01*
X873Y-54226D01*
X854Y-54208D01*
X840Y-54197D01*
X836Y-54194D01*
X793Y-54165D01*
X738Y-54143D01*
X687Y-54128D01*
X632Y-54117D01*
X585Y-54110D01*
X549Y-54106D01*
X512D01*
X436Y-54110D01*
X370Y-54121D01*
X312Y-54135D01*
X261Y-54154D01*
X225Y-54168D01*
X196Y-54183D01*
X181Y-54194D01*
X174Y-54197D01*
X134Y-54234D01*
X101Y-54277D01*
X72Y-54317D01*
X54Y-54357D01*
X39Y-54394D01*
X28Y-54423D01*
X21Y-54441D01*
Y-54448D01*
X17Y-54470D01*
X14Y-54492D01*
Y-54521D01*
X10Y-54554D01*
X6Y-54623D01*
Y-54696D01*
X3Y-54761D01*
Y-54791D01*
Y-54820D01*
Y-54842D01*
Y-54856D01*
Y-54867D01*
Y-54871D01*
Y-56239D01*
X-507D01*
Y-54893D01*
Y-54816D01*
X-503Y-54743D01*
Y-54674D01*
X-500Y-54612D01*
X-496Y-54554D01*
X-492Y-54503D01*
X-489Y-54456D01*
X-482Y-54412D01*
X-478Y-54376D01*
X-474Y-54343D01*
X-471Y-54314D01*
X-467Y-54292D01*
X-463Y-54274D01*
Y-54263D01*
X-460Y-54256D01*
Y-54252D01*
X-441Y-54197D01*
X-423Y-54146D01*
X-398Y-54099D01*
X-376Y-54059D01*
X-354Y-54023D01*
X-336Y-53993D01*
X-321Y-53979D01*
X-318Y-53972D01*
X-274Y-53924D01*
X-227Y-53881D01*
X-176Y-53844D01*
X-128Y-53812D01*
X-88Y-53786D01*
X-52Y-53768D01*
X-30Y-53757D01*
X-27Y-53753D01*
X-23D01*
X14Y-53739D01*
X54Y-53728D01*
X145Y-53706D01*
X236Y-53691D01*
X323Y-53684D01*
X363Y-53680D01*
X403Y-53677D01*
X436D01*
X469Y-53673D01*
X527D01*
X632Y-53677D01*
D02*
G37*
G36*
X-2018D02*
X-1923Y-53688D01*
X-1832Y-53706D01*
X-1748Y-53728D01*
X-1668Y-53753D01*
X-1595Y-53782D01*
X-1530Y-53812D01*
X-1468Y-53844D01*
X-1417Y-53877D01*
X-1370Y-53906D01*
X-1330Y-53935D01*
X-1297Y-53961D01*
X-1268Y-53983D01*
X-1249Y-54001D01*
X-1239Y-54012D01*
X-1235Y-54015D01*
X-1177Y-54084D01*
X-1126Y-54157D01*
X-1078Y-54234D01*
X-1042Y-54310D01*
X-1009Y-54390D01*
X-980Y-54470D01*
X-958Y-54550D01*
X-940Y-54627D01*
X-929Y-54696D01*
X-918Y-54765D01*
X-911Y-54823D01*
X-904Y-54874D01*
Y-54918D01*
X-900Y-54951D01*
Y-54969D01*
Y-54976D01*
X-904Y-55089D01*
X-915Y-55195D01*
X-929Y-55293D01*
X-951Y-55388D01*
X-977Y-55471D01*
X-1006Y-55551D01*
X-1035Y-55624D01*
X-1068Y-55686D01*
X-1100Y-55744D01*
X-1129Y-55795D01*
X-1158Y-55839D01*
X-1184Y-55875D01*
X-1202Y-55901D01*
X-1220Y-55923D01*
X-1231Y-55934D01*
X-1235Y-55937D01*
X-1300Y-55999D01*
X-1370Y-56054D01*
X-1442Y-56101D01*
X-1515Y-56141D01*
X-1592Y-56174D01*
X-1664Y-56203D01*
X-1737Y-56225D01*
X-1806Y-56243D01*
X-1872Y-56258D01*
X-1934Y-56269D01*
X-1988Y-56276D01*
X-2036Y-56283D01*
X-2072D01*
X-2101Y-56287D01*
X-2127D01*
X-2236Y-56283D01*
X-2341Y-56272D01*
X-2433Y-56254D01*
X-2513Y-56236D01*
X-2545Y-56225D01*
X-2578Y-56217D01*
X-2604Y-56210D01*
X-2625Y-56199D01*
X-2644Y-56196D01*
X-2658Y-56188D01*
X-2665Y-56185D01*
X-2669D01*
X-2735Y-56156D01*
X-2796Y-56119D01*
X-2851Y-56079D01*
X-2898Y-56043D01*
X-2939Y-56010D01*
X-2971Y-55981D01*
X-2989Y-55963D01*
X-2993Y-55959D01*
X-2997Y-55955D01*
X-3048Y-55897D01*
X-3095Y-55835D01*
X-3135Y-55781D01*
X-3168Y-55726D01*
X-3193Y-55679D01*
X-3215Y-55642D01*
X-3219Y-55628D01*
X-3226Y-55617D01*
X-3230Y-55613D01*
Y-55610D01*
X-3266Y-55508D01*
X-3295Y-55398D01*
X-3313Y-55289D01*
X-3328Y-55187D01*
X-3332Y-55140D01*
X-3335Y-55096D01*
X-3339Y-55060D01*
Y-55027D01*
X-3342Y-54998D01*
Y-54980D01*
Y-54965D01*
Y-54962D01*
X-3339Y-54852D01*
X-3328Y-54747D01*
X-3313Y-54649D01*
X-3292Y-54558D01*
X-3266Y-54474D01*
X-3237Y-54397D01*
X-3208Y-54325D01*
X-3175Y-54263D01*
X-3146Y-54205D01*
X-3117Y-54157D01*
X-3088Y-54114D01*
X-3062Y-54077D01*
X-3040Y-54052D01*
X-3026Y-54030D01*
X-3015Y-54019D01*
X-3011Y-54015D01*
X-2946Y-53953D01*
X-2877Y-53903D01*
X-2807Y-53855D01*
X-2731Y-53819D01*
X-2658Y-53786D01*
X-2582Y-53757D01*
X-2513Y-53735D01*
X-2440Y-53717D01*
X-2374Y-53702D01*
X-2312Y-53691D01*
X-2258Y-53684D01*
X-2211Y-53680D01*
X-2174Y-53677D01*
X-2145Y-53673D01*
X-2120D01*
X-2018Y-53677D01*
D02*
G37*
%LPC*%
G36*
X10727Y-4774D02*
X10171D01*
X10445Y-5522D01*
X10727Y-4774D01*
D02*
G37*
G36*
X14487Y-4317D02*
X14129D01*
Y-5650D01*
X14394D01*
X14432Y-5647D01*
X14467D01*
X14496Y-5644D01*
X14522D01*
X14548Y-5641D01*
X14569D01*
X14601Y-5635D01*
X14624Y-5632D01*
X14638Y-5629D01*
X14641D01*
X14682Y-5618D01*
X14717Y-5603D01*
X14749Y-5588D01*
X14778Y-5571D01*
X14798Y-5556D01*
X14816Y-5545D01*
X14825Y-5536D01*
X14828Y-5533D01*
X14854Y-5504D01*
X14877Y-5472D01*
X14897Y-5440D01*
X14915Y-5411D01*
X14927Y-5382D01*
X14935Y-5359D01*
X14941Y-5344D01*
X14944Y-5341D01*
Y-5338D01*
X14958Y-5286D01*
X14970Y-5231D01*
X14976Y-5170D01*
X14982Y-5111D01*
X14985Y-5062D01*
X14988Y-5038D01*
Y-5018D01*
Y-5004D01*
Y-4992D01*
Y-4983D01*
Y-4980D01*
X14985Y-4899D01*
X14982Y-4823D01*
X14973Y-4762D01*
X14967Y-4710D01*
X14958Y-4666D01*
X14956Y-4649D01*
X14950Y-4637D01*
X14947Y-4625D01*
Y-4617D01*
X14944Y-4614D01*
Y-4611D01*
X14927Y-4564D01*
X14912Y-4524D01*
X14892Y-4491D01*
X14877Y-4465D01*
X14863Y-4445D01*
X14851Y-4430D01*
X14842Y-4422D01*
X14839Y-4419D01*
X14813Y-4398D01*
X14787Y-4381D01*
X14761Y-4366D01*
X14734Y-4355D01*
X14711Y-4346D01*
X14694Y-4340D01*
X14682Y-4334D01*
X14676D01*
X14644Y-4329D01*
X14606Y-4326D01*
X14566Y-4320D01*
X14525D01*
X14487Y-4317D01*
D02*
G37*
G36*
X12456D02*
X12098D01*
Y-5650D01*
X12363D01*
X12401Y-5647D01*
X12436D01*
X12465Y-5644D01*
X12491D01*
X12517Y-5641D01*
X12537D01*
X12569Y-5635D01*
X12593Y-5632D01*
X12607Y-5629D01*
X12610D01*
X12651Y-5618D01*
X12686Y-5603D01*
X12718Y-5588D01*
X12747Y-5571D01*
X12767Y-5556D01*
X12785Y-5545D01*
X12793Y-5536D01*
X12796Y-5533D01*
X12822Y-5504D01*
X12846Y-5472D01*
X12866Y-5440D01*
X12884Y-5411D01*
X12895Y-5382D01*
X12904Y-5359D01*
X12910Y-5344D01*
X12913Y-5341D01*
Y-5338D01*
X12927Y-5286D01*
X12939Y-5231D01*
X12945Y-5170D01*
X12951Y-5111D01*
X12954Y-5062D01*
X12956Y-5038D01*
Y-5018D01*
Y-5004D01*
Y-4992D01*
Y-4983D01*
Y-4980D01*
X12954Y-4899D01*
X12951Y-4823D01*
X12942Y-4762D01*
X12936Y-4710D01*
X12927Y-4666D01*
X12924Y-4649D01*
X12919Y-4637D01*
X12916Y-4625D01*
Y-4617D01*
X12913Y-4614D01*
Y-4611D01*
X12895Y-4564D01*
X12881Y-4524D01*
X12860Y-4491D01*
X12846Y-4465D01*
X12831Y-4445D01*
X12820Y-4430D01*
X12811Y-4422D01*
X12808Y-4419D01*
X12782Y-4398D01*
X12756Y-4381D01*
X12729Y-4366D01*
X12703Y-4355D01*
X12680Y-4346D01*
X12663Y-4340D01*
X12651Y-4334D01*
X12645D01*
X12613Y-4329D01*
X12575Y-4326D01*
X12534Y-4320D01*
X12494D01*
X12456Y-4317D01*
D02*
G37*
G36*
X10727Y49D02*
X10171D01*
X10445Y-699D01*
X10727Y49D01*
D02*
G37*
G36*
X14487Y506D02*
X14129D01*
Y-827D01*
X14394D01*
X14432Y-824D01*
X14467D01*
X14496Y-821D01*
X14522D01*
X14548Y-818D01*
X14569D01*
X14601Y-812D01*
X14624Y-809D01*
X14638Y-806D01*
X14641D01*
X14682Y-795D01*
X14717Y-780D01*
X14749Y-766D01*
X14778Y-748D01*
X14798Y-734D01*
X14816Y-722D01*
X14825Y-713D01*
X14828Y-710D01*
X14854Y-681D01*
X14877Y-649D01*
X14897Y-617D01*
X14915Y-588D01*
X14927Y-559D01*
X14935Y-536D01*
X14941Y-521D01*
X14944Y-518D01*
Y-515D01*
X14958Y-463D01*
X14970Y-408D01*
X14976Y-347D01*
X14982Y-288D01*
X14985Y-239D01*
X14988Y-216D01*
Y-195D01*
Y-181D01*
Y-169D01*
Y-160D01*
Y-158D01*
X14985Y-76D01*
X14982Y-0D01*
X14973Y61D01*
X14967Y113D01*
X14958Y157D01*
X14956Y174D01*
X14950Y186D01*
X14947Y197D01*
Y206D01*
X14944Y209D01*
Y212D01*
X14927Y259D01*
X14912Y299D01*
X14892Y331D01*
X14877Y358D01*
X14863Y378D01*
X14851Y392D01*
X14842Y401D01*
X14839Y404D01*
X14813Y424D01*
X14787Y442D01*
X14761Y457D01*
X14734Y468D01*
X14711Y477D01*
X14694Y483D01*
X14682Y489D01*
X14676D01*
X14644Y494D01*
X14606Y497D01*
X14566Y503D01*
X14525D01*
X14487Y506D01*
D02*
G37*
G36*
X12456D02*
X12098D01*
Y-827D01*
X12363D01*
X12401Y-824D01*
X12436D01*
X12465Y-821D01*
X12491D01*
X12517Y-818D01*
X12537D01*
X12569Y-812D01*
X12593Y-809D01*
X12607Y-806D01*
X12610D01*
X12651Y-795D01*
X12686Y-780D01*
X12718Y-766D01*
X12747Y-748D01*
X12767Y-734D01*
X12785Y-722D01*
X12793Y-713D01*
X12796Y-710D01*
X12822Y-681D01*
X12846Y-649D01*
X12866Y-617D01*
X12884Y-588D01*
X12895Y-559D01*
X12904Y-536D01*
X12910Y-521D01*
X12913Y-518D01*
Y-515D01*
X12927Y-463D01*
X12939Y-408D01*
X12945Y-347D01*
X12951Y-288D01*
X12954Y-239D01*
X12956Y-216D01*
Y-195D01*
Y-181D01*
Y-169D01*
Y-160D01*
Y-158D01*
X12954Y-76D01*
X12951Y-0D01*
X12942Y61D01*
X12936Y113D01*
X12927Y157D01*
X12924Y174D01*
X12919Y186D01*
X12916Y197D01*
Y206D01*
X12913Y209D01*
Y212D01*
X12895Y259D01*
X12881Y299D01*
X12860Y331D01*
X12846Y358D01*
X12831Y378D01*
X12820Y392D01*
X12811Y401D01*
X12808Y404D01*
X12782Y424D01*
X12756Y442D01*
X12729Y457D01*
X12703Y468D01*
X12680Y477D01*
X12663Y483D01*
X12651Y489D01*
X12645D01*
X12613Y494D01*
X12575Y497D01*
X12534Y503D01*
X12494D01*
X12456Y506D01*
D02*
G37*
G36*
X16269Y-19964D02*
X15683D01*
X16269Y-20830D01*
Y-19964D01*
D02*
G37*
G36*
X16346Y-39369D02*
X16331D01*
X16299Y-39373D01*
X16269Y-39376D01*
X16244Y-39387D01*
X16222Y-39398D01*
X16204Y-39405D01*
X16189Y-39416D01*
X16182Y-39420D01*
X16178Y-39423D01*
X16157Y-39449D01*
X16135Y-39482D01*
X16117Y-39518D01*
X16098Y-39555D01*
X16087Y-39587D01*
X16077Y-39616D01*
X16073Y-39635D01*
X16069Y-39642D01*
X16062Y-39678D01*
X16055Y-39718D01*
X16047Y-39762D01*
X16044Y-39809D01*
X16037Y-39911D01*
X16033Y-40013D01*
X16029Y-40060D01*
Y-40108D01*
X16026Y-40148D01*
Y-40184D01*
Y-40213D01*
Y-40239D01*
Y-40253D01*
Y-40257D01*
Y-40337D01*
X16029Y-40413D01*
Y-40479D01*
X16033Y-40545D01*
X16037Y-40599D01*
X16040Y-40654D01*
X16044Y-40697D01*
X16051Y-40741D01*
X16055Y-40778D01*
X16058Y-40807D01*
X16062Y-40832D01*
X16066Y-40854D01*
X16069Y-40868D01*
Y-40883D01*
X16073Y-40887D01*
Y-40890D01*
X16087Y-40941D01*
X16106Y-40985D01*
X16120Y-41018D01*
X16138Y-41047D01*
X16153Y-41065D01*
X16164Y-41080D01*
X16171Y-41087D01*
X16175Y-41091D01*
X16200Y-41109D01*
X16229Y-41123D01*
X16255Y-41134D01*
X16280Y-41142D01*
X16299Y-41145D01*
X16317Y-41149D01*
X16331D01*
X16364Y-41145D01*
X16393Y-41142D01*
X16419Y-41131D01*
X16441Y-41120D01*
X16459Y-41109D01*
X16473Y-41102D01*
X16481Y-41094D01*
X16484Y-41091D01*
X16506Y-41065D01*
X16528Y-41032D01*
X16546Y-40996D01*
X16564Y-40960D01*
X16575Y-40923D01*
X16586Y-40894D01*
X16590Y-40876D01*
X16593Y-40872D01*
Y-40868D01*
X16601Y-40836D01*
X16608Y-40796D01*
X16615Y-40748D01*
X16623Y-40701D01*
X16630Y-40603D01*
X16633Y-40501D01*
X16637Y-40454D01*
Y-40406D01*
X16641Y-40366D01*
Y-40330D01*
Y-40301D01*
Y-40275D01*
Y-40261D01*
Y-40257D01*
Y-40177D01*
X16637Y-40100D01*
Y-40031D01*
X16633Y-39969D01*
X16630Y-39911D01*
X16626Y-39860D01*
X16619Y-39813D01*
X16615Y-39773D01*
X16612Y-39737D01*
X16604Y-39707D01*
X16601Y-39682D01*
X16597Y-39660D01*
X16593Y-39645D01*
Y-39631D01*
X16590Y-39627D01*
Y-39624D01*
X16575Y-39573D01*
X16557Y-39533D01*
X16539Y-39496D01*
X16524Y-39471D01*
X16510Y-39449D01*
X16495Y-39434D01*
X16488Y-39427D01*
X16484Y-39423D01*
X16459Y-39405D01*
X16433Y-39391D01*
X16408Y-39383D01*
X16382Y-39376D01*
X16364Y-39373D01*
X16346Y-39369D01*
D02*
G37*
G36*
X15780Y-45237D02*
X15773D01*
X15722Y-45240D01*
X15674Y-45255D01*
X15634Y-45273D01*
X15598Y-45295D01*
X15569Y-45313D01*
X15551Y-45331D01*
X15536Y-45346D01*
X15532Y-45349D01*
X15500Y-45397D01*
X15478Y-45455D01*
X15460Y-45513D01*
X15449Y-45575D01*
X15441Y-45626D01*
X15438Y-45670D01*
Y-45688D01*
Y-45699D01*
Y-45706D01*
Y-45710D01*
X15441Y-45794D01*
X15452Y-45866D01*
X15467Y-45928D01*
X15482Y-45976D01*
X15496Y-46012D01*
X15511Y-46037D01*
X15521Y-46056D01*
X15525Y-46059D01*
X15562Y-46096D01*
X15598Y-46121D01*
X15634Y-46143D01*
X15671Y-46154D01*
X15700Y-46161D01*
X15725Y-46169D01*
X15747D01*
X15798Y-46161D01*
X15845Y-46147D01*
X15889Y-46128D01*
X15925Y-46103D01*
X15955Y-46077D01*
X15977Y-46059D01*
X15991Y-46045D01*
X15995Y-46037D01*
X16031Y-45983D01*
X16057Y-45925D01*
X16078Y-45863D01*
X16089Y-45805D01*
X16097Y-45750D01*
X16104Y-45710D01*
Y-45692D01*
Y-45681D01*
Y-45673D01*
Y-45670D01*
X16100Y-45593D01*
X16089Y-45528D01*
X16071Y-45473D01*
X16057Y-45426D01*
X16038Y-45393D01*
X16020Y-45368D01*
X16009Y-45349D01*
X16006Y-45346D01*
X15969Y-45309D01*
X15929Y-45284D01*
X15889Y-45262D01*
X15853Y-45251D01*
X15820Y-45244D01*
X15795Y-45240D01*
X15780Y-45237D01*
D02*
G37*
G36*
X15922Y-49692D02*
X15897D01*
X15842Y-49696D01*
X15791Y-49711D01*
X15747Y-49729D01*
X15711Y-49747D01*
X15682Y-49769D01*
X15660Y-49784D01*
X15645Y-49798D01*
X15642Y-49802D01*
X15609Y-49849D01*
X15584Y-49900D01*
X15565Y-49951D01*
X15554Y-50002D01*
X15547Y-50049D01*
X15540Y-50086D01*
Y-50100D01*
Y-50111D01*
Y-50115D01*
Y-50118D01*
X15543Y-50169D01*
X15554Y-50220D01*
X15565Y-50264D01*
X15584Y-50304D01*
X15598Y-50337D01*
X15609Y-50362D01*
X15620Y-50377D01*
X15624Y-50384D01*
X15660Y-50424D01*
X15704Y-50457D01*
X15747Y-50479D01*
X15791Y-50493D01*
X15827Y-50501D01*
X15860Y-50508D01*
X15889D01*
X15944Y-50504D01*
X15995Y-50490D01*
X16038Y-50475D01*
X16075Y-50453D01*
X16104Y-50435D01*
X16126Y-50417D01*
X16140Y-50402D01*
X16144Y-50399D01*
X16177Y-50355D01*
X16202Y-50308D01*
X16220Y-50260D01*
X16235Y-50213D01*
X16242Y-50173D01*
X16246Y-50140D01*
Y-50118D01*
Y-50115D01*
Y-50111D01*
X16242Y-50038D01*
X16231Y-49977D01*
X16213Y-49922D01*
X16195Y-49878D01*
X16177Y-49842D01*
X16159Y-49820D01*
X16148Y-49802D01*
X16144Y-49798D01*
X16104Y-49762D01*
X16064Y-49736D01*
X16024Y-49718D01*
X15984Y-49707D01*
X15947Y-49700D01*
X15922Y-49692D01*
D02*
G37*
G36*
X15904Y-50890D02*
X15882D01*
X15835Y-50894D01*
X15791Y-50901D01*
X15755Y-50916D01*
X15722Y-50930D01*
X15696Y-50945D01*
X15678Y-50959D01*
X15667Y-50967D01*
X15664Y-50970D01*
X15638Y-51003D01*
X15616Y-51039D01*
X15602Y-51076D01*
X15594Y-51112D01*
X15587Y-51145D01*
X15584Y-51170D01*
Y-51189D01*
Y-51196D01*
X15587Y-51247D01*
X15594Y-51291D01*
X15609Y-51327D01*
X15624Y-51360D01*
X15638Y-51385D01*
X15653Y-51403D01*
X15660Y-51414D01*
X15664Y-51418D01*
X15696Y-51447D01*
X15733Y-51465D01*
X15769Y-51480D01*
X15805Y-51491D01*
X15838Y-51498D01*
X15864Y-51502D01*
X15886D01*
X15933Y-51498D01*
X15977Y-51487D01*
X16013Y-51476D01*
X16046Y-51462D01*
X16071Y-51443D01*
X16090Y-51433D01*
X16100Y-51422D01*
X16104Y-51418D01*
X16133Y-51385D01*
X16151Y-51349D01*
X16166Y-51312D01*
X16177Y-51276D01*
X16184Y-51247D01*
X16188Y-51221D01*
Y-51207D01*
Y-51200D01*
X16184Y-51149D01*
X16173Y-51101D01*
X16162Y-51065D01*
X16148Y-51032D01*
X16129Y-51003D01*
X16119Y-50985D01*
X16108Y-50974D01*
X16104Y-50970D01*
X16071Y-50945D01*
X16035Y-50923D01*
X15999Y-50908D01*
X15962Y-50901D01*
X15929Y-50894D01*
X15904Y-50890D01*
D02*
G37*
G36*
X-2425Y-44074D02*
X-2447D01*
X-2498Y-44081D01*
X-2545Y-44095D01*
X-2585Y-44114D01*
X-2622Y-44139D01*
X-2651Y-44161D01*
X-2676Y-44183D01*
X-2691Y-44197D01*
X-2695Y-44201D01*
X-2731Y-44252D01*
X-2757Y-44310D01*
X-2775Y-44372D01*
X-2786Y-44430D01*
X-2793Y-44485D01*
X-2800Y-44525D01*
Y-44543D01*
Y-44554D01*
Y-44561D01*
Y-44565D01*
X-2796Y-44641D01*
X-2786Y-44707D01*
X-2771Y-44761D01*
X-2753Y-44809D01*
X-2735Y-44842D01*
X-2720Y-44867D01*
X-2709Y-44885D01*
X-2706Y-44889D01*
X-2669Y-44925D01*
X-2629Y-44954D01*
X-2589Y-44973D01*
X-2553Y-44987D01*
X-2520Y-44995D01*
X-2491Y-45002D01*
X-2469D01*
X-2418Y-44998D01*
X-2371Y-44984D01*
X-2331Y-44965D01*
X-2294Y-44943D01*
X-2265Y-44922D01*
X-2247Y-44903D01*
X-2232Y-44889D01*
X-2229Y-44885D01*
X-2196Y-44838D01*
X-2170Y-44780D01*
X-2156Y-44718D01*
X-2141Y-44660D01*
X-2134Y-44605D01*
X-2130Y-44561D01*
Y-44547D01*
Y-44532D01*
Y-44525D01*
Y-44521D01*
X-2134Y-44438D01*
X-2145Y-44365D01*
X-2159Y-44306D01*
X-2174Y-44259D01*
X-2192Y-44223D01*
X-2207Y-44197D01*
X-2218Y-44179D01*
X-2221Y-44175D01*
X-2258Y-44143D01*
X-2294Y-44117D01*
X-2334Y-44099D01*
X-2367Y-44088D01*
X-2400Y-44081D01*
X-2425Y-44074D01*
D02*
G37*
G36*
X-2309Y-34649D02*
X-2895D01*
X-2309Y-35515D01*
Y-34649D01*
D02*
G37*
G36*
X-2513Y-14074D02*
X-2527D01*
X-2560Y-14077D01*
X-2589Y-14081D01*
X-2615Y-14092D01*
X-2636Y-14103D01*
X-2655Y-14110D01*
X-2669Y-14121D01*
X-2676Y-14124D01*
X-2680Y-14128D01*
X-2702Y-14154D01*
X-2724Y-14186D01*
X-2742Y-14223D01*
X-2760Y-14259D01*
X-2771Y-14292D01*
X-2782Y-14321D01*
X-2786Y-14339D01*
X-2789Y-14347D01*
X-2796Y-14383D01*
X-2804Y-14423D01*
X-2811Y-14467D01*
X-2815Y-14514D01*
X-2822Y-14616D01*
X-2826Y-14718D01*
X-2829Y-14765D01*
Y-14812D01*
X-2833Y-14852D01*
Y-14889D01*
Y-14918D01*
Y-14943D01*
Y-14958D01*
Y-14962D01*
Y-15042D01*
X-2829Y-15118D01*
Y-15184D01*
X-2826Y-15249D01*
X-2822Y-15304D01*
X-2818Y-15359D01*
X-2815Y-15402D01*
X-2807Y-15446D01*
X-2804Y-15482D01*
X-2800Y-15511D01*
X-2796Y-15537D01*
X-2793Y-15559D01*
X-2789Y-15573D01*
Y-15588D01*
X-2786Y-15591D01*
Y-15595D01*
X-2771Y-15646D01*
X-2753Y-15690D01*
X-2738Y-15722D01*
X-2720Y-15752D01*
X-2706Y-15770D01*
X-2695Y-15784D01*
X-2687Y-15792D01*
X-2684Y-15795D01*
X-2658Y-15813D01*
X-2629Y-15828D01*
X-2604Y-15839D01*
X-2578Y-15846D01*
X-2560Y-15850D01*
X-2542Y-15854D01*
X-2527D01*
X-2494Y-15850D01*
X-2465Y-15846D01*
X-2440Y-15835D01*
X-2418Y-15824D01*
X-2400Y-15813D01*
X-2385Y-15806D01*
X-2378Y-15799D01*
X-2374Y-15795D01*
X-2352Y-15770D01*
X-2331Y-15737D01*
X-2312Y-15701D01*
X-2294Y-15664D01*
X-2283Y-15628D01*
X-2272Y-15599D01*
X-2269Y-15581D01*
X-2265Y-15577D01*
Y-15573D01*
X-2258Y-15540D01*
X-2251Y-15500D01*
X-2243Y-15453D01*
X-2236Y-15406D01*
X-2229Y-15307D01*
X-2225Y-15206D01*
X-2221Y-15158D01*
Y-15111D01*
X-2218Y-15071D01*
Y-15034D01*
Y-15005D01*
Y-14980D01*
Y-14965D01*
Y-14962D01*
Y-14882D01*
X-2221Y-14805D01*
Y-14736D01*
X-2225Y-14674D01*
X-2229Y-14616D01*
X-2232Y-14565D01*
X-2240Y-14518D01*
X-2243Y-14478D01*
X-2247Y-14441D01*
X-2254Y-14412D01*
X-2258Y-14387D01*
X-2261Y-14365D01*
X-2265Y-14350D01*
Y-14336D01*
X-2269Y-14332D01*
Y-14328D01*
X-2283Y-14277D01*
X-2301Y-14237D01*
X-2320Y-14201D01*
X-2334Y-14175D01*
X-2349Y-14154D01*
X-2363Y-14139D01*
X-2371Y-14132D01*
X-2374Y-14128D01*
X-2400Y-14110D01*
X-2425Y-14095D01*
X-2451Y-14088D01*
X-2476Y-14081D01*
X-2494Y-14077D01*
X-2513Y-14074D01*
D02*
G37*
G36*
X-2068Y-9518D02*
X-2624D01*
X-2350Y-10266D01*
X-2068Y-9518D01*
D02*
G37*
G36*
X1692Y-9061D02*
X1334D01*
Y-10394D01*
X1599D01*
X1636Y-10391D01*
X1671D01*
X1701Y-10388D01*
X1727D01*
X1753Y-10385D01*
X1773D01*
X1805Y-10379D01*
X1829Y-10376D01*
X1843Y-10373D01*
X1846D01*
X1887Y-10362D01*
X1922Y-10347D01*
X1954Y-10333D01*
X1983Y-10315D01*
X2003Y-10301D01*
X2021Y-10289D01*
X2029Y-10280D01*
X2032Y-10277D01*
X2058Y-10248D01*
X2082Y-10216D01*
X2102Y-10184D01*
X2120Y-10155D01*
X2131Y-10126D01*
X2140Y-10103D01*
X2146Y-10088D01*
X2149Y-10085D01*
Y-10082D01*
X2163Y-10030D01*
X2175Y-9975D01*
X2181Y-9914D01*
X2186Y-9855D01*
X2189Y-9806D01*
X2192Y-9783D01*
Y-9762D01*
Y-9748D01*
Y-9736D01*
Y-9727D01*
Y-9724D01*
X2189Y-9643D01*
X2186Y-9567D01*
X2178Y-9506D01*
X2172Y-9454D01*
X2163Y-9410D01*
X2160Y-9393D01*
X2155Y-9381D01*
X2152Y-9369D01*
Y-9361D01*
X2149Y-9358D01*
Y-9355D01*
X2131Y-9308D01*
X2117Y-9268D01*
X2096Y-9236D01*
X2082Y-9209D01*
X2067Y-9189D01*
X2056Y-9174D01*
X2047Y-9166D01*
X2044Y-9163D01*
X2018Y-9142D01*
X1991Y-9125D01*
X1965Y-9110D01*
X1939Y-9099D01*
X1916Y-9090D01*
X1898Y-9084D01*
X1887Y-9078D01*
X1881D01*
X1849Y-9073D01*
X1811Y-9070D01*
X1770Y-9064D01*
X1730D01*
X1692Y-9061D01*
D02*
G37*
G36*
X-339D02*
X-697D01*
Y-10394D01*
X-433D01*
X-395Y-10391D01*
X-360D01*
X-331Y-10388D01*
X-304D01*
X-278Y-10385D01*
X-258D01*
X-226Y-10379D01*
X-203Y-10376D01*
X-188Y-10373D01*
X-185D01*
X-144Y-10362D01*
X-109Y-10347D01*
X-78Y-10333D01*
X-48Y-10315D01*
X-28Y-10301D01*
X-11Y-10289D01*
X-2Y-10280D01*
X1Y-10277D01*
X27Y-10248D01*
X51Y-10216D01*
X71Y-10184D01*
X88Y-10155D01*
X100Y-10126D01*
X109Y-10103D01*
X115Y-10088D01*
X117Y-10085D01*
Y-10082D01*
X132Y-10030D01*
X144Y-9975D01*
X149Y-9914D01*
X155Y-9855D01*
X158Y-9806D01*
X161Y-9783D01*
Y-9762D01*
Y-9748D01*
Y-9736D01*
Y-9727D01*
Y-9724D01*
X158Y-9643D01*
X155Y-9567D01*
X147Y-9506D01*
X141Y-9454D01*
X132Y-9410D01*
X129Y-9393D01*
X123Y-9381D01*
X120Y-9369D01*
Y-9361D01*
X117Y-9358D01*
Y-9355D01*
X100Y-9308D01*
X85Y-9268D01*
X65Y-9236D01*
X51Y-9209D01*
X36Y-9189D01*
X24Y-9174D01*
X16Y-9166D01*
X13Y-9163D01*
X-13Y-9142D01*
X-40Y-9125D01*
X-66Y-9110D01*
X-92Y-9099D01*
X-115Y-9090D01*
X-133Y-9084D01*
X-144Y-9078D01*
X-150D01*
X-182Y-9073D01*
X-220Y-9070D01*
X-261Y-9064D01*
X-302D01*
X-339Y-9061D01*
D02*
G37*
G36*
X3534Y-9003D02*
X3522D01*
X3496Y-9006D01*
X3473Y-9009D01*
X3452Y-9017D01*
X3435Y-9026D01*
X3420Y-9032D01*
X3409Y-9041D01*
X3403Y-9043D01*
X3400Y-9046D01*
X3382Y-9067D01*
X3365Y-9093D01*
X3351Y-9122D01*
X3336Y-9151D01*
X3327Y-9177D01*
X3319Y-9201D01*
X3316Y-9215D01*
X3313Y-9221D01*
X3307Y-9250D01*
X3301Y-9282D01*
X3295Y-9317D01*
X3292Y-9355D01*
X3286Y-9436D01*
X3284Y-9518D01*
X3281Y-9556D01*
Y-9594D01*
X3278Y-9625D01*
Y-9655D01*
Y-9678D01*
Y-9698D01*
Y-9710D01*
Y-9713D01*
Y-9777D01*
X3281Y-9838D01*
Y-9890D01*
X3284Y-9943D01*
X3286Y-9986D01*
X3289Y-10030D01*
X3292Y-10065D01*
X3298Y-10100D01*
X3301Y-10129D01*
X3304Y-10152D01*
X3307Y-10173D01*
X3310Y-10190D01*
X3313Y-10202D01*
Y-10213D01*
X3316Y-10216D01*
Y-10219D01*
X3327Y-10260D01*
X3342Y-10295D01*
X3353Y-10321D01*
X3368Y-10344D01*
X3380Y-10359D01*
X3388Y-10370D01*
X3394Y-10376D01*
X3397Y-10379D01*
X3417Y-10394D01*
X3441Y-10405D01*
X3461Y-10414D01*
X3481Y-10420D01*
X3496Y-10423D01*
X3511Y-10426D01*
X3522D01*
X3548Y-10423D01*
X3572Y-10420D01*
X3592Y-10411D01*
X3610Y-10402D01*
X3624Y-10394D01*
X3636Y-10388D01*
X3641Y-10382D01*
X3644Y-10379D01*
X3662Y-10359D01*
X3679Y-10333D01*
X3694Y-10304D01*
X3708Y-10274D01*
X3717Y-10245D01*
X3726Y-10222D01*
X3729Y-10208D01*
X3732Y-10205D01*
Y-10202D01*
X3737Y-10176D01*
X3743Y-10143D01*
X3749Y-10106D01*
X3755Y-10068D01*
X3761Y-9989D01*
X3764Y-9908D01*
X3767Y-9870D01*
Y-9832D01*
X3770Y-9800D01*
Y-9771D01*
Y-9748D01*
Y-9727D01*
Y-9716D01*
Y-9713D01*
Y-9649D01*
X3767Y-9588D01*
Y-9532D01*
X3764Y-9483D01*
X3761Y-9436D01*
X3758Y-9396D01*
X3752Y-9358D01*
X3749Y-9326D01*
X3746Y-9297D01*
X3740Y-9273D01*
X3737Y-9253D01*
X3735Y-9236D01*
X3732Y-9224D01*
Y-9212D01*
X3729Y-9209D01*
Y-9206D01*
X3717Y-9166D01*
X3703Y-9134D01*
X3688Y-9105D01*
X3676Y-9084D01*
X3665Y-9067D01*
X3653Y-9055D01*
X3647Y-9049D01*
X3644Y-9046D01*
X3624Y-9032D01*
X3604Y-9020D01*
X3583Y-9014D01*
X3563Y-9009D01*
X3548Y-9006D01*
X3534Y-9003D01*
D02*
G37*
G36*
X-2068Y-4518D02*
X-2624D01*
X-2350Y-5266D01*
X-2068Y-4518D01*
D02*
G37*
G36*
X1692Y-4061D02*
X1334D01*
Y-5394D01*
X1599D01*
X1636Y-5391D01*
X1671D01*
X1701Y-5388D01*
X1727D01*
X1753Y-5385D01*
X1773D01*
X1805Y-5379D01*
X1829Y-5376D01*
X1843Y-5373D01*
X1846D01*
X1887Y-5362D01*
X1922Y-5347D01*
X1954Y-5333D01*
X1983Y-5315D01*
X2003Y-5301D01*
X2021Y-5289D01*
X2029Y-5280D01*
X2032Y-5277D01*
X2058Y-5248D01*
X2082Y-5216D01*
X2102Y-5184D01*
X2120Y-5155D01*
X2131Y-5126D01*
X2140Y-5103D01*
X2146Y-5088D01*
X2149Y-5085D01*
Y-5082D01*
X2163Y-5030D01*
X2175Y-4975D01*
X2181Y-4914D01*
X2186Y-4855D01*
X2189Y-4806D01*
X2192Y-4783D01*
Y-4762D01*
Y-4748D01*
Y-4736D01*
Y-4727D01*
Y-4724D01*
X2189Y-4643D01*
X2186Y-4567D01*
X2178Y-4506D01*
X2172Y-4454D01*
X2163Y-4410D01*
X2160Y-4393D01*
X2155Y-4381D01*
X2152Y-4369D01*
Y-4361D01*
X2149Y-4358D01*
Y-4355D01*
X2131Y-4308D01*
X2117Y-4268D01*
X2096Y-4236D01*
X2082Y-4209D01*
X2067Y-4189D01*
X2056Y-4174D01*
X2047Y-4166D01*
X2044Y-4163D01*
X2018Y-4142D01*
X1991Y-4125D01*
X1965Y-4110D01*
X1939Y-4099D01*
X1916Y-4090D01*
X1898Y-4084D01*
X1887Y-4078D01*
X1881D01*
X1849Y-4073D01*
X1811Y-4070D01*
X1770Y-4064D01*
X1730D01*
X1692Y-4061D01*
D02*
G37*
G36*
X-339D02*
X-697D01*
Y-5394D01*
X-433D01*
X-395Y-5391D01*
X-360D01*
X-331Y-5388D01*
X-304D01*
X-278Y-5385D01*
X-258D01*
X-226Y-5379D01*
X-203Y-5376D01*
X-188Y-5373D01*
X-185D01*
X-144Y-5362D01*
X-109Y-5347D01*
X-78Y-5333D01*
X-48Y-5315D01*
X-28Y-5301D01*
X-11Y-5289D01*
X-2Y-5280D01*
X1Y-5277D01*
X27Y-5248D01*
X51Y-5216D01*
X71Y-5184D01*
X88Y-5155D01*
X100Y-5126D01*
X109Y-5103D01*
X115Y-5088D01*
X117Y-5085D01*
Y-5082D01*
X132Y-5030D01*
X144Y-4975D01*
X149Y-4914D01*
X155Y-4855D01*
X158Y-4806D01*
X161Y-4783D01*
Y-4762D01*
Y-4748D01*
Y-4736D01*
Y-4727D01*
Y-4724D01*
X158Y-4643D01*
X155Y-4567D01*
X147Y-4506D01*
X141Y-4454D01*
X132Y-4410D01*
X129Y-4393D01*
X123Y-4381D01*
X120Y-4369D01*
Y-4361D01*
X117Y-4358D01*
Y-4355D01*
X100Y-4308D01*
X85Y-4268D01*
X65Y-4236D01*
X51Y-4209D01*
X36Y-4189D01*
X24Y-4174D01*
X16Y-4166D01*
X13Y-4163D01*
X-13Y-4142D01*
X-40Y-4125D01*
X-66Y-4110D01*
X-92Y-4099D01*
X-115Y-4090D01*
X-133Y-4084D01*
X-144Y-4078D01*
X-150D01*
X-182Y-4073D01*
X-220Y-4070D01*
X-261Y-4064D01*
X-302D01*
X-339Y-4061D01*
D02*
G37*
G36*
X2984Y854D02*
X2536D01*
Y-814D01*
X2867D01*
X2915Y-810D01*
X2958D01*
X2995Y-806D01*
X3028D01*
X3060Y-803D01*
X3086D01*
X3126Y-795D01*
X3155Y-792D01*
X3173Y-788D01*
X3177D01*
X3228Y-773D01*
X3271Y-755D01*
X3311Y-737D01*
X3348Y-715D01*
X3373Y-697D01*
X3395Y-682D01*
X3406Y-672D01*
X3410Y-668D01*
X3442Y-631D01*
X3472Y-591D01*
X3497Y-551D01*
X3519Y-515D01*
X3533Y-479D01*
X3544Y-450D01*
X3552Y-431D01*
X3555Y-428D01*
Y-424D01*
X3573Y-359D01*
X3588Y-289D01*
X3595Y-213D01*
X3603Y-140D01*
X3606Y-78D01*
X3610Y-49D01*
Y-24D01*
Y-5D01*
Y9D01*
Y20D01*
Y24D01*
X3606Y126D01*
X3603Y220D01*
X3592Y297D01*
X3584Y362D01*
X3573Y417D01*
X3570Y439D01*
X3563Y453D01*
X3559Y468D01*
Y479D01*
X3555Y482D01*
Y486D01*
X3533Y544D01*
X3515Y595D01*
X3490Y635D01*
X3472Y668D01*
X3453Y693D01*
X3439Y712D01*
X3428Y723D01*
X3424Y726D01*
X3391Y752D01*
X3359Y774D01*
X3326Y792D01*
X3293Y806D01*
X3264Y817D01*
X3242Y824D01*
X3228Y832D01*
X3220D01*
X3180Y839D01*
X3133Y843D01*
X3082Y850D01*
X3031D01*
X2984Y854D01*
D02*
G37*
G36*
X-2090Y-54106D02*
X-2120D01*
X-2174Y-54110D01*
X-2229Y-54117D01*
X-2280Y-54128D01*
X-2327Y-54143D01*
X-2414Y-54176D01*
X-2483Y-54219D01*
X-2516Y-54237D01*
X-2542Y-54259D01*
X-2567Y-54277D01*
X-2585Y-54296D01*
X-2600Y-54307D01*
X-2611Y-54317D01*
X-2618Y-54325D01*
X-2622Y-54328D01*
X-2655Y-54372D01*
X-2687Y-54419D01*
X-2713Y-54470D01*
X-2735Y-54525D01*
X-2771Y-54631D01*
X-2793Y-54736D01*
X-2800Y-54787D01*
X-2807Y-54831D01*
X-2811Y-54874D01*
X-2815Y-54911D01*
X-2818Y-54940D01*
Y-54962D01*
Y-54976D01*
Y-54980D01*
X-2815Y-55060D01*
X-2811Y-55133D01*
X-2800Y-55202D01*
X-2789Y-55268D01*
X-2775Y-55326D01*
X-2760Y-55380D01*
X-2742Y-55428D01*
X-2724Y-55471D01*
X-2706Y-55511D01*
X-2687Y-55544D01*
X-2673Y-55570D01*
X-2658Y-55595D01*
X-2647Y-55613D01*
X-2636Y-55624D01*
X-2633Y-55632D01*
X-2629Y-55635D01*
X-2593Y-55675D01*
X-2553Y-55708D01*
X-2509Y-55737D01*
X-2469Y-55762D01*
X-2425Y-55784D01*
X-2382Y-55799D01*
X-2301Y-55828D01*
X-2229Y-55843D01*
X-2200Y-55846D01*
X-2170Y-55850D01*
X-2149Y-55853D01*
X-2120D01*
X-2061Y-55850D01*
X-2007Y-55843D01*
X-1956Y-55835D01*
X-1908Y-55821D01*
X-1825Y-55784D01*
X-1785Y-55766D01*
X-1752Y-55748D01*
X-1719Y-55726D01*
X-1694Y-55708D01*
X-1672Y-55690D01*
X-1650Y-55672D01*
X-1635Y-55657D01*
X-1624Y-55650D01*
X-1621Y-55642D01*
X-1617Y-55639D01*
X-1584Y-55595D01*
X-1552Y-55548D01*
X-1526Y-55500D01*
X-1504Y-55446D01*
X-1472Y-55337D01*
X-1450Y-55231D01*
X-1439Y-55184D01*
X-1435Y-55136D01*
X-1431Y-55096D01*
X-1428Y-55060D01*
X-1424Y-55027D01*
Y-55005D01*
Y-54991D01*
Y-54987D01*
X-1428Y-54907D01*
X-1431Y-54831D01*
X-1442Y-54761D01*
X-1453Y-54700D01*
X-1468Y-54638D01*
X-1486Y-54583D01*
X-1504Y-54536D01*
X-1522Y-54492D01*
X-1541Y-54452D01*
X-1559Y-54419D01*
X-1574Y-54390D01*
X-1592Y-54365D01*
X-1603Y-54347D01*
X-1613Y-54336D01*
X-1617Y-54328D01*
X-1621Y-54325D01*
X-1657Y-54285D01*
X-1697Y-54252D01*
X-1741Y-54223D01*
X-1781Y-54197D01*
X-1825Y-54179D01*
X-1865Y-54161D01*
X-1945Y-54135D01*
X-2014Y-54117D01*
X-2043Y-54114D01*
X-2069Y-54110D01*
X-2090Y-54106D01*
D02*
G37*
%LPD*%
D10*
X18311Y-58799D02*
Y3799D01*
X-5311Y-58799D02*
X18311D01*
X-5311Y3799D02*
X18311Y3799D01*
X-5311Y-58799D02*
Y3799D01*
D11*
X-30500Y-96000D02*
Y-79000D01*
X-165000Y-96000D02*
X-30500D01*
X-165000D02*
Y-79000D01*
X-30500D01*
X98645Y131901D02*
X104943D01*
X98645Y131601D02*
X104943D01*
X98645Y133700D02*
X100445Y134000D01*
X98645D01*
Y129501D01*
X100445D01*
X98645Y129801D01*
X104943Y132800D02*
Y130701D01*
X98645Y127702D02*
X104943D01*
X98645Y127402D02*
X104943D01*
X101644D02*
X101045Y126802D01*
X100745Y125903D01*
Y125303D01*
X101045Y124403D01*
X101644Y124103D01*
X104943D01*
X100745Y125303D02*
X101045Y124703D01*
X101644Y124403D01*
X104943D01*
X98645Y128602D02*
Y127402D01*
X104943Y128602D02*
Y126503D01*
Y125303D02*
Y123204D01*
X102544Y122094D02*
Y118495D01*
X101944D01*
X101345Y118795D01*
X101045Y119095D01*
X100745Y119695D01*
Y120595D01*
X101045Y121494D01*
X101644Y122094D01*
X102544Y122394D01*
X103144D01*
X104044Y122094D01*
X104643Y121494D01*
X104943Y120595D01*
Y119995D01*
X104643Y119095D01*
X104044Y118495D01*
X102544Y118795D02*
X101644D01*
X101045Y119095D01*
X100745Y120595D02*
X101045Y121194D01*
X101644Y121794D01*
X102544Y122094D01*
X103144D01*
X104044Y121794D01*
X104643Y121194D01*
X104943Y120595D01*
X98645Y110968D02*
X104943D01*
X98645Y110668D02*
X104943D01*
X98645Y111867D02*
Y108269D01*
X98945Y107369D01*
X99245Y107069D01*
X99845Y106769D01*
X100445D01*
X101045Y107069D01*
X101345Y107369D01*
X101644Y108269D01*
Y110668D01*
X98645Y108269D02*
X98945Y107669D01*
X99245Y107369D01*
X99845Y107069D01*
X100445D01*
X101045Y107369D01*
X101345Y107669D01*
X101644Y108269D01*
X104943Y111867D02*
Y109768D01*
X101644Y109169D02*
X101944Y108569D01*
X102244Y108269D01*
X104343Y107369D01*
X104643Y107069D01*
Y106769D01*
X104343Y106469D01*
X101944Y108569D02*
X102544Y108269D01*
X104643Y107669D01*
X104943Y107369D01*
Y106769D01*
X104343Y106469D01*
X104044D01*
X98645Y103560D02*
X98945Y104460D01*
X99545Y105060D01*
X100145Y105360D01*
X101345Y105660D01*
X102244D01*
X103444Y105360D01*
X104044Y105060D01*
X104643Y104460D01*
X104943Y103560D01*
Y102961D01*
X104643Y102061D01*
X104044Y101461D01*
X103444Y101161D01*
X102244Y100861D01*
X101345D01*
X100145Y101161D01*
X99545Y101461D01*
X98945Y102061D01*
X98645Y102961D01*
Y103560D01*
X98945Y104160D01*
X99545Y104760D01*
X100145Y105060D01*
X101345Y105360D01*
X102244D01*
X103444Y105060D01*
X104044Y104760D01*
X104643Y104160D01*
X104943Y103560D01*
Y102961D02*
X104643Y102361D01*
X104044Y101761D01*
X103444Y101461D01*
X102244Y101161D01*
X101345D01*
X100145Y101461D01*
X99545Y101761D01*
X98945Y102361D01*
X98645Y102961D01*
X99545Y96093D02*
X98645Y95793D01*
X100445D01*
X99545Y96093D01*
X98945Y96693D01*
X98645Y97592D01*
Y98492D01*
X98945Y99392D01*
X99545Y99992D01*
X100145D01*
X100745Y99692D01*
X101045Y99392D01*
X101345Y98792D01*
X101944Y96993D01*
X102244Y96393D01*
X102844Y95793D01*
X100145Y99992D02*
X100745Y99392D01*
X101045Y98792D01*
X101644Y96993D01*
X101944Y96393D01*
X102244Y96093D01*
X102844Y95793D01*
X104044D01*
X104643Y96393D01*
X104943Y97293D01*
Y98192D01*
X104643Y99092D01*
X104044Y99692D01*
X103144Y99992D01*
X104943D01*
X104044Y99692D01*
X98645Y88296D02*
X104943D01*
X98645Y87996D02*
X104943D01*
X98645Y89195D02*
Y85597D01*
X98945Y84697D01*
X99245Y84397D01*
X99845Y84097D01*
X100445D01*
X101045Y84397D01*
X101345Y84697D01*
X101644Y85597D01*
Y87996D01*
X98645Y85597D02*
X98945Y84997D01*
X99245Y84697D01*
X99845Y84397D01*
X100445D01*
X101045Y84697D01*
X101345Y84997D01*
X101644Y85597D01*
X104943Y89195D02*
Y87096D01*
X101644Y86496D02*
X101944Y85896D01*
X102244Y85597D01*
X104343Y84697D01*
X104643Y84397D01*
Y84097D01*
X104343Y83797D01*
X101944Y85896D02*
X102544Y85597D01*
X104643Y84997D01*
X104943Y84697D01*
Y84097D01*
X104343Y83797D01*
X104044D01*
X100745Y81188D02*
X101045Y82088D01*
X101644Y82687D01*
X102544Y82987D01*
X103144D01*
X104044Y82687D01*
X104643Y82088D01*
X104943Y81188D01*
Y80588D01*
X104643Y79689D01*
X104044Y79089D01*
X103144Y78789D01*
X102544D01*
X101644Y79089D01*
X101045Y79689D01*
X100745Y80588D01*
Y81188D01*
X101045Y81788D01*
X101644Y82388D01*
X102544Y82687D01*
X103144D01*
X104044Y82388D01*
X104643Y81788D01*
X104943Y81188D01*
Y80588D02*
X104643Y79988D01*
X104044Y79389D01*
X103144Y79089D01*
X102544D01*
X101644Y79389D01*
X101045Y79988D01*
X100745Y80588D01*
X98645Y76959D02*
X104943D01*
X98645Y76660D02*
X104943D01*
X101644D02*
X101045Y76060D01*
X100745Y75460D01*
Y74860D01*
X101045Y73960D01*
X101644Y73361D01*
X102544Y73061D01*
X103144D01*
X104044Y73361D01*
X104643Y73960D01*
X104943Y74860D01*
Y75460D01*
X104643Y76060D01*
X104044Y76660D01*
X100745Y74860D02*
X101045Y74260D01*
X101644Y73660D01*
X102544Y73361D01*
X103144D01*
X104044Y73660D01*
X104643Y74260D01*
X104943Y74860D01*
X98645Y77859D02*
Y76660D01*
X100745Y70392D02*
X101045Y71291D01*
X101644Y71891D01*
X102544Y72191D01*
X103144D01*
X104044Y71891D01*
X104643Y71291D01*
X104943Y70392D01*
Y69792D01*
X104643Y68892D01*
X104044Y68292D01*
X103144Y67992D01*
X102544D01*
X101644Y68292D01*
X101045Y68892D01*
X100745Y69792D01*
Y70392D01*
X101045Y70991D01*
X101644Y71591D01*
X102544Y71891D01*
X103144D01*
X104044Y71591D01*
X104643Y70991D01*
X104943Y70392D01*
Y69792D02*
X104643Y69192D01*
X104044Y68592D01*
X103144Y68292D01*
X102544D01*
X101644Y68592D01*
X101045Y69192D01*
X100745Y69792D01*
X104943Y65263D02*
X104643Y65563D01*
X103744Y65863D01*
X98645D01*
Y66163D01*
X103744D01*
X104643Y65863D01*
X104943Y65263D01*
Y64664D01*
X104643Y64064D01*
X104044Y63764D01*
X100745Y67063D02*
Y64664D01*
X98645Y56177D02*
X104943D01*
X98645Y55877D02*
X104943D01*
X98645Y57076D02*
Y53477D01*
X98945Y52578D01*
X99245Y52278D01*
X99845Y51978D01*
X100745D01*
X101345Y52278D01*
X101644Y52578D01*
X101944Y53477D01*
Y55877D01*
X98645Y53477D02*
X98945Y52878D01*
X99245Y52578D01*
X99845Y52278D01*
X100745D01*
X101345Y52578D01*
X101644Y52878D01*
X101944Y53477D01*
X104943Y57076D02*
Y54977D01*
X100745Y50239D02*
X104943D01*
X100745Y49939D02*
X104943D01*
X102544D02*
X101644Y49639D01*
X101045Y49039D01*
X100745Y48439D01*
Y47539D01*
X101045Y47240D01*
X101345D01*
X101644Y47539D01*
X101345Y47839D01*
X101045Y47539D01*
X100745Y51138D02*
Y49939D01*
X104943Y51138D02*
Y49039D01*
X100745Y44480D02*
X101045Y45380D01*
X101644Y45980D01*
X102544Y46280D01*
X103144D01*
X104044Y45980D01*
X104643Y45380D01*
X104943Y44480D01*
Y43881D01*
X104643Y42981D01*
X104044Y42381D01*
X103144Y42081D01*
X102544D01*
X101644Y42381D01*
X101045Y42981D01*
X100745Y43881D01*
Y44480D01*
X101045Y45080D01*
X101644Y45680D01*
X102544Y45980D01*
X103144D01*
X104044Y45680D01*
X104643Y45080D01*
X104943Y44480D01*
Y43881D02*
X104643Y43281D01*
X104044Y42681D01*
X103144Y42381D01*
X102544D01*
X101644Y42681D01*
X101045Y43281D01*
X100745Y43881D01*
X98645Y39652D02*
X98945Y39952D01*
X99245Y39652D01*
X98945Y39352D01*
X98645Y39652D01*
X100745Y39352D02*
X106143D01*
X106743Y39652D01*
X107043Y40252D01*
Y40852D01*
X106743Y41152D01*
X106443D01*
X106143Y40852D01*
X106443Y40552D01*
X106743Y40852D01*
X100745Y39652D02*
X106143D01*
X106743Y39952D01*
X107043Y40252D01*
X100745Y40552D02*
Y39352D01*
X102544Y37883D02*
Y34284D01*
X101944D01*
X101345Y34584D01*
X101045Y34884D01*
X100745Y35484D01*
Y36383D01*
X101045Y37283D01*
X101644Y37883D01*
X102544Y38183D01*
X103144D01*
X104044Y37883D01*
X104643Y37283D01*
X104943Y36383D01*
Y35783D01*
X104643Y34884D01*
X104044Y34284D01*
X102544Y34584D02*
X101644D01*
X101045Y34884D01*
X100745Y36383D02*
X101045Y36983D01*
X101644Y37583D01*
X102544Y37883D01*
X103144D01*
X104044Y37583D01*
X104643Y36983D01*
X104943Y36383D01*
X101644Y29726D02*
X101944Y30025D01*
X102244Y29726D01*
X101944Y29425D01*
X101644D01*
X101045Y30025D01*
X100745Y30625D01*
Y31525D01*
X101045Y32425D01*
X101644Y33024D01*
X102544Y33324D01*
X103144D01*
X104044Y33024D01*
X104643Y32425D01*
X104943Y31525D01*
Y30925D01*
X104643Y30025D01*
X104044Y29425D01*
X100745Y31525D02*
X101045Y32125D01*
X101644Y32724D01*
X102544Y33024D01*
X103144D01*
X104044Y32724D01*
X104643Y32125D01*
X104943Y31525D01*
Y26667D02*
X104643Y26966D01*
X103744Y27266D01*
X98645D01*
Y27566D01*
X103744D01*
X104643Y27266D01*
X104943Y26667D01*
Y26067D01*
X104643Y25467D01*
X104044Y25167D01*
X100745Y28466D02*
Y26067D01*
X110702Y133100D02*
X117000D01*
X110702Y132800D02*
X116100Y131001D01*
X110702Y133100D02*
X117000Y131001D01*
X110702Y128902D02*
X117000Y131001D01*
X110702Y128902D02*
X117000D01*
X110702Y128602D02*
X117000D01*
X110702Y134000D02*
Y132800D01*
Y128902D02*
Y127702D01*
X117000Y134000D02*
Y132201D01*
Y129801D02*
Y127702D01*
X113401Y126383D02*
X113701D01*
Y126682D01*
X113401D01*
X113101Y126383D01*
X112801Y125783D01*
Y124583D01*
X113101Y123983D01*
X113401Y123684D01*
X114001Y123384D01*
X116100D01*
X116700Y123084D01*
X117000Y122784D01*
X113401Y123684D02*
X116100D01*
X116700Y123384D01*
X117000Y122784D01*
Y122484D01*
X114001Y123684D02*
X114301Y123983D01*
X114601Y125783D01*
X114901Y126682D01*
X115500Y126982D01*
X116100D01*
X116700Y126682D01*
X117000Y125783D01*
Y124883D01*
X116700Y124283D01*
X116100Y123684D01*
X114601Y125783D02*
X114901Y126383D01*
X115500Y126682D01*
X116100D01*
X116700Y126383D01*
X117000Y125783D01*
X110702Y120685D02*
X111002Y120984D01*
X111302Y120685D01*
X111002Y120385D01*
X110702Y120685D01*
X112801D02*
X117000D01*
X112801Y120385D02*
X117000D01*
X112801Y121584D02*
Y120385D01*
X117000Y121584D02*
Y119485D01*
X112801Y117446D02*
X117000D01*
X112801Y117146D02*
X117000D01*
X113701D02*
X113101Y116546D01*
X112801Y115646D01*
Y115046D01*
X113101Y114147D01*
X113701Y113847D01*
X117000D01*
X112801Y115046D02*
X113101Y114447D01*
X113701Y114147D01*
X117000D01*
X112801Y118345D02*
Y117146D01*
X117000Y118345D02*
Y116246D01*
Y115046D02*
Y112947D01*
X111602Y102271D02*
X112502Y101971D01*
X110702D01*
X111602Y102271D01*
X111002Y102871D01*
X110702Y103770D01*
Y104370D01*
X111002Y105270D01*
X111602Y105870D01*
X112202Y106169D01*
X113101Y106469D01*
X114601D01*
X115500Y106169D01*
X116100Y105870D01*
X116700Y105270D01*
X117000Y104370D01*
Y103770D01*
X116700Y102871D01*
X116100Y102271D01*
X115500Y101971D01*
X110702Y104370D02*
X111002Y104970D01*
X111602Y105570D01*
X112202Y105870D01*
X113101Y106169D01*
X114601D01*
X115500Y105870D01*
X116100Y105570D01*
X116700Y104970D01*
X117000Y104370D01*
X112801Y99272D02*
X113101Y100171D01*
X113701Y100771D01*
X114601Y101071D01*
X115201D01*
X116100Y100771D01*
X116700Y100171D01*
X117000Y99272D01*
Y98672D01*
X116700Y97772D01*
X116100Y97172D01*
X115201Y96873D01*
X114601D01*
X113701Y97172D01*
X113101Y97772D01*
X112801Y98672D01*
Y99272D01*
X113101Y99872D01*
X113701Y100471D01*
X114601Y100771D01*
X115201D01*
X116100Y100471D01*
X116700Y99872D01*
X117000Y99272D01*
Y98672D02*
X116700Y98072D01*
X116100Y97472D01*
X115201Y97172D01*
X114601D01*
X113701Y97472D01*
X113101Y98072D01*
X112801Y98672D01*
Y95043D02*
X117000D01*
X112801Y94743D02*
X117000D01*
X113701D02*
X113101Y94143D01*
X112801Y93244D01*
Y92644D01*
X113101Y91744D01*
X113701Y91444D01*
X117000D01*
X112801Y92644D02*
X113101Y92044D01*
X113701Y91744D01*
X117000D01*
X112801Y95943D02*
Y94743D01*
X117000Y95943D02*
Y93844D01*
Y92644D02*
Y90545D01*
Y87936D02*
X116700Y88236D01*
X115800Y88535D01*
X110702D01*
Y88835D01*
X115800D01*
X116700Y88535D01*
X117000Y87936D01*
Y87336D01*
X116700Y86736D01*
X116100Y86436D01*
X112801Y89735D02*
Y87336D01*
Y84517D02*
X117000D01*
X112801Y84217D02*
X117000D01*
X114601D02*
X113701Y83917D01*
X113101Y83317D01*
X112801Y82717D01*
Y81818D01*
X113101Y81518D01*
X113401D01*
X113701Y81818D01*
X113401Y82118D01*
X113101Y81818D01*
X112801Y85417D02*
Y84217D01*
X117000Y85417D02*
Y83317D01*
X112801Y78759D02*
X113101Y79659D01*
X113701Y80258D01*
X114601Y80558D01*
X115201D01*
X116100Y80258D01*
X116700Y79659D01*
X117000Y78759D01*
Y78159D01*
X116700Y77259D01*
X116100Y76660D01*
X115201Y76360D01*
X114601D01*
X113701Y76660D01*
X113101Y77259D01*
X112801Y78159D01*
Y78759D01*
X113101Y79359D01*
X113701Y79958D01*
X114601Y80258D01*
X115201D01*
X116100Y79958D01*
X116700Y79359D01*
X117000Y78759D01*
Y78159D02*
X116700Y77559D01*
X116100Y76959D01*
X115201Y76660D01*
X114601D01*
X113701Y76959D01*
X113101Y77559D01*
X112801Y78159D01*
X110702Y74530D02*
X117000D01*
X110702Y74230D02*
X117000D01*
X110702Y75430D02*
Y74230D01*
X117000Y75430D02*
Y73331D01*
X110702Y65623D02*
X117000D01*
X110702Y65323D02*
X117000D01*
X110702Y66523D02*
Y62924D01*
X111002Y62024D01*
X111302Y61725D01*
X111902Y61425D01*
X112502D01*
X113101Y61725D01*
X113401Y62024D01*
X113701Y62924D01*
X110702D02*
X111002Y62324D01*
X111302Y62024D01*
X111902Y61725D01*
X112502D01*
X113101Y62024D01*
X113401Y62324D01*
X113701Y62924D01*
Y65323D02*
Y62924D01*
X114001Y62024D01*
X114301Y61725D01*
X114901Y61425D01*
X115800D01*
X116400Y61725D01*
X116700Y62024D01*
X117000Y62924D01*
Y66523D01*
X113701Y62924D02*
X114001Y62324D01*
X114301Y62024D01*
X114901Y61725D01*
X115800D01*
X116400Y62024D01*
X116700Y62324D01*
X117000Y62924D01*
X112801Y58786D02*
X113101Y59685D01*
X113701Y60285D01*
X114601Y60585D01*
X115201D01*
X116100Y60285D01*
X116700Y59685D01*
X117000Y58786D01*
Y58186D01*
X116700Y57286D01*
X116100Y56686D01*
X115201Y56386D01*
X114601D01*
X113701Y56686D01*
X113101Y57286D01*
X112801Y58186D01*
Y58786D01*
X113101Y59385D01*
X113701Y59985D01*
X114601Y60285D01*
X115201D01*
X116100Y59985D01*
X116700Y59385D01*
X117000Y58786D01*
Y58186D02*
X116700Y57586D01*
X116100Y56986D01*
X115201Y56686D01*
X114601D01*
X113701Y56986D01*
X113101Y57586D01*
X112801Y58186D01*
X113401Y54857D02*
X113701D01*
Y55157D01*
X113401D01*
X113101Y54857D01*
X112801Y54257D01*
Y53057D01*
X113101Y52458D01*
X113401Y52158D01*
X114001Y51858D01*
X116100D01*
X116700Y51558D01*
X117000Y51258D01*
X113401Y52158D02*
X116100D01*
X116700Y51858D01*
X117000Y51258D01*
Y50958D01*
X114001Y52158D02*
X114301Y52458D01*
X114601Y54257D01*
X114901Y55157D01*
X115500Y55457D01*
X116100D01*
X116700Y55157D01*
X117000Y54257D01*
Y53357D01*
X116700Y52758D01*
X116100Y52158D01*
X114601Y54257D02*
X114901Y54857D01*
X115500Y55157D01*
X116100D01*
X116700Y54857D01*
X117000Y54257D01*
X112801Y49159D02*
X117000D01*
X112801Y48859D02*
X117000D01*
X114601D02*
X113701Y48559D01*
X113101Y47959D01*
X112801Y47359D01*
Y46460D01*
X113101Y46160D01*
X113401D01*
X113701Y46460D01*
X113401Y46760D01*
X113101Y46460D01*
X112801Y50059D02*
Y48859D01*
X117000Y50059D02*
Y47959D01*
X110702Y41601D02*
X117000D01*
X110702Y41302D02*
X117000D01*
X113701Y41601D02*
X113101Y42201D01*
X112801Y42801D01*
Y43401D01*
X113101Y44300D01*
X113701Y44900D01*
X114601Y45200D01*
X115201D01*
X116100Y44900D01*
X116700Y44300D01*
X117000Y43401D01*
Y42801D01*
X116700Y42201D01*
X116100Y41601D01*
X112801Y43401D02*
X113101Y44001D01*
X113701Y44600D01*
X114601Y44900D01*
X115201D01*
X116100Y44600D01*
X116700Y44001D01*
X117000Y43401D01*
X110702Y42501D02*
Y41302D01*
X117000Y41601D02*
Y40402D01*
X156202Y167701D02*
X156502Y168300D01*
X156802Y168600D01*
X157402Y168900D01*
X158001D01*
X158601Y168600D01*
X158901Y168300D01*
X159201Y167701D01*
Y167101D01*
X158901Y166501D01*
X158601Y166201D01*
X158001Y165901D01*
X157402D01*
X156802Y166201D01*
X156502Y166501D01*
X156202Y167101D01*
Y167701D01*
X156502Y168300D02*
X157102Y168600D01*
X158301D01*
X158901Y168300D01*
Y166501D02*
X158301Y166201D01*
X157102D01*
X156502Y166501D01*
X156802Y166201D02*
X156502Y165901D01*
X156202Y165301D01*
X156502D01*
Y165901D01*
X158601Y168600D02*
X158901Y168900D01*
X159501Y169200D01*
X159801D01*
X160401Y168900D01*
X160701Y168000D01*
Y166501D01*
X161001Y165601D01*
X161300Y165301D01*
X159801Y169200D02*
X160101Y168900D01*
X160401Y168000D01*
Y166501D01*
X160701Y165601D01*
X161300Y165301D01*
X161600D01*
X162200Y165601D01*
X162500Y166501D01*
Y168300D01*
X162200Y169200D01*
X161600Y169500D01*
X161300D01*
X160701Y169200D01*
X160401Y168300D01*
X154103Y163472D02*
X154403Y163772D01*
X154703Y163472D01*
X154403Y163172D01*
X154103Y163472D01*
X156202D02*
X160401D01*
X156202Y163172D02*
X160401D01*
X156202Y164372D02*
Y163172D01*
X160401Y164372D02*
Y162273D01*
Y159333D02*
X160101Y159633D01*
X159201Y159933D01*
X154103D01*
Y160233D01*
X159201D01*
X160101Y159933D01*
X160401Y159333D01*
Y158734D01*
X160101Y158134D01*
X159501Y157834D01*
X156202Y161133D02*
Y158734D01*
X154103Y155915D02*
X160401D01*
X154103Y155615D02*
X160401D01*
X157102D02*
X156502Y155015D01*
X156202Y154115D01*
Y153515D01*
X156502Y152616D01*
X157102Y152316D01*
X160401D01*
X156202Y153515D02*
X156502Y152916D01*
X157102Y152616D01*
X160401D01*
X154103Y156814D02*
Y155615D01*
X160401Y156814D02*
Y154715D01*
Y153515D02*
Y151416D01*
X156202Y149707D02*
X159501D01*
X160101Y149407D01*
X160401Y148507D01*
Y147907D01*
X160101Y147008D01*
X159501Y146408D01*
X156202Y149407D02*
X159501D01*
X160101Y149107D01*
X160401Y148507D01*
X156202Y146408D02*
X160401D01*
X156202Y146108D02*
X160401D01*
X156202Y150606D02*
Y149407D01*
Y147308D02*
Y146108D01*
X160401Y146408D02*
Y145208D01*
X154103Y143499D02*
X160401D01*
X154103Y143199D02*
X160401D01*
X157102D02*
X156502Y142599D01*
X156202Y141999D01*
Y141400D01*
X156502Y140500D01*
X157102Y139900D01*
X158001Y139600D01*
X158601D01*
X159501Y139900D01*
X160101Y140500D01*
X160401Y141400D01*
Y141999D01*
X160101Y142599D01*
X159501Y143199D01*
X156202Y141400D02*
X156502Y140800D01*
X157102Y140200D01*
X158001Y139900D01*
X158601D01*
X159501Y140200D01*
X160101Y140800D01*
X160401Y141400D01*
X154103Y144398D02*
Y143199D01*
X159801Y138431D02*
X160101Y138731D01*
X160401Y138431D01*
X160101Y138131D01*
X159801Y138431D01*
X157102Y133242D02*
X157402Y133542D01*
X157702Y133242D01*
X157402Y132942D01*
X157102D01*
X156502Y133542D01*
X156202Y134142D01*
Y135042D01*
X156502Y135941D01*
X157102Y136541D01*
X158001Y136841D01*
X158601D01*
X159501Y136541D01*
X160101Y135941D01*
X160401Y135042D01*
Y134442D01*
X160101Y133542D01*
X159501Y132942D01*
X156202Y135042D02*
X156502Y135642D01*
X157102Y136241D01*
X158001Y136541D01*
X158601D01*
X159501Y136241D01*
X160101Y135642D01*
X160401Y135042D01*
X156202Y130183D02*
X156502Y131083D01*
X157102Y131683D01*
X158001Y131983D01*
X158601D01*
X159501Y131683D01*
X160101Y131083D01*
X160401Y130183D01*
Y129584D01*
X160101Y128684D01*
X159501Y128084D01*
X158601Y127784D01*
X158001D01*
X157102Y128084D01*
X156502Y128684D01*
X156202Y129584D01*
Y130183D01*
X156502Y130783D01*
X157102Y131383D01*
X158001Y131683D01*
X158601D01*
X159501Y131383D01*
X160101Y130783D01*
X160401Y130183D01*
Y129584D02*
X160101Y128984D01*
X159501Y128384D01*
X158601Y128084D01*
X158001D01*
X157102Y128384D01*
X156502Y128984D01*
X156202Y129584D01*
Y125955D02*
X160401D01*
X156202Y125655D02*
X160401D01*
X157102D02*
X156502Y125055D01*
X156202Y124155D01*
Y123556D01*
X156502Y122656D01*
X157102Y122356D01*
X160401D01*
X156202Y123556D02*
X156502Y122956D01*
X157102Y122656D01*
X160401D01*
X157102Y122356D02*
X156502Y121756D01*
X156202Y120856D01*
Y120257D01*
X156502Y119357D01*
X157102Y119057D01*
X160401D01*
X156202Y120257D02*
X156502Y119657D01*
X157102Y119357D01*
X160401D01*
X156202Y126855D02*
Y125655D01*
X160401Y126855D02*
Y124755D01*
Y123556D02*
Y121456D01*
Y120257D02*
Y118157D01*
X155302Y111979D02*
X160401Y117078D01*
Y117678D01*
X154103Y111380D01*
Y110780D01*
X155302Y111979D01*
X156802Y107931D02*
X156202Y107631D01*
X157402D01*
X156802Y107931D01*
X156502Y108231D01*
X156202Y108831D01*
Y110030D01*
X156502Y110630D01*
X156802Y110930D01*
X157402D01*
X157702Y110630D01*
X158001Y110030D01*
X158601Y108531D01*
X158901Y107931D01*
X159201Y107631D01*
X157102Y110930D02*
X157402Y110630D01*
X157702Y110030D01*
X158301Y108531D01*
X158601Y107931D01*
X158901Y107631D01*
X159801D01*
X160101Y107931D01*
X160401Y108531D01*
Y109730D01*
X160101Y110330D01*
X159801Y110630D01*
X159201Y110930D01*
X160401D01*
X159801Y110630D01*
X156802Y106012D02*
X157102D01*
Y106312D01*
X156802D01*
X156502Y106012D01*
X156202Y105412D01*
Y104212D01*
X156502Y103612D01*
X156802Y103313D01*
X157402Y103013D01*
X159501D01*
X160101Y102713D01*
X160401Y102413D01*
X156802Y103313D02*
X159501D01*
X160101Y103013D01*
X160401Y102413D01*
Y102113D01*
X157402Y103313D02*
X157702Y103612D01*
X158001Y105412D01*
X158301Y106312D01*
X158901Y106611D01*
X159501D01*
X160101Y106312D01*
X160401Y105412D01*
Y104512D01*
X160101Y103912D01*
X159501Y103313D01*
X158001Y105412D02*
X158301Y106012D01*
X158901Y106312D01*
X159501D01*
X160101Y106012D01*
X160401Y105412D01*
X156202Y100313D02*
X160401D01*
X156202Y100014D02*
X160401D01*
X157102D02*
X156502Y99414D01*
X156202Y98514D01*
Y97914D01*
X156502Y97015D01*
X157102Y96715D01*
X160401D01*
X156202Y97914D02*
X156502Y97315D01*
X157102Y97015D01*
X160401D01*
X157102Y96715D02*
X156502Y96115D01*
X156202Y95215D01*
Y94615D01*
X156502Y93716D01*
X157102Y93416D01*
X160401D01*
X156202Y94615D02*
X156502Y94016D01*
X157102Y93716D01*
X160401D01*
X156202Y101213D02*
Y100014D01*
X160401Y101213D02*
Y99114D01*
Y97914D02*
Y95815D01*
Y94615D02*
Y92516D01*
X156202Y91436D02*
X160401Y89637D01*
X156202Y91137D02*
X159801Y89637D01*
X156202Y87838D02*
X160401Y89637D01*
X161600Y90237D01*
X162200Y90837D01*
X162500Y91436D01*
Y91736D01*
X162200Y92036D01*
X161900Y91736D01*
X162200Y91436D01*
X156202Y92036D02*
Y90237D01*
Y89037D02*
Y87238D01*
X156802Y85768D02*
X157102D01*
Y86068D01*
X156802D01*
X156502Y85768D01*
X156202Y85169D01*
Y83969D01*
X156502Y83369D01*
X156802Y83069D01*
X157402Y82770D01*
X159501D01*
X160101Y82470D01*
X160401Y82170D01*
X156802Y83069D02*
X159501D01*
X160101Y82770D01*
X160401Y82170D01*
Y81870D01*
X157402Y83069D02*
X157702Y83369D01*
X158001Y85169D01*
X158301Y86068D01*
X158901Y86368D01*
X159501D01*
X160101Y86068D01*
X160401Y85169D01*
Y84269D01*
X160101Y83669D01*
X159501Y83069D01*
X158001Y85169D02*
X158301Y85768D01*
X158901Y86068D01*
X159501D01*
X160101Y85768D01*
X160401Y85169D01*
X156202Y80070D02*
X160401D01*
X156202Y79770D02*
X160401D01*
X158001D02*
X157102Y79471D01*
X156502Y78871D01*
X156202Y78271D01*
Y77371D01*
X156502Y77071D01*
X156802D01*
X157102Y77371D01*
X156802Y77671D01*
X156502Y77371D01*
X156202Y80970D02*
Y79770D01*
X160401Y80970D02*
Y78871D01*
X156802Y73113D02*
X156202Y72813D01*
X157402D01*
X156802Y73113D01*
X156502Y73413D01*
X156202Y74012D01*
Y75212D01*
X156502Y75812D01*
X156802Y76112D01*
X157402D01*
X157702Y75812D01*
X158001Y75212D01*
X158601Y73712D01*
X158901Y73113D01*
X159201Y72813D01*
X157102Y76112D02*
X157402Y75812D01*
X157702Y75212D01*
X158301Y73712D01*
X158601Y73113D01*
X158901Y72813D01*
X159801D01*
X160101Y73113D01*
X160401Y73712D01*
Y74912D01*
X160101Y75512D01*
X159801Y75812D01*
X159201Y76112D01*
X160401D01*
X159801Y75812D01*
X156802Y71193D02*
X157102D01*
Y71493D01*
X156802D01*
X156502Y71193D01*
X156202Y70594D01*
Y69394D01*
X156502Y68794D01*
X156802Y68494D01*
X157402Y68194D01*
X159501D01*
X160101Y67895D01*
X160401Y67595D01*
X156802Y68494D02*
X159501D01*
X160101Y68194D01*
X160401Y67595D01*
Y67295D01*
X157402Y68494D02*
X157702Y68794D01*
X158001Y70594D01*
X158301Y71493D01*
X158901Y71793D01*
X159501D01*
X160101Y71493D01*
X160401Y70594D01*
Y69694D01*
X160101Y69094D01*
X159501Y68494D01*
X158001Y70594D02*
X158301Y71193D01*
X158901Y71493D01*
X159501D01*
X160101Y71193D01*
X160401Y70594D01*
X154103Y62796D02*
X160401D01*
X154103Y62496D02*
X160401D01*
X157102Y62796D02*
X156502Y63396D01*
X156202Y63996D01*
Y64596D01*
X156502Y65495D01*
X157102Y66095D01*
X158001Y66395D01*
X158601D01*
X159501Y66095D01*
X160101Y65495D01*
X160401Y64596D01*
Y63996D01*
X160101Y63396D01*
X159501Y62796D01*
X156202Y64596D02*
X156502Y65195D01*
X157102Y65795D01*
X158001Y66095D01*
X158601D01*
X159501Y65795D01*
X160101Y65195D01*
X160401Y64596D01*
X154103Y63696D02*
Y62496D01*
X160401Y62796D02*
Y61597D01*
X156802Y60127D02*
X157102D01*
Y60427D01*
X156802D01*
X156502Y60127D01*
X156202Y59527D01*
Y58328D01*
X156502Y57728D01*
X156802Y57428D01*
X157402Y57128D01*
X159501D01*
X160101Y56828D01*
X160401Y56528D01*
X156802Y57428D02*
X159501D01*
X160101Y57128D01*
X160401Y56528D01*
Y56229D01*
X157402Y57428D02*
X157702Y57728D01*
X158001Y59527D01*
X158301Y60427D01*
X158901Y60727D01*
X159501D01*
X160101Y60427D01*
X160401Y59527D01*
Y58628D01*
X160101Y58028D01*
X159501Y57428D01*
X158001Y59527D02*
X158301Y60127D01*
X158901Y60427D01*
X159501D01*
X160101Y60127D01*
X160401Y59527D01*
Y53529D02*
X160101Y53829D01*
X159201Y54129D01*
X154103D01*
Y54429D01*
X159201D01*
X160101Y54129D01*
X160401Y53529D01*
Y52930D01*
X160101Y52330D01*
X159501Y52030D01*
X156202Y55329D02*
Y52930D01*
X155302Y45312D02*
X160401Y50410D01*
Y51010D01*
X154103Y44712D01*
Y44113D01*
X155302Y45312D01*
X154103Y43363D02*
X160401D01*
X154103Y43063D02*
X160401D01*
X154103Y44262D02*
Y40664D01*
X154403Y39764D01*
X154703Y39464D01*
X155302Y39164D01*
X155902D01*
X156502Y39464D01*
X156802Y39764D01*
X157102Y40664D01*
Y43063D01*
X154103Y40664D02*
X154403Y40064D01*
X154703Y39764D01*
X155302Y39464D01*
X155902D01*
X156502Y39764D01*
X156802Y40064D01*
X157102Y40664D01*
X160401Y44262D02*
Y42163D01*
X157102Y41563D02*
X157402Y40964D01*
X157702Y40664D01*
X159801Y39764D01*
X160101Y39464D01*
Y39164D01*
X159801Y38864D01*
X157402Y40964D02*
X158001Y40664D01*
X160101Y40064D01*
X160401Y39764D01*
Y39164D01*
X159801Y38864D01*
X159501D01*
X154103Y35955D02*
X154403Y36855D01*
X155002Y37455D01*
X155602Y37755D01*
X156802Y38055D01*
X157702D01*
X158901Y37755D01*
X159501Y37455D01*
X160101Y36855D01*
X160401Y35955D01*
Y35356D01*
X160101Y34456D01*
X159501Y33856D01*
X158901Y33556D01*
X157702Y33256D01*
X156802D01*
X155602Y33556D01*
X155002Y33856D01*
X154403Y34456D01*
X154103Y35356D01*
Y35955D01*
X154403Y36555D01*
X155002Y37155D01*
X155602Y37455D01*
X156802Y37755D01*
X157702D01*
X158901Y37455D01*
X159501Y37155D01*
X160101Y36555D01*
X160401Y35955D01*
Y35356D02*
X160101Y34756D01*
X159501Y34156D01*
X158901Y33856D01*
X157702Y33556D01*
X156802D01*
X155602Y33856D01*
X155002Y34156D01*
X154403Y34756D01*
X154103Y35356D01*
X155002Y28488D02*
X154103Y28188D01*
X155902D01*
X155002Y28488D01*
X154403Y29088D01*
X154103Y29987D01*
Y30887D01*
X154403Y31787D01*
X155002Y32387D01*
X155602D01*
X156202Y32087D01*
X156502Y31787D01*
X156802Y31187D01*
X157402Y29388D01*
X157702Y28788D01*
X158301Y28188D01*
X155602Y32387D02*
X156202Y31787D01*
X156502Y31187D01*
X157102Y29388D01*
X157402Y28788D01*
X157702Y28488D01*
X158301Y28188D01*
X159501D01*
X160101Y28788D01*
X160401Y29688D01*
Y30587D01*
X160101Y31487D01*
X159501Y32087D01*
X158601Y32387D01*
X160401D01*
X159501Y32087D01*
X157702Y27258D02*
Y21860D01*
X154103Y20151D02*
X160401D01*
X154103Y19851D02*
X160401D01*
X154103Y21050D02*
Y17452D01*
X154403Y16552D01*
X154703Y16252D01*
X155302Y15952D01*
X155902D01*
X156502Y16252D01*
X156802Y16552D01*
X157102Y17452D01*
Y19851D01*
X154103Y17452D02*
X154403Y16852D01*
X154703Y16552D01*
X155302Y16252D01*
X155902D01*
X156502Y16552D01*
X156802Y16852D01*
X157102Y17452D01*
X160401Y21050D02*
Y18951D01*
X157102Y18351D02*
X157402Y17752D01*
X157702Y17452D01*
X159801Y16552D01*
X160101Y16252D01*
Y15952D01*
X159801Y15652D01*
X157402Y17752D02*
X158001Y17452D01*
X160101Y16852D01*
X160401Y16552D01*
Y15952D01*
X159801Y15652D01*
X159501D01*
X156202Y13043D02*
X156502Y13943D01*
X157102Y14543D01*
X158001Y14842D01*
X158601D01*
X159501Y14543D01*
X160101Y13943D01*
X160401Y13043D01*
Y12443D01*
X160101Y11544D01*
X159501Y10944D01*
X158601Y10644D01*
X158001D01*
X157102Y10944D01*
X156502Y11544D01*
X156202Y12443D01*
Y13043D01*
X156502Y13643D01*
X157102Y14243D01*
X158001Y14543D01*
X158601D01*
X159501Y14243D01*
X160101Y13643D01*
X160401Y13043D01*
Y12443D02*
X160101Y11844D01*
X159501Y11244D01*
X158601Y10944D01*
X158001D01*
X157102Y11244D01*
X156502Y11844D01*
X156202Y12443D01*
X154103Y8815D02*
X160401D01*
X154103Y8515D02*
X160401D01*
X157102D02*
X156502Y7915D01*
X156202Y7315D01*
Y6715D01*
X156502Y5816D01*
X157102Y5216D01*
X158001Y4916D01*
X158601D01*
X159501Y5216D01*
X160101Y5816D01*
X160401Y6715D01*
Y7315D01*
X160101Y7915D01*
X159501Y8515D01*
X156202Y6715D02*
X156502Y6115D01*
X157102Y5516D01*
X158001Y5216D01*
X158601D01*
X159501Y5516D01*
X160101Y6115D01*
X160401Y6715D01*
X154103Y9714D02*
Y8515D01*
X156202Y2247D02*
X156502Y3147D01*
X157102Y3746D01*
X158001Y4046D01*
X158601D01*
X159501Y3746D01*
X160101Y3147D01*
X160401Y2247D01*
Y1647D01*
X160101Y747D01*
X159501Y148D01*
X158601Y-152D01*
X158001D01*
X157102Y148D01*
X156502Y747D01*
X156202Y1647D01*
Y2247D01*
X156502Y2847D01*
X157102Y3446D01*
X158001Y3746D01*
X158601D01*
X159501Y3446D01*
X160101Y2847D01*
X160401Y2247D01*
Y1647D02*
X160101Y1047D01*
X159501Y447D01*
X158601Y148D01*
X158001D01*
X157102Y447D01*
X156502Y1047D01*
X156202Y1647D01*
X160401Y-2881D02*
X160101Y-2582D01*
X159201Y-2282D01*
X154103D01*
Y-1982D01*
X159201D01*
X160101Y-2282D01*
X160401Y-2881D01*
Y-3481D01*
X160101Y-4081D01*
X159501Y-4381D01*
X156202Y-1082D02*
Y-3481D01*
X174000Y-78144D02*
Y-84143D01*
Y-78144D02*
X171429D01*
X170572Y-78430D01*
X170287Y-78716D01*
X170001Y-79287D01*
Y-79858D01*
X170287Y-80430D01*
X170572Y-80715D01*
X171429Y-81001D01*
X174000D01*
X172000D02*
X170001Y-84143D01*
X168658Y-81858D02*
X165230D01*
Y-81287D01*
X165516Y-80715D01*
X165802Y-80430D01*
X166373Y-80144D01*
X167230D01*
X167801Y-80430D01*
X168373Y-81001D01*
X168658Y-81858D01*
Y-82429D01*
X168373Y-83286D01*
X167801Y-83857D01*
X167230Y-84143D01*
X166373D01*
X165802Y-83857D01*
X165230Y-83286D01*
X163945Y-80144D02*
X162231Y-84143D01*
X160517Y-80144D02*
X162231Y-84143D01*
X154833Y-79287D02*
X154261Y-79001D01*
X153404Y-78144D01*
Y-84143D01*
X150148Y-83572D02*
X150434Y-83857D01*
X150148Y-84143D01*
X149862Y-83857D01*
X150148Y-83572D01*
X148263Y-79573D02*
Y-79287D01*
X147977Y-78716D01*
X147691Y-78430D01*
X147120Y-78144D01*
X145977D01*
X145406Y-78430D01*
X145121Y-78716D01*
X144835Y-79287D01*
Y-79858D01*
X145121Y-80430D01*
X145692Y-81287D01*
X148548Y-84143D01*
X144549D01*
X138493Y-81572D02*
X133352D01*
X126867Y-79287D02*
X126296Y-79001D01*
X125439Y-78144D01*
Y-84143D01*
X121897Y-78144D02*
X118755D01*
X120469Y-80430D01*
X119612D01*
X119040Y-80715D01*
X118755Y-81001D01*
X118469Y-81858D01*
Y-82429D01*
X118755Y-83286D01*
X119326Y-83857D01*
X120183Y-84143D01*
X121040D01*
X121897Y-83857D01*
X122183Y-83572D01*
X122468Y-83000D01*
X117127Y-85000D02*
X113127Y-78144D01*
X112727Y-79287D02*
X112156Y-79001D01*
X111299Y-78144D01*
Y-84143D01*
X106614Y-78144D02*
X107471Y-78430D01*
X108043Y-79287D01*
X108328Y-80715D01*
Y-81572D01*
X108043Y-83000D01*
X107471Y-83857D01*
X106614Y-84143D01*
X106043D01*
X105186Y-83857D01*
X104615Y-83000D01*
X104329Y-81572D01*
Y-80715D01*
X104615Y-79287D01*
X105186Y-78430D01*
X106043Y-78144D01*
X106614D01*
X102987Y-85000D02*
X98988Y-78144D01*
X98302Y-79573D02*
Y-79287D01*
X98016Y-78716D01*
X97731Y-78430D01*
X97159Y-78144D01*
X96017D01*
X95445Y-78430D01*
X95160Y-78716D01*
X94874Y-79287D01*
Y-79858D01*
X95160Y-80430D01*
X95731Y-81287D01*
X98588Y-84143D01*
X94588D01*
X91532Y-78144D02*
X92389Y-78430D01*
X92960Y-79287D01*
X93246Y-80715D01*
Y-81572D01*
X92960Y-83000D01*
X92389Y-83857D01*
X91532Y-84143D01*
X90961D01*
X90104Y-83857D01*
X89532Y-83000D01*
X89247Y-81572D01*
Y-80715D01*
X89532Y-79287D01*
X90104Y-78430D01*
X90961Y-78144D01*
X91532D01*
X87618Y-79573D02*
Y-79287D01*
X87333Y-78716D01*
X87047Y-78430D01*
X86476Y-78144D01*
X85333D01*
X84762Y-78430D01*
X84476Y-78716D01*
X84191Y-79287D01*
Y-79858D01*
X84476Y-80430D01*
X85048Y-81287D01*
X87904Y-84143D01*
X83905D01*
X82277Y-79573D02*
Y-79287D01*
X81991Y-78716D01*
X81705Y-78430D01*
X81134Y-78144D01*
X79992D01*
X79420Y-78430D01*
X79135Y-78716D01*
X78849Y-79287D01*
Y-79858D01*
X79135Y-80430D01*
X79706Y-81287D01*
X82562Y-84143D01*
X78563D01*
X174000Y-66001D02*
Y-72000D01*
X170572D01*
X169344Y-66001D02*
X169058Y-66287D01*
X168773Y-66001D01*
X169058Y-65716D01*
X169344Y-66001D01*
X169058Y-68001D02*
Y-72000D01*
X164288Y-68858D02*
X164859Y-68287D01*
X165430Y-68001D01*
X166287D01*
X166859Y-68287D01*
X167430Y-68858D01*
X167716Y-69715D01*
Y-70286D01*
X167430Y-71143D01*
X166859Y-71714D01*
X166287Y-72000D01*
X165430D01*
X164859Y-71714D01*
X164288Y-71143D01*
X163002Y-69715D02*
X159574D01*
Y-69143D01*
X159860Y-68572D01*
X160146Y-68287D01*
X160717Y-68001D01*
X161574D01*
X162145Y-68287D01*
X162717Y-68858D01*
X163002Y-69715D01*
Y-70286D01*
X162717Y-71143D01*
X162145Y-71714D01*
X161574Y-72000D01*
X160717D01*
X160146Y-71714D01*
X159574Y-71143D01*
X158289Y-68001D02*
Y-72000D01*
Y-69143D02*
X157432Y-68287D01*
X156861Y-68001D01*
X156004D01*
X155432Y-68287D01*
X155147Y-69143D01*
Y-72000D01*
X150434Y-68858D02*
X150719Y-68287D01*
X151576Y-68001D01*
X152433D01*
X153290Y-68287D01*
X153576Y-68858D01*
X153290Y-69429D01*
X152719Y-69715D01*
X151291Y-70000D01*
X150719Y-70286D01*
X150434Y-70857D01*
Y-71143D01*
X150719Y-71714D01*
X151576Y-72000D01*
X152433D01*
X153290Y-71714D01*
X153576Y-71143D01*
X149177Y-69715D02*
X145749D01*
Y-69143D01*
X146035Y-68572D01*
X146320Y-68287D01*
X146891Y-68001D01*
X147748D01*
X148320Y-68287D01*
X148891Y-68858D01*
X149177Y-69715D01*
Y-70286D01*
X148891Y-71143D01*
X148320Y-71714D01*
X147748Y-72000D01*
X146891D01*
X146320Y-71714D01*
X145749Y-71143D01*
X141036Y-66001D02*
Y-72000D01*
Y-68858D02*
X141607Y-68287D01*
X142178Y-68001D01*
X143035D01*
X143606Y-68287D01*
X144178Y-68858D01*
X144463Y-69715D01*
Y-70286D01*
X144178Y-71143D01*
X143606Y-71714D01*
X143035Y-72000D01*
X142178D01*
X141607Y-71714D01*
X141036Y-71143D01*
X134723Y-68001D02*
Y-70857D01*
X134437Y-71714D01*
X133866Y-72000D01*
X133009D01*
X132438Y-71714D01*
X131580Y-70857D01*
Y-68001D02*
Y-72000D01*
X130009Y-68001D02*
Y-72000D01*
Y-69143D02*
X129152Y-68287D01*
X128581Y-68001D01*
X127724D01*
X127153Y-68287D01*
X126867Y-69143D01*
Y-72000D01*
X121868Y-66001D02*
Y-72000D01*
Y-68858D02*
X122440Y-68287D01*
X123011Y-68001D01*
X123868D01*
X124439Y-68287D01*
X125011Y-68858D01*
X125296Y-69715D01*
Y-70286D01*
X125011Y-71143D01*
X124439Y-71714D01*
X123868Y-72000D01*
X123011D01*
X122440Y-71714D01*
X121868Y-71143D01*
X120269Y-69715D02*
X116841D01*
Y-69143D01*
X117126Y-68572D01*
X117412Y-68287D01*
X117983Y-68001D01*
X118840D01*
X119412Y-68287D01*
X119983Y-68858D01*
X120269Y-69715D01*
Y-70286D01*
X119983Y-71143D01*
X119412Y-71714D01*
X118840Y-72000D01*
X117983D01*
X117412Y-71714D01*
X116841Y-71143D01*
X115555Y-68001D02*
Y-72000D01*
Y-69715D02*
X115270Y-68858D01*
X114698Y-68287D01*
X114127Y-68001D01*
X113270D01*
X103729Y-67430D02*
X104015Y-66858D01*
X104586Y-66287D01*
X105158Y-66001D01*
X106300D01*
X106871Y-66287D01*
X107443Y-66858D01*
X107728Y-67430D01*
X108014Y-68287D01*
Y-69715D01*
X107728Y-70572D01*
X107443Y-71143D01*
X106871Y-71714D01*
X106300Y-72000D01*
X105158D01*
X104586Y-71714D01*
X104015Y-71143D01*
X103729Y-70572D01*
Y-69715D01*
X105158D02*
X103729D01*
X102358Y-69143D02*
X99787D01*
X98930Y-68858D01*
X98645Y-68572D01*
X98359Y-68001D01*
Y-67144D01*
X98645Y-66573D01*
X98930Y-66287D01*
X99787Y-66001D01*
X102358D01*
Y-72000D01*
X97017Y-66001D02*
Y-72000D01*
X93589D01*
X92932Y-69429D02*
X87790D01*
X85448Y-66001D02*
X82305D01*
X84019Y-68287D01*
X83162D01*
X82591Y-68572D01*
X82305Y-68858D01*
X82020Y-69715D01*
Y-70286D01*
X82305Y-71143D01*
X82877Y-71714D01*
X83734Y-72000D01*
X84591D01*
X85448Y-71714D01*
X85733Y-71429D01*
X86019Y-70857D01*
X80392Y-71429D02*
X80677Y-71714D01*
X80392Y-72000D01*
X80106Y-71714D01*
X80392Y-71429D01*
X77078Y-66001D02*
X77935Y-66287D01*
X78506Y-67144D01*
X78792Y-68572D01*
Y-69429D01*
X78506Y-70857D01*
X77935Y-71714D01*
X77078Y-72000D01*
X76507D01*
X75650Y-71714D01*
X75078Y-70857D01*
X74793Y-69429D01*
Y-68572D01*
X75078Y-67144D01*
X75650Y-66287D01*
X76507Y-66001D01*
X77078D01*
X-38412Y-83808D02*
X-37775Y-84127D01*
X-37137Y-84764D01*
X-36819Y-85402D01*
X-36500Y-86358D01*
Y-87951D01*
X-36819Y-88907D01*
X-37137Y-89544D01*
X-37775Y-90181D01*
X-38412Y-90500D01*
X-39686D01*
X-40324Y-90181D01*
X-40961Y-89544D01*
X-41280Y-88907D01*
X-41598Y-87951D01*
Y-86358D01*
X-41280Y-85402D01*
X-40961Y-84764D01*
X-40324Y-84127D01*
X-39686Y-83808D01*
X-38412D01*
X-43160Y-86039D02*
Y-90500D01*
Y-87951D02*
X-43478Y-86995D01*
X-44115Y-86358D01*
X-44753Y-86039D01*
X-45709D01*
X-50138Y-83808D02*
Y-90500D01*
Y-86995D02*
X-49501Y-86358D01*
X-48863Y-86039D01*
X-47907D01*
X-47270Y-86358D01*
X-46633Y-86995D01*
X-46314Y-87951D01*
Y-88588D01*
X-46633Y-89544D01*
X-47270Y-90181D01*
X-47907Y-90500D01*
X-48863D01*
X-49501Y-90181D01*
X-50138Y-89544D01*
X-51922Y-87951D02*
X-55746D01*
Y-87314D01*
X-55427Y-86676D01*
X-55109Y-86358D01*
X-54471Y-86039D01*
X-53515D01*
X-52878Y-86358D01*
X-52241Y-86995D01*
X-51922Y-87951D01*
Y-88588D01*
X-52241Y-89544D01*
X-52878Y-90181D01*
X-53515Y-90500D01*
X-54471D01*
X-55109Y-90181D01*
X-55746Y-89544D01*
X-57180Y-86039D02*
Y-90500D01*
Y-87951D02*
X-57499Y-86995D01*
X-58136Y-86358D01*
X-58773Y-86039D01*
X-59729D01*
X-65592Y-83808D02*
Y-90500D01*
X-66994Y-83808D02*
Y-90500D01*
Y-83808D02*
X-69225D01*
X-70180Y-84127D01*
X-70818Y-84764D01*
X-71136Y-85402D01*
X-71455Y-86358D01*
Y-87951D01*
X-71136Y-88907D01*
X-70818Y-89544D01*
X-70180Y-90181D01*
X-69225Y-90500D01*
X-66994D01*
X-73271Y-86039D02*
X-72953Y-86358D01*
X-73271Y-86676D01*
X-73590Y-86358D01*
X-73271Y-86039D01*
Y-89863D02*
X-72953Y-90181D01*
X-73271Y-90500D01*
X-73590Y-90181D01*
X-73271Y-89863D01*
X8843Y122071D02*
X9128Y122642D01*
X9700Y123214D01*
X10271Y123499D01*
X11413D01*
X11985Y123214D01*
X12556Y122642D01*
X12842Y122071D01*
X13127Y121214D01*
Y119786D01*
X12842Y118929D01*
X12556Y118358D01*
X11985Y117786D01*
X11413Y117501D01*
X10271D01*
X9700Y117786D01*
X9128Y118358D01*
X8843Y118929D01*
X4301Y123499D02*
X7157Y119500D01*
X2873D01*
X4301Y123499D02*
Y117501D01*
X8700Y133571D02*
X8986Y134142D01*
X9557Y134714D01*
X10128Y134999D01*
X11271D01*
X11842Y134714D01*
X12413Y134142D01*
X12699Y133571D01*
X12985Y132714D01*
Y131286D01*
X12699Y130429D01*
X12413Y129858D01*
X11842Y129286D01*
X11271Y129001D01*
X10128D01*
X9557Y129286D01*
X8986Y129858D01*
X8700Y130429D01*
X6443Y134999D02*
X3301D01*
X5015Y132714D01*
X4158D01*
X3587Y132429D01*
X3301Y132143D01*
X3015Y131286D01*
Y130715D01*
X3301Y129858D01*
X3872Y129286D01*
X4729Y129001D01*
X5586D01*
X6443Y129286D01*
X6729Y129572D01*
X7015Y130143D01*
X8700Y145071D02*
X8986Y145642D01*
X9557Y146214D01*
X10128Y146499D01*
X11271D01*
X11842Y146214D01*
X12413Y145642D01*
X12699Y145071D01*
X12985Y144214D01*
Y142786D01*
X12699Y141929D01*
X12413Y141358D01*
X11842Y140786D01*
X11271Y140501D01*
X10128D01*
X9557Y140786D01*
X8986Y141358D01*
X8700Y141929D01*
X6729Y145071D02*
Y145357D01*
X6443Y145928D01*
X6157Y146214D01*
X5586Y146499D01*
X4444D01*
X3872Y146214D01*
X3587Y145928D01*
X3301Y145357D01*
Y144785D01*
X3587Y144214D01*
X4158Y143357D01*
X7015Y140501D01*
X3015D01*
X29914Y-95429D02*
X30200Y-94858D01*
X30771Y-94286D01*
X31343Y-94001D01*
X32485D01*
X33057Y-94286D01*
X33628Y-94858D01*
X33914Y-95429D01*
X34199Y-96286D01*
Y-97714D01*
X33914Y-98571D01*
X33628Y-99142D01*
X33057Y-99714D01*
X32485Y-99999D01*
X31343D01*
X30771Y-99714D01*
X30200Y-99142D01*
X29914Y-98571D01*
X28229Y-95143D02*
X27658Y-94858D01*
X26801Y-94001D01*
Y-99999D01*
X-161615Y127499D02*
Y121501D01*
Y127499D02*
X-163615D01*
X-164471Y127214D01*
X-165043Y126642D01*
X-165329Y126071D01*
X-165614Y125214D01*
Y123786D01*
X-165329Y122929D01*
X-165043Y122358D01*
X-164471Y121786D01*
X-163615Y121501D01*
X-161615D01*
X-166957Y126357D02*
X-167528Y126642D01*
X-168385Y127499D01*
Y121501D01*
X17828Y-61501D02*
Y-65785D01*
X17542Y-66642D01*
X16971Y-67214D01*
X16114Y-67499D01*
X15542D01*
X14685Y-67214D01*
X14114Y-66642D01*
X13828Y-65785D01*
Y-61501D01*
X11600D02*
X8458D01*
X10172Y-63786D01*
X9315D01*
X8744Y-64072D01*
X8458Y-64357D01*
X8173Y-65214D01*
Y-65785D01*
X8458Y-66642D01*
X9029Y-67214D01*
X9886Y-67499D01*
X10743D01*
X11600Y-67214D01*
X11886Y-66928D01*
X12172Y-66357D01*
X-81773Y30499D02*
Y24501D01*
Y30499D02*
X-84344D01*
X-85201Y30214D01*
X-85486Y29928D01*
X-85772Y29357D01*
Y28785D01*
X-85486Y28214D01*
X-85201Y27929D01*
X-84344Y27643D01*
X-81773D01*
X-83772D02*
X-85772Y24501D01*
X-87115Y29357D02*
X-87686Y29642D01*
X-88543Y30499D01*
Y24501D01*
X-94942Y29642D02*
X-94656Y30214D01*
X-93799Y30499D01*
X-93228D01*
X-92371Y30214D01*
X-91799Y29357D01*
X-91514Y27929D01*
Y26500D01*
X-91799Y25358D01*
X-92371Y24786D01*
X-93228Y24501D01*
X-93513D01*
X-94370Y24786D01*
X-94942Y25358D01*
X-95227Y26215D01*
Y26500D01*
X-94942Y27357D01*
X-94370Y27929D01*
X-93513Y28214D01*
X-93228D01*
X-92371Y27929D01*
X-91799Y27357D01*
X-91514Y26500D01*
X-188499Y-43487D02*
X-182501D01*
X-188499D02*
Y-46058D01*
X-188214Y-46915D01*
X-187928Y-47201D01*
X-187357Y-47486D01*
X-186785D01*
X-186214Y-47201D01*
X-185928Y-46915D01*
X-185643Y-46058D01*
Y-43487D01*
Y-45487D02*
X-182501Y-47486D01*
X-187357Y-48829D02*
X-187642Y-49400D01*
X-188499Y-50257D01*
X-182501D01*
X-188499Y-56656D02*
Y-53799D01*
X-185928Y-53514D01*
X-186214Y-53799D01*
X-186500Y-54656D01*
Y-55513D01*
X-186214Y-56370D01*
X-185643Y-56941D01*
X-184786Y-57227D01*
X-184215D01*
X-183358Y-56941D01*
X-182786Y-56370D01*
X-182501Y-55513D01*
Y-54656D01*
X-182786Y-53799D01*
X-183072Y-53514D01*
X-183643Y-53228D01*
X-177999Y-43487D02*
X-172001D01*
X-177999D02*
Y-46058D01*
X-177714Y-46915D01*
X-177428Y-47201D01*
X-176857Y-47486D01*
X-176285D01*
X-175714Y-47201D01*
X-175428Y-46915D01*
X-175143Y-46058D01*
Y-43487D01*
Y-45487D02*
X-172001Y-47486D01*
X-176857Y-48829D02*
X-177142Y-49400D01*
X-177999Y-50257D01*
X-172001D01*
X-177999Y-56085D02*
X-174000Y-53228D01*
Y-57513D01*
X-177999Y-56085D02*
X-172001D01*
X-108130Y101999D02*
Y96001D01*
Y101999D02*
X-110701D01*
X-111558Y101714D01*
X-111844Y101428D01*
X-112129Y100857D01*
Y100285D01*
X-111844Y99714D01*
X-111558Y99428D01*
X-110701Y99143D01*
X-108130D01*
X-110130D02*
X-112129Y96001D01*
X-113472Y100857D02*
X-114043Y101142D01*
X-114900Y101999D01*
Y96001D01*
X-118442Y101999D02*
X-121584D01*
X-119870Y99714D01*
X-120727D01*
X-121299Y99428D01*
X-121584Y99143D01*
X-121870Y98286D01*
Y97715D01*
X-121584Y96858D01*
X-121013Y96286D01*
X-120156Y96001D01*
X-119299D01*
X-118442Y96286D01*
X-118157Y96572D01*
X-117871Y97143D01*
X-81630Y40999D02*
Y35001D01*
Y40999D02*
X-84201D01*
X-85058Y40714D01*
X-85343Y40428D01*
X-85629Y39857D01*
Y39285D01*
X-85343Y38714D01*
X-85058Y38429D01*
X-84201Y38143D01*
X-81630D01*
X-83630D02*
X-85629Y35001D01*
X-86972Y39857D02*
X-87543Y40142D01*
X-88400Y40999D01*
Y35001D01*
X-91657Y39571D02*
Y39857D01*
X-91942Y40428D01*
X-92228Y40714D01*
X-92799Y40999D01*
X-93942D01*
X-94513Y40714D01*
X-94799Y40428D01*
X-95084Y39857D01*
Y39285D01*
X-94799Y38714D01*
X-94227Y37857D01*
X-91371Y35001D01*
X-95370D01*
X-103416Y60999D02*
Y55001D01*
Y60999D02*
X-105986D01*
X-106843Y60714D01*
X-107129Y60428D01*
X-107415Y59857D01*
Y59285D01*
X-107129Y58714D01*
X-106843Y58429D01*
X-105986Y58143D01*
X-103416D01*
X-105415D02*
X-107415Y55001D01*
X-108757Y59857D02*
X-109328Y60142D01*
X-110186Y60999D01*
Y55001D01*
X-113156Y59857D02*
X-113728Y60142D01*
X-114585Y60999D01*
Y55001D01*
X-81630Y51499D02*
Y45501D01*
Y51499D02*
X-84201D01*
X-85058Y51214D01*
X-85343Y50928D01*
X-85629Y50357D01*
Y49785D01*
X-85343Y49214D01*
X-85058Y48928D01*
X-84201Y48643D01*
X-81630D01*
X-83630D02*
X-85629Y45501D01*
X-86972Y50357D02*
X-87543Y50642D01*
X-88400Y51499D01*
Y45501D01*
X-93085Y51499D02*
X-92228Y51214D01*
X-91657Y50357D01*
X-91371Y48928D01*
Y48072D01*
X-91657Y46643D01*
X-92228Y45786D01*
X-93085Y45501D01*
X-93656D01*
X-94513Y45786D01*
X-95084Y46643D01*
X-95370Y48072D01*
Y48928D01*
X-95084Y50357D01*
X-94513Y51214D01*
X-93656Y51499D01*
X-93085D01*
X-85830Y70499D02*
Y64501D01*
Y70499D02*
X-88401D01*
X-89257Y70214D01*
X-89543Y69928D01*
X-89829Y69357D01*
Y68786D01*
X-89543Y68214D01*
X-89257Y67928D01*
X-88401Y67643D01*
X-85830D01*
X-87829D02*
X-89829Y64501D01*
X-92600Y70499D02*
X-91743Y70214D01*
X-91457Y69642D01*
Y69071D01*
X-91743Y68500D01*
X-92314Y68214D01*
X-93457Y67928D01*
X-94314Y67643D01*
X-94885Y67071D01*
X-95170Y66500D01*
Y65643D01*
X-94885Y65072D01*
X-94599Y64786D01*
X-93742Y64501D01*
X-92600D01*
X-91743Y64786D01*
X-91457Y65072D01*
X-91171Y65643D01*
Y66500D01*
X-91457Y67071D01*
X-92028Y67643D01*
X-92885Y67928D01*
X-94028Y68214D01*
X-94599Y68500D01*
X-94885Y69071D01*
Y69642D01*
X-94599Y70214D01*
X-93742Y70499D01*
X-92600D01*
X-85830Y80999D02*
Y75001D01*
Y80999D02*
X-88401D01*
X-89257Y80714D01*
X-89543Y80428D01*
X-89829Y79857D01*
Y79286D01*
X-89543Y78714D01*
X-89257Y78429D01*
X-88401Y78143D01*
X-85830D01*
X-87829D02*
X-89829Y75001D01*
X-95170Y80999D02*
X-92314Y75001D01*
X-91171Y80999D02*
X-95170D01*
X-85830Y91499D02*
Y85501D01*
Y91499D02*
X-88401D01*
X-89257Y91214D01*
X-89543Y90928D01*
X-89829Y90357D01*
Y89785D01*
X-89543Y89214D01*
X-89257Y88929D01*
X-88401Y88643D01*
X-85830D01*
X-87829D02*
X-89829Y85501D01*
X-94599Y91499D02*
X-91743D01*
X-91457Y88929D01*
X-91743Y89214D01*
X-92600Y89500D01*
X-93457D01*
X-94314Y89214D01*
X-94885Y88643D01*
X-95170Y87786D01*
Y87215D01*
X-94885Y86358D01*
X-94314Y85786D01*
X-93457Y85501D01*
X-92600D01*
X-91743Y85786D01*
X-91457Y86072D01*
X-91171Y86643D01*
X32499Y-138028D02*
X26501D01*
X32499D02*
Y-135457D01*
X32214Y-134600D01*
X31928Y-134314D01*
X31357Y-134028D01*
X30785D01*
X30214Y-134314D01*
X29928Y-134600D01*
X29643Y-135457D01*
Y-138028D01*
Y-136028D02*
X26501Y-134028D01*
X30500Y-128972D02*
X29643Y-129258D01*
X29072Y-129829D01*
X28786Y-130686D01*
Y-130972D01*
X29072Y-131829D01*
X29643Y-132400D01*
X30500Y-132686D01*
X30785D01*
X31642Y-132400D01*
X32214Y-131829D01*
X32499Y-130972D01*
Y-130686D01*
X32214Y-129829D01*
X31642Y-129258D01*
X30500Y-128972D01*
X29072D01*
X27643Y-129258D01*
X26786Y-129829D01*
X26501Y-130686D01*
Y-131258D01*
X26786Y-132115D01*
X27358Y-132400D01*
X43499Y-138028D02*
X37501D01*
X43499D02*
Y-135457D01*
X43214Y-134600D01*
X42928Y-134314D01*
X42357Y-134028D01*
X41785D01*
X41214Y-134314D01*
X40929Y-134600D01*
X40643Y-135457D01*
Y-138028D01*
Y-136028D02*
X37501Y-134028D01*
X42642Y-129258D02*
X43214Y-129544D01*
X43499Y-130401D01*
Y-130972D01*
X43214Y-131829D01*
X42357Y-132400D01*
X40929Y-132686D01*
X39500D01*
X38358Y-132400D01*
X37786Y-131829D01*
X37501Y-130972D01*
Y-130686D01*
X37786Y-129829D01*
X38358Y-129258D01*
X39215Y-128972D01*
X39500D01*
X40357Y-129258D01*
X40929Y-129829D01*
X41214Y-130686D01*
Y-130972D01*
X40929Y-131829D01*
X40357Y-132400D01*
X39500Y-132686D01*
D12*
X196851Y-196851D02*
Y196850D01*
X-196850Y196851D02*
X196851D01*
X-196850Y-196852D02*
X196851D01*
X-196850D02*
Y196849D01*
D14*
X33051Y-83130D02*
Y-77224D01*
X26949Y-83130D02*
Y-77224D01*
X26000Y-68677D02*
X34000D01*
X26000Y-91677D02*
X34000D01*
X26000D02*
Y-85927D01*
Y-74427D02*
Y-68677D01*
X34000Y-91677D02*
Y-85927D01*
Y-74427D02*
Y-68677D01*
X24047Y146551D02*
X29953D01*
X24047Y140449D02*
X29953D01*
X15500Y139500D02*
Y147500D01*
X38500Y139500D02*
Y147500D01*
X32750Y139500D02*
X38500D01*
X15500D02*
X21250D01*
X32750Y147500D02*
X38500D01*
X15500D02*
X21250D01*
X24047Y135051D02*
X29953D01*
X24047Y128949D02*
X29953D01*
X15500Y128000D02*
Y136000D01*
X38500Y128000D02*
Y136000D01*
X32750Y128000D02*
X38500D01*
X15500D02*
X21250D01*
X32750Y136000D02*
X38500D01*
X15500D02*
X21250D01*
X24047Y123551D02*
X29953D01*
X24047Y117449D02*
X29953D01*
X15500Y116500D02*
Y124500D01*
X38500Y116500D02*
Y124500D01*
X32750Y116500D02*
X38500D01*
X15500D02*
X21250D01*
X32750Y124500D02*
X38500D01*
X15500D02*
X21250D01*
X32551Y-155453D02*
Y-149547D01*
X26449Y-155453D02*
Y-149547D01*
X25500Y-141000D02*
X33500D01*
X25500Y-164000D02*
X33500D01*
X25500D02*
Y-158250D01*
Y-146750D02*
Y-141000D01*
X33500Y-164000D02*
Y-158250D01*
Y-146750D02*
Y-141000D01*
X43551Y-155453D02*
Y-149547D01*
X37449Y-155453D02*
Y-149547D01*
X36500Y-141000D02*
X44500D01*
X36500Y-164000D02*
X44500D01*
X36500D02*
Y-158250D01*
Y-146750D02*
Y-141000D01*
X44500Y-164000D02*
Y-158250D01*
Y-146750D02*
Y-141000D01*
X-96776Y102051D02*
X-90870D01*
X-96776Y95949D02*
X-90870D01*
X-105323Y95000D02*
Y103000D01*
X-82323Y95000D02*
Y103000D01*
X-88073Y95000D02*
X-82323D01*
X-105323D02*
X-99573D01*
X-88073Y103000D02*
X-82323D01*
X-105323D02*
X-99573D01*
X-112453Y24449D02*
X-106547D01*
X-112453Y30551D02*
X-106547D01*
X-98000Y23500D02*
Y31500D01*
X-121000Y23500D02*
Y31500D01*
X-115250D01*
X-103750D02*
X-98000D01*
X-121000Y23500D02*
X-115250D01*
X-103750D02*
X-98000D01*
X-112453Y34949D02*
X-106547D01*
X-112453Y41051D02*
X-106547D01*
X-98000Y34000D02*
Y42000D01*
X-121000Y34000D02*
Y42000D01*
X-115250D01*
X-103750D02*
X-98000D01*
X-121000Y34000D02*
X-115250D01*
X-103750D02*
X-98000D01*
X-112453Y45449D02*
X-106547D01*
X-112453Y51551D02*
X-106547D01*
X-98000Y44500D02*
Y52500D01*
X-121000Y44500D02*
Y52500D01*
X-115250D01*
X-103750D02*
X-98000D01*
X-121000Y44500D02*
X-115250D01*
X-103750D02*
X-98000D01*
X-112453Y85449D02*
X-106547D01*
X-112453Y91551D02*
X-106547D01*
X-98000Y84500D02*
Y92500D01*
X-121000Y84500D02*
Y92500D01*
X-115250D01*
X-103750D02*
X-98000D01*
X-121000Y84500D02*
X-115250D01*
X-103750D02*
X-98000D01*
X-91953Y61051D02*
X-86047D01*
X-91953Y54949D02*
X-86047D01*
X-100500Y54000D02*
Y62000D01*
X-77500Y54000D02*
Y62000D01*
X-83250Y54000D02*
X-77500D01*
X-100500D02*
X-94750D01*
X-83250Y62000D02*
X-77500D01*
X-100500D02*
X-94750D01*
X-112453Y64449D02*
X-106547D01*
X-112453Y70551D02*
X-106547D01*
X-98000Y63500D02*
Y71500D01*
X-121000Y63500D02*
Y71500D01*
X-115250D01*
X-103750D02*
X-98000D01*
X-121000Y63500D02*
X-115250D01*
X-103750D02*
X-98000D01*
X-112453Y74949D02*
X-106547D01*
X-112453Y81051D02*
X-106547D01*
X-98000Y74000D02*
Y82000D01*
X-121000Y74000D02*
Y82000D01*
X-115250D01*
X-103750D02*
X-98000D01*
X-121000Y74000D02*
X-115250D01*
X-103750D02*
X-98000D01*
X-189051Y-32276D02*
Y-26370D01*
X-182949Y-32276D02*
Y-26370D01*
X-190000Y-40823D02*
X-182000D01*
X-190000Y-17823D02*
X-182000D01*
Y-23573D02*
Y-17823D01*
Y-40823D02*
Y-35073D01*
X-190000Y-23573D02*
Y-17823D01*
Y-40823D02*
Y-35073D01*
X-178051Y-32453D02*
Y-26547D01*
X-171949Y-32453D02*
Y-26547D01*
X-179000Y-41000D02*
X-171000D01*
X-179000Y-18000D02*
X-171000D01*
Y-23750D02*
Y-18000D01*
Y-41000D02*
Y-35250D01*
X-179000Y-23750D02*
Y-18000D01*
Y-41000D02*
Y-35250D01*
D64*
X-12299Y-58346D02*
X-13037Y-57920D01*
Y-58773D01*
X-12299Y-58346D01*
D73*
X-168754Y118553D02*
X-147002D01*
Y103590D02*
Y118553D01*
X-168754Y103590D02*
Y118553D01*
Y103590D02*
X-147002D01*
D74*
X-166489Y111080D02*
D03*
M02*
