G04*
G04 #@! TF.GenerationSoftware,Altium Limited,Altium Designer,21.6.4 (81)*
G04*
G04 Layer_Physical_Order=2*
G04 Layer_Color=16711680*
%FSLAX25Y25*%
%MOIN*%
G70*
G04*
G04 #@! TF.SameCoordinates,CA042318-3998-41E2-BA40-933A6302EA5A*
G04*
G04*
G04 #@! TF.FilePolarity,Positive*
G04*
G01*
G75*
%ADD12C,0.01181*%
%ADD42R,0.06496X0.06890*%
%ADD43R,0.06890X0.06496*%
%ADD45C,0.02362*%
%ADD46C,0.03937*%
%ADD47R,0.11000X0.11000*%
%ADD48C,0.06496*%
%ADD49R,0.06496X0.06496*%
%ADD50O,0.09843X0.07087*%
%ADD51R,0.09843X0.07087*%
%ADD52O,0.09055X0.07087*%
%ADD53R,0.09055X0.07087*%
%ADD54O,0.07087X0.09055*%
%ADD55R,0.07087X0.09843*%
%ADD56O,0.07087X0.09843*%
%ADD57O,0.07087X0.09449*%
%ADD58R,0.07087X0.09449*%
%ADD59O,0.08661X0.07087*%
%ADD60R,0.08661X0.07087*%
%ADD61R,0.07559X0.07559*%
%ADD62C,0.07559*%
%ADD63C,0.05000*%
%ADD64C,0.00984*%
%ADD65R,0.04134X0.11811*%
%ADD66O,0.11811X0.02362*%
%ADD67R,0.11811X0.02362*%
%ADD68C,0.07874*%
%ADD69R,0.18500X0.12500*%
G36*
X195832Y97593D02*
X194650Y97358D01*
X194593Y97497D01*
X194117Y98117D01*
X191617Y100617D01*
X190997Y101093D01*
X190275Y101392D01*
X189500Y101494D01*
X167000D01*
X166225Y101392D01*
X165503Y101093D01*
X164883Y100617D01*
X144937Y80671D01*
X142153D01*
X141800Y81131D01*
X140789Y81907D01*
X140473Y82038D01*
Y83316D01*
X140789Y83447D01*
X141800Y84224D01*
X142576Y85235D01*
X143064Y86413D01*
X143231Y87677D01*
X143064Y88941D01*
X142576Y90119D01*
X141800Y91131D01*
X140789Y91907D01*
X140473Y92038D01*
Y93316D01*
X140789Y93447D01*
X141800Y94223D01*
X142576Y95235D01*
X143064Y96413D01*
X143231Y97677D01*
X143064Y98941D01*
X142576Y100119D01*
X141800Y101131D01*
X140789Y101907D01*
X140318Y102102D01*
Y103380D01*
X140729Y103550D01*
X141716Y104308D01*
X142473Y105295D01*
X142949Y106444D01*
X142982Y106693D01*
X137362D01*
X131742D01*
X131775Y106444D01*
X132251Y105295D01*
X133009Y104308D01*
X133995Y103550D01*
X134406Y103380D01*
Y102102D01*
X133936Y101907D01*
X132924Y101131D01*
X132148Y100119D01*
X131660Y98941D01*
X131494Y97677D01*
X131660Y96413D01*
X132148Y95235D01*
X132924Y94223D01*
X133936Y93447D01*
X134252Y93316D01*
Y92038D01*
X133936Y91907D01*
X132924Y91131D01*
X132148Y90119D01*
X131660Y88941D01*
X131494Y87677D01*
X131660Y86413D01*
X132148Y85235D01*
X132924Y84224D01*
X133936Y83447D01*
X134252Y83316D01*
Y82038D01*
X133936Y81907D01*
X132924Y81131D01*
X132148Y80119D01*
X131660Y78941D01*
X131494Y77677D01*
X131660Y76413D01*
X132148Y75235D01*
X132924Y74224D01*
X133936Y73447D01*
X134252Y73316D01*
Y72038D01*
X133936Y71907D01*
X132924Y71131D01*
X132148Y70119D01*
X131660Y68941D01*
X131494Y67677D01*
X131660Y66413D01*
X132148Y65235D01*
X132924Y64223D01*
X133936Y63447D01*
X134406Y63253D01*
Y61974D01*
X133995Y61804D01*
X133009Y61047D01*
X132251Y60060D01*
X131775Y58911D01*
X131742Y58661D01*
X137362D01*
X142982D01*
X142949Y58911D01*
X142473Y60060D01*
X141716Y61047D01*
X140729Y61804D01*
X140318Y61974D01*
Y63253D01*
X140789Y63447D01*
X141800Y64223D01*
X142576Y65235D01*
X143064Y66413D01*
X143231Y67677D01*
X143064Y68941D01*
X142576Y70119D01*
X141800Y71131D01*
X140789Y71907D01*
X140473Y72038D01*
Y73316D01*
X140789Y73447D01*
X141800Y74224D01*
X142153Y74683D01*
X146177D01*
X146952Y74785D01*
X147674Y75084D01*
X148294Y75560D01*
X168240Y95506D01*
X187309D01*
X187363Y95406D01*
X186654Y94224D01*
X182984D01*
Y89500D01*
X182000D01*
Y88516D01*
X175898D01*
Y84776D01*
X177682D01*
X177926Y84264D01*
X178003Y83595D01*
X177168Y82954D01*
X176392Y81942D01*
X176302Y81724D01*
X163500D01*
X163500Y81724D01*
X162649Y81555D01*
X161927Y81072D01*
X161927Y81072D01*
X147427Y66572D01*
X146946Y65851D01*
X146776Y65000D01*
X146776Y65000D01*
Y53421D01*
X143743Y50388D01*
X143469Y50325D01*
X142309Y50467D01*
X141800Y51131D01*
X140789Y51907D01*
X140318Y52102D01*
Y53380D01*
X140729Y53550D01*
X141716Y54308D01*
X142473Y55295D01*
X142949Y56444D01*
X142982Y56693D01*
X137362D01*
X131742D01*
X131775Y56444D01*
X132251Y55295D01*
X133009Y54308D01*
X133995Y53550D01*
X134406Y53380D01*
Y52102D01*
X133936Y51907D01*
X132924Y51131D01*
X132148Y50119D01*
X131660Y48941D01*
X131494Y47677D01*
X131660Y46413D01*
X132148Y45235D01*
X132924Y44223D01*
X133936Y43447D01*
X134252Y43316D01*
Y42038D01*
X133936Y41907D01*
X132924Y41131D01*
X132148Y40119D01*
X131660Y38941D01*
X131494Y37677D01*
X131660Y36413D01*
X132148Y35235D01*
X132924Y34223D01*
X133936Y33447D01*
X134252Y33316D01*
Y32038D01*
X133936Y31907D01*
X132924Y31131D01*
X132148Y30119D01*
X131660Y28941D01*
X131494Y27677D01*
X131660Y26413D01*
X132148Y25235D01*
X132924Y24223D01*
X133936Y23447D01*
X134252Y23316D01*
Y22038D01*
X133936Y21907D01*
X132924Y21131D01*
X132148Y20119D01*
X131660Y18941D01*
X131494Y17677D01*
X131660Y16413D01*
X132148Y15235D01*
X132924Y14223D01*
X133936Y13447D01*
X134406Y13252D01*
Y11974D01*
X133995Y11804D01*
X133009Y11047D01*
X132251Y10060D01*
X131775Y8911D01*
X131742Y8661D01*
X137362D01*
X142982D01*
X142949Y8911D01*
X142473Y10060D01*
X141716Y11047D01*
X140729Y11804D01*
X140318Y11974D01*
Y13252D01*
X140789Y13447D01*
X141800Y14223D01*
X142576Y15235D01*
X142667Y15453D01*
X150677D01*
X150677Y15453D01*
X151528Y15623D01*
X152250Y16105D01*
X163073Y26928D01*
X163073Y26928D01*
X163555Y27649D01*
X163724Y28500D01*
Y45079D01*
X165921Y47276D01*
X176302D01*
X176392Y47058D01*
X177168Y46046D01*
X178180Y45270D01*
X179358Y44782D01*
X180622Y44616D01*
X183378D01*
X184642Y44782D01*
X185820Y45270D01*
X186832Y46046D01*
X187608Y47058D01*
X187825Y47581D01*
X189006Y47346D01*
Y43240D01*
X187666Y41900D01*
X187149Y41761D01*
X186351Y41301D01*
X185699Y40649D01*
X185239Y39851D01*
X185000Y38961D01*
Y38039D01*
X185239Y37149D01*
X185699Y36351D01*
X186351Y35699D01*
X187149Y35239D01*
X188039Y35000D01*
X188961D01*
X189851Y35239D01*
X190649Y35699D01*
X191301Y36351D01*
X191762Y37149D01*
X191900Y37666D01*
X194117Y39883D01*
X194593Y40503D01*
X194650Y40642D01*
X195832Y40407D01*
X195832Y-112907D01*
X194650Y-113142D01*
X194593Y-113003D01*
X194117Y-112383D01*
X187617Y-105883D01*
X186997Y-105407D01*
X186275Y-105108D01*
X185500Y-105006D01*
X177228D01*
X176875Y-104546D01*
X175863Y-103770D01*
X175548Y-103639D01*
Y-102361D01*
X175863Y-102230D01*
X176875Y-101454D01*
X177651Y-100442D01*
X178139Y-99264D01*
X178306Y-98000D01*
X178139Y-96736D01*
X177651Y-95558D01*
X176875Y-94546D01*
X175863Y-93770D01*
X174685Y-93282D01*
X174267Y-93227D01*
Y-88043D01*
X174267Y-88043D01*
X174098Y-87192D01*
X173616Y-86471D01*
X173616Y-86471D01*
X158724Y-71579D01*
Y-36000D01*
X158724Y-36000D01*
X158554Y-35149D01*
X158072Y-34427D01*
X158072Y-34427D01*
X145572Y-21927D01*
X144851Y-21445D01*
X144000Y-21276D01*
X144000Y-21276D01*
X54421D01*
X46573Y-13428D01*
X45851Y-12946D01*
X45000Y-12776D01*
X45000Y-12776D01*
X32739D01*
X32415Y-12109D01*
X32291Y-11595D01*
X32699Y-10984D01*
X25791D01*
X18884D01*
X19364Y-11703D01*
X19709Y-11934D01*
X19747Y-13241D01*
X19737Y-13265D01*
X19494Y-13428D01*
X19012Y-14149D01*
X18843Y-15000D01*
X19012Y-15851D01*
X19494Y-16572D01*
X19900Y-16844D01*
X19960Y-17052D01*
Y-17947D01*
X19900Y-18156D01*
X19494Y-18428D01*
X19012Y-19149D01*
X18843Y-20000D01*
X19012Y-20851D01*
X19494Y-21573D01*
X19900Y-21844D01*
X19960Y-22052D01*
Y-22948D01*
X19900Y-23156D01*
X19494Y-23427D01*
X19012Y-24149D01*
X18843Y-25000D01*
X19012Y-25851D01*
X19494Y-26572D01*
X19900Y-26844D01*
X19960Y-27052D01*
Y-27948D01*
X19900Y-28156D01*
X19494Y-28427D01*
X19012Y-29149D01*
X18843Y-30000D01*
X19012Y-30851D01*
X19494Y-31572D01*
X19900Y-31844D01*
X19960Y-32052D01*
Y-32947D01*
X19900Y-33156D01*
X19494Y-33428D01*
X19012Y-34149D01*
X18843Y-35000D01*
X19012Y-35851D01*
X19494Y-36573D01*
X19900Y-36844D01*
X19960Y-37053D01*
Y-37947D01*
X19900Y-38156D01*
X19494Y-38427D01*
X19012Y-39149D01*
X18843Y-40000D01*
X19012Y-40851D01*
X19494Y-41572D01*
X19900Y-41844D01*
X19960Y-42053D01*
Y-42948D01*
X19900Y-43156D01*
X19494Y-43428D01*
X19012Y-44149D01*
X18843Y-45000D01*
X19012Y-45851D01*
X19494Y-46573D01*
X19900Y-46844D01*
X19960Y-47052D01*
Y-47948D01*
X19900Y-48156D01*
X19494Y-48428D01*
X19012Y-49149D01*
X18843Y-50000D01*
X19012Y-50851D01*
X19494Y-51573D01*
X19900Y-51844D01*
X19960Y-52052D01*
Y-52948D01*
X19900Y-53156D01*
X19494Y-53427D01*
X19012Y-54149D01*
X18843Y-55000D01*
X19012Y-55851D01*
X19494Y-56573D01*
X20216Y-57055D01*
X21067Y-57224D01*
X22797D01*
Y-72500D01*
Y-76468D01*
X20859Y-78407D01*
X19520D01*
Y-75000D01*
X19442Y-74610D01*
X19221Y-74279D01*
X18890Y-74058D01*
X18500Y-73980D01*
X11480D01*
Y28500D01*
X11310Y29789D01*
X10813Y30990D01*
X10021Y32021D01*
X6980Y35063D01*
Y42006D01*
X14780D01*
Y40157D01*
X27220D01*
Y49843D01*
X25552D01*
X25150Y51024D01*
X25832Y51546D01*
X26184Y52006D01*
X36760D01*
X46006Y42760D01*
Y3000D01*
X46108Y2225D01*
X46407Y1503D01*
X46883Y883D01*
X52206Y-4440D01*
X52826Y-4916D01*
X53548Y-5215D01*
X54323Y-5317D01*
X62572D01*
X62924Y-5777D01*
X63936Y-6553D01*
X64252Y-6684D01*
Y-7962D01*
X63936Y-8093D01*
X62924Y-8869D01*
X62148Y-9881D01*
X61660Y-11059D01*
X61494Y-12323D01*
X61660Y-13587D01*
X62148Y-14765D01*
X62924Y-15777D01*
X63936Y-16553D01*
X65114Y-17041D01*
X66378Y-17207D01*
X68347D01*
X69611Y-17041D01*
X70789Y-16553D01*
X71800Y-15777D01*
X72576Y-14765D01*
X73064Y-13587D01*
X73231Y-12323D01*
X73064Y-11059D01*
X72576Y-9881D01*
X71800Y-8869D01*
X70789Y-8093D01*
X70473Y-7962D01*
Y-6684D01*
X70789Y-6553D01*
X71800Y-5777D01*
X72576Y-4765D01*
X73064Y-3587D01*
X73231Y-2323D01*
X73064Y-1059D01*
X72576Y119D01*
X71800Y1131D01*
X70789Y1907D01*
X70318Y2102D01*
Y3380D01*
X70729Y3550D01*
X71716Y4308D01*
X72473Y5295D01*
X72949Y6444D01*
X72982Y6693D01*
X67362D01*
X61742D01*
X61775Y6444D01*
X62251Y5295D01*
X63008Y4308D01*
X63995Y3550D01*
X64406Y3380D01*
Y2102D01*
X63936Y1907D01*
X62924Y1131D01*
X62572Y671D01*
X55563D01*
X51994Y4240D01*
Y44000D01*
X51892Y44775D01*
X51593Y45497D01*
X51117Y46117D01*
X40117Y57117D01*
X39497Y57593D01*
X38775Y57892D01*
X38000Y57994D01*
X26184D01*
X25832Y58454D01*
X24820Y59230D01*
X24350Y59425D01*
Y60703D01*
X24760Y60873D01*
X25747Y61630D01*
X26505Y62617D01*
X26981Y63767D01*
X27013Y64016D01*
X21000D01*
X14986D01*
X15019Y63767D01*
X15495Y62617D01*
X16253Y61630D01*
X17240Y60873D01*
X17650Y60703D01*
Y59425D01*
X17180Y59230D01*
X16168Y58454D01*
X15392Y57442D01*
X14904Y56264D01*
X14738Y55000D01*
X14904Y53736D01*
X15392Y52558D01*
X16168Y51546D01*
X16849Y51024D01*
X16448Y49843D01*
X14780D01*
Y47994D01*
X6980D01*
Y77937D01*
X17521Y88479D01*
X17521Y88479D01*
X18313Y89510D01*
X18810Y90711D01*
X18980Y92000D01*
Y116055D01*
X23571D01*
Y124945D01*
X18980D01*
Y127555D01*
X23571D01*
Y136445D01*
X18980D01*
Y139055D01*
X23571D01*
Y147945D01*
X18980D01*
Y164000D01*
X18980Y164000D01*
X18810Y165289D01*
X18313Y166490D01*
X17521Y167521D01*
X17521Y167521D01*
X12127Y172916D01*
X12262Y173149D01*
X12500Y174039D01*
Y174961D01*
X12262Y175851D01*
X11801Y176649D01*
X11149Y177301D01*
X10351Y177761D01*
X9461Y178000D01*
X8539D01*
X7649Y177761D01*
X7416Y177627D01*
X4021Y181021D01*
X2990Y181813D01*
X1821Y182297D01*
X1761Y182520D01*
X1429Y183095D01*
X1693Y183846D01*
X2013Y184276D01*
X14079D01*
X52250Y146105D01*
X52250Y146105D01*
X52972Y145623D01*
X53823Y145453D01*
X62058D01*
X62148Y145235D01*
X62924Y144223D01*
X63936Y143447D01*
X64252Y143316D01*
Y142038D01*
X63936Y141907D01*
X62924Y141131D01*
X62148Y140119D01*
X61660Y138941D01*
X61494Y137677D01*
X61660Y136413D01*
X62148Y135235D01*
X62924Y134223D01*
X63936Y133447D01*
X64252Y133316D01*
Y132038D01*
X63936Y131907D01*
X62924Y131131D01*
X62148Y130119D01*
X61660Y128941D01*
X61494Y127677D01*
X61660Y126413D01*
X62148Y125235D01*
X62924Y124223D01*
X63936Y123447D01*
X64252Y123316D01*
Y122038D01*
X63936Y121907D01*
X62924Y121131D01*
X62148Y120119D01*
X61660Y118941D01*
X61494Y117677D01*
X61660Y116413D01*
X62148Y115235D01*
X62924Y114224D01*
X63936Y113447D01*
X64406Y113252D01*
Y111974D01*
X63995Y111804D01*
X63008Y111047D01*
X62251Y110060D01*
X61775Y108911D01*
X61742Y108661D01*
X67362D01*
X72982D01*
X72949Y108911D01*
X72473Y110060D01*
X71716Y111047D01*
X70729Y111804D01*
X70318Y111974D01*
Y113252D01*
X70789Y113447D01*
X71800Y114224D01*
X72576Y115235D01*
X73064Y116413D01*
X73231Y117677D01*
X73064Y118941D01*
X72576Y120119D01*
X71800Y121131D01*
X70789Y121907D01*
X70473Y122038D01*
Y123316D01*
X70789Y123447D01*
X71800Y124223D01*
X72576Y125235D01*
X73064Y126413D01*
X73231Y127677D01*
X73064Y128941D01*
X72576Y130119D01*
X71800Y131131D01*
X70789Y131907D01*
X70473Y132038D01*
Y133316D01*
X70789Y133447D01*
X71800Y134223D01*
X72576Y135235D01*
X73064Y136413D01*
X73231Y137677D01*
X73064Y138941D01*
X72576Y140119D01*
X71800Y141131D01*
X70789Y141907D01*
X70473Y142038D01*
Y143316D01*
X70789Y143447D01*
X71800Y144223D01*
X72576Y145235D01*
X73064Y146413D01*
X73231Y147677D01*
X73064Y148941D01*
X72576Y150119D01*
X71800Y151131D01*
X70789Y151907D01*
X70318Y152102D01*
Y153380D01*
X70729Y153550D01*
X71716Y154308D01*
X72473Y155295D01*
X72949Y156444D01*
X72982Y156693D01*
X67362D01*
X61742D01*
X61775Y156444D01*
X62251Y155295D01*
X63008Y154308D01*
X63995Y153550D01*
X64406Y153380D01*
Y152102D01*
X63936Y151907D01*
X62924Y151131D01*
X62148Y150119D01*
X62058Y149901D01*
X54744D01*
X16572Y188073D01*
X15851Y188555D01*
X15000Y188724D01*
X15000Y188724D01*
X-16774D01*
X-17351Y189301D01*
X-18149Y189761D01*
X-19039Y190000D01*
X-19961D01*
X-20851Y189761D01*
X-21649Y189301D01*
X-22301Y188649D01*
X-22761Y187851D01*
X-23000Y186961D01*
Y186039D01*
X-22761Y185149D01*
X-22301Y184351D01*
X-21649Y183699D01*
X-21548Y183641D01*
X-21539Y183426D01*
X-21825Y182437D01*
X-22541Y182343D01*
X-27130D01*
Y172658D01*
X-25183D01*
X-24979Y172249D01*
X-24866Y171476D01*
X-25657Y170870D01*
X-26414Y169883D01*
X-26890Y168733D01*
X-26923Y168484D01*
X-21500D01*
X-16077D01*
X-16110Y168733D01*
X-16586Y169883D01*
X-17343Y170870D01*
X-17955Y171339D01*
X-17554Y172520D01*
X-1563D01*
X2729Y168229D01*
X3012Y168012D01*
X3229Y167729D01*
X9020Y161937D01*
Y143500D01*
Y132000D01*
Y120500D01*
Y94063D01*
X-1521Y83521D01*
X-2313Y82490D01*
X-2810Y81289D01*
X-2825Y81176D01*
X-4006Y81253D01*
Y86260D01*
X1904Y92170D01*
X2380Y92790D01*
X2679Y93512D01*
X2781Y94287D01*
Y145473D01*
X3049Y145936D01*
X3287Y146827D01*
Y147748D01*
X3049Y148638D01*
X2588Y149436D01*
X1936Y150088D01*
X1138Y150549D01*
X248Y150787D01*
X-673D01*
X-1564Y150549D01*
X-2362Y150088D01*
X-2825Y149625D01*
X-3602Y149801D01*
X-4006Y150050D01*
Y152000D01*
X-4108Y152775D01*
X-4407Y153497D01*
X-4883Y154117D01*
X-10383Y159617D01*
X-11003Y160093D01*
X-11725Y160392D01*
X-12500Y160494D01*
X-16906D01*
X-17259Y160954D01*
X-18270Y161730D01*
X-18741Y161925D01*
Y163203D01*
X-18330Y163373D01*
X-17343Y164130D01*
X-16586Y165117D01*
X-16110Y166267D01*
X-16077Y166516D01*
X-21500D01*
X-26923D01*
X-26890Y166267D01*
X-26414Y165117D01*
X-25657Y164130D01*
X-24670Y163373D01*
X-24259Y163203D01*
Y161925D01*
X-24730Y161730D01*
X-25741Y160954D01*
X-26517Y159942D01*
X-27005Y158764D01*
X-27172Y157500D01*
X-27005Y156236D01*
X-26517Y155058D01*
X-25741Y154046D01*
X-24730Y153270D01*
X-24414Y153139D01*
Y151861D01*
X-24730Y151730D01*
X-25741Y150954D01*
X-26517Y149942D01*
X-27005Y148764D01*
X-27172Y147500D01*
X-27005Y146236D01*
X-26517Y145058D01*
X-25741Y144046D01*
X-24730Y143270D01*
X-24414Y143139D01*
Y141861D01*
X-24730Y141730D01*
X-25741Y140954D01*
X-26517Y139942D01*
X-27005Y138764D01*
X-27172Y137500D01*
X-27005Y136236D01*
X-26517Y135058D01*
X-25741Y134046D01*
X-24730Y133270D01*
X-24414Y133139D01*
Y131861D01*
X-24730Y131730D01*
X-25741Y130954D01*
X-26517Y129942D01*
X-27005Y128764D01*
X-27172Y127500D01*
X-27005Y126236D01*
X-26517Y125058D01*
X-25741Y124046D01*
X-24730Y123270D01*
X-24414Y123139D01*
Y121861D01*
X-24730Y121730D01*
X-25741Y120954D01*
X-26517Y119942D01*
X-27005Y118764D01*
X-27172Y117500D01*
X-27005Y116236D01*
X-26517Y115058D01*
X-25741Y114046D01*
X-24730Y113270D01*
X-24414Y113139D01*
Y111861D01*
X-24730Y111730D01*
X-25741Y110954D01*
X-26517Y109942D01*
X-27005Y108764D01*
X-27172Y107500D01*
X-27062Y106663D01*
X-28180Y106111D01*
X-30776Y108707D01*
Y184500D01*
X-30776Y184500D01*
X-30945Y185351D01*
X-31427Y186073D01*
X-31427Y186073D01*
X-35500Y190145D01*
Y190961D01*
X-35739Y191851D01*
X-36199Y192649D01*
X-36851Y193301D01*
X-37649Y193762D01*
X-38539Y194000D01*
X-39461D01*
X-40351Y193762D01*
X-41149Y193301D01*
X-41801Y192649D01*
X-42261Y191851D01*
X-42500Y190961D01*
Y190039D01*
X-42261Y189149D01*
X-41801Y188351D01*
X-41149Y187699D01*
X-40351Y187239D01*
X-39461Y187000D01*
X-38645D01*
X-35224Y183579D01*
Y107786D01*
X-35224Y107786D01*
X-35055Y106935D01*
X-34572Y106214D01*
X-26000Y97641D01*
Y97539D01*
X-25762Y96649D01*
X-25301Y95851D01*
X-24649Y95199D01*
X-23851Y94739D01*
X-22961Y94500D01*
X-22039D01*
X-21149Y94739D01*
X-20351Y95199D01*
X-19699Y95851D01*
X-19239Y96649D01*
X-19000Y97539D01*
Y98461D01*
X-19239Y99351D01*
X-19699Y100149D01*
X-20351Y100801D01*
X-21149Y101261D01*
X-21795Y101435D01*
X-21640Y102616D01*
X-20713D01*
X-19448Y102782D01*
X-18270Y103270D01*
X-17259Y104046D01*
X-16483Y105058D01*
X-15995Y106236D01*
X-15828Y107500D01*
X-15995Y108764D01*
X-16483Y109942D01*
X-17259Y110954D01*
X-18270Y111730D01*
X-18586Y111861D01*
Y113139D01*
X-18270Y113270D01*
X-17259Y114046D01*
X-16483Y115058D01*
X-15995Y116236D01*
X-15828Y117500D01*
X-15995Y118764D01*
X-16483Y119942D01*
X-17259Y120954D01*
X-18270Y121730D01*
X-18586Y121861D01*
Y123139D01*
X-18270Y123270D01*
X-17259Y124046D01*
X-16483Y125058D01*
X-15995Y126236D01*
X-15828Y127500D01*
X-15995Y128764D01*
X-16483Y129942D01*
X-17259Y130954D01*
X-18270Y131730D01*
X-18586Y131861D01*
Y133139D01*
X-18270Y133270D01*
X-17259Y134046D01*
X-16483Y135058D01*
X-15995Y136236D01*
X-15828Y137500D01*
X-15995Y138764D01*
X-16483Y139942D01*
X-17259Y140954D01*
X-18270Y141730D01*
X-18586Y141861D01*
Y143139D01*
X-18270Y143270D01*
X-17259Y144046D01*
X-16483Y145058D01*
X-15995Y146236D01*
X-15828Y147500D01*
X-15995Y148764D01*
X-16483Y149942D01*
X-17259Y150954D01*
X-18270Y151730D01*
X-18586Y151861D01*
Y153139D01*
X-18270Y153270D01*
X-17259Y154046D01*
X-16906Y154506D01*
X-13740D01*
X-9994Y150760D01*
Y98240D01*
X-15117Y93117D01*
X-15593Y92497D01*
X-15892Y91775D01*
X-15994Y91000D01*
Y39240D01*
X-21670Y33565D01*
X-22788Y34116D01*
X-22738Y34500D01*
X-22904Y35764D01*
X-23392Y36942D01*
X-24168Y37954D01*
X-25180Y38730D01*
X-25496Y38861D01*
Y40139D01*
X-25180Y40270D01*
X-24168Y41046D01*
X-23392Y42058D01*
X-22904Y43236D01*
X-22738Y44500D01*
X-22904Y45764D01*
X-23392Y46942D01*
X-24168Y47954D01*
X-25180Y48730D01*
X-25496Y48861D01*
Y50139D01*
X-25180Y50270D01*
X-24168Y51046D01*
X-23392Y52058D01*
X-22904Y53236D01*
X-22738Y54500D01*
X-22904Y55764D01*
X-23392Y56942D01*
X-24168Y57954D01*
X-25180Y58730D01*
X-25496Y58861D01*
Y60139D01*
X-25180Y60270D01*
X-24168Y61046D01*
X-23392Y62058D01*
X-22904Y63236D01*
X-22738Y64500D01*
X-22904Y65764D01*
X-23392Y66942D01*
X-24168Y67954D01*
X-25003Y68594D01*
X-24926Y69264D01*
X-24682Y69776D01*
X-22898D01*
Y73516D01*
X-29000D01*
X-35102D01*
Y73459D01*
X-36173Y72896D01*
X-36283Y72929D01*
X-36699Y73649D01*
X-37351Y74301D01*
X-38149Y74761D01*
X-39039Y75000D01*
X-39961D01*
X-40851Y74761D01*
X-41649Y74301D01*
X-42183Y73767D01*
X-46622D01*
X-52105Y79250D01*
X-52826Y79732D01*
X-53677Y79901D01*
X-53677Y79901D01*
X-62058D01*
X-62148Y80119D01*
X-62924Y81131D01*
X-63936Y81907D01*
X-64252Y82038D01*
Y83316D01*
X-63936Y83447D01*
X-62924Y84224D01*
X-62148Y85235D01*
X-62058Y85453D01*
X-54728D01*
X-52703Y83428D01*
X-51981Y82946D01*
X-51130Y82776D01*
X-51130Y82776D01*
X-31726D01*
X-31149Y82199D01*
X-30351Y81739D01*
X-29461Y81500D01*
X-28539D01*
X-27649Y81739D01*
X-26851Y82199D01*
X-26199Y82851D01*
X-25738Y83649D01*
X-25500Y84539D01*
Y85461D01*
X-25738Y86351D01*
X-26199Y87149D01*
X-26851Y87801D01*
X-27649Y88261D01*
X-28539Y88500D01*
X-29461D01*
X-30351Y88261D01*
X-31149Y87801D01*
X-31726Y87224D01*
X-50209D01*
X-52235Y89250D01*
X-52956Y89732D01*
X-53807Y89901D01*
X-53807Y89901D01*
X-62058D01*
X-62148Y90119D01*
X-62924Y91131D01*
X-63936Y91907D01*
X-64252Y92038D01*
Y93316D01*
X-63936Y93447D01*
X-62924Y94223D01*
X-62148Y95235D01*
X-61660Y96413D01*
X-61494Y97677D01*
X-61660Y98941D01*
X-62148Y100119D01*
X-62924Y101131D01*
X-63936Y101907D01*
X-64406Y102102D01*
Y103380D01*
X-63995Y103550D01*
X-63008Y104308D01*
X-62251Y105295D01*
X-61775Y106444D01*
X-61742Y106693D01*
X-67362D01*
X-72982D01*
X-72949Y106444D01*
X-72473Y105295D01*
X-71716Y104308D01*
X-70729Y103550D01*
X-70318Y103380D01*
Y102102D01*
X-70789Y101907D01*
X-71614Y101274D01*
X-81898D01*
Y103445D01*
X-90394D01*
Y98789D01*
X-91117Y98066D01*
X-91593Y97446D01*
X-91892Y96724D01*
X-91994Y95949D01*
Y63446D01*
X-92429Y62445D01*
X-94507D01*
X-95388Y62810D01*
X-96677Y62980D01*
X-96843D01*
Y67500D01*
Y78000D01*
Y88500D01*
Y98677D01*
X-97013Y99966D01*
X-97252Y100543D01*
Y103445D01*
X-98506D01*
Y138760D01*
X-82665Y154600D01*
X-82149Y154738D01*
X-81351Y155199D01*
X-80699Y155851D01*
X-80238Y156649D01*
X-80000Y157539D01*
Y158461D01*
X-80238Y159351D01*
X-80699Y160149D01*
X-81351Y160801D01*
X-82149Y161261D01*
X-83039Y161500D01*
X-83961D01*
X-84851Y161261D01*
X-85649Y160801D01*
X-86301Y160149D01*
X-86761Y159351D01*
X-86900Y158835D01*
X-103617Y142117D01*
X-104093Y141497D01*
X-104392Y140775D01*
X-104494Y140000D01*
Y103445D01*
X-105748D01*
Y101672D01*
X-106135Y101167D01*
X-106633Y99966D01*
X-106802Y98677D01*
Y88500D01*
Y78000D01*
Y67500D01*
Y58000D01*
Y48500D01*
Y38000D01*
Y27500D01*
X-106633Y26211D01*
X-106135Y25010D01*
X-106071Y24926D01*
Y23055D01*
X-103993D01*
X-103112Y22690D01*
X-101823Y22520D01*
X-100534Y22690D01*
X-99653Y23055D01*
X-97575D01*
Y24926D01*
X-97510Y25010D01*
X-97013Y26211D01*
X-96843Y27500D01*
Y38000D01*
Y48500D01*
Y53020D01*
X-96677D01*
X-95388Y53190D01*
X-94507Y53555D01*
X-92429D01*
X-91994Y52554D01*
Y10240D01*
X-109834Y-7600D01*
X-110351Y-7739D01*
X-111149Y-8199D01*
X-111801Y-8851D01*
X-112261Y-9649D01*
X-112500Y-10539D01*
Y-11461D01*
X-112261Y-12351D01*
X-111801Y-13149D01*
X-111149Y-13801D01*
X-110351Y-14262D01*
X-109461Y-14500D01*
X-108539D01*
X-107649Y-14262D01*
X-106851Y-13801D01*
X-106199Y-13149D01*
X-105738Y-12351D01*
X-105600Y-11834D01*
X-86883Y6883D01*
X-86407Y7503D01*
X-86283Y7802D01*
X-86108Y8225D01*
X-86006Y9000D01*
Y52554D01*
X-85950Y52683D01*
X-84546Y52949D01*
X-84317Y52720D01*
Y5917D01*
X-98834Y-8600D01*
X-99351Y-8738D01*
X-100149Y-9199D01*
X-100801Y-9851D01*
X-101261Y-10649D01*
X-101500Y-11539D01*
Y-12461D01*
X-101261Y-13351D01*
X-100801Y-14149D01*
X-100149Y-14801D01*
X-99351Y-15261D01*
X-98461Y-15500D01*
X-97539D01*
X-96649Y-15261D01*
X-95851Y-14801D01*
X-95199Y-14149D01*
X-94739Y-13351D01*
X-94600Y-12834D01*
X-79206Y2560D01*
X-78730Y3180D01*
X-78431Y3902D01*
X-78329Y4677D01*
Y53555D01*
X-77075D01*
Y62445D01*
X-78329D01*
Y63937D01*
X-77583Y64683D01*
X-72153D01*
X-71800Y64223D01*
X-70789Y63447D01*
X-70318Y63253D01*
Y61974D01*
X-70729Y61804D01*
X-71716Y61047D01*
X-72473Y60060D01*
X-72949Y58911D01*
X-72982Y58661D01*
X-67362D01*
X-61742D01*
X-61775Y58911D01*
X-62251Y60060D01*
X-63008Y61047D01*
X-63995Y61804D01*
X-64406Y61974D01*
Y63253D01*
X-63936Y63447D01*
X-62924Y64223D01*
X-62148Y65235D01*
X-61660Y66413D01*
X-61494Y67677D01*
X-61660Y68941D01*
X-62148Y70119D01*
X-62924Y71131D01*
X-63936Y71907D01*
X-64252Y72038D01*
Y73316D01*
X-63936Y73447D01*
X-62924Y74224D01*
X-62148Y75235D01*
X-62058Y75453D01*
X-54598D01*
X-49116Y69971D01*
X-49116Y69971D01*
X-48394Y69489D01*
X-47543Y69319D01*
X-47543Y69319D01*
X-42269D01*
X-41649Y68699D01*
X-40851Y68239D01*
X-40491Y68142D01*
X-40377Y67899D01*
X-40293Y66866D01*
X-40617Y66617D01*
X-56563Y50671D01*
X-62572D01*
X-62924Y51131D01*
X-63936Y51907D01*
X-64406Y52102D01*
Y53380D01*
X-63995Y53550D01*
X-63008Y54308D01*
X-62251Y55295D01*
X-61775Y56444D01*
X-61742Y56693D01*
X-67362D01*
X-72982D01*
X-72949Y56444D01*
X-72473Y55295D01*
X-71716Y54308D01*
X-70729Y53550D01*
X-70318Y53380D01*
Y52102D01*
X-70789Y51907D01*
X-71800Y51131D01*
X-72576Y50119D01*
X-73064Y48941D01*
X-73231Y47677D01*
X-73064Y46413D01*
X-72576Y45235D01*
X-71800Y44223D01*
X-70789Y43447D01*
X-70473Y43316D01*
Y42038D01*
X-70789Y41907D01*
X-71800Y41131D01*
X-72576Y40119D01*
X-73064Y38941D01*
X-73231Y37677D01*
X-73064Y36413D01*
X-72576Y35235D01*
X-71800Y34223D01*
X-70789Y33447D01*
X-70473Y33316D01*
Y32038D01*
X-70789Y31907D01*
X-71800Y31131D01*
X-72576Y30119D01*
X-73064Y28941D01*
X-73231Y27677D01*
X-73064Y26413D01*
X-72576Y25235D01*
X-71800Y24223D01*
X-70789Y23447D01*
X-70473Y23316D01*
Y22038D01*
X-70789Y21907D01*
X-71800Y21131D01*
X-72576Y20119D01*
X-73064Y18941D01*
X-73231Y17677D01*
X-73064Y16413D01*
X-72576Y15235D01*
X-71800Y14223D01*
X-70789Y13447D01*
X-70318Y13252D01*
Y11974D01*
X-70729Y11804D01*
X-71716Y11047D01*
X-72473Y10060D01*
X-72949Y8911D01*
X-72982Y8661D01*
X-67362D01*
X-61742D01*
X-61775Y8911D01*
X-62251Y10060D01*
X-63008Y11047D01*
X-63995Y11804D01*
X-64406Y11974D01*
Y13252D01*
X-63936Y13447D01*
X-62924Y14223D01*
X-62572Y14683D01*
X-55823D01*
X-55048Y14785D01*
X-54326Y15084D01*
X-53706Y15560D01*
X-37760Y31506D01*
X-34184D01*
X-33832Y31046D01*
X-32820Y30270D01*
X-31642Y29782D01*
X-30378Y29616D01*
X-27622D01*
X-27239Y29666D01*
X-26687Y28547D01*
X-30240Y24994D01*
X-34500D01*
X-35275Y24892D01*
X-35997Y24593D01*
X-36617Y24117D01*
X-60063Y671D01*
X-62572D01*
X-62924Y1131D01*
X-63936Y1907D01*
X-64406Y2102D01*
Y3380D01*
X-63995Y3550D01*
X-63008Y4308D01*
X-62251Y5295D01*
X-61775Y6444D01*
X-61742Y6693D01*
X-67362D01*
X-72982D01*
X-72949Y6444D01*
X-72473Y5295D01*
X-71716Y4308D01*
X-70729Y3550D01*
X-70318Y3380D01*
Y2102D01*
X-70789Y1907D01*
X-71800Y1131D01*
X-72576Y119D01*
X-73064Y-1059D01*
X-73231Y-2323D01*
X-73064Y-3587D01*
X-72576Y-4765D01*
X-71800Y-5777D01*
X-70789Y-6553D01*
X-70473Y-6684D01*
Y-7962D01*
X-70789Y-8093D01*
X-71800Y-8869D01*
X-72576Y-9881D01*
X-73064Y-11059D01*
X-73231Y-12323D01*
X-73064Y-13587D01*
X-72576Y-14765D01*
X-71800Y-15777D01*
X-70789Y-16553D01*
X-69611Y-17041D01*
X-69198Y-17095D01*
X-69275Y-18276D01*
X-135449D01*
X-135527Y-17095D01*
X-135114Y-17041D01*
X-133936Y-16553D01*
X-132924Y-15777D01*
X-132148Y-14765D01*
X-131660Y-13587D01*
X-131494Y-12323D01*
X-131660Y-11059D01*
X-132148Y-9881D01*
X-132924Y-8869D01*
X-133936Y-8093D01*
X-134252Y-7962D01*
Y-6684D01*
X-133936Y-6553D01*
X-132924Y-5777D01*
X-132148Y-4765D01*
X-131660Y-3587D01*
X-131494Y-2323D01*
X-131660Y-1059D01*
X-132148Y119D01*
X-132924Y1131D01*
X-133936Y1907D01*
X-134406Y2102D01*
Y3380D01*
X-133995Y3550D01*
X-133009Y4308D01*
X-132251Y5295D01*
X-131775Y6444D01*
X-131742Y6693D01*
X-137362D01*
X-142982D01*
X-142949Y6444D01*
X-142473Y5295D01*
X-141716Y4308D01*
X-140729Y3550D01*
X-140318Y3380D01*
Y2102D01*
X-140789Y1907D01*
X-141800Y1131D01*
X-142576Y119D01*
X-143064Y-1059D01*
X-143231Y-2323D01*
X-143064Y-3587D01*
X-142576Y-4765D01*
X-141800Y-5777D01*
X-140789Y-6553D01*
X-140473Y-6684D01*
Y-7962D01*
X-140789Y-8093D01*
X-141800Y-8869D01*
X-142576Y-9881D01*
X-143064Y-11059D01*
X-143231Y-12323D01*
X-143064Y-13587D01*
X-142576Y-14765D01*
X-141800Y-15777D01*
X-140789Y-16553D01*
X-139611Y-17041D01*
X-139198Y-17095D01*
X-139275Y-18276D01*
X-145079D01*
X-149276Y-14079D01*
Y-10726D01*
X-148699Y-10149D01*
X-148239Y-9351D01*
X-148000Y-8461D01*
Y-7539D01*
X-148239Y-6649D01*
X-148699Y-5851D01*
X-149351Y-5199D01*
X-150149Y-4738D01*
X-151039Y-4500D01*
X-151961D01*
X-152851Y-4738D01*
X-153649Y-5199D01*
X-154301Y-5851D01*
X-154762Y-6649D01*
X-155000Y-7539D01*
Y-8461D01*
X-154762Y-9351D01*
X-154301Y-10149D01*
X-153724Y-10726D01*
Y-15000D01*
X-153724Y-15000D01*
X-153554Y-15851D01*
X-153073Y-16572D01*
X-147573Y-22072D01*
X-147573Y-22072D01*
X-146851Y-22555D01*
X-146000Y-22724D01*
X-146000Y-22724D01*
X-100039D01*
X-99550Y-23905D01*
X-133572Y-57928D01*
X-134055Y-58649D01*
X-134224Y-59500D01*
X-134224Y-59500D01*
Y-62097D01*
X-134442Y-62187D01*
X-135454Y-62964D01*
X-136230Y-63975D01*
X-136361Y-64291D01*
X-137639D01*
X-137770Y-63975D01*
X-138546Y-62964D01*
X-139558Y-62187D01*
X-140736Y-61699D01*
X-142000Y-61533D01*
X-143264Y-61699D01*
X-144442Y-62187D01*
X-145454Y-62964D01*
X-146230Y-63975D01*
X-146425Y-64445D01*
X-147703D01*
X-147873Y-64035D01*
X-148630Y-63048D01*
X-149617Y-62291D01*
X-150767Y-61814D01*
X-151016Y-61782D01*
Y-67402D01*
Y-73021D01*
X-150767Y-72989D01*
X-149617Y-72513D01*
X-148630Y-71755D01*
X-147873Y-70768D01*
X-147703Y-70358D01*
X-146425D01*
X-146230Y-70828D01*
X-145454Y-71839D01*
X-144994Y-72192D01*
Y-78006D01*
X-177260D01*
X-183006Y-72260D01*
Y-41980D01*
X-176307D01*
X-176289Y-41987D01*
X-175000Y-42157D01*
X-173711Y-41987D01*
X-172510Y-41490D01*
X-172426Y-41425D01*
X-170555D01*
Y-39347D01*
X-170190Y-38466D01*
X-170020Y-37177D01*
X-170190Y-35888D01*
X-170555Y-35007D01*
Y-32929D01*
X-172372D01*
X-172687Y-32688D01*
X-173888Y-32190D01*
X-175177Y-32020D01*
X-175177Y-32020D01*
X-186000D01*
X-187289Y-32190D01*
X-188490Y-32688D01*
X-188574Y-32752D01*
X-190445D01*
Y-34830D01*
X-190810Y-35711D01*
X-190980Y-37000D01*
X-190810Y-38289D01*
X-190445Y-39170D01*
Y-41248D01*
X-188994D01*
Y-73500D01*
X-188892Y-74275D01*
X-188593Y-74997D01*
X-188117Y-75617D01*
X-180617Y-83117D01*
X-179997Y-83593D01*
X-179698Y-83717D01*
X-179275Y-83892D01*
X-178500Y-83994D01*
X-1020D01*
Y-87500D01*
X-942Y-87890D01*
X-721Y-88221D01*
X-390Y-88442D01*
X0Y-88520D01*
X7241D01*
Y-152500D01*
Y-163006D01*
X-7500D01*
X-8275Y-163108D01*
X-8997Y-163407D01*
X-9617Y-163883D01*
X-19906Y-174171D01*
X-35780D01*
Y-172323D01*
X-37727D01*
X-37930Y-171914D01*
X-38043Y-171142D01*
X-37253Y-170535D01*
X-36495Y-169548D01*
X-36019Y-168399D01*
X-35987Y-168150D01*
X-42000D01*
X-48013D01*
X-47981Y-168399D01*
X-47505Y-169548D01*
X-46747Y-170535D01*
X-45957Y-171142D01*
X-46070Y-171914D01*
X-46273Y-172323D01*
X-48221D01*
Y-182008D01*
X-35780D01*
Y-180159D01*
X-18665D01*
X-17890Y-180057D01*
X-17168Y-179758D01*
X-16548Y-179282D01*
X-6260Y-168994D01*
X7241D01*
Y-176500D01*
X7411Y-177789D01*
X7908Y-178990D01*
X8699Y-180021D01*
X9716Y-180801D01*
Y-183710D01*
X9818Y-184485D01*
X10117Y-185207D01*
X10593Y-185827D01*
X16883Y-192117D01*
X17503Y-192593D01*
X18225Y-192892D01*
X19000Y-192994D01*
X185000D01*
X185775Y-192892D01*
X186497Y-192593D01*
X187117Y-192117D01*
X194117Y-185117D01*
X194593Y-184497D01*
X194650Y-184358D01*
X195832Y-184593D01*
Y-195832D01*
X-195830D01*
Y195829D01*
X91023D01*
X91424Y194648D01*
X91383Y194617D01*
X78554Y181788D01*
X73189D01*
Y182520D01*
X61535D01*
Y172835D01*
X63204D01*
X63605Y171654D01*
X62924Y171131D01*
X62148Y170119D01*
X61660Y168941D01*
X61494Y167677D01*
X61660Y166413D01*
X62148Y165235D01*
X62924Y164224D01*
X63936Y163447D01*
X64406Y163252D01*
Y161974D01*
X63995Y161804D01*
X63008Y161047D01*
X62251Y160060D01*
X61775Y158911D01*
X61742Y158661D01*
X67362D01*
X72982D01*
X72949Y158911D01*
X72473Y160060D01*
X71716Y161047D01*
X70729Y161804D01*
X70318Y161974D01*
Y163252D01*
X70789Y163447D01*
X71800Y164224D01*
X72576Y165235D01*
X72597Y165286D01*
X78780D01*
X79555Y165388D01*
X80277Y165687D01*
X80897Y166163D01*
X97740Y183006D01*
X133502D01*
X133826Y182185D01*
X133828Y181825D01*
X132924Y181131D01*
X132148Y180119D01*
X131660Y178941D01*
X131494Y177677D01*
X131660Y176413D01*
X132148Y175235D01*
X132924Y174223D01*
X133936Y173447D01*
X134252Y173316D01*
Y172038D01*
X133936Y171907D01*
X132924Y171131D01*
X132148Y170119D01*
X131660Y168941D01*
X131494Y167677D01*
X131660Y166413D01*
X132148Y165235D01*
X132924Y164224D01*
X133936Y163447D01*
X134406Y163252D01*
Y161974D01*
X133995Y161804D01*
X133009Y161047D01*
X132251Y160060D01*
X131775Y158911D01*
X131742Y158661D01*
X137362D01*
X142982D01*
X142949Y158911D01*
X142473Y160060D01*
X141716Y161047D01*
X140729Y161804D01*
X140318Y161974D01*
Y163252D01*
X140789Y163447D01*
X141800Y164224D01*
X142576Y165235D01*
X143064Y166413D01*
X143231Y167677D01*
X143064Y168941D01*
X142576Y170119D01*
X141800Y171131D01*
X140789Y171907D01*
X140473Y172038D01*
Y173316D01*
X140789Y173447D01*
X141800Y174223D01*
X142576Y175235D01*
X143064Y176413D01*
X143231Y177677D01*
X143064Y178941D01*
X142576Y180119D01*
X141800Y181131D01*
X140896Y181825D01*
X140898Y182185D01*
X141222Y183006D01*
X148760D01*
X152006Y179760D01*
Y135500D01*
X152108Y134725D01*
X152407Y134003D01*
X152883Y133383D01*
X163383Y122883D01*
X164003Y122407D01*
X164302Y122283D01*
X164725Y122108D01*
X165500Y122006D01*
X176316D01*
X176668Y121546D01*
X177680Y120770D01*
X178150Y120575D01*
Y119297D01*
X177740Y119127D01*
X176753Y118369D01*
X175995Y117383D01*
X175519Y116233D01*
X175486Y115984D01*
X181500D01*
X187514D01*
X187481Y116233D01*
X187005Y117383D01*
X186247Y118369D01*
X185260Y119127D01*
X184850Y119297D01*
Y120575D01*
X185320Y120770D01*
X186332Y121546D01*
X187108Y122558D01*
X187596Y123736D01*
X187762Y125000D01*
X187596Y126264D01*
X187108Y127442D01*
X186332Y128454D01*
X185320Y129230D01*
X185004Y129361D01*
Y130639D01*
X185320Y130770D01*
X186332Y131546D01*
X187108Y132558D01*
X187596Y133736D01*
X187762Y135000D01*
X187596Y136264D01*
X187108Y137442D01*
X186332Y138454D01*
X185651Y138976D01*
X186051Y140157D01*
X187721D01*
Y149843D01*
X184494D01*
Y160000D01*
X184392Y160775D01*
X184217Y161198D01*
X184093Y161497D01*
X183617Y162117D01*
X177400Y168334D01*
X177261Y168851D01*
X176801Y169649D01*
X176149Y170301D01*
X175351Y170762D01*
X174461Y171000D01*
X173539D01*
X172649Y170762D01*
X171851Y170301D01*
X171199Y169649D01*
X170738Y168851D01*
X170500Y167961D01*
Y167039D01*
X170738Y166149D01*
X171199Y165351D01*
X171851Y164699D01*
X172649Y164239D01*
X173166Y164100D01*
X178506Y158760D01*
Y149843D01*
X175279D01*
Y140157D01*
X176948D01*
X177349Y138976D01*
X176668Y138454D01*
X176316Y137994D01*
X171740D01*
X164494Y145240D01*
Y183500D01*
X164392Y184275D01*
X164217Y184698D01*
X164093Y184997D01*
X163617Y185617D01*
X154617Y194617D01*
X154576Y194648D01*
X154977Y195829D01*
X195832D01*
X195832Y97593D01*
D02*
G37*
G36*
X-2980Y34997D02*
Y33000D01*
X-2980Y33000D01*
X-2810Y31711D01*
X-2313Y30510D01*
X-1521Y29479D01*
X1520Y26437D01*
Y-73980D01*
X0D01*
X-390Y-74058D01*
X-721Y-74279D01*
X-942Y-74610D01*
X-1020Y-75000D01*
Y-78006D01*
X-54006D01*
Y-72291D01*
X-53546Y-71938D01*
X-52770Y-70926D01*
X-52639Y-70610D01*
X-51361D01*
X-51230Y-70926D01*
X-50454Y-71938D01*
X-49442Y-72714D01*
X-48264Y-73202D01*
X-47000Y-73369D01*
X-45736Y-73202D01*
X-44558Y-72714D01*
X-43546Y-71938D01*
X-42770Y-70926D01*
X-42639Y-70610D01*
X-41361D01*
X-41230Y-70926D01*
X-40454Y-71938D01*
X-39442Y-72714D01*
X-38264Y-73202D01*
X-37000Y-73369D01*
X-35736Y-73202D01*
X-34558Y-72714D01*
X-33546Y-71938D01*
X-32770Y-70926D01*
X-32282Y-69748D01*
X-32116Y-68484D01*
Y-66516D01*
X-32282Y-65252D01*
X-32770Y-64074D01*
X-33546Y-63062D01*
X-34558Y-62286D01*
X-34776Y-62195D01*
Y-58921D01*
X-28079Y-52224D01*
X-20631D01*
X-19697Y-52819D01*
X-19697Y-53405D01*
Y-57181D01*
X-15581D01*
X-14778Y-58362D01*
X-14813Y-58540D01*
X-14659Y-59314D01*
X-14221Y-59971D01*
X-13564Y-60409D01*
X-12790Y-60563D01*
X-12016Y-60409D01*
X-11359Y-59971D01*
X-10921Y-59314D01*
X-10767Y-58540D01*
X-10794Y-58405D01*
X-9971Y-57224D01*
X-5000D01*
X-5000Y-57224D01*
X-4149Y-57055D01*
X-3427Y-56573D01*
X-428Y-53572D01*
X-428Y-53572D01*
X55Y-52851D01*
X224Y-52000D01*
Y15000D01*
X224Y15000D01*
X55Y15851D01*
X-428Y16572D01*
X-428Y16572D01*
X-3500Y19645D01*
Y20461D01*
X-3739Y21351D01*
X-4199Y22149D01*
X-4851Y22801D01*
X-5649Y23261D01*
X-6539Y23500D01*
X-7461D01*
X-8351Y23261D01*
X-9149Y22801D01*
X-9801Y22149D01*
X-10261Y21351D01*
X-10500Y20461D01*
Y19539D01*
X-10261Y18649D01*
X-9801Y17851D01*
X-9149Y17199D01*
X-8351Y16738D01*
X-7461Y16500D01*
X-6645D01*
X-4224Y14079D01*
Y-51079D01*
X-5165Y-52020D01*
X-5343Y-51976D01*
X-6012Y-50851D01*
X-5843Y-50000D01*
X-6012Y-49149D01*
X-6494Y-48428D01*
X-6900Y-48156D01*
X-6960Y-47947D01*
Y-47052D01*
X-6900Y-46844D01*
X-6494Y-46573D01*
X-6012Y-45851D01*
X-5843Y-45000D01*
X-6012Y-44149D01*
X-6494Y-43428D01*
X-6900Y-43156D01*
X-6960Y-42948D01*
Y-42053D01*
X-6900Y-41844D01*
X-6494Y-41572D01*
X-6012Y-40851D01*
X-5843Y-40000D01*
X-6012Y-39149D01*
X-6494Y-38427D01*
X-6900Y-38156D01*
X-6960Y-37947D01*
Y-37053D01*
X-6900Y-36844D01*
X-6494Y-36573D01*
X-6012Y-35851D01*
X-5843Y-35000D01*
X-6012Y-34149D01*
X-6494Y-33428D01*
X-6900Y-33156D01*
X-6960Y-32947D01*
Y-32052D01*
X-6900Y-31844D01*
X-6494Y-31572D01*
X-6012Y-30851D01*
X-5843Y-30000D01*
X-6012Y-29149D01*
X-6494Y-28427D01*
X-6900Y-28156D01*
X-6960Y-27948D01*
Y-27053D01*
X-6900Y-26844D01*
X-6494Y-26572D01*
X-6012Y-25851D01*
X-5843Y-25000D01*
X-6012Y-24149D01*
X-6494Y-23427D01*
X-6900Y-23156D01*
X-6960Y-22948D01*
Y-22052D01*
X-6900Y-21844D01*
X-6494Y-21573D01*
X-6012Y-20851D01*
X-5843Y-20000D01*
X-6012Y-19149D01*
X-6494Y-18428D01*
X-6900Y-18156D01*
X-6960Y-17947D01*
Y-17052D01*
X-6900Y-16844D01*
X-6494Y-16572D01*
X-6012Y-15851D01*
X-5843Y-15000D01*
X-6012Y-14149D01*
X-6494Y-13428D01*
X-6900Y-13156D01*
X-6960Y-12947D01*
Y-12053D01*
X-6900Y-11844D01*
X-6494Y-11573D01*
X-6012Y-10851D01*
X-5843Y-10000D01*
X-6012Y-9149D01*
X-6494Y-8427D01*
X-6900Y-8156D01*
X-6960Y-7948D01*
Y-7052D01*
X-6900Y-6844D01*
X-6494Y-6572D01*
X-6012Y-5851D01*
X-5843Y-5000D01*
X-6012Y-4149D01*
X-6494Y-3427D01*
X-6737Y-3265D01*
X-6747Y-3241D01*
X-6709Y-1934D01*
X-6364Y-1703D01*
X-5884Y-984D01*
X-12791D01*
Y-0D01*
X-13776D01*
Y2409D01*
X-17516D01*
X-18437Y2225D01*
X-19219Y1703D01*
X-19741Y922D01*
X-19802Y617D01*
X-21082Y227D01*
X-23000Y2145D01*
Y2961D01*
X-23238Y3851D01*
X-23699Y4649D01*
X-24351Y5301D01*
X-25149Y5762D01*
X-26039Y6000D01*
X-26961D01*
X-27851Y5762D01*
X-28649Y5301D01*
X-29301Y4649D01*
X-29761Y3851D01*
X-30000Y2961D01*
Y2039D01*
X-29761Y1149D01*
X-29396Y516D01*
X-30341Y-209D01*
X-30351Y-199D01*
X-31149Y261D01*
X-32039Y500D01*
X-32961D01*
X-33851Y261D01*
X-34649Y-199D01*
X-35301Y-851D01*
X-35761Y-1649D01*
X-36000Y-2539D01*
Y-3461D01*
X-35761Y-4351D01*
X-35301Y-5149D01*
X-34649Y-5801D01*
X-33851Y-6261D01*
X-32961Y-6500D01*
X-32145D01*
X-27073Y-11573D01*
X-27073Y-11573D01*
X-27039Y-11595D01*
X-27397Y-12776D01*
X-30032D01*
X-32000Y-10808D01*
Y-10539D01*
X-32239Y-9649D01*
X-32699Y-8851D01*
X-33351Y-8199D01*
X-34149Y-7739D01*
X-35039Y-7500D01*
X-35961D01*
X-36851Y-7739D01*
X-37649Y-8199D01*
X-38301Y-8851D01*
X-38761Y-9649D01*
X-39000Y-10539D01*
Y-11461D01*
X-38761Y-12351D01*
X-38301Y-13149D01*
X-37649Y-13801D01*
X-36851Y-14262D01*
X-35961Y-14500D01*
X-35039D01*
X-34692Y-14407D01*
X-32526Y-16572D01*
X-32526Y-16572D01*
X-32492Y-16595D01*
X-32851Y-17776D01*
X-37579D01*
X-39500Y-15855D01*
Y-15039D01*
X-39739Y-14149D01*
X-40199Y-13351D01*
X-40851Y-12699D01*
X-41649Y-12239D01*
X-42539Y-12000D01*
X-43461D01*
X-44351Y-12239D01*
X-45149Y-12699D01*
X-45801Y-13351D01*
X-46262Y-14149D01*
X-46500Y-15039D01*
Y-15961D01*
X-46262Y-16851D01*
X-45801Y-17649D01*
X-45149Y-18301D01*
X-44351Y-18762D01*
X-43461Y-19000D01*
X-42645D01*
X-40073Y-21573D01*
X-40073Y-21573D01*
X-40039Y-21595D01*
X-40397Y-22776D01*
X-57461D01*
X-57950Y-21595D01*
X-28579Y7776D01*
X-14573D01*
X-13996Y7199D01*
X-13198Y6739D01*
X-12308Y6500D01*
X-11386D01*
X-10496Y6739D01*
X-9698Y7199D01*
X-9046Y7851D01*
X-8585Y8649D01*
X-8347Y9539D01*
Y10461D01*
X-8585Y11351D01*
X-9046Y12149D01*
X-9698Y12801D01*
X-10496Y13262D01*
X-11386Y13500D01*
X-12308D01*
X-13198Y13262D01*
X-13996Y12801D01*
X-14573Y12224D01*
X-25273D01*
X-25508Y13405D01*
X-25503Y13407D01*
X-24883Y13883D01*
X-20862Y17903D01*
X-19681Y17414D01*
Y17015D01*
X-19430Y16079D01*
X-18946Y15240D01*
X-18260Y14554D01*
X-17421Y14070D01*
X-16984Y13953D01*
Y17500D01*
X-16000D01*
Y18484D01*
X-12453D01*
X-12570Y18921D01*
X-13054Y19760D01*
X-13740Y20446D01*
X-14579Y20930D01*
X-15515Y21181D01*
X-15914D01*
X-16404Y22362D01*
X-4883Y33883D01*
X-4407Y34503D01*
X-4283Y34802D01*
X-4108Y35225D01*
X-2980Y34997D01*
D02*
G37*
G36*
X-64539Y-33405D02*
X-64573Y-33428D01*
X-64573Y-33428D01*
X-88573Y-57428D01*
X-89055Y-58149D01*
X-89224Y-59000D01*
X-89224Y-59000D01*
Y-62195D01*
X-89442Y-62286D01*
X-90454Y-63062D01*
X-91230Y-64074D01*
X-91718Y-65252D01*
X-91884Y-66516D01*
Y-68484D01*
X-91718Y-69748D01*
X-91230Y-70926D01*
X-90454Y-71938D01*
X-89442Y-72714D01*
X-88264Y-73202D01*
X-87000Y-73369D01*
X-85736Y-73202D01*
X-84558Y-72714D01*
X-83546Y-71938D01*
X-82770Y-70926D01*
X-82639Y-70610D01*
X-81361D01*
X-81230Y-70926D01*
X-80454Y-71938D01*
X-79442Y-72714D01*
X-78264Y-73202D01*
X-77000Y-73369D01*
X-75736Y-73202D01*
X-74558Y-72714D01*
X-73546Y-71938D01*
X-72770Y-70926D01*
X-72575Y-70456D01*
X-71297D01*
X-71127Y-70867D01*
X-70369Y-71854D01*
X-69383Y-72611D01*
X-68233Y-73087D01*
X-67984Y-73120D01*
Y-67500D01*
Y-61880D01*
X-68233Y-61913D01*
X-69383Y-62389D01*
X-70369Y-63146D01*
X-71127Y-64133D01*
X-71297Y-64544D01*
X-72575D01*
X-72770Y-64074D01*
X-73546Y-63062D01*
X-74558Y-62286D01*
X-74776Y-62195D01*
Y-60421D01*
X-56579Y-42224D01*
X-36397D01*
X-36039Y-43405D01*
X-36072Y-43428D01*
X-36072Y-43428D01*
X-48572Y-55927D01*
X-49055Y-56649D01*
X-49224Y-57500D01*
X-49224Y-57500D01*
Y-62195D01*
X-49442Y-62286D01*
X-50454Y-63062D01*
X-51230Y-64074D01*
X-51361Y-64389D01*
X-52639D01*
X-52770Y-64074D01*
X-53546Y-63062D01*
X-54558Y-62286D01*
X-55736Y-61798D01*
X-57000Y-61631D01*
X-58264Y-61798D01*
X-59442Y-62286D01*
X-60454Y-63062D01*
X-61230Y-64074D01*
X-61425Y-64544D01*
X-62703D01*
X-62873Y-64133D01*
X-63630Y-63146D01*
X-64617Y-62389D01*
X-65767Y-61913D01*
X-66016Y-61880D01*
Y-67500D01*
Y-73120D01*
X-65767Y-73087D01*
X-64617Y-72611D01*
X-63630Y-71854D01*
X-62873Y-70867D01*
X-62703Y-70456D01*
X-61425D01*
X-61230Y-70926D01*
X-60454Y-71938D01*
X-59994Y-72291D01*
Y-78006D01*
X-139006D01*
Y-72192D01*
X-138546Y-71839D01*
X-137770Y-70828D01*
X-137639Y-70512D01*
X-136361D01*
X-136230Y-70828D01*
X-135454Y-71839D01*
X-134442Y-72616D01*
X-133264Y-73104D01*
X-132000Y-73270D01*
X-130736Y-73104D01*
X-129558Y-72616D01*
X-128546Y-71839D01*
X-127770Y-70828D01*
X-127639Y-70512D01*
X-126361D01*
X-126230Y-70828D01*
X-125454Y-71839D01*
X-124442Y-72616D01*
X-123264Y-73104D01*
X-122000Y-73270D01*
X-120736Y-73104D01*
X-119558Y-72616D01*
X-118546Y-71839D01*
X-117770Y-70828D01*
X-117282Y-69650D01*
X-117116Y-68386D01*
Y-66417D01*
X-117282Y-65153D01*
X-117770Y-63975D01*
X-118546Y-62964D01*
X-119558Y-62187D01*
X-119776Y-62097D01*
Y-59421D01*
X-92579Y-32224D01*
X-64897D01*
X-64539Y-33405D01*
D02*
G37*
G36*
X47927Y-38572D02*
X47927Y-38572D01*
X48649Y-39055D01*
X49500Y-39224D01*
X138579D01*
X142276Y-42921D01*
Y-68079D01*
X136579Y-73776D01*
X97500D01*
X97500Y-73776D01*
X96649Y-73945D01*
X95928Y-74427D01*
X95928Y-74427D01*
X83857Y-86498D01*
X83375Y-87220D01*
X83205Y-88071D01*
X83205Y-88071D01*
Y-93227D01*
X82787Y-93282D01*
X81609Y-93770D01*
X80598Y-94546D01*
X79821Y-95558D01*
X79333Y-96736D01*
X79167Y-98000D01*
X79333Y-99264D01*
X79821Y-100442D01*
X80598Y-101454D01*
X81609Y-102230D01*
X81925Y-102361D01*
Y-103639D01*
X81609Y-103770D01*
X80598Y-104546D01*
X79821Y-105558D01*
X79333Y-106736D01*
X79167Y-108000D01*
X79333Y-109264D01*
X79821Y-110442D01*
X80598Y-111454D01*
X81609Y-112230D01*
X81925Y-112361D01*
Y-113639D01*
X81609Y-113770D01*
X80598Y-114546D01*
X79821Y-115558D01*
X79333Y-116736D01*
X79167Y-118000D01*
X79333Y-119264D01*
X79821Y-120442D01*
X80598Y-121454D01*
X81432Y-122095D01*
X81355Y-122764D01*
X81112Y-123276D01*
X79327D01*
Y-127016D01*
X85429D01*
X91531D01*
Y-124161D01*
X91531Y-123276D01*
X92590Y-122980D01*
X107140D01*
X108198Y-123276D01*
X108198Y-124161D01*
Y-127016D01*
X114301D01*
X120403D01*
Y-124161D01*
X120403Y-123276D01*
X121461Y-122980D01*
X136011D01*
X137069Y-123276D01*
X137070Y-124161D01*
Y-127016D01*
X143172D01*
X149274D01*
Y-124161D01*
X149274Y-123276D01*
X150333Y-122980D01*
X164882D01*
X165941Y-123276D01*
X165941Y-124161D01*
Y-127016D01*
X172043D01*
X178146D01*
Y-123276D01*
X176361D01*
X176118Y-122764D01*
X176040Y-122095D01*
X176875Y-121454D01*
X177228Y-120994D01*
X182686D01*
X183149Y-121262D01*
X184039Y-121500D01*
X184961D01*
X185851Y-121262D01*
X186649Y-120801D01*
X187301Y-120149D01*
X187761Y-119351D01*
X187825Y-119115D01*
X189006Y-119270D01*
Y-159006D01*
X177228D01*
X176875Y-158546D01*
X175863Y-157770D01*
X175548Y-157639D01*
Y-156361D01*
X175863Y-156230D01*
X176875Y-155454D01*
X177651Y-154442D01*
X178139Y-153264D01*
X178306Y-152000D01*
X178139Y-150736D01*
X177651Y-149558D01*
X176875Y-148546D01*
X175863Y-147770D01*
X174685Y-147282D01*
X174267Y-147227D01*
Y-146043D01*
X174267Y-146043D01*
X174098Y-145192D01*
X173616Y-144471D01*
X173616Y-144471D01*
X167572Y-138427D01*
X166851Y-137945D01*
X166000Y-137776D01*
X166000Y-137776D01*
X159726D01*
X159149Y-137199D01*
X158351Y-136739D01*
X157461Y-136500D01*
X156539D01*
X155649Y-136739D01*
X154851Y-137199D01*
X154199Y-137851D01*
X153738Y-138649D01*
X153500Y-139539D01*
Y-140461D01*
X153738Y-141351D01*
X154199Y-142149D01*
X154851Y-142801D01*
X155649Y-143262D01*
X156539Y-143500D01*
X157461D01*
X158351Y-143262D01*
X159149Y-142801D01*
X159726Y-142224D01*
X165079D01*
X169046Y-146191D01*
X168740Y-147556D01*
X168223Y-147770D01*
X167212Y-148546D01*
X166435Y-149558D01*
X165947Y-150736D01*
X165781Y-152000D01*
X165947Y-153264D01*
X166435Y-154442D01*
X167212Y-155454D01*
X167714Y-155839D01*
X167313Y-157020D01*
X147902D01*
X147501Y-155839D01*
X148004Y-155454D01*
X148780Y-154442D01*
X149268Y-153264D01*
X149434Y-152000D01*
X149268Y-150736D01*
X148780Y-149558D01*
X148004Y-148546D01*
X146992Y-147770D01*
X145814Y-147282D01*
X145396Y-147227D01*
Y-146172D01*
X145227Y-145321D01*
X144744Y-144599D01*
X144744Y-144599D01*
X140073Y-139927D01*
X139351Y-139445D01*
X138500Y-139276D01*
X138500Y-139276D01*
X76421D01*
X47724Y-110579D01*
Y-50000D01*
X47724Y-50000D01*
X47555Y-49149D01*
X47072Y-48428D01*
X47072Y-48428D01*
X41826Y-43181D01*
X42315Y-42000D01*
X42461D01*
X43351Y-41761D01*
X44149Y-41301D01*
X44801Y-40649D01*
X45261Y-39851D01*
X45500Y-38961D01*
Y-38039D01*
X45418Y-37733D01*
X46477Y-37122D01*
X47927Y-38572D01*
D02*
G37*
G36*
X36276Y-55921D02*
Y-116500D01*
X36276Y-116500D01*
X36368Y-116964D01*
X35280Y-117546D01*
X29900Y-112166D01*
X29761Y-111649D01*
X29301Y-110851D01*
X28649Y-110199D01*
X27851Y-109739D01*
X26961Y-109500D01*
X26039D01*
X25149Y-109739D01*
X24351Y-110199D01*
X23699Y-110851D01*
X23238Y-111649D01*
X23000Y-112539D01*
Y-113461D01*
X23238Y-114351D01*
X23699Y-115149D01*
X24351Y-115801D01*
X25149Y-116261D01*
X25666Y-116400D01*
X37506Y-128240D01*
Y-140575D01*
X36055D01*
Y-141829D01*
X33945D01*
Y-140575D01*
X25055D01*
Y-149071D01*
X33945D01*
Y-147817D01*
X36055D01*
Y-149071D01*
X44945D01*
Y-147817D01*
X49677D01*
X50452Y-147715D01*
X51174Y-147416D01*
X51794Y-146940D01*
X54334Y-144400D01*
X54851Y-144262D01*
X55649Y-143801D01*
X56301Y-143149D01*
X56761Y-142351D01*
X57000Y-141461D01*
Y-140539D01*
X56761Y-139649D01*
X56663Y-139478D01*
X57608Y-138753D01*
X72427Y-153572D01*
X72427Y-153572D01*
X73149Y-154054D01*
X74000Y-154224D01*
X74000Y-154224D01*
X79731D01*
X79821Y-154442D01*
X80598Y-155454D01*
X81609Y-156230D01*
X81925Y-156361D01*
Y-157639D01*
X81609Y-157770D01*
X80598Y-158546D01*
X79821Y-159558D01*
X79333Y-160736D01*
X79167Y-162000D01*
X79333Y-163264D01*
X79821Y-164442D01*
X80598Y-165454D01*
X81100Y-165839D01*
X80699Y-167020D01*
X74563D01*
X72021Y-164479D01*
X70990Y-163688D01*
X69789Y-163190D01*
X68500Y-163020D01*
X68500Y-163020D01*
X60588D01*
X60262Y-162388D01*
X60176Y-161839D01*
X60970Y-161046D01*
X61623Y-159915D01*
X61872Y-158984D01*
X57000D01*
X52128D01*
X52377Y-159915D01*
X53031Y-161046D01*
X53954Y-161969D01*
X54440Y-162250D01*
Y-163614D01*
X53882Y-163936D01*
X52936Y-164882D01*
X52267Y-166040D01*
X51921Y-167331D01*
Y-168669D01*
X52267Y-169960D01*
X52936Y-171118D01*
X53558Y-171740D01*
X53100Y-172921D01*
X51921D01*
Y-175006D01*
X48740D01*
X43494Y-169760D01*
Y-164425D01*
X44945D01*
Y-155929D01*
X36055D01*
Y-164425D01*
X37506D01*
Y-171000D01*
X37608Y-171775D01*
X37907Y-172497D01*
X38383Y-173117D01*
X45383Y-180117D01*
X46003Y-180593D01*
X46725Y-180892D01*
X47500Y-180994D01*
X51921D01*
Y-183079D01*
X62079D01*
Y-172980D01*
X66437D01*
X68979Y-175521D01*
X68979Y-175521D01*
X70010Y-176312D01*
X71211Y-176810D01*
X72500Y-176980D01*
X78268D01*
X79327Y-177276D01*
X79327Y-178161D01*
Y-181016D01*
X85429D01*
X91531D01*
Y-178161D01*
X91531Y-177276D01*
X92590Y-176980D01*
X107140D01*
X108198Y-177276D01*
X108198Y-178161D01*
Y-181016D01*
X114301D01*
X120403D01*
Y-178161D01*
X120403Y-177276D01*
X121461Y-176980D01*
X136011D01*
X137069Y-177276D01*
X137070Y-178161D01*
Y-181016D01*
X143172D01*
X149274D01*
Y-178161D01*
X149274Y-177276D01*
X150333Y-176980D01*
X164882D01*
X165941Y-177276D01*
X165941Y-178161D01*
Y-181016D01*
X172043D01*
X178146D01*
Y-177276D01*
X176361D01*
X176118Y-176764D01*
X176040Y-176094D01*
X176875Y-175454D01*
X177228Y-174994D01*
X182686D01*
X183149Y-175261D01*
X184039Y-175500D01*
X184961D01*
X185851Y-175261D01*
X186649Y-174801D01*
X187301Y-174149D01*
X187761Y-173351D01*
X187825Y-173115D01*
X189006Y-173270D01*
Y-181760D01*
X183760Y-187006D01*
X179210D01*
X178146Y-186724D01*
X178146Y-185825D01*
Y-182984D01*
X172043D01*
X165941D01*
Y-185825D01*
X165941Y-186724D01*
X164876Y-187006D01*
X150339D01*
X149274Y-186724D01*
X149274Y-185825D01*
Y-182984D01*
X143172D01*
X137070D01*
Y-185825D01*
X137069Y-186724D01*
X136005Y-187006D01*
X121467D01*
X120403Y-186724D01*
X120403Y-185825D01*
Y-182984D01*
X114301D01*
X108198D01*
Y-185825D01*
X108198Y-186724D01*
X107134Y-187006D01*
X92596D01*
X91531Y-186724D01*
X91531Y-185825D01*
Y-182984D01*
X85429D01*
X79327D01*
Y-185825D01*
X79327Y-186724D01*
X78262Y-187006D01*
X20240D01*
X15704Y-182470D01*
Y-180050D01*
X15742Y-180021D01*
X16533Y-178990D01*
X17030Y-177789D01*
X17200Y-176500D01*
Y-166000D01*
Y-155989D01*
X18049Y-155762D01*
X18847Y-155301D01*
X19499Y-154649D01*
X19960Y-153851D01*
X20198Y-152961D01*
Y-152039D01*
X19960Y-151149D01*
X19499Y-150351D01*
X18847Y-149699D01*
X18049Y-149239D01*
X17200Y-149011D01*
Y-88520D01*
X18500D01*
X18890Y-88442D01*
X19221Y-88221D01*
X19442Y-87890D01*
X19520Y-87500D01*
Y-84395D01*
X22099D01*
X22874Y-84293D01*
X23596Y-83994D01*
X24193Y-83536D01*
X24285Y-83548D01*
X25374Y-84031D01*
X25374Y-84355D01*
Y-86870D01*
X29016D01*
Y-83425D01*
X26304D01*
X25980Y-83425D01*
X25767Y-82913D01*
X25490Y-82244D01*
X27909Y-79826D01*
X28384Y-79206D01*
X28683Y-78484D01*
X28785Y-77709D01*
Y-76748D01*
X34445D01*
Y-68252D01*
X28785D01*
Y-57224D01*
X30516D01*
X31367Y-57055D01*
X32088Y-56573D01*
X32570Y-55851D01*
X32740Y-55000D01*
X32570Y-54149D01*
X33273Y-53075D01*
X33398Y-53043D01*
X36276Y-55921D01*
D02*
G37*
%LPC*%
G36*
X-61000Y192724D02*
X-61000Y192724D01*
X-79000D01*
X-79000Y192724D01*
X-79851Y192554D01*
X-80572Y192072D01*
X-80572Y192072D01*
X-122744Y149901D01*
X-132058D01*
X-132148Y150119D01*
X-132924Y151131D01*
X-133936Y151907D01*
X-134406Y152102D01*
Y153380D01*
X-133995Y153550D01*
X-133009Y154308D01*
X-132251Y155295D01*
X-131775Y156444D01*
X-131742Y156693D01*
X-137362D01*
X-142982D01*
X-142949Y156444D01*
X-142473Y155295D01*
X-141716Y154308D01*
X-140729Y153550D01*
X-140318Y153380D01*
Y152102D01*
X-140789Y151907D01*
X-141800Y151131D01*
X-142576Y150119D01*
X-143064Y148941D01*
X-143231Y147677D01*
X-143064Y146413D01*
X-142576Y145235D01*
X-141800Y144223D01*
X-140789Y143447D01*
X-140473Y143316D01*
Y142038D01*
X-140789Y141907D01*
X-141800Y141131D01*
X-142576Y140119D01*
X-143064Y138941D01*
X-143231Y137677D01*
X-143064Y136413D01*
X-142576Y135235D01*
X-141800Y134223D01*
X-140789Y133447D01*
X-140473Y133316D01*
Y132038D01*
X-140789Y131907D01*
X-141800Y131131D01*
X-142576Y130119D01*
X-143064Y128941D01*
X-143231Y127677D01*
X-143064Y126413D01*
X-142576Y125235D01*
X-141800Y124223D01*
X-140789Y123447D01*
X-140473Y123316D01*
Y122038D01*
X-140789Y121907D01*
X-141800Y121131D01*
X-142576Y120119D01*
X-143064Y118941D01*
X-143231Y117677D01*
X-143064Y116413D01*
X-142576Y115235D01*
X-141800Y114224D01*
X-140789Y113447D01*
X-140318Y113252D01*
Y111974D01*
X-140729Y111804D01*
X-141716Y111047D01*
X-142473Y110060D01*
X-142949Y108911D01*
X-142982Y108661D01*
X-137362D01*
X-131742D01*
X-131775Y108911D01*
X-132251Y110060D01*
X-133009Y111047D01*
X-133995Y111804D01*
X-134406Y111974D01*
Y113252D01*
X-133936Y113447D01*
X-132924Y114224D01*
X-132148Y115235D01*
X-132058Y115453D01*
X-129323D01*
X-129323Y115453D01*
X-128472Y115623D01*
X-127750Y116105D01*
X-116855Y127000D01*
X-116039D01*
X-115149Y127239D01*
X-114351Y127699D01*
X-113699Y128351D01*
X-113239Y129149D01*
X-113000Y130039D01*
Y130961D01*
X-113239Y131851D01*
X-113699Y132649D01*
X-114351Y133301D01*
X-115149Y133762D01*
X-116039Y134000D01*
X-116961D01*
X-117851Y133762D01*
X-118649Y133301D01*
X-119301Y132649D01*
X-119762Y131851D01*
X-120000Y130961D01*
Y130684D01*
X-120356Y130449D01*
X-121500Y131110D01*
Y131461D01*
X-121739Y132351D01*
X-122199Y133149D01*
X-122851Y133801D01*
X-123649Y134262D01*
X-123910Y134331D01*
X-123870Y135543D01*
X-123472Y135623D01*
X-122750Y136105D01*
X-75579Y183276D01*
X-70570D01*
X-70335Y182095D01*
X-70789Y181907D01*
X-71800Y181131D01*
X-72576Y180119D01*
X-73064Y178941D01*
X-73231Y177677D01*
X-73064Y176413D01*
X-72576Y175235D01*
X-71800Y174223D01*
X-70789Y173447D01*
X-70473Y173316D01*
Y172038D01*
X-70789Y171907D01*
X-71800Y171131D01*
X-72576Y170119D01*
X-73064Y168941D01*
X-73231Y167677D01*
X-73064Y166413D01*
X-72576Y165235D01*
X-71800Y164224D01*
X-70789Y163447D01*
X-70318Y163252D01*
Y161974D01*
X-70729Y161804D01*
X-71716Y161047D01*
X-72473Y160060D01*
X-72949Y158911D01*
X-72982Y158661D01*
X-67362D01*
X-61742D01*
X-61775Y158911D01*
X-62251Y160060D01*
X-63008Y161047D01*
X-63995Y161804D01*
X-64406Y161974D01*
Y163252D01*
X-63936Y163447D01*
X-62924Y164224D01*
X-62148Y165235D01*
X-61660Y166413D01*
X-61494Y167677D01*
X-61660Y168941D01*
X-62148Y170119D01*
X-62924Y171131D01*
X-63936Y171907D01*
X-64252Y172038D01*
Y173316D01*
X-63936Y173447D01*
X-62924Y174223D01*
X-62148Y175235D01*
X-61660Y176413D01*
X-61494Y177677D01*
X-61660Y178941D01*
X-62148Y180119D01*
X-62852Y181036D01*
X-61962Y181817D01*
X-54224Y174079D01*
Y97726D01*
X-54801Y97149D01*
X-55261Y96351D01*
X-55500Y95461D01*
Y94539D01*
X-55261Y93649D01*
X-54801Y92851D01*
X-54149Y92199D01*
X-53351Y91738D01*
X-52461Y91500D01*
X-51539D01*
X-50649Y91738D01*
X-49851Y92199D01*
X-49199Y92851D01*
X-48739Y93649D01*
X-48500Y94539D01*
Y95461D01*
X-48739Y96351D01*
X-49199Y97149D01*
X-49682Y97632D01*
X-49609Y98742D01*
X-48536Y99086D01*
X-48149Y98699D01*
X-47351Y98238D01*
X-46461Y98000D01*
X-45539D01*
X-44649Y98238D01*
X-43851Y98699D01*
X-43199Y99351D01*
X-42739Y100149D01*
X-42500Y101039D01*
Y101961D01*
X-42739Y102851D01*
X-43199Y103649D01*
X-43776Y104226D01*
Y175500D01*
X-43776Y175500D01*
X-43945Y176351D01*
X-44427Y177073D01*
X-44427Y177073D01*
X-48747Y181392D01*
X-48022Y182337D01*
X-47851Y182238D01*
X-46961Y182000D01*
X-46145D01*
X-41224Y177079D01*
Y101217D01*
X-41224Y101217D01*
X-41055Y100366D01*
X-40573Y99644D01*
X-35476Y94548D01*
X-35500Y94461D01*
Y93539D01*
X-35261Y92649D01*
X-34801Y91851D01*
X-34149Y91199D01*
X-33351Y90738D01*
X-32461Y90500D01*
X-31539D01*
X-30649Y90738D01*
X-29851Y91199D01*
X-29199Y91851D01*
X-28738Y92649D01*
X-28500Y93539D01*
Y94461D01*
X-28738Y95351D01*
X-29199Y96149D01*
X-29851Y96801D01*
X-30649Y97262D01*
X-31539Y97500D01*
X-32138D01*
X-36776Y102138D01*
Y178000D01*
X-36776Y178000D01*
X-36945Y178851D01*
X-37427Y179572D01*
X-37427Y179572D01*
X-43000Y185145D01*
Y185961D01*
X-43238Y186851D01*
X-43699Y187649D01*
X-44351Y188301D01*
X-45149Y188761D01*
X-46039Y189000D01*
X-46961D01*
X-47851Y188761D01*
X-48649Y188301D01*
X-49301Y187649D01*
X-49762Y186851D01*
X-50000Y185961D01*
Y185039D01*
X-49762Y184149D01*
X-49663Y183978D01*
X-50608Y183253D01*
X-59427Y192072D01*
X-60149Y192554D01*
X-61000Y192724D01*
D02*
G37*
G36*
X-120000Y194494D02*
X-179000D01*
X-179775Y194392D01*
X-180497Y194093D01*
X-181117Y193617D01*
X-186117Y188617D01*
X-186593Y187997D01*
X-186892Y187275D01*
X-186994Y186500D01*
Y178988D01*
X-187454Y178635D01*
X-188230Y177623D01*
X-188718Y176445D01*
X-188884Y175181D01*
Y172819D01*
X-188718Y171555D01*
X-188230Y170377D01*
X-187454Y169365D01*
X-186442Y168589D01*
X-185264Y168101D01*
X-184000Y167935D01*
X-182736Y168101D01*
X-181558Y168589D01*
X-180546Y169365D01*
X-180024Y170046D01*
X-178842Y169645D01*
Y167976D01*
X-176994D01*
Y165740D01*
X-179740Y162994D01*
X-184000D01*
X-184775Y162892D01*
X-185497Y162593D01*
X-186117Y162117D01*
X-192617Y155617D01*
X-193093Y154997D01*
X-193392Y154275D01*
X-193494Y153500D01*
Y132000D01*
X-193392Y131225D01*
X-193093Y130503D01*
X-192617Y129883D01*
X-188117Y125383D01*
X-187497Y124907D01*
X-186775Y124608D01*
X-186000Y124506D01*
X-182185D01*
X-181832Y124046D01*
X-181151Y123524D01*
X-181552Y122343D01*
X-183221D01*
Y112657D01*
X-179949D01*
X-179892Y112225D01*
X-179593Y111503D01*
X-179117Y110883D01*
X-177117Y108883D01*
X-176497Y108407D01*
X-175775Y108108D01*
X-175000Y108006D01*
X-170785D01*
Y104095D01*
X-164652D01*
Y117905D01*
X-170780D01*
Y122343D01*
X-172449D01*
X-172850Y123524D01*
X-172169Y124046D01*
X-171393Y125058D01*
X-170905Y126236D01*
X-170738Y127500D01*
X-170905Y128764D01*
X-171393Y129942D01*
X-172169Y130954D01*
X-173180Y131730D01*
X-173651Y131925D01*
Y133203D01*
X-173240Y133373D01*
X-172253Y134131D01*
X-171496Y135117D01*
X-171020Y136267D01*
X-170987Y136516D01*
X-177001D01*
X-183014D01*
X-182981Y136267D01*
X-182505Y135117D01*
X-181748Y134131D01*
X-180761Y133373D01*
X-180350Y133203D01*
Y131925D01*
X-180821Y131730D01*
X-181832Y130954D01*
X-182185Y130494D01*
X-184760D01*
X-187506Y133240D01*
Y152260D01*
X-182760Y157006D01*
X-178500D01*
X-177725Y157108D01*
X-177003Y157407D01*
X-176383Y157883D01*
X-171883Y162383D01*
X-171407Y163003D01*
X-171283Y163302D01*
X-171108Y163725D01*
X-171006Y164500D01*
Y167976D01*
X-169158D01*
Y169645D01*
X-167976Y170046D01*
X-167454Y169365D01*
X-166994Y169012D01*
Y161814D01*
X-167262Y161351D01*
X-167500Y160461D01*
Y159539D01*
X-167262Y158649D01*
X-166801Y157851D01*
X-166149Y157199D01*
X-165351Y156738D01*
X-164461Y156500D01*
X-163539D01*
X-162649Y156738D01*
X-161851Y157199D01*
X-161199Y157851D01*
X-160739Y158649D01*
X-160500Y159539D01*
Y160461D01*
X-160739Y161351D01*
X-161006Y161814D01*
Y169012D01*
X-160546Y169365D01*
X-159770Y170377D01*
X-159282Y171555D01*
X-159116Y172819D01*
Y175181D01*
X-159282Y176445D01*
X-159770Y177623D01*
X-160546Y178635D01*
X-161558Y179411D01*
X-162736Y179899D01*
X-164000Y180065D01*
X-165264Y179899D01*
X-166442Y179411D01*
X-167454Y178635D01*
X-167976Y177954D01*
X-169158Y178355D01*
Y180024D01*
X-178842D01*
Y178355D01*
X-180024Y177954D01*
X-180546Y178635D01*
X-181006Y178988D01*
Y185260D01*
X-177760Y188506D01*
X-121240D01*
X-110400Y177666D01*
X-110261Y177149D01*
X-109801Y176351D01*
X-109149Y175699D01*
X-108351Y175239D01*
X-107461Y175000D01*
X-106539D01*
X-105649Y175239D01*
X-104851Y175699D01*
X-104199Y176351D01*
X-103738Y177149D01*
X-103500Y178039D01*
Y178961D01*
X-103738Y179851D01*
X-104199Y180649D01*
X-104851Y181301D01*
X-105649Y181762D01*
X-106166Y181900D01*
X-117883Y193617D01*
X-118503Y194093D01*
X-119225Y194392D01*
X-120000Y194494D01*
D02*
G37*
G36*
X-131535Y182520D02*
X-143189D01*
Y172835D01*
X-141520D01*
X-141119Y171654D01*
X-141800Y171131D01*
X-142576Y170119D01*
X-142667Y169901D01*
X-144823D01*
X-144823Y169901D01*
X-145674Y169732D01*
X-146395Y169250D01*
X-146395Y169250D01*
X-153572Y162073D01*
X-154054Y161351D01*
X-154224Y160500D01*
X-154224Y160500D01*
Y127226D01*
X-154801Y126649D01*
X-155262Y125851D01*
X-155500Y124961D01*
Y124039D01*
X-155262Y123149D01*
X-154801Y122351D01*
X-154149Y121699D01*
X-153351Y121239D01*
X-152461Y121000D01*
X-151539D01*
X-150649Y121239D01*
X-149851Y121699D01*
X-149199Y122351D01*
X-148739Y123149D01*
X-148500Y124039D01*
Y124961D01*
X-148739Y125851D01*
X-149199Y126649D01*
X-149776Y127226D01*
Y159579D01*
X-143902Y165453D01*
X-142667D01*
X-142576Y165235D01*
X-141800Y164224D01*
X-140789Y163447D01*
X-140318Y163252D01*
Y161974D01*
X-140729Y161804D01*
X-141716Y161047D01*
X-142473Y160060D01*
X-142949Y158911D01*
X-142982Y158661D01*
X-137362D01*
X-131742D01*
X-131775Y158911D01*
X-132251Y160060D01*
X-133009Y161047D01*
X-133995Y161804D01*
X-134406Y161974D01*
Y163252D01*
X-133936Y163447D01*
X-132924Y164224D01*
X-132148Y165235D01*
X-131660Y166413D01*
X-131494Y167677D01*
X-131660Y168941D01*
X-132148Y170119D01*
X-132924Y171131D01*
X-133605Y171654D01*
X-133204Y172835D01*
X-131535D01*
Y174683D01*
X-119417D01*
X-115400Y170666D01*
X-115261Y170149D01*
X-114801Y169351D01*
X-114149Y168699D01*
X-113351Y168238D01*
X-112461Y168000D01*
X-111539D01*
X-110649Y168238D01*
X-109851Y168699D01*
X-109199Y169351D01*
X-108739Y170149D01*
X-108500Y171039D01*
Y171961D01*
X-108739Y172851D01*
X-109199Y173649D01*
X-109851Y174301D01*
X-110649Y174761D01*
X-111166Y174900D01*
X-116060Y179794D01*
X-116680Y180270D01*
X-117402Y180569D01*
X-118177Y180671D01*
X-131535D01*
Y182520D01*
D02*
G37*
G36*
X39106Y148126D02*
X35661D01*
Y144484D01*
X39106D01*
Y148126D01*
D02*
G37*
G36*
X33693D02*
X30248D01*
Y144484D01*
X33693D01*
Y148126D01*
D02*
G37*
G36*
X39106Y142516D02*
X35661D01*
Y138874D01*
X39106D01*
Y142516D01*
D02*
G37*
G36*
X33693D02*
X30248D01*
Y138874D01*
X33693D01*
Y142516D01*
D02*
G37*
G36*
X-175623Y142265D02*
X-176016D01*
Y138484D01*
X-170987D01*
X-171020Y138733D01*
X-171496Y139883D01*
X-172253Y140869D01*
X-173240Y141627D01*
X-174389Y142103D01*
X-175623Y142265D01*
D02*
G37*
G36*
X-177985D02*
X-178379D01*
X-179612Y142103D01*
X-180761Y141627D01*
X-181748Y140869D01*
X-182505Y139883D01*
X-182981Y138733D01*
X-183014Y138484D01*
X-177985D01*
Y142265D01*
D02*
G37*
G36*
X39106Y136626D02*
X35661D01*
Y132984D01*
X39106D01*
Y136626D01*
D02*
G37*
G36*
X33693D02*
X30248D01*
Y132984D01*
X33693D01*
Y136626D01*
D02*
G37*
G36*
X39106Y131016D02*
X35661D01*
Y127374D01*
X39106D01*
Y131016D01*
D02*
G37*
G36*
X33693D02*
X30248D01*
Y127374D01*
X33693D01*
Y131016D01*
D02*
G37*
G36*
X39106Y125126D02*
X35661D01*
Y121484D01*
X39106D01*
Y125126D01*
D02*
G37*
G36*
X33693D02*
X30248D01*
Y121484D01*
X33693D01*
Y125126D01*
D02*
G37*
G36*
X39106Y119516D02*
X35661D01*
Y115874D01*
X39106D01*
Y119516D01*
D02*
G37*
G36*
X33693D02*
X30248D01*
Y115874D01*
X33693D01*
Y119516D01*
D02*
G37*
G36*
X89484Y115047D02*
Y112484D01*
X92047D01*
X91930Y112921D01*
X91446Y113760D01*
X90760Y114446D01*
X89921Y114930D01*
X89484Y115047D01*
D02*
G37*
G36*
X87516D02*
X87079Y114930D01*
X86240Y114446D01*
X85554Y113760D01*
X85070Y112921D01*
X84953Y112484D01*
X87516D01*
Y115047D01*
D02*
G37*
G36*
X187514Y114016D02*
X182484D01*
Y110235D01*
X182878D01*
X184111Y110397D01*
X185260Y110873D01*
X186247Y111630D01*
X187005Y112617D01*
X187481Y113767D01*
X187514Y114016D01*
D02*
G37*
G36*
X180516D02*
X175486D01*
X175519Y113767D01*
X175995Y112617D01*
X176753Y111630D01*
X177740Y110873D01*
X178889Y110397D01*
X180122Y110235D01*
X180516D01*
Y114016D01*
D02*
G37*
G36*
X142982Y156693D02*
X137362D01*
X131742D01*
X131775Y156444D01*
X132251Y155295D01*
X133009Y154308D01*
X133995Y153550D01*
X134406Y153380D01*
Y152102D01*
X133936Y151907D01*
X132924Y151131D01*
X132148Y150119D01*
X131660Y148941D01*
X131494Y147677D01*
X131660Y146413D01*
X132148Y145235D01*
X132924Y144223D01*
X133936Y143447D01*
X134252Y143316D01*
Y142038D01*
X133936Y141907D01*
X132924Y141131D01*
X132148Y140119D01*
X131660Y138941D01*
X131494Y137677D01*
X131660Y136413D01*
X132148Y135235D01*
X132924Y134223D01*
X133936Y133447D01*
X134252Y133316D01*
Y132038D01*
X133936Y131907D01*
X132924Y131131D01*
X132148Y130119D01*
X131660Y128941D01*
X131494Y127677D01*
X131660Y126413D01*
X132148Y125235D01*
X132924Y124223D01*
X133936Y123447D01*
X134252Y123316D01*
Y122038D01*
X133936Y121907D01*
X132924Y121131D01*
X132148Y120119D01*
X131660Y118941D01*
X131494Y117677D01*
X131660Y116413D01*
X132148Y115235D01*
X132924Y114224D01*
X133936Y113447D01*
X134406Y113252D01*
Y111974D01*
X133995Y111804D01*
X133009Y111047D01*
X132251Y110060D01*
X131775Y108911D01*
X131742Y108661D01*
X137362D01*
X142982D01*
X142949Y108911D01*
X142473Y110060D01*
X141716Y111047D01*
X140729Y111804D01*
X140318Y111974D01*
Y113252D01*
X140789Y113447D01*
X141800Y114224D01*
X142576Y115235D01*
X143064Y116413D01*
X143231Y117677D01*
X143064Y118941D01*
X142576Y120119D01*
X141800Y121131D01*
X140789Y121907D01*
X140473Y122038D01*
Y123316D01*
X140789Y123447D01*
X141800Y124223D01*
X142576Y125235D01*
X143064Y126413D01*
X143231Y127677D01*
X143064Y128941D01*
X142576Y130119D01*
X141800Y131131D01*
X140789Y131907D01*
X140473Y132038D01*
Y133316D01*
X140789Y133447D01*
X141800Y134223D01*
X142576Y135235D01*
X143064Y136413D01*
X143231Y137677D01*
X143064Y138941D01*
X142576Y140119D01*
X141800Y141131D01*
X140789Y141907D01*
X140473Y142038D01*
Y143316D01*
X140789Y143447D01*
X141800Y144223D01*
X142576Y145235D01*
X143064Y146413D01*
X143231Y147677D01*
X143064Y148941D01*
X142576Y150119D01*
X141800Y151131D01*
X140789Y151907D01*
X140318Y152102D01*
Y153380D01*
X140729Y153550D01*
X141716Y154308D01*
X142473Y155295D01*
X142949Y156444D01*
X142982Y156693D01*
D02*
G37*
G36*
X-61742D02*
X-67362D01*
X-72982D01*
X-72949Y156444D01*
X-72473Y155295D01*
X-71716Y154308D01*
X-70729Y153550D01*
X-70318Y153380D01*
Y152102D01*
X-70789Y151907D01*
X-71800Y151131D01*
X-72576Y150119D01*
X-73064Y148941D01*
X-73231Y147677D01*
X-73064Y146413D01*
X-72576Y145235D01*
X-71800Y144223D01*
X-70789Y143447D01*
X-70473Y143316D01*
Y142038D01*
X-70789Y141907D01*
X-71800Y141131D01*
X-72576Y140119D01*
X-73064Y138941D01*
X-73231Y137677D01*
X-73064Y136413D01*
X-72576Y135235D01*
X-71800Y134223D01*
X-70789Y133447D01*
X-70473Y133316D01*
Y132038D01*
X-70789Y131907D01*
X-71800Y131131D01*
X-72576Y130119D01*
X-73064Y128941D01*
X-73231Y127677D01*
X-73064Y126413D01*
X-72576Y125235D01*
X-71800Y124223D01*
X-70789Y123447D01*
X-70473Y123316D01*
Y122038D01*
X-70789Y121907D01*
X-71800Y121131D01*
X-72576Y120119D01*
X-73064Y118941D01*
X-73231Y117677D01*
X-73064Y116413D01*
X-72576Y115235D01*
X-71800Y114224D01*
X-70789Y113447D01*
X-70318Y113252D01*
Y111974D01*
X-70729Y111804D01*
X-71716Y111047D01*
X-72473Y110060D01*
X-72949Y108911D01*
X-72982Y108661D01*
X-67362D01*
X-61742D01*
X-61775Y108911D01*
X-62251Y110060D01*
X-63008Y111047D01*
X-63995Y111804D01*
X-64406Y111974D01*
Y113252D01*
X-63936Y113447D01*
X-62924Y114224D01*
X-62148Y115235D01*
X-61660Y116413D01*
X-61494Y117677D01*
X-61660Y118941D01*
X-62148Y120119D01*
X-62924Y121131D01*
X-63936Y121907D01*
X-64252Y122038D01*
Y123316D01*
X-63936Y123447D01*
X-62924Y124223D01*
X-62148Y125235D01*
X-61660Y126413D01*
X-61494Y127677D01*
X-61660Y128941D01*
X-62148Y130119D01*
X-62924Y131131D01*
X-63936Y131907D01*
X-64252Y132038D01*
Y133316D01*
X-63936Y133447D01*
X-62924Y134223D01*
X-62148Y135235D01*
X-61660Y136413D01*
X-61494Y137677D01*
X-61660Y138941D01*
X-62148Y140119D01*
X-62924Y141131D01*
X-63936Y141907D01*
X-64252Y142038D01*
Y143316D01*
X-63936Y143447D01*
X-62924Y144223D01*
X-62148Y145235D01*
X-61660Y146413D01*
X-61494Y147677D01*
X-61660Y148941D01*
X-62148Y150119D01*
X-62924Y151131D01*
X-63936Y151907D01*
X-64406Y152102D01*
Y153380D01*
X-63995Y153550D01*
X-63008Y154308D01*
X-62251Y155295D01*
X-61775Y156444D01*
X-61742Y156693D01*
D02*
G37*
G36*
X45484Y108547D02*
Y105984D01*
X48047D01*
X47930Y106421D01*
X47446Y107260D01*
X46760Y107946D01*
X45921Y108430D01*
X45484Y108547D01*
D02*
G37*
G36*
X43516D02*
X43079Y108430D01*
X42240Y107946D01*
X41554Y107260D01*
X41070Y106421D01*
X40953Y105984D01*
X43516D01*
Y108547D01*
D02*
G37*
G36*
X92047Y110516D02*
X84953D01*
X85070Y110079D01*
X85554Y109240D01*
X86078Y108716D01*
X86169Y108000D01*
X86078Y107284D01*
X85554Y106760D01*
X85070Y105921D01*
X84953Y105484D01*
X92047D01*
X91930Y105921D01*
X91446Y106760D01*
X90922Y107284D01*
X90831Y108000D01*
X90922Y108716D01*
X91446Y109240D01*
X91930Y110079D01*
X92047Y110516D01*
D02*
G37*
G36*
X48047Y104016D02*
X45484D01*
Y101453D01*
X45921Y101570D01*
X46760Y102054D01*
X47446Y102740D01*
X47930Y103579D01*
X48047Y104016D01*
D02*
G37*
G36*
X43516D02*
X40953D01*
X41070Y103579D01*
X41554Y102740D01*
X42240Y102054D01*
X43079Y101570D01*
X43516Y101453D01*
Y104016D01*
D02*
G37*
G36*
X92047Y103516D02*
X89484D01*
Y100953D01*
X89921Y101070D01*
X90760Y101554D01*
X91446Y102240D01*
X91930Y103079D01*
X92047Y103516D01*
D02*
G37*
G36*
X87516D02*
X84953D01*
X85070Y103079D01*
X85554Y102240D01*
X86240Y101554D01*
X87079Y101070D01*
X87516Y100953D01*
Y103516D01*
D02*
G37*
G36*
X-145215Y117905D02*
X-151348D01*
Y104095D01*
X-151276D01*
Y101281D01*
X-151174Y100507D01*
X-150874Y99784D01*
X-150399Y99164D01*
X-147397Y96163D01*
X-146777Y95687D01*
X-146478Y95563D01*
X-146055Y95388D01*
X-145280Y95286D01*
X-142597D01*
X-142576Y95235D01*
X-141800Y94223D01*
X-140789Y93447D01*
X-140473Y93316D01*
Y92038D01*
X-140789Y91907D01*
X-141800Y91131D01*
X-142153Y90671D01*
X-152437D01*
X-161133Y99367D01*
X-161753Y99843D01*
X-162475Y100142D01*
X-163250Y100244D01*
X-172316D01*
X-172668Y100703D01*
X-173680Y101480D01*
X-174858Y101968D01*
X-176122Y102134D01*
X-178878D01*
X-180142Y101968D01*
X-181320Y101480D01*
X-182332Y100703D01*
X-183108Y99692D01*
X-183596Y98514D01*
X-183762Y97250D01*
X-183596Y95986D01*
X-183108Y94807D01*
X-182332Y93796D01*
X-181320Y93020D01*
X-181004Y92889D01*
Y91610D01*
X-181320Y91480D01*
X-182332Y90703D01*
X-183108Y89692D01*
X-183596Y88514D01*
X-183762Y87250D01*
X-183596Y85985D01*
X-183108Y84807D01*
X-182332Y83796D01*
X-181320Y83020D01*
X-181004Y82889D01*
Y81610D01*
X-181320Y81480D01*
X-182332Y80703D01*
X-183108Y79692D01*
X-183596Y78514D01*
X-183762Y77250D01*
X-183596Y75985D01*
X-183108Y74808D01*
X-182332Y73796D01*
X-181320Y73020D01*
X-181004Y72889D01*
Y71610D01*
X-181320Y71480D01*
X-182332Y70703D01*
X-183108Y69692D01*
X-183596Y68514D01*
X-183762Y67250D01*
X-183596Y65986D01*
X-183108Y64807D01*
X-182332Y63796D01*
X-181650Y63273D01*
X-182052Y62092D01*
X-183721D01*
Y52407D01*
X-171280D01*
Y52630D01*
X-170098Y53171D01*
X-169697Y52824D01*
Y49462D01*
X-169762Y49351D01*
X-170000Y48461D01*
Y47539D01*
X-169762Y46649D01*
X-169301Y45851D01*
X-168649Y45199D01*
X-167851Y44739D01*
X-166961Y44500D01*
X-166039D01*
X-165149Y44739D01*
X-164351Y45199D01*
X-163699Y45851D01*
X-163239Y46649D01*
X-163000Y47539D01*
Y48461D01*
X-163239Y49351D01*
X-163699Y50149D01*
X-163709Y50159D01*
Y54703D01*
X-163811Y55478D01*
X-163987Y55901D01*
X-164110Y56200D01*
X-164586Y56821D01*
X-166893Y59127D01*
X-167513Y59603D01*
X-168235Y59902D01*
X-169010Y60004D01*
X-171280D01*
Y62092D01*
X-172949D01*
X-173349Y63273D01*
X-172668Y63796D01*
X-172316Y64255D01*
X-168490D01*
X-149794Y45560D01*
X-149174Y45084D01*
X-148875Y44960D01*
X-148452Y44785D01*
X-147677Y44683D01*
X-142153D01*
X-141800Y44223D01*
X-140789Y43447D01*
X-140473Y43316D01*
Y42038D01*
X-140789Y41907D01*
X-141800Y41131D01*
X-142221Y40583D01*
X-172384D01*
X-172668Y40954D01*
X-173680Y41730D01*
X-174858Y42218D01*
X-176122Y42384D01*
X-178878D01*
X-180142Y42218D01*
X-181320Y41730D01*
X-182332Y40954D01*
X-183108Y39942D01*
X-183596Y38764D01*
X-183762Y37500D01*
X-183596Y36236D01*
X-183108Y35058D01*
X-182332Y34046D01*
X-181320Y33270D01*
X-181004Y33139D01*
Y31861D01*
X-181320Y31730D01*
X-182332Y30954D01*
X-183108Y29942D01*
X-183596Y28764D01*
X-183762Y27500D01*
X-183596Y26236D01*
X-183108Y25058D01*
X-182332Y24046D01*
X-181320Y23270D01*
X-181004Y23139D01*
Y21861D01*
X-181320Y21730D01*
X-182332Y20954D01*
X-183108Y19942D01*
X-183596Y18764D01*
X-183762Y17500D01*
X-183596Y16236D01*
X-183108Y15058D01*
X-182332Y14046D01*
X-181320Y13270D01*
X-180850Y13075D01*
Y11797D01*
X-181261Y11627D01*
X-182247Y10870D01*
X-183005Y9883D01*
X-183481Y8733D01*
X-183514Y8484D01*
X-177500D01*
X-171486D01*
X-171519Y8733D01*
X-171995Y9883D01*
X-172753Y10870D01*
X-173740Y11627D01*
X-174150Y11797D01*
Y13075D01*
X-173680Y13270D01*
X-172668Y14046D01*
X-172316Y14506D01*
X-156000D01*
X-155225Y14608D01*
X-154503Y14907D01*
X-153883Y15383D01*
X-144583Y24683D01*
X-142153D01*
X-141800Y24223D01*
X-140789Y23447D01*
X-140473Y23316D01*
Y22038D01*
X-140789Y21907D01*
X-141800Y21131D01*
X-142576Y20119D01*
X-143064Y18941D01*
X-143231Y17677D01*
X-143064Y16413D01*
X-142576Y15235D01*
X-141800Y14223D01*
X-140789Y13447D01*
X-140318Y13252D01*
Y11974D01*
X-140729Y11804D01*
X-141716Y11047D01*
X-142473Y10060D01*
X-142949Y8911D01*
X-142982Y8661D01*
X-137362D01*
X-131742D01*
X-131775Y8911D01*
X-132251Y10060D01*
X-133009Y11047D01*
X-133995Y11804D01*
X-134406Y11974D01*
Y13252D01*
X-133936Y13447D01*
X-132924Y14223D01*
X-132640Y14594D01*
X-100968D01*
X-100351Y14239D01*
X-99461Y14000D01*
X-98539D01*
X-97649Y14239D01*
X-96851Y14699D01*
X-96199Y15351D01*
X-95739Y16149D01*
X-95500Y17039D01*
Y17961D01*
X-95739Y18851D01*
X-96199Y19649D01*
X-96851Y20301D01*
X-97649Y20762D01*
X-98539Y21000D01*
X-99461D01*
X-100351Y20762D01*
X-100661Y20583D01*
X-132504D01*
X-132924Y21131D01*
X-133936Y21907D01*
X-134252Y22038D01*
Y23316D01*
X-133936Y23447D01*
X-132924Y24223D01*
X-132640Y24595D01*
X-121425D01*
Y23055D01*
X-112929D01*
Y31945D01*
X-121425D01*
Y30583D01*
X-132504D01*
X-132924Y31131D01*
X-133936Y31907D01*
X-134252Y32038D01*
Y33316D01*
X-133936Y33447D01*
X-132924Y34223D01*
X-132448Y34844D01*
X-121425D01*
Y33555D01*
X-112929D01*
Y42445D01*
X-121425D01*
Y40833D01*
X-132695D01*
X-132924Y41131D01*
X-133936Y41907D01*
X-134252Y42038D01*
Y43316D01*
X-133936Y43447D01*
X-132924Y44223D01*
X-132256Y45094D01*
X-121425D01*
Y44055D01*
X-112929D01*
Y52945D01*
X-121425D01*
Y51083D01*
X-132887D01*
X-132924Y51131D01*
X-133936Y51907D01*
X-134406Y52102D01*
Y53380D01*
X-133995Y53550D01*
X-133009Y54308D01*
X-132251Y55295D01*
X-131775Y56444D01*
X-131742Y56693D01*
X-137362D01*
X-142982D01*
X-142949Y56444D01*
X-142473Y55295D01*
X-141716Y54308D01*
X-140729Y53550D01*
X-140318Y53380D01*
Y52102D01*
X-140789Y51907D01*
X-141800Y51131D01*
X-142153Y50671D01*
X-146437D01*
X-165132Y69367D01*
X-165753Y69843D01*
X-166475Y70142D01*
X-167250Y70244D01*
X-172316D01*
X-172668Y70703D01*
X-173680Y71480D01*
X-173996Y71610D01*
Y72889D01*
X-173680Y73020D01*
X-172668Y73796D01*
X-172316Y74256D01*
X-164490D01*
X-155794Y65560D01*
X-155174Y65084D01*
X-154452Y64785D01*
X-153677Y64683D01*
X-142153D01*
X-141800Y64223D01*
X-140789Y63447D01*
X-140318Y63253D01*
Y61974D01*
X-140729Y61804D01*
X-141716Y61047D01*
X-142473Y60060D01*
X-142949Y58911D01*
X-142982Y58661D01*
X-137362D01*
X-131742D01*
X-131775Y58911D01*
X-132251Y60060D01*
X-133009Y61047D01*
X-133995Y61804D01*
X-134406Y61974D01*
Y63253D01*
X-133936Y63447D01*
X-132924Y64223D01*
X-132640Y64595D01*
X-121425D01*
Y63055D01*
X-112929D01*
Y71945D01*
X-121425D01*
Y70583D01*
X-132504D01*
X-132924Y71131D01*
X-133936Y71907D01*
X-134252Y72038D01*
Y73316D01*
X-133936Y73447D01*
X-132924Y74224D01*
X-132448Y74844D01*
X-121425D01*
Y73555D01*
X-112929D01*
Y82445D01*
X-121425D01*
Y80833D01*
X-132695D01*
X-132924Y81131D01*
X-133936Y81907D01*
X-134252Y82038D01*
Y83316D01*
X-133936Y83447D01*
X-132924Y84224D01*
X-132256Y85094D01*
X-121425D01*
Y84055D01*
X-112929D01*
Y92945D01*
X-121425D01*
Y91083D01*
X-132887D01*
X-132924Y91131D01*
X-133936Y91907D01*
X-134252Y92038D01*
Y93316D01*
X-133936Y93447D01*
X-132924Y94223D01*
X-132148Y95235D01*
X-131660Y96413D01*
X-131494Y97677D01*
X-131660Y98941D01*
X-132148Y100119D01*
X-132924Y101131D01*
X-133936Y101907D01*
X-134406Y102102D01*
Y103380D01*
X-133995Y103550D01*
X-133009Y104308D01*
X-132251Y105295D01*
X-131775Y106444D01*
X-131742Y106693D01*
X-137362D01*
X-142982D01*
X-142949Y106444D01*
X-142473Y105295D01*
X-141716Y104308D01*
X-140729Y103550D01*
X-140318Y103380D01*
Y102102D01*
X-140789Y101907D01*
X-141614Y101274D01*
X-144040D01*
X-145287Y102522D01*
Y104095D01*
X-145215D01*
Y117905D01*
D02*
G37*
G36*
X181016Y94224D02*
X175898D01*
Y90484D01*
X181016D01*
Y94224D01*
D02*
G37*
G36*
X-22898Y79224D02*
X-28016D01*
Y75484D01*
X-22898D01*
Y79224D01*
D02*
G37*
G36*
X-29984D02*
X-35102D01*
Y75484D01*
X-29984D01*
Y79224D01*
D02*
G37*
G36*
X22378Y69765D02*
X21984D01*
Y65984D01*
X27013D01*
X26981Y66233D01*
X26505Y67383D01*
X25747Y68370D01*
X24760Y69127D01*
X23611Y69603D01*
X22378Y69765D01*
D02*
G37*
G36*
X20016D02*
X19622D01*
X18389Y69603D01*
X17240Y69127D01*
X16253Y68370D01*
X15495Y67383D01*
X15019Y66233D01*
X14986Y65984D01*
X20016D01*
Y69765D01*
D02*
G37*
G36*
X72982Y106693D02*
X67362D01*
X61742D01*
X61775Y106444D01*
X62251Y105295D01*
X63008Y104308D01*
X63995Y103550D01*
X64406Y103380D01*
Y102102D01*
X63936Y101907D01*
X62924Y101131D01*
X62148Y100119D01*
X61660Y98941D01*
X61494Y97677D01*
X61660Y96413D01*
X62148Y95235D01*
X62924Y94223D01*
X63936Y93447D01*
X64252Y93316D01*
Y92038D01*
X63936Y91907D01*
X62924Y91131D01*
X62148Y90119D01*
X61660Y88941D01*
X61494Y87677D01*
X61660Y86413D01*
X62148Y85235D01*
X62924Y84224D01*
X63936Y83447D01*
X64252Y83316D01*
Y82038D01*
X63936Y81907D01*
X62924Y81131D01*
X62148Y80119D01*
X61660Y78941D01*
X61494Y77677D01*
X61660Y76413D01*
X62148Y75235D01*
X62924Y74224D01*
X63936Y73447D01*
X64252Y73316D01*
Y72038D01*
X63936Y71907D01*
X62924Y71131D01*
X62148Y70119D01*
X61660Y68941D01*
X61494Y67677D01*
X61660Y66413D01*
X62148Y65235D01*
X62924Y64223D01*
X63936Y63447D01*
X64406Y63253D01*
Y61974D01*
X63995Y61804D01*
X63008Y61047D01*
X62251Y60060D01*
X61775Y58911D01*
X61742Y58661D01*
X67362D01*
X72982D01*
X72949Y58911D01*
X72473Y60060D01*
X71716Y61047D01*
X70729Y61804D01*
X70318Y61974D01*
Y63253D01*
X70789Y63447D01*
X71800Y64223D01*
X72576Y65235D01*
X73064Y66413D01*
X73231Y67677D01*
X73064Y68941D01*
X72576Y70119D01*
X71800Y71131D01*
X70789Y71907D01*
X70473Y72038D01*
Y73316D01*
X70789Y73447D01*
X71800Y74224D01*
X72576Y75235D01*
X73064Y76413D01*
X73231Y77677D01*
X73064Y78941D01*
X72576Y80119D01*
X71800Y81131D01*
X70789Y81907D01*
X70473Y82038D01*
Y83316D01*
X70789Y83447D01*
X71800Y84224D01*
X72576Y85235D01*
X73064Y86413D01*
X73231Y87677D01*
X73064Y88941D01*
X72576Y90119D01*
X71800Y91131D01*
X70789Y91907D01*
X70473Y92038D01*
Y93316D01*
X70789Y93447D01*
X71800Y94223D01*
X72576Y95235D01*
X73064Y96413D01*
X73231Y97677D01*
X73064Y98941D01*
X72576Y100119D01*
X71800Y101131D01*
X70789Y101907D01*
X70318Y102102D01*
Y103380D01*
X70729Y103550D01*
X71716Y104308D01*
X72473Y105295D01*
X72949Y106444D01*
X72982Y106693D01*
D02*
G37*
G36*
X23984Y35047D02*
Y32484D01*
X26547D01*
X26430Y32921D01*
X25946Y33760D01*
X25260Y34446D01*
X24421Y34930D01*
X23984Y35047D01*
D02*
G37*
G36*
X22016D02*
X21579Y34930D01*
X20740Y34446D01*
X20054Y33760D01*
X19570Y32921D01*
X19453Y32484D01*
X22016D01*
Y35047D01*
D02*
G37*
G36*
X26547Y30516D02*
X23984D01*
Y27953D01*
X24421Y28070D01*
X25260Y28554D01*
X25946Y29240D01*
X26430Y30079D01*
X26547Y30516D01*
D02*
G37*
G36*
X22016D02*
X19453D01*
X19570Y30079D01*
X20054Y29240D01*
X20740Y28554D01*
X21579Y28070D01*
X22016Y27953D01*
Y30516D01*
D02*
G37*
G36*
X-119516Y8047D02*
Y5484D01*
X-116953D01*
X-117070Y5921D01*
X-117554Y6760D01*
X-118240Y7446D01*
X-119079Y7930D01*
X-119516Y8047D01*
D02*
G37*
G36*
X-121484D02*
X-121921Y7930D01*
X-122760Y7446D01*
X-123446Y6760D01*
X-123930Y5921D01*
X-124047Y5484D01*
X-121484D01*
Y8047D01*
D02*
G37*
G36*
X-116953Y3516D02*
X-119516D01*
Y953D01*
X-119079Y1070D01*
X-118240Y1554D01*
X-117554Y2240D01*
X-117070Y3079D01*
X-116953Y3516D01*
D02*
G37*
G36*
X-121484D02*
X-124047D01*
X-123930Y3079D01*
X-123446Y2240D01*
X-122760Y1554D01*
X-121921Y1070D01*
X-121484Y953D01*
Y3516D01*
D02*
G37*
G36*
X188220Y32342D02*
X175779D01*
Y30023D01*
X173529D01*
X172754Y29921D01*
X172031Y29622D01*
X171411Y29146D01*
X143210Y944D01*
X141895Y1007D01*
X141800Y1131D01*
X140789Y1907D01*
X140318Y2102D01*
Y3380D01*
X140729Y3550D01*
X141716Y4308D01*
X142473Y5295D01*
X142949Y6444D01*
X142982Y6693D01*
X137362D01*
X131742D01*
X131775Y6444D01*
X132251Y5295D01*
X133009Y4308D01*
X133995Y3550D01*
X134406Y3380D01*
Y2102D01*
X133936Y1907D01*
X132924Y1131D01*
X132148Y119D01*
X131660Y-1059D01*
X131494Y-2323D01*
X131660Y-3587D01*
X132148Y-4765D01*
X132924Y-5777D01*
X133936Y-6553D01*
X134252Y-6684D01*
Y-7962D01*
X133936Y-8093D01*
X132924Y-8869D01*
X132148Y-9881D01*
X131660Y-11059D01*
X131494Y-12323D01*
X131660Y-13587D01*
X132148Y-14765D01*
X132924Y-15777D01*
X133936Y-16553D01*
X135114Y-17041D01*
X136378Y-17207D01*
X138347D01*
X139611Y-17041D01*
X140789Y-16553D01*
X141800Y-15777D01*
X142153Y-15317D01*
X146677D01*
X147452Y-15215D01*
X148174Y-14916D01*
X148794Y-14440D01*
X167740Y4506D01*
X176815D01*
X177168Y4046D01*
X178179Y3270D01*
X178649Y3075D01*
Y1797D01*
X178239Y1627D01*
X177252Y869D01*
X176495Y-117D01*
X176019Y-1267D01*
X175986Y-1516D01*
X181999D01*
X188013D01*
X187980Y-1267D01*
X187504Y-117D01*
X186747Y869D01*
X185760Y1627D01*
X185349Y1797D01*
Y3075D01*
X185819Y3270D01*
X186831Y4046D01*
X187607Y5058D01*
X188095Y6236D01*
X188262Y7500D01*
X188095Y8764D01*
X187607Y9942D01*
X186831Y10954D01*
X185819Y11730D01*
X185504Y11861D01*
Y13139D01*
X185819Y13270D01*
X186831Y14046D01*
X187607Y15058D01*
X188095Y16236D01*
X188262Y17500D01*
X188095Y18764D01*
X187607Y19942D01*
X186831Y20954D01*
X186150Y21476D01*
X186551Y22658D01*
X188220D01*
Y32342D01*
D02*
G37*
G36*
X26961Y24500D02*
X26039D01*
X25149Y24261D01*
X24351Y23801D01*
X23699Y23149D01*
X23238Y22351D01*
X23000Y21461D01*
Y20539D01*
X23238Y19649D01*
X23699Y18851D01*
X24351Y18199D01*
X24858Y17906D01*
X24975Y17448D01*
Y17052D01*
X24858Y16594D01*
X24351Y16301D01*
X23699Y15649D01*
X23238Y14851D01*
X23000Y13961D01*
Y13039D01*
X23238Y12149D01*
X23699Y11351D01*
X24351Y10699D01*
X25149Y10238D01*
X26039Y10000D01*
X26961D01*
X27851Y10238D01*
X28649Y10699D01*
X29226Y11276D01*
X33865D01*
X34776Y10365D01*
Y2305D01*
X34695Y2224D01*
X21067D01*
X20216Y2055D01*
X19494Y1572D01*
X19012Y851D01*
X18843Y-0D01*
X19012Y-851D01*
X19494Y-1572D01*
X19900Y-1844D01*
X19960Y-2052D01*
X19960Y-2947D01*
X19900Y-3156D01*
X19494Y-3427D01*
X19012Y-4149D01*
X18843Y-5000D01*
X19012Y-5851D01*
X19494Y-6572D01*
X19737Y-6735D01*
X19747Y-6759D01*
X19709Y-8066D01*
X19364Y-8297D01*
X18884Y-9016D01*
X25791D01*
X32699D01*
X32291Y-8405D01*
X32415Y-7891D01*
X32739Y-7224D01*
X36500D01*
X36500Y-7224D01*
X37351Y-7055D01*
X38072Y-6572D01*
X43073Y-1572D01*
X43073Y-1572D01*
X43555Y-851D01*
X43724Y0D01*
X43724Y0D01*
Y15500D01*
X43555Y16351D01*
X43073Y17073D01*
X43073Y17073D01*
X37573Y22572D01*
X36851Y23055D01*
X36000Y23224D01*
X36000Y23224D01*
X29226D01*
X28649Y23801D01*
X27851Y24261D01*
X26961Y24500D01*
D02*
G37*
G36*
X188013Y-3484D02*
X181999D01*
X175986D01*
X176019Y-3733D01*
X176495Y-4883D01*
X177252Y-5869D01*
X178239Y-6627D01*
X178649Y-6797D01*
Y-8075D01*
X178179Y-8270D01*
X177168Y-9046D01*
X176391Y-10058D01*
X176301Y-10276D01*
X170500D01*
X170500Y-10276D01*
X169649Y-10445D01*
X168928Y-10927D01*
X168928Y-10927D01*
X162079Y-17776D01*
X158726D01*
X158149Y-17199D01*
X157351Y-16738D01*
X156461Y-16500D01*
X155539D01*
X154649Y-16738D01*
X153851Y-17199D01*
X153199Y-17851D01*
X152738Y-18649D01*
X152500Y-19539D01*
Y-20461D01*
X152738Y-21351D01*
X153199Y-22149D01*
X153851Y-22801D01*
X154649Y-23261D01*
X155539Y-23500D01*
X156461D01*
X157351Y-23261D01*
X158149Y-22801D01*
X158726Y-22224D01*
X163000D01*
X163000Y-22224D01*
X163851Y-22055D01*
X164573Y-21573D01*
X171421Y-14724D01*
X176301D01*
X176391Y-14942D01*
X177168Y-15954D01*
X178179Y-16730D01*
X179357Y-17218D01*
X180621Y-17384D01*
X183377D01*
X184642Y-17218D01*
X185819Y-16730D01*
X186831Y-15954D01*
X187607Y-14942D01*
X188095Y-13764D01*
X188262Y-12500D01*
X188095Y-11236D01*
X187607Y-10058D01*
X186831Y-9046D01*
X185819Y-8270D01*
X185349Y-8075D01*
Y-6797D01*
X185760Y-6627D01*
X186747Y-5869D01*
X187504Y-4883D01*
X187980Y-3733D01*
X188013Y-3484D01*
D02*
G37*
G36*
X72982Y56693D02*
X67362D01*
X61742D01*
X61775Y56444D01*
X62251Y55295D01*
X63008Y54308D01*
X63995Y53550D01*
X64406Y53380D01*
Y52102D01*
X63936Y51907D01*
X62924Y51131D01*
X62148Y50119D01*
X61660Y48941D01*
X61494Y47677D01*
X61660Y46413D01*
X62148Y45235D01*
X62924Y44223D01*
X63936Y43447D01*
X64252Y43316D01*
Y42038D01*
X63936Y41907D01*
X62924Y41131D01*
X62148Y40119D01*
X61660Y38941D01*
X61494Y37677D01*
X61660Y36413D01*
X62148Y35235D01*
X62924Y34223D01*
X63936Y33447D01*
X64252Y33316D01*
Y32038D01*
X63936Y31907D01*
X62924Y31131D01*
X62148Y30119D01*
X61660Y28941D01*
X61494Y27677D01*
X61660Y26413D01*
X62148Y25235D01*
X62924Y24223D01*
X63936Y23447D01*
X64252Y23316D01*
Y22038D01*
X63936Y21907D01*
X62924Y21131D01*
X62148Y20119D01*
X61660Y18941D01*
X61494Y17677D01*
X61660Y16413D01*
X62148Y15235D01*
X62924Y14223D01*
X63936Y13447D01*
X64406Y13252D01*
Y11974D01*
X63995Y11804D01*
X63008Y11047D01*
X62251Y10060D01*
X61775Y8911D01*
X61742Y8661D01*
X67362D01*
X72982D01*
X72949Y8911D01*
X72473Y10060D01*
X71716Y11047D01*
X70729Y11804D01*
X70318Y11974D01*
Y13252D01*
X70789Y13447D01*
X71800Y14223D01*
X72153Y14683D01*
X82083D01*
X84506Y12260D01*
Y-13186D01*
X84238Y-13649D01*
X84000Y-14539D01*
Y-15461D01*
X84238Y-16351D01*
X84699Y-17149D01*
X85351Y-17801D01*
X86149Y-18261D01*
X87039Y-18500D01*
X87961D01*
X88851Y-18261D01*
X89649Y-17801D01*
X90301Y-17149D01*
X90762Y-16351D01*
X91000Y-15461D01*
Y-14539D01*
X90762Y-13649D01*
X90494Y-13186D01*
Y13500D01*
X90392Y14275D01*
X90217Y14698D01*
X90093Y14997D01*
X89617Y15617D01*
X85440Y19794D01*
X84820Y20270D01*
X84098Y20569D01*
X83323Y20671D01*
X72153D01*
X71800Y21131D01*
X70789Y21907D01*
X70473Y22038D01*
Y23316D01*
X70789Y23447D01*
X71800Y24223D01*
X72153Y24683D01*
X85583D01*
X93006Y17260D01*
Y-13186D01*
X92738Y-13649D01*
X92500Y-14539D01*
Y-15461D01*
X92738Y-16351D01*
X93199Y-17149D01*
X93851Y-17801D01*
X94649Y-18261D01*
X95539Y-18500D01*
X96461D01*
X97351Y-18261D01*
X98149Y-17801D01*
X98801Y-17149D01*
X99261Y-16351D01*
X99500Y-15461D01*
Y-14539D01*
X99261Y-13649D01*
X98994Y-13186D01*
Y18500D01*
X98892Y19275D01*
X98593Y19997D01*
X98117Y20617D01*
X88940Y29794D01*
X88320Y30270D01*
X87598Y30569D01*
X86823Y30671D01*
X72153D01*
X71800Y31131D01*
X70789Y31907D01*
X70473Y32038D01*
Y33316D01*
X70789Y33447D01*
X71800Y34223D01*
X72153Y34683D01*
X87583D01*
X101506Y20760D01*
Y-13186D01*
X101239Y-13649D01*
X101000Y-14539D01*
Y-15461D01*
X101239Y-16351D01*
X101699Y-17149D01*
X102351Y-17801D01*
X103149Y-18261D01*
X104039Y-18500D01*
X104961D01*
X105851Y-18261D01*
X106649Y-17801D01*
X107301Y-17149D01*
X107762Y-16351D01*
X108000Y-15461D01*
Y-14539D01*
X107762Y-13649D01*
X107494Y-13186D01*
Y22000D01*
X107392Y22775D01*
X107093Y23497D01*
X106617Y24117D01*
X90940Y39794D01*
X90320Y40270D01*
X89598Y40569D01*
X88823Y40671D01*
X72153D01*
X71800Y41131D01*
X70789Y41907D01*
X70473Y42038D01*
Y43316D01*
X70789Y43447D01*
X71800Y44223D01*
X72153Y44683D01*
X89083D01*
X110506Y23260D01*
Y-13186D01*
X110239Y-13649D01*
X110000Y-14539D01*
Y-15461D01*
X110239Y-16351D01*
X110699Y-17149D01*
X111351Y-17801D01*
X112149Y-18261D01*
X113039Y-18500D01*
X113961D01*
X114851Y-18261D01*
X115649Y-17801D01*
X116301Y-17149D01*
X116762Y-16351D01*
X117000Y-15461D01*
Y-14539D01*
X116762Y-13649D01*
X116494Y-13186D01*
Y24500D01*
X116392Y25275D01*
X116093Y25997D01*
X115617Y26617D01*
X92440Y49794D01*
X91820Y50270D01*
X91098Y50569D01*
X90323Y50671D01*
X72153D01*
X71800Y51131D01*
X70789Y51907D01*
X70318Y52102D01*
Y53380D01*
X70729Y53550D01*
X71716Y54308D01*
X72473Y55295D01*
X72949Y56444D01*
X72982Y56693D01*
D02*
G37*
G36*
X-171486Y6516D02*
X-177500D01*
X-183514D01*
X-183481Y6267D01*
X-183005Y5117D01*
X-182247Y4131D01*
X-181456Y3524D01*
X-181570Y2751D01*
X-181773Y2342D01*
X-183721D01*
Y-7343D01*
X-182480D01*
Y-16666D01*
X-186000D01*
X-187289Y-16836D01*
X-188490Y-17333D01*
X-188574Y-17398D01*
X-190445D01*
Y-19476D01*
X-190810Y-20357D01*
X-190980Y-21646D01*
X-190810Y-22934D01*
X-190445Y-23816D01*
Y-25894D01*
X-188574D01*
X-188490Y-25958D01*
X-187289Y-26456D01*
X-186000Y-26625D01*
X-175177D01*
X-173888Y-26456D01*
X-172959Y-26071D01*
X-170555D01*
Y-23388D01*
X-170367Y-22934D01*
X-170198Y-21646D01*
X-170367Y-20357D01*
X-170555Y-19903D01*
Y-17575D01*
X-172372D01*
X-172520Y-17461D01*
Y-7343D01*
X-171280D01*
Y2342D01*
X-173227D01*
X-173430Y2751D01*
X-173544Y3524D01*
X-172753Y4131D01*
X-171995Y5117D01*
X-171519Y6267D01*
X-171486Y6516D01*
D02*
G37*
G36*
X-148539Y-44000D02*
X-149461D01*
X-150351Y-44238D01*
X-151149Y-44699D01*
X-151726Y-45276D01*
X-155500D01*
X-155500Y-45276D01*
X-156351Y-45445D01*
X-157072Y-45928D01*
X-157072Y-45928D01*
X-163573Y-52428D01*
X-164055Y-53149D01*
X-164224Y-54000D01*
X-164224Y-54000D01*
Y-62097D01*
X-164442Y-62187D01*
X-165454Y-62964D01*
X-166230Y-63975D01*
X-166361Y-64291D01*
X-167639D01*
X-167770Y-63975D01*
X-168546Y-62964D01*
X-169558Y-62187D01*
X-169776Y-62097D01*
Y-53921D01*
X-166855Y-51000D01*
X-166039D01*
X-165149Y-50761D01*
X-164351Y-50301D01*
X-163699Y-49649D01*
X-163239Y-48851D01*
X-163000Y-47961D01*
Y-47039D01*
X-163239Y-46149D01*
X-163699Y-45351D01*
X-164351Y-44699D01*
X-165149Y-44238D01*
X-166039Y-44000D01*
X-166961D01*
X-167851Y-44238D01*
X-168649Y-44699D01*
X-169301Y-45351D01*
X-169762Y-46149D01*
X-170000Y-47039D01*
Y-47855D01*
X-173573Y-51428D01*
X-174055Y-52149D01*
X-174224Y-53000D01*
X-174224Y-53000D01*
Y-62097D01*
X-174442Y-62187D01*
X-175454Y-62964D01*
X-176230Y-63975D01*
X-176718Y-65153D01*
X-176884Y-66417D01*
Y-68386D01*
X-176718Y-69650D01*
X-176230Y-70828D01*
X-175454Y-71839D01*
X-174442Y-72616D01*
X-173264Y-73104D01*
X-172000Y-73270D01*
X-170736Y-73104D01*
X-169558Y-72616D01*
X-168546Y-71839D01*
X-167770Y-70828D01*
X-167639Y-70512D01*
X-166361D01*
X-166230Y-70828D01*
X-165454Y-71839D01*
X-164442Y-72616D01*
X-163264Y-73104D01*
X-162000Y-73270D01*
X-160736Y-73104D01*
X-159558Y-72616D01*
X-158546Y-71839D01*
X-157770Y-70828D01*
X-157575Y-70358D01*
X-156297D01*
X-156127Y-70768D01*
X-155369Y-71755D01*
X-154383Y-72513D01*
X-153233Y-72989D01*
X-152984Y-73021D01*
Y-67402D01*
Y-61782D01*
X-153233Y-61814D01*
X-154383Y-62291D01*
X-155369Y-63048D01*
X-156127Y-64035D01*
X-156297Y-64445D01*
X-157575D01*
X-157770Y-63975D01*
X-158546Y-62964D01*
X-159558Y-62187D01*
X-159776Y-62097D01*
Y-54921D01*
X-154579Y-49724D01*
X-151726D01*
X-151149Y-50301D01*
X-150351Y-50761D01*
X-149461Y-51000D01*
X-148539D01*
X-147649Y-50761D01*
X-146851Y-50301D01*
X-146199Y-49649D01*
X-145738Y-48851D01*
X-145500Y-47961D01*
Y-47039D01*
X-145738Y-46149D01*
X-146199Y-45351D01*
X-146851Y-44699D01*
X-147649Y-44238D01*
X-148539Y-44000D01*
D02*
G37*
G36*
X171984Y-51453D02*
Y-54016D01*
X174547D01*
X174430Y-53579D01*
X173946Y-52740D01*
X173260Y-52054D01*
X172421Y-51570D01*
X171984Y-51453D01*
D02*
G37*
G36*
X170016D02*
X169579Y-51570D01*
X168740Y-52054D01*
X168054Y-52740D01*
X167570Y-53579D01*
X167453Y-54016D01*
X170016D01*
Y-51453D01*
D02*
G37*
G36*
X174547Y-55984D02*
X171984D01*
Y-58547D01*
X172421Y-58430D01*
X173260Y-57946D01*
X173946Y-57260D01*
X174430Y-56421D01*
X174547Y-55984D01*
D02*
G37*
G36*
X170016D02*
X167453D01*
X167570Y-56421D01*
X168054Y-57260D01*
X168740Y-57946D01*
X169579Y-58430D01*
X170016Y-58547D01*
Y-55984D01*
D02*
G37*
G36*
X-4016Y-97953D02*
Y-100516D01*
X-1453D01*
X-1570Y-100079D01*
X-2054Y-99240D01*
X-2740Y-98554D01*
X-3579Y-98070D01*
X-4016Y-97953D01*
D02*
G37*
G36*
X-5984D02*
X-6421Y-98070D01*
X-7260Y-98554D01*
X-7946Y-99240D01*
X-8430Y-100079D01*
X-8547Y-100516D01*
X-5984D01*
Y-97953D01*
D02*
G37*
G36*
X-162000Y-101533D02*
X-163264Y-101699D01*
X-164442Y-102187D01*
X-165454Y-102964D01*
X-166230Y-103975D01*
X-166361Y-104291D01*
X-167639D01*
X-167770Y-103975D01*
X-168546Y-102964D01*
X-169558Y-102187D01*
X-170736Y-101699D01*
X-172000Y-101533D01*
X-173264Y-101699D01*
X-174442Y-102187D01*
X-175454Y-102964D01*
X-176230Y-103975D01*
X-176718Y-105153D01*
X-176884Y-106417D01*
Y-108386D01*
X-176718Y-109650D01*
X-176230Y-110828D01*
X-175454Y-111840D01*
X-174994Y-112192D01*
Y-122760D01*
X-189117Y-136883D01*
X-189593Y-137503D01*
X-189892Y-138225D01*
X-189994Y-139000D01*
Y-154500D01*
X-189892Y-155275D01*
X-189593Y-155997D01*
X-189117Y-156617D01*
X-186452Y-159283D01*
X-185832Y-159758D01*
X-185110Y-160057D01*
X-184335Y-160160D01*
X-178684D01*
X-178332Y-160619D01*
X-177320Y-161395D01*
X-176850Y-161590D01*
Y-162868D01*
X-177260Y-163039D01*
X-178247Y-163796D01*
X-179005Y-164783D01*
X-179481Y-165932D01*
X-179514Y-166181D01*
X-173500D01*
X-167486D01*
X-167519Y-165932D01*
X-167995Y-164783D01*
X-168753Y-163796D01*
X-169739Y-163039D01*
X-170150Y-162868D01*
Y-161590D01*
X-169680Y-161395D01*
X-168668Y-160619D01*
X-167892Y-159608D01*
X-167404Y-158430D01*
X-167238Y-157165D01*
X-167404Y-155901D01*
X-167892Y-154723D01*
X-168668Y-153712D01*
X-169680Y-152935D01*
X-169996Y-152805D01*
Y-151526D01*
X-169680Y-151395D01*
X-168668Y-150619D01*
X-167892Y-149608D01*
X-167404Y-148430D01*
X-167238Y-147165D01*
X-167404Y-145901D01*
X-167892Y-144723D01*
X-168668Y-143712D01*
X-169680Y-142935D01*
X-170506Y-142593D01*
Y-138740D01*
X-159883Y-128117D01*
X-159407Y-127497D01*
X-159108Y-126775D01*
X-159006Y-126000D01*
Y-112192D01*
X-158546Y-111840D01*
X-157770Y-110828D01*
X-157575Y-110358D01*
X-156297D01*
X-156127Y-110768D01*
X-155369Y-111755D01*
X-154383Y-112513D01*
X-153233Y-112989D01*
X-152984Y-113021D01*
Y-107402D01*
Y-101782D01*
X-153233Y-101814D01*
X-154383Y-102290D01*
X-155369Y-103048D01*
X-156127Y-104035D01*
X-156297Y-104445D01*
X-157575D01*
X-157770Y-103975D01*
X-158546Y-102964D01*
X-159558Y-102187D01*
X-160736Y-101699D01*
X-162000Y-101533D01*
D02*
G37*
G36*
X-1453Y-102484D02*
X-4016D01*
Y-105047D01*
X-3579Y-104930D01*
X-2740Y-104446D01*
X-2054Y-103760D01*
X-1570Y-102921D01*
X-1453Y-102484D01*
D02*
G37*
G36*
X-5984D02*
X-8547D01*
X-8430Y-102921D01*
X-7946Y-103760D01*
X-7260Y-104446D01*
X-6421Y-104930D01*
X-5984Y-105047D01*
Y-102484D01*
D02*
G37*
G36*
X-173039Y-87500D02*
X-173961D01*
X-174851Y-87739D01*
X-175649Y-88199D01*
X-176301Y-88851D01*
X-176761Y-89649D01*
X-177000Y-90539D01*
Y-91461D01*
X-176761Y-92351D01*
X-176301Y-93149D01*
X-175649Y-93801D01*
X-174851Y-94261D01*
X-173961Y-94500D01*
X-173039D01*
X-172149Y-94261D01*
X-171686Y-93994D01*
X-144994D01*
Y-102611D01*
X-145454Y-102964D01*
X-146230Y-103975D01*
X-146425Y-104445D01*
X-147703D01*
X-147873Y-104035D01*
X-148630Y-103048D01*
X-149617Y-102290D01*
X-150767Y-101814D01*
X-151016Y-101782D01*
Y-107402D01*
Y-113021D01*
X-150767Y-112989D01*
X-149617Y-112513D01*
X-148630Y-111755D01*
X-147873Y-110768D01*
X-147703Y-110358D01*
X-146425D01*
X-146230Y-110828D01*
X-145454Y-111840D01*
X-144442Y-112616D01*
X-143264Y-113104D01*
X-142000Y-113270D01*
X-140736Y-113104D01*
X-139558Y-112616D01*
X-138546Y-111840D01*
X-137770Y-110828D01*
X-137639Y-110512D01*
X-136361D01*
X-136230Y-110828D01*
X-135454Y-111840D01*
X-134994Y-112192D01*
Y-117760D01*
X-154117Y-136883D01*
X-154593Y-137503D01*
X-154892Y-138225D01*
X-154994Y-139000D01*
Y-153500D01*
X-154892Y-154275D01*
X-154593Y-154997D01*
X-154117Y-155617D01*
X-151054Y-158680D01*
X-150434Y-159156D01*
X-149712Y-159455D01*
X-148937Y-159557D01*
X-146254D01*
X-146233Y-159608D01*
X-145457Y-160619D01*
X-144445Y-161395D01*
X-143975Y-161590D01*
Y-162868D01*
X-144386Y-163039D01*
X-145372Y-163796D01*
X-146130Y-164783D01*
X-146606Y-165932D01*
X-146639Y-166181D01*
X-140625D01*
X-134611D01*
X-134644Y-165932D01*
X-135120Y-164783D01*
X-135878Y-163796D01*
X-136864Y-163039D01*
X-137275Y-162868D01*
Y-161590D01*
X-136805Y-161395D01*
X-135793Y-160619D01*
X-135017Y-159608D01*
X-134529Y-158430D01*
X-134363Y-157165D01*
X-134529Y-155901D01*
X-135017Y-154723D01*
X-135793Y-153712D01*
X-136805Y-152935D01*
X-137121Y-152805D01*
Y-151526D01*
X-136805Y-151395D01*
X-135793Y-150619D01*
X-135017Y-149608D01*
X-134529Y-148430D01*
X-134363Y-147165D01*
X-134529Y-145901D01*
X-135017Y-144723D01*
X-135793Y-143712D01*
X-136805Y-142935D01*
X-137631Y-142593D01*
Y-139865D01*
X-119883Y-122117D01*
X-119407Y-121497D01*
X-119108Y-120775D01*
X-119006Y-120000D01*
Y-112192D01*
X-118546Y-111840D01*
X-117770Y-110828D01*
X-117282Y-109650D01*
X-117116Y-108386D01*
Y-106417D01*
X-117282Y-105153D01*
X-117770Y-103975D01*
X-118546Y-102964D01*
X-119558Y-102187D01*
X-120736Y-101699D01*
X-122000Y-101533D01*
X-123264Y-101699D01*
X-124442Y-102187D01*
X-125454Y-102964D01*
X-126230Y-103975D01*
X-126361Y-104291D01*
X-127639D01*
X-127770Y-103975D01*
X-128546Y-102964D01*
X-129558Y-102187D01*
X-130736Y-101699D01*
X-132000Y-101533D01*
X-133264Y-101699D01*
X-134442Y-102187D01*
X-135454Y-102964D01*
X-136230Y-103975D01*
X-136361Y-104291D01*
X-137639D01*
X-137770Y-103975D01*
X-138546Y-102964D01*
X-139006Y-102611D01*
Y-93994D01*
X-59994D01*
Y-102709D01*
X-60454Y-103062D01*
X-61230Y-104074D01*
X-61425Y-104544D01*
X-62703D01*
X-62873Y-104133D01*
X-63630Y-103146D01*
X-64617Y-102389D01*
X-65767Y-101913D01*
X-66016Y-101880D01*
Y-107500D01*
Y-113120D01*
X-65767Y-113087D01*
X-64617Y-112611D01*
X-63630Y-111854D01*
X-62873Y-110867D01*
X-62703Y-110456D01*
X-61425D01*
X-61230Y-110926D01*
X-60454Y-111938D01*
X-59442Y-112714D01*
X-58264Y-113202D01*
X-57000Y-113369D01*
X-55736Y-113202D01*
X-54558Y-112714D01*
X-53546Y-111938D01*
X-52770Y-110926D01*
X-52639Y-110610D01*
X-51361D01*
X-51230Y-110926D01*
X-50454Y-111938D01*
X-49994Y-112291D01*
Y-117760D01*
X-60974Y-128740D01*
X-73734D01*
X-74509Y-128842D01*
X-75231Y-129141D01*
X-75254Y-129158D01*
X-76034Y-128269D01*
X-74883Y-127117D01*
X-74407Y-126497D01*
X-74108Y-125775D01*
X-74006Y-125000D01*
Y-112291D01*
X-73546Y-111938D01*
X-72770Y-110926D01*
X-72575Y-110456D01*
X-71297D01*
X-71127Y-110867D01*
X-70369Y-111854D01*
X-69383Y-112611D01*
X-68233Y-113087D01*
X-67984Y-113120D01*
Y-107500D01*
Y-101880D01*
X-68233Y-101913D01*
X-69383Y-102389D01*
X-70369Y-103146D01*
X-71127Y-104133D01*
X-71297Y-104544D01*
X-72575D01*
X-72770Y-104074D01*
X-73546Y-103062D01*
X-74558Y-102286D01*
X-75736Y-101798D01*
X-77000Y-101631D01*
X-78264Y-101798D01*
X-79442Y-102286D01*
X-80454Y-103062D01*
X-81230Y-104074D01*
X-81361Y-104390D01*
X-82639D01*
X-82770Y-104074D01*
X-83546Y-103062D01*
X-84558Y-102286D01*
X-85736Y-101798D01*
X-87000Y-101631D01*
X-88264Y-101798D01*
X-89442Y-102286D01*
X-90454Y-103062D01*
X-91230Y-104074D01*
X-91718Y-105252D01*
X-91884Y-106516D01*
Y-108484D01*
X-91718Y-109748D01*
X-91230Y-110926D01*
X-90454Y-111938D01*
X-89994Y-112291D01*
Y-123260D01*
X-102240Y-135506D01*
X-113000D01*
X-113775Y-135608D01*
X-114198Y-135783D01*
X-114497Y-135907D01*
X-115117Y-136383D01*
X-121117Y-142383D01*
X-121593Y-143003D01*
X-121892Y-143725D01*
X-121994Y-144500D01*
Y-154500D01*
X-121892Y-155275D01*
X-121593Y-155997D01*
X-121117Y-156617D01*
X-118452Y-159283D01*
X-117832Y-159758D01*
X-117110Y-160057D01*
X-116335Y-160160D01*
X-112934D01*
X-112582Y-160619D01*
X-111570Y-161395D01*
X-111100Y-161590D01*
Y-162868D01*
X-111511Y-163039D01*
X-112497Y-163796D01*
X-113255Y-164783D01*
X-113731Y-165932D01*
X-113764Y-166181D01*
X-107750D01*
X-101736D01*
X-101769Y-165932D01*
X-102245Y-164783D01*
X-103003Y-163796D01*
X-103990Y-163039D01*
X-104400Y-162868D01*
Y-161590D01*
X-103930Y-161395D01*
X-102918Y-160619D01*
X-102142Y-159608D01*
X-101654Y-158430D01*
X-101488Y-157165D01*
X-101654Y-155901D01*
X-102142Y-154723D01*
X-102918Y-153712D01*
X-103930Y-152935D01*
X-104246Y-152805D01*
Y-151526D01*
X-103930Y-151395D01*
X-102918Y-150619D01*
X-102566Y-150160D01*
X-99165D01*
X-98390Y-150057D01*
X-97668Y-149758D01*
X-97048Y-149283D01*
X-89465Y-141700D01*
X-88576Y-142480D01*
X-88593Y-142503D01*
X-88892Y-143225D01*
X-88994Y-144000D01*
Y-154811D01*
X-88892Y-155586D01*
X-88593Y-156308D01*
X-88117Y-156928D01*
X-85811Y-159235D01*
X-85191Y-159711D01*
X-84892Y-159834D01*
X-84469Y-160010D01*
X-83694Y-160112D01*
X-80096D01*
X-79707Y-160619D01*
X-78695Y-161395D01*
X-78225Y-161590D01*
Y-162868D01*
X-78636Y-163039D01*
X-79622Y-163796D01*
X-80380Y-164783D01*
X-80856Y-165932D01*
X-80888Y-166181D01*
X-74875D01*
X-68862D01*
X-68894Y-165932D01*
X-69370Y-164783D01*
X-70128Y-163796D01*
X-71114Y-163039D01*
X-71525Y-162868D01*
Y-161590D01*
X-71055Y-161395D01*
X-70043Y-160619D01*
X-69267Y-159608D01*
X-68779Y-158430D01*
X-68613Y-157165D01*
X-68779Y-155901D01*
X-69267Y-154723D01*
X-70043Y-153712D01*
X-71055Y-152935D01*
X-71371Y-152805D01*
Y-151526D01*
X-71055Y-151395D01*
X-70043Y-150619D01*
X-69691Y-150160D01*
X-61665D01*
X-60890Y-150057D01*
X-60168Y-149758D01*
X-59548Y-149283D01*
X-34883Y-124617D01*
X-34407Y-123997D01*
X-34283Y-123698D01*
X-34108Y-123275D01*
X-34006Y-122500D01*
Y-112291D01*
X-33546Y-111938D01*
X-32770Y-110926D01*
X-32282Y-109748D01*
X-32116Y-108484D01*
Y-106516D01*
X-32282Y-105252D01*
X-32770Y-104074D01*
X-33546Y-103062D01*
X-34558Y-102286D01*
X-35736Y-101798D01*
X-37000Y-101631D01*
X-38264Y-101798D01*
X-39442Y-102286D01*
X-40454Y-103062D01*
X-41230Y-104074D01*
X-41361Y-104390D01*
X-42639D01*
X-42770Y-104074D01*
X-43546Y-103062D01*
X-44558Y-102286D01*
X-45736Y-101798D01*
X-47000Y-101631D01*
X-48264Y-101798D01*
X-49442Y-102286D01*
X-50454Y-103062D01*
X-51230Y-104074D01*
X-51361Y-104390D01*
X-52639D01*
X-52770Y-104074D01*
X-53546Y-103062D01*
X-54006Y-102709D01*
Y-93994D01*
X-31240D01*
X-22494Y-102740D01*
Y-160186D01*
X-22761Y-160649D01*
X-23000Y-161539D01*
Y-162461D01*
X-22761Y-163351D01*
X-22301Y-164149D01*
X-21649Y-164801D01*
X-20851Y-165261D01*
X-19961Y-165500D01*
X-19039D01*
X-18149Y-165261D01*
X-17351Y-164801D01*
X-16699Y-164149D01*
X-16239Y-163351D01*
X-16000Y-162461D01*
Y-161539D01*
X-16239Y-160649D01*
X-16506Y-160186D01*
Y-101500D01*
X-16608Y-100725D01*
X-16783Y-100302D01*
X-16907Y-100003D01*
X-17383Y-99383D01*
X-27883Y-88883D01*
X-28503Y-88407D01*
X-29225Y-88108D01*
X-30000Y-88006D01*
X-171686D01*
X-172149Y-87739D01*
X-173039Y-87500D01*
D02*
G37*
G36*
X-32039Y-133000D02*
X-32961D01*
X-33851Y-133238D01*
X-34649Y-133699D01*
X-35301Y-134351D01*
X-35761Y-135149D01*
X-35900Y-135666D01*
X-44117Y-143883D01*
X-44593Y-144503D01*
X-44892Y-145225D01*
X-44994Y-146000D01*
Y-152593D01*
X-45820Y-152935D01*
X-46832Y-153712D01*
X-47608Y-154723D01*
X-48096Y-155901D01*
X-48262Y-157165D01*
X-48096Y-158430D01*
X-47608Y-159608D01*
X-46832Y-160619D01*
X-45820Y-161395D01*
X-45350Y-161590D01*
Y-162868D01*
X-45761Y-163039D01*
X-46747Y-163796D01*
X-47505Y-164783D01*
X-47981Y-165932D01*
X-48013Y-166181D01*
X-42000D01*
X-35987D01*
X-36019Y-165932D01*
X-36495Y-164783D01*
X-37253Y-163796D01*
X-38239Y-163039D01*
X-38650Y-162868D01*
Y-161590D01*
X-38180Y-161395D01*
X-37168Y-160619D01*
X-36392Y-159608D01*
X-35904Y-158430D01*
X-35738Y-157165D01*
X-35904Y-155901D01*
X-36392Y-154723D01*
X-37168Y-153712D01*
X-38180Y-152935D01*
X-39006Y-152593D01*
Y-147240D01*
X-31666Y-139900D01*
X-31149Y-139761D01*
X-30351Y-139301D01*
X-29699Y-138649D01*
X-29239Y-137851D01*
X-29000Y-136961D01*
Y-136039D01*
X-29239Y-135149D01*
X-29699Y-134351D01*
X-30351Y-133699D01*
X-31149Y-133238D01*
X-32039Y-133000D01*
D02*
G37*
G36*
X-134611Y-168150D02*
X-140625D01*
X-146639D01*
X-146606Y-168399D01*
X-146130Y-169548D01*
X-145372Y-170535D01*
X-144760Y-171005D01*
X-145161Y-172186D01*
X-168964D01*
X-169365Y-171005D01*
X-168753Y-170535D01*
X-167995Y-169548D01*
X-167519Y-168399D01*
X-167486Y-168150D01*
X-173500D01*
X-179514D01*
X-179481Y-168399D01*
X-179005Y-169548D01*
X-178247Y-170535D01*
X-177456Y-171142D01*
X-177570Y-171914D01*
X-177773Y-172323D01*
X-179720D01*
Y-182008D01*
X-174541D01*
X-173500Y-182145D01*
X-64897D01*
X-54521Y-192521D01*
X-54521Y-192521D01*
X-53490Y-193313D01*
X-52289Y-193810D01*
X-51000Y-193980D01*
X-20000D01*
X-19750Y-193947D01*
X-19500Y-193980D01*
X-14059D01*
X-14059Y-193980D01*
X-12770Y-193810D01*
X-11569Y-193313D01*
X-10538Y-192521D01*
X1962Y-180021D01*
X2753Y-178990D01*
X3251Y-177789D01*
X3421Y-176500D01*
X3251Y-175211D01*
X2753Y-174010D01*
X1962Y-172979D01*
X931Y-172187D01*
X-270Y-171690D01*
X-1559Y-171520D01*
X-2848Y-171690D01*
X-4049Y-172187D01*
X-5080Y-172979D01*
X-15573Y-183472D01*
X-16699Y-183851D01*
X-17351Y-183199D01*
X-18149Y-182738D01*
X-19039Y-182500D01*
X-19961D01*
X-20851Y-182738D01*
X-21649Y-183199D01*
X-22301Y-183851D01*
X-22399Y-184020D01*
X-48937D01*
X-59313Y-173644D01*
X-60345Y-172853D01*
X-61546Y-172355D01*
X-62835Y-172186D01*
X-62835Y-172186D01*
X-70339D01*
X-70740Y-171005D01*
X-70128Y-170535D01*
X-69370Y-169548D01*
X-68894Y-168399D01*
X-68862Y-168150D01*
X-74875D01*
X-80888D01*
X-80856Y-168399D01*
X-80380Y-169548D01*
X-79622Y-170535D01*
X-79010Y-171005D01*
X-79411Y-172186D01*
X-103214D01*
X-103615Y-171005D01*
X-103003Y-170535D01*
X-102245Y-169548D01*
X-101769Y-168399D01*
X-101736Y-168150D01*
X-107750D01*
X-113764D01*
X-113731Y-168399D01*
X-113255Y-169548D01*
X-112497Y-170535D01*
X-111885Y-171005D01*
X-112286Y-172186D01*
X-136089D01*
X-136490Y-171005D01*
X-135878Y-170535D01*
X-135120Y-169548D01*
X-134644Y-168399D01*
X-134611Y-168150D01*
D02*
G37*
G36*
X-12453Y16516D02*
X-15016D01*
Y13953D01*
X-14579Y14070D01*
X-13740Y14554D01*
X-13054Y15240D01*
X-12570Y16079D01*
X-12453Y16516D01*
D02*
G37*
G36*
X-8067Y2409D02*
X-11807D01*
Y984D01*
X-5884D01*
X-6364Y1703D01*
X-7145Y2225D01*
X-8067Y2409D01*
D02*
G37*
G36*
X-91039Y-35500D02*
X-91961D01*
X-92851Y-35739D01*
X-93649Y-36199D01*
X-94301Y-36851D01*
X-94762Y-37649D01*
X-94900Y-38166D01*
X-108617Y-51883D01*
X-109093Y-52503D01*
X-109392Y-53225D01*
X-109494Y-54000D01*
Y-63186D01*
X-109762Y-63649D01*
X-110000Y-64539D01*
Y-65461D01*
X-109762Y-66351D01*
X-109301Y-67149D01*
X-108649Y-67801D01*
X-107851Y-68261D01*
X-106961Y-68500D01*
X-106039D01*
X-105149Y-68261D01*
X-104351Y-67801D01*
X-103699Y-67149D01*
X-103238Y-66351D01*
X-103000Y-65461D01*
Y-64539D01*
X-103238Y-63649D01*
X-103506Y-63186D01*
Y-55240D01*
X-91131Y-42865D01*
X-90780Y-42875D01*
X-90304Y-44070D01*
X-99617Y-53383D01*
X-100093Y-54003D01*
X-100392Y-54725D01*
X-100494Y-55500D01*
Y-63686D01*
X-100761Y-64149D01*
X-101000Y-65039D01*
Y-65961D01*
X-100761Y-66851D01*
X-100301Y-67649D01*
X-99649Y-68301D01*
X-98851Y-68761D01*
X-97961Y-69000D01*
X-97039D01*
X-96149Y-68761D01*
X-95351Y-68301D01*
X-94699Y-67649D01*
X-94239Y-66851D01*
X-94000Y-65961D01*
Y-65039D01*
X-94239Y-64149D01*
X-94506Y-63686D01*
Y-56740D01*
X-82666Y-44900D01*
X-82149Y-44761D01*
X-81351Y-44301D01*
X-80699Y-43649D01*
X-80238Y-42851D01*
X-80000Y-41961D01*
Y-41039D01*
X-80238Y-40149D01*
X-80699Y-39351D01*
X-81351Y-38699D01*
X-82149Y-38238D01*
X-83039Y-38000D01*
X-83961D01*
X-84851Y-38238D01*
X-85649Y-38699D01*
X-86301Y-39351D01*
X-86679Y-40007D01*
X-86938Y-40199D01*
X-86978Y-40210D01*
X-87556Y-39786D01*
X-88000Y-39271D01*
Y-38539D01*
X-88239Y-37649D01*
X-88699Y-36851D01*
X-89351Y-36199D01*
X-90149Y-35739D01*
X-91039Y-35500D01*
D02*
G37*
G36*
X136484Y-43986D02*
Y-49016D01*
X140265D01*
Y-48622D01*
X140103Y-47389D01*
X139627Y-46240D01*
X138870Y-45253D01*
X137883Y-44495D01*
X136733Y-44019D01*
X136484Y-43986D01*
D02*
G37*
G36*
X112651D02*
Y-49016D01*
X116432D01*
Y-48622D01*
X116270Y-47389D01*
X115793Y-46240D01*
X115036Y-45253D01*
X114049Y-44495D01*
X112900Y-44019D01*
X112651Y-43986D01*
D02*
G37*
G36*
X88818D02*
Y-49016D01*
X92598D01*
Y-48622D01*
X92436Y-47389D01*
X91960Y-46240D01*
X91203Y-45253D01*
X90216Y-44495D01*
X89067Y-44019D01*
X88818Y-43986D01*
D02*
G37*
G36*
X64984D02*
Y-49016D01*
X68765D01*
Y-48622D01*
X68603Y-47389D01*
X68127Y-46240D01*
X67370Y-45253D01*
X66383Y-44495D01*
X65233Y-44019D01*
X64984Y-43986D01*
D02*
G37*
G36*
X140265Y-50984D02*
X136484D01*
Y-56014D01*
X136733Y-55981D01*
X137883Y-55505D01*
X138870Y-54747D01*
X139627Y-53760D01*
X140103Y-52611D01*
X140265Y-51378D01*
Y-50984D01*
D02*
G37*
G36*
X130342Y-43780D02*
X120658D01*
Y-56221D01*
X130342D01*
Y-54273D01*
X130751Y-54070D01*
X131524Y-53957D01*
X132131Y-54747D01*
X133117Y-55505D01*
X134267Y-55981D01*
X134516Y-56014D01*
Y-50000D01*
Y-43986D01*
X134267Y-44019D01*
X133117Y-44495D01*
X132131Y-45253D01*
X131524Y-46044D01*
X130751Y-45930D01*
X130342Y-45727D01*
Y-43780D01*
D02*
G37*
G36*
X116432Y-50984D02*
X112651D01*
Y-56014D01*
X112900Y-55981D01*
X114049Y-55505D01*
X115036Y-54747D01*
X115793Y-53760D01*
X116270Y-52611D01*
X116432Y-51378D01*
Y-50984D01*
D02*
G37*
G36*
X106509Y-43780D02*
X96824D01*
Y-56221D01*
X106509D01*
Y-54273D01*
X106918Y-54070D01*
X107690Y-53957D01*
X108297Y-54747D01*
X109284Y-55505D01*
X110433Y-55981D01*
X110682Y-56014D01*
Y-50000D01*
Y-43986D01*
X110433Y-44019D01*
X109284Y-44495D01*
X108297Y-45253D01*
X107690Y-46044D01*
X106918Y-45930D01*
X106509Y-45727D01*
Y-43780D01*
D02*
G37*
G36*
X92598Y-50984D02*
X88818D01*
Y-56014D01*
X89067Y-55981D01*
X90216Y-55505D01*
X91203Y-54747D01*
X91960Y-53760D01*
X92436Y-52611D01*
X92598Y-51378D01*
Y-50984D01*
D02*
G37*
G36*
X82676Y-43780D02*
X72991D01*
Y-56221D01*
X82676D01*
Y-54273D01*
X83084Y-54070D01*
X83857Y-53957D01*
X84464Y-54747D01*
X85451Y-55505D01*
X86600Y-55981D01*
X86849Y-56014D01*
Y-50000D01*
Y-43986D01*
X86600Y-44019D01*
X85451Y-44495D01*
X84464Y-45253D01*
X83857Y-46044D01*
X83084Y-45930D01*
X82676Y-45727D01*
Y-43780D01*
D02*
G37*
G36*
X68765Y-50984D02*
X64984D01*
Y-56014D01*
X65233Y-55981D01*
X66383Y-55505D01*
X67370Y-54747D01*
X68127Y-53760D01*
X68603Y-52611D01*
X68765Y-51378D01*
Y-50984D01*
D02*
G37*
G36*
X58842Y-43780D02*
X49158D01*
Y-56221D01*
X58842D01*
Y-54273D01*
X59251Y-54070D01*
X60024Y-53957D01*
X60631Y-54747D01*
X61617Y-55505D01*
X62767Y-55981D01*
X63016Y-56014D01*
Y-50000D01*
Y-43986D01*
X62767Y-44019D01*
X61617Y-44495D01*
X60631Y-45253D01*
X60024Y-46044D01*
X59251Y-45930D01*
X58842Y-45727D01*
Y-43780D01*
D02*
G37*
G36*
X56484Y-84953D02*
Y-87516D01*
X59047D01*
X58930Y-87079D01*
X58446Y-86240D01*
X57760Y-85554D01*
X56921Y-85070D01*
X56484Y-84953D01*
D02*
G37*
G36*
X54516D02*
X54079Y-85070D01*
X53240Y-85554D01*
X52554Y-86240D01*
X52070Y-87079D01*
X51953Y-87516D01*
X54516D01*
Y-84953D01*
D02*
G37*
G36*
X59047Y-89484D02*
X56484D01*
Y-92047D01*
X56921Y-91930D01*
X57760Y-91446D01*
X58446Y-90760D01*
X58930Y-89921D01*
X59047Y-89484D01*
D02*
G37*
G36*
X54516D02*
X51953D01*
X52070Y-89921D01*
X52554Y-90760D01*
X53240Y-91446D01*
X54079Y-91930D01*
X54516Y-92047D01*
Y-89484D01*
D02*
G37*
G36*
X178146Y-128984D02*
X173028D01*
Y-132724D01*
X178146D01*
Y-128984D01*
D02*
G37*
G36*
X171059D02*
X165941D01*
Y-132724D01*
X171059D01*
Y-128984D01*
D02*
G37*
G36*
X149274Y-128984D02*
X144156D01*
Y-132724D01*
X149274D01*
Y-128984D01*
D02*
G37*
G36*
X142188D02*
X137070D01*
Y-132724D01*
X142188D01*
Y-128984D01*
D02*
G37*
G36*
X120403Y-128984D02*
X115285D01*
Y-132724D01*
X120403D01*
Y-128984D01*
D02*
G37*
G36*
X113316D02*
X108198D01*
Y-132724D01*
X113316D01*
Y-128984D01*
D02*
G37*
G36*
X91531Y-128984D02*
X86413D01*
Y-132724D01*
X91531D01*
Y-128984D01*
D02*
G37*
G36*
X84445D02*
X79327D01*
Y-132724D01*
X84445D01*
Y-128984D01*
D02*
G37*
G36*
X30984Y-83425D02*
Y-86870D01*
X34626D01*
Y-83425D01*
X30984D01*
D02*
G37*
G36*
X34626Y-88839D02*
X30984D01*
Y-92283D01*
X34626D01*
Y-88839D01*
D02*
G37*
G36*
X29016D02*
X25374D01*
Y-92283D01*
X29016D01*
Y-88839D01*
D02*
G37*
G36*
X57984Y-153128D02*
Y-157016D01*
X61872D01*
X61623Y-156085D01*
X60970Y-154954D01*
X60046Y-154031D01*
X58915Y-153377D01*
X57984Y-153128D01*
D02*
G37*
G36*
X56016D02*
X55085Y-153377D01*
X53954Y-154031D01*
X53031Y-154954D01*
X52377Y-156085D01*
X52128Y-157016D01*
X56016D01*
Y-153128D01*
D02*
G37*
G36*
X34126Y-155748D02*
X30484D01*
Y-159193D01*
X34126D01*
Y-155748D01*
D02*
G37*
G36*
X28516D02*
X24874D01*
Y-159193D01*
X28516D01*
Y-155748D01*
D02*
G37*
G36*
X34126Y-161161D02*
X30484D01*
Y-164606D01*
X34126D01*
Y-161161D01*
D02*
G37*
G36*
X28516D02*
X24874D01*
Y-164606D01*
X28516D01*
Y-161161D01*
D02*
G37*
G36*
X30429Y-172071D02*
X26984D01*
Y-175516D01*
X30429D01*
Y-172071D01*
D02*
G37*
G36*
X25016D02*
X21571D01*
Y-175516D01*
X25016D01*
Y-172071D01*
D02*
G37*
G36*
X30429Y-177484D02*
X26984D01*
Y-180929D01*
X30429D01*
Y-177484D01*
D02*
G37*
G36*
X25016D02*
X21571D01*
Y-180929D01*
X25016D01*
Y-177484D01*
D02*
G37*
%LPD*%
D12*
X196851Y-196851D02*
Y196850D01*
X-196850Y196851D02*
X196851D01*
X-196850Y-196852D02*
X196851D01*
X-196850D02*
Y196849D01*
D42*
X34677Y143500D02*
D03*
X19323D02*
D03*
X34677Y132000D02*
D03*
X19323D02*
D03*
X34677Y120500D02*
D03*
X19323D02*
D03*
X-86146Y99000D02*
D03*
X-101500D02*
D03*
X-117177Y27500D02*
D03*
X-101823D02*
D03*
X-117177Y38000D02*
D03*
X-101823D02*
D03*
X-117177Y48500D02*
D03*
X-101823D02*
D03*
X-117177Y88500D02*
D03*
X-101823D02*
D03*
X-81323Y58000D02*
D03*
X-96677D02*
D03*
X-117177Y67500D02*
D03*
X-101823D02*
D03*
X-117177Y78000D02*
D03*
X-101823D02*
D03*
D43*
X30000Y-87854D02*
D03*
Y-72500D02*
D03*
X29500Y-160177D02*
D03*
Y-144823D02*
D03*
X40500Y-160177D02*
D03*
Y-144823D02*
D03*
X-186000Y-21646D02*
D03*
Y-37000D02*
D03*
X-175000Y-21823D02*
D03*
Y-37177D02*
D03*
D45*
X-39000Y190500D02*
X-33000Y184500D01*
X45500Y-111500D02*
X75500Y-141500D01*
X45500Y-111500D02*
Y-50000D01*
X35500Y-40000D02*
X45500Y-50000D01*
X34500Y-45000D02*
X42000Y-52500D01*
X38500Y-116500D02*
X74000Y-152000D01*
X42000Y-114000D02*
X73000Y-145000D01*
X42000Y-114000D02*
Y-52500D01*
X33500Y-50000D02*
X38500Y-55000D01*
Y-116500D02*
Y-55000D01*
X74000Y-152000D02*
X85429D01*
X73000Y-145000D02*
X97000D01*
X137362Y47677D02*
X144177D01*
X149000Y52500D01*
X-51130Y85000D02*
X-29000D01*
X-53807Y87677D02*
X-51130Y85000D01*
X-19500Y186500D02*
X15000D01*
X53823Y147677D01*
X170500Y-12500D02*
X181999D01*
X163000Y-20000D02*
X170500Y-12500D01*
X156000Y-20000D02*
X163000D01*
X165000Y49500D02*
X182000D01*
X163500Y59500D02*
X182000D01*
X163500Y69500D02*
X182000D01*
X163500Y79500D02*
X182000D01*
X-33000Y107786D02*
Y184500D01*
Y107786D02*
X-23214Y98000D01*
X-22500D01*
X-46500Y185500D02*
X-39000Y178000D01*
X53823Y147677D02*
X67362D01*
X-39000Y101217D02*
Y178000D01*
Y101217D02*
X-32000Y94217D01*
Y94000D02*
Y94217D01*
X-2000Y-52000D02*
Y15000D01*
X-5000Y-55000D02*
X-2000Y-52000D01*
X-12791Y-55000D02*
X-5000D01*
X-67362Y87677D02*
X-53807D01*
X-79000Y190500D02*
X-61000D01*
X-46000Y175500D01*
X-121823Y147677D02*
X-79000Y190500D01*
X-124323Y137677D02*
X-76500Y185500D01*
X-62500D02*
X-52000Y175000D01*
X-76500Y185500D02*
X-62500D01*
X-46000Y101500D02*
Y175500D01*
X-52000Y95000D02*
Y175000D01*
X-137362Y137677D02*
X-124323D01*
X-7000Y20000D02*
X-2000Y15000D01*
X-35500Y-11000D02*
X-34953D01*
X-146000Y-20500D02*
X-60000D01*
X-29500Y10000D02*
X-11847D01*
X-32500Y-3000D02*
X-25500Y-10000D01*
X-30953Y-15000D02*
X-12791D01*
X-60000Y-20500D02*
X-29500Y10000D01*
X-34953Y-11000D02*
X-30953Y-15000D01*
X-25500Y-10000D02*
X-12791D01*
X-43000Y-15500D02*
X-38500Y-20000D01*
X-152000Y124500D02*
Y160500D01*
X-144823Y167677D01*
X-129323Y117677D02*
X-116500Y130500D01*
X-137362Y117677D02*
X-129323D01*
X-67362Y77677D02*
X-53677D01*
X-47543Y71543D02*
X-39543D01*
X-53677Y77677D02*
X-47543Y71543D01*
X-39543D02*
X-39500Y71500D01*
X-151500Y-15000D02*
X-146000Y-20500D01*
X-151500Y-15000D02*
Y-8000D01*
X-144823Y167677D02*
X-137362D01*
X-19000Y-5000D02*
X-12791D01*
X-26500Y2500D02*
X-19000Y-5000D01*
X-132000Y-59500D02*
X-97500Y-25000D01*
X-12791D01*
X-93500Y-30000D02*
X-12791D01*
X-122000Y-58500D02*
X-93500Y-30000D01*
X-129037Y127677D02*
X-125714Y131000D01*
X-137362Y127677D02*
X-129037D01*
X-125714Y131000D02*
X-125000D01*
X26500Y21000D02*
X36000D01*
X41500Y15500D01*
Y0D02*
Y15500D01*
X36500Y-5000D02*
X41500Y0D01*
X25791Y-5000D02*
X36500D01*
X25791Y-0D02*
X35616D01*
X37000Y1384D01*
Y11286D01*
X26500Y13500D02*
X34786D01*
X37000Y11286D01*
X75500Y-141500D02*
X138500D01*
X-122000Y-67402D02*
Y-58500D01*
X-137362Y147677D02*
X-121823D01*
X-38500Y-20000D02*
X-12791D01*
X-17516Y-0D02*
X-12791D01*
X-172000Y-53000D02*
X-166500Y-47500D01*
X148500Y-72000D02*
Y-40000D01*
X50500Y-32500D02*
X141000D01*
X148500Y-40000D01*
X49500Y-37000D02*
X139500D01*
X144500Y-69000D02*
Y-42000D01*
X139500Y-37000D02*
X144500Y-42000D01*
X144000Y-23500D02*
X156500Y-36000D01*
X53500Y-23500D02*
X144000D01*
X156500Y-72500D02*
Y-36000D01*
X137500Y-76000D02*
X144500Y-69000D01*
X140000Y-80500D02*
X148500Y-72000D01*
X143172Y-84328D02*
X152500Y-75000D01*
X142500Y-28000D02*
X152500Y-38000D01*
Y-75000D02*
Y-38000D01*
X156500Y-72500D02*
X172043Y-88043D01*
X43000Y-25000D02*
X50500Y-32500D01*
X42500Y-30000D02*
X49500Y-37000D01*
X45000Y-15000D02*
X53500Y-23500D01*
X149000Y52500D02*
Y65000D01*
X163500Y79500D01*
X153000Y59000D02*
X163500Y69500D01*
X153000Y41500D02*
Y59000D01*
X137362Y37677D02*
X149177D01*
X153000Y41500D01*
X152177Y27677D02*
X157000Y32500D01*
Y53000D02*
X163500Y59500D01*
X157000Y32500D02*
Y53000D01*
X137362Y27677D02*
X152177D01*
X161500Y46000D02*
X165000Y49500D01*
X161500Y28500D02*
Y46000D01*
X150677Y17677D02*
X161500Y28500D01*
X137362Y17677D02*
X150677D01*
X157000Y-140000D02*
X166000D01*
X172043Y-146043D01*
Y-152000D02*
Y-146043D01*
X38500Y-35000D02*
X42000Y-38500D01*
X25791Y-35000D02*
X38500D01*
X138500Y-141500D02*
X143172Y-146172D01*
Y-152000D02*
Y-146172D01*
X97000Y-145000D02*
X104000Y-152000D01*
X25791Y-40000D02*
X35500D01*
X25791Y-45000D02*
X34500D01*
X25791Y-50000D02*
X33500D01*
X104000Y-152000D02*
X114301D01*
X25791Y-15000D02*
X45000D01*
X52000Y-28000D02*
X142500D01*
X25791Y-25000D02*
X43000D01*
X25791Y-30000D02*
X42500D01*
X44000Y-20000D02*
X52000Y-28000D01*
X25791Y-20000D02*
X44000D01*
X97500Y-76000D02*
X137500D01*
X85429Y-88071D02*
X97500Y-76000D01*
X85429Y-98000D02*
Y-88071D01*
X120500Y-80500D02*
X140000D01*
X114301Y-86699D02*
X120500Y-80500D01*
X114301Y-98000D02*
Y-86699D01*
X143172Y-98000D02*
Y-84328D01*
X172043Y-98000D02*
Y-88043D01*
X-172000Y-67402D02*
Y-53000D01*
X-162000Y-67402D02*
Y-54000D01*
X-155500Y-47500D02*
X-149000D01*
X-162000Y-54000D02*
X-155500Y-47500D01*
X-132000Y-67402D02*
Y-59500D01*
X-87000Y-67500D02*
Y-59000D01*
X-63000Y-35000D01*
X-12791D01*
X-77000Y-67500D02*
Y-59500D01*
X-57500Y-40000D01*
X-12791D01*
X-47000Y-67500D02*
Y-57500D01*
X-34500Y-45000D01*
X-12791D01*
X-37000Y-58000D02*
X-29000Y-50000D01*
X-37000Y-67500D02*
Y-58000D01*
X-29000Y-50000D02*
X-12791D01*
D46*
X26500Y-113000D02*
X40500Y-127000D01*
Y-144823D02*
Y-127000D01*
X90323Y47677D02*
X113500Y24500D01*
Y-15000D02*
Y24500D01*
X67362Y47677D02*
X90323D01*
X67362Y27677D02*
X86823D01*
X96000Y-15000D02*
Y18500D01*
X86823Y27677D02*
X96000Y18500D01*
X88823Y37677D02*
X104500Y22000D01*
Y-15000D02*
Y22000D01*
X67362Y37677D02*
X88823D01*
X12220Y-152500D02*
X16698D01*
X93500Y192500D02*
X152500D01*
X150000Y186000D02*
X155000Y181000D01*
X161500Y144000D02*
X170500Y135000D01*
X96500Y186000D02*
X150000D01*
X155000Y135500D02*
Y181000D01*
X161500Y144000D02*
Y183500D01*
X152500Y192500D02*
X161500Y183500D01*
X-132000Y-119000D02*
Y-107402D01*
X-152000Y-139000D02*
X-132000Y-119000D01*
X-152000Y-153500D02*
Y-139000D01*
X14000Y120500D02*
X19323D01*
X14000Y132000D02*
X19323D01*
X14000Y143500D02*
X19323D01*
X25791Y-72500D02*
X30000D01*
X22099Y-81401D02*
X25791Y-77709D01*
Y-72500D02*
Y-55787D01*
Y-77709D02*
Y-72500D01*
X-175000Y111000D02*
X-167719D01*
X-177001Y117500D02*
X-177000Y117499D01*
Y113000D02*
X-175000Y111000D01*
X-177000Y113000D02*
Y117499D01*
X-148282Y101281D02*
Y111000D01*
Y101281D02*
X-145280Y98280D01*
X-137965D01*
X-137362Y97677D01*
X-186000Y-73500D02*
X-178500Y-81000D01*
X-186000Y-73500D02*
Y-37000D01*
X29500Y-144823D02*
X40500D01*
X49677D01*
X53500Y-141000D01*
X9250Y-81250D02*
X10971D01*
X6500Y-81000D02*
X10500D01*
X10971Y-81250D02*
X12220Y-82500D01*
X167000Y98500D02*
X189500D01*
X192000Y42000D02*
Y96000D01*
X189500Y98500D02*
X192000Y96000D01*
X146177Y77677D02*
X167000Y98500D01*
X19000Y-190000D02*
X185000D01*
X12710Y-183710D02*
Y-176990D01*
Y-183710D02*
X19000Y-190000D01*
X185000D02*
X192000Y-183000D01*
Y-114500D01*
X172043Y-162000D02*
X192000D01*
X192000Y-162000D01*
X12220Y-176500D02*
X12710Y-176990D01*
X-101500Y140000D02*
X-83500Y158000D01*
X-101500Y99000D02*
Y140000D01*
X-169010Y57010D02*
X-166703Y54703D01*
X-177500Y57250D02*
X-177260Y57010D01*
X-169010D01*
X-166703Y48203D02*
Y54703D01*
Y48203D02*
X-166500Y48000D01*
X-7000Y36000D02*
Y87500D01*
X-27000Y16000D02*
X-7000Y36000D01*
X-32000Y16000D02*
X-27000D01*
X-29000Y22000D02*
X-13000Y38000D01*
Y91000D01*
X-12500Y157500D02*
X-7000Y152000D01*
X-13000Y91000D02*
X-7000Y97000D01*
Y152000D01*
Y87500D02*
X-213Y94287D01*
X-60323Y-12323D02*
X-32000Y16000D01*
X-67362Y-12323D02*
X-60323D01*
X-98000Y-12000D02*
X-81323Y4677D01*
Y58000D01*
Y65177D01*
X-97500Y-65500D02*
Y-55500D01*
X-83500Y-41500D01*
X-89000Y9000D02*
Y95949D01*
X-109000Y-11000D02*
X-89000Y9000D01*
X-106500Y-54000D02*
X-91500Y-39000D01*
X-106500Y-65000D02*
Y-54000D01*
X-137274Y17589D02*
X-99089D01*
X-99000Y17500D01*
X-137362Y177677D02*
X-118177D01*
X-112000Y171500D01*
X-120000Y191500D02*
X-107000Y178500D01*
X-179000Y191500D02*
X-120000D01*
X-186000Y127500D02*
X-177001D01*
X-190500Y132000D02*
Y153500D01*
Y132000D02*
X-186000Y127500D01*
X-190500Y153500D02*
X-184000Y160000D01*
X-178500D01*
X-174000Y164500D02*
Y174000D01*
X-178500Y160000D02*
X-174000Y164500D01*
X-164000Y160000D02*
Y174000D01*
X-173500Y-91000D02*
X-142000D01*
Y-107402D02*
Y-91000D01*
X-142000Y-91000D01*
X-142000D02*
X-57000D01*
X47500Y-178000D02*
X57000D01*
X40500Y-171000D02*
X47500Y-178000D01*
X40500Y-171000D02*
Y-160177D01*
X-86146Y98803D02*
Y99000D01*
X-86669Y98280D02*
X-86146Y98803D01*
X-89000Y95949D02*
X-86669Y98280D01*
X-81323Y65177D02*
X-78823Y67677D01*
X-67362D01*
X-86669Y98280D02*
X-67965D01*
X-67362Y97677D01*
X-137274Y27589D02*
X-117266D01*
X-117177Y27500D01*
X-137362Y27677D02*
X-137274Y27589D01*
X-117339Y37839D02*
X-117177Y38000D01*
X-137362Y37677D02*
X-137201Y37839D01*
X-117339D01*
X-136951Y48089D02*
X-117589D01*
X-137362Y47677D02*
X-136951Y48089D01*
X-117589D02*
X-117177Y48500D01*
X-117266Y67589D02*
X-117177Y67500D01*
X-137362Y67677D02*
X-137274Y67589D01*
X-117266D01*
X-117339Y77839D02*
X-117177Y78000D01*
X-137362Y77677D02*
X-137201Y77839D01*
X-117339D01*
X-136951Y88089D02*
X-117589D01*
X-137362Y87677D02*
X-136951Y88089D01*
X-117589D02*
X-117177Y88500D01*
X-137362Y17677D02*
X-137274Y17589D01*
X-34500Y22000D02*
X-29000D01*
X188500Y38500D02*
X192000Y42000D01*
X137362Y77677D02*
X146177D01*
X-142000Y-81000D02*
Y-67402D01*
Y-81000D02*
X-57000D01*
X-178500D02*
X-142000D01*
X-67362Y-2323D02*
X-58823D01*
X-34500Y22000D01*
X-213Y94287D02*
Y147287D01*
X-39000Y34500D02*
X-29000D01*
X-55823Y17677D02*
X-39000Y34500D01*
X-67362Y17677D02*
X-55823D01*
X-177500Y27500D02*
X-160000D01*
X-163250Y97250D02*
X-153677Y87677D01*
X-137362D01*
X-163250Y77250D02*
X-153677Y67677D01*
X-177500Y97250D02*
X-163250D01*
X-164250Y87250D02*
X-154677Y77677D01*
X-177500Y87250D02*
X-164250D01*
X-153677Y67677D02*
X-137362D01*
X-177500Y77250D02*
X-163250D01*
X-154677Y77677D02*
X-137362D01*
X-42000Y-146000D02*
X-32500Y-136500D01*
X-42000Y-157165D02*
Y-146000D01*
X49000Y3000D02*
X54323Y-2323D01*
X38000Y55000D02*
X49000Y44000D01*
Y3000D02*
Y44000D01*
X-184000Y186500D02*
X-179000Y191500D01*
X-184000Y174000D02*
Y186500D01*
X174000Y167500D02*
X181500Y160000D01*
Y145000D02*
Y160000D01*
X2000Y45000D02*
X21000D01*
X13320Y-81401D02*
X22099D01*
X12220Y-82500D02*
X13320Y-81401D01*
X-57000Y-81000D02*
X6500D01*
X-57000Y-91000D02*
X-30000D01*
X-57000Y-107500D02*
Y-91000D01*
X-19500Y-162000D02*
Y-101500D01*
X-30000Y-91000D02*
X-19500Y-101500D01*
X-20000Y-186500D02*
X-19500Y-186000D01*
X-57000Y-81000D02*
Y-67500D01*
X-7500Y-166000D02*
X12220D01*
X79794Y178794D02*
X93500Y192500D01*
X155000Y135500D02*
X165500Y125000D01*
X170500Y135000D02*
X181500D01*
X78780Y168280D02*
X96500Y186000D01*
X67965Y168280D02*
X78780D01*
X68479Y178794D02*
X79794D01*
X67362Y177677D02*
X68479Y178794D01*
X67362Y167677D02*
X67965Y168280D01*
X165500Y125000D02*
X181500D01*
X-145823Y27677D02*
X-137362D01*
X-177500Y17500D02*
X-156000D01*
X-145823Y27677D01*
X172043Y-172000D02*
X184500D01*
X172043Y-118000D02*
X184500D01*
X185500Y-108000D02*
X192000Y-114500D01*
X172043Y-108000D02*
X185500D01*
X54323Y-2323D02*
X67362D01*
X21000Y55000D02*
X38000D01*
X87500Y-15000D02*
Y13500D01*
X67362Y17677D02*
X83323D01*
X87500Y13500D01*
X146677Y-12323D02*
X166500Y7500D01*
X181999D01*
X137362Y-12323D02*
X146677D01*
X181528Y27029D02*
X181999Y27500D01*
X173529Y27029D02*
X181528D01*
X137362Y-2323D02*
X144177D01*
X173529Y27029D01*
X-18665Y-177165D02*
X-7500Y-166000D01*
X-42000Y-177165D02*
X-18665D01*
X-67362Y47677D02*
X-55323D01*
X-67362Y37677D02*
X-56323D01*
X-67362Y27677D02*
X-55323D01*
X-38500Y44500D02*
X-29000D01*
X-39500Y54500D02*
X-29000D01*
X-38500Y64500D02*
X-29000D01*
X-55323Y27677D02*
X-38500Y44500D01*
X-55323Y47677D02*
X-38500Y64500D01*
X-56323Y37677D02*
X-39500Y54500D01*
X-21500Y157500D02*
X-12500D01*
X-86000Y-154811D02*
X-83694Y-157117D01*
X-74923D01*
X-86000Y-154811D02*
Y-144000D01*
X-73734Y-131734D01*
X-74923Y-157117D02*
X-74875Y-157165D01*
X-77000Y-125000D02*
Y-107500D01*
X-99165Y-147165D02*
X-77000Y-125000D01*
X-107750Y-147165D02*
X-99165D01*
X-73734Y-131734D02*
X-59734D01*
X-47000Y-119000D02*
Y-107500D01*
X-59734Y-131734D02*
X-47000Y-119000D01*
X-61665Y-147165D02*
X-37000Y-122500D01*
X-74875Y-147165D02*
X-61665D01*
X-37000Y-122500D02*
Y-107500D01*
X-119000Y-154500D02*
X-116335Y-157165D01*
X-107750D01*
X-119000Y-154500D02*
Y-144500D01*
X-113000Y-138500D01*
X-101000D01*
X-87000Y-124500D01*
Y-107500D01*
X-152000Y-153500D02*
X-148937Y-156563D01*
X-141228D02*
X-140625Y-157165D01*
X-148937Y-156563D02*
X-141228D01*
X-140625Y-147165D02*
Y-138625D01*
X-122000Y-120000D02*
Y-107402D01*
X-140625Y-138625D02*
X-122000Y-120000D01*
X-187000Y-154500D02*
Y-139000D01*
X-184335Y-157165D02*
X-173500D01*
X-187000Y-154500D02*
X-184335Y-157165D01*
X-187000Y-139000D02*
X-172000Y-124000D01*
X-162000Y-126000D02*
Y-107402D01*
X-173500Y-137500D02*
X-162000Y-126000D01*
X-173500Y-147165D02*
Y-137500D01*
X-172000Y-124000D02*
Y-107402D01*
X55575Y-48425D02*
Y-46925D01*
X54000Y-50000D02*
X55575Y-48425D01*
X-177500Y37500D02*
X-177411Y37589D01*
X-137451D01*
X-137362Y37677D01*
X-167250Y67250D02*
X-147677Y47677D01*
X-137362D01*
X-177500Y67250D02*
X-167250D01*
D47*
X26000Y-176803D02*
D03*
D48*
X-1559Y-176500D02*
D03*
X12220D02*
D03*
D49*
X26000D02*
D03*
D50*
X-107750Y-167165D02*
D03*
Y-157165D02*
D03*
Y-147165D02*
D03*
X-42000Y-157165D02*
D03*
Y-167165D02*
D03*
X-74875Y-147165D02*
D03*
Y-157165D02*
D03*
Y-167165D02*
D03*
X-140625Y-147165D02*
D03*
Y-157165D02*
D03*
Y-167165D02*
D03*
X-173500Y-147165D02*
D03*
Y-157165D02*
D03*
Y-167165D02*
D03*
X85429Y-152000D02*
D03*
Y-162000D02*
D03*
Y-172000D02*
D03*
Y-98000D02*
D03*
Y-108000D02*
D03*
Y-118000D02*
D03*
X-177001Y137500D02*
D03*
Y127500D02*
D03*
X-177500Y97250D02*
D03*
Y87250D02*
D03*
Y77250D02*
D03*
Y67250D02*
D03*
Y37500D02*
D03*
Y27500D02*
D03*
Y17500D02*
D03*
Y7500D02*
D03*
X181500Y115000D02*
D03*
Y125000D02*
D03*
Y135000D02*
D03*
X182000Y49500D02*
D03*
Y59500D02*
D03*
Y69500D02*
D03*
Y79500D02*
D03*
X181999Y-12500D02*
D03*
Y-2500D02*
D03*
Y7500D02*
D03*
Y17500D02*
D03*
X-29000Y34500D02*
D03*
Y44500D02*
D03*
Y54500D02*
D03*
Y64500D02*
D03*
X21000Y65000D02*
D03*
Y55000D02*
D03*
X172043Y-98000D02*
D03*
Y-108000D02*
D03*
Y-118000D02*
D03*
Y-152000D02*
D03*
Y-162000D02*
D03*
Y-172000D02*
D03*
X114301Y-152000D02*
D03*
Y-162000D02*
D03*
Y-172000D02*
D03*
X143172Y-152000D02*
D03*
Y-162000D02*
D03*
Y-172000D02*
D03*
Y-98000D02*
D03*
Y-108000D02*
D03*
Y-118000D02*
D03*
X114301Y-98000D02*
D03*
Y-108000D02*
D03*
Y-118000D02*
D03*
D51*
X-107750Y-177165D02*
D03*
X-42000D02*
D03*
X-74875D02*
D03*
X-140625D02*
D03*
X-173500D02*
D03*
X85429Y-182000D02*
D03*
Y-128000D02*
D03*
X-177001Y117500D02*
D03*
X-177500Y57250D02*
D03*
Y-2500D02*
D03*
X181500Y145000D02*
D03*
X182000Y89500D02*
D03*
X181999Y27500D02*
D03*
X-29000Y74500D02*
D03*
X21000Y45000D02*
D03*
X172043Y-128000D02*
D03*
Y-182000D02*
D03*
X114301D02*
D03*
X143172D02*
D03*
Y-128000D02*
D03*
X114301D02*
D03*
D52*
X67362Y167677D02*
D03*
Y157677D02*
D03*
Y147677D02*
D03*
Y137677D02*
D03*
Y127677D02*
D03*
Y117677D02*
D03*
Y107677D02*
D03*
Y97677D02*
D03*
Y87677D02*
D03*
Y77677D02*
D03*
Y67677D02*
D03*
Y57677D02*
D03*
Y47677D02*
D03*
Y37677D02*
D03*
Y27677D02*
D03*
Y17677D02*
D03*
Y7677D02*
D03*
Y-2323D02*
D03*
X137362Y167677D02*
D03*
Y157677D02*
D03*
Y147677D02*
D03*
Y137677D02*
D03*
Y127677D02*
D03*
Y117677D02*
D03*
Y107677D02*
D03*
Y97677D02*
D03*
Y87677D02*
D03*
Y77677D02*
D03*
Y67677D02*
D03*
Y57677D02*
D03*
Y47677D02*
D03*
Y37677D02*
D03*
Y27677D02*
D03*
Y17677D02*
D03*
Y7677D02*
D03*
Y-2323D02*
D03*
Y177677D02*
D03*
Y-12323D02*
D03*
X67362D02*
D03*
X-137362D02*
D03*
X-67362D02*
D03*
Y177677D02*
D03*
Y-2323D02*
D03*
Y7677D02*
D03*
Y17677D02*
D03*
Y27677D02*
D03*
Y37677D02*
D03*
Y47677D02*
D03*
Y57677D02*
D03*
Y67677D02*
D03*
Y77677D02*
D03*
Y87677D02*
D03*
Y97677D02*
D03*
Y107677D02*
D03*
Y117677D02*
D03*
Y127677D02*
D03*
Y137677D02*
D03*
Y147677D02*
D03*
Y157677D02*
D03*
Y167677D02*
D03*
X-137362Y-2323D02*
D03*
Y7677D02*
D03*
Y17677D02*
D03*
Y27677D02*
D03*
Y37677D02*
D03*
Y47677D02*
D03*
Y57677D02*
D03*
Y67677D02*
D03*
Y77677D02*
D03*
Y87677D02*
D03*
Y97677D02*
D03*
Y107677D02*
D03*
Y117677D02*
D03*
Y127677D02*
D03*
Y137677D02*
D03*
Y147677D02*
D03*
Y157677D02*
D03*
Y167677D02*
D03*
D53*
X67362Y177677D02*
D03*
X-137362D02*
D03*
D54*
X-87000Y-107500D02*
D03*
X-77000D02*
D03*
X-67000D02*
D03*
X-57000D02*
D03*
X-47000D02*
D03*
X-37000D02*
D03*
X-87000Y-67500D02*
D03*
X-77000D02*
D03*
X-67000D02*
D03*
X-57000D02*
D03*
X-47000D02*
D03*
X-37000D02*
D03*
X-122000Y-67402D02*
D03*
X-132000D02*
D03*
X-142000D02*
D03*
X-152000D02*
D03*
X-162000D02*
D03*
X-172000D02*
D03*
X-122000Y-107402D02*
D03*
X-132000D02*
D03*
X-142000D02*
D03*
X-152000D02*
D03*
X-162000D02*
D03*
X-172000D02*
D03*
D55*
X77833Y-50000D02*
D03*
X54000D02*
D03*
X125500D02*
D03*
X101667D02*
D03*
D56*
X87833D02*
D03*
X64000D02*
D03*
X135500D02*
D03*
X111667D02*
D03*
D57*
X-164000Y174000D02*
D03*
X-184000D02*
D03*
D58*
X-174000D02*
D03*
D59*
X-21500Y117500D02*
D03*
Y107500D02*
D03*
Y127500D02*
D03*
Y137500D02*
D03*
Y147500D02*
D03*
Y157500D02*
D03*
Y167500D02*
D03*
D60*
Y177500D02*
D03*
D61*
X57000Y-178000D02*
D03*
D62*
Y-168000D02*
D03*
Y-158000D02*
D03*
D63*
X-39000Y190500D02*
D03*
X26500Y-113000D02*
D03*
X-29000Y85000D02*
D03*
X113500Y-15000D02*
D03*
X16698Y-152500D02*
D03*
X-1500Y181169D02*
D03*
X156000Y-20000D02*
D03*
X-22500Y98000D02*
D03*
X23000Y31500D02*
D03*
X44500Y105000D02*
D03*
X-16000Y17500D02*
D03*
X55500Y-88500D02*
D03*
X-5000Y-101500D02*
D03*
X171000Y-55000D02*
D03*
X-120500Y4500D02*
D03*
X88500Y104500D02*
D03*
Y111500D02*
D03*
X-83500Y158000D02*
D03*
X-166500Y48000D02*
D03*
X-19500Y186500D02*
D03*
X-46500Y185500D02*
D03*
X-32000Y94000D02*
D03*
X-52000Y95000D02*
D03*
X-46000Y101500D02*
D03*
X-7000Y20000D02*
D03*
X-35500Y-11000D02*
D03*
X-32500Y-3000D02*
D03*
X-43000Y-15500D02*
D03*
X-98000Y-12000D02*
D03*
X-83500Y-41500D02*
D03*
X-109000Y-11000D02*
D03*
X-97500Y-65500D02*
D03*
X-106500Y-65000D02*
D03*
X-99000Y17500D02*
D03*
X-112000Y171500D02*
D03*
X-107000Y178500D02*
D03*
X-164000Y160000D02*
D03*
X-173500Y-91000D02*
D03*
X53500Y-141000D02*
D03*
X-116500Y130500D02*
D03*
X-39500Y71500D02*
D03*
X-11847Y10000D02*
D03*
X188500Y38500D02*
D03*
X-152000Y124500D02*
D03*
X-26500Y2500D02*
D03*
X-151500Y-8000D02*
D03*
X-160000Y27500D02*
D03*
X-91500Y-39000D02*
D03*
X-32500Y-136500D02*
D03*
X-125000Y131000D02*
D03*
X26500Y21000D02*
D03*
Y13500D02*
D03*
X9000Y174500D02*
D03*
X174000Y167500D02*
D03*
X-19500Y-186000D02*
D03*
Y-162000D02*
D03*
X-166500Y-47500D02*
D03*
X184500Y-172000D02*
D03*
Y-118000D02*
D03*
X87500Y-15000D02*
D03*
X104500D02*
D03*
X96000D02*
D03*
X-213Y147287D02*
D03*
X157000Y-140000D02*
D03*
X42000Y-38500D02*
D03*
X-149000Y-47500D02*
D03*
D64*
X-12298Y-58540D02*
X-13036Y-58114D01*
Y-58966D01*
X-12298Y-58540D01*
D65*
X-167719Y111000D02*
D03*
X-148282D02*
D03*
D66*
X-12791Y-45000D02*
D03*
Y-0D02*
D03*
Y-5000D02*
D03*
Y-10000D02*
D03*
Y-15000D02*
D03*
Y-20000D02*
D03*
Y-25000D02*
D03*
Y-30000D02*
D03*
Y-35000D02*
D03*
Y-40000D02*
D03*
Y-50000D02*
D03*
X25791Y-0D02*
D03*
X25791Y-5000D02*
D03*
X25791Y-10000D02*
D03*
Y-15000D02*
D03*
Y-20000D02*
D03*
Y-25000D02*
D03*
Y-30000D02*
D03*
Y-35000D02*
D03*
Y-40000D02*
D03*
Y-45000D02*
D03*
Y-50000D02*
D03*
Y-55000D02*
D03*
D67*
X-12791Y-55000D02*
D03*
D68*
X12220Y-152500D02*
Y-82500D01*
Y-81500D01*
Y-166000D02*
Y-152500D01*
X500Y177500D02*
X6250Y171750D01*
X-21500Y177500D02*
X-1500D01*
X14000Y120500D02*
Y132000D01*
Y92000D02*
Y120500D01*
Y132000D02*
Y143500D01*
Y164000D01*
X6500Y-81000D02*
Y28500D01*
X2000Y33000D02*
X6500Y28500D01*
X-101823Y58000D02*
Y67500D01*
Y48500D02*
Y58000D01*
X-96677D01*
X-101823Y88500D02*
Y98677D01*
Y78000D02*
Y88500D01*
Y67500D02*
Y78000D01*
Y38000D02*
Y48500D01*
Y27500D02*
Y38000D01*
X-175177Y-37000D02*
X-175000Y-37177D01*
X-186000Y-37000D02*
X-175177D01*
X-177500Y-19323D02*
Y-2500D01*
X-186000Y-21646D02*
X-175177D01*
X2000Y45000D02*
Y80000D01*
X14000Y92000D01*
X6750Y171250D02*
X14000Y164000D01*
X2000Y33000D02*
Y45000D01*
X12220Y-176500D02*
Y-166000D01*
X-19500Y-189000D02*
X-14059D01*
X-51000D02*
X-20000D01*
X143172Y-162000D02*
X172043D01*
X143172Y-108000D02*
X172043D01*
X114301D02*
X143172D01*
X72500Y-172000D02*
X85429D01*
X68500Y-168000D02*
X72500Y-172000D01*
X57000Y-168000D02*
X68500D01*
X-14059Y-189000D02*
X-1559Y-176500D01*
X-107750Y-177165D02*
X-74875D01*
X-62835D01*
X-51000Y-189000D01*
X-140625Y-177165D02*
X-107750D01*
X-173500D02*
X-140625D01*
X114301Y-162000D02*
X143172D01*
Y-172000D02*
X172043D01*
X114301D02*
X143172D01*
X85429D02*
X114301D01*
X85429Y-162000D02*
X114301D01*
X85429Y-108000D02*
X114301D01*
X143172Y-118000D02*
X172043D01*
X114301D02*
X143172D01*
X85429D02*
X114301D01*
D69*
X9250Y-81250D02*
D03*
M02*
