<?xml version="1.0" encoding="utf-8"?>
<COLLADA xmlns="http://www.collada.org/2005/11/COLLADASchema" version="1.4.1" xmlns:xsi="http://www.w3.org/2001/XMLSchema-instance">
  <asset>
    <contributor>
      <author>Blender User</author>
      <authoring_tool>Blender 4.4.3 commit date:2025-04-29, commit time:14:09, hash:802179c51ccc</authoring_tool>
    </contributor>
    <created>2025-05-18T20:32:53</created>
    <modified>2025-05-18T20:32:53</modified>
    <unit name="meter" meter="1"/>
    <up_axis>Z_UP</up_axis>
  </asset>
  <library_effects>
    <effect id="mat_0-effect">
      <profile_COMMON>
        <technique sid="common">
          <lambert>
            <emission>
              <color sid="emission">0 0 0 1</color>
            </emission>
            <diffuse>
              <color sid="diffuse">0.8227857 0.7991027 1 1</color>
            </diffuse>
            <reflectivity>
              <float sid="specular">1</float>
            </reflectivity>
            <index_of_refraction>
              <float sid="ior">1.5</float>
            </index_of_refraction>
          </lambert>
        </technique>
      </profile_COMMON>
    </effect>
    <effect id="mat_1-effect">
      <profile_COMMON>
        <technique sid="common">
          <lambert>
            <emission>
              <color sid="emission">0 0 0 1</color>
            </emission>
            <diffuse>
              <color sid="diffuse">0.5906188 0.6375968 0.8549926 1</color>
            </diffuse>
            <reflectivity>
              <float sid="specular">1</float>
            </reflectivity>
            <index_of_refraction>
              <float sid="ior">1.5</float>
            </index_of_refraction>
          </lambert>
        </technique>
      </profile_COMMON>
    </effect>
  </library_effects>
  <library_images/>
  <library_materials>
    <material id="mat_0-material" name="mat_0">
      <instance_effect url="#mat_0-effect"/>
    </material>
    <material id="mat_1-material" name="mat_1">
      <instance_effect url="#mat_1-effect"/>
    </material>
  </library_materials>
  <library_geometries>
    <geometry id="camera_led-mesh" name="camera_led">
      <mesh>
        <source id="camera_led-mesh-positions">
          <float_array id="camera_led-mesh-positions-array" count="3138">0.002695262 -0.001288175 0.001318693 0.0024423 -0.00171405 0.001318693 0.002121686 -0.002091586 0.001318693 0.001742422 -0.002410173 0.001318693 0.001315176 -0.00266081 0.001318693 8.52033e-4 -0.002836406 0.001318693 3.66028e-4 -0.002932071 0.001318693 -1.2913e-4 -0.002945065 0.001318693 -6.19479e-4 -0.00287497 0.001318693 -0.001091182 -0.002723872 0.001318693 -0.001530945 -0.002496004 0.001318693 -0.001926422 -0.002197682 0.001318693 -0.002266347 -0.001837491 0.001318693 -0.002541303 -0.001425445 0.001318693 -0.002743363 -9.73242e-4 0.001318693 -0.002866983 -4.93579e-4 0.001318693 -0.002908527 0 0.001318693 -0.002908527 0 3.1875e-4 0.002695262 -0.001288175 3.1875e-4 0.0024423 -0.00171405 3.1875e-4 0.002121686 -0.002091586 3.1875e-4 0.001742422 -0.002410173 3.1875e-4 0.001315176 -0.00266081 3.1875e-4 8.52033e-4 -0.002836406 3.1875e-4 3.66028e-4 -0.002932071 3.1875e-4 -1.2913e-4 -0.002945065 3.1875e-4 -6.19479e-4 -0.00287497 3.1875e-4 -0.001091182 -0.002723872 3.1875e-4 -0.001530945 -0.002496004 3.1875e-4 -0.001926422 -0.002197682 3.1875e-4 -0.002266347 -0.001837491 3.1875e-4 -0.002541303 -0.001425445 3.1875e-4 -0.002743363 -9.73242e-4 3.1875e-4 -0.002866983 -4.93579e-4 3.1875e-4 -0.002458572 0 3.1875e-4 -0.002420544 4.3412e-4 3.1875e-4 -0.002307772 8.5505e-4 3.1875e-4 -0.002123594 0.001249969 3.1875e-4 -0.001873672 0.001606941 3.1875e-4 -0.001565515 0.001915097 3.1875e-4 -0.001208543 0.002165019 3.1875e-4 -8.13626e-4 0.002349197 3.1875e-4 -3.92696e-4 0.002461969 3.1875e-4 4.14244e-5 0.002499997 3.1875e-4 4.75545e-4 0.002461969 3.1875e-4 8.96475e-4 0.002349197 3.1875e-4 0.001291394 0.002165019 3.1875e-4 0.001648366 0.001915097 3.1875e-4 0.001956522 0.001606941 3.1875e-4 0.002206444 0.001249969 3.1875e-4 0.002390623 8.5505e-4 3.1875e-4 0.002503395 4.3412e-4 3.1875e-4 0.002541422 0 3.1875e-4 0.002541422 0 -0.004781246 4.14244e-5 0.002499997 -0.004781246 4.75545e-4 0.002461969 -0.004781246 8.96475e-4 0.002349197 -0.004781246 0.001291394 0.002165019 -0.004781246 0.001648366 0.001915097 -0.004781246 0.001956522 0.001606941 -0.004781246 0.002206444 0.001249969 -0.004781246 0.002390623 8.5505e-4 -0.004781246 0.002503395 4.3412e-4 -0.004781246 -0.002458572 0 -0.004781246 -0.002420544 4.3412e-4 -0.004781246 -0.002307772 8.5505e-4 -0.004781246 -0.002123594 0.001249969 -0.004781246 -0.001873672 0.001606941 -0.004781246 -0.001565515 0.001915097 -0.004781246 -0.001208543 0.002165019 -0.004781246 -8.13626e-4 0.002349197 -0.004781246 -3.92696e-4 0.002461969 -0.004781246 -0.002458572 0 -0.004781246 -0.002420544 4.3412e-4 -0.004781246 -0.002307772 8.5505e-4 -0.004781246 -0.002123594 0.001249969 -0.004781246 -0.001873672 0.001606941 -0.004781246 -0.001565515 0.001915097 -0.004781246 -0.001208543 0.002165019 -0.004781246 -8.13626e-4 0.002349197 -0.004781246 -3.92696e-4 0.002461969 -0.004781246 4.14244e-5 0.002499997 -0.004781246 4.14244e-5 0.002499997 -0.004781246 4.75545e-4 0.002461969 -0.004781246 8.96475e-4 0.002349197 -0.004781246 0.001291394 0.002165019 -0.004781246 0.001648366 0.001915097 -0.004781246 0.001956522 0.001606941 -0.004781246 0.002206444 0.001249969 -0.004781246 0.002390623 8.5505e-4 -0.004781246 0.002503395 4.3412e-4 -0.004781246 0.002541422 0 -0.004781246 0.002503395 0 -0.005215346 0.002390623 0 -0.005636274 0.002206444 0 -0.006031215 0.001956522 0 -0.006388187 0.001648366 0 -0.006696343 0.001291394 0 -0.006946265 8.96475e-4 0 -0.007130444 4.75545e-4 0 -0.007243216 4.14244e-5 0 -0.007281243 -0.002420544 0 -0.005215346 -0.002307772 0 -0.005636274 -0.002123594 0 -0.006031215 -0.001873672 0 -0.006388187 -0.001565515 0 -0.006696343 -0.001208543 0 -0.006946265 -8.13626e-4 0 -0.007130444 -3.92696e-4 0 -0.007243216 0.002460956 5.56302e-4 -0.005074977 0.002320349 5.56302e-4 -0.005645513 0.00204724 5.56302e-4 -0.006165802 0.002228379 0.001084685 -0.00532025 0.001657664 5.56302e-4 -0.006605565 0.002035796 0.001084685 -0.005827963 0.001981735 0.001558721 -0.005016803 0.001174092 5.56302e-4 -0.006939351 0.001727342 0.001084685 -0.006274878 0.001868963 0.001558721 -0.005474328 6.24713e-4 5.56302e-4 -0.007147729 0.001320898 0.001084685 -0.00663495 0.001649975 0.001558721 -0.005891561 0.001554846 0.001954555 -0.005154252 4.14244e-5 5.56302e-4 -0.007218539 8.40144e-4 0.001084685 -0.006887257 0.001337528 0.001558721 -0.006244242 0.00142157 0.001954555 -0.005505621 0.001118183 0.002252399 -0.004911959 -5.41864e-4 5.56302e-4 -0.007147729 3.12924e-4 0.001084685 -0.007017195 9.49762e-4 0.001558721 -0.006511926 0.001208126 0.001954555 -0.00581485 0.001055598 0.002252399 -0.005165874 -0.001091241 5.56302e-4 -0.006939351 -2.30075e-4 0.001084685 -0.007017195 5.09186e-4 0.001558721 -0.006678998 9.26881e-4 0.001954555 -0.006063997 9.34123e-4 0.002252399 -0.005397379 5.81562e-4 0.002437293 -0.004914343 -0.001574814 5.56302e-4 -0.006605565 -7.57295e-4 0.001084685 -0.006887257 4.14244e-5 0.001558721 -0.006735801 5.94156e-4 0.001954555 -0.006238639 7.6072e-4 0.002252399 -0.005593121 5.34006e-4 0.002437293 -0.005039751 -0.001964449 5.56302e-4 -0.006165802 -0.001238048 0.001084685 -0.00663495 -4.26337e-4 0.001558721 -0.006678998 2.29308e-4 0.001954555 -0.006328582 5.45514e-4 0.002252399 -0.005741655 4.57823e-4 0.002437293 -0.005150139 -0.002237498 5.56302e-4 -0.005645513 -0.001644492 0.001084685 -0.006274878 -8.66914e-4 0.001558721 -0.006511926 -1.46459e-4 0.001954555 -0.006328582 3.01012e-4 0.002252399 -0.0058344 3.5744e-4 0.002437293 -0.005239069 -0.002378106 5.56302e-4 -0.005074977 -0.001952946 0.001084685 -0.005827963 -0.001254677 0.001558721 -0.006244242 -5.11307e-4 0.001954555 -0.006238639 4.14244e-5 0.002252399 -0.005865931 2.38692e-4 0.002437293 -0.005301356 -0.002145528 0.001084685 -0.00532025 -0.001567125 0.001558721 -0.005891561 -8.44032e-4 0.001954555 -0.006063997 -2.18164e-4 0.002252399 -0.0058344 1.08479e-4 0.002437293 -0.005333483 -0.001786112 0.001558721 -0.005474328 -0.001125276 0.001954555 -0.00581485 -4.62665e-4 0.002252399 -0.005741655 -2.56304e-5 0.002437293 -0.005333483 -0.001898884 0.001558721 -0.005016803 -0.00133872 0.001954555 -0.005505621 -6.77871e-4 0.002252399 -0.005593121 -1.55843e-4 0.002437293 -0.005301356 -0.001471996 0.001954555 -0.005154252 -8.51274e-4 0.002252399 -0.005397379 -2.74591e-4 0.002437293 -0.005239069 -9.72796e-4 0.002252399 -0.005165874 -3.74974e-4 0.002437293 -0.005150139 -0.001035332 0.002252399 -0.004911959 -4.51157e-4 0.002437293 -0.005039751 -4.98713e-4 0.002437293 -0.004914343 -0.002908527 0 0.001318693 -0.002866983 4.93579e-4 0.001318693 -0.002743363 9.73242e-4 0.001318693 -0.002541303 0.001425445 0.001318693 -0.002266347 0.001837491 0.001318693 -0.001926422 0.002197682 0.001318693 -0.001530945 0.002496004 0.001318693 -0.001091182 0.002723872 0.001318693 -6.19479e-4 0.00287497 0.001318693 -1.2913e-4 0.002945065 0.001318693 3.66028e-4 0.002932071 0.001318693 8.52033e-4 0.002836406 0.001318693 0.001315176 0.00266081 0.001318693 0.001742422 0.002410173 0.001318693 0.002121686 0.002091586 0.001318693 0.0024423 0.00171405 0.001318693 0.002695262 0.001288175 0.001318693 0.002695262 -0.001288175 0.001318693 0.0024423 -0.00171405 0.001318693 0.002121686 -0.002091586 0.001318693 0.001742422 -0.002410173 0.001318693 0.001315176 -0.00266081 0.001318693 8.52033e-4 -0.002836406 0.001318693 3.66028e-4 -0.002932071 0.001318693 -1.2913e-4 -0.002945065 0.001318693 -6.19479e-4 -0.00287497 0.001318693 -0.001091182 -0.002723872 0.001318693 -0.001530945 -0.002496004 0.001318693 -0.001926422 -0.002197682 0.001318693 -0.002266347 -0.001837491 0.001318693 -0.002541303 -0.001425445 0.001318693 -0.002743363 -9.73242e-4 0.001318693 -0.002866983 -4.93579e-4 0.001318693 -0.001019954 2.3975e-4 0.001318693 -0.001519978 2.3975e-4 0.001318693 -0.001519978 -2.6025e-4 0.001318693 -0.001019954 -2.6025e-4 0.001318693 0.001519978 2.3975e-4 0.001318693 0.001019954 2.3975e-4 0.001318693 0.001019954 -2.6025e-4 0.001318693 0.001519978 -2.6025e-4 0.001318693 0.002541422 0 -0.004781246 0.002503395 0 -0.005215346 0.002390623 0 -0.005636274 0.002206444 0 -0.006031215 0.001956522 0 -0.006388187 0.001648366 0 -0.006696343 0.001291394 0 -0.006946265 8.96475e-4 0 -0.007130444 4.75545e-4 0 -0.007243216 4.14244e-5 0 -0.007281243 0.002503395 -4.3412e-4 -0.004781246 0.002390623 -8.5505e-4 -0.004781246 0.002206444 -0.001249969 -0.004781246 0.001956522 -0.001606941 -0.004781246 0.001648366 -0.001915097 -0.004781246 0.001291394 -0.002165019 -0.004781246 8.96475e-4 -0.002349197 -0.004781246 4.75545e-4 -0.002461969 -0.004781246 4.14244e-5 -0.002499997 -0.004781246 4.14244e-5 -0.002499997 -0.004781246 -3.92696e-4 -0.002461969 -0.004781246 -8.13626e-4 -0.002349197 -0.004781246 -0.001208543 -0.002165019 -0.004781246 -0.001565515 -0.001915097 -0.004781246 -0.001873672 -0.001606941 -0.004781246 -0.002123594 -0.001249969 -0.004781246 -0.002307772 -8.5505e-4 -0.004781246 -0.002420544 -4.3412e-4 -0.004781246 -0.002458572 0 -0.004781246 -0.002420544 0 -0.005215346 -0.002307772 0 -0.005636274 -0.002123594 0 -0.006031215 -0.001873672 0 -0.006388187 -0.001565515 0 -0.006696343 -0.001208543 0 -0.006946265 -8.13626e-4 0 -0.007130444 -3.92696e-4 0 -0.007243216 5.93671e-4 -0.002437293 -0.004848301 5.61576e-4 -0.002437293 -0.004978477 4.99252e-4 -0.002437293 -0.00509721 0.001094579 -0.002252399 -0.005040824 4.10321e-4 -0.002437293 -0.005197644 0.001001834 -0.002252399 -0.005285322 0.001588761 -0.001954555 -0.00496912 2.99951e-4 -0.002437293 -0.005273818 8.53341e-4 -0.002252399 -0.005500495 0.001498818 -0.001954555 -0.00533396 1.74556e-4 -0.002437293 -0.005321383 6.5761e-4 -0.002252399 -0.005673944 0.001324176 -0.001954555 -0.005666673 0.001939177 -0.001558721 -0.005248963 4.14244e-5 -0.002437293 -0.005337536 4.26068e-4 -0.002252399 -0.005795419 0.001075029 -0.001954555 -0.005947947 0.001772105 -0.001558721 -0.005689561 0.002277374 -0.001084685 -0.005052745 -9.17074e-5 -0.002437293 -0.005321383 1.72172e-4 -0.002252399 -0.005858004 7.658e-4 -0.001954555 -0.006161391 0.001504421 -0.001558721 -0.006077349 0.002147436 -0.001084685 -0.005579948 -2.17102e-4 -0.002437293 -0.005273818 -8.93228e-5 -0.002252399 -0.005858004 4.14452e-4 -0.001954555 -0.006294667 0.00115174 -0.001558721 -0.006389796 0.001895129 -0.001084685 -0.006060719 0.002407908 -5.56302e-4 -0.005364537 -3.27472e-4 -0.002437293 -0.005197644 -3.43219e-4 -0.002252399 -0.005795419 4.14244e-5 -0.001954555 -0.006339967 7.34528e-4 -0.001558721 -0.006608784 0.001534998 -0.001084685 -0.006467163 0.00219953 -5.56302e-4 -0.005913913 -4.16403e-4 -0.002437293 -0.00509721 -5.74761e-4 -0.002252399 -0.005673944 -3.31603e-4 -0.001954555 -0.006294667 2.77023e-4 -0.001558721 -0.006721556 0.001088142 -0.001084685 -0.006775617 0.001865744 -5.56302e-4 -0.006397485 -4.78727e-4 -0.002437293 -0.004978477 -7.70492e-4 -0.002252399 -0.005500495 -6.82951e-4 -0.001954555 -0.006161391 -1.94174e-4 -0.001558721 -0.006721556 5.80464e-4 -0.001084685 -0.0069682 0.001425921 -5.56302e-4 -0.006787121 -5.10822e-4 -0.002437293 -0.004848301 -9.19038e-4 -0.002252399 -0.005285322 -9.92201e-4 -0.001954555 -0.005947947 -6.51679e-4 -0.001558721 -0.006608784 4.14244e-5 -0.001084685 -0.007033646 9.0571e-4 -5.56302e-4 -0.00706017 -0.001011729 -0.002252399 -0.005040824 -0.001241326 -0.001954555 -0.005666673 -0.00106889 -0.001558721 -0.006389796 -4.97615e-4 -0.001084685 -0.0069682 3.35211e-4 -5.56302e-4 -0.007200777 -0.001415967 -0.001954555 -0.00533396 -0.00142157 -0.001558721 -0.006077349 -0.001005291 -0.001084685 -0.006775617 -2.52362e-4 -5.56302e-4 -0.007200777 -0.001505911 -0.001954555 -0.00496912 -0.001689255 -0.001558721 -0.005689561 -0.001452207 -0.001084685 -0.006467163 -8.22861e-4 -5.56302e-4 -0.00706017 -0.001856327 -0.001558721 -0.005248963 -0.001812279 -0.001084685 -0.006060719 -0.001343131 -5.56302e-4 -0.006787121 -0.002064585 -0.001084685 -0.005579948 -0.001782894 -5.56302e-4 -0.006397485 -0.002194523 -0.001084685 -0.005052745 -0.00211668 -5.56302e-4 -0.005913913 -0.002325057 -5.56302e-4 -0.005364537 0.002541422 0 3.1875e-4 0.002541422 0 -0.004781246 0.002503395 -4.3412e-4 3.1875e-4 0.002390623 -8.5505e-4 3.1875e-4 0.002206444 -0.001249969 3.1875e-4 0.001956522 -0.001606941 3.1875e-4 0.001648366 -0.001915097 3.1875e-4 0.001291394 -0.002165019 3.1875e-4 8.96475e-4 -0.002349197 3.1875e-4 4.75545e-4 -0.002461969 3.1875e-4 4.14244e-5 -0.002499997 3.1875e-4 -3.92696e-4 -0.002461969 3.1875e-4 -8.13626e-4 -0.002349197 3.1875e-4 -0.001208543 -0.002165019 3.1875e-4 -0.001565515 -0.001915097 3.1875e-4 -0.001873672 -0.001606941 3.1875e-4 -0.002123594 -0.001249969 3.1875e-4 -0.002307772 -8.5505e-4 3.1875e-4 -0.002420544 -4.3412e-4 3.1875e-4 -0.002458572 0 3.1875e-4 -0.002458572 0 -0.004781246 4.14244e-5 -0.002499997 -0.004781246 -3.92696e-4 -0.002461969 -0.004781246 -8.13626e-4 -0.002349197 -0.004781246 -0.001208543 -0.002165019 -0.004781246 -0.001565515 -0.001915097 -0.004781246 -0.001873672 -0.001606941 -0.004781246 -0.002123594 -0.001249969 -0.004781246 -0.002307772 -8.5505e-4 -0.004781246 -0.002420544 -4.3412e-4 -0.004781246 0.002503395 -4.3412e-4 -0.004781246 0.002390623 -8.5505e-4 -0.004781246 0.002206444 -0.001249969 -0.004781246 0.001956522 -0.001606941 -0.004781246 0.001648366 -0.001915097 -0.004781246 0.001291394 -0.002165019 -0.004781246 8.96475e-4 -0.002349197 -0.004781246 4.75545e-4 -0.002461969 -0.004781246 0.002695262 -0.001288175 3.1875e-4 0.002695262 0.001288175 3.1875e-4 -0.002908527 0 3.1875e-4 -0.002866983 4.93579e-4 3.1875e-4 -0.002743363 9.73242e-4 3.1875e-4 -0.002541303 0.001425445 3.1875e-4 -0.002266347 0.001837491 3.1875e-4 -0.001926422 0.002197682 3.1875e-4 -0.001530945 0.002496004 3.1875e-4 -0.001091182 0.002723872 3.1875e-4 -6.19479e-4 0.00287497 3.1875e-4 -1.2913e-4 0.002945065 3.1875e-4 3.66028e-4 0.002932071 3.1875e-4 8.52033e-4 0.002836406 3.1875e-4 0.001315176 0.00266081 3.1875e-4 0.001742422 0.002410173 3.1875e-4 0.002121686 0.002091586 3.1875e-4 0.0024423 0.00171405 3.1875e-4 0.0024423 -0.00171405 3.1875e-4 0.002121686 -0.002091586 3.1875e-4 0.001742422 -0.002410173 3.1875e-4 0.001315176 -0.00266081 3.1875e-4 8.52033e-4 -0.002836406 3.1875e-4 3.66028e-4 -0.002932071 3.1875e-4 -1.2913e-4 -0.002945065 3.1875e-4 -6.19479e-4 -0.00287497 3.1875e-4 -0.001091182 -0.002723872 3.1875e-4 -0.001530945 -0.002496004 3.1875e-4 -0.001926422 -0.002197682 3.1875e-4 -0.002266347 -0.001837491 3.1875e-4 -0.002541303 -0.001425445 3.1875e-4 -0.002743363 -9.73242e-4 3.1875e-4 -0.002866983 -4.93579e-4 3.1875e-4 0.002541422 0 3.1875e-4 0.002503395 -4.3412e-4 3.1875e-4 0.002390623 -8.5505e-4 3.1875e-4 0.002206444 -0.001249969 3.1875e-4 0.001956522 -0.001606941 3.1875e-4 0.001648366 -0.001915097 3.1875e-4 0.001291394 -0.002165019 3.1875e-4 8.96475e-4 -0.002349197 3.1875e-4 4.75545e-4 -0.002461969 3.1875e-4 4.14244e-5 -0.002499997 3.1875e-4 -3.92696e-4 -0.002461969 3.1875e-4 -8.13626e-4 -0.002349197 3.1875e-4 -0.001208543 -0.002165019 3.1875e-4 -0.001565515 -0.001915097 3.1875e-4 -0.001873672 -0.001606941 3.1875e-4 -0.002123594 -0.001249969 3.1875e-4 -0.002307772 -8.5505e-4 3.1875e-4 -0.002420544 -4.3412e-4 3.1875e-4 -0.002458572 0 3.1875e-4 -0.002420544 4.3412e-4 3.1875e-4 -0.002307772 8.5505e-4 3.1875e-4 -0.002123594 0.001249969 3.1875e-4 -0.001873672 0.001606941 3.1875e-4 -0.001565515 0.001915097 3.1875e-4 -0.001208543 0.002165019 3.1875e-4 -8.13626e-4 0.002349197 3.1875e-4 -3.92696e-4 0.002461969 3.1875e-4 4.14244e-5 0.002499997 3.1875e-4 4.75545e-4 0.002461969 3.1875e-4 8.96475e-4 0.002349197 3.1875e-4 0.001291394 0.002165019 3.1875e-4 0.001648366 0.001915097 3.1875e-4 0.001956522 0.001606941 3.1875e-4 0.002206444 0.001249969 3.1875e-4 0.002390623 8.5505e-4 3.1875e-4 0.002503395 4.3412e-4 3.1875e-4 -0.002908527 0 0.001318693 -0.002908527 0 3.1875e-4 -0.002866983 4.93579e-4 0.001318693 -0.002743363 9.73242e-4 0.001318693 -0.002541303 0.001425445 0.001318693 -0.002266347 0.001837491 0.001318693 -0.001926422 0.002197682 0.001318693 -0.001530945 0.002496004 0.001318693 -0.001091182 0.002723872 0.001318693 -6.19479e-4 0.00287497 0.001318693 -1.2913e-4 0.002945065 0.001318693 3.66028e-4 0.002932071 0.001318693 8.52033e-4 0.002836406 0.001318693 0.001315176 0.00266081 0.001318693 0.001742422 0.002410173 0.001318693 0.002121686 0.002091586 0.001318693 0.0024423 0.00171405 0.001318693 0.002695262 0.001288175 0.001318693 0.002695262 0.001288175 3.1875e-4 -0.002866983 4.93579e-4 3.1875e-4 -0.002743363 9.73242e-4 3.1875e-4 -0.002541303 0.001425445 3.1875e-4 -0.002266347 0.001837491 3.1875e-4 -0.001926422 0.002197682 3.1875e-4 -0.001530945 0.002496004 3.1875e-4 -0.001091182 0.002723872 3.1875e-4 -6.19479e-4 0.00287497 3.1875e-4 -1.2913e-4 0.002945065 3.1875e-4 3.66028e-4 0.002932071 3.1875e-4 8.52033e-4 0.002836406 3.1875e-4 0.001315176 0.00266081 3.1875e-4 0.001742422 0.002410173 3.1875e-4 0.002121686 0.002091586 3.1875e-4 0.0024423 0.00171405 3.1875e-4 0.002695262 -0.001288175 3.1875e-4 0.002695262 0.001288175 3.1875e-4 0.002695262 -0.001288175 0.001318693 0.002695262 0.001288175 0.001318693 -0.002608537 0 0.001018702 -0.002608537 0 6.1875e-4 0.002691388 0 6.1875e-4 0.002651154 -4.60168e-4 6.1875e-4 0.002531588 -9.06353e-4 6.1875e-4 0.002336382 -0.001324951 6.1875e-4 0.00207144 -0.001703381 6.1875e-4 0.001744806 -0.002030014 6.1875e-4 0.001366376 -0.002294957 6.1875e-4 9.47778e-4 -0.002490162 6.1875e-4 5.01592e-4 -0.002609729 6.1875e-4 4.14244e-5 -0.002649962 6.1875e-4 -4.18743e-4 -0.002609729 6.1875e-4 -8.64929e-4 -0.002490162 6.1875e-4 -0.001283526 -0.002294957 6.1875e-4 -0.001661956 -0.002030014 6.1875e-4 -0.001988589 -0.001703381 6.1875e-4 -0.002253532 -0.001324951 6.1875e-4 -0.002448737 -9.06353e-4 6.1875e-4 -0.002568304 -4.60168e-4 6.1875e-4 0.002691388 0 0.001018702 0.002651154 -4.60168e-4 0.001018702 0.002531588 -9.06353e-4 0.001018702 0.002336382 -0.001324951 0.001018702 0.00207144 -0.001703381 0.001018702 0.001744806 -0.002030014 0.001018702 0.001366376 -0.002294957 0.001018702 9.47778e-4 -0.002490162 0.001018702 5.01592e-4 -0.002609729 0.001018702 4.14244e-5 -0.002649962 0.001018702 -4.18743e-4 -0.002609729 0.001018702 -8.64929e-4 -0.002490162 0.001018702 -0.001283526 -0.002294957 0.001018702 -0.001661956 -0.002030014 0.001018702 -0.001988589 -0.001703381 0.001018702 -0.002253532 -0.001324951 0.001018702 -0.002448737 -9.06353e-4 0.001018702 -0.002568304 -4.60168e-4 0.001018702 -0.002158522 0 -0.004781246 -0.002130687 0 -0.00513029 -0.002047777 0 -0.005470514 -0.001911938 0 -0.005793213 -0.001726627 0 -0.006090342 -0.001496553 0 -0.006354272 -0.001227498 0 -0.006578385 -9.26297e-4 0 -0.006756961 -6.00569e-4 0 -0.006885468 -2.58576e-4 0 -0.00696069 3.41424e-4 0 -0.00696069 3.26741e-4 -9.27051e-5 -0.00696069 2.8413e-4 -1.76336e-4 -0.00696069 2.1776e-4 -2.42705e-4 -0.00696069 1.3413e-4 -2.85317e-4 -0.00696069 4.14244e-5 -3e-4 -0.00696069 -5.12807e-5 -2.85317e-4 -0.00696069 -1.34911e-4 -2.42705e-4 -0.00696069 -2.01281e-4 -1.76336e-4 -0.00696069 -2.43893e-4 -9.27051e-5 -0.00696069 0.002241373 0 -0.004781246 0.002213537 0 -0.00513029 0.002130627 0 -0.005470514 0.001994788 0 -0.005793213 0.001809477 0 -0.006090342 0.001579403 0 -0.006354272 0.001310348 0 -0.006578385 0.001009106 0 -0.006756961 6.83417e-4 0 -0.006885468 0.002207994 -3.82026e-4 -0.004781246 0.002108693 -7.52444e-4 -0.004781246 0.001946628 -0.001099944 -0.004781246 0.001726686 -0.00141412 -0.004781246 0.001455545 -0.001685261 -0.004781246 0.001141369 -0.001905202 -0.004781246 7.93869e-4 -0.002067267 -0.004781246 4.2345e-4 -0.002166569 -0.004781246 4.14244e-5 -0.002199947 -0.004781246 4.14244e-5 -0.002199947 -0.004781246 -3.40602e-4 -0.002166569 -0.004781246 -7.1102e-4 -0.002067267 -0.004781246 -0.001058518 -0.001905202 -0.004781246 -0.001372694 -0.001685261 -0.004781246 -0.001643836 -0.00141412 -0.004781246 -0.001863777 -0.001099944 -0.004781246 -0.002025842 -7.52444e-4 -0.004781246 -0.002125144 -3.82026e-4 -0.004781246 5.27401e-4 -0.002144813 -0.004840254 4.99158e-4 -0.002144813 -0.004954814 4.44313e-4 -0.002144813 -0.005059301 9.68231e-4 -0.001982092 -0.005009651 3.66053e-4 -0.002144813 -0.005147635 8.86631e-4 -0.001982092 -0.005224823 0.001403093 -0.001720011 -0.004946529 2.68928e-4 -0.002144813 -0.005214691 7.55911e-4 -0.001982092 -0.005414187 0.001323938 -0.001720011 -0.00526762 1.5858e-4 -0.002144813 -0.005256533 5.83667e-4 -0.001982092 -0.005566775 0.001170277 -0.001720011 -0.005560398 0.001711428 -0.001371622 -0.005192875 4.14244e-5 -0.002144813 -0.005270779 3.7991e-4 -0.001982092 -0.005673706 9.51015e-4 -0.001720011 -0.005807936 0.001564383 -0.001371622 -0.005580544 0.002009093 -9.54544e-4 -0.005020141 -7.57316e-5 -0.002144813 -0.005256533 1.56482e-4 -0.001982092 -0.005728781 6.78875e-4 -0.001720011 -0.00599581 0.001328825 -0.001371622 -0.00592184 0.001894712 -9.54544e-4 -0.005484104 -1.86079e-4 -0.002144813 -0.005214691 -7.36332e-5 -0.001982092 -0.005728781 3.69688e-4 -0.001720011 -0.006113052 0.001018464 -0.001371622 -0.006196796 0.001672685 -9.54544e-4 -0.005907177 0.002123892 -4.89546e-4 -0.005294501 -2.83205e-4 -0.002144813 -0.005147635 -2.97062e-4 -0.001982092 -0.005673706 4.14244e-5 -0.001720011 -0.006152927 6.51355e-4 -0.001371622 -0.006389498 0.001355767 -9.54544e-4 -0.006264865 0.001940548 -4.89546e-4 -0.005777955 -3.61464e-4 -0.002144813 -0.005059301 -5.00818e-4 -0.001982092 -0.005566775 -2.86839e-4 -0.001720011 -0.006113052 2.48751e-4 -0.001371622 -0.00648868 9.62567e-4 -9.54544e-4 -0.006536304 0.001646816 -4.89546e-4 -0.006203532 -4.16309e-4 -0.002144813 -0.004954814 -6.73062e-4 -0.001982092 -0.005414187 -5.96026e-4 -0.001720011 -0.00599581 -1.65902e-4 -0.001371622 -0.00648868 5.1578e-4 -9.54544e-4 -0.00670576 0.001259803 -4.89546e-4 -0.006546378 -4.44552e-4 -0.002144813 -0.004840254 -8.03783e-4 -0.001982092 -0.005224823 -8.68166e-4 -0.001720011 -0.005807936 -5.68506e-4 -0.001371622 -0.006389498 4.14244e-5 -9.54544e-4 -0.006763339 8.01996e-4 -4.89546e-4 -0.006786704 -8.85382e-4 -0.001982092 -0.005009651 -0.001087427 -0.001720011 -0.005560398 -9.35664e-4 -0.001371622 -0.006196796 -4.32931e-4 -9.54544e-4 -0.00670576 2.99956e-4 -4.89546e-4 -0.006910443 -0.001241087 -0.001720011 -0.00526762 -0.001246035 -0.001371622 -0.00592184 -8.79718e-4 -9.54544e-4 -0.006536304 -2.17108e-4 -4.89546e-4 -0.006910443 -0.001320242 -0.001720011 -0.004946529 -0.001481533 -0.001371622 -0.005580544 -0.001272916 -9.54544e-4 -0.006264865 -7.19147e-4 -4.89546e-4 -0.006786704 -0.001628577 -0.001371622 -0.005192875 -0.001589834 -9.54544e-4 -0.005907177 -0.001176953 -4.89546e-4 -0.006546378 -0.001811861 -9.54544e-4 -0.005484104 -0.001563966 -4.89546e-4 -0.006203532 -0.001926243 -9.54544e-4 -0.005020141 -0.001857697 -4.89546e-4 -0.005777955 -0.002041041 -4.89546e-4 -0.005294501 -0.002158522 0 6.1875e-4 -0.002158522 0 -0.004781246 4.14244e-5 -0.002199947 -0.004781246 -3.40602e-4 -0.002166569 -0.004781246 -7.1102e-4 -0.002067267 -0.004781246 -0.001058518 -0.001905202 -0.004781246 -0.001372694 -0.001685261 -0.004781246 -0.001643836 -0.00141412 -0.004781246 -0.001863777 -0.001099944 -0.004781246 -0.002025842 -7.52444e-4 -0.004781246 -0.002125144 -3.82026e-4 -0.004781246 0.002241373 0 -0.004781246 0.002207994 -3.82026e-4 -0.004781246 0.002108693 -7.52444e-4 -0.004781246 0.001946628 -0.001099944 -0.004781246 0.001726686 -0.00141412 -0.004781246 0.001455545 -0.001685261 -0.004781246 0.001141369 -0.001905202 -0.004781246 7.93869e-4 -0.002067267 -0.004781246 4.2345e-4 -0.002166569 -0.004781246 0.002241373 0 6.1875e-4 0.002207994 -3.82026e-4 6.1875e-4 0.002108693 -7.52444e-4 6.1875e-4 0.001946628 -0.001099944 6.1875e-4 0.001726686 -0.00141412 6.1875e-4 0.001455545 -0.001685261 6.1875e-4 0.001141369 -0.001905202 6.1875e-4 7.93869e-4 -0.002067267 6.1875e-4 4.2345e-4 -0.002166569 6.1875e-4 4.14244e-5 -0.002199947 6.1875e-4 -3.40602e-4 -0.002166569 6.1875e-4 -7.1102e-4 -0.002067267 6.1875e-4 -0.001058518 -0.001905202 6.1875e-4 -0.001372694 -0.001685261 6.1875e-4 -0.001643836 -0.00141412 6.1875e-4 -0.001863777 -0.001099944 6.1875e-4 -0.002025842 -7.52444e-4 6.1875e-4 -0.002125144 -3.82026e-4 6.1875e-4 -0.002158522 0 -0.004781246 -0.002125144 3.82026e-4 -0.004781246 -0.002025842 7.52444e-4 -0.004781246 -0.001863777 0.001099944 -0.004781246 -0.001643836 0.00141412 -0.004781246 -0.001372694 0.001685261 -0.004781246 -0.001058518 0.001905202 -0.004781246 -7.1102e-4 0.002067267 -0.004781246 -3.40602e-4 0.002166569 -0.004781246 4.14244e-5 0.002199947 -0.004781246 -0.002158522 0 6.1875e-4 -0.002125144 3.82026e-4 6.1875e-4 -0.002025842 7.52444e-4 6.1875e-4 -0.001863777 0.001099944 6.1875e-4 -0.001643836 0.00141412 6.1875e-4 -0.001372694 0.001685261 6.1875e-4 -0.001058518 0.001905202 6.1875e-4 -7.1102e-4 0.002067267 6.1875e-4 -3.40602e-4 0.002166569 6.1875e-4 4.14244e-5 0.002199947 6.1875e-4 4.2345e-4 0.002166569 6.1875e-4 7.93869e-4 0.002067267 6.1875e-4 0.001141369 0.001905202 6.1875e-4 0.001455545 0.001685261 6.1875e-4 0.001726686 0.00141412 6.1875e-4 0.001946628 0.001099944 6.1875e-4 0.002108693 7.52444e-4 6.1875e-4 0.002207994 3.82026e-4 6.1875e-4 0.002241373 0 6.1875e-4 0.002241373 0 -0.004781246 4.2345e-4 0.002166569 -0.004781246 7.93869e-4 0.002067267 -0.004781246 0.001141369 0.001905202 -0.004781246 0.001455545 0.001685261 -0.004781246 0.001726686 0.00141412 -0.004781246 0.001946628 0.001099944 -0.004781246 0.002108693 7.52444e-4 -0.004781246 0.002207994 3.82026e-4 -0.004781246 -2.58576e-4 0 -0.00696069 -2.43893e-4 9.27051e-5 -0.00696069 -2.01281e-4 1.76336e-4 -0.00696069 -1.34911e-4 2.42705e-4 -0.00696069 -5.12807e-5 2.85317e-4 -0.00696069 4.14244e-5 3e-4 -0.00696069 1.3413e-4 2.85317e-4 -0.00696069 2.1776e-4 2.42705e-4 -0.00696069 2.8413e-4 1.76336e-4 -0.00696069 3.26741e-4 9.27051e-5 -0.00696069 3.41424e-4 0 -0.00696069 -0.002158522 0 -0.004781246 -0.002130687 0 -0.00513029 -0.002047777 0 -0.005470514 -0.001911938 0 -0.005793213 -0.001726627 0 -0.006090342 -0.001496553 0 -0.006354272 -0.001227498 0 -0.006578385 -9.26297e-4 0 -0.006756961 -6.00569e-4 0 -0.006885468 -0.002125144 3.82026e-4 -0.004781246 -0.002025842 7.52444e-4 -0.004781246 -0.001863777 0.001099944 -0.004781246 -0.001643836 0.00141412 -0.004781246 -0.001372694 0.001685261 -0.004781246 -0.001058518 0.001905202 -0.004781246 -7.1102e-4 0.002067267 -0.004781246 -3.40602e-4 0.002166569 -0.004781246 4.14244e-5 0.002199947 -0.004781246 4.14244e-5 0.002199947 -0.004781246 4.2345e-4 0.002166569 -0.004781246 7.93869e-4 0.002067267 -0.004781246 0.001141369 0.001905202 -0.004781246 0.001455545 0.001685261 -0.004781246 0.001726686 0.00141412 -0.004781246 0.001946628 0.001099944 -0.004781246 0.002108693 7.52444e-4 -0.004781246 0.002207994 3.82026e-4 -0.004781246 0.002241373 0 -0.004781246 0.002213537 0 -0.00513029 0.002130627 0 -0.005470514 0.001994788 0 -0.005793213 0.001809477 0 -0.006090342 0.001579403 0 -0.006354272 0.001310348 0 -0.006578385 0.001009106 0 -0.006756961 6.83417e-4 0 -0.006885468 0.002170622 4.89546e-4 -0.005039751 0.002046883 4.89546e-4 -0.005541801 0.001806557 4.89546e-4 -0.005999624 0.001965939 9.54544e-4 -0.005255579 0.001463711 4.89546e-4 -0.006386637 0.001796483 9.54544e-4 -0.005702376 0.001748859 0.001371622 -0.004988551 0.001038134 4.89546e-4 -0.006680369 0.001525044 9.54544e-4 -0.006095588 0.001649677 0.001371622 -0.00539118 5.54719e-4 4.89546e-4 -0.006863713 0.001167356 9.54544e-4 -0.006412506 0.001456975 0.001371622 -0.005758285 0.001373231 0.001720011 -0.005109488 4.14244e-5 4.89546e-4 -0.006926059 7.44298e-4 9.54544e-4 -0.006634533 0.00118196 0.001371622 -0.006068706 0.001255929 0.001720011 -0.005418658 9.89009e-4 0.001982092 -0.004896283 -4.7187e-4 4.89546e-4 -0.006863713 2.80344e-4 9.54544e-4 -0.006748914 8.40762e-4 0.001371622 -0.006304204 0.001068115 0.001720011 -0.005690813 9.33939e-4 0.001982092 -0.005119681 -9.55333e-4 4.89546e-4 -0.006680369 -1.97495e-4 9.54544e-4 -0.006748914 4.53054e-4 0.001371622 -0.006451249 8.20626e-4 0.001720011 -0.005910098 8.26999e-4 0.001982092 -0.005323469 5.16745e-4 0.002144813 -0.004898369 -0.00138086 4.89546e-4 -0.006386637 -6.61449e-4 9.54544e-4 -0.006634533 4.14244e-5 0.001371622 -0.006501257 5.27828e-4 0.001720011 -0.006063759 6.74404e-4 0.001982092 -0.005495727 4.74896e-4 0.002144813 -0.005008697 -0.001723706 4.89546e-4 -0.005999624 -0.001084506 9.54544e-4 -0.006412506 -3.70206e-4 0.001371622 -0.006451249 2.06762e-4 0.001720011 -0.006142914 4.85023e-4 0.001982092 -0.00562644 4.07855e-4 0.002144813 -0.005105853 -0.001964032 4.89546e-4 -0.005541801 -0.001442193 9.54544e-4 -0.006095588 -7.57913e-4 0.001371622 -0.006304204 -1.23913e-4 0.001720011 -0.006142914 2.69862e-4 0.001982092 -0.005708038 3.19518e-4 0.002144813 -0.005184113 -0.002087771 4.89546e-4 -0.005039751 -0.001713633 9.54544e-4 -0.005702376 -0.001099109 0.001371622 -0.006068706 -4.44979e-4 0.001720011 -0.006063759 4.14244e-5 0.001982092 -0.005735754 2.1502e-4 0.002144813 -0.00523895 -0.001883089 9.54544e-4 -0.005255579 -0.001374125 0.001371622 -0.005758285 -7.37777e-4 0.001720011 -0.005910098 -1.87013e-4 0.001982092 -0.005708038 1.00433e-4 0.002144813 -0.005267202 -0.001566827 0.001371622 -0.00539118 -9.85291e-4 0.001720011 -0.005690813 -4.02174e-4 0.001982092 -0.00562644 -1.75838e-5 0.002144813 -0.005267202 -0.001666009 0.001371622 -0.004988551 -0.001173079 0.001720011 -0.005418658 -5.91555e-4 0.001982092 -0.005495727 -1.32171e-4 0.002144813 -0.00523895 -0.00129038 0.001720011 -0.005109488 -7.4415e-4 0.001982092 -0.005323469 -2.36669e-4 0.002144813 -0.005184113 -8.5109e-4 0.001982092 -0.005119681 -3.25006e-4 0.002144813 -0.005105853 -9.0616e-4 0.001982092 -0.004896283 -3.92047e-4 0.002144813 -0.005008697 -4.33896e-4 0.002144813 -0.004898369 -2.58576e-4 0 -0.00696069 -2.43893e-4 9.27051e-5 -0.00696069 -2.01281e-4 1.76336e-4 -0.00696069 -1.34911e-4 2.42705e-4 -0.00696069 -5.12807e-5 2.85317e-4 -0.00696069 4.14244e-5 3e-4 -0.00696069 1.3413e-4 2.85317e-4 -0.00696069 2.1776e-4 2.42705e-4 -0.00696069 2.8413e-4 1.76336e-4 -0.00696069 3.26741e-4 9.27051e-5 -0.00696069 3.41424e-4 0 -0.00696069 3.26741e-4 -9.27051e-5 -0.00696069 2.8413e-4 -1.76336e-4 -0.00696069 2.1776e-4 -2.42705e-4 -0.00696069 1.3413e-4 -2.85317e-4 -0.00696069 4.14244e-5 -3e-4 -0.00696069 -5.12807e-5 -2.85317e-4 -0.00696069 -1.34911e-4 -2.42705e-4 -0.00696069 -2.01281e-4 -1.76336e-4 -0.00696069 -2.43893e-4 -9.27051e-5 -0.00696069 0.002691388 0 0.001018702 0.002651154 -4.60168e-4 0.001018702 0.002531588 -9.06353e-4 0.001018702 0.002336382 -0.001324951 0.001018702 0.00207144 -0.001703381 0.001018702 0.001744806 -0.002030014 0.001018702 0.001366376 -0.002294957 0.001018702 9.47778e-4 -0.002490162 0.001018702 5.01592e-4 -0.002609729 0.001018702 4.14244e-5 -0.002649962 0.001018702 -4.18743e-4 -0.002609729 0.001018702 -8.64929e-4 -0.002490162 0.001018702 -0.001283526 -0.002294957 0.001018702 -0.001661956 -0.002030014 0.001018702 -0.001988589 -0.001703381 0.001018702 -0.002253532 -0.001324951 0.001018702 -0.002448737 -9.06353e-4 0.001018702 -0.002568304 -4.60168e-4 0.001018702 -0.002608537 0 0.001018702 -0.002568304 4.60168e-4 0.001018702 -0.002448737 9.06353e-4 0.001018702 -0.002253532 0.001324951 0.001018702 -0.001988589 0.001703381 0.001018702 -0.001661956 0.002030014 0.001018702 -0.001283526 0.002294957 0.001018702 -8.64929e-4 0.002490162 0.001018702 -4.18743e-4 0.002609729 0.001018702 4.14244e-5 0.002649962 0.001018702 5.01592e-4 0.002609729 0.001018702 9.47778e-4 0.002490162 0.001018702 0.001366376 0.002294957 0.001018702 0.001744806 0.002030014 0.001018702 0.00207144 0.001703381 0.001018702 0.002336382 0.001324951 0.001018702 0.002531588 9.06353e-4 0.001018702 0.002651154 4.60168e-4 0.001018702 -0.002608537 0 6.1875e-4 -0.002568304 4.60168e-4 6.1875e-4 -0.002448737 9.06353e-4 6.1875e-4 -0.002253532 0.001324951 6.1875e-4 -0.001988589 0.001703381 6.1875e-4 -0.001661956 0.002030014 6.1875e-4 -0.001283526 0.002294957 6.1875e-4 -8.64929e-4 0.002490162 6.1875e-4 -4.18743e-4 0.002609729 6.1875e-4 4.14244e-5 0.002649962 6.1875e-4 5.01592e-4 0.002609729 6.1875e-4 9.47778e-4 0.002490162 6.1875e-4 0.001366376 0.002294957 6.1875e-4 0.001744806 0.002030014 6.1875e-4 0.00207144 0.001703381 6.1875e-4 0.002336382 0.001324951 6.1875e-4 0.002531588 9.06353e-4 6.1875e-4 0.002651154 4.60168e-4 6.1875e-4 0.002691388 0 6.1875e-4 -0.002608537 0 0.001018702 -0.002568304 4.60168e-4 0.001018702 -0.002448737 9.06353e-4 0.001018702 -0.002253532 0.001324951 0.001018702 -0.001988589 0.001703381 0.001018702 -0.001661956 0.002030014 0.001018702 -0.001283526 0.002294957 0.001018702 -8.64929e-4 0.002490162 0.001018702 -4.18743e-4 0.002609729 0.001018702 4.14244e-5 0.002649962 0.001018702 5.01592e-4 0.002609729 0.001018702 9.47778e-4 0.002490162 0.001018702 0.001366376 0.002294957 0.001018702 0.001744806 0.002030014 0.001018702 0.00207144 0.001703381 0.001018702 0.002336382 0.001324951 0.001018702 0.002531588 9.06353e-4 0.001018702 0.002651154 4.60168e-4 0.001018702 0.002691388 0 0.001018702 -0.002608537 0 6.1875e-4 -0.002568304 4.60168e-4 6.1875e-4 -0.002448737 9.06353e-4 6.1875e-4 -0.002253532 0.001324951 6.1875e-4 -0.001988589 0.001703381 6.1875e-4 -0.001661956 0.002030014 6.1875e-4 -0.001283526 0.002294957 6.1875e-4 -8.64929e-4 0.002490162 6.1875e-4 -4.18743e-4 0.002609729 6.1875e-4 4.14244e-5 0.002649962 6.1875e-4 5.01592e-4 0.002609729 6.1875e-4 9.47778e-4 0.002490162 6.1875e-4 0.001366376 0.002294957 6.1875e-4 0.001744806 0.002030014 6.1875e-4 0.00207144 0.001703381 6.1875e-4 0.002336382 0.001324951 6.1875e-4 0.002531588 9.06353e-4 6.1875e-4 0.002651154 4.60168e-4 6.1875e-4 0.002691388 0 6.1875e-4 0.002651154 -4.60168e-4 6.1875e-4 0.002531588 -9.06353e-4 6.1875e-4 0.002336382 -0.001324951 6.1875e-4 0.00207144 -0.001703381 6.1875e-4 0.001744806 -0.002030014 6.1875e-4 0.001366376 -0.002294957 6.1875e-4 9.47778e-4 -0.002490162 6.1875e-4 5.01592e-4 -0.002609729 6.1875e-4 4.14244e-5 -0.002649962 6.1875e-4 -4.18743e-4 -0.002609729 6.1875e-4 -8.64929e-4 -0.002490162 6.1875e-4 -0.001283526 -0.002294957 6.1875e-4 -0.001661956 -0.002030014 6.1875e-4 -0.001988589 -0.001703381 6.1875e-4 -0.002253532 -0.001324951 6.1875e-4 -0.002448737 -9.06353e-4 6.1875e-4 -0.002568304 -4.60168e-4 6.1875e-4 -0.002158522 0 6.1875e-4 -0.002125144 3.82026e-4 6.1875e-4 -0.002025842 7.52444e-4 6.1875e-4 -0.001863777 0.001099944 6.1875e-4 -0.001643836 0.00141412 6.1875e-4 -0.001372694 0.001685261 6.1875e-4 -0.001058518 0.001905202 6.1875e-4 -7.1102e-4 0.002067267 6.1875e-4 -3.40602e-4 0.002166569 6.1875e-4 4.14244e-5 0.002199947 6.1875e-4 4.2345e-4 0.002166569 6.1875e-4 7.93869e-4 0.002067267 6.1875e-4 0.001141369 0.001905202 6.1875e-4 0.001455545 0.001685261 6.1875e-4 0.001726686 0.00141412 6.1875e-4 0.001946628 0.001099944 6.1875e-4 0.002108693 7.52444e-4 6.1875e-4 0.002207994 3.82026e-4 6.1875e-4 0.002241373 0 6.1875e-4 0.002207994 -3.82026e-4 6.1875e-4 0.002108693 -7.52444e-4 6.1875e-4 0.001946628 -0.001099944 6.1875e-4 0.001726686 -0.00141412 6.1875e-4 0.001455545 -0.001685261 6.1875e-4 0.001141369 -0.001905202 6.1875e-4 7.93869e-4 -0.002067267 6.1875e-4 4.2345e-4 -0.002166569 6.1875e-4 4.14244e-5 -0.002199947 6.1875e-4 -3.40602e-4 -0.002166569 6.1875e-4 -7.1102e-4 -0.002067267 6.1875e-4 -0.001058518 -0.001905202 6.1875e-4 -0.001372694 -0.001685261 6.1875e-4 -0.001643836 -0.00141412 6.1875e-4 -0.001863777 -0.001099944 6.1875e-4 -0.002025842 -7.52444e-4 6.1875e-4 -0.002125144 -3.82026e-4 6.1875e-4 -0.001019954 -2.6025e-4 0.006318747 -0.001019954 -2.6025e-4 0.001318693 -0.001019954 2.3975e-4 0.006318747 -0.001019954 2.3975e-4 0.001318693 -0.001019954 2.3975e-4 0.006318747 -0.001019954 2.3975e-4 0.001318693 -0.001519978 2.3975e-4 0.006318747 -0.001519978 2.3975e-4 0.001318693 -0.001519978 2.3975e-4 0.006318747 -0.001519978 2.3975e-4 0.001318693 -0.001519978 -2.6025e-4 0.006318747 -0.001519978 -2.6025e-4 0.001318693 -0.001519978 -2.6025e-4 0.006318747 -0.001519978 -2.6025e-4 0.001318693 -0.001019954 -2.6025e-4 0.006318747 -0.001019954 -2.6025e-4 0.001318693 -0.001519978 -2.6025e-4 0.006318747 -0.001019954 -2.6025e-4 0.006318747 -0.001519978 2.3975e-4 0.006318747 -0.001019954 2.3975e-4 0.006318747 0.001519978 -2.6025e-4 0.006318747 0.001519978 -2.6025e-4 0.001318693 0.001519978 2.3975e-4 0.006318747 0.001519978 2.3975e-4 0.001318693 0.001519978 2.3975e-4 0.006318747 0.001519978 2.3975e-4 0.001318693 0.001019954 2.3975e-4 0.006318747 0.001019954 2.3975e-4 0.001318693 0.001019954 2.3975e-4 0.006318747 0.001019954 2.3975e-4 0.001318693 0.001019954 -2.6025e-4 0.006318747 0.001019954 -2.6025e-4 0.001318693 0.001019954 -2.6025e-4 0.006318747 0.001019954 -2.6025e-4 0.001318693 0.001519978 -2.6025e-4 0.006318747 0.001519978 -2.6025e-4 0.001318693 0.001019954 -2.6025e-4 0.006318747 0.001519978 -2.6025e-4 0.006318747 0.001019954 2.3975e-4 0.006318747 0.001519978 2.3975e-4 0.006318747</float_array>
          <technique_common>
            <accessor source="#camera_led-mesh-positions-array" count="1046" stride="3">
              <param name="X" type="float"/>
              <param name="Y" type="float"/>
              <param name="Z" type="float"/>
            </accessor>
          </technique_common>
        </source>
        <source id="camera_led-mesh-normals">
          <float_array id="camera_led-mesh-normals-array" count="2595">0.8138712 -0.5810453 0 0.8996096 -0.436695 -4.00977e-6 0.8138733 -0.5810425 0 0.8996095 -0.4366955 4.02878e-6 0.7051812 -0.7090271 0 0.7051835 -0.709025 0 0.57661 -0.8170195 0 0.5766122 -0.817018 0 0.4317822 -0.9019779 0 0.4317846 -0.9019768 0 0.2747814 -0.9615069 0 0.274784 -0.9615061 0 0.1100335 -0.9939279 0 0.1100363 -0.9939276 0 -0.05781644 -0.9983273 0 -0.0578137 -0.9983274 0 -0.2240362 -0.9745808 0 -0.2240335 -0.9745815 0 -0.3839398 -0.9233582 0 -0.3839374 -0.9233592 0 -0.5330191 -0.8461033 0 -0.5330168 -0.8461047 0 -0.6670712 -0.7449941 0 -0.667069 -0.744996 0 -0.7823167 -0.6228811 0 -0.7823147 -0.6228834 0 -0.8755058 -0.4832078 0 -0.8755043 -0.4832105 0 -0.944012 -0.3299112 0 -0.9440111 -0.3299138 0 -0.9859037 -0.1673134 0 -0.9859034 -0.1673162 0 -1 -1.71959e-5 4.00977e-6 -1 -1.72183e-5 -4.02878e-6 -0.9848078 0.173648 0 -1 1.84029e-5 3.34196e-5 -0.9848078 0.1736485 0 -1 1.91927e-5 4.18238e-6 -0.9396929 0.3420198 0 -0.9396926 0.3420206 0 -0.8660258 0.4999994 0 -0.8660252 0.5000005 0 -0.7660446 0.6427874 0 -0.7660445 0.6427876 0 -0.6427875 0.7660445 0 -0.6427878 0.7660443 0 -0.5000006 0.8660251 0 -0.4999995 0.8660258 0 -0.3420202 0.9396927 0 -0.3420202 0.9396926 0 -0.1736487 0.9848077 0 -0.1736474 0.9848079 0 0 1 0 0 1 0 0.1736474 0.9848079 0 0.1736487 0.9848077 0 0.3420195 0.9396929 0 0.3420208 0.9396924 0 0.4999994 0.8660258 0 0.5000008 0.866025 0 0.6427877 0.7660444 0 0.7660441 0.6427881 0 0.766045 0.6427869 0 0.8660252 0.5000005 0 0.8660256 0.4999997 0 0.9396927 0.34202 0 0.9396926 0.3420203 0 0.9848078 0.1736483 0 1 1.91778e-5 -4.18238e-6 1 1.91927e-5 4.16264e-6 0.984809 0.1736414 -2.02879e-5 1 2.48253e-5 -3.79872e-5 0.9848055 4.73484e-5 -0.1736608 -0.9848091 0.173641 -2.02879e-5 -0.9848056 4.749e-5 -0.1736605 -1 3.80836e-5 -2.47285e-5 0.9678188 0.2225205 -0.117522 0.9396895 0.3420287 -1.07735e-5 0.9116151 0.2225129 -0.3456096 0.9396933 4.73261e-5 -0.3420183 0.8660256 1.75759e-5 -0.4999996 0.8023433 0.2225764 -0.5538095 0.7660399 3.43099e-5 -0.6427931 0.8747915 0.4338718 -0.2156272 0.8660278 0.4999958 -1.96621e-5 0.6464956 0.2225207 -0.7297452 0.6427849 1.54302e-5 -0.7660468 0.5000091 3.71262e-5 -0.8660202 0.7977883 0.4338366 -0.418712 0.7761283 0.623489 -0.0942682 0.6427906 0.766042 -3.48315e-5 0.7660396 0.6427934 -2.24821e-5 0.4531292 0.2225335 -0.8632223 0.3420232 1.70544e-5 -0.9396916 0.6743849 0.4338831 -0.5974533 0.7310271 0.6234872 -0.2772422 0.2333261 0.2224975 -0.9466012 0.1736388 4.25503e-5 -0.9848095 0.5118089 0.4338829 -0.7414832 0.6434363 0.6234875 -0.4441317 0.6053661 0.7818381 -0.1492024 0.5000098 0.8660199 -4.13358e-5 0 0.2224854 -0.974936 -5.74405e-6 2.2307e-5 -1 -0.1736392 4.25726e-5 -0.9848094 0.31948 0.4339296 -0.8424 0.5184514 0.6234873 -0.5852109 0.5520872 0.7818184 -0.289758 0.4307196 0.9009686 -0.05231052 0.3420178 0.9396935 -3.35276e-7 -0.2333263 0.2224975 -0.9466012 -0.342024 1.70544e-5 -0.9396913 0.1085999 0.4338833 -0.8944001 0.3633359 0.6234873 -0.6922793 0.4667011 0.7818185 -0.4134612 0.4057002 0.9009628 -0.153862 -0.4530854 0.2225239 -0.8632479 -0.5000101 3.70592e-5 -0.8660197 -0.1085997 0.4338833 -0.8944001 0.187105 0.6234874 -0.7591148 0.3541921 0.7818183 -0.5131355 0.3570899 0.9009627 -0.2464818 0.2160575 0.9749274 -0.05325281 5.02802e-5 1 -4.02033e-5 0.1736297 0.984811 -4.2215e-5 -0.6464194 0.2225127 -0.7298151 -0.6427852 1.53407e-5 -0.7660465 -0.7660406 3.46899e-5 -0.6427924 -0.3194884 0.433883 -0.8424207 2.66824e-7 0.6234875 -0.7818334 0.2210985 0.7818183 -0.5829886 0.2877271 0.9009627 -0.3247762 0.1970221 0.9749305 -0.1034061 -0.8023433 0.2225764 -0.5538097 -0.8660262 1.7643e-5 -0.4999988 -0.5118091 0.433883 -0.7414831 -0.1871052 0.6234874 -0.7591148 0.07515513 0.7818182 -0.6189605 0.2016419 0.9009628 -0.3841962 0.1665507 0.9749305 -0.1475512 -0.9116151 0.2225128 -0.3456096 -0.9396934 4.8086e-5 -0.342018 -0.6743852 0.4338832 -0.5974529 -0.3633359 0.6234873 -0.6922793 -0.07515555 0.7818183 -0.6189604 0.1038375 0.9009628 -0.4212883 0.1264275 0.9749191 -0.1831634 -0.9678184 0.2225224 -0.1175221 -0.9396924 0.3420206 -1.19582e-5 -0.7977688 0.4338833 -0.418701 -0.5184519 0.6234874 -0.5852104 -0.2211125 0.7817863 -0.583026 0 0.9009628 -0.4338963 0.07890343 0.9749302 -0.2080516 -0.8747914 0.4338719 -0.2156274 -0.8660279 0.4999958 -1.97068e-5 -0.6434364 0.6234875 -0.4441315 -0.354169 0.7818502 -0.5131029 -0.1038388 0.9009627 -0.4212884 0.02682089 0.9749302 -0.2208885 -0.731027 0.6234874 -0.277242 -0.4667012 0.7818184 -0.4134611 -0.2016422 0.9009627 -0.3841961 -0.02682334 0.9749252 -0.2209106 -0.05176484 0.7023237 0.7099732 -0.7761316 0.6234849 -0.09426796 -0.7660424 0.64279 -2.35774e-5 -0.6427956 0.7660378 -3.41311e-5 -0.5520876 0.7818185 -0.2897574 -0.2877268 0.9009627 -0.3247763 -0.07892036 0.9749192 -0.2080966 -0.605366 0.7818381 -0.1492021 -0.5000092 0.8660201 -4.14699e-5 -0.3570901 0.9009627 -0.2464813 -0.1264004 0.9749304 -0.183122 -0.4057002 0.9009628 -0.1538618 -0.1665505 0.9749305 -0.1475521 -0.4307196 0.9009686 -0.05231028 -0.3420173 0.9396937 -9.16421e-7 -0.1970225 0.9749305 -0.1034061 -0.2160574 0.9749274 -0.05325245 -0.1736295 0.9848111 -4.10378e-5 2.98962e-7 0 1 2.79199e-7 0 1 -2.71823e-7 0 1 2.06777e-7 0 1 -1.46545e-7 0 1 0 0 1 0 0 1 0 0 1 -3.86922e-7 0 1 2.96938e-7 0 1 -5.53927e-7 0 1 0 0 1 -1.93855e-7 0 1 2.58449e-7 0 1 0 0 1 -6.35434e-7 0 1 1.53393e-7 0 1 1.67811e-7 0 1 3.8454e-7 0 1 -3.2413e-7 0 1 -5.59983e-7 0 1 0.9848079 -3.355e-5 -0.1736479 1 -3.80836e-5 -2.47285e-5 0.9848079 -0.1736478 -1.83433e-5 -1 -2.48253e-5 -3.79872e-5 -0.9848077 -3.41907e-5 -0.1736488 -0.984808 -0.1736475 -1.83508e-5 0.2209132 -0.9749251 -0.02680337 0.3420183 -0.9396933 -1.093e-5 0.1736552 -0.9848066 -1.78814e-5 0.0516529 -0.7333414 0.6778956 0.2080506 -0.9749303 -0.07890409 0.1831229 -0.9749303 -0.1264003 0.4212831 -0.9009643 -0.1038461 0.5000041 -0.8660231 4.93973e-6 0.147551 -0.9749305 -0.1665515 0.384196 -0.9009628 -0.2016422 0.6189437 -0.781831 -0.07515984 0.7660417 -0.642791 -2.32756e-5 0.6427949 -0.7660383 -2.58833e-5 0.103406 -0.9749303 -0.197023 0.3247762 -0.9009628 -0.2877267 0.5829884 -0.7818185 -0.2210983 0.05324965 -0.9749304 -0.2160452 0.2464815 -0.9009628 -0.3570898 0.5131356 -0.7818186 -0.3541914 0.7591235 -0.6234735 -0.1871167 0.8660201 -0.5000092 -3.58298e-5 0 -0.9749197 -0.2225574 2.71536e-5 -1 -6.89924e-5 0.1538612 -0.9009627 -0.4057006 0.4134344 -0.7818506 -0.4666708 0.6922791 -0.6234873 -0.3633365 0.8943982 -0.4338805 -0.1086263 0.9396975 -0.3420071 -4.72963e-5 -0.05325049 -0.9749303 -0.2160452 0.05230003 -0.9009627 -0.430733 0.2897395 -0.7818504 -0.5520516 0.585211 -0.6234871 -0.5184515 0.8424208 -0.4338833 -0.3194879 -0.1034055 -0.9749303 -0.1970235 -0.05230015 -0.9009628 -0.4307327 0.1492149 -0.7818184 -0.6053883 0.4441319 -0.6234872 -0.6434366 0.7414832 -0.4338833 -0.5118085 0.9465996 -0.2225179 -0.2333135 0.9396916 -1.69054e-5 -0.3420231 -0.1475515 -0.9749305 -0.1665508 -0.1538613 -0.9009628 -0.4057005 6.00121e-7 -0.7818503 -0.6234664 0.277242 -0.6234873 -0.7310271 0.5974532 -0.4338831 -0.674385 0.8632223 -0.2225336 -0.4531294 0.8660196 -3.64929e-5 -0.5000102 -0.1831226 -0.9749302 -0.1264008 -0.2464815 -0.9009627 -0.3570897 -0.1492145 -0.7818184 -0.6053884 0.09423995 -0.6234873 -0.776133 0.4187015 -0.4338833 -0.7977685 0.7298154 -0.2225128 -0.6464191 0.7660475 -1.55792e-5 -0.6427841 0.6427937 -3.4757e-5 -0.7660393 -0.2080509 -0.9749303 -0.07890355 -0.3247764 -0.900963 -0.2877262 -0.2897577 -0.7818185 -0.5520873 -0.09423929 -0.6234872 -0.7761332 0.2156164 -0.4338831 -0.8747887 0.5538096 -0.2225766 -0.8023432 0.4999997 -1.76504e-5 -0.8660256 -0.2209125 -0.9749253 -0.02679938 -0.17364 -0.9848092 -6.3926e-5 -0.3420184 -0.9396932 -9.64105e-6 -0.3841962 -0.9009628 -0.2016417 -0.4134607 -0.7818186 -0.4667012 -0.2772421 -0.6234872 -0.7310271 1.5262e-7 -0.4338365 -0.9009916 0.3456094 -0.2225129 -0.9116152 0.3420196 -4.77433e-5 -0.9396928 0.1736526 -4.99263e-5 -0.984807 -0.4212837 -0.900964 -0.1038455 -0.5000046 -0.8660228 4.93973e-6 -0.5131354 -0.7818186 -0.3541918 -0.4441319 -0.6234871 -0.6434367 -0.2156163 -0.4338831 -0.8747887 0.1174913 -0.2224978 -0.9678278 5.61459e-6 -4.56721e-5 -1 -0.5829885 -0.7818185 -0.2210981 -0.5852109 -0.6234872 -0.5184515 -0.4187013 -0.4338832 -0.7977685 -0.1174912 -0.2224978 -0.9678277 -0.1736518 -4.99785e-5 -0.9848072 -0.6189432 -0.7818315 -0.07516002 -0.6427947 -0.7660385 -2.59355e-5 -0.7660476 -0.642784 -2.32533e-5 -0.6922794 -0.6234872 -0.3633358 -0.597453 -0.4338831 -0.6743852 -0.3456094 -0.2225128 -0.9116152 -0.4999992 -1.76355e-5 -0.8660258 -0.3420187 -4.77731e-5 -0.9396932 -0.7591235 -0.6234733 -0.1871166 -0.8660201 -0.5000094 -3.58894e-5 -0.7414831 -0.4338833 -0.5118088 -0.5538097 -0.2225766 -0.8023433 -0.6427932 -3.48538e-5 -0.7660398 -0.8424208 -0.4338831 -0.3194884 -0.7298154 -0.2225127 -0.6464191 -0.8660193 -3.65451e-5 -0.5000106 -0.7660472 -1.58548e-5 -0.6427844 -0.8943987 -0.4338795 -0.1086262 -0.9396975 -0.3420071 -4.72739e-5 -0.8632478 -0.2225239 -0.4530856 -0.9396913 -1.68085e-5 -0.3420237 -0.9466161 -0.2224792 -0.2332834 0.9848079 -0.1736477 0 1 -1.91927e-5 4.18238e-6 1 -1.91778e-5 -4.16264e-6 0.9848077 -0.1736489 0 0.9396927 -0.34202 0 0.9396926 -0.3420203 0 0.8660253 -0.5000002 0 0.8660255 -0.5 0 0.7660446 -0.6427876 0 0.7660446 -0.6427874 0 0.6427878 -0.7660444 0 0.6427876 -0.7660444 0 0.5000007 -0.866025 0 0.4999995 -0.8660258 0 0.3420208 -0.9396924 0 0.3420196 -0.9396929 0 0.173648 -0.9848078 0 0.173648 -0.9848079 0 6.3801e-7 -1 0 -6.42772e-7 -1 0 -0.1736474 -0.9848079 0 -0.1736487 -0.9848077 0 -0.3420196 -0.9396929 0 -0.3420208 -0.9396924 0 -0.5000001 -0.8660254 0 -0.5 -0.8660255 0 -0.6427875 -0.7660447 0 -0.6427878 -0.7660443 0 -0.7660443 -0.6427879 0 -0.7660449 -0.6427872 0 -0.8660255 -0.4999999 0 -0.8660255 -0.5 0 -0.9396926 -0.3420203 0 -0.9396927 -0.34202 0 -0.9848078 -0.1736485 0 -0.9848078 -0.173648 0 -1 -1.83955e-5 -4.18238e-6 -1 -1.91927e-5 4.16264e-6 0 0 -1 0 0 -1 0 0 -1 -1.43022e-7 0 -1 0 0 -1 1.28333e-7 0 -1 0 0 -1 0 0 -1 0 0 -1 1.30386e-7 0 -1 0 0 -1 -1.4407e-7 0 -1 0 0 -1 0 0 -1 0 0 -1 0 0 -1 0 0 -1 0 0 -1 0 0 -1 1.60497e-7 0 -1 -4.91195e-7 0 -1 0 0 -1 0 0 -1 0 0 -1 -0.9859034 0.1673161 0 -1 1.72034e-5 4.02878e-6 -1 1.72034e-5 -4.00977e-6 -0.9859037 0.1673134 0 -0.9440111 0.3299137 0 -0.944012 0.3299112 0 -0.8755043 0.4832104 0 -0.8755057 0.4832078 0 -0.7823156 0.6228823 0 -0.7823157 0.6228821 0 -0.667069 0.744996 0 -0.6670712 0.7449941 0 -0.5330179 0.8461041 0 -0.5330181 0.846104 0 -0.3839386 0.9233587 0 -0.3839386 0.9233587 0 -0.2240335 0.9745815 0 -0.2240362 0.9745808 0 -0.05781507 0.9983273 0 -0.05781507 0.9983273 0 0.1100349 0.9939278 0 0.1100349 0.9939277 0 0.274784 0.9615061 0 0.2747814 0.9615069 0 0.4317834 0.9019774 0 0.4317836 0.9019773 0 0.5766113 0.8170187 0 0.576611 0.8170188 0 0.7051835 0.709025 0 0.7051812 0.7090271 0 0.8138723 0.5810439 0 0.8138722 0.581044 0 0.8996096 0.436695 4.00977e-6 0.8996093 0.4366956 -4.02878e-6 1 0 0 -0.9848082 0.1736462 0 -1 1.82986e-5 0 -1 1.72108e-5 0 -0.9848074 0.1736508 0 -0.9396935 0.3420178 0 -0.939692 0.342022 0 -0.8660264 0.4999983 0 -0.8660241 0.5000024 0 -0.7660458 0.642786 0 -0.7660431 0.6427894 0 -0.6427894 0.766043 0 -0.642786 0.7660458 0 -0.500002 0.8660243 0 -0.4999983 0.8660265 0 -0.3420221 0.939692 0 -0.342018 0.9396935 0 -0.1736503 0.9848075 0 -0.1736459 0.9848082 0 -2.1961e-6 1 0 2.18896e-6 1 0 0.1736459 0.9848082 0 0.1736503 0.9848075 0 0.342018 0.9396934 0 0.3420221 0.9396919 0 0.499998 0.8660266 0 0.5000019 0.8660244 0 0.642786 0.7660458 0 0.6427894 0.766043 0 0.7660431 0.6427893 0 0.7660458 0.642786 0 0.8660253 0.5000002 0 0.9396926 0.3420203 0 0.9396925 0.3420207 0 0.9848076 0.1736496 0 0.9848083 0.1736455 0 1 1.85221e-5 0 1 1.96174e-5 0 -0.9873325 4.21926e-5 0.158665 -0.9848073 0.1736507 2.7746e-5 -1 3.27826e-6 1.11719e-5 -0.1297057 0.04214221 0.9906566 -0.1103609 0.08018046 0.9906522 -0.2918125 2.8275e-5 0.9564756 -0.1363905 8.2748e-6 0.9906552 0.2918134 2.82824e-5 0.9564753 0.1103571 0.08018535 0.9906522 0.1297036 0.04214644 0.9906567 0.1363878 1.47112e-5 0.9906556 1 1.31519e-5 2.76417e-6 0.9848073 0.1736512 2.79024e-5 0.9873325 4.20436e-5 0.1586648 -0.2209058 0.9749265 0.02681481 -0.173635 0.9848102 4.89801e-5 -0.3420197 0.9396929 0 -1.08667e-5 1 -3.88026e-5 -0.2080779 0.9749237 0.07891356 -0.183109 0.9749341 0.1263912 -0.4212846 0.9009637 0.1038454 -0.5000059 0.8660221 3.98308e-5 -0.1475414 0.9749339 0.1665394 -0.3842028 0.9009594 0.2016445 -0.6189436 0.7818323 0.07514774 -0.6427932 0.7660399 2.00234e-5 -0.7660437 0.6427885 1.97738e-5 -0.1033996 0.9749339 0.1970087 -0.3247818 0.9009593 0.2877311 -0.583 0.7818086 0.2211027 -0.05325424 0.9749239 0.216073 -0.2464852 0.9009593 0.3570961 -0.5131167 0.7818366 0.3541792 -0.7591289 0.6234647 0.1871234 -0.8660223 0.5000055 3.84301e-5 -6.36777e-7 0.9749203 0.2225542 0.04729825 0.6715153 0.7394796 -0.1538642 0.9009593 0.4057073 -0.413446 0.7818366 0.4666839 -0.6922652 0.6235074 0.3633284 -0.8943977 0.4338814 0.1086278 -0.9396947 0.3420148 1.70171e-5 0.05325543 0.9749239 0.2160727 -0.05230087 0.9009593 0.4307401 -0.2897638 0.7818087 0.552098 -0.58522 0.6234723 0.5184593 -0.8424425 0.4338349 0.3194965 0.1033985 0.974934 0.1970089 0.0523017 0.9009593 0.43074 -0.1492173 0.7818086 0.6054003 -0.4441232 0.6235073 0.6434232 -0.7414863 0.4338751 0.5118112 -0.9466074 0.2225006 0.2332981 -0.9496518 2.96384e-5 0.3133074 0.1475699 0.9749239 0.1665734 0.1538642 0.9009592 0.4057074 1.69035e-7 0.7818087 0.6235186 -0.2772462 0.6234724 0.7310381 -0.5974558 0.4338749 0.6743881 -0.8632397 0.2226666 0.4530308 -0.8879153 3.89814e-5 0.4600071 -0.8036841 1.40667e-5 0.5950564 0.1831083 0.9749341 0.1263919 0.246463 0.9009788 0.3570623 0.1492176 0.7818086 0.6054002 -0.09424072 0.6234725 0.7761448 -0.4186942 0.4339149 0.7977551 -0.7297316 0.2225649 0.6464958 -0.6990892 1.20327e-5 0.7150346 0.208077 0.9749239 0.07891458 0.3247817 0.9009592 0.2877314 0.2897635 0.7818088 0.5520981 0.09423804 0.6235073 0.7761173 -0.2156166 0.4338748 0.8747926 -0.553851 0.2226668 0.8022897 -0.5767869 4.28185e-5 0.8168947 -0.4398758 2.36332e-5 0.8980587 0.2209057 0.9749265 0.02681404 0.1736336 0.9848104 5.24819e-5 0.3420197 0.9396929 -8.49366e-7 0.3842023 0.9009594 0.2016452 0.4134458 0.7818367 0.466684 0.2772462 0.6234725 0.731038 -1.21654e-7 0.433835 0.9009924 -0.3457146 0.2225203 0.9115735 -0.08018726 0.1103497 0.9906529 0.4212835 0.9009642 0.1038463 0.5000059 0.8660219 3.98755e-5 0.5131458 0.7818087 0.3541987 0.444139 0.6234724 0.6434461 0.2156169 0.4338748 0.8747926 -0.1175315 0.2225344 0.9678145 -0.04214543 0.1296952 0.9906579 -7.54185e-6 0.1363788 0.9906569 0.583 0.7818087 0.2211027 0.58522 0.6234722 0.5184593 0.4187033 0.433875 0.7977719 0.1175308 0.2225351 0.9678143 0.04214245 0.1296957 0.9906579 0.08019095 0.1103445 0.990653 0.6189435 0.7818325 0.0751478 0.6427933 0.7660398 1.99974e-5 0.766043 0.6427893 1.97366e-5 0.6922896 0.6234728 0.3633413 0.5974558 0.4338749 0.674388 0.3456955 0.2225599 0.911571 0.4398766 2.36705e-5 0.8980583 0.7591088 0.6234964 0.1870995 0.866022 0.5000059 3.84301e-5 0.7414863 0.4338752 0.5118109 0.553851 0.2226668 0.8022897 0.576796 4.24162e-5 0.8168883 0.69909 1.20848e-5 0.7150338 0.8424245 0.433875 0.3194896 0.7297315 0.2225649 0.6464959 0.8036844 1.40965e-5 0.5950559 0.8943992 0.4338782 0.1086276 0.9396944 0.3420153 1.72704e-5 0.8632444 0.2226242 0.4530426 0.8879159 3.93391e-5 0.4600059 0.9496518 2.92435e-5 0.3133072 0.9466075 0.2225006 0.2332978 -0.9848079 0.1736477 0 -1 1.94088e-5 0 -1 1.85817e-5 0 -0.9848077 0.1736491 0 -0.9396928 0.3420197 0 -0.9396926 0.3420204 0 -0.8660256 0.4999998 0 -0.8660255 0.4999998 0 -0.7660443 0.6427878 0 -0.7660446 0.6427875 0 -0.6427881 0.7660442 0 -0.6427869 0.7660451 0 -0.5000001 0.8660254 0 -0.5 0.8660254 0 -0.3420209 0.9396924 0 -0.3420196 0.9396928 0 -0.1736488 0.9848077 0 -0.1736474 0.9848079 0 -7.1419e-7 1 0 7.1419e-7 1 0 0.1736474 0.9848079 0 0.1736488 0.9848077 0 0.3420203 0.9396926 0 0.5000001 0.8660254 0 0.5 0.8660254 0 0.642787 0.766045 0 0.6427881 0.7660442 0 0.7660439 0.6427882 0 0.7660449 0.642787 0 0.8660259 0.4999992 0 0.9396928 0.3420197 0 0.9396926 0.3420204 0 0.9848076 0.173649 0 0.9848079 0.1736477 0 1 1.86116e-5 0 1 1.9446e-5 0 0.9848079 -0.1736477 0 1 -1.86265e-5 0 1 -1.94386e-5 0 0.9848076 -0.1736491 0 0.9396929 -0.3420193 0 0.9396925 -0.3420208 0 0.8660259 -0.4999992 0 0.8660252 -0.5000005 0 0.7660447 -0.6427874 0 0.7660443 -0.6427878 0 0.6427874 -0.7660446 0 0.6427876 -0.7660445 0 0.5000007 -0.8660251 0 0.4999994 -0.8660259 0 0.342021 -0.9396924 0 0.3420196 -0.9396929 0 0.1736488 -0.9848077 0 0.1736474 -0.9848079 0 0 -1 0 -0.1736488 -0.9848077 0 -0.3420203 -0.9396926 0 -0.4999994 -0.8660259 0 -0.5000007 -0.8660251 0 -0.6427869 -0.7660451 0 -0.642788 -0.7660442 0 -0.7660441 -0.6427881 0 -0.7660448 -0.6427873 0 -0.8660253 -0.5000002 0 -0.8660257 -0.4999995 0 -0.9396926 -0.3420203 0 -0.9396929 -0.3420198 0 -0.9848076 -0.1736491 0 -0.9848079 -0.1736477 0 -1 -1.94088e-5 0 -1 -1.85892e-5 0 -0.9848087 -0.1736432 1.02818e-5 -0.9873314 -3.89665e-5 0.1586717 -1 -1.15081e-5 2.14577e-6 -0.1297036 -0.04214656 0.9906567 -0.1363878 -1.44914e-5 0.9906556 -0.2918216 -4.21777e-5 0.9564728 -0.1103347 -0.08016616 0.9906562 0.2918208 -4.23491e-5 0.9564731 0.1363905 -8.49553e-6 0.9906552 0.1297057 -0.04214209 0.9906566 0.110337 -0.0801621 0.9906563 0.9848076 -0.1736494 1.18464e-5 1 -4.91738e-6 1.17995e-5 0.9873313 -3.92348e-5 0.1586721 -0.9678165 -0.222519 0.1175436 -0.93969 -0.3420276 6.49691e-6 -0.9496569 -1.50353e-5 0.3132923 -0.9115921 -0.2225775 0.3456284 -0.8879157 -1.47223e-5 0.4600061 -0.8023151 -0.2225559 0.5538587 -0.8036828 -1.11908e-5 0.595058 -0.6990934 -1.61678e-5 0.7150304 -0.8747912 -0.4338727 0.215627 -0.86603 -0.499992 3.50103e-5 -0.6465323 -0.2225784 0.729695 -0.5767884 -4.64395e-5 0.8168936 -0.7977891 -0.4338349 0.4187121 -0.7761291 -0.6234902 0.09425324 -0.766043 -0.6427894 2.29254e-5 -0.642794 -0.7660392 3.03388e-5 -0.4530608 -0.2225307 0.863259 -0.4398668 -9.10461e-6 0.898063 -0.6743879 -0.433875 0.5974558 -0.7310124 -0.623507 0.2772365 -0.2333023 -0.2225077 0.9466047 -0.04214608 -0.1297029 0.9906569 -0.080168 -0.1103519 0.9906542 -0.5118112 -0.4338749 0.7414863 -0.6434459 -0.6234725 0.444139 -0.6053795 -0.7818242 0.14922 -0.5000067 -0.8660215 3.00109e-5 4.06615e-6 -0.2225214 0.9749279 0.04214107 -0.129706 0.9906566 3.24333e-6 -0.1363533 0.9906603 -0.3194896 -0.4338747 0.8424245 -0.5184597 -0.6234722 0.5852197 -0.5520668 -0.7818369 0.2897471 -0.4307197 -0.9009688 0.05230671 -0.3420161 -0.9396942 4.55976e-6 0.2333028 -0.2225071 0.9466047 0.08017188 -0.1103497 0.9906541 -0.108598 -0.4339147 0.894385 -0.3633416 -0.6234723 0.69229 -0.466684 -0.7818367 0.4134458 -0.4057071 -0.9009593 0.1538645 0.4530287 -0.2225595 0.8632684 0.5767884 -4.65736e-5 0.8168937 0.4398661 -9.11951e-6 0.8980634 0.108598 -0.4339147 0.894385 -0.1871079 -0.6234725 0.7591263 -0.3541988 -0.7818087 0.5131456 -0.3570962 -0.9009591 0.2464852 -0.2160608 -0.9749265 0.05325424 -0.1736423 -0.9848089 2.54363e-5 -0.0439614 -0.6958135 0.7168758 0.6464948 -0.2225174 0.7297469 0.6990932 -1.6354e-5 0.7150306 0.3194894 -0.4338747 0.8424246 0 -0.6234725 0.7818453 -0.2211028 -0.7818088 0.5829997 -0.2877318 -0.9009591 0.3247815 -0.1970484 -0.974924 0.1034179 0.8023403 -0.2225309 0.5538324 0.8879157 -1.47e-5 0.4600062 0.8036825 -1.15037e-5 0.5950585 0.5118112 -0.4338749 0.7414863 0.1871077 -0.6234725 0.7591264 -0.07515704 -0.7818087 0.6189723 -0.2016457 -0.9009593 0.3842024 -0.1665391 -0.9749341 0.1475414 0.9115844 -0.2225535 0.3456647 0.9496567 -1.48416e-5 0.3132925 0.6744027 -0.4338351 0.5974682 0.3633418 -0.6234723 0.6922898 0.07515287 -0.7818368 0.6189374 -0.1038406 -0.9009593 0.4212952 -0.1263915 -0.974934 0.1831091 0.9678162 -0.2225207 0.1175436 0.9396901 -0.3420271 6.65337e-6 0.7977892 -0.4338349 0.418712 0.5184783 -0.6234374 0.5852403 0.2211027 -0.7818088 0.5829997 -1.40979e-7 -0.9009592 0.4339038 -0.07891321 -0.9749239 0.2080775 0.8747912 -0.4338727 0.2156267 0.86603 -0.499992 3.49283e-5 0.643446 -0.6234725 0.4441388 0.3541988 -0.7818087 0.5131456 0.1038406 -0.9009591 0.4212954 -0.02681827 -0.9749341 0.2208723 0.7310383 -0.6234722 0.2772462 0.4666838 -0.7818366 0.4134462 0.2016445 -0.9009593 0.3842031 0.02682191 -0.9749274 0.220901 4.00469e-5 -1 -4.94719e-5 0.7761309 -0.6234879 0.09425312 0.7660399 -0.6427931 2.17035e-5 0.6427942 -0.766039 3.02866e-5 0.5520668 -0.7818369 0.2897471 0.2877318 -0.9009592 0.3247815 0.0789138 -0.974924 0.2080768 0.6053794 -0.7818242 0.1492201 0.5000075 -0.8660212 2.98545e-5 0.3570961 -0.9009591 0.2464854 0.1263916 -0.974934 0.1831093 0.4057071 -0.9009593 0.1538645 0.1665396 -0.9749341 0.1475408 0.4307194 -0.9009689 0.05230671 0.3420164 -0.9396941 4.59701e-6 0.197048 -0.9749239 0.103419 0.216061 -0.9749265 0.05325323 0.1736425 -0.9848088 2.55406e-5 2.38225e-6 0 1 9.45626e-7 0 1 -1.79869e-6 0 1 -4.176e-5 0 1 1.43895e-5 0 1 -1.513e-5 0 1 2.42852e-6 0 1 5.29327e-6 0 1 -5.95108e-6 0 1 5.06229e-6 0 1 -3.22359e-6 0 1 -1.02194e-6 0 1 4.08776e-6 0 1 -2.14906e-6 0 1 1.53415e-6 0 -1 1.53414e-6 0 -1 1.53414e-6 0 -1 -7.67074e-7 0 -1 3.87459e-7 0 -1 -1.96719e-7 0 -1 -1.03323e-6 0 -1 -1.53415e-6 0 -1 -7.67078e-7 0 -1 5.16614e-7 0 -1 -2.62292e-7 0 -1 -3.21264e-7 0 -1 -2.51903e-7 0 -1 1.923e-7 0 -1 4.98813e-7 0 -1 -4.39349e-7 0 -1 0 0 -1 0 0 -1 1.20474e-7 0 -1 1.31146e-7 0 -1 0 0 -1 0 0 -1 0 0 -1 0 0 -1 0 0 -1 0.9848083 -0.1736454 0 1 -1.85221e-5 0 1 -1.95876e-5 0 0.9848076 -0.1736496 0 0.9396933 -0.3420183 0 0.9396917 -0.3420227 0 0.8660264 -0.4999984 0 0.8660242 -0.5000021 0 0.7660458 -0.642786 0 0.7660431 -0.6427893 0 0.6427894 -0.766043 0 0.642786 -0.7660458 0 0.500002 -0.8660243 0 0.499998 -0.8660266 0 0.34202 -0.9396927 0 0.34202 -0.9396927 0 0.1736503 -0.9848075 0 0.1736459 -0.9848082 0 0 -1 0 0 -1 0 -0.1736459 -0.9848082 0 -0.1736503 -0.9848075 0 -0.34202 -0.9396927 0 -0.34202 -0.9396927 0 -0.5000002 -0.8660253 0 -0.6427878 -0.7660444 0 -0.7660445 -0.6427877 0 -0.7660444 -0.6427876 0 -0.8660253 -0.5000002 0 -0.8660252 -0.5000005 0 -0.9396927 -0.3420202 0 -0.9396929 -0.3420196 0 -0.9848078 -0.1736481 0 -0.9848077 -0.1736489 0 -1 -1.82986e-5 0 -1 -1.72108e-5 0 1.37253e-7 0 1 1.65327e-7 0 1 2.74506e-7 0 1 -1.37253e-7 0 1 -2.74506e-7 0 1 0 0 1 -1.23996e-7 0 1 1.20097e-7 0 1 -1.20096e-7 0 1 -2.74506e-7 0 1 0 0 1 0 0 1 -1.37253e-7 0 1 1.37253e-7 0 1 -1.65327e-7 0 1 -1.65327e-7 0 1 0 0 1 1.37253e-7 0 1 1.23996e-7 0 1 0 0 1 1.65327e-7 0 1 0 0 1 0 0 1 -1.65328e-7 0 1 0 0 1 -1 0 0</float_array>
          <technique_common>
            <accessor source="#camera_led-mesh-normals-array" count="865" stride="3">
              <param name="X" type="float"/>
              <param name="Y" type="float"/>
              <param name="Z" type="float"/>
            </accessor>
          </technique_common>
        </source>
        <vertices id="camera_led-mesh-vertices">
          <input semantic="POSITION" source="#camera_led-mesh-positions"/>
        </vertices>
        <triangles material="mat_0-material" count="1278">
          <input semantic="VERTEX" source="#camera_led-mesh-vertices" offset="0"/>
          <input semantic="NORMAL" source="#camera_led-mesh-normals" offset="1"/>
          <p>19 0 0 1 1 2 19 0 18 3 0 1 20 4 1 2 2 5 20 4 19 0 1 2 21 6 2 5 3 7 21 6 20 4 2 5 22 8 3 7 4 9 22 8 21 6 3 7 23 10 4 9 5 11 23 10 22 8 4 9 24 12 5 11 6 13 24 12 23 10 5 11 25 14 6 13 7 15 25 14 24 12 6 13 26 16 7 15 8 17 26 16 25 14 7 15 27 18 8 17 9 19 27 18 26 16 8 17 28 20 9 19 10 21 28 20 27 18 9 19 29 22 10 21 11 23 29 22 28 20 10 21 30 24 11 23 12 25 30 24 29 22 11 23 31 26 12 25 13 27 31 26 30 24 12 25 32 28 13 27 14 29 32 28 31 26 13 27 33 30 14 29 15 31 33 30 32 28 14 29 17 32 15 31 16 33 17 32 33 30 15 31 64 34 34 35 35 36 64 34 63 37 34 35 65 38 35 36 36 39 65 38 64 34 35 36 66 40 36 39 37 41 66 40 65 38 36 39 67 42 37 41 38 43 67 42 38 43 39 44 67 42 66 40 37 41 68 45 67 42 39 44 69 46 39 44 40 47 69 46 68 45 39 44 70 48 40 47 41 49 70 48 41 49 42 50 70 48 69 46 40 47 71 51 42 50 43 52 71 51 70 48 42 50 54 53 71 51 43 52 55 54 43 52 44 55 55 54 54 53 43 52 56 56 44 55 45 57 56 56 55 54 44 55 57 58 45 57 46 59 57 58 56 56 45 57 58 60 46 59 47 60 58 60 47 60 48 61 58 60 57 58 46 59 59 62 48 61 49 63 59 62 58 60 48 61 60 64 59 62 49 63 60 64 49 63 50 65 61 66 60 64 50 65 62 67 61 66 50 65 62 67 50 65 51 67 62 67 51 67 52 68 53 69 62 67 52 68 90 70 91 71 92 72 73 73 101 74 72 75 109 76 89 77 90 70 109 76 90 70 92 72 110 78 109 76 92 72 110 78 92 72 93 79 110 78 93 79 94 80 111 81 94 80 95 82 111 81 110 78 94 80 112 83 88 84 89 77 112 83 109 76 110 78 112 83 89 77 109 76 113 85 95 82 96 86 113 85 96 86 97 87 113 85 111 81 95 82 114 88 112 83 110 78 114 88 110 78 111 81 115 89 86 90 87 91 115 89 87 91 88 84 115 89 88 84 112 83 116 92 97 87 98 93 116 92 113 85 97 87 117 94 114 88 111 81 117 94 111 81 113 85 118 95 112 83 114 88 118 95 115 89 112 83 119 96 98 93 99 97 119 96 116 92 98 93 120 98 113 85 116 92 120 98 117 94 113 85 121 99 114 88 117 94 121 99 118 95 114 88 122 100 85 101 86 90 122 100 86 90 115 89 122 100 115 89 118 95 123 102 119 96 99 97 123 102 99 97 100 103 123 102 100 103 108 104 124 105 116 92 119 96 124 105 120 98 116 92 125 106 121 99 117 94 125 106 117 94 120 98 126 107 122 100 118 95 126 107 118 95 121 99 127 108 85 101 122 100 127 108 84 109 85 101 128 110 123 102 108 104 128 110 108 104 107 111 129 112 124 105 119 96 129 112 119 96 123 102 130 113 125 106 120 98 130 113 120 98 124 105 131 114 126 107 121 99 131 114 121 99 125 106 132 115 127 108 122 100 132 115 122 100 126 107 133 116 128 110 107 111 133 116 107 111 106 117 134 118 123 102 128 110 134 118 129 112 123 102 135 119 124 105 129 112 135 119 130 113 124 105 136 120 125 106 130 113 136 120 131 114 125 106 137 121 126 107 131 114 137 121 132 115 126 107 138 122 82 123 83 124 138 122 83 124 84 109 138 122 127 108 132 115 138 122 84 109 127 108 139 125 105 126 104 127 139 125 106 117 105 126 139 125 133 116 106 117 140 128 134 118 128 110 140 128 128 110 133 116 141 129 129 112 134 118 141 129 135 119 129 112 142 130 136 120 130 113 142 130 130 113 135 119 143 131 131 114 136 120 143 131 137 121 131 114 144 132 132 115 137 121 144 132 138 122 132 115 144 132 82 123 138 122 145 133 104 127 103 134 145 133 139 125 104 127 146 135 133 116 139 125 146 135 140 128 133 116 147 136 134 118 140 128 147 136 141 129 134 118 148 137 135 119 141 129 148 137 142 130 135 119 149 138 136 120 142 130 149 138 143 131 136 120 150 139 137 121 143 131 150 139 82 123 144 132 150 139 144 132 137 121 151 140 102 141 101 74 151 140 103 134 102 141 151 140 145 133 103 134 152 142 139 125 145 133 152 142 146 135 139 125 153 143 140 128 146 135 153 143 147 136 140 128 154 144 141 129 147 136 154 144 148 137 141 129 155 145 142 130 148 137 155 145 149 138 142 130 156 146 82 123 150 139 156 146 143 131 149 138 156 146 150 139 143 131 157 147 73 73 74 148 157 147 101 74 73 73 157 147 151 140 101 74 158 149 152 142 145 133 158 149 145 133 151 140 159 150 153 143 146 135 159 150 146 135 152 142 160 151 147 136 153 143 160 151 154 144 147 136 161 152 155 145 148 137 161 152 148 137 154 144 162 153 156 146 149 138 162 153 149 138 155 145 162 153 82 123 156 146 163 154 74 148 75 155 163 154 157 147 74 148 163 154 151 140 157 147 163 154 158 149 151 140 164 156 159 150 152 142 164 156 152 142 158 149 165 157 153 143 159 150 165 157 160 151 153 143 166 158 154 144 160 151 166 158 161 152 154 144 167 159 155 145 161 152 167 159 82 123 162 153 167 159 162 153 155 145 168 160 158 149 163 154 168 160 164 156 158 149 169 161 165 157 159 150 169 161 159 150 164 156 170 162 160 151 165 157 170 162 166 158 160 151 171 163 81 164 82 123 171 163 82 123 167 159 171 163 161 152 166 158 171 163 167 159 161 152 172 165 75 155 76 166 172 165 76 166 77 167 172 165 168 160 163 154 172 165 163 154 75 155 173 168 164 156 168 160 173 168 169 161 164 156 174 169 170 162 165 157 174 169 165 157 169 161 175 170 166 158 170 162 175 170 81 164 171 163 175 170 171 163 166 158 176 171 77 167 78 172 176 171 173 168 168 160 176 171 172 165 77 167 176 171 168 160 172 165 177 173 169 161 173 168 177 173 174 169 169 161 178 174 170 162 174 169 178 174 81 164 175 170 178 174 175 170 170 162 179 175 173 168 176 171 179 175 177 173 173 168 180 176 81 164 178 174 180 176 174 169 177 173 180 176 178 174 174 169 181 177 78 172 79 178 181 177 176 171 78 172 181 177 179 175 176 171 182 179 81 164 180 176 182 179 177 173 179 175 182 179 180 176 177 173 183 180 79 178 80 181 183 180 80 181 81 164 183 180 81 164 182 179 183 180 181 177 79 178 183 180 179 175 181 177 183 180 182 179 179 175 224 182 202 182 201 182 224 183 203 183 202 183 223 184 204 184 203 184 223 185 205 185 204 185 223 186 206 186 205 186 223 187 207 187 206 187 223 188 208 188 207 188 223 189 203 189 224 189 221 189 201 189 200 189 221 190 224 190 201 190 199 191 221 191 200 191 198 189 222 189 221 189 198 192 221 192 199 192 197 189 222 189 198 189 220 193 209 193 208 193 220 194 210 194 209 194 220 195 211 195 210 195 220 196 212 196 211 196 220 189 208 189 223 189 219 197 213 197 212 197 219 198 214 198 213 198 219 189 212 189 220 189 217 189 223 189 222 189 217 189 220 189 223 189 196 189 222 189 197 189 215 189 214 189 219 189 195 189 222 189 196 189 216 189 215 189 219 189 194 189 222 189 195 189 184 189 219 189 218 189 184 189 216 189 219 189 193 189 217 189 222 189 193 189 222 189 194 189 185 189 184 189 218 189 192 189 217 189 193 189 186 199 185 199 218 199 191 200 217 200 192 200 187 201 186 201 218 201 190 189 217 189 191 189 188 189 187 189 218 189 189 189 217 189 190 189 189 202 188 202 218 202 189 189 218 189 217 189 226 203 225 204 235 205 253 206 254 207 252 208 262 209 241 210 242 211 262 209 242 211 243 212 263 213 262 209 243 212 264 214 263 213 243 212 265 215 240 216 241 210 265 215 241 210 262 209 265 215 262 209 263 213 266 217 264 214 243 212 267 218 265 215 263 213 267 218 263 213 264 214 268 219 238 220 239 221 268 219 239 221 240 216 268 219 240 216 265 215 269 222 266 217 243 212 270 223 264 214 266 217 270 223 267 218 264 214 271 224 268 219 265 215 271 224 265 215 267 218 272 225 269 222 243 212 273 226 266 217 269 222 273 226 270 223 266 217 274 227 267 218 270 223 274 227 271 224 267 218 275 228 238 220 268 219 275 228 237 229 238 220 275 228 268 219 271 224 276 230 243 212 244 231 276 230 272 225 243 212 277 232 273 226 269 222 277 232 269 222 272 225 278 233 270 223 273 226 278 233 274 227 270 223 279 234 275 228 271 224 279 234 271 224 274 227 280 235 236 236 237 229 280 235 237 229 275 228 281 237 276 230 244 231 282 238 277 232 272 225 282 238 272 225 276 230 283 239 273 226 277 232 283 239 278 233 273 226 284 240 274 227 278 233 284 240 279 234 274 227 285 241 275 228 279 234 285 241 280 235 275 228 286 242 281 237 244 231 287 243 282 238 276 230 287 243 276 230 281 237 288 244 277 232 282 238 288 244 283 239 277 232 289 245 284 240 278 233 289 245 278 233 283 239 290 246 279 234 284 240 290 246 285 241 279 234 291 247 227 248 226 203 291 247 235 205 236 236 291 247 280 235 285 241 291 247 236 236 280 235 291 247 226 203 235 205 292 249 286 242 244 231 293 250 281 237 286 242 293 250 287 243 281 237 294 251 282 238 287 243 294 251 288 244 282 238 295 252 283 239 288 244 295 252 289 245 283 239 296 253 284 240 289 245 296 253 290 246 284 240 297 254 228 255 227 248 297 254 227 248 291 247 297 254 285 241 290 246 297 254 291 247 285 241 298 256 292 249 244 231 299 257 286 242 292 249 299 257 293 250 286 242 300 258 287 243 293 250 300 258 294 251 287 243 301 259 288 244 294 251 301 259 295 252 288 244 302 260 289 245 295 252 302 260 296 253 289 245 303 261 229 262 228 255 303 261 230 263 229 262 303 261 228 255 297 254 303 261 290 246 296 253 303 261 297 254 290 246 304 264 298 256 244 231 305 265 299 257 292 249 305 265 292 249 298 256 306 266 293 250 299 257 306 266 300 258 293 250 307 267 294 251 300 258 307 267 301 259 294 251 308 268 295 252 301 259 308 268 302 260 295 252 309 269 231 270 230 263 309 269 296 253 302 260 309 269 230 263 303 261 309 269 303 261 296 253 310 271 244 231 245 272 310 271 245 272 246 273 310 271 304 264 244 231 311 274 305 265 298 256 311 274 298 256 304 264 312 275 299 257 305 265 312 275 306 266 299 257 313 276 300 258 306 266 313 276 307 267 300 258 314 277 301 259 307 267 314 277 308 268 301 259 315 278 232 279 231 270 315 278 233 280 232 279 315 278 302 260 308 268 315 278 309 269 302 260 315 278 231 270 309 269 316 281 310 271 246 273 316 281 304 264 310 271 316 281 311 274 304 264 316 281 246 273 247 282 317 283 305 265 311 274 317 283 312 275 305 265 318 284 306 266 312 275 318 284 313 276 306 266 319 285 314 277 307 267 319 285 307 267 313 276 320 286 234 287 233 280 320 286 233 280 315 278 320 286 315 278 308 268 320 286 308 268 314 277 321 288 311 274 316 281 321 288 317 283 311 274 322 289 312 275 317 283 322 289 318 284 312 275 323 290 313 276 318 284 323 290 319 285 313 276 324 291 261 292 234 287 324 291 314 277 319 285 324 291 320 286 314 277 324 291 234 287 320 286 325 293 247 282 248 294 325 293 248 294 249 295 325 293 316 281 247 282 325 293 321 288 316 281 326 296 322 289 317 283 326 296 317 283 321 288 327 297 318 284 322 289 327 297 323 290 318 284 328 298 261 292 324 291 328 298 259 299 260 300 328 298 260 300 261 292 328 298 319 285 323 290 328 298 324 291 319 285 329 301 249 295 250 302 329 301 325 293 249 295 329 301 321 288 325 293 329 301 326 296 321 288 330 303 322 289 326 296 330 303 327 297 322 289 331 304 259 299 328 298 331 304 258 305 259 299 331 304 323 290 327 297 331 304 328 298 323 290 332 306 326 296 329 301 332 306 330 303 326 296 333 307 327 297 330 303 333 307 256 308 257 309 333 307 257 309 258 305 333 307 331 304 327 297 333 307 258 305 331 304 334 310 250 302 251 311 334 310 329 301 250 302 334 310 332 306 329 301 335 312 333 307 330 303 335 312 255 313 256 308 335 312 256 308 333 307 335 312 330 303 332 306 336 314 252 208 254 207 336 314 251 311 252 208 336 314 254 207 255 313 336 314 334 310 251 311 336 314 332 306 334 310 336 314 255 313 335 312 336 314 335 312 332 306 367 315 338 316 337 317 367 315 337 317 339 318 368 319 339 318 340 320 368 319 340 320 341 321 368 319 367 315 339 318 369 322 368 319 341 321 370 323 341 321 342 324 370 323 342 324 343 325 370 323 369 322 341 321 371 326 370 323 343 325 372 327 343 325 344 328 372 327 371 326 343 325 373 329 344 328 345 330 373 329 372 327 344 328 374 331 345 330 346 332 374 331 346 332 347 333 374 331 373 329 345 330 358 334 347 333 348 335 358 334 374 331 347 333 359 336 348 335 349 337 359 336 358 334 348 335 360 338 349 337 350 339 360 338 359 336 349 337 361 340 360 338 350 339 362 341 350 339 351 342 362 341 351 342 352 343 362 341 361 340 350 339 363 344 352 343 353 345 363 344 362 341 352 343 364 346 363 344 353 345 365 347 364 346 353 345 365 347 353 345 354 348 365 347 354 348 355 349 366 350 365 347 355 349 366 350 355 349 356 351 357 352 366 350 356 351 422 353 403 353 404 353 421 354 402 354 403 354 421 353 403 353 422 353 423 353 404 353 405 353 423 355 422 355 404 355 420 353 401 353 402 353 420 356 402 356 421 356 424 353 405 353 406 353 424 357 423 357 405 357 419 353 400 353 401 353 419 353 401 353 420 353 425 358 406 358 407 358 425 353 424 353 406 353 418 359 399 359 400 359 418 353 400 353 419 353 426 353 407 353 377 353 426 360 425 360 407 360 417 353 399 353 418 353 417 361 398 361 399 361 378 353 426 353 377 353 427 353 426 353 378 353 416 353 398 353 417 353 397 362 398 362 416 362 379 363 427 363 378 363 428 353 427 353 379 353 415 353 397 353 416 353 396 353 397 353 415 353 380 353 428 353 379 353 429 364 428 364 380 364 414 353 396 353 415 353 395 353 396 353 414 353 381 365 429 365 380 365 430 353 429 353 381 353 413 366 395 366 414 366 394 353 395 353 413 353 382 353 430 353 381 353 431 353 430 353 382 353 412 367 394 367 413 367 393 353 394 353 412 353 411 368 393 368 412 368 383 354 431 354 382 354 383 369 432 369 431 369 375 353 393 353 411 353 410 370 375 370 411 370 384 371 433 371 432 371 384 353 432 353 383 353 409 372 375 372 410 372 385 353 434 353 433 353 385 353 433 353 384 353 408 373 375 373 409 373 386 353 435 353 434 353 386 353 434 353 385 353 387 353 436 353 435 353 387 353 435 353 386 353 388 353 437 353 436 353 388 362 436 362 387 362 389 374 438 374 437 374 389 353 437 353 388 353 376 353 442 353 441 353 376 372 443 372 442 372 376 373 408 373 443 373 376 353 375 353 408 353 390 366 439 366 438 366 390 353 438 353 389 353 392 353 441 353 440 353 392 375 376 375 441 375 391 376 392 376 440 376 391 353 440 353 439 353 391 353 439 353 390 353 463 377 445 378 444 379 463 377 444 379 446 380 464 381 446 380 447 382 464 381 463 377 446 380 465 383 447 382 448 384 465 383 464 381 447 382 466 385 448 384 449 386 466 385 449 386 450 387 466 385 465 383 448 384 467 388 450 387 451 389 467 388 466 385 450 387 468 390 467 388 451 389 469 391 451 389 452 392 469 391 452 392 453 393 469 391 468 390 451 389 470 394 453 393 454 395 470 394 469 391 453 393 471 396 470 394 454 395 472 397 454 395 455 398 472 397 455 398 456 399 472 397 471 396 454 395 473 400 456 399 457 401 473 400 472 397 456 399 474 402 473 400 457 401 475 403 457 401 458 404 475 403 458 404 459 405 475 403 474 402 457 401 476 406 459 405 460 407 476 406 475 403 459 405 477 408 476 406 460 407 462 409 460 407 461 410 462 409 477 408 460 407 481 411 478 411 479 411 481 411 480 411 478 411 485 412 502 413 484 414 485 412 503 415 502 413 486 416 504 417 503 415 486 416 503 415 485 412 487 418 505 419 504 417 487 418 504 417 486 416 488 420 506 421 505 419 488 420 505 419 487 418 489 422 507 423 506 421 489 422 506 421 488 420 490 424 508 425 507 423 490 424 507 423 489 422 491 426 509 427 508 425 491 426 508 425 490 424 492 428 510 429 509 427 492 428 509 427 491 426 493 430 511 431 510 429 493 430 510 429 492 428 494 432 512 433 511 431 494 432 511 431 493 430 495 434 513 435 512 433 495 434 512 433 494 432 496 436 514 437 513 435 496 436 513 435 495 434 497 438 515 439 514 437 497 438 514 437 496 436 498 440 516 441 515 439 498 440 515 439 497 438 499 442 516 441 498 440 499 442 517 442 516 441 499 442 518 443 517 442 500 444 518 443 499 442 501 445 518 443 500 444 501 445 519 446 518 443 483 447 519 446 501 445 483 447 482 448 519 446 541 449 549 450 540 451 531 452 532 453 548 454 530 455 531 452 548 454 528 456 538 457 539 458 528 456 539 458 529 459 520 460 566 461 521 462 567 463 556 464 555 465 567 463 557 466 556 464 568 467 557 466 567 463 569 468 557 466 568 467 570 469 568 467 567 463 570 469 567 463 555 465 570 469 555 465 554 470 571 471 557 466 569 468 572 472 568 467 570 469 572 472 569 468 568 467 573 473 570 469 554 470 573 473 553 474 552 475 573 473 554 470 553 474 574 476 557 466 571 471 575 477 571 471 569 468 575 477 569 468 572 472 576 478 570 469 573 473 576 478 572 472 570 469 577 479 557 466 574 476 578 480 571 471 575 477 578 480 574 476 571 471 579 481 575 477 572 472 579 481 572 472 576 478 580 482 573 473 552 475 580 482 552 475 551 483 580 482 576 478 573 473 581 484 558 485 557 466 581 484 557 466 577 479 582 486 577 479 574 476 582 486 574 476 578 480 583 487 575 477 579 481 583 487 578 480 575 477 584 488 576 478 580 482 584 488 579 481 576 478 585 489 551 483 550 490 585 489 580 482 551 483 586 491 558 485 581 484 587 492 581 484 577 479 587 492 577 479 582 486 588 493 578 480 583 487 588 493 582 486 578 480 589 494 579 481 584 488 589 494 583 487 579 481 590 495 580 482 585 489 590 495 584 488 580 482 591 496 558 485 586 491 592 497 586 491 581 484 592 497 581 484 587 492 593 498 587 492 582 486 593 498 582 486 588 493 594 499 583 487 589 494 594 499 588 493 583 487 595 500 589 494 584 488 595 500 584 488 590 495 596 501 541 449 542 502 596 501 550 490 549 450 596 501 585 489 550 490 596 501 549 450 541 449 596 501 590 495 585 489 597 503 558 485 591 496 598 504 586 491 592 497 598 504 591 496 586 491 599 505 592 497 587 492 599 505 587 492 593 498 600 506 593 498 588 493 600 506 588 493 594 499 601 507 594 499 589 494 601 507 589 494 595 500 602 508 542 502 543 509 602 508 543 509 544 510 602 508 595 500 590 495 602 508 590 495 596 501 602 508 596 501 542 502 603 511 558 485 597 503 604 512 597 503 591 496 604 512 591 496 598 504 605 513 598 504 592 497 605 513 592 497 599 505 606 514 599 505 593 498 606 514 593 498 600 506 607 515 600 506 594 499 607 515 594 499 601 507 608 516 544 510 545 517 608 516 602 508 544 510 608 516 595 500 602 508 608 516 601 507 595 500 609 518 558 485 603 511 610 519 603 511 597 503 610 519 597 503 604 512 611 520 598 504 605 513 611 520 604 512 598 504 612 521 605 513 599 505 612 521 599 505 606 514 613 522 606 514 600 506 613 522 600 506 607 515 614 523 607 515 601 507 614 523 545 517 546 524 614 523 546 524 547 525 614 523 601 507 608 516 614 523 608 516 545 517 615 526 559 527 558 485 615 526 560 528 559 527 615 526 558 485 609 518 616 529 603 511 610 519 616 529 609 518 603 511 617 530 604 512 611 520 617 530 610 519 604 512 618 531 605 513 612 521 618 531 611 520 605 513 619 532 612 521 606 514 619 532 606 514 613 522 620 533 614 523 547 525 620 533 532 453 533 534 620 533 547 525 548 454 620 533 607 515 614 523 620 533 613 522 607 515 620 533 548 454 532 453 621 535 615 526 609 518 621 535 561 536 560 528 621 535 560 528 615 526 621 535 609 518 616 529 622 537 616 529 610 519 622 537 610 519 617 530 623 538 617 530 611 520 623 538 611 520 618 531 624 539 618 531 612 521 624 539 612 521 619 532 625 540 533 534 534 541 625 540 534 541 535 542 625 540 620 533 533 534 625 540 619 532 613 522 625 540 613 522 620 533 626 543 621 535 616 529 626 543 616 529 622 537 627 544 622 537 617 530 627 544 617 530 623 538 628 545 623 538 618 531 628 545 618 531 624 539 629 546 535 542 536 547 629 546 536 547 537 548 629 546 625 540 535 542 629 546 624 539 619 532 629 546 619 532 625 540 630 549 562 550 561 536 630 549 563 551 562 550 630 549 561 536 621 535 630 549 621 535 626 543 631 552 626 543 622 537 631 552 622 537 627 544 632 553 623 538 628 545 632 553 627 544 623 538 633 554 528 456 527 555 633 554 537 548 538 457 633 554 538 457 528 456 633 554 629 546 537 548 633 554 628 545 624 539 633 554 624 539 629 546 634 556 563 551 630 549 634 556 630 549 626 543 634 556 626 543 631 552 634 556 564 557 563 551 635 558 631 552 627 544 635 558 627 544 632 553 636 559 526 560 525 561 636 559 527 555 526 560 636 559 632 553 628 545 636 559 633 554 527 555 636 559 628 545 633 554 637 562 634 556 631 552 637 562 631 552 635 558 638 563 525 561 524 564 638 563 635 558 632 553 638 563 636 559 525 561 638 563 632 553 636 559 639 565 634 556 637 562 639 565 565 566 564 557 639 565 564 557 634 556 640 567 523 568 522 569 640 567 524 564 523 568 640 567 635 558 638 563 640 567 638 563 524 564 640 567 637 562 635 558 641 570 522 569 521 462 641 570 640 567 522 569 641 570 565 566 639 565 641 570 521 462 566 461 641 570 566 461 565 566 641 570 637 562 640 567 641 570 639 565 637 562 654 571 662 572 653 573 654 571 663 574 662 572 655 575 664 576 663 574 655 575 663 574 654 571 656 577 665 578 664 576 656 577 666 579 665 578 656 577 664 576 655 575 657 580 666 579 656 577 658 581 667 582 666 579 658 581 666 579 657 580 659 583 668 584 667 582 659 583 669 585 668 584 659 583 667 582 658 581 660 586 670 587 669 585 660 586 669 585 659 583 661 588 671 589 670 587 661 588 670 587 660 586 644 590 672 591 671 589 644 590 671 589 661 588 645 592 673 593 672 591 645 592 672 591 644 590 646 593 673 593 645 592 647 594 674 595 673 593 647 594 675 596 674 595 647 594 673 593 646 593 648 597 676 598 675 596 648 597 675 596 647 594 649 599 677 63 676 598 649 599 676 598 648 597 650 600 677 63 649 599 650 600 678 601 677 63 651 602 678 601 650 600 652 603 678 601 651 602 652 603 679 604 678 601 643 605 679 604 652 603 643 605 642 606 679 604 681 607 690 608 680 609 681 607 691 610 690 608 682 611 692 612 691 610 682 611 691 610 681 607 683 613 693 614 692 612 683 613 692 612 682 611 684 615 694 616 693 614 684 615 695 617 694 616 684 615 693 614 683 613 685 618 695 617 684 615 686 619 696 620 695 617 686 619 695 617 685 618 687 621 697 622 696 620 687 621 696 620 686 619 688 623 698 624 697 622 688 623 697 622 687 621 689 625 699 625 698 624 689 625 700 335 699 625 689 625 698 624 688 623 710 626 701 627 700 335 710 626 700 335 689 625 711 627 701 627 710 626 712 628 702 629 701 627 712 628 701 627 711 627 713 630 703 631 702 629 713 630 702 629 712 628 714 632 704 633 703 631 714 632 703 631 713 630 715 634 704 633 714 632 715 634 705 635 704 633 716 636 705 635 715 634 716 636 706 637 705 635 717 638 706 637 716 636 717 638 707 639 706 637 709 640 707 639 717 638 709 640 708 641 707 639 755 642 757 643 756 644 727 645 728 646 764 647 726 648 727 645 764 647 737 649 718 650 719 651 737 649 719 651 720 652 738 653 729 654 730 655 765 656 755 642 754 657 765 656 758 658 757 643 765 656 757 643 755 642 766 659 759 660 758 658 766 659 758 658 765 656 767 661 759 660 766 659 767 661 760 662 759 660 767 661 761 663 760 662 768 664 754 657 753 665 768 664 766 659 765 656 768 664 765 656 754 657 769 666 762 667 761 663 769 666 761 663 767 661 770 668 767 661 766 659 770 668 766 659 768 664 771 669 752 670 751 671 771 669 753 665 752 670 771 669 768 664 753 665 772 672 762 667 769 666 772 672 763 673 762 667 772 672 764 647 763 673 773 674 769 666 767 661 773 674 767 661 770 668 774 675 768 664 771 669 774 675 770 668 768 664 775 676 724 677 725 678 775 676 725 678 726 648 775 676 726 648 764 647 775 676 764 647 772 672 776 679 769 666 773 674 776 679 772 672 769 666 777 680 770 668 774 675 777 680 773 674 770 668 778 681 751 671 750 682 778 681 774 675 771 669 778 681 771 669 751 671 779 683 722 684 723 685 779 683 723 685 724 677 779 683 724 677 775 676 780 686 775 676 772 672 780 686 772 672 776 679 781 687 773 674 777 680 781 687 776 679 773 674 782 688 777 680 774 675 782 688 774 675 778 681 783 689 778 681 750 682 783 689 750 682 749 690 784 691 737 649 720 652 784 691 720 652 721 692 784 691 721 692 722 684 784 691 722 684 779 683 785 693 775 676 780 686 785 693 779 683 775 676 786 694 776 679 781 687 786 694 780 686 776 679 787 695 781 687 777 680 787 695 777 680 782 688 788 696 778 681 783 689 788 696 782 688 778 681 789 697 735 698 736 699 789 697 736 699 737 649 789 697 737 649 784 691 790 700 784 691 779 683 790 700 779 683 785 693 791 701 785 693 780 686 791 701 780 686 786 694 792 702 786 694 781 687 792 702 781 687 787 695 793 703 787 695 782 688 793 703 782 688 788 696 794 704 748 705 747 706 794 704 749 690 748 705 794 704 783 689 749 690 794 704 788 696 783 689 795 707 734 708 735 698 795 707 735 698 789 697 796 709 789 697 784 691 796 709 784 691 790 700 797 710 790 700 785 693 797 710 785 693 791 701 798 711 791 701 786 694 798 711 786 694 792 702 799 712 792 702 787 695 799 712 787 695 793 703 800 713 793 703 788 696 800 713 794 704 747 706 800 713 788 696 794 704 801 714 732 715 733 716 801 714 733 716 734 708 801 714 734 708 795 707 802 717 795 707 789 697 802 717 789 697 796 709 803 718 796 709 790 700 803 718 790 700 797 710 804 719 797 710 791 701 804 719 791 701 798 711 805 720 798 711 792 702 805 720 792 702 799 712 806 721 800 713 747 706 806 721 799 712 793 703 806 721 793 703 800 713 807 722 731 723 732 715 807 722 732 715 801 714 808 724 795 707 802 717 808 724 801 714 795 707 809 725 796 709 803 718 809 725 802 717 796 709 810 726 797 710 804 719 810 726 803 718 797 710 811 727 804 719 798 711 811 727 798 711 805 720 812 728 805 720 799 712 812 728 806 721 747 706 812 728 799 712 806 721 813 729 730 655 731 723 813 729 731 723 807 722 813 729 739 730 738 653 813 729 738 653 730 655 814 731 801 714 808 724 814 731 807 722 801 714 815 732 802 717 809 725 815 732 808 724 802 717 816 733 803 718 810 726 816 733 809 725 803 718 817 734 810 726 804 719 817 734 804 719 811 727 818 735 805 720 812 728 818 735 811 727 805 720 818 735 812 728 747 706 819 736 740 737 739 730 819 736 739 730 813 729 819 736 813 729 807 722 819 736 807 722 814 731 820 738 808 724 815 732 820 738 814 731 808 724 821 739 809 725 816 733 821 739 815 732 809 725 822 740 810 726 817 734 822 740 816 733 810 726 823 741 818 735 747 706 823 741 811 727 818 735 823 741 817 734 811 727 824 742 819 736 814 731 824 742 814 731 820 738 825 743 820 738 815 732 825 743 815 732 821 739 826 744 821 739 816 733 826 744 816 733 822 740 827 745 822 740 817 734 827 745 747 706 746 746 827 745 817 734 823 741 827 745 823 741 747 706 828 747 740 737 819 736 828 747 741 748 740 737 828 747 742 749 741 748 828 747 819 736 824 742 829 750 820 738 825 743 829 750 824 742 820 738 830 751 821 739 826 744 830 751 825 743 821 739 831 752 822 740 827 745 831 752 826 744 822 740 831 752 827 745 746 746 832 753 743 754 742 749 832 753 742 749 828 747 832 753 828 747 824 742 832 753 824 742 829 750 833 755 829 750 825 743 833 755 825 743 830 751 834 756 831 752 746 746 834 756 830 751 826 744 834 756 826 744 831 752 835 757 832 753 829 750 835 757 829 750 833 755 836 758 834 756 746 746 836 758 833 755 830 751 836 758 830 751 834 756 837 759 743 754 832 753 837 759 744 760 743 754 837 759 832 753 835 757 838 761 835 757 833 755 838 761 836 758 746 746 838 761 833 755 836 758 839 762 744 760 837 759 839 762 837 759 835 757 839 762 745 763 744 760 839 762 746 746 745 763 839 762 835 757 838 761 839 762 838 761 746 746 848 764 841 764 840 764 848 189 842 189 841 189 848 189 843 189 842 189 848 189 844 189 843 189 848 765 845 765 844 765 848 766 846 766 845 766 848 189 847 189 846 189 848 767 850 767 849 767 848 768 851 768 850 768 848 769 852 769 851 769 848 770 853 770 852 770 848 771 854 771 853 771 848 772 855 772 854 772 848 773 856 773 855 773 848 774 857 774 856 774 848 775 858 775 857 775 848 776 859 776 858 776 848 777 840 777 859 777 872 778 873 778 874 778 877 779 875 779 876 779 879 353 877 353 878 353 881 780 879 780 880 780 866 781 867 781 868 781 866 782 868 782 869 782 866 783 869 783 870 783 882 784 879 784 881 784 883 353 879 353 882 353 863 785 864 785 865 785 887 786 885 786 886 786 894 787 860 787 861 787 894 788 861 788 862 788 894 789 862 789 863 789 894 790 865 790 866 790 894 353 895 353 860 353 894 791 863 791 865 791 892 792 870 792 871 792 892 793 871 793 872 793 892 794 874 794 875 794 892 795 883 795 884 795 892 353 884 353 885 353 892 796 887 796 888 796 892 797 888 797 889 797 892 353 889 353 890 353 892 785 890 785 891 785 892 353 893 353 894 353 892 798 872 798 874 798 892 799 877 799 879 799 892 800 875 800 877 800 892 353 879 353 883 353 892 801 866 801 870 801 892 802 885 802 887 802 892 353 894 353 866 353 897 803 915 804 896 805 897 803 916 806 915 804 898 807 917 808 916 806 898 807 916 806 897 803 899 809 918 810 917 808 899 809 917 808 898 807 900 811 919 812 918 810 900 811 918 810 899 809 901 813 920 814 919 812 901 813 919 812 900 811 902 815 921 816 920 814 902 815 920 814 901 813 903 817 922 818 921 816 903 817 923 819 922 818 903 817 921 816 902 815 904 820 924 821 923 819 904 820 923 819 903 817 905 822 924 821 904 820 906 823 925 824 924 821 906 823 924 821 905 822 907 825 926 826 925 824 907 825 927 339 926 826 907 825 925 824 906 823 908 827 927 339 907 825 909 342 928 828 927 339 909 342 929 829 928 828 909 342 927 339 908 827 910 830 929 829 909 342 911 831 929 829 910 830 911 831 930 832 929 829 911 831 931 833 930 832 912 834 931 833 911 831 913 835 931 833 912 834 913 835 932 836 931 833 913 835 933 837 932 836 914 838 933 837 913 835 1001 839 966 839 965 839 1001 189 1002 189 966 189 1003 189 967 189 966 189 1003 189 966 189 1002 189 1000 189 965 189 964 189 1000 840 1001 840 965 840 1004 841 968 841 967 841 1004 189 967 189 1003 189 999 842 964 842 963 842 999 189 1000 189 964 189 1005 843 969 843 968 843 1005 189 968 189 1004 189 998 189 999 189 963 189 998 844 963 844 962 844 970 189 934 189 969 189 970 845 969 845 1005 845 997 846 962 846 961 846 997 189 998 189 962 189 971 189 935 189 934 189 971 189 934 189 970 189 996 189 997 189 961 189 996 847 961 847 960 847 972 848 936 848 935 848 972 849 935 849 971 849 995 189 996 189 960 189 995 850 960 850 959 850 973 189 937 189 936 189 973 840 936 840 972 840 994 851 959 851 958 851 994 189 995 189 959 189 974 189 938 189 937 189 974 189 937 189 973 189 993 842 958 842 957 842 993 189 994 189 958 189 939 189 974 189 975 189 939 852 938 852 974 852 956 851 993 851 957 851 956 189 992 189 993 189 991 189 992 189 956 189 940 853 975 853 976 853 940 852 939 852 975 852 955 189 991 189 956 189 977 189 940 189 976 189 941 851 940 851 977 851 954 189 991 189 955 189 954 854 990 854 991 854 942 855 977 855 978 855 942 189 941 189 977 189 953 189 989 189 990 189 953 856 990 856 954 856 979 189 942 189 978 189 988 857 989 857 953 857 952 189 988 189 953 189 943 189 942 189 979 189 944 858 979 858 980 858 944 189 943 189 979 189 951 189 986 189 987 189 951 859 987 859 988 859 951 860 988 860 952 860 945 861 980 861 981 861 945 189 944 189 980 189 950 854 985 854 986 854 950 856 986 856 951 856 949 189 984 189 985 189 949 189 985 189 950 189 946 862 981 862 982 862 946 189 945 189 981 189 947 189 946 189 982 189 947 853 982 853 983 853 947 189 983 189 984 189 948 189 947 189 984 189 948 863 984 863 949 863</p>
        </triangles>
        <triangles material="mat_1-material" count="20">
          <input semantic="VERTEX" source="#camera_led-mesh-vertices" offset="0"/>
          <input semantic="NORMAL" source="#camera_led-mesh-normals" offset="1"/>
          <p>1008 411 1006 411 1007 411 1008 411 1007 411 1009 411 1011 52 1012 52 1010 52 1011 52 1013 52 1012 52 1015 864 1016 864 1014 864 1015 864 1017 864 1016 864 1020 625 1018 625 1019 625 1020 625 1019 625 1021 625 1024 189 1022 189 1023 189 1024 189 1023 189 1025 189 1028 411 1026 411 1027 411 1028 411 1027 411 1029 411 1031 52 1032 52 1030 52 1031 52 1033 52 1032 52 1035 864 1036 864 1034 864 1035 864 1037 864 1036 864 1040 625 1038 625 1039 625 1040 625 1039 625 1041 625 1044 189 1042 189 1043 189 1044 189 1043 189 1045 189</p>
        </triangles>
      </mesh>
    </geometry>
  </library_geometries>
  <library_visual_scenes>
    <visual_scene id="Scene" name="Scene">
      <node id="camera_led" name="camera_led" type="NODE">
        <matrix sid="transform">-4.37114e-8 4.37114e-8 -1 0 1 1.91069e-15 -4.37114e-8 0 0 -1 -4.37114e-8 0 0 0 0 1</matrix>
        <instance_geometry url="#camera_led-mesh" name="camera_led">
          <bind_material>
            <technique_common>
              <instance_material symbol="mat_0-material" target="#mat_0-material"/>
              <instance_material symbol="mat_1-material" target="#mat_1-material"/>
            </technique_common>
          </bind_material>
        </instance_geometry>
      </node>
    </visual_scene>
  </library_visual_scenes>
  <scene>
    <instance_visual_scene url="#Scene"/>
  </scene>
</COLLADA>